<?xml version="1.0" encoding="utf-8" standalone="no"?>
<!DOCTYPE svg PUBLIC "-//W3C//DTD SVG 1.1//EN"
  "http://www.w3.org/Graphics/SVG/1.1/DTD/svg11.dtd">
<!-- Created with matplotlib (http://matplotlib.org/) -->
<svg height="576pt" version="1.1" viewBox="0 0 864 576" width="864pt" xmlns="http://www.w3.org/2000/svg" xmlns:xlink="http://www.w3.org/1999/xlink">
 <defs>
  <style type="text/css">
*{stroke-linecap:butt;stroke-linejoin:round;}
  </style>
 </defs>
 <g id="figure_1">
  <g id="patch_1">
   <path d="
M0 576
L864 576
L864 0
L0 0
L0 576" style="fill:none;"/>
  </g>
  <g id="axes_1">
   <g id="patch_2">
    <path d="
M108 518.4
L777.6 518.4
L777.6 57.6
L108 57.6
L108 518.4" style="fill:none;"/>
   </g>
   <g id="patch_3">
    <path clip-path="url(#p40d8c4fc83)" d="
M109.585 518.4
L118.591 518.4
L118.591 515.612
L109.585 515.612
z
" style="fill:#6f1717;opacity:0.4;stroke:#000000;stroke-linejoin:miter;"/>
   </g>
   <g id="patch_4">
    <path clip-path="url(#p40d8c4fc83)" d="
M118.591 518.4
L127.597 518.4
L127.597 518.4
L118.591 518.4
z
" style="fill:#6f1717;opacity:0.4;stroke:#000000;stroke-linejoin:miter;"/>
   </g>
   <g id="patch_5">
    <path clip-path="url(#p40d8c4fc83)" d="
M127.597 518.4
L136.603 518.4
L136.603 518.4
L127.597 518.4
z
" style="fill:#6f1717;opacity:0.4;stroke:#000000;stroke-linejoin:miter;"/>
   </g>
   <g id="patch_6">
    <path clip-path="url(#p40d8c4fc83)" d="
M136.603 518.4
L145.609 518.4
L145.609 515.612
L136.603 515.612
z
" style="fill:#6f1717;opacity:0.4;stroke:#000000;stroke-linejoin:miter;"/>
   </g>
   <g id="patch_7">
    <path clip-path="url(#p40d8c4fc83)" d="
M145.609 518.4
L154.614 518.4
L154.614 518.4
L145.609 518.4
z
" style="fill:#6f1717;opacity:0.4;stroke:#000000;stroke-linejoin:miter;"/>
   </g>
   <g id="patch_8">
    <path clip-path="url(#p40d8c4fc83)" d="
M154.614 518.4
L163.62 518.4
L163.62 512.825
L154.614 512.825
z
" style="fill:#6f1717;opacity:0.4;stroke:#000000;stroke-linejoin:miter;"/>
   </g>
   <g id="patch_9">
    <path clip-path="url(#p40d8c4fc83)" d="
M163.62 518.4
L172.626 518.4
L172.626 515.612
L163.62 515.612
z
" style="fill:#6f1717;opacity:0.4;stroke:#000000;stroke-linejoin:miter;"/>
   </g>
   <g id="patch_10">
    <path clip-path="url(#p40d8c4fc83)" d="
M172.626 518.4
L181.632 518.4
L181.632 518.4
L172.626 518.4
z
" style="fill:#6f1717;opacity:0.4;stroke:#000000;stroke-linejoin:miter;"/>
   </g>
   <g id="patch_11">
    <path clip-path="url(#p40d8c4fc83)" d="
M181.632 518.4
L190.638 518.4
L190.638 515.612
L181.632 515.612
z
" style="fill:#6f1717;opacity:0.4;stroke:#000000;stroke-linejoin:miter;"/>
   </g>
   <g id="patch_12">
    <path clip-path="url(#p40d8c4fc83)" d="
M190.638 518.4
L199.643 518.4
L199.643 518.4
L190.638 518.4
z
" style="fill:#6f1717;opacity:0.4;stroke:#000000;stroke-linejoin:miter;"/>
   </g>
   <g id="patch_13">
    <path clip-path="url(#p40d8c4fc83)" d="
M199.643 518.4
L208.649 518.4
L208.649 512.825
L199.643 512.825
z
" style="fill:#6f1717;opacity:0.4;stroke:#000000;stroke-linejoin:miter;"/>
   </g>
   <g id="patch_14">
    <path clip-path="url(#p40d8c4fc83)" d="
M208.649 518.4
L217.655 518.4
L217.655 510.037
L208.649 510.037
z
" style="fill:#6f1717;opacity:0.4;stroke:#000000;stroke-linejoin:miter;"/>
   </g>
   <g id="patch_15">
    <path clip-path="url(#p40d8c4fc83)" d="
M217.655 518.4
L226.661 518.4
L226.661 507.249
L217.655 507.249
z
" style="fill:#6f1717;opacity:0.4;stroke:#000000;stroke-linejoin:miter;"/>
   </g>
   <g id="patch_16">
    <path clip-path="url(#p40d8c4fc83)" d="
M226.661 518.4
L235.667 518.4
L235.667 507.249
L226.661 507.249
z
" style="fill:#6f1717;opacity:0.4;stroke:#000000;stroke-linejoin:miter;"/>
   </g>
   <g id="patch_17">
    <path clip-path="url(#p40d8c4fc83)" d="
M235.667 518.4
L244.672 518.4
L244.672 518.4
L235.667 518.4
z
" style="fill:#6f1717;opacity:0.4;stroke:#000000;stroke-linejoin:miter;"/>
   </g>
   <g id="patch_18">
    <path clip-path="url(#p40d8c4fc83)" d="
M244.672 518.4
L253.678 518.4
L253.678 504.461
L244.672 504.461
z
" style="fill:#6f1717;opacity:0.4;stroke:#000000;stroke-linejoin:miter;"/>
   </g>
   <g id="patch_19">
    <path clip-path="url(#p40d8c4fc83)" d="
M253.678 518.4
L262.684 518.4
L262.684 501.674
L253.678 501.674
z
" style="fill:#6f1717;opacity:0.4;stroke:#000000;stroke-linejoin:miter;"/>
   </g>
   <g id="patch_20">
    <path clip-path="url(#p40d8c4fc83)" d="
M262.684 518.4
L271.69 518.4
L271.69 510.037
L262.684 510.037
z
" style="fill:#6f1717;opacity:0.4;stroke:#000000;stroke-linejoin:miter;"/>
   </g>
   <g id="patch_21">
    <path clip-path="url(#p40d8c4fc83)" d="
M271.69 518.4
L280.696 518.4
L280.696 507.249
L271.69 507.249
z
" style="fill:#6f1717;opacity:0.4;stroke:#000000;stroke-linejoin:miter;"/>
   </g>
   <g id="patch_22">
    <path clip-path="url(#p40d8c4fc83)" d="
M280.696 518.4
L289.701 518.4
L289.701 504.461
L280.696 504.461
z
" style="fill:#6f1717;opacity:0.4;stroke:#000000;stroke-linejoin:miter;"/>
   </g>
   <g id="patch_23">
    <path clip-path="url(#p40d8c4fc83)" d="
M289.701 518.4
L298.707 518.4
L298.707 496.098
L289.701 496.098
z
" style="fill:#6f1717;opacity:0.4;stroke:#000000;stroke-linejoin:miter;"/>
   </g>
   <g id="patch_24">
    <path clip-path="url(#p40d8c4fc83)" d="
M298.707 518.4
L307.713 518.4
L307.713 512.825
L298.707 512.825
z
" style="fill:#6f1717;opacity:0.4;stroke:#000000;stroke-linejoin:miter;"/>
   </g>
   <g id="patch_25">
    <path clip-path="url(#p40d8c4fc83)" d="
M307.713 518.4
L316.719 518.4
L316.719 487.735
L307.713 487.735
z
" style="fill:#6f1717;opacity:0.4;stroke:#000000;stroke-linejoin:miter;"/>
   </g>
   <g id="patch_26">
    <path clip-path="url(#p40d8c4fc83)" d="
M316.719 518.4
L325.725 518.4
L325.725 490.523
L316.719 490.523
z
" style="fill:#6f1717;opacity:0.4;stroke:#000000;stroke-linejoin:miter;"/>
   </g>
   <g id="patch_27">
    <path clip-path="url(#p40d8c4fc83)" d="
M325.725 518.4
L334.73 518.4
L334.73 471.009
L325.725 471.009
z
" style="fill:#6f1717;opacity:0.4;stroke:#000000;stroke-linejoin:miter;"/>
   </g>
   <g id="patch_28">
    <path clip-path="url(#p40d8c4fc83)" d="
M334.73 518.4
L343.736 518.4
L343.736 479.372
L334.73 479.372
z
" style="fill:#6f1717;opacity:0.4;stroke:#000000;stroke-linejoin:miter;"/>
   </g>
   <g id="patch_29">
    <path clip-path="url(#p40d8c4fc83)" d="
M343.736 518.4
L352.742 518.4
L352.742 459.858
L343.736 459.858
z
" style="fill:#6f1717;opacity:0.4;stroke:#000000;stroke-linejoin:miter;"/>
   </g>
   <g id="patch_30">
    <path clip-path="url(#p40d8c4fc83)" d="
M352.742 518.4
L361.748 518.4
L361.748 471.009
L352.742 471.009
z
" style="fill:#6f1717;opacity:0.4;stroke:#000000;stroke-linejoin:miter;"/>
   </g>
   <g id="patch_31">
    <path clip-path="url(#p40d8c4fc83)" d="
M361.748 518.4
L370.754 518.4
L370.754 423.618
L361.748 423.618
z
" style="fill:#6f1717;opacity:0.4;stroke:#000000;stroke-linejoin:miter;"/>
   </g>
   <g id="patch_32">
    <path clip-path="url(#p40d8c4fc83)" d="
M370.754 518.4
L379.759 518.4
L379.759 384.59
L370.754 384.59
z
" style="fill:#6f1717;opacity:0.4;stroke:#000000;stroke-linejoin:miter;"/>
   </g>
   <g id="patch_33">
    <path clip-path="url(#p40d8c4fc83)" d="
M379.759 518.4
L388.765 518.4
L388.765 384.59
L379.759 384.59
z
" style="fill:#6f1717;opacity:0.4;stroke:#000000;stroke-linejoin:miter;"/>
   </g>
   <g id="patch_34">
    <path clip-path="url(#p40d8c4fc83)" d="
M388.765 518.4
L397.771 518.4
L397.771 314.898
L388.765 314.898
z
" style="fill:#6f1717;opacity:0.4;stroke:#000000;stroke-linejoin:miter;"/>
   </g>
   <g id="patch_35">
    <path clip-path="url(#p40d8c4fc83)" d="
M397.771 518.4
L406.777 518.4
L406.777 136.485
L397.771 136.485
z
" style="fill:#6f1717;opacity:0.4;stroke:#000000;stroke-linejoin:miter;"/>
   </g>
   <g id="patch_36">
    <path clip-path="url(#p40d8c4fc83)" d="
M406.777 518.4
L415.783 518.4
L415.783 150.423
L406.777 150.423
z
" style="fill:#6f1717;opacity:0.4;stroke:#000000;stroke-linejoin:miter;"/>
   </g>
   <g id="patch_37">
    <path clip-path="url(#p40d8c4fc83)" d="
M415.783 518.4
L424.788 518.4
L424.788 86.3062
L415.783 86.3062
z
" style="fill:#6f1717;opacity:0.4;stroke:#000000;stroke-linejoin:miter;"/>
   </g>
   <g id="patch_38">
    <path clip-path="url(#p40d8c4fc83)" d="
M424.788 518.4
L433.794 518.4
L433.794 61.2169
L424.788 61.2169
z
" style="fill:#6f1717;opacity:0.4;stroke:#000000;stroke-linejoin:miter;"/>
   </g>
   <g id="patch_39">
    <path clip-path="url(#p40d8c4fc83)" d="
M433.794 518.4
L442.8 518.4
L442.8 83.5185
L433.794 83.5185
z
" style="fill:#6f1717;opacity:0.4;stroke:#000000;stroke-linejoin:miter;"/>
   </g>
   <g id="patch_40">
    <path clip-path="url(#p40d8c4fc83)" d="
M442.8 518.4
L451.806 518.4
L451.806 189.451
L442.8 189.451
z
" style="fill:#6f1717;opacity:0.4;stroke:#000000;stroke-linejoin:miter;"/>
   </g>
   <g id="patch_41">
    <path clip-path="url(#p40d8c4fc83)" d="
M451.806 518.4
L460.812 518.4
L460.812 239.63
L451.806 239.63
z
" style="fill:#6f1717;opacity:0.4;stroke:#000000;stroke-linejoin:miter;"/>
   </g>
   <g id="patch_42">
    <path clip-path="url(#p40d8c4fc83)" d="
M460.812 518.4
L469.817 518.4
L469.817 367.864
L460.812 367.864
z
" style="fill:#6f1717;opacity:0.4;stroke:#000000;stroke-linejoin:miter;"/>
   </g>
   <g id="patch_43">
    <path clip-path="url(#p40d8c4fc83)" d="
M469.817 518.4
L478.823 518.4
L478.823 404.104
L469.817 404.104
z
" style="fill:#6f1717;opacity:0.4;stroke:#000000;stroke-linejoin:miter;"/>
   </g>
   <g id="patch_44">
    <path clip-path="url(#p40d8c4fc83)" d="
M478.823 518.4
L487.829 518.4
L487.829 457.071
L478.823 457.071
z
" style="fill:#6f1717;opacity:0.4;stroke:#000000;stroke-linejoin:miter;"/>
   </g>
   <g id="patch_45">
    <path clip-path="url(#p40d8c4fc83)" d="
M487.829 518.4
L496.835 518.4
L496.835 479.372
L487.829 479.372
z
" style="fill:#6f1717;opacity:0.4;stroke:#000000;stroke-linejoin:miter;"/>
   </g>
   <g id="patch_46">
    <path clip-path="url(#p40d8c4fc83)" d="
M496.835 518.4
L505.841 518.4
L505.841 493.311
L496.835 493.311
z
" style="fill:#6f1717;opacity:0.4;stroke:#000000;stroke-linejoin:miter;"/>
   </g>
   <g id="patch_47">
    <path clip-path="url(#p40d8c4fc83)" d="
M505.841 518.4
L514.846 518.4
L514.846 510.037
L505.841 510.037
z
" style="fill:#6f1717;opacity:0.4;stroke:#000000;stroke-linejoin:miter;"/>
   </g>
   <g id="patch_48">
    <path clip-path="url(#p40d8c4fc83)" d="
M514.846 518.4
L523.852 518.4
L523.852 507.249
L514.846 507.249
z
" style="fill:#6f1717;opacity:0.4;stroke:#000000;stroke-linejoin:miter;"/>
   </g>
   <g id="patch_49">
    <path clip-path="url(#p40d8c4fc83)" d="
M523.852 518.4
L532.858 518.4
L532.858 518.4
L523.852 518.4
z
" style="fill:#6f1717;opacity:0.4;stroke:#000000;stroke-linejoin:miter;"/>
   </g>
   <g id="patch_50">
    <path clip-path="url(#p40d8c4fc83)" d="
M532.858 518.4
L541.864 518.4
L541.864 518.4
L532.858 518.4
z
" style="fill:#6f1717;opacity:0.4;stroke:#000000;stroke-linejoin:miter;"/>
   </g>
   <g id="patch_51">
    <path clip-path="url(#p40d8c4fc83)" d="
M541.864 518.4
L550.87 518.4
L550.87 515.612
L541.864 515.612
z
" style="fill:#6f1717;opacity:0.4;stroke:#000000;stroke-linejoin:miter;"/>
   </g>
   <g id="patch_52">
    <path clip-path="url(#p40d8c4fc83)" d="
M550.87 518.4
L559.875 518.4
L559.875 518.4
L550.87 518.4
z
" style="fill:#6f1717;opacity:0.4;stroke:#000000;stroke-linejoin:miter;"/>
   </g>
   <g id="patch_53">
    <path clip-path="url(#p40d8c4fc83)" d="
M559.875 518.4
L568.881 518.4
L568.881 518.4
L559.875 518.4
z
" style="fill:#6f1717;opacity:0.4;stroke:#000000;stroke-linejoin:miter;"/>
   </g>
   <g id="patch_54">
    <path clip-path="url(#p40d8c4fc83)" d="
M568.881 518.4
L577.887 518.4
L577.887 518.4
L568.881 518.4
z
" style="fill:#6f1717;opacity:0.4;stroke:#000000;stroke-linejoin:miter;"/>
   </g>
   <g id="patch_55">
    <path clip-path="url(#p40d8c4fc83)" d="
M577.887 518.4
L586.893 518.4
L586.893 518.4
L577.887 518.4
z
" style="fill:#6f1717;opacity:0.4;stroke:#000000;stroke-linejoin:miter;"/>
   </g>
   <g id="patch_56">
    <path clip-path="url(#p40d8c4fc83)" d="
M586.893 518.4
L595.899 518.4
L595.899 518.4
L586.893 518.4
z
" style="fill:#6f1717;opacity:0.4;stroke:#000000;stroke-linejoin:miter;"/>
   </g>
   <g id="patch_57">
    <path clip-path="url(#p40d8c4fc83)" d="
M595.899 518.4
L604.904 518.4
L604.904 518.4
L595.899 518.4
z
" style="fill:#6f1717;opacity:0.4;stroke:#000000;stroke-linejoin:miter;"/>
   </g>
   <g id="patch_58">
    <path clip-path="url(#p40d8c4fc83)" d="
M604.904 518.4
L613.91 518.4
L613.91 518.4
L604.904 518.4
z
" style="fill:#6f1717;opacity:0.4;stroke:#000000;stroke-linejoin:miter;"/>
   </g>
   <g id="patch_59">
    <path clip-path="url(#p40d8c4fc83)" d="
M613.91 518.4
L622.916 518.4
L622.916 518.4
L613.91 518.4
z
" style="fill:#6f1717;opacity:0.4;stroke:#000000;stroke-linejoin:miter;"/>
   </g>
   <g id="patch_60">
    <path clip-path="url(#p40d8c4fc83)" d="
M622.916 518.4
L631.922 518.4
L631.922 518.4
L622.916 518.4
z
" style="fill:#6f1717;opacity:0.4;stroke:#000000;stroke-linejoin:miter;"/>
   </g>
   <g id="patch_61">
    <path clip-path="url(#p40d8c4fc83)" d="
M631.922 518.4
L640.928 518.4
L640.928 518.4
L631.922 518.4
z
" style="fill:#6f1717;opacity:0.4;stroke:#000000;stroke-linejoin:miter;"/>
   </g>
   <g id="patch_62">
    <path clip-path="url(#p40d8c4fc83)" d="
M640.928 518.4
L649.933 518.4
L649.933 518.4
L640.928 518.4
z
" style="fill:#6f1717;opacity:0.4;stroke:#000000;stroke-linejoin:miter;"/>
   </g>
   <g id="patch_63">
    <path clip-path="url(#p40d8c4fc83)" d="
M649.933 518.4
L658.939 518.4
L658.939 518.4
L649.933 518.4
z
" style="fill:#6f1717;opacity:0.4;stroke:#000000;stroke-linejoin:miter;"/>
   </g>
   <g id="patch_64">
    <path clip-path="url(#p40d8c4fc83)" d="
M658.939 518.4
L667.945 518.4
L667.945 518.4
L658.939 518.4
z
" style="fill:#6f1717;opacity:0.4;stroke:#000000;stroke-linejoin:miter;"/>
   </g>
   <g id="patch_65">
    <path clip-path="url(#p40d8c4fc83)" d="
M667.945 518.4
L676.951 518.4
L676.951 518.4
L667.945 518.4
z
" style="fill:#6f1717;opacity:0.4;stroke:#000000;stroke-linejoin:miter;"/>
   </g>
   <g id="patch_66">
    <path clip-path="url(#p40d8c4fc83)" d="
M676.951 518.4
L685.957 518.4
L685.957 518.4
L676.951 518.4
z
" style="fill:#6f1717;opacity:0.4;stroke:#000000;stroke-linejoin:miter;"/>
   </g>
   <g id="patch_67">
    <path clip-path="url(#p40d8c4fc83)" d="
M685.957 518.4
L694.962 518.4
L694.962 518.4
L685.957 518.4
z
" style="fill:#6f1717;opacity:0.4;stroke:#000000;stroke-linejoin:miter;"/>
   </g>
   <g id="patch_68">
    <path clip-path="url(#p40d8c4fc83)" d="
M694.962 518.4
L703.968 518.4
L703.968 518.4
L694.962 518.4
z
" style="fill:#6f1717;opacity:0.4;stroke:#000000;stroke-linejoin:miter;"/>
   </g>
   <g id="patch_69">
    <path clip-path="url(#p40d8c4fc83)" d="
M703.968 518.4
L712.974 518.4
L712.974 518.4
L703.968 518.4
z
" style="fill:#6f1717;opacity:0.4;stroke:#000000;stroke-linejoin:miter;"/>
   </g>
   <g id="patch_70">
    <path clip-path="url(#p40d8c4fc83)" d="
M712.974 518.4
L721.98 518.4
L721.98 518.4
L712.974 518.4
z
" style="fill:#6f1717;opacity:0.4;stroke:#000000;stroke-linejoin:miter;"/>
   </g>
   <g id="patch_71">
    <path clip-path="url(#p40d8c4fc83)" d="
M721.98 518.4
L730.986 518.4
L730.986 518.4
L721.98 518.4
z
" style="fill:#6f1717;opacity:0.4;stroke:#000000;stroke-linejoin:miter;"/>
   </g>
   <g id="patch_72">
    <path clip-path="url(#p40d8c4fc83)" d="
M730.986 518.4
L739.991 518.4
L739.991 518.4
L730.986 518.4
z
" style="fill:#6f1717;opacity:0.4;stroke:#000000;stroke-linejoin:miter;"/>
   </g>
   <g id="patch_73">
    <path clip-path="url(#p40d8c4fc83)" d="
M739.991 518.4
L748.997 518.4
L748.997 518.4
L739.991 518.4
z
" style="fill:#6f1717;opacity:0.4;stroke:#000000;stroke-linejoin:miter;"/>
   </g>
   <g id="patch_74">
    <path clip-path="url(#p40d8c4fc83)" d="
M748.997 518.4
L758.003 518.4
L758.003 518.4
L748.997 518.4
z
" style="fill:#6f1717;opacity:0.4;stroke:#000000;stroke-linejoin:miter;"/>
   </g>
   <g id="patch_75">
    <path clip-path="url(#p40d8c4fc83)" d="
M758.003 518.4
L767.009 518.4
L767.009 518.4
L758.003 518.4
z
" style="fill:#6f1717;opacity:0.4;stroke:#000000;stroke-linejoin:miter;"/>
   </g>
   <g id="patch_76">
    <path clip-path="url(#p40d8c4fc83)" d="
M767.009 518.4
L776.015 518.4
L776.015 518.4
L767.009 518.4
z
" style="fill:#6f1717;opacity:0.4;stroke:#000000;stroke-linejoin:miter;"/>
   </g>
   <g id="patch_77">
    <path clip-path="url(#p40d8c4fc83)" d="
M109.585 518.4
L118.591 518.4
L118.591 518.4
L109.585 518.4
z
" style="fill:#172a6f;opacity:0.4;stroke:#000000;stroke-linejoin:miter;"/>
   </g>
   <g id="patch_78">
    <path clip-path="url(#p40d8c4fc83)" d="
M118.591 518.4
L127.597 518.4
L127.597 518.4
L118.591 518.4
z
" style="fill:#172a6f;opacity:0.4;stroke:#000000;stroke-linejoin:miter;"/>
   </g>
   <g id="patch_79">
    <path clip-path="url(#p40d8c4fc83)" d="
M127.597 518.4
L136.603 518.4
L136.603 518.4
L127.597 518.4
z
" style="fill:#172a6f;opacity:0.4;stroke:#000000;stroke-linejoin:miter;"/>
   </g>
   <g id="patch_80">
    <path clip-path="url(#p40d8c4fc83)" d="
M136.603 518.4
L145.609 518.4
L145.609 518.4
L136.603 518.4
z
" style="fill:#172a6f;opacity:0.4;stroke:#000000;stroke-linejoin:miter;"/>
   </g>
   <g id="patch_81">
    <path clip-path="url(#p40d8c4fc83)" d="
M145.609 518.4
L154.614 518.4
L154.614 518.4
L145.609 518.4
z
" style="fill:#172a6f;opacity:0.4;stroke:#000000;stroke-linejoin:miter;"/>
   </g>
   <g id="patch_82">
    <path clip-path="url(#p40d8c4fc83)" d="
M154.614 518.4
L163.62 518.4
L163.62 518.4
L154.614 518.4
z
" style="fill:#172a6f;opacity:0.4;stroke:#000000;stroke-linejoin:miter;"/>
   </g>
   <g id="patch_83">
    <path clip-path="url(#p40d8c4fc83)" d="
M163.62 518.4
L172.626 518.4
L172.626 518.4
L163.62 518.4
z
" style="fill:#172a6f;opacity:0.4;stroke:#000000;stroke-linejoin:miter;"/>
   </g>
   <g id="patch_84">
    <path clip-path="url(#p40d8c4fc83)" d="
M172.626 518.4
L181.632 518.4
L181.632 508.923
L172.626 508.923
z
" style="fill:#172a6f;opacity:0.4;stroke:#000000;stroke-linejoin:miter;"/>
   </g>
   <g id="patch_85">
    <path clip-path="url(#p40d8c4fc83)" d="
M181.632 518.4
L190.638 518.4
L190.638 518.4
L181.632 518.4
z
" style="fill:#172a6f;opacity:0.4;stroke:#000000;stroke-linejoin:miter;"/>
   </g>
   <g id="patch_86">
    <path clip-path="url(#p40d8c4fc83)" d="
M190.638 518.4
L199.643 518.4
L199.643 518.4
L190.638 518.4
z
" style="fill:#172a6f;opacity:0.4;stroke:#000000;stroke-linejoin:miter;"/>
   </g>
   <g id="patch_87">
    <path clip-path="url(#p40d8c4fc83)" d="
M199.643 518.4
L208.649 518.4
L208.649 518.4
L199.643 518.4
z
" style="fill:#172a6f;opacity:0.4;stroke:#000000;stroke-linejoin:miter;"/>
   </g>
   <g id="patch_88">
    <path clip-path="url(#p40d8c4fc83)" d="
M208.649 518.4
L217.655 518.4
L217.655 499.446
L208.649 499.446
z
" style="fill:#172a6f;opacity:0.4;stroke:#000000;stroke-linejoin:miter;"/>
   </g>
   <g id="patch_89">
    <path clip-path="url(#p40d8c4fc83)" d="
M217.655 518.4
L226.661 518.4
L226.661 499.446
L217.655 499.446
z
" style="fill:#172a6f;opacity:0.4;stroke:#000000;stroke-linejoin:miter;"/>
   </g>
   <g id="patch_90">
    <path clip-path="url(#p40d8c4fc83)" d="
M226.661 518.4
L235.667 518.4
L235.667 518.4
L226.661 518.4
z
" style="fill:#172a6f;opacity:0.4;stroke:#000000;stroke-linejoin:miter;"/>
   </g>
   <g id="patch_91">
    <path clip-path="url(#p40d8c4fc83)" d="
M235.667 518.4
L244.672 518.4
L244.672 518.4
L235.667 518.4
z
" style="fill:#172a6f;opacity:0.4;stroke:#000000;stroke-linejoin:miter;"/>
   </g>
   <g id="patch_92">
    <path clip-path="url(#p40d8c4fc83)" d="
M244.672 518.4
L253.678 518.4
L253.678 508.923
L244.672 508.923
z
" style="fill:#172a6f;opacity:0.4;stroke:#000000;stroke-linejoin:miter;"/>
   </g>
   <g id="patch_93">
    <path clip-path="url(#p40d8c4fc83)" d="
M253.678 518.4
L262.684 518.4
L262.684 499.446
L253.678 499.446
z
" style="fill:#172a6f;opacity:0.4;stroke:#000000;stroke-linejoin:miter;"/>
   </g>
   <g id="patch_94">
    <path clip-path="url(#p40d8c4fc83)" d="
M262.684 518.4
L271.69 518.4
L271.69 518.4
L262.684 518.4
z
" style="fill:#172a6f;opacity:0.4;stroke:#000000;stroke-linejoin:miter;"/>
   </g>
   <g id="patch_95">
    <path clip-path="url(#p40d8c4fc83)" d="
M271.69 518.4
L280.696 518.4
L280.696 508.923
L271.69 508.923
z
" style="fill:#172a6f;opacity:0.4;stroke:#000000;stroke-linejoin:miter;"/>
   </g>
   <g id="patch_96">
    <path clip-path="url(#p40d8c4fc83)" d="
M280.696 518.4
L289.701 518.4
L289.701 518.4
L280.696 518.4
z
" style="fill:#172a6f;opacity:0.4;stroke:#000000;stroke-linejoin:miter;"/>
   </g>
   <g id="patch_97">
    <path clip-path="url(#p40d8c4fc83)" d="
M289.701 518.4
L298.707 518.4
L298.707 499.446
L289.701 499.446
z
" style="fill:#172a6f;opacity:0.4;stroke:#000000;stroke-linejoin:miter;"/>
   </g>
   <g id="patch_98">
    <path clip-path="url(#p40d8c4fc83)" d="
M298.707 518.4
L307.713 518.4
L307.713 499.446
L298.707 499.446
z
" style="fill:#172a6f;opacity:0.4;stroke:#000000;stroke-linejoin:miter;"/>
   </g>
   <g id="patch_99">
    <path clip-path="url(#p40d8c4fc83)" d="
M307.713 518.4
L316.719 518.4
L316.719 508.923
L307.713 508.923
z
" style="fill:#172a6f;opacity:0.4;stroke:#000000;stroke-linejoin:miter;"/>
   </g>
   <g id="patch_100">
    <path clip-path="url(#p40d8c4fc83)" d="
M316.719 518.4
L325.725 518.4
L325.725 489.969
L316.719 489.969
z
" style="fill:#172a6f;opacity:0.4;stroke:#000000;stroke-linejoin:miter;"/>
   </g>
   <g id="patch_101">
    <path clip-path="url(#p40d8c4fc83)" d="
M325.725 518.4
L334.73 518.4
L334.73 489.969
L325.725 489.969
z
" style="fill:#172a6f;opacity:0.4;stroke:#000000;stroke-linejoin:miter;"/>
   </g>
   <g id="patch_102">
    <path clip-path="url(#p40d8c4fc83)" d="
M334.73 518.4
L343.736 518.4
L343.736 471.016
L334.73 471.016
z
" style="fill:#172a6f;opacity:0.4;stroke:#000000;stroke-linejoin:miter;"/>
   </g>
   <g id="patch_103">
    <path clip-path="url(#p40d8c4fc83)" d="
M343.736 518.4
L352.742 518.4
L352.742 499.446
L343.736 499.446
z
" style="fill:#172a6f;opacity:0.4;stroke:#000000;stroke-linejoin:miter;"/>
   </g>
   <g id="patch_104">
    <path clip-path="url(#p40d8c4fc83)" d="
M352.742 518.4
L361.748 518.4
L361.748 471.016
L352.742 471.016
z
" style="fill:#172a6f;opacity:0.4;stroke:#000000;stroke-linejoin:miter;"/>
   </g>
   <g id="patch_105">
    <path clip-path="url(#p40d8c4fc83)" d="
M361.748 518.4
L370.754 518.4
L370.754 471.016
L361.748 471.016
z
" style="fill:#172a6f;opacity:0.4;stroke:#000000;stroke-linejoin:miter;"/>
   </g>
   <g id="patch_106">
    <path clip-path="url(#p40d8c4fc83)" d="
M370.754 518.4
L379.759 518.4
L379.759 480.492
L370.754 480.492
z
" style="fill:#172a6f;opacity:0.4;stroke:#000000;stroke-linejoin:miter;"/>
   </g>
   <g id="patch_107">
    <path clip-path="url(#p40d8c4fc83)" d="
M379.759 518.4
L388.765 518.4
L388.765 433.108
L379.759 433.108
z
" style="fill:#172a6f;opacity:0.4;stroke:#000000;stroke-linejoin:miter;"/>
   </g>
   <g id="patch_108">
    <path clip-path="url(#p40d8c4fc83)" d="
M388.765 518.4
L397.771 518.4
L397.771 423.631
L388.765 423.631
z
" style="fill:#172a6f;opacity:0.4;stroke:#000000;stroke-linejoin:miter;"/>
   </g>
   <g id="patch_109">
    <path clip-path="url(#p40d8c4fc83)" d="
M397.771 518.4
L406.777 518.4
L406.777 385.724
L397.771 385.724
z
" style="fill:#172a6f;opacity:0.4;stroke:#000000;stroke-linejoin:miter;"/>
   </g>
   <g id="patch_110">
    <path clip-path="url(#p40d8c4fc83)" d="
M406.777 518.4
L415.783 518.4
L415.783 272.001
L406.777 272.001
z
" style="fill:#172a6f;opacity:0.4;stroke:#000000;stroke-linejoin:miter;"/>
   </g>
   <g id="patch_111">
    <path clip-path="url(#p40d8c4fc83)" d="
M415.783 518.4
L424.788 518.4
L424.788 196.186
L415.783 196.186
z
" style="fill:#172a6f;opacity:0.4;stroke:#000000;stroke-linejoin:miter;"/>
   </g>
   <g id="patch_112">
    <path clip-path="url(#p40d8c4fc83)" d="
M424.788 518.4
L433.794 518.4
L433.794 177.232
L424.788 177.232
z
" style="fill:#172a6f;opacity:0.4;stroke:#000000;stroke-linejoin:miter;"/>
   </g>
   <g id="patch_113">
    <path clip-path="url(#p40d8c4fc83)" d="
M433.794 518.4
L442.8 518.4
L442.8 129.848
L433.794 129.848
z
" style="fill:#172a6f;opacity:0.4;stroke:#000000;stroke-linejoin:miter;"/>
   </g>
   <g id="patch_114">
    <path clip-path="url(#p40d8c4fc83)" d="
M442.8 518.4
L451.806 518.4
L451.806 177.232
L442.8 177.232
z
" style="fill:#172a6f;opacity:0.4;stroke:#000000;stroke-linejoin:miter;"/>
   </g>
   <g id="patch_115">
    <path clip-path="url(#p40d8c4fc83)" d="
M451.806 518.4
L460.812 518.4
L460.812 177.232
L451.806 177.232
z
" style="fill:#172a6f;opacity:0.4;stroke:#000000;stroke-linejoin:miter;"/>
   </g>
   <g id="patch_116">
    <path clip-path="url(#p40d8c4fc83)" d="
M460.812 518.4
L469.817 518.4
L469.817 167.755
L460.812 167.755
z
" style="fill:#172a6f;opacity:0.4;stroke:#000000;stroke-linejoin:miter;"/>
   </g>
   <g id="patch_117">
    <path clip-path="url(#p40d8c4fc83)" d="
M469.817 518.4
L478.823 518.4
L478.823 338.339
L469.817 338.339
z
" style="fill:#172a6f;opacity:0.4;stroke:#000000;stroke-linejoin:miter;"/>
   </g>
   <g id="patch_118">
    <path clip-path="url(#p40d8c4fc83)" d="
M478.823 518.4
L487.829 518.4
L487.829 262.524
L478.823 262.524
z
" style="fill:#172a6f;opacity:0.4;stroke:#000000;stroke-linejoin:miter;"/>
   </g>
   <g id="patch_119">
    <path clip-path="url(#p40d8c4fc83)" d="
M487.829 518.4
L496.835 518.4
L496.835 347.816
L487.829 347.816
z
" style="fill:#172a6f;opacity:0.4;stroke:#000000;stroke-linejoin:miter;"/>
   </g>
   <g id="patch_120">
    <path clip-path="url(#p40d8c4fc83)" d="
M496.835 518.4
L505.841 518.4
L505.841 366.77
L496.835 366.77
z
" style="fill:#172a6f;opacity:0.4;stroke:#000000;stroke-linejoin:miter;"/>
   </g>
   <g id="patch_121">
    <path clip-path="url(#p40d8c4fc83)" d="
M505.841 518.4
L514.846 518.4
L514.846 376.247
L505.841 376.247
z
" style="fill:#172a6f;opacity:0.4;stroke:#000000;stroke-linejoin:miter;"/>
   </g>
   <g id="patch_122">
    <path clip-path="url(#p40d8c4fc83)" d="
M514.846 518.4
L523.852 518.4
L523.852 480.492
L514.846 480.492
z
" style="fill:#172a6f;opacity:0.4;stroke:#000000;stroke-linejoin:miter;"/>
   </g>
   <g id="patch_123">
    <path clip-path="url(#p40d8c4fc83)" d="
M523.852 518.4
L532.858 518.4
L532.858 508.923
L523.852 508.923
z
" style="fill:#172a6f;opacity:0.4;stroke:#000000;stroke-linejoin:miter;"/>
   </g>
   <g id="patch_124">
    <path clip-path="url(#p40d8c4fc83)" d="
M532.858 518.4
L541.864 518.4
L541.864 508.923
L532.858 508.923
z
" style="fill:#172a6f;opacity:0.4;stroke:#000000;stroke-linejoin:miter;"/>
   </g>
   <g id="patch_125">
    <path clip-path="url(#p40d8c4fc83)" d="
M541.864 518.4
L550.87 518.4
L550.87 508.923
L541.864 508.923
z
" style="fill:#172a6f;opacity:0.4;stroke:#000000;stroke-linejoin:miter;"/>
   </g>
   <g id="patch_126">
    <path clip-path="url(#p40d8c4fc83)" d="
M550.87 518.4
L559.875 518.4
L559.875 499.446
L550.87 499.446
z
" style="fill:#172a6f;opacity:0.4;stroke:#000000;stroke-linejoin:miter;"/>
   </g>
   <g id="patch_127">
    <path clip-path="url(#p40d8c4fc83)" d="
M559.875 518.4
L568.881 518.4
L568.881 518.4
L559.875 518.4
z
" style="fill:#172a6f;opacity:0.4;stroke:#000000;stroke-linejoin:miter;"/>
   </g>
   <g id="patch_128">
    <path clip-path="url(#p40d8c4fc83)" d="
M568.881 518.4
L577.887 518.4
L577.887 518.4
L568.881 518.4
z
" style="fill:#172a6f;opacity:0.4;stroke:#000000;stroke-linejoin:miter;"/>
   </g>
   <g id="patch_129">
    <path clip-path="url(#p40d8c4fc83)" d="
M577.887 518.4
L586.893 518.4
L586.893 518.4
L577.887 518.4
z
" style="fill:#172a6f;opacity:0.4;stroke:#000000;stroke-linejoin:miter;"/>
   </g>
   <g id="patch_130">
    <path clip-path="url(#p40d8c4fc83)" d="
M586.893 518.4
L595.899 518.4
L595.899 508.923
L586.893 508.923
z
" style="fill:#172a6f;opacity:0.4;stroke:#000000;stroke-linejoin:miter;"/>
   </g>
   <g id="patch_131">
    <path clip-path="url(#p40d8c4fc83)" d="
M595.899 518.4
L604.904 518.4
L604.904 518.4
L595.899 518.4
z
" style="fill:#172a6f;opacity:0.4;stroke:#000000;stroke-linejoin:miter;"/>
   </g>
   <g id="patch_132">
    <path clip-path="url(#p40d8c4fc83)" d="
M604.904 518.4
L613.91 518.4
L613.91 518.4
L604.904 518.4
z
" style="fill:#172a6f;opacity:0.4;stroke:#000000;stroke-linejoin:miter;"/>
   </g>
   <g id="patch_133">
    <path clip-path="url(#p40d8c4fc83)" d="
M613.91 518.4
L622.916 518.4
L622.916 518.4
L613.91 518.4
z
" style="fill:#172a6f;opacity:0.4;stroke:#000000;stroke-linejoin:miter;"/>
   </g>
   <g id="patch_134">
    <path clip-path="url(#p40d8c4fc83)" d="
M622.916 518.4
L631.922 518.4
L631.922 508.923
L622.916 508.923
z
" style="fill:#172a6f;opacity:0.4;stroke:#000000;stroke-linejoin:miter;"/>
   </g>
   <g id="patch_135">
    <path clip-path="url(#p40d8c4fc83)" d="
M631.922 518.4
L640.928 518.4
L640.928 518.4
L631.922 518.4
z
" style="fill:#172a6f;opacity:0.4;stroke:#000000;stroke-linejoin:miter;"/>
   </g>
   <g id="patch_136">
    <path clip-path="url(#p40d8c4fc83)" d="
M640.928 518.4
L649.933 518.4
L649.933 518.4
L640.928 518.4
z
" style="fill:#172a6f;opacity:0.4;stroke:#000000;stroke-linejoin:miter;"/>
   </g>
   <g id="patch_137">
    <path clip-path="url(#p40d8c4fc83)" d="
M649.933 518.4
L658.939 518.4
L658.939 518.4
L649.933 518.4
z
" style="fill:#172a6f;opacity:0.4;stroke:#000000;stroke-linejoin:miter;"/>
   </g>
   <g id="patch_138">
    <path clip-path="url(#p40d8c4fc83)" d="
M658.939 518.4
L667.945 518.4
L667.945 518.4
L658.939 518.4
z
" style="fill:#172a6f;opacity:0.4;stroke:#000000;stroke-linejoin:miter;"/>
   </g>
   <g id="patch_139">
    <path clip-path="url(#p40d8c4fc83)" d="
M667.945 518.4
L676.951 518.4
L676.951 518.4
L667.945 518.4
z
" style="fill:#172a6f;opacity:0.4;stroke:#000000;stroke-linejoin:miter;"/>
   </g>
   <g id="patch_140">
    <path clip-path="url(#p40d8c4fc83)" d="
M676.951 518.4
L685.957 518.4
L685.957 518.4
L676.951 518.4
z
" style="fill:#172a6f;opacity:0.4;stroke:#000000;stroke-linejoin:miter;"/>
   </g>
   <g id="patch_141">
    <path clip-path="url(#p40d8c4fc83)" d="
M685.957 518.4
L694.962 518.4
L694.962 518.4
L685.957 518.4
z
" style="fill:#172a6f;opacity:0.4;stroke:#000000;stroke-linejoin:miter;"/>
   </g>
   <g id="patch_142">
    <path clip-path="url(#p40d8c4fc83)" d="
M694.962 518.4
L703.968 518.4
L703.968 518.4
L694.962 518.4
z
" style="fill:#172a6f;opacity:0.4;stroke:#000000;stroke-linejoin:miter;"/>
   </g>
   <g id="patch_143">
    <path clip-path="url(#p40d8c4fc83)" d="
M703.968 518.4
L712.974 518.4
L712.974 518.4
L703.968 518.4
z
" style="fill:#172a6f;opacity:0.4;stroke:#000000;stroke-linejoin:miter;"/>
   </g>
   <g id="patch_144">
    <path clip-path="url(#p40d8c4fc83)" d="
M712.974 518.4
L721.98 518.4
L721.98 518.4
L712.974 518.4
z
" style="fill:#172a6f;opacity:0.4;stroke:#000000;stroke-linejoin:miter;"/>
   </g>
   <g id="patch_145">
    <path clip-path="url(#p40d8c4fc83)" d="
M721.98 518.4
L730.986 518.4
L730.986 518.4
L721.98 518.4
z
" style="fill:#172a6f;opacity:0.4;stroke:#000000;stroke-linejoin:miter;"/>
   </g>
   <g id="patch_146">
    <path clip-path="url(#p40d8c4fc83)" d="
M730.986 518.4
L739.991 518.4
L739.991 518.4
L730.986 518.4
z
" style="fill:#172a6f;opacity:0.4;stroke:#000000;stroke-linejoin:miter;"/>
   </g>
   <g id="patch_147">
    <path clip-path="url(#p40d8c4fc83)" d="
M739.991 518.4
L748.997 518.4
L748.997 508.923
L739.991 508.923
z
" style="fill:#172a6f;opacity:0.4;stroke:#000000;stroke-linejoin:miter;"/>
   </g>
   <g id="patch_148">
    <path clip-path="url(#p40d8c4fc83)" d="
M748.997 518.4
L758.003 518.4
L758.003 518.4
L748.997 518.4
z
" style="fill:#172a6f;opacity:0.4;stroke:#000000;stroke-linejoin:miter;"/>
   </g>
   <g id="patch_149">
    <path clip-path="url(#p40d8c4fc83)" d="
M758.003 518.4
L767.009 518.4
L767.009 518.4
L758.003 518.4
z
" style="fill:#172a6f;opacity:0.4;stroke:#000000;stroke-linejoin:miter;"/>
   </g>
   <g id="patch_150">
    <path clip-path="url(#p40d8c4fc83)" d="
M767.009 518.4
L776.015 518.4
L776.015 508.923
L767.009 508.923
z
" style="fill:#172a6f;opacity:0.4;stroke:#000000;stroke-linejoin:miter;"/>
   </g>
   <g id="line2d_1">
    <path clip-path="url(#p40d8c4fc83)" d="
M109.585 518.4
L118.591 518.4
L127.597 518.4
L136.603 518.4
L145.609 518.4
L154.614 518.4
L163.62 518.4
L172.626 518.399
L181.632 518.397
L190.638 518.394
L199.643 518.385
L208.649 518.366
L217.655 518.326
L226.661 518.245
L235.667 518.085
L244.672 517.783
L253.678 517.231
L262.684 516.261
L271.69 514.621
L280.696 511.951
L289.701 507.771
L298.707 501.48
L307.713 492.385
L316.719 479.768
L325.725 462.992
L334.73 441.646
L343.736 415.709
L352.742 385.702
L361.748 352.786
L370.754 318.765
L379.759 285.979
L388.765 257.052
L397.771 234.567
L406.777 220.678
L415.783 216.78
L424.788 223.27
L433.794 239.487
L442.8 263.819
L451.806 293.968
L460.812 327.306
L469.817 361.251
L478.823 393.581
L487.829 422.648
L496.835 447.455
L505.841 467.631
L514.846 483.311
L523.852 494.976
L532.858 503.298
L541.864 508.996
L550.87 512.744
L559.875 515.115
L568.881 516.557
L577.887 517.401
L586.893 517.877
L595.899 518.136
L604.904 518.271
L613.91 518.339
L622.916 518.372
L631.922 518.388
L640.928 518.395
L649.933 518.398
L658.939 518.399
L667.945 518.4
L676.951 518.4
L685.957 518.4
L694.962 518.4
L703.968 518.4
L712.974 518.4
L721.98 518.4
L730.986 518.4
L739.991 518.4
L748.997 518.4
L758.003 518.4
L767.009 518.4
L776.015 518.4" style="fill:none;stroke:#6f1717;stroke-dasharray:6.000000,6.000000;stroke-dashoffset:0.0;"/>
   </g>
   <g id="line2d_2">
    <path clip-path="url(#p40d8c4fc83)" d="
M109.585 518.4
L118.591 518.4
L127.597 518.4
L136.603 518.4
L145.609 518.399
L154.614 518.398
L163.62 518.397
L172.626 518.393
L181.632 518.387
L190.638 518.374
L199.643 518.35
L208.649 518.306
L217.655 518.229
L226.661 518.094
L235.667 517.868
L244.672 517.496
L253.678 516.899
L262.684 515.968
L271.69 514.552
L280.696 512.456
L289.701 509.434
L298.707 505.197
L307.713 499.415
L316.719 491.748
L325.725 481.868
L334.73 469.508
L343.736 454.513
L352.742 436.893
L361.748 416.869
L370.754 394.916
L379.759 371.764
L388.765 348.386
L397.771 325.94
L406.777 305.678
L415.783 288.84
L424.788 276.522
L433.794 269.566
L442.8 268.46
L451.806 273.28
L460.812 283.689
L469.817 298.966
L478.823 318.097
L487.829 339.881
L496.835 363.055
L505.841 386.416
L514.846 408.913
L523.852 429.722
L532.858 448.273
L541.864 464.254
L550.87 477.581
L559.875 488.355
L568.881 496.808
L577.887 503.249
L586.893 508.02
L595.899 511.457
L604.904 513.865
L613.91 515.508
L622.916 516.6
L631.922 517.306
L640.928 517.75
L649.933 518.024
L658.939 518.187
L667.945 518.282
L676.951 518.337
L685.957 518.367
L694.962 518.383
L703.968 518.391
L712.974 518.396
L721.98 518.398
L730.986 518.399
L739.991 518.4
L748.997 518.4
L758.003 518.4
L767.009 518.4
L776.015 518.4" style="fill:none;stroke:#172a6f;stroke-dasharray:6.000000,6.000000;stroke-dashoffset:0.0;"/>
   </g>
   <g id="patch_151">
    <path d="
M108 518.4
L108 57.6" style="fill:none;stroke:#000000;stroke-linecap:square;stroke-linejoin:miter;"/>
   </g>
   <g id="patch_152">
    <path d="
M108 57.6
L777.6 57.6" style="fill:none;stroke:#000000;stroke-linecap:square;stroke-linejoin:miter;"/>
   </g>
   <g id="patch_153">
    <path d="
M777.6 518.4
L777.6 57.6" style="fill:none;stroke:#000000;stroke-linecap:square;stroke-linejoin:miter;"/>
   </g>
   <g id="patch_154">
    <path d="
M108 518.4
L777.6 518.4" style="fill:none;stroke:#000000;stroke-linecap:square;stroke-linejoin:miter;"/>
   </g>
   <g id="matplotlib.axis_1">
    <g id="xtick_1">
     <g id="line2d_3">
      <path clip-path="url(#p40d8c4fc83)" d="
M109.877 518.4
L109.877 57.6" style="fill:none;stroke:#000000;stroke-dasharray:1.000000,3.000000;stroke-dashoffset:0.0;stroke-width:0.5;"/>
     </g>
     <g id="line2d_4">
      <defs>
       <path d="
M0 0
L0 -4" id="mc7db9fdffb" style="stroke:#000000;stroke-width:0.5;"/>
      </defs>
      <g>
       <use style="stroke:#000000;stroke-width:0.5;" x="109.877157957" xlink:href="#mc7db9fdffb" y="518.4"/>
      </g>
     </g>
     <g id="line2d_5">
      <defs>
       <path d="
M0 0
L0 4" id="m5a7d422ac3" style="stroke:#000000;stroke-width:0.5;"/>
      </defs>
      <g>
       <use style="stroke:#000000;stroke-width:0.5;" x="109.877157957" xlink:href="#m5a7d422ac3" y="57.6"/>
      </g>
     </g>
     <g id="text_1">
      <!-- −100 -->
      <defs>
       <path d="
M31.7812 66.4062
Q24.1719 66.4062 20.3281 58.9062
Q16.5 51.4219 16.5 36.375
Q16.5 21.3906 20.3281 13.8906
Q24.1719 6.39062 31.7812 6.39062
Q39.4531 6.39062 43.2812 13.8906
Q47.125 21.3906 47.125 36.375
Q47.125 51.4219 43.2812 58.9062
Q39.4531 66.4062 31.7812 66.4062
M31.7812 74.2188
Q44.0469 74.2188 50.5156 64.5156
Q56.9844 54.8281 56.9844 36.375
Q56.9844 17.9688 50.5156 8.26562
Q44.0469 -1.42188 31.7812 -1.42188
Q19.5312 -1.42188 13.0625 8.26562
Q6.59375 17.9688 6.59375 36.375
Q6.59375 54.8281 13.0625 64.5156
Q19.5312 74.2188 31.7812 74.2188" id="BitstreamVeraSans-Roman-30"/>
       <path d="
M12.4062 8.29688
L28.5156 8.29688
L28.5156 63.9219
L10.9844 60.4062
L10.9844 69.3906
L28.4219 72.9062
L38.2812 72.9062
L38.2812 8.29688
L54.3906 8.29688
L54.3906 0
L12.4062 0
z
" id="BitstreamVeraSans-Roman-31"/>
       <path d="
M10.5938 35.5
L73.1875 35.5
L73.1875 27.2031
L10.5938 27.2031
z
" id="BitstreamVeraSans-Roman-2212"/>
      </defs>
      <g transform="translate(94.4309079565 531.518125)scale(0.12 -0.12)">
       <use xlink:href="#BitstreamVeraSans-Roman-2212"/>
       <use x="83.7890625" xlink:href="#BitstreamVeraSans-Roman-31"/>
       <use x="147.412109375" xlink:href="#BitstreamVeraSans-Roman-30"/>
       <use x="211.03515625" xlink:href="#BitstreamVeraSans-Roman-30"/>
      </g>
     </g>
    </g>
    <g id="xtick_2">
     <g id="line2d_6">
      <path clip-path="url(#p40d8c4fc83)" d="
M268.421 518.4
L268.421 57.6" style="fill:none;stroke:#000000;stroke-dasharray:1.000000,3.000000;stroke-dashoffset:0.0;stroke-width:0.5;"/>
     </g>
     <g id="line2d_7">
      <g>
       <use style="stroke:#000000;stroke-width:0.5;" x="268.420904287" xlink:href="#mc7db9fdffb" y="518.4"/>
      </g>
     </g>
     <g id="line2d_8">
      <g>
       <use style="stroke:#000000;stroke-width:0.5;" x="268.420904287" xlink:href="#m5a7d422ac3" y="57.6"/>
      </g>
     </g>
     <g id="text_2">
      <!-- −50 -->
      <defs>
       <path d="
M10.7969 72.9062
L49.5156 72.9062
L49.5156 64.5938
L19.8281 64.5938
L19.8281 46.7344
Q21.9688 47.4688 24.1094 47.8281
Q26.2656 48.1875 28.4219 48.1875
Q40.625 48.1875 47.75 41.5
Q54.8906 34.8125 54.8906 23.3906
Q54.8906 11.625 47.5625 5.09375
Q40.2344 -1.42188 26.9062 -1.42188
Q22.3125 -1.42188 17.5469 -0.640625
Q12.7969 0.140625 7.71875 1.70312
L7.71875 11.625
Q12.1094 9.23438 16.7969 8.0625
Q21.4844 6.89062 26.7031 6.89062
Q35.1562 6.89062 40.0781 11.3281
Q45.0156 15.7656 45.0156 23.3906
Q45.0156 31 40.0781 35.4375
Q35.1562 39.8906 26.7031 39.8906
Q22.75 39.8906 18.8125 39.0156
Q14.8906 38.1406 10.7969 36.2812
z
" id="BitstreamVeraSans-Roman-35"/>
      </defs>
      <g transform="translate(256.792154287 531.518125)scale(0.12 -0.12)">
       <use xlink:href="#BitstreamVeraSans-Roman-2212"/>
       <use x="83.7890625" xlink:href="#BitstreamVeraSans-Roman-35"/>
       <use x="147.412109375" xlink:href="#BitstreamVeraSans-Roman-30"/>
      </g>
     </g>
    </g>
    <g id="xtick_3">
     <g id="line2d_9">
      <path clip-path="url(#p40d8c4fc83)" d="
M426.965 518.4
L426.965 57.6" style="fill:none;stroke:#000000;stroke-dasharray:1.000000,3.000000;stroke-dashoffset:0.0;stroke-width:0.5;"/>
     </g>
     <g id="line2d_10">
      <g>
       <use style="stroke:#000000;stroke-width:0.5;" x="426.964650617" xlink:href="#mc7db9fdffb" y="518.4"/>
      </g>
     </g>
     <g id="line2d_11">
      <g>
       <use style="stroke:#000000;stroke-width:0.5;" x="426.964650617" xlink:href="#m5a7d422ac3" y="57.6"/>
      </g>
     </g>
     <g id="text_3">
      <!-- 0 -->
      <g transform="translate(423.941213117 531.518125)scale(0.12 -0.12)">
       <use xlink:href="#BitstreamVeraSans-Roman-30"/>
      </g>
     </g>
    </g>
    <g id="xtick_4">
     <g id="line2d_12">
      <path clip-path="url(#p40d8c4fc83)" d="
M585.508 518.4
L585.508 57.6" style="fill:none;stroke:#000000;stroke-dasharray:1.000000,3.000000;stroke-dashoffset:0.0;stroke-width:0.5;"/>
     </g>
     <g id="line2d_13">
      <g>
       <use style="stroke:#000000;stroke-width:0.5;" x="585.508396947" xlink:href="#mc7db9fdffb" y="518.4"/>
      </g>
     </g>
     <g id="line2d_14">
      <g>
       <use style="stroke:#000000;stroke-width:0.5;" x="585.508396947" xlink:href="#m5a7d422ac3" y="57.6"/>
      </g>
     </g>
     <g id="text_4">
      <!-- 50 -->
      <g transform="translate(578.734959447 531.518125)scale(0.12 -0.12)">
       <use xlink:href="#BitstreamVeraSans-Roman-35"/>
       <use x="63.623046875" xlink:href="#BitstreamVeraSans-Roman-30"/>
      </g>
     </g>
    </g>
    <g id="xtick_5">
     <g id="line2d_15">
      <path clip-path="url(#p40d8c4fc83)" d="
M744.052 518.4
L744.052 57.6" style="fill:none;stroke:#000000;stroke-dasharray:1.000000,3.000000;stroke-dashoffset:0.0;stroke-width:0.5;"/>
     </g>
     <g id="line2d_16">
      <g>
       <use style="stroke:#000000;stroke-width:0.5;" x="744.052143277" xlink:href="#mc7db9fdffb" y="518.4"/>
      </g>
     </g>
     <g id="line2d_17">
      <g>
       <use style="stroke:#000000;stroke-width:0.5;" x="744.052143277" xlink:href="#m5a7d422ac3" y="57.6"/>
      </g>
     </g>
     <g id="text_5">
      <!-- 100 -->
      <g transform="translate(733.657143277 531.518125)scale(0.12 -0.12)">
       <use xlink:href="#BitstreamVeraSans-Roman-31"/>
       <use x="63.623046875" xlink:href="#BitstreamVeraSans-Roman-30"/>
       <use x="127.24609375" xlink:href="#BitstreamVeraSans-Roman-30"/>
      </g>
     </g>
    </g>
    <g id="text_6">
     <!-- Error (km/h) -->
     <defs>
      <path d="
M8.01562 75.875
L15.8281 75.875
Q23.1406 64.3594 26.7812 53.3125
Q30.4219 42.2812 30.4219 31.3906
Q30.4219 20.4531 26.7812 9.375
Q23.1406 -1.70312 15.8281 -13.1875
L8.01562 -13.1875
Q14.5 -2 17.7031 9.0625
Q20.9062 20.125 20.9062 31.3906
Q20.9062 42.6719 17.7031 53.6562
Q14.5 64.6562 8.01562 75.875" id="BitstreamVeraSans-Roman-29"/>
      <path d="
M30.6094 48.3906
Q23.3906 48.3906 19.1875 42.75
Q14.9844 37.1094 14.9844 27.2969
Q14.9844 17.4844 19.1562 11.8438
Q23.3438 6.20312 30.6094 6.20312
Q37.7969 6.20312 41.9844 11.8594
Q46.1875 17.5312 46.1875 27.2969
Q46.1875 37.0156 41.9844 42.7031
Q37.7969 48.3906 30.6094 48.3906
M30.6094 56
Q42.3281 56 49.0156 48.375
Q55.7188 40.7656 55.7188 27.2969
Q55.7188 13.875 49.0156 6.21875
Q42.3281 -1.42188 30.6094 -1.42188
Q18.8438 -1.42188 12.1719 6.21875
Q5.51562 13.875 5.51562 27.2969
Q5.51562 40.7656 12.1719 48.375
Q18.8438 56 30.6094 56" id="BitstreamVeraSans-Roman-6f"/>
      <path d="
M41.1094 46.2969
Q39.5938 47.1719 37.8125 47.5781
Q36.0312 48 33.8906 48
Q26.2656 48 22.1875 43.0469
Q18.1094 38.0938 18.1094 28.8125
L18.1094 0
L9.07812 0
L9.07812 54.6875
L18.1094 54.6875
L18.1094 46.1875
Q20.9531 51.1719 25.4844 53.5781
Q30.0312 56 36.5312 56
Q37.4531 56 38.5781 55.875
Q39.7031 55.7656 41.0625 55.5156
z
" id="BitstreamVeraSans-Roman-72"/>
      <path d="
M31 75.875
Q24.4688 64.6562 21.2812 53.6562
Q18.1094 42.6719 18.1094 31.3906
Q18.1094 20.125 21.3125 9.0625
Q24.5156 -2 31 -13.1875
L23.1875 -13.1875
Q15.875 -1.70312 12.2344 9.375
Q8.59375 20.4531 8.59375 31.3906
Q8.59375 42.2812 12.2031 53.3125
Q15.8281 64.3594 23.1875 75.875
z
" id="BitstreamVeraSans-Roman-28"/>
      <path d="
M9.07812 75.9844
L18.1094 75.9844
L18.1094 31.1094
L44.9219 54.6875
L56.3906 54.6875
L27.3906 29.1094
L57.625 0
L45.9062 0
L18.1094 26.7031
L18.1094 0
L9.07812 0
z
" id="BitstreamVeraSans-Roman-6b"/>
      <path d="
M9.8125 72.9062
L55.9062 72.9062
L55.9062 64.5938
L19.6719 64.5938
L19.6719 43.0156
L54.3906 43.0156
L54.3906 34.7188
L19.6719 34.7188
L19.6719 8.29688
L56.7812 8.29688
L56.7812 0
L9.8125 0
z
" id="BitstreamVeraSans-Roman-45"/>
      <path d="
M52 44.1875
Q55.375 50.25 60.0625 53.125
Q64.75 56 71.0938 56
Q79.6406 56 84.2812 50.0156
Q88.9219 44.0469 88.9219 33.0156
L88.9219 0
L79.8906 0
L79.8906 32.7188
Q79.8906 40.5781 77.0938 44.375
Q74.3125 48.1875 68.6094 48.1875
Q61.625 48.1875 57.5625 43.5469
Q53.5156 38.9219 53.5156 30.9062
L53.5156 0
L44.4844 0
L44.4844 32.7188
Q44.4844 40.625 41.7031 44.4062
Q38.9219 48.1875 33.1094 48.1875
Q26.2188 48.1875 22.1562 43.5312
Q18.1094 38.875 18.1094 30.9062
L18.1094 0
L9.07812 0
L9.07812 54.6875
L18.1094 54.6875
L18.1094 46.1875
Q21.1875 51.2188 25.4844 53.6094
Q29.7812 56 35.6875 56
Q41.6562 56 45.8281 52.9688
Q50 49.9531 52 44.1875" id="BitstreamVeraSans-Roman-6d"/>
      <path id="BitstreamVeraSans-Roman-20"/>
      <path d="
M25.3906 72.9062
L33.6875 72.9062
L8.29688 -9.28125
L0 -9.28125
z
" id="BitstreamVeraSans-Roman-2f"/>
      <path d="
M54.8906 33.0156
L54.8906 0
L45.9062 0
L45.9062 32.7188
Q45.9062 40.4844 42.875 44.3281
Q39.8438 48.1875 33.7969 48.1875
Q26.5156 48.1875 22.3125 43.5469
Q18.1094 38.9219 18.1094 30.9062
L18.1094 0
L9.07812 0
L9.07812 75.9844
L18.1094 75.9844
L18.1094 46.1875
Q21.3438 51.125 25.7031 53.5625
Q30.0781 56 35.7969 56
Q45.2188 56 50.0469 50.1719
Q54.8906 44.3438 54.8906 33.0156" id="BitstreamVeraSans-Roman-68"/>
     </defs>
     <g transform="translate(406.9621875 548.131875)scale(0.12 -0.12)">
      <use xlink:href="#BitstreamVeraSans-Roman-45"/>
      <use x="63.18359375" xlink:href="#BitstreamVeraSans-Roman-72"/>
      <use x="102.546875" xlink:href="#BitstreamVeraSans-Roman-72"/>
      <use x="141.41015625" xlink:href="#BitstreamVeraSans-Roman-6f"/>
      <use x="202.591796875" xlink:href="#BitstreamVeraSans-Roman-72"/>
      <use x="243.705078125" xlink:href="#BitstreamVeraSans-Roman-20"/>
      <use x="275.4921875" xlink:href="#BitstreamVeraSans-Roman-28"/>
      <use x="314.505859375" xlink:href="#BitstreamVeraSans-Roman-6b"/>
      <use x="372.416015625" xlink:href="#BitstreamVeraSans-Roman-6d"/>
      <use x="469.828125" xlink:href="#BitstreamVeraSans-Roman-2f"/>
      <use x="503.51953125" xlink:href="#BitstreamVeraSans-Roman-68"/>
      <use x="566.8984375" xlink:href="#BitstreamVeraSans-Roman-29"/>
     </g>
    </g>
   </g>
   <g id="matplotlib.axis_2">
    <g id="ytick_1">
     <g id="line2d_18">
      <path clip-path="url(#p40d8c4fc83)" d="
M108 518.4
L777.6 518.4" style="fill:none;stroke:#000000;stroke-dasharray:1.000000,3.000000;stroke-dashoffset:0.0;stroke-width:0.5;"/>
     </g>
     <g id="line2d_19">
      <defs>
       <path d="
M0 0
L4 0" id="md7965d1ba0" style="stroke:#000000;stroke-width:0.5;"/>
      </defs>
      <g>
       <use style="stroke:#000000;stroke-width:0.5;" x="108.0" xlink:href="#md7965d1ba0" y="518.4"/>
      </g>
     </g>
     <g id="line2d_20">
      <defs>
       <path d="
M0 0
L-4 0" id="md9a1c1a7cd" style="stroke:#000000;stroke-width:0.5;"/>
      </defs>
      <g>
       <use style="stroke:#000000;stroke-width:0.5;" x="777.6" xlink:href="#md9a1c1a7cd" y="518.4"/>
      </g>
     </g>
     <g id="text_7">
      <!-- 0.000 -->
      <defs>
       <path d="
M10.6875 12.4062
L21 12.4062
L21 0
L10.6875 0
z
" id="BitstreamVeraSans-Roman-2e"/>
      </defs>
      <g transform="translate(71.234375 521.71125)scale(0.12 -0.12)">
       <use xlink:href="#BitstreamVeraSans-Roman-30"/>
       <use x="63.623046875" xlink:href="#BitstreamVeraSans-Roman-2e"/>
       <use x="95.41015625" xlink:href="#BitstreamVeraSans-Roman-30"/>
       <use x="159.033203125" xlink:href="#BitstreamVeraSans-Roman-30"/>
       <use x="222.65625" xlink:href="#BitstreamVeraSans-Roman-30"/>
      </g>
     </g>
    </g>
    <g id="ytick_2">
     <g id="line2d_21">
      <path clip-path="url(#p40d8c4fc83)" d="
M108 460.8
L777.6 460.8" style="fill:none;stroke:#000000;stroke-dasharray:1.000000,3.000000;stroke-dashoffset:0.0;stroke-width:0.5;"/>
     </g>
     <g id="line2d_22">
      <g>
       <use style="stroke:#000000;stroke-width:0.5;" x="108.0" xlink:href="#md7965d1ba0" y="460.8"/>
      </g>
     </g>
     <g id="line2d_23">
      <g>
       <use style="stroke:#000000;stroke-width:0.5;" x="777.6" xlink:href="#md9a1c1a7cd" y="460.8"/>
      </g>
     </g>
     <g id="text_8">
      <!-- 0.005 -->
      <g transform="translate(71.485625 464.11125)scale(0.12 -0.12)">
       <use xlink:href="#BitstreamVeraSans-Roman-30"/>
       <use x="63.623046875" xlink:href="#BitstreamVeraSans-Roman-2e"/>
       <use x="95.41015625" xlink:href="#BitstreamVeraSans-Roman-30"/>
       <use x="159.033203125" xlink:href="#BitstreamVeraSans-Roman-30"/>
       <use x="222.65625" xlink:href="#BitstreamVeraSans-Roman-35"/>
      </g>
     </g>
    </g>
    <g id="ytick_3">
     <g id="line2d_24">
      <path clip-path="url(#p40d8c4fc83)" d="
M108 403.2
L777.6 403.2" style="fill:none;stroke:#000000;stroke-dasharray:1.000000,3.000000;stroke-dashoffset:0.0;stroke-width:0.5;"/>
     </g>
     <g id="line2d_25">
      <g>
       <use style="stroke:#000000;stroke-width:0.5;" x="108.0" xlink:href="#md7965d1ba0" y="403.2"/>
      </g>
     </g>
     <g id="line2d_26">
      <g>
       <use style="stroke:#000000;stroke-width:0.5;" x="777.6" xlink:href="#md9a1c1a7cd" y="403.2"/>
      </g>
     </g>
     <g id="text_9">
      <!-- 0.010 -->
      <g transform="translate(71.234375 406.51125)scale(0.12 -0.12)">
       <use xlink:href="#BitstreamVeraSans-Roman-30"/>
       <use x="63.623046875" xlink:href="#BitstreamVeraSans-Roman-2e"/>
       <use x="95.41015625" xlink:href="#BitstreamVeraSans-Roman-30"/>
       <use x="159.033203125" xlink:href="#BitstreamVeraSans-Roman-31"/>
       <use x="222.65625" xlink:href="#BitstreamVeraSans-Roman-30"/>
      </g>
     </g>
    </g>
    <g id="ytick_4">
     <g id="line2d_27">
      <path clip-path="url(#p40d8c4fc83)" d="
M108 345.6
L777.6 345.6" style="fill:none;stroke:#000000;stroke-dasharray:1.000000,3.000000;stroke-dashoffset:0.0;stroke-width:0.5;"/>
     </g>
     <g id="line2d_28">
      <g>
       <use style="stroke:#000000;stroke-width:0.5;" x="108.0" xlink:href="#md7965d1ba0" y="345.6"/>
      </g>
     </g>
     <g id="line2d_29">
      <g>
       <use style="stroke:#000000;stroke-width:0.5;" x="777.6" xlink:href="#md9a1c1a7cd" y="345.6"/>
      </g>
     </g>
     <g id="text_10">
      <!-- 0.015 -->
      <g transform="translate(71.485625 348.91125)scale(0.12 -0.12)">
       <use xlink:href="#BitstreamVeraSans-Roman-30"/>
       <use x="63.623046875" xlink:href="#BitstreamVeraSans-Roman-2e"/>
       <use x="95.41015625" xlink:href="#BitstreamVeraSans-Roman-30"/>
       <use x="159.033203125" xlink:href="#BitstreamVeraSans-Roman-31"/>
       <use x="222.65625" xlink:href="#BitstreamVeraSans-Roman-35"/>
      </g>
     </g>
    </g>
    <g id="ytick_5">
     <g id="line2d_30">
      <path clip-path="url(#p40d8c4fc83)" d="
M108 288
L777.6 288" style="fill:none;stroke:#000000;stroke-dasharray:1.000000,3.000000;stroke-dashoffset:0.0;stroke-width:0.5;"/>
     </g>
     <g id="line2d_31">
      <g>
       <use style="stroke:#000000;stroke-width:0.5;" x="108.0" xlink:href="#md7965d1ba0" y="288.0"/>
      </g>
     </g>
     <g id="line2d_32">
      <g>
       <use style="stroke:#000000;stroke-width:0.5;" x="777.6" xlink:href="#md9a1c1a7cd" y="288.0"/>
      </g>
     </g>
     <g id="text_11">
      <!-- 0.020 -->
      <defs>
       <path d="
M19.1875 8.29688
L53.6094 8.29688
L53.6094 0
L7.32812 0
L7.32812 8.29688
Q12.9375 14.1094 22.625 23.8906
Q32.3281 33.6875 34.8125 36.5312
Q39.5469 41.8438 41.4219 45.5312
Q43.3125 49.2188 43.3125 52.7812
Q43.3125 58.5938 39.2344 62.25
Q35.1562 65.9219 28.6094 65.9219
Q23.9688 65.9219 18.8125 64.3125
Q13.6719 62.7031 7.8125 59.4219
L7.8125 69.3906
Q13.7656 71.7812 18.9375 73
Q24.125 74.2188 28.4219 74.2188
Q39.75 74.2188 46.4844 68.5469
Q53.2188 62.8906 53.2188 53.4219
Q53.2188 48.9219 51.5312 44.8906
Q49.8594 40.875 45.4062 35.4062
Q44.1875 33.9844 37.6406 27.2188
Q31.1094 20.4531 19.1875 8.29688" id="BitstreamVeraSans-Roman-32"/>
      </defs>
      <g transform="translate(71.234375 291.31125)scale(0.12 -0.12)">
       <use xlink:href="#BitstreamVeraSans-Roman-30"/>
       <use x="63.623046875" xlink:href="#BitstreamVeraSans-Roman-2e"/>
       <use x="95.41015625" xlink:href="#BitstreamVeraSans-Roman-30"/>
       <use x="159.033203125" xlink:href="#BitstreamVeraSans-Roman-32"/>
       <use x="222.65625" xlink:href="#BitstreamVeraSans-Roman-30"/>
      </g>
     </g>
    </g>
    <g id="ytick_6">
     <g id="line2d_33">
      <path clip-path="url(#p40d8c4fc83)" d="
M108 230.4
L777.6 230.4" style="fill:none;stroke:#000000;stroke-dasharray:1.000000,3.000000;stroke-dashoffset:0.0;stroke-width:0.5;"/>
     </g>
     <g id="line2d_34">
      <g>
       <use style="stroke:#000000;stroke-width:0.5;" x="108.0" xlink:href="#md7965d1ba0" y="230.4"/>
      </g>
     </g>
     <g id="line2d_35">
      <g>
       <use style="stroke:#000000;stroke-width:0.5;" x="777.6" xlink:href="#md9a1c1a7cd" y="230.4"/>
      </g>
     </g>
     <g id="text_12">
      <!-- 0.025 -->
      <g transform="translate(71.485625 233.71125)scale(0.12 -0.12)">
       <use xlink:href="#BitstreamVeraSans-Roman-30"/>
       <use x="63.623046875" xlink:href="#BitstreamVeraSans-Roman-2e"/>
       <use x="95.41015625" xlink:href="#BitstreamVeraSans-Roman-30"/>
       <use x="159.033203125" xlink:href="#BitstreamVeraSans-Roman-32"/>
       <use x="222.65625" xlink:href="#BitstreamVeraSans-Roman-35"/>
      </g>
     </g>
    </g>
    <g id="ytick_7">
     <g id="line2d_36">
      <path clip-path="url(#p40d8c4fc83)" d="
M108 172.8
L777.6 172.8" style="fill:none;stroke:#000000;stroke-dasharray:1.000000,3.000000;stroke-dashoffset:0.0;stroke-width:0.5;"/>
     </g>
     <g id="line2d_37">
      <g>
       <use style="stroke:#000000;stroke-width:0.5;" x="108.0" xlink:href="#md7965d1ba0" y="172.8"/>
      </g>
     </g>
     <g id="line2d_38">
      <g>
       <use style="stroke:#000000;stroke-width:0.5;" x="777.6" xlink:href="#md9a1c1a7cd" y="172.8"/>
      </g>
     </g>
     <g id="text_13">
      <!-- 0.030 -->
      <defs>
       <path d="
M40.5781 39.3125
Q47.6562 37.7969 51.625 33
Q55.6094 28.2188 55.6094 21.1875
Q55.6094 10.4062 48.1875 4.48438
Q40.7656 -1.42188 27.0938 -1.42188
Q22.5156 -1.42188 17.6562 -0.515625
Q12.7969 0.390625 7.625 2.20312
L7.625 11.7188
Q11.7188 9.32812 16.5938 8.10938
Q21.4844 6.89062 26.8125 6.89062
Q36.0781 6.89062 40.9375 10.5469
Q45.7969 14.2031 45.7969 21.1875
Q45.7969 27.6406 41.2812 31.2656
Q36.7656 34.9062 28.7188 34.9062
L20.2188 34.9062
L20.2188 43.0156
L29.1094 43.0156
Q36.375 43.0156 40.2344 45.9219
Q44.0938 48.8281 44.0938 54.2969
Q44.0938 59.9062 40.1094 62.9062
Q36.1406 65.9219 28.7188 65.9219
Q24.6562 65.9219 20.0156 65.0312
Q15.375 64.1562 9.8125 62.3125
L9.8125 71.0938
Q15.4375 72.6562 20.3438 73.4375
Q25.25 74.2188 29.5938 74.2188
Q40.8281 74.2188 47.3594 69.1094
Q53.9062 64.0156 53.9062 55.3281
Q53.9062 49.2656 50.4375 45.0938
Q46.9688 40.9219 40.5781 39.3125" id="BitstreamVeraSans-Roman-33"/>
      </defs>
      <g transform="translate(71.234375 176.11125)scale(0.12 -0.12)">
       <use xlink:href="#BitstreamVeraSans-Roman-30"/>
       <use x="63.623046875" xlink:href="#BitstreamVeraSans-Roman-2e"/>
       <use x="95.41015625" xlink:href="#BitstreamVeraSans-Roman-30"/>
       <use x="159.033203125" xlink:href="#BitstreamVeraSans-Roman-33"/>
       <use x="222.65625" xlink:href="#BitstreamVeraSans-Roman-30"/>
      </g>
     </g>
    </g>
    <g id="ytick_8">
     <g id="line2d_39">
      <path clip-path="url(#p40d8c4fc83)" d="
M108 115.2
L777.6 115.2" style="fill:none;stroke:#000000;stroke-dasharray:1.000000,3.000000;stroke-dashoffset:0.0;stroke-width:0.5;"/>
     </g>
     <g id="line2d_40">
      <g>
       <use style="stroke:#000000;stroke-width:0.5;" x="108.0" xlink:href="#md7965d1ba0" y="115.2"/>
      </g>
     </g>
     <g id="line2d_41">
      <g>
       <use style="stroke:#000000;stroke-width:0.5;" x="777.6" xlink:href="#md9a1c1a7cd" y="115.2"/>
      </g>
     </g>
     <g id="text_14">
      <!-- 0.035 -->
      <g transform="translate(71.485625 118.51125)scale(0.12 -0.12)">
       <use xlink:href="#BitstreamVeraSans-Roman-30"/>
       <use x="63.623046875" xlink:href="#BitstreamVeraSans-Roman-2e"/>
       <use x="95.41015625" xlink:href="#BitstreamVeraSans-Roman-30"/>
       <use x="159.033203125" xlink:href="#BitstreamVeraSans-Roman-33"/>
       <use x="222.65625" xlink:href="#BitstreamVeraSans-Roman-35"/>
      </g>
     </g>
    </g>
    <g id="ytick_9">
     <g id="line2d_42">
      <path clip-path="url(#p40d8c4fc83)" d="
M108 57.6
L777.6 57.6" style="fill:none;stroke:#000000;stroke-dasharray:1.000000,3.000000;stroke-dashoffset:0.0;stroke-width:0.5;"/>
     </g>
     <g id="line2d_43">
      <g>
       <use style="stroke:#000000;stroke-width:0.5;" x="108.0" xlink:href="#md7965d1ba0" y="57.6"/>
      </g>
     </g>
     <g id="line2d_44">
      <g>
       <use style="stroke:#000000;stroke-width:0.5;" x="777.6" xlink:href="#md9a1c1a7cd" y="57.6"/>
      </g>
     </g>
     <g id="text_15">
      <!-- 0.040 -->
      <defs>
       <path d="
M37.7969 64.3125
L12.8906 25.3906
L37.7969 25.3906
z

M35.2031 72.9062
L47.6094 72.9062
L47.6094 25.3906
L58.0156 25.3906
L58.0156 17.1875
L47.6094 17.1875
L47.6094 0
L37.7969 0
L37.7969 17.1875
L4.89062 17.1875
L4.89062 26.7031
z
" id="BitstreamVeraSans-Roman-34"/>
      </defs>
      <g transform="translate(71.234375 60.91125)scale(0.12 -0.12)">
       <use xlink:href="#BitstreamVeraSans-Roman-30"/>
       <use x="63.623046875" xlink:href="#BitstreamVeraSans-Roman-2e"/>
       <use x="95.41015625" xlink:href="#BitstreamVeraSans-Roman-30"/>
       <use x="159.033203125" xlink:href="#BitstreamVeraSans-Roman-34"/>
       <use x="222.65625" xlink:href="#BitstreamVeraSans-Roman-30"/>
      </g>
     </g>
    </g>
    <g id="text_16">
     <!-- Frequency -->
     <defs>
      <path d="
M14.7969 27.2969
Q14.7969 17.3906 18.875 11.75
Q22.9531 6.10938 30.0781 6.10938
Q37.2031 6.10938 41.2969 11.75
Q45.4062 17.3906 45.4062 27.2969
Q45.4062 37.2031 41.2969 42.8438
Q37.2031 48.4844 30.0781 48.4844
Q22.9531 48.4844 18.875 42.8438
Q14.7969 37.2031 14.7969 27.2969
M45.4062 8.20312
Q42.5781 3.32812 38.25 0.953125
Q33.9375 -1.42188 27.875 -1.42188
Q17.9688 -1.42188 11.7344 6.48438
Q5.51562 14.4062 5.51562 27.2969
Q5.51562 40.1875 11.7344 48.0938
Q17.9688 56 27.875 56
Q33.9375 56 38.25 53.625
Q42.5781 51.2656 45.4062 46.3906
L45.4062 54.6875
L54.3906 54.6875
L54.3906 -20.7969
L45.4062 -20.7969
z
" id="BitstreamVeraSans-Roman-71"/>
      <path d="
M56.2031 29.5938
L56.2031 25.2031
L14.8906 25.2031
Q15.4844 15.9219 20.4844 11.0625
Q25.4844 6.20312 34.4219 6.20312
Q39.5938 6.20312 44.4531 7.46875
Q49.3125 8.73438 54.1094 11.2812
L54.1094 2.78125
Q49.2656 0.734375 44.1875 -0.34375
Q39.1094 -1.42188 33.8906 -1.42188
Q20.7969 -1.42188 13.1562 6.1875
Q5.51562 13.8125 5.51562 26.8125
Q5.51562 40.2344 12.7656 48.1094
Q20.0156 56 32.3281 56
Q43.3594 56 49.7812 48.8906
Q56.2031 41.7969 56.2031 29.5938
M47.2188 32.2344
Q47.125 39.5938 43.0938 43.9844
Q39.0625 48.3906 32.4219 48.3906
Q24.9062 48.3906 20.3906 44.1406
Q15.875 39.8906 15.1875 32.1719
z
" id="BitstreamVeraSans-Roman-65"/>
      <path d="
M48.7812 52.5938
L48.7812 44.1875
Q44.9688 46.2969 41.1406 47.3438
Q37.3125 48.3906 33.4062 48.3906
Q24.6562 48.3906 19.8125 42.8438
Q14.9844 37.3125 14.9844 27.2969
Q14.9844 17.2812 19.8125 11.7344
Q24.6562 6.20312 33.4062 6.20312
Q37.3125 6.20312 41.1406 7.25
Q44.9688 8.29688 48.7812 10.4062
L48.7812 2.09375
Q45.0156 0.34375 40.9844 -0.53125
Q36.9688 -1.42188 32.4219 -1.42188
Q20.0625 -1.42188 12.7812 6.34375
Q5.51562 14.1094 5.51562 27.2969
Q5.51562 40.6719 12.8594 48.3281
Q20.2188 56 33.0156 56
Q37.1562 56 41.1094 55.1406
Q45.0625 54.2969 48.7812 52.5938" id="BitstreamVeraSans-Roman-63"/>
      <path d="
M8.5 21.5781
L8.5 54.6875
L17.4844 54.6875
L17.4844 21.9219
Q17.4844 14.1562 20.5 10.2656
Q23.5312 6.39062 29.5938 6.39062
Q36.8594 6.39062 41.0781 11.0312
Q45.3125 15.6719 45.3125 23.6875
L45.3125 54.6875
L54.2969 54.6875
L54.2969 0
L45.3125 0
L45.3125 8.40625
Q42.0469 3.42188 37.7188 1
Q33.4062 -1.42188 27.6875 -1.42188
Q18.2656 -1.42188 13.375 4.4375
Q8.5 10.2969 8.5 21.5781" id="BitstreamVeraSans-Roman-75"/>
      <path d="
M32.1719 -5.07812
Q28.375 -14.8438 24.75 -17.8125
Q21.1406 -20.7969 15.0938 -20.7969
L7.90625 -20.7969
L7.90625 -13.2812
L13.1875 -13.2812
Q16.8906 -13.2812 18.9375 -11.5156
Q21 -9.76562 23.4844 -3.21875
L25.0938 0.875
L2.98438 54.6875
L12.5 54.6875
L29.5938 11.9219
L46.6875 54.6875
L56.2031 54.6875
z
" id="BitstreamVeraSans-Roman-79"/>
      <path d="
M9.8125 72.9062
L51.7031 72.9062
L51.7031 64.5938
L19.6719 64.5938
L19.6719 43.1094
L48.5781 43.1094
L48.5781 34.8125
L19.6719 34.8125
L19.6719 0
L9.8125 0
z
" id="BitstreamVeraSans-Roman-46"/>
      <path d="
M54.8906 33.0156
L54.8906 0
L45.9062 0
L45.9062 32.7188
Q45.9062 40.4844 42.875 44.3281
Q39.8438 48.1875 33.7969 48.1875
Q26.5156 48.1875 22.3125 43.5469
Q18.1094 38.9219 18.1094 30.9062
L18.1094 0
L9.07812 0
L9.07812 54.6875
L18.1094 54.6875
L18.1094 46.1875
Q21.3438 51.125 25.7031 53.5625
Q30.0781 56 35.7969 56
Q45.2188 56 50.0469 50.1719
Q54.8906 44.3438 54.8906 33.0156" id="BitstreamVeraSans-Roman-6e"/>
     </defs>
     <g transform="translate(63.73875 318.2278125)rotate(-90.0)scale(0.12 -0.12)">
      <use xlink:href="#BitstreamVeraSans-Roman-46"/>
      <use x="50.26953125" xlink:href="#BitstreamVeraSans-Roman-72"/>
      <use x="89.1328125" xlink:href="#BitstreamVeraSans-Roman-65"/>
      <use x="150.65625" xlink:href="#BitstreamVeraSans-Roman-71"/>
      <use x="214.1328125" xlink:href="#BitstreamVeraSans-Roman-75"/>
      <use x="277.51171875" xlink:href="#BitstreamVeraSans-Roman-65"/>
      <use x="339.03515625" xlink:href="#BitstreamVeraSans-Roman-6e"/>
      <use x="402.4140625" xlink:href="#BitstreamVeraSans-Roman-63"/>
      <use x="457.39453125" xlink:href="#BitstreamVeraSans-Roman-79"/>
     </g>
    </g>
   </g>
   <g id="text_17">
    <!-- Daily Average Wind Speed Error -->
    <defs>
     <path d="
M45.4062 27.9844
Q45.4062 37.75 41.375 43.1094
Q37.3594 48.4844 30.0781 48.4844
Q22.8594 48.4844 18.8281 43.1094
Q14.7969 37.75 14.7969 27.9844
Q14.7969 18.2656 18.8281 12.8906
Q22.8594 7.51562 30.0781 7.51562
Q37.3594 7.51562 41.375 12.8906
Q45.4062 18.2656 45.4062 27.9844
M54.3906 6.78125
Q54.3906 -7.17188 48.1875 -13.9844
Q42 -20.7969 29.2031 -20.7969
Q24.4688 -20.7969 20.2656 -20.0938
Q16.0625 -19.3906 12.1094 -17.9219
L12.1094 -9.1875
Q16.0625 -11.3281 19.9219 -12.3438
Q23.7812 -13.375 27.7812 -13.375
Q36.625 -13.375 41.0156 -8.76562
Q45.4062 -4.15625 45.4062 5.17188
L45.4062 9.625
Q42.625 4.78125 38.2812 2.39062
Q33.9375 0 27.875 0
Q17.8281 0 11.6719 7.65625
Q5.51562 15.3281 5.51562 27.9844
Q5.51562 40.6719 11.6719 48.3281
Q17.8281 56 27.875 56
Q33.9375 56 38.2812 53.6094
Q42.625 51.2188 45.4062 46.3906
L45.4062 54.6875
L54.3906 54.6875
z
" id="BitstreamVeraSans-Roman-67"/>
     <path d="
M18.1094 8.20312
L18.1094 -20.7969
L9.07812 -20.7969
L9.07812 54.6875
L18.1094 54.6875
L18.1094 46.3906
Q20.9531 51.2656 25.2656 53.625
Q29.5938 56 35.5938 56
Q45.5625 56 51.7812 48.0938
Q58.0156 40.1875 58.0156 27.2969
Q58.0156 14.4062 51.7812 6.48438
Q45.5625 -1.42188 35.5938 -1.42188
Q29.5938 -1.42188 25.2656 0.953125
Q20.9531 3.32812 18.1094 8.20312
M48.6875 27.2969
Q48.6875 37.2031 44.6094 42.8438
Q40.5312 48.4844 33.4062 48.4844
Q26.2656 48.4844 22.1875 42.8438
Q18.1094 37.2031 18.1094 27.2969
Q18.1094 17.3906 22.1875 11.75
Q26.2656 6.10938 33.4062 6.10938
Q40.5312 6.10938 44.6094 11.75
Q48.6875 17.3906 48.6875 27.2969" id="BitstreamVeraSans-Roman-70"/>
     <path d="
M45.4062 46.3906
L45.4062 75.9844
L54.3906 75.9844
L54.3906 0
L45.4062 0
L45.4062 8.20312
Q42.5781 3.32812 38.25 0.953125
Q33.9375 -1.42188 27.875 -1.42188
Q17.9688 -1.42188 11.7344 6.48438
Q5.51562 14.4062 5.51562 27.2969
Q5.51562 40.1875 11.7344 48.0938
Q17.9688 56 27.875 56
Q33.9375 56 38.25 53.625
Q42.5781 51.2656 45.4062 46.3906
M14.7969 27.2969
Q14.7969 17.3906 18.875 11.75
Q22.9531 6.10938 30.0781 6.10938
Q37.2031 6.10938 41.2969 11.75
Q45.4062 17.3906 45.4062 27.2969
Q45.4062 37.2031 41.2969 42.8438
Q37.2031 48.4844 30.0781 48.4844
Q22.9531 48.4844 18.875 42.8438
Q14.7969 37.2031 14.7969 27.2969" id="BitstreamVeraSans-Roman-64"/>
     <path d="
M9.42188 75.9844
L18.4062 75.9844
L18.4062 0
L9.42188 0
z
" id="BitstreamVeraSans-Roman-6c"/>
     <path d="
M2.98438 54.6875
L12.5 54.6875
L29.5938 8.79688
L46.6875 54.6875
L56.2031 54.6875
L35.6875 0
L23.4844 0
z
" id="BitstreamVeraSans-Roman-76"/>
     <path d="
M34.2812 27.4844
Q23.3906 27.4844 19.1875 25
Q14.9844 22.5156 14.9844 16.5
Q14.9844 11.7188 18.1406 8.90625
Q21.2969 6.10938 26.7031 6.10938
Q34.1875 6.10938 38.7031 11.4062
Q43.2188 16.7031 43.2188 25.4844
L43.2188 27.4844
z

M52.2031 31.2031
L52.2031 0
L43.2188 0
L43.2188 8.29688
Q40.1406 3.32812 35.5469 0.953125
Q30.9531 -1.42188 24.3125 -1.42188
Q15.9219 -1.42188 10.9531 3.29688
Q6 8.01562 6 15.9219
Q6 25.1406 12.1719 29.8281
Q18.3594 34.5156 30.6094 34.5156
L43.2188 34.5156
L43.2188 35.4062
Q43.2188 41.6094 39.1406 45
Q35.0625 48.3906 27.6875 48.3906
Q23 48.3906 18.5469 47.2656
Q14.1094 46.1406 10.0156 43.8906
L10.0156 52.2031
Q14.9375 54.1094 19.5781 55.0469
Q24.2188 56 28.6094 56
Q40.4844 56 46.3438 49.8438
Q52.2031 43.7031 52.2031 31.2031" id="BitstreamVeraSans-Roman-61"/>
     <path d="
M3.32812 72.9062
L13.2812 72.9062
L28.6094 11.2812
L43.8906 72.9062
L54.9844 72.9062
L70.3125 11.2812
L85.5938 72.9062
L95.6094 72.9062
L77.2969 0
L64.8906 0
L49.5156 63.2812
L33.9844 0
L21.5781 0
z
" id="BitstreamVeraSans-Roman-57"/>
     <path d="
M19.6719 64.7969
L19.6719 8.10938
L31.5938 8.10938
Q46.6875 8.10938 53.6875 14.9375
Q60.6875 21.7812 60.6875 36.5312
Q60.6875 51.1719 53.6875 57.9844
Q46.6875 64.7969 31.5938 64.7969
z

M9.8125 72.9062
L30.0781 72.9062
Q51.2656 72.9062 61.1719 64.0938
Q71.0938 55.2812 71.0938 36.5312
Q71.0938 17.6719 61.125 8.82812
Q51.1719 0 30.0781 0
L9.8125 0
z
" id="BitstreamVeraSans-Roman-44"/>
     <path d="
M34.1875 63.1875
L20.7969 26.9062
L47.6094 26.9062
z

M28.6094 72.9062
L39.7969 72.9062
L67.5781 0
L57.3281 0
L50.6875 18.7031
L17.8281 18.7031
L11.1875 0
L0.78125 0
z
" id="BitstreamVeraSans-Roman-41"/>
     <path d="
M53.5156 70.5156
L53.5156 60.8906
Q47.9062 63.5781 42.9219 64.8906
Q37.9375 66.2188 33.2969 66.2188
Q25.25 66.2188 20.875 63.0938
Q16.5 59.9688 16.5 54.2031
Q16.5 49.3594 19.4062 46.8906
Q22.3125 44.4375 30.4219 42.9219
L36.375 41.7031
Q47.4062 39.5938 52.6562 34.2969
Q57.9062 29 57.9062 20.125
Q57.9062 9.51562 50.7969 4.04688
Q43.7031 -1.42188 29.9844 -1.42188
Q24.8125 -1.42188 18.9688 -0.25
Q13.1406 0.921875 6.89062 3.21875
L6.89062 13.375
Q12.8906 10.0156 18.6562 8.29688
Q24.4219 6.59375 29.9844 6.59375
Q38.4219 6.59375 43.0156 9.90625
Q47.6094 13.2344 47.6094 19.3906
Q47.6094 24.75 44.3125 27.7812
Q41.0156 30.8125 33.5 32.3281
L27.4844 33.5
Q16.4531 35.6875 11.5156 40.375
Q6.59375 45.0625 6.59375 53.4219
Q6.59375 63.0938 13.4062 68.6562
Q20.2188 74.2188 32.1719 74.2188
Q37.3125 74.2188 42.625 73.2812
Q47.9531 72.3594 53.5156 70.5156" id="BitstreamVeraSans-Roman-53"/>
     <path d="
M9.42188 54.6875
L18.4062 54.6875
L18.4062 0
L9.42188 0
z

M9.42188 75.9844
L18.4062 75.9844
L18.4062 64.5938
L9.42188 64.5938
z
" id="BitstreamVeraSans-Roman-69"/>
    </defs>
    <g transform="translate(327.650625 52.6)scale(0.144 -0.144)">
     <use xlink:href="#BitstreamVeraSans-Roman-44"/>
     <use x="77.001953125" xlink:href="#BitstreamVeraSans-Roman-61"/>
     <use x="138.28125" xlink:href="#BitstreamVeraSans-Roman-69"/>
     <use x="166.064453125" xlink:href="#BitstreamVeraSans-Roman-6c"/>
     <use x="193.84765625" xlink:href="#BitstreamVeraSans-Roman-79"/>
     <use x="253.02734375" xlink:href="#BitstreamVeraSans-Roman-20"/>
     <use x="284.814453125" xlink:href="#BitstreamVeraSans-Roman-41"/>
     <use x="347.34765625" xlink:href="#BitstreamVeraSans-Roman-76"/>
     <use x="406.52734375" xlink:href="#BitstreamVeraSans-Roman-65"/>
     <use x="468.05078125" xlink:href="#BitstreamVeraSans-Roman-72"/>
     <use x="509.1640625" xlink:href="#BitstreamVeraSans-Roman-61"/>
     <use x="570.443359375" xlink:href="#BitstreamVeraSans-Roman-67"/>
     <use x="633.919921875" xlink:href="#BitstreamVeraSans-Roman-65"/>
     <use x="695.443359375" xlink:href="#BitstreamVeraSans-Roman-20"/>
     <use x="727.23046875" xlink:href="#BitstreamVeraSans-Roman-57"/>
     <use x="823.857421875" xlink:href="#BitstreamVeraSans-Roman-69"/>
     <use x="851.640625" xlink:href="#BitstreamVeraSans-Roman-6e"/>
     <use x="915.01953125" xlink:href="#BitstreamVeraSans-Roman-64"/>
     <use x="978.49609375" xlink:href="#BitstreamVeraSans-Roman-20"/>
     <use x="1010.283203125" xlink:href="#BitstreamVeraSans-Roman-53"/>
     <use x="1073.759765625" xlink:href="#BitstreamVeraSans-Roman-70"/>
     <use x="1137.236328125" xlink:href="#BitstreamVeraSans-Roman-65"/>
     <use x="1198.759765625" xlink:href="#BitstreamVeraSans-Roman-65"/>
     <use x="1260.283203125" xlink:href="#BitstreamVeraSans-Roman-64"/>
     <use x="1323.759765625" xlink:href="#BitstreamVeraSans-Roman-20"/>
     <use x="1355.546875" xlink:href="#BitstreamVeraSans-Roman-45"/>
     <use x="1418.73046875" xlink:href="#BitstreamVeraSans-Roman-72"/>
     <use x="1458.09375" xlink:href="#BitstreamVeraSans-Roman-72"/>
     <use x="1496.95703125" xlink:href="#BitstreamVeraSans-Roman-6f"/>
     <use x="1558.138671875" xlink:href="#BitstreamVeraSans-Roman-72"/>
    </g>
   </g>
   <g id="legend_1">
    <g id="patch_155">
     <path d="
M678.139 111.393
L770.4 111.393
L770.4 64.8
L678.139 64.8
z
" style="fill:#ffffff;stroke:#000000;stroke-linejoin:miter;"/>
    </g>
    <g id="patch_156">
     <path d="
M683.899 81.5018
L712.699 81.5018
L712.699 71.4218
L683.899 71.4218
z
" style="fill:#6f1717;opacity:0.4;stroke:#000000;stroke-linejoin:miter;"/>
    </g>
    <g id="text_18">
     <!-- WSI -->
     <defs>
      <path d="
M9.8125 72.9062
L19.6719 72.9062
L19.6719 0
L9.8125 0
z
" id="BitstreamVeraSans-Roman-49"/>
     </defs>
     <g transform="translate(724.21875 81.50175)scale(0.144 -0.144)">
      <use xlink:href="#BitstreamVeraSans-Roman-57"/>
      <use x="98.876953125" xlink:href="#BitstreamVeraSans-Roman-53"/>
      <use x="162.353515625" xlink:href="#BitstreamVeraSans-Roman-49"/>
     </g>
    </g>
    <g id="patch_157">
     <path d="
M683.899 102.638
L712.699 102.638
L712.699 92.5583
L683.899 92.5583
z
" style="fill:#172a6f;opacity:0.4;stroke:#000000;stroke-linejoin:miter;"/>
    </g>
    <g id="text_19">
     <!-- NOAA -->
     <defs>
      <path d="
M9.8125 72.9062
L23.0938 72.9062
L55.4219 11.9219
L55.4219 72.9062
L64.9844 72.9062
L64.9844 0
L51.7031 0
L19.3906 60.9844
L19.3906 0
L9.8125 0
z
" id="BitstreamVeraSans-Roman-4e"/>
      <path d="
M39.4062 66.2188
Q28.6562 66.2188 22.3281 58.2031
Q16.0156 50.2031 16.0156 36.375
Q16.0156 22.6094 22.3281 14.5938
Q28.6562 6.59375 39.4062 6.59375
Q50.1406 6.59375 56.4219 14.5938
Q62.7031 22.6094 62.7031 36.375
Q62.7031 50.2031 56.4219 58.2031
Q50.1406 66.2188 39.4062 66.2188
M39.4062 74.2188
Q54.7344 74.2188 63.9062 63.9375
Q73.0938 53.6562 73.0938 36.375
Q73.0938 19.1406 63.9062 8.85938
Q54.7344 -1.42188 39.4062 -1.42188
Q24.0312 -1.42188 14.8125 8.82812
Q5.60938 19.0938 5.60938 36.375
Q5.60938 53.6562 14.8125 63.9375
Q24.0312 74.2188 39.4062 74.2188" id="BitstreamVeraSans-Roman-4f"/>
     </defs>
     <g transform="translate(724.21875 102.63825)scale(0.144 -0.144)">
      <use xlink:href="#BitstreamVeraSans-Roman-4e"/>
      <use x="74.8046875" xlink:href="#BitstreamVeraSans-Roman-4f"/>
      <use x="151.765625" xlink:href="#BitstreamVeraSans-Roman-41"/>
      <use x="222.923828125" xlink:href="#BitstreamVeraSans-Roman-41"/>
     </g>
    </g>
   </g>
  </g>
 </g>
 <defs>
  <clipPath id="p40d8c4fc83">
   <rect height="460.8" width="669.6" x="108.0" y="57.6"/>
  </clipPath>
 </defs>
</svg>
