<?xml version="1.0" encoding="utf-8" standalone="no"?>
<!DOCTYPE svg PUBLIC "-//W3C//DTD SVG 1.1//EN"
  "http://www.w3.org/Graphics/SVG/1.1/DTD/svg11.dtd">
<!-- Created with matplotlib (http://matplotlib.org/) -->
<svg height="432pt" version="1.1" viewBox="0 0 576 432" width="576pt" xmlns="http://www.w3.org/2000/svg" xmlns:xlink="http://www.w3.org/1999/xlink">
 <defs>
  <style type="text/css">
*{stroke-linecap:butt;stroke-linejoin:round;stroke-miterlimit:100000;}
  </style>
 </defs>
 <g id="figure_1">
  <g id="patch_1">
   <path d="M 0 432 
L 576 432 
L 576 0 
L 0 0 
L 0 432 
z
" style="fill:none;"/>
  </g>
  <g id="axes_1">
   <g id="patch_2">
    <path d="M 72 388.8 
L 518.4 388.8 
L 518.4 43.2 
L 72 43.2 
L 72 388.8 
z
" style="fill:none;"/>
   </g>
   <g id="PathCollection_1">
    <path clip-path="url(#p1684449296)" d="M 175.484922 312.627347 
C 178.980677 312.627347 182.333726 311.238469 184.805598 308.766596 
C 187.27747 306.294724 188.666348 302.941676 188.666348 299.44592 
C 188.666348 295.950165 187.27747 292.597117 184.805598 290.125245 
C 182.333726 287.653372 178.980677 286.264494 175.484922 286.264494 
C 171.989167 286.264494 168.636118 287.653372 166.164246 290.125245 
C 163.692374 292.597117 162.303496 295.950165 162.303496 299.44592 
C 162.303496 302.941676 163.692374 306.294724 166.164246 308.766596 
C 168.636118 311.238469 171.989167 312.627347 175.484922 312.627347 
z
" style="fill:#6ec064;fill-opacity:0.3;stroke:#000000;stroke-opacity:0.3;"/>
    <path clip-path="url(#p1684449296)" d="M 173.725496 108.08194 
C 175.900323 108.08194 177.986368 107.217872 179.524203 105.680037 
C 181.062038 104.142202 181.926106 102.056157 181.926106 99.88133 
C 181.926106 97.706503 181.062038 95.620458 179.524203 94.082623 
C 177.986368 92.544788 175.900323 91.68072 173.725496 91.68072 
C 171.550669 91.68072 169.464625 92.544788 167.92679 94.082623 
C 166.388955 95.620458 165.524887 97.706503 165.524887 99.88133 
C 165.524887 102.056157 166.388955 104.142202 167.92679 105.680037 
C 169.464625 107.217872 171.550669 108.08194 173.725496 108.08194 
z
" style="fill:#d83128;fill-opacity:0.3;stroke:#000000;stroke-opacity:0.3;"/>
    <path clip-path="url(#p1684449296)" d="M 194.605953 284.623944 
C 196.710937 284.623944 198.72999 283.787625 200.218439 282.299176 
C 201.706887 280.810728 202.543207 278.791675 202.543207 276.68669 
C 202.543207 274.581706 201.706887 272.562653 200.218439 271.074204 
C 198.72999 269.585755 196.710937 268.749436 194.605953 268.749436 
C 192.500968 268.749436 190.481915 269.585755 188.993467 271.074204 
C 187.505018 272.562653 186.668699 274.581706 186.668699 276.68669 
C 186.668699 278.791675 187.505018 280.810728 188.993467 282.299176 
C 190.481915 283.787625 192.500968 284.623944 194.605953 284.623944 
z
" style="fill:#93d168;fill-opacity:0.3;stroke:#000000;stroke-opacity:0.3;"/>
    <path clip-path="url(#p1684449296)" d="M 180.092614 323.912544 
C 181.896191 323.912544 183.62614 323.195975 184.901461 321.920654 
C 186.176781 320.645333 186.89335 318.915384 186.89335 317.111808 
C 186.89335 315.308232 186.176781 313.578283 184.901461 312.302962 
C 183.62614 311.027641 181.896191 310.311073 180.092614 310.311073 
C 178.289038 310.311073 176.559089 311.027641 175.283768 312.302962 
C 174.008448 313.578283 173.291879 315.308232 173.291879 317.111808 
C 173.291879 318.915384 174.008448 320.645333 175.283768 321.920654 
C 176.559089 323.195975 178.289038 323.912544 180.092614 323.912544 
z
" style="fill:#4bb05c;fill-opacity:0.3;stroke:#000000;stroke-opacity:0.3;"/>
    <path clip-path="url(#p1684449296)" d="M 179.288243 324.629137 
C 180.594217 324.629137 181.846877 324.110268 182.77034 323.186805 
C 183.693803 322.263342 184.212672 321.010681 184.212672 319.704708 
C 184.212672 318.398734 183.693803 317.146073 182.77034 316.222611 
C 181.846877 315.299148 180.594217 314.780279 179.288243 314.780279 
C 177.982269 314.780279 176.729609 315.299148 175.806146 316.222611 
C 174.882683 317.146073 174.363814 318.398734 174.363814 319.704708 
C 174.363814 321.010681 174.882683 322.263342 175.806146 323.186805 
C 176.729609 324.110268 177.982269 324.629137 179.288243 324.629137 
z
" style="fill:#45ad5b;fill-opacity:0.3;stroke:#000000;stroke-opacity:0.3;"/>
    <path clip-path="url(#p1684449296)" d="M 185.843764 337.357662 
C 186.976712 337.357662 188.06341 336.907537 188.864525 336.106422 
C 189.66564 335.305307 190.115765 334.218609 190.115765 333.08566 
C 190.115765 331.952712 189.66564 330.866014 188.864525 330.064899 
C 188.06341 329.263784 186.976712 328.813658 185.843764 328.813658 
C 184.710815 328.813658 183.624117 329.263784 182.823002 330.064899 
C 182.021887 330.866014 181.571762 331.952712 181.571762 333.08566 
C 181.571762 334.218609 182.021887 335.305307 182.823002 336.106422 
C 183.624117 336.907537 184.710815 337.357662 185.843764 337.357662 
z
" style="fill:#2da155;fill-opacity:0.3;stroke:#000000;stroke-opacity:0.3;"/>
    <path clip-path="url(#p1684449296)" d="M 183.527409 141.978102 
C 184.416928 141.978102 185.270133 141.624693 185.899118 140.995708 
C 186.528102 140.366724 186.881511 139.513518 186.881511 138.624 
C 186.881511 137.734482 186.528102 136.881276 185.899118 136.252292 
C 185.270133 135.623307 184.416928 135.269898 183.527409 135.269898 
C 182.637891 135.269898 181.784685 135.623307 181.155701 136.252292 
C 180.526717 136.881276 180.173307 137.734482 180.173307 138.624 
C 180.173307 139.513518 180.526717 140.366724 181.155701 140.995708 
C 181.784685 141.624693 182.637891 141.978102 183.527409 141.978102 
z
" style="fill:#fdb567;fill-opacity:0.3;stroke:#000000;stroke-opacity:0.3;"/>
    <path clip-path="url(#p1684449296)" d="M 184.204887 302.874102 
C 185.094405 302.874102 185.94761 302.520693 186.576595 301.891708 
C 187.205579 301.262724 187.558989 300.409518 187.558989 299.52 
C 187.558989 298.630482 187.205579 297.777276 186.576595 297.148292 
C 185.94761 296.519307 185.094405 296.165898 184.204887 296.165898 
C 183.315368 296.165898 182.462163 296.519307 181.833178 297.148292 
C 181.204194 297.777276 180.850785 298.630482 180.850785 299.52 
C 180.850785 300.409518 181.204194 301.262724 181.833178 301.891708 
C 182.462163 302.520693 183.315368 302.874102 184.204887 302.874102 
z
" style="fill:#69be63;fill-opacity:0.3;stroke:#000000;stroke-opacity:0.3;"/>
    <path clip-path="url(#p1684449296)" d="M 181.385897 225.882102 
C 182.275416 225.882102 183.128621 225.528693 183.757606 224.899708 
C 184.38659 224.270724 184.739999 223.417518 184.739999 222.528 
C 184.739999 221.638482 184.38659 220.785276 183.757606 220.156292 
C 183.128621 219.527307 182.275416 219.173898 181.385897 219.173898 
C 180.496379 219.173898 179.643173 219.527307 179.014189 220.156292 
C 178.385205 220.785276 178.031795 221.638482 178.031795 222.528 
C 178.031795 223.417518 178.385205 224.270724 179.014189 224.899708 
C 179.643173 225.528693 180.496379 225.882102 181.385897 225.882102 
z
" style="fill:#ddf191;fill-opacity:0.3;stroke:#000000;stroke-opacity:0.3;"/>
    <path clip-path="url(#p1684449296)" d="M 182.971944 298.472393 
C 183.84147 298.472393 184.6755 298.126926 185.290349 297.512078 
C 185.905197 296.89723 186.250663 296.0632 186.250663 295.193673 
C 186.250663 294.324147 185.905197 293.490117 185.290349 292.875269 
C 184.6755 292.260421 183.84147 291.914954 182.971944 291.914954 
C 182.102417 291.914954 181.268387 292.260421 180.653539 292.875269 
C 180.038691 293.490117 179.693225 294.324147 179.693225 295.193673 
C 179.693225 296.0632 180.038691 296.89723 180.653539 297.512078 
C 181.268387 298.126926 182.102417 298.472393 182.971944 298.472393 
z
" style="fill:#70c164;fill-opacity:0.3;stroke:#000000;stroke-opacity:0.3;"/>
    <path clip-path="url(#p1684449296)" d="M 182.259605 296.749997 
C 183.118961 296.749997 183.943236 296.408571 184.550893 295.800914 
C 185.15855 295.193258 185.499976 294.368983 185.499976 293.509627 
C 185.499976 292.65027 185.15855 291.825995 184.550893 291.218339 
C 183.943236 290.610682 183.118961 290.269256 182.259605 290.269256 
C 181.400249 290.269256 180.575974 290.610682 179.968317 291.218339 
C 179.360661 291.825995 179.019235 292.65027 179.019235 293.509627 
C 179.019235 294.368983 179.360661 295.193258 179.968317 295.800914 
C 180.575974 296.408571 181.400249 296.749997 182.259605 296.749997 
z
" style="fill:#73c264;fill-opacity:0.3;stroke:#000000;stroke-opacity:0.3;"/>
    <path clip-path="url(#p1684449296)" d="M 199.870124 202.735611 
C 200.708769 202.735611 201.513179 202.402413 202.106192 201.809401 
C 202.699204 201.216389 203.032401 200.411979 203.032401 199.573333 
C 203.032401 198.734687 202.699204 197.930278 202.106192 197.337265 
C 201.513179 196.744253 200.708769 196.411056 199.870124 196.411056 
C 199.031478 196.411056 198.227068 196.744253 197.634056 197.337265 
C 197.041044 197.930278 196.707846 198.734687 196.707846 199.573333 
C 196.707846 200.411979 197.041044 201.216389 197.634056 201.809401 
C 198.227068 202.402413 199.031478 202.735611 199.870124 202.735611 
z
" style="fill:#f1f9ac;fill-opacity:0.3;stroke:#000000;stroke-opacity:0.3;"/>
    <path clip-path="url(#p1684449296)" d="M 192.086778 72.892417 
C 192.859971 72.892417 193.601601 72.585224 194.148331 72.038494 
C 194.695061 71.491764 195.002254 70.750134 195.002254 69.976941 
C 195.002254 69.203748 194.695061 68.462119 194.148331 67.915388 
C 193.601601 67.368658 192.859971 67.061465 192.086778 67.061465 
C 191.313585 67.061465 190.571956 67.368658 190.025225 67.915388 
C 189.478495 68.462119 189.171302 69.203748 189.171302 69.976941 
C 189.171302 70.750134 189.478495 71.491764 190.025225 72.038494 
C 190.571956 72.585224 191.313585 72.892417 192.086778 72.892417 
z
" style="fill:#a50026;fill-opacity:0.3;stroke:#000000;stroke-opacity:0.3;"/>
    <path clip-path="url(#p1684449296)" d="M 187.612557 175.116385 
C 188.374295 175.116385 189.104936 174.813743 189.643566 174.275113 
C 190.182196 173.736483 190.484838 173.005841 190.484838 172.244103 
C 190.484838 171.482365 190.182196 170.751724 189.643566 170.213094 
C 189.104936 169.674464 188.374295 169.371822 187.612557 169.371822 
C 186.850819 169.371822 186.120177 169.674464 185.581547 170.213094 
C 185.042917 170.751724 184.740275 171.482365 184.740275 172.244103 
C 184.740275 173.005841 185.042917 173.736483 185.581547 174.275113 
C 186.120177 174.813743 186.850819 175.116385 187.612557 175.116385 
z
" style="fill:#feec9f;fill-opacity:0.3;stroke:#000000;stroke-opacity:0.3;"/>
    <path clip-path="url(#p1684449296)" d="M 187.180417 185.136389 
C 187.894498 185.136389 188.579429 184.852682 189.084361 184.34775 
C 189.589292 183.842818 189.873 183.157888 189.873 182.443807 
C 189.873 181.729725 189.589292 181.044795 189.084361 180.539863 
C 188.579429 180.034932 187.894498 179.751224 187.180417 179.751224 
C 186.466336 179.751224 185.781406 180.034932 185.276474 180.539863 
C 184.771542 181.044795 184.487835 181.729725 184.487835 182.443807 
C 184.487835 183.157888 184.771542 183.842818 185.276474 184.34775 
C 185.781406 184.852682 186.466336 185.136389 187.180417 185.136389 
z
" style="fill:#fff5ae;fill-opacity:0.3;stroke:#000000;stroke-opacity:0.3;"/>
    <path clip-path="url(#p1684449296)" d="M 179.487792 212.782999 
C 180.189453 212.782999 180.862471 212.504226 181.35862 212.008077 
C 181.85477 211.511927 182.133543 210.838909 182.133543 210.137248 
C 182.133543 209.435586 181.85477 208.762569 181.35862 208.266419 
C 180.862471 207.77027 180.189453 207.491497 179.487792 207.491497 
C 178.78613 207.491497 178.113113 207.77027 177.616963 208.266419 
C 177.120813 208.762569 176.84204 209.435586 176.84204 210.137248 
C 176.84204 210.838909 177.120813 211.511927 177.616963 212.008077 
C 178.113113 212.504226 178.78613 212.782999 179.487792 212.782999 
z
" style="fill:#e9f6a1;fill-opacity:0.3;stroke:#000000;stroke-opacity:0.3;"/>
    <path clip-path="url(#p1684449296)" d="M 173.877428 201.046994 
C 174.553566 201.046994 175.202102 200.778362 175.680204 200.30026 
C 176.158305 199.822158 176.426938 199.173622 176.426938 198.497484 
C 176.426938 197.821346 176.158305 197.17281 175.680204 196.694709 
C 175.202102 196.216607 174.553566 195.947975 173.877428 195.947975 
C 173.20129 195.947975 172.552754 196.216607 172.074652 196.694709 
C 171.596551 197.17281 171.327918 197.821346 171.327918 198.497484 
C 171.327918 199.173622 171.596551 199.822158 172.074652 200.30026 
C 172.552754 200.778362 173.20129 201.046994 173.877428 201.046994 
z
" style="fill:#f5fbb2;fill-opacity:0.3;stroke:#000000;stroke-opacity:0.3;"/>
    <path clip-path="url(#p1684449296)" d="M 176.27585 131.867107 
C 176.897807 131.867107 177.494373 131.620001 177.934163 131.180211 
C 178.373952 130.740422 178.621058 130.143855 178.621058 129.521899 
C 178.621058 128.899943 178.373952 128.303376 177.934163 127.863587 
C 177.494373 127.423797 176.897807 127.176691 176.27585 127.176691 
C 175.653894 127.176691 175.057327 127.423797 174.617538 127.863587 
C 174.177748 128.303376 173.930642 128.899943 173.930642 129.521899 
C 173.930642 130.143855 174.177748 130.740422 174.617538 131.180211 
C 175.057327 131.620001 175.653894 131.867107 176.27585 131.867107 
z
" style="fill:#fdad60;fill-opacity:0.3;stroke:#000000;stroke-opacity:0.3;"/>
   </g>
   <g id="PathCollection_2">
    <path clip-path="url(#p1684449296)" d="M 403.335837 323.522447 
C 406.831592 323.522447 410.18464 322.133569 412.656513 319.661697 
C 415.128385 317.189825 416.517263 313.836776 416.517263 310.341021 
C 416.517263 306.845266 415.128385 303.492217 412.656513 301.020345 
C 410.18464 298.548473 406.831592 297.159594 403.335837 297.159594 
C 399.840081 297.159594 396.487033 298.548473 394.015161 301.020345 
C 391.543288 303.492217 390.15441 306.845266 390.15441 310.341021 
C 390.15441 313.836776 391.543288 317.189825 394.015161 319.661697 
C 396.487033 322.133569 399.840081 323.522447 403.335837 323.522447 
z
" style="fill:#6ec064;fill-opacity:0.3;stroke:#000000;stroke-opacity:0.3;"/>
    <path clip-path="url(#p1684449296)" d="M 406.429648 157.327295 
C 408.604475 157.327295 410.69052 156.463227 412.228355 154.925392 
C 413.76619 153.387557 414.630258 151.301512 414.630258 149.126685 
C 414.630258 146.951858 413.76619 144.865814 412.228355 143.327979 
C 410.69052 141.790144 408.604475 140.926076 406.429648 140.926076 
C 404.254821 140.926076 402.168776 141.790144 400.630941 143.327979 
C 399.093106 144.865814 398.229038 146.951858 398.229038 149.126685 
C 398.229038 151.301512 399.093106 153.387557 400.630941 154.925392 
C 402.168776 156.463227 404.254821 157.327295 406.429648 157.327295 
z
" style="fill:#d83128;fill-opacity:0.3;stroke:#000000;stroke-opacity:0.3;"/>
    <path clip-path="url(#p1684449296)" d="M 398.298291 289.70578 
C 400.403275 289.70578 402.422328 288.869461 403.910777 287.381013 
C 405.399225 285.892564 406.235545 283.873511 406.235545 281.768526 
C 406.235545 279.663542 405.399225 277.644489 403.910777 276.15604 
C 402.422328 274.667592 400.403275 273.831273 398.298291 273.831273 
C 396.193306 273.831273 394.174253 274.667592 392.685805 276.15604 
C 391.197356 277.644489 390.361037 279.663542 390.361037 281.768526 
C 390.361037 283.873511 391.197356 285.892564 392.685805 287.381013 
C 394.174253 288.869461 396.193306 289.70578 398.298291 289.70578 
z
" style="fill:#93d168;fill-opacity:0.3;stroke:#000000;stroke-opacity:0.3;"/>
    <path clip-path="url(#p1684449296)" d="M 406.469539 326.771994 
C 408.273115 326.771994 410.003065 326.055426 411.278385 324.780105 
C 412.553706 323.504784 413.270275 321.774835 413.270275 319.971259 
C 413.270275 318.167683 412.553706 316.437734 411.278385 315.162413 
C 410.003065 313.887092 408.273115 313.170524 406.469539 313.170524 
C 404.665963 313.170524 402.936014 313.887092 401.660693 315.162413 
C 400.385372 316.437734 399.668804 318.167683 399.668804 319.971259 
C 399.668804 321.774835 400.385372 323.504784 401.660693 324.780105 
C 402.936014 326.055426 404.665963 326.771994 406.469539 326.771994 
z
" style="fill:#4bb05c;fill-opacity:0.3;stroke:#000000;stroke-opacity:0.3;"/>
    <path clip-path="url(#p1684449296)" d="M 406.90969 333.639489 
C 408.215664 333.639489 409.468325 333.120621 410.391787 332.197158 
C 411.31525 331.273695 411.834119 330.021034 411.834119 328.715061 
C 411.834119 327.409087 411.31525 326.156426 410.391787 325.232963 
C 409.468325 324.309501 408.215664 323.790632 406.90969 323.790632 
C 405.603717 323.790632 404.351056 324.309501 403.427593 325.232963 
C 402.50413 326.156426 401.985262 327.409087 401.985262 328.715061 
C 401.985262 330.021034 402.50413 331.273695 403.427593 332.197158 
C 404.351056 333.120621 405.603717 333.639489 406.90969 333.639489 
z
" style="fill:#45ad5b;fill-opacity:0.3;stroke:#000000;stroke-opacity:0.3;"/>
    <path clip-path="url(#p1684449296)" d="M 395.926533 338.213147 
C 397.059481 338.213147 398.146179 337.763022 398.947294 336.961906 
C 399.748409 336.160791 400.198535 335.074093 400.198535 333.941145 
C 400.198535 332.808197 399.748409 331.721499 398.947294 330.920383 
C 398.146179 330.119268 397.059481 329.669143 395.926533 329.669143 
C 394.793585 329.669143 393.706887 330.119268 392.905771 330.920383 
C 392.104656 331.721499 391.654531 332.808197 391.654531 333.941145 
C 391.654531 335.074093 392.104656 336.160791 392.905771 336.961906 
C 393.706887 337.763022 394.793585 338.213147 395.926533 338.213147 
z
" style="fill:#2da155;fill-opacity:0.3;stroke:#000000;stroke-opacity:0.3;"/>
    <path clip-path="url(#p1684449296)" d="M 399.974158 237.020998 
C 400.863676 237.020998 401.716882 236.667588 402.345866 236.038604 
C 402.97485 235.40962 403.32826 234.556414 403.32826 233.666896 
C 403.32826 232.777377 402.97485 231.924172 402.345866 231.295187 
C 401.716882 230.666203 400.863676 230.312794 399.974158 230.312794 
C 399.084639 230.312794 398.231434 230.666203 397.602449 231.295187 
C 396.973465 231.924172 396.620056 232.777377 396.620056 233.666896 
C 396.620056 234.556414 396.973465 235.40962 397.602449 236.038604 
C 398.231434 236.667588 399.084639 237.020998 399.974158 237.020998 
z
" style="fill:#fdb567;fill-opacity:0.3;stroke:#000000;stroke-opacity:0.3;"/>
    <path clip-path="url(#p1684449296)" d="M 407.018899 304.617881 
C 407.908417 304.617881 408.761623 304.264472 409.390608 303.635487 
C 410.019592 303.006503 410.373001 302.153297 410.373001 301.263779 
C 410.373001 300.374261 410.019592 299.521055 409.390608 298.892071 
C 408.761623 298.263086 407.908417 297.909677 407.018899 297.909677 
C 406.129381 297.909677 405.276175 298.263086 404.647191 298.892071 
C 404.018207 299.521055 403.664797 300.374261 403.664797 301.263779 
C 403.664797 302.153297 404.018207 303.006503 404.647191 303.635487 
C 405.276175 304.264472 406.129381 304.617881 407.018899 304.617881 
z
" style="fill:#69be63;fill-opacity:0.3;stroke:#000000;stroke-opacity:0.3;"/>
    <path clip-path="url(#p1684449296)" d="M 409.336755 262.80541 
C 410.226274 262.80541 411.079479 262.452 411.708464 261.823016 
C 412.337448 261.194032 412.690857 260.340826 412.690857 259.451308 
C 412.690857 258.561789 412.337448 257.708584 411.708464 257.079599 
C 411.079479 256.450615 410.226274 256.097206 409.336755 256.097206 
C 408.447237 256.097206 407.594032 256.450615 406.965047 257.079599 
C 406.336063 257.708584 405.982653 258.561789 405.982653 259.451308 
C 405.982653 260.340826 406.336063 261.194032 406.965047 261.823016 
C 407.594032 262.452 408.447237 262.80541 409.336755 262.80541 
z
" style="fill:#ddf191;fill-opacity:0.3;stroke:#000000;stroke-opacity:0.3;"/>
    <path clip-path="url(#p1684449296)" d="M 399.035936 374.218254 
C 399.905462 374.218254 400.739492 373.872788 401.354341 373.25794 
C 401.969189 372.643091 402.314655 371.809061 402.314655 370.939535 
C 402.314655 370.070008 401.969189 369.235978 401.354341 368.62113 
C 400.739492 368.006282 399.905462 367.660816 399.035936 367.660816 
C 398.166409 367.660816 397.332379 368.006282 396.717531 368.62113 
C 396.102683 369.235978 395.757217 370.070008 395.757217 370.939535 
C 395.757217 371.809061 396.102683 372.643091 396.717531 373.25794 
C 397.332379 373.872788 398.166409 374.218254 399.035936 374.218254 
z
" style="fill:#70c164;fill-opacity:0.3;stroke:#000000;stroke-opacity:0.3;"/>
    <path clip-path="url(#p1684449296)" d="M 408.261199 320.975136 
C 409.120556 320.975136 409.944831 320.63371 410.552487 320.026054 
C 411.160144 319.418397 411.50157 318.594122 411.50157 317.734766 
C 411.50157 316.875409 411.160144 316.051135 410.552487 315.443478 
C 409.944831 314.835821 409.120556 314.494395 408.261199 314.494395 
C 407.401843 314.494395 406.577568 314.835821 405.969912 315.443478 
C 405.362255 316.051135 405.020829 316.875409 405.020829 317.734766 
C 405.020829 318.594122 405.362255 319.418397 405.969912 320.026054 
C 406.577568 320.63371 407.401843 320.975136 408.261199 320.975136 
z
" style="fill:#73c264;fill-opacity:0.3;stroke:#000000;stroke-opacity:0.3;"/>
    <path clip-path="url(#p1684449296)" d="M 401.127892 208.398541 
C 401.966538 208.398541 402.770948 208.065343 403.36396 207.472331 
C 403.956972 206.879319 404.29017 206.074909 404.29017 205.236263 
C 404.29017 204.397617 403.956972 203.593207 403.36396 203.000195 
C 402.770948 202.407183 401.966538 202.073985 401.127892 202.073985 
C 400.289246 202.073985 399.484836 202.407183 398.891824 203.000195 
C 398.298812 203.593207 397.965615 204.397617 397.965615 205.236263 
C 397.965615 206.074909 398.298812 206.879319 398.891824 207.472331 
C 399.484836 208.065343 400.289246 208.398541 401.127892 208.398541 
z
" style="fill:#f1f9ac;fill-opacity:0.3;stroke:#000000;stroke-opacity:0.3;"/>
    <path clip-path="url(#p1684449296)" d="M 392.601523 134.672375 
C 393.374716 134.672375 394.116345 134.365182 394.663075 133.818452 
C 395.209806 133.271722 395.516999 132.530092 395.516999 131.756899 
C 395.516999 130.983706 395.209806 130.242077 394.663075 129.695346 
C 394.116345 129.148616 393.374716 128.841423 392.601523 128.841423 
C 391.828329 128.841423 391.0867 129.148616 390.53997 129.695346 
C 389.99324 130.242077 389.686047 130.983706 389.686047 131.756899 
C 389.686047 132.530092 389.99324 133.271722 390.53997 133.818452 
C 391.0867 134.365182 391.828329 134.672375 392.601523 134.672375 
z
" style="fill:#a50026;fill-opacity:0.3;stroke:#000000;stroke-opacity:0.3;"/>
    <path clip-path="url(#p1684449296)" d="M 412.779596 237.008415 
C 413.541334 237.008415 414.271976 236.705773 414.810606 236.167143 
C 415.349236 235.628513 415.651877 234.897871 415.651877 234.136133 
C 415.651877 233.374395 415.349236 232.643754 414.810606 232.105124 
C 414.271976 231.566494 413.541334 231.263852 412.779596 231.263852 
C 412.017858 231.263852 411.287216 231.566494 410.748586 232.105124 
C 410.209956 232.643754 409.907315 233.374395 409.907315 234.136133 
C 409.907315 234.897871 410.209956 235.628513 410.748586 236.167143 
C 411.287216 236.705773 412.017858 237.008415 412.779596 237.008415 
z
" style="fill:#feec9f;fill-opacity:0.3;stroke:#000000;stroke-opacity:0.3;"/>
    <path clip-path="url(#p1684449296)" d="M 400.528622 196.953753 
C 401.242703 196.953753 401.927633 196.670046 402.432565 196.165114 
C 402.937497 195.660182 403.221204 194.975252 403.221204 194.261171 
C 403.221204 193.54709 402.937497 192.862159 402.432565 192.357227 
C 401.927633 191.852296 401.242703 191.568588 400.528622 191.568588 
C 399.814541 191.568588 399.12961 191.852296 398.624678 192.357227 
C 398.119747 192.862159 397.836039 193.54709 397.836039 194.261171 
C 397.836039 194.975252 398.119747 195.660182 398.624678 196.165114 
C 399.12961 196.670046 399.814541 196.953753 400.528622 196.953753 
z
" style="fill:#fff5ae;fill-opacity:0.3;stroke:#000000;stroke-opacity:0.3;"/>
    <path clip-path="url(#p1684449296)" d="M 414.286635 231.5721 
C 414.988296 231.5721 415.661314 231.293327 416.157463 230.797177 
C 416.653613 230.301028 416.932386 229.62801 416.932386 228.926348 
C 416.932386 228.224687 416.653613 227.551669 416.157463 227.05552 
C 415.661314 226.55937 414.988296 226.280597 414.286635 226.280597 
C 413.584973 226.280597 412.911955 226.55937 412.415806 227.05552 
C 411.919656 227.551669 411.640883 228.224687 411.640883 228.926348 
C 411.640883 229.62801 411.919656 230.301028 412.415806 230.797177 
C 412.911955 231.293327 413.584973 231.5721 414.286635 231.5721 
z
" style="fill:#e9f6a1;fill-opacity:0.3;stroke:#000000;stroke-opacity:0.3;"/>
    <path clip-path="url(#p1684449296)" d="M 417.074267 266.033807 
C 417.750405 266.033807 418.398941 265.765175 418.877043 265.287073 
C 419.355145 264.808971 419.623777 264.160435 419.623777 263.484298 
C 419.623777 262.80816 419.355145 262.159624 418.877043 261.681522 
C 418.398941 261.20342 417.750405 260.934788 417.074267 260.934788 
C 416.398129 260.934788 415.749593 261.20342 415.271492 261.681522 
C 414.79339 262.159624 414.524758 262.80816 414.524758 263.484298 
C 414.524758 264.160435 414.79339 264.808971 415.271492 265.287073 
C 415.749593 265.765175 416.398129 266.033807 417.074267 266.033807 
z
" style="fill:#f5fbb2;fill-opacity:0.3;stroke:#000000;stroke-opacity:0.3;"/>
    <path clip-path="url(#p1684449296)" d="M 402.782915 144.2506 
C 403.404871 144.2506 404.001437 144.003494 404.441227 143.563704 
C 404.881017 143.123915 405.128123 142.527348 405.128123 141.905392 
C 405.128123 141.283435 404.881017 140.686869 404.441227 140.247079 
C 404.001437 139.80729 403.404871 139.560184 402.782915 139.560184 
C 402.160958 139.560184 401.564392 139.80729 401.124602 140.247079 
C 400.684813 140.686869 400.437707 141.283435 400.437707 141.905392 
C 400.437707 142.527348 400.684813 143.123915 401.124602 143.563704 
C 401.564392 144.003494 402.160958 144.2506 402.782915 144.2506 
z
" style="fill:#fdad60;fill-opacity:0.3;stroke:#000000;stroke-opacity:0.3;"/>
   </g>
   <g id="line2d_1">
    <path clip-path="url(#p1684449296)" d="M 166.86 298.382859 
L 200.34 298.382859 
L 200.34 174.794029 
L 166.86 174.794029 
L 166.86 298.382859 
" style="fill:none;stroke:#0000ff;stroke-linecap:square;"/>
   </g>
   <g id="line2d_2">
    <path clip-path="url(#p1684449296)" d="M 183.6 298.382859 
L 183.6 333.08566 
" style="fill:none;stroke:#0000ff;stroke-dasharray:6.000000,6.000000;stroke-dashoffset:0.0;"/>
   </g>
   <g id="line2d_3">
    <path clip-path="url(#p1684449296)" d="M 183.6 174.794029 
L 183.6 69.976941 
" style="fill:none;stroke:#0000ff;stroke-dasharray:6.000000,6.000000;stroke-dashoffset:0.0;"/>
   </g>
   <g id="line2d_4">
    <path clip-path="url(#p1684449296)" d="M 175.23 333.08566 
L 191.97 333.08566 
" style="fill:none;stroke:#000000;stroke-linecap:square;"/>
   </g>
   <g id="line2d_5">
    <path clip-path="url(#p1684449296)" d="M 175.23 69.976941 
L 191.97 69.976941 
" style="fill:none;stroke:#000000;stroke-linecap:square;"/>
   </g>
   <g id="line2d_6">
    <path clip-path="url(#p1684449296)" d="M 166.86 216.332624 
L 200.34 216.332624 
" style="fill:none;stroke:#ff0000;stroke-linecap:square;"/>
   </g>
   <g id="line2d_7"/>
   <g id="line2d_8">
    <path clip-path="url(#p1684449296)" d="M 390.06 315.886329 
L 423.54 315.886329 
L 423.54 211.158784 
L 390.06 211.158784 
L 390.06 315.886329 
" style="fill:none;stroke:#0000ff;stroke-linecap:square;"/>
   </g>
   <g id="line2d_9">
    <path clip-path="url(#p1684449296)" d="M 406.8 315.886329 
L 406.8 370.939535 
" style="fill:none;stroke:#0000ff;stroke-dasharray:6.000000,6.000000;stroke-dashoffset:0.0;"/>
   </g>
   <g id="line2d_10">
    <path clip-path="url(#p1684449296)" d="M 406.8 211.158784 
L 406.8 131.756899 
" style="fill:none;stroke:#0000ff;stroke-dasharray:6.000000,6.000000;stroke-dashoffset:0.0;"/>
   </g>
   <g id="line2d_11">
    <path clip-path="url(#p1684449296)" d="M 398.43 370.939535 
L 415.17 370.939535 
" style="fill:none;stroke:#000000;stroke-linecap:square;"/>
   </g>
   <g id="line2d_12">
    <path clip-path="url(#p1684449296)" d="M 398.43 131.756899 
L 415.17 131.756899 
" style="fill:none;stroke:#000000;stroke-linecap:square;"/>
   </g>
   <g id="line2d_13">
    <path clip-path="url(#p1684449296)" d="M 390.06 261.467803 
L 423.54 261.467803 
" style="fill:none;stroke:#ff0000;stroke-linecap:square;"/>
   </g>
   <g id="line2d_14"/>
   <g id="patch_3">
    <path d="M 72 43.2 
L 518.4 43.2 
" style="fill:none;stroke:#000000;stroke-linecap:square;stroke-linejoin:miter;"/>
   </g>
   <g id="patch_4">
    <path d="M 518.4 388.8 
L 518.4 43.2 
" style="fill:none;stroke:#000000;stroke-linecap:square;stroke-linejoin:miter;"/>
   </g>
   <g id="patch_5">
    <path d="M 72 388.8 
L 72 43.2 
" style="fill:none;stroke:#000000;stroke-linecap:square;stroke-linejoin:miter;"/>
   </g>
   <g id="patch_6">
    <path d="M 72 388.8 
L 518.4 388.8 
" style="fill:none;stroke:#000000;stroke-linecap:square;stroke-linejoin:miter;"/>
   </g>
   <g id="matplotlib.axis_1">
    <g id="xtick_1">
     <g id="line2d_15">
      <defs>
       <path d="M 0 0 
L 0 -4 
" id="md731cef8a8" style="stroke:#000000;stroke-width:0.5;"/>
      </defs>
      <g>
       <use style="stroke:#000000;stroke-width:0.5;" x="183.6" xlink:href="#md731cef8a8" y="388.8"/>
      </g>
     </g>
     <g id="line2d_16">
      <defs>
       <path d="M 0 0 
L 0 4 
" id="maab5f7c76e" style="stroke:#000000;stroke-width:0.5;"/>
      </defs>
      <g>
       <use style="stroke:#000000;stroke-width:0.5;" x="183.6" xlink:href="#maab5f7c76e" y="43.2"/>
      </g>
     </g>
     <g id="text_1">
      <!-- Survival Rate -->
      <defs>
       <path d="M 46.5 23 
C 46.59375 37.8125 38.09375 48.28125 25.90625 48.28125 
C 13.09375 48.28125 3.5 37.25 3.5 22.34375 
C 3.5 8.4375 12.59375 -1 26.09375 -1 
C 35.59375 -1 42.40625 3.6875 46.5 13.1875 
L 43 15.09375 
C 38.90625 7.390625 34.703125 4.390625 28 4.390625 
C 22.90625 4.390625 19.203125 6.59375 16.59375 11 
C 14.796875 14 14 17.5 14.09375 23 
z
M 14.203125 27.296875 
C 14.203125 30.34375 14.59375 32.5 15.59375 35.25 
C 17.703125 41.140625 20.90625 44 25.703125 44 
C 31.796875 44 35.796875 38.78125 35.796875 30.921875 
C 35.796875 28.078125 34.90625 27.296875 31.703125 27.296875 
z
" id="Century_Schoolbook_L_Roman-101"/>
       <path d="M 29.5 12.09375 
L 18.09375 38.59375 
C 17.796875 39.203125 17.59375 40.09375 17.59375 40.703125 
C 17.59375 42.390625 18.90625 43 23 43 
L 24.40625 43 
L 24.40625 46.59375 
L 0.796875 46.59375 
L 0.796875 43 
L 1.59375 43 
C 5.40625 43 6.796875 42.09375 8.203125 38.703125 
L 25.40625 -1.5 
L 28.90625 -1.5 
L 43.09375 33.59375 
C 45.796875 40.203125 48.59375 43 52.40625 43 
L 52.796875 43 
L 52.796875 46.59375 
L 32.796875 46.59375 
L 32.796875 43 
L 34.203125 43 
C 37.703125 43 39.59375 41.796875 39.59375 39.5 
C 39.59375 38.390625 39.203125 36.796875 38.703125 35.296875 
z
" id="Century_Schoolbook_L_Roman-118"/>
       <path d="M 19.40625 47 
L 19.40625 67 
L 15.296875 67 
C 14.296875 53.875 9.90625 47.1875 1.796875 46.59375 
L 1.796875 42.703125 
L 10 42.703125 
L 10 17.265625 
C 10 10.28125 10.203125 7.78125 11.203125 5.484375 
C 12.796875 1.296875 16.796875 -1 22.59375 -1 
C 26.5 -1 29.90625 0.203125 32.203125 2.390625 
C 35.5 5.59375 37.40625 10.875 37.40625 16.375 
C 37.40625 16.96875 37.40625 17.671875 37.296875 18.671875 
L 33.09375 18.671875 
C 32.796875 9.6875 30.203125 5.09375 25.296875 5.09375 
C 23 5.09375 21 6.28125 20.296875 7.984375 
C 19.703125 9.375 19.40625 11.875 19.40625 15.46875 
L 19.40625 42.703125 
L 34.09375 42.703125 
L 34.09375 47 
z
" id="Century_Schoolbook_L_Roman-116"/>
       <path d="M 20.40625 73 
L 1.90625 73 
L 1.90625 68.21875 
L 6.796875 68.21875 
C 10.40625 68.21875 11 67.515625 11 63.21875 
L 11 12.28125 
L 11 8.28125 
C 11 4.296875 9.90625 3.59375 3.5 3.59375 
L 2.796875 3.59375 
L 2.796875 0 
L 28.703125 0 
L 28.703125 3.59375 
L 28 3.59375 
C 21.5 3.59375 20.40625 4.296875 20.40625 8.25 
L 20.40625 12.21875 
z
" id="Century_Schoolbook_L_Roman-108"/>
       <path d="M 19.796875 46 
L 2.09375 46 
L 2.09375 41.21875 
L 6.203125 41.21875 
C 9.90625 41.21875 10.5 40.515625 10.5 36.203125 
L 10.5 12.296875 
L 10.5 8.296875 
C 10.5 4.296875 9.40625 3.59375 2.90625 3.59375 
L 2.5 3.59375 
L 2.5 0 
L 29.203125 0 
L 29.203125 3.59375 
L 27.296875 3.59375 
C 20.90625 3.59375 19.796875 4.296875 19.796875 8.296875 
L 19.796875 12.296875 
L 19.796875 13.296875 
C 19.796875 20.8125 21.203125 28.40625 23.703125 34.109375 
C 26.09375 39.703125 29.5 42.8125 33.703125 43.3125 
C 32.296875 41.703125 31.90625 40.6875 31.90625 38.765625 
C 31.90625 35.546875 34.203125 33.234375 37.40625 33.234375 
C 41 33.234375 43.5 35.9375 43.5 40.015625 
C 43.5 44.8125 40.09375 48 34.796875 48 
C 28.5 48 23 42.921875 19.796875 34.140625 
z
" id="Century_Schoolbook_L_Roman-114"/>
       <path d="M 20.59375 46 
L 1.796875 46 
L 1.796875 41.21875 
L 6.90625 41.21875 
C 10.59375 41.21875 11.203125 40.515625 11.203125 36.203125 
L 11.203125 12.296875 
L 11.203125 8.296875 
C 11.203125 4.296875 10.09375 3.59375 3.703125 3.59375 
L 3 3.59375 
L 3 0 
L 28.90625 0 
L 28.90625 3.59375 
L 28.203125 3.59375 
C 21.703125 3.59375 20.59375 4.28125 20.59375 8.21875 
L 20.59375 12.171875 
z
M 15.90625 71.578125 
C 12.703125 71.578125 10.09375 68.984375 10.09375 65.796875 
C 10.09375 62.703125 12.703125 60 15.796875 60 
C 19.09375 60 21.703125 62.59375 21.703125 65.796875 
C 21.703125 68.984375 19.09375 71.578125 15.90625 71.578125 
" id="Century_Schoolbook_L_Roman-105"/>
       <path d="M 41.203125 0 
L 59.40625 0 
L 59.40625 4.703125 
L 56.90625 4.703125 
C 51.40625 4.703125 50.59375 5.59375 50.59375 11.953125 
L 50.59375 46.78125 
L 31.796875 46.78125 
L 31.796875 42 
L 36.90625 42 
C 40.59375 42 41.203125 41.296875 41.203125 36.953125 
L 41.203125 24.5625 
C 41.203125 18.8125 40.59375 15.484375 39.09375 12.15625 
C 37 7.71875 33 5.09375 28.09375 5.09375 
C 25 5.09375 22.40625 6.1875 21.09375 8.171875 
C 19.796875 10.046875 19.59375 11.046875 19.59375 16.5 
L 19.59375 46.78125 
L 2.09375 46.78125 
L 2.09375 42 
L 5.90625 42 
C 9.59375 42 10.203125 41.296875 10.203125 36.953125 
L 10.203125 15.21875 
C 10.203125 10.078125 10.59375 7.765625 12.09375 5.453125 
C 14.796875 1.3125 19.59375 -1 25.59375 -1 
C 32.203125 -1 36.796875 1.71875 41.203125 8.125 
z
" id="Century_Schoolbook_L_Roman-117"/>
       <path d="M 45.203125 32.578125 
C 45.203125 38.796875 44.09375 41.96875 41.203125 44.34375 
C 37.90625 46.90625 33 48.28125 26.59375 48.28125 
C 15.40625 48.28125 7.09375 43.046875 7.09375 35.921875 
C 7.09375 32.15625 9.40625 29.78125 12.90625 29.78125 
C 16 29.78125 18.296875 31.859375 18.296875 34.8125 
C 18.296875 36.109375 17.796875 37.484375 16.796875 38.875 
C 16.203125 39.546875 16.09375 39.84375 16.09375 40.15625 
C 16.09375 42.21875 20.203125 44 25 44 
C 28.09375 44 31.59375 43.015625 33.203125 41.53125 
C 35.09375 39.953125 35.796875 37.578125 35.796875 33.125 
L 35.796875 29.28125 
C 25.296875 27.484375 22.09375 26.6875 17.203125 24.8125 
C 8.59375 21.609375 4.40625 16.9375 4.40625 10.65625 
C 4.40625 3.578125 10.09375 -1 18.90625 -1 
C 25.796875 -1 32 1.859375 36.296875 7.0625 
C 37.90625 1.984375 40.40625 0 45.09375 0 
C 49.59375 0 54.296875 2.90625 54.296875 5.78125 
C 54.296875 6.46875 53.796875 6.96875 53.296875 6.96875 
C 52.90625 6.96875 52.5 6.875 51.796875 6.578125 
C 50.203125 6 49.796875 5.890625 49 5.890625 
C 46.203125 5.890625 45.203125 7.78125 45.203125 12.71875 
z
M 35.796875 20.46875 
C 35.796875 14.46875 35.5 13.078125 33.796875 10.484375 
C 31.296875 6.78125 26.703125 4.296875 22.40625 4.296875 
C 17.90625 4.296875 14.5 7.59375 14.5 12.078125 
C 14.5 16.265625 16.59375 19.265625 21 21.359375 
C 24.09375 22.75 28 23.75 35.796875 25.046875 
z
" id="Century_Schoolbook_L_Roman-97"/>
       <path d="M 54.59375 72 
L 50.90625 72 
L 46.90625 66.09375 
C 42.203125 70.59375 35.796875 73 28.703125 73 
C 15.59375 73 6.796875 64.609375 6.796875 52.15625 
C 6.796875 41.28125 12.203125 35.890625 26.90625 32.109375 
L 36.40625 29.703125 
C 43.796875 27.828125 44.5 27.625 46.59375 26.03125 
C 49.59375 23.734375 51.203125 20.4375 51.203125 16.546875 
C 51.203125 12.5625 49.703125 9.28125 46.703125 6.59375 
C 43.40625 3.6875 40.09375 2.59375 34.59375 2.59375 
C 27.203125 2.59375 21.90625 4.875 17.203125 10.03125 
C 13 14.703125 10.90625 19.375 9.40625 27 
L 5.09375 27 
L 5.5 -1.4375 
L 9.40625 -1.4375 
L 13.90625 5.46875 
C 20.59375 0 26.203125 -2 34.90625 -2 
C 49.59375 -2 59 6.59375 59 19.9375 
C 59 26.109375 56.90625 31.40625 53 35.203125 
C 50.296875 37.796875 46.40625 39.484375 38.40625 41.484375 
L 27.703125 44.171875 
C 18.796875 46.46875 14.59375 50.359375 14.59375 56.4375 
C 14.59375 63.40625 20.296875 68.203125 28.796875 68.203125 
C 35.796875 68.203125 41.5 65.1875 45.5 59.484375 
C 48.40625 55.375 50.203125 51.15625 51.5 46.046875 
L 55.796875 46.046875 
z
" id="Century_Schoolbook_L_Roman-83"/>
       <path d="M 24.59375 35 
L 30.40625 35 
C 34.296875 35 38.296875 33.796875 40.5 31.984375 
C 43.40625 29.6875 44.90625 26.078125 45.59375 19.46875 
L 46.09375 14.34375 
C 47.296875 3.015625 51 -1.59375 58.90625 -1.59375 
C 67.09375 -1.59375 71 3.921875 71.296875 15.921875 
L 67.09375 15.921875 
C 66.703125 9 65.5 6 62.796875 6 
C 60.5 6 59.5 7.703125 57.796875 14.625 
L 56.203125 20.9375 
C 54 30.171875 50.09375 34.375 42.296875 36.390625 
C 56.703125 38.390625 63.59375 44.140625 63.59375 54.1875 
C 63.59375 65.53125 54 72 37.203125 72 
L 2.59375 72 
L 2.59375 67.3125 
L 4.40625 67.3125 
C 12.5 67.3125 13.40625 66.8125 13.40625 62.609375 
L 13.40625 59.71875 
L 13.40625 12.171875 
L 13.40625 9.375 
C 13.40625 5.1875 12.5 4.6875 4.40625 4.6875 
L 2.59375 4.6875 
L 2.59375 0 
L 35.40625 0 
L 35.40625 4.6875 
L 33.59375 4.6875 
C 25.5 4.6875 24.59375 5.1875 24.59375 9.390625 
L 24.59375 12.1875 
z
M 24.59375 39.6875 
L 24.59375 61.546875 
C 24.59375 65.53125 24.703125 65.8125 25.703125 66.609375 
C 26.5 67.203125 27.203125 67.3125 31.5 67.3125 
L 36.90625 67.3125 
C 46.796875 67.3125 51.296875 63.125 51.296875 54.09375 
C 51.296875 49.015625 50 45.140625 47.40625 43.0625 
C 44.90625 40.984375 40.40625 39.6875 35.59375 39.6875 
z
" id="Century_Schoolbook_L_Roman-82"/>
      </defs>
      <g transform="translate(145.403682358 401.670650466)scale(0.12 -0.12)">
       <use transform="scale(0.9962640099626402)" xlink:href="#Century_Schoolbook_L_Roman-83"/>
       <use transform="translate(62.763978951004056 0.0)scale(0.9962640099626402)" xlink:href="#Century_Schoolbook_L_Roman-117"/>
       <use transform="translate(123.63560962795768 0.0)scale(0.9962640099626402)" xlink:href="#Century_Schoolbook_L_Roman-114"/>
       <use transform="translate(167.8691783254203 0.0)scale(0.9962640099626402)" xlink:href="#Century_Schoolbook_L_Roman-118"/>
       <use transform="translate(221.36852221649286 0.0)scale(0.9962640099626402)" xlink:href="#Century_Schoolbook_L_Roman-105"/>
       <use transform="translate(252.74983521267905 0.0)scale(0.9962640099626402)" xlink:href="#Century_Schoolbook_L_Roman-118"/>
       <use transform="translate(306.2491791037516 0.0)scale(0.9962640099626402)" xlink:href="#Century_Schoolbook_L_Roman-97"/>
       <use transform="translate(361.6408560670922 0.0)scale(0.9962640099626402)" xlink:href="#Century_Schoolbook_L_Roman-108"/>
       <use transform="translate(420.71733866652403 0.0)scale(0.9962640099626402)" xlink:href="#Century_Schoolbook_L_Roman-82"/>
       <use transform="translate(492.64732351338733 0.0)scale(0.9962640099626402)" xlink:href="#Century_Schoolbook_L_Roman-97"/>
       <use transform="translate(548.0390004767279 0.0)scale(0.9962640099626402)" xlink:href="#Century_Schoolbook_L_Roman-116"/>
       <use transform="translate(586.7927066712718 0.0)scale(0.9962640099626402)" xlink:href="#Century_Schoolbook_L_Roman-101"/>
      </g>
     </g>
    </g>
    <g id="xtick_2">
     <g id="line2d_17">
      <g>
       <use style="stroke:#000000;stroke-width:0.5;" x="406.8" xlink:href="#md731cef8a8" y="388.8"/>
      </g>
     </g>
     <g id="line2d_18">
      <g>
       <use style="stroke:#000000;stroke-width:0.5;" x="406.8" xlink:href="#maab5f7c76e" y="43.2"/>
      </g>
     </g>
     <g id="text_2">
      <!-- Kaplan-Meier -->
      <defs>
       <path d="M 25 32.609375 
L 25 59.71875 
L 25 62.609375 
C 25 66.8125 25.90625 67.3125 34 67.3125 
L 35.90625 67.3125 
L 35.90625 72 
L 3 72 
L 3 67.3125 
L 4.796875 67.3125 
C 12.90625 67.3125 13.796875 66.8125 13.796875 62.609375 
L 13.796875 59.71875 
L 13.796875 12.28125 
L 13.796875 9.375 
C 13.796875 5.1875 12.90625 4.6875 4.796875 4.6875 
L 3 4.6875 
L 3 0 
L 35.90625 0 
L 35.90625 4.6875 
L 34 4.6875 
C 25.90625 4.6875 25 5.1875 25 9.375 
L 25 12.28125 
L 25 24.9375 
L 36.59375 36.59375 
L 54 11.171875 
C 55.59375 8.78125 56 7.984375 56 6.984375 
C 56 5.390625 54.09375 4.6875 49.203125 4.6875 
L 46.09375 4.6875 
L 46.09375 0 
L 80.296875 0 
L 80.296875 4.6875 
L 78.40625 4.6875 
C 72.90625 4.6875 71.5 5.390625 68.59375 9.6875 
L 44.40625 44.46875 
L 59.296875 59.328125 
C 64.09375 64.40625 70.203125 67.3125 76.203125 67.3125 
L 76.203125 72 
L 45.40625 72 
L 45.40625 67.3125 
L 47.90625 67.3125 
C 52.5 67.3125 54.40625 66.40625 54.40625 64.3125 
C 54.40625 62.921875 52.40625 60.015625 49.5 57.140625 
z
" id="Century_Schoolbook_L_Roman-75"/>
       <path d="M 28.703125 72 
L 2.90625 72 
L 2.90625 67.3125 
L 4.796875 67.3125 
C 12.90625 67.3125 13.796875 66.8125 13.796875 62.59375 
L 13.796875 59.703125 
L 13.796875 21.390625 
C 13.796875 7.78125 11.796875 4.890625 2.203125 4.890625 
L 2.203125 0 
L 30.703125 0 
L 30.703125 4.890625 
C 21.203125 4.890625 19.203125 7.78125 19.203125 21.40625 
L 19.203125 65.625 
L 43 0 
L 47 0 
L 69.296875 65.625 
L 69.296875 12.453125 
L 69.296875 9.5625 
C 69.296875 5.296875 68.40625 4.890625 60.296875 4.890625 
L 58.5 4.890625 
L 58.5 0 
L 91.296875 0 
L 91.296875 4.890625 
L 89.5 4.890625 
C 81.40625 4.890625 80.5 5.296875 80.5 9.5625 
L 80.5 12.453125 
L 80.5 59.75 
L 80.5 62.625 
C 80.5 66.8125 81.40625 67.3125 89.5 67.3125 
L 91.296875 67.3125 
L 91.296875 72 
L 66.203125 72 
L 47.90625 18.84375 
z
" id="Century_Schoolbook_L_Roman-77"/>
       <path d="M 20 46 
L 2.703125 46 
L 2.703125 41.21875 
L 6.296875 41.21875 
C 10 41.21875 10.59375 40.515625 10.59375 36.203125 
L 10.59375 12.296875 
L 10.59375 8.296875 
C 10.59375 4.296875 9.5 3.59375 3.09375 3.59375 
L 2.703125 3.59375 
L 2.703125 0 
L 28 0 
L 28 3.59375 
L 27.59375 3.59375 
C 21.09375 3.59375 20 4.296875 20 8.28125 
L 20 12.28125 
L 20 22.65625 
C 20 27.546875 20.703125 32.03125 21.796875 34.328125 
C 23.90625 38.828125 28.40625 41.921875 32.703125 41.921875 
C 35.296875 41.921875 38.296875 40.421875 39.796875 38.421875 
C 41.296875 36.328125 42 33.234375 42 28.4375 
L 42 12.28125 
L 42 8.28125 
C 42 4.296875 40.90625 3.59375 34.40625 3.59375 
L 34 3.59375 
L 34 0 
L 59.296875 0 
L 59.296875 3.59375 
L 58.90625 3.59375 
C 52.5 3.59375 51.40625 4.296875 51.40625 8.28125 
L 51.40625 12.28125 
L 51.40625 27.953125 
C 51.40625 35.125 51.09375 36.921875 49.296875 40.328125 
C 46.796875 45.109375 41.703125 48 35.796875 48 
C 29.40625 48 24.40625 45.046875 20 38.515625 
z
" id="Century_Schoolbook_L_Roman-110"/>
       <path d="M 4.203125 27.28125 
L 4.203125 19 
L 29.09375 19 
L 29.09375 27.28125 
z
" id="Century_Schoolbook_L_Roman-45"/>
       <path d="M 20.09375 46 
L 2.796875 46 
L 2.796875 41.21875 
L 6.40625 41.21875 
C 10.09375 41.21875 10.703125 40.515625 10.703125 36.21875 
L 10.703125 -7.75 
L 10.703125 -11.71875 
C 10.703125 -15.71875 9.59375 -16.40625 3.203125 -16.40625 
L 2.796875 -16.40625 
L 2.796875 -20 
L 28.796875 -20 
L 28.796875 -16.40625 
L 27.703125 -16.40625 
C 21.203125 -16.40625 20.09375 -15.71875 20.09375 -11.734375 
L 20.09375 -7.75 
L 20.09375 6.6875 
C 23.40625 0.90625 27.203125 -1.390625 33.296875 -1.390625 
C 44.90625 -1.390625 53.5 9.265625 53.5 23.5 
C 53.5 37.265625 44.90625 48 33.90625 48 
C 27.703125 48 23.59375 45.4375 20.09375 39.515625 
z
M 32.09375 42.609375 
C 39 42.609375 43 35.75 43 24.09375 
C 43 11.265625 38.90625 4 31.796875 4 
C 24.703125 4 20 11.375 20 22.8125 
C 20 35.140625 24.5 42.609375 32.09375 42.609375 
" id="Century_Schoolbook_L_Roman-112"/>
      </defs>
      <g transform="translate(368.388417519 401.670650466)scale(0.12 -0.12)">
       <use transform="scale(0.9962640099626402)" xlink:href="#Century_Schoolbook_L_Roman-75"/>
       <use transform="translate(77.50837010137765 0.0)scale(0.9962640099626402)" xlink:href="#Century_Schoolbook_L_Roman-97"/>
       <use transform="translate(132.90004706471825 0.0)scale(0.9962640099626402)" xlink:href="#Century_Schoolbook_L_Roman-112"/>
       <use transform="translate(190.08553434873133 0.0)scale(0.9962640099626402)" xlink:href="#Century_Schoolbook_L_Roman-108"/>
       <use transform="translate(221.4668473449175 0.0)scale(0.9962640099626402)" xlink:href="#Century_Schoolbook_L_Roman-97"/>
       <use transform="translate(276.8585243082581 0.0)scale(0.9962640099626402)" xlink:href="#Century_Schoolbook_L_Roman-110"/>
       <use transform="translate(337.73015498521175 0.0)scale(0.9962640099626402)" xlink:href="#Century_Schoolbook_L_Roman-45"/>
       <use transform="translate(370.90538471454704 0.0)scale(0.9962640099626402)" xlink:href="#Century_Schoolbook_L_Roman-77"/>
       <use transform="translate(464.9521539101417 0.0)scale(0.9962640099626402)" xlink:href="#Century_Schoolbook_L_Roman-101"/>
       <use transform="translate(514.7653544082738 0.0)scale(0.9962640099626402)" xlink:href="#Century_Schoolbook_L_Roman-105"/>
       <use transform="translate(546.1466674044599 0.0)scale(0.9962640099626402)" xlink:href="#Century_Schoolbook_L_Roman-101"/>
       <use transform="translate(595.9598679025919 0.0)scale(0.9962640099626402)" xlink:href="#Century_Schoolbook_L_Roman-114"/>
      </g>
     </g>
    </g>
   </g>
   <g id="matplotlib.axis_2">
    <g id="ytick_1">
     <g id="line2d_19">
      <defs>
       <path d="M 0 0 
L 4 0 
" id="md6c65307ff" style="stroke:#000000;stroke-width:0.5;"/>
      </defs>
      <g>
       <use style="stroke:#000000;stroke-width:0.5;" x="72.0" xlink:href="#md6c65307ff" y="388.8"/>
      </g>
     </g>
     <g id="line2d_20">
      <defs>
       <path d="M 0 0 
L -4 0 
" id="m1131c3b3e9" style="stroke:#000000;stroke-width:0.5;"/>
      </defs>
      <g>
       <use style="stroke:#000000;stroke-width:0.5;" x="518.4" xlink:href="#m1131c3b3e9" y="388.8"/>
      </g>
     </g>
     <g id="text_3">
      <!-- $0.00$ -->
      <defs>
       <path d="M 42 31.640625 
C 42 37.75 41.90625 48.125 37.703125 56.109375 
C 34 63.109375 28.09375 65.59375 22.90625 65.59375 
C 18.09375 65.59375 12 63.40625 8.203125 56.203125 
C 4.203125 48.71875 3.796875 39.4375 3.796875 31.640625 
C 3.796875 25.953125 3.90625 17.28125 7 9.671875 
C 11.296875 -0.609375 19 -2 22.90625 -2 
C 27.5 -2 34.5 -0.109375 38.59375 9.375 
C 41.59375 16.28125 42 24.359375 42 31.640625 
M 22.90625 -0.40625 
C 16.5 -0.40625 12.703125 5.078125 11.296875 12.6875 
C 10.203125 18.5625 10.203125 27.15625 10.203125 32.75 
C 10.203125 40.4375 10.203125 46.828125 11.5 52.921875 
C 13.40625 61.390625 19 64 22.90625 64 
C 27 64 32.296875 61.296875 34.203125 53.125 
C 35.5 47.4375 35.59375 40.734375 35.59375 32.75 
C 35.59375 26.25 35.59375 18.265625 34.40625 12.375 
C 32.296875 1.484375 26.40625 -0.40625 22.90625 -0.40625 
" id="CMR17-48"/>
       <path d="M 18.40625 4.796875 
C 18.40625 7.6875 16 9.671875 13.59375 9.671875 
C 10.703125 9.671875 8.703125 7.28125 8.703125 4.890625 
C 8.703125 2 11.09375 0 13.5 0 
C 16.40625 0 18.40625 2.390625 18.40625 4.796875 
" id="CMMI12-58"/>
      </defs>
      <g transform="translate(47.189367995 392.099607672)scale(0.12 -0.12)">
       <use transform="scale(0.9962640099626402)" xlink:href="#CMR17-48"/>
       <use transform="translate(45.69047711706103 0.0)scale(0.9962640099626402)" xlink:href="#CMMI12-58"/>
       <use transform="translate(72.78765420688046 0.0)scale(0.9962640099626402)" xlink:href="#CMR17-48"/>
       <use transform="translate(118.47813132394148 0.0)scale(0.9962640099626402)" xlink:href="#CMR17-48"/>
      </g>
     </g>
    </g>
    <g id="ytick_2">
     <g id="line2d_21">
      <g>
       <use style="stroke:#000000;stroke-width:0.5;" x="72.0" xlink:href="#md6c65307ff" y="319.68"/>
      </g>
     </g>
     <g id="line2d_22">
      <g>
       <use style="stroke:#000000;stroke-width:0.5;" x="518.4" xlink:href="#m1131c3b3e9" y="319.68"/>
      </g>
     </g>
     <g id="text_4">
      <!-- $0.05$ -->
      <defs>
       <path d="M 11.40625 57.6875 
C 12.40625 57.28125 16.5 56 20.703125 56 
C 30 56 35.09375 61.015625 38 63.921875 
C 38 64.734375 38 65.25 37.40625 65.25 
C 37.296875 65.25 37.09375 65.25 36.296875 64.828125 
C 32.796875 63.3125 28.703125 62.078125 23.703125 62.078125 
C 20.703125 62.078125 16.203125 62.5 11.296875 64.734375 
C 10.203125 65.25 10 65.25 9.90625 65.25 
C 9.40625 65.25 9.296875 65.140625 9.296875 63.15625 
L 9.296875 34.28125 
C 9.296875 32.5 9.296875 32 10.296875 32 
C 10.796875 32 11 32.203125 11.5 32.90625 
C 14.703125 37.484375 19.09375 39.40625 24.09375 39.40625 
C 27.59375 39.40625 35.09375 37.21875 35.09375 20.140625 
C 35.09375 16.953125 35.09375 11.171875 32.09375 6.578125 
C 29.59375 2.484375 25.703125 0.390625 21.40625 0.390625 
C 14.796875 0.390625 8.09375 5 6.296875 12.71875 
C 6.703125 12.609375 7.5 12.421875 7.90625 12.421875 
C 9.203125 12.421875 11.703125 13.125 11.703125 16.21875 
C 11.703125 18.90625 9.796875 20 7.90625 20 
C 5.59375 20 4.09375 18.59375 4.09375 15.796875 
C 4.09375 7.09375 11 -2 21.59375 -2 
C 31.90625 -2 41.703125 6.875 41.703125 19.75 
C 41.703125 31.71875 33.90625 41 24.203125 41 
C 19.09375 41 14.796875 39.09375 11.40625 35.453125 
z
" id="CMR17-53"/>
      </defs>
      <g transform="translate(47.189367995 322.979607672)scale(0.12 -0.12)">
       <use transform="scale(0.9962640099626402)" xlink:href="#CMR17-48"/>
       <use transform="translate(45.69047711706103 0.0)scale(0.9962640099626402)" xlink:href="#CMMI12-58"/>
       <use transform="translate(72.78765420688046 0.0)scale(0.9962640099626402)" xlink:href="#CMR17-48"/>
       <use transform="translate(118.47813132394148 0.0)scale(0.9962640099626402)" xlink:href="#CMR17-53"/>
      </g>
     </g>
    </g>
    <g id="ytick_3">
     <g id="line2d_23">
      <g>
       <use style="stroke:#000000;stroke-width:0.5;" x="72.0" xlink:href="#md6c65307ff" y="250.56"/>
      </g>
     </g>
     <g id="line2d_24">
      <g>
       <use style="stroke:#000000;stroke-width:0.5;" x="518.4" xlink:href="#m1131c3b3e9" y="250.56"/>
      </g>
     </g>
     <g id="text_5">
      <!-- $0.10$ -->
      <defs>
       <path d="M 26.59375 63.3125 
C 26.59375 65.40625 26.5 65.5 25.09375 65.5 
C 21.203125 61.1875 15.296875 59.796875 9.703125 59.796875 
C 9.40625 59.796875 8.90625 59.796875 8.796875 59.5 
C 8.703125 59.296875 8.703125 59.09375 8.703125 57 
C 11.796875 57 17 57.59375 21 59.984375 
L 21 7.203125 
C 21 3.6875 20.796875 2.5 12.203125 2.5 
L 9.203125 2.5 
L 9.203125 0 
C 14 0 19 0 23.796875 0 
C 28.59375 0 33.59375 0 38.40625 0 
L 38.40625 2.5 
L 35.40625 2.5 
C 26.796875 2.5 26.59375 3.59375 26.59375 7.15625 
z
" id="CMR17-49"/>
      </defs>
      <g transform="translate(47.189367995 253.859607672)scale(0.12 -0.12)">
       <use transform="scale(0.9962640099626402)" xlink:href="#CMR17-48"/>
       <use transform="translate(45.69047711706103 0.0)scale(0.9962640099626402)" xlink:href="#CMMI12-58"/>
       <use transform="translate(72.78765420688046 0.0)scale(0.9962640099626402)" xlink:href="#CMR17-49"/>
       <use transform="translate(118.47813132394148 0.0)scale(0.9962640099626402)" xlink:href="#CMR17-48"/>
      </g>
     </g>
    </g>
    <g id="ytick_4">
     <g id="line2d_25">
      <g>
       <use style="stroke:#000000;stroke-width:0.5;" x="72.0" xlink:href="#md6c65307ff" y="181.44"/>
      </g>
     </g>
     <g id="line2d_26">
      <g>
       <use style="stroke:#000000;stroke-width:0.5;" x="518.4" xlink:href="#m1131c3b3e9" y="181.44"/>
      </g>
     </g>
     <g id="text_6">
      <!-- $0.15$ -->
      <g transform="translate(47.189367995 184.739607672)scale(0.12 -0.12)">
       <use transform="scale(0.9962640099626402)" xlink:href="#CMR17-48"/>
       <use transform="translate(45.69047711706103 0.0)scale(0.9962640099626402)" xlink:href="#CMMI12-58"/>
       <use transform="translate(72.78765420688046 0.0)scale(0.9962640099626402)" xlink:href="#CMR17-49"/>
       <use transform="translate(118.47813132394148 0.0)scale(0.9962640099626402)" xlink:href="#CMR17-53"/>
      </g>
     </g>
    </g>
    <g id="ytick_5">
     <g id="line2d_27">
      <g>
       <use style="stroke:#000000;stroke-width:0.5;" x="72.0" xlink:href="#md6c65307ff" y="112.32"/>
      </g>
     </g>
     <g id="line2d_28">
      <g>
       <use style="stroke:#000000;stroke-width:0.5;" x="518.4" xlink:href="#m1131c3b3e9" y="112.32"/>
      </g>
     </g>
     <g id="text_7">
      <!-- $0.20$ -->
      <defs>
       <path d="M 41.703125 15.453125 
L 39.90625 15.453125 
C 38.90625 8.375 38.09375 7.171875 37.703125 6.5625 
C 37.203125 5.765625 30 5.765625 28.59375 5.765625 
L 9.40625 5.765625 
C 13 9.671875 20 16.75 28.5 24.953125 
C 34.59375 30.734375 41.703125 37.53125 41.703125 47.421875 
C 41.703125 59.21875 32.296875 66 21.796875 66 
C 10.796875 66 4.09375 56.3125 4.09375 47.34375 
C 4.09375 43.4375 7 42.9375 8.203125 42.9375 
C 9.203125 42.9375 12.203125 43.546875 12.203125 47.03125 
C 12.203125 50.109375 9.59375 51 8.203125 51 
C 7.59375 51 7 50.90625 6.59375 50.703125 
C 8.5 59.21875 14.296875 63.40625 20.40625 63.40625 
C 29.09375 63.40625 34.796875 56.515625 34.796875 47.421875 
C 34.796875 38.734375 29.703125 31.25 24 24.75 
L 4.09375 2.28125 
L 4.09375 0 
L 39.296875 0 
z
" id="CMR17-50"/>
      </defs>
      <g transform="translate(47.189367995 115.619607672)scale(0.12 -0.12)">
       <use transform="scale(0.9962640099626402)" xlink:href="#CMR17-48"/>
       <use transform="translate(45.69047711706103 0.0)scale(0.9962640099626402)" xlink:href="#CMMI12-58"/>
       <use transform="translate(72.78765420688046 0.0)scale(0.9962640099626402)" xlink:href="#CMR17-50"/>
       <use transform="translate(118.47813132394148 0.0)scale(0.9962640099626402)" xlink:href="#CMR17-48"/>
      </g>
     </g>
    </g>
    <g id="ytick_6">
     <g id="line2d_29">
      <g>
       <use style="stroke:#000000;stroke-width:0.5;" x="72.0" xlink:href="#md6c65307ff" y="43.2"/>
      </g>
     </g>
     <g id="line2d_30">
      <g>
       <use style="stroke:#000000;stroke-width:0.5;" x="518.4" xlink:href="#m1131c3b3e9" y="43.2"/>
      </g>
     </g>
     <g id="text_8">
      <!-- $0.25$ -->
      <g transform="translate(47.189367995 46.4996076724)scale(0.12 -0.12)">
       <use transform="scale(0.9962640099626402)" xlink:href="#CMR17-48"/>
       <use transform="translate(45.69047711706103 0.0)scale(0.9962640099626402)" xlink:href="#CMMI12-58"/>
       <use transform="translate(72.78765420688046 0.0)scale(0.9962640099626402)" xlink:href="#CMR17-50"/>
       <use transform="translate(118.47813132394148 0.0)scale(0.9962640099626402)" xlink:href="#CMR17-53"/>
      </g>
     </g>
    </g>
    <g id="text_9">
     <!-- Brier Score -->
     <defs>
      <path d="M 3 72 
L 3 67.3125 
L 4.796875 67.3125 
C 12.90625 67.3125 13.796875 66.8125 13.796875 62.609375 
L 13.796875 59.71875 
L 13.796875 12.28125 
L 13.796875 9.375 
C 13.796875 5.1875 12.90625 4.6875 4.796875 4.6875 
L 3 4.6875 
L 3 0 
L 39.296875 0 
C 56.59375 0 67 7.40625 67 19.59375 
C 67 29.484375 60.59375 35.296875 47 37.6875 
C 51.796875 38.6875 54 39.578125 56.5 41.46875 
C 60.703125 44.546875 63.203125 49.421875 63.203125 54.5 
C 63.203125 60.859375 59.203125 67.125 53.40625 69.609375 
C 49.796875 71.203125 44.796875 72 38.90625 72 
z
M 25 39.6875 
L 25 62.328125 
C 25 66.203125 26.40625 67.3125 31.59375 67.3125 
L 35.59375 67.3125 
C 40.203125 67.3125 44 66.609375 46.09375 65.21875 
C 49.703125 63.03125 51.59375 58.75 51.59375 53.203125 
C 51.59375 43.46875 46.703125 39.6875 33.90625 39.6875 
z
M 25 35 
L 33.796875 35 
C 40.203125 35 44.5 34.390625 47.5 33.09375 
C 52.203125 30.890625 54.703125 26.5 54.703125 19.890625 
C 54.703125 13.59375 52.5 8.890625 48.59375 6.984375 
C 45.5 5.390625 41.296875 4.6875 35 4.6875 
L 30.796875 4.6875 
C 25.703125 4.6875 25 5.484375 25 11 
z
" id="Century_Schoolbook_L_Roman-66"/>
      <path d="M 38.703125 15.109375 
C 35.5 7.96875 32.09375 5.09375 26.90625 5.09375 
C 18.90625 5.09375 13.90625 12.328125 13.90625 23.9375 
C 13.90625 35.953125 18.796875 44 26.203125 44 
C 29.203125 44 31.796875 42.59375 31.796875 41.015625 
C 31.796875 40.71875 31.59375 40.421875 31.203125 39.8125 
C 29.59375 37.9375 29.203125 36.9375 29.203125 35.265625 
C 29.203125 31.984375 31.703125 29.703125 35.203125 29.703125 
C 38.703125 29.703125 41.296875 32.484375 41.296875 36.453125 
C 41.296875 43.109375 34.59375 48.28125 25.703125 48.28125 
C 12.703125 48.28125 3.40625 37.65625 3.40625 22.84375 
C 3.40625 8.734375 11.90625 -1 24.296875 -1 
C 33.203125 -1 38.296875 3.078125 42.59375 13.625 
z
" id="Century_Schoolbook_L_Roman-99"/>
      <path d="M 25.203125 48.28125 
C 13 48.28125 3.40625 37.453125 3.40625 23.546875 
C 3.40625 9.9375 13 -1 25 -1 
C 37 -1 46.59375 9.9375 46.59375 23.640625 
C 46.59375 37.25 37 48.28125 25.203125 48.28125 
M 25.203125 44 
C 32.203125 44 36.09375 36.734375 36.09375 23.640625 
C 36.09375 10.453125 32.203125 3.296875 25 3.296875 
C 17.796875 3.296875 13.90625 10.453125 13.90625 23.546875 
C 13.90625 37.046875 17.703125 44 25.203125 44 
" id="Century_Schoolbook_L_Roman-111"/>
     </defs>
     <g transform="translate(39.9179328738 247.20863595)rotate(-90.0)scale(0.12 -0.12)">
      <use transform="scale(0.9962640099626402)" xlink:href="#Century_Schoolbook_L_Roman-66"/>
      <use transform="translate(71.92998484686333 0.0)scale(0.9962640099626402)" xlink:href="#Century_Schoolbook_L_Roman-114"/>
      <use transform="translate(116.16355354432598 0.0)scale(0.9962640099626402)" xlink:href="#Century_Schoolbook_L_Roman-105"/>
      <use transform="translate(147.54486654051215 0.0)scale(0.9962640099626402)" xlink:href="#Century_Schoolbook_L_Roman-101"/>
      <use transform="translate(197.35806703864418 0.0)scale(0.9962640099626402)" xlink:href="#Century_Schoolbook_L_Roman-114"/>
      <use transform="translate(269.28680533935244 0.0)scale(0.9962640099626402)" xlink:href="#Century_Schoolbook_L_Roman-83"/>
      <use transform="translate(332.0507842903565 0.0)scale(0.9962640099626402)" xlink:href="#Century_Schoolbook_L_Roman-99"/>
      <use transform="translate(376.28435298781915 0.0)scale(0.9962640099626402)" xlink:href="#Century_Schoolbook_L_Roman-111"/>
      <use transform="translate(426.09755348595115 0.0)scale(0.9962640099626402)" xlink:href="#Century_Schoolbook_L_Roman-114"/>
      <use transform="translate(470.3311221834138 0.0)scale(0.9962640099626402)" xlink:href="#Century_Schoolbook_L_Roman-101"/>
     </g>
    </g>
   </g>
   <g id="text_10">
    <!-- Brier Scores Across Categories -->
    <defs>
     <path d="M 63.90625 72 
L 60.09375 72 
L 56.09375 66.015625 
C 49 71.203125 45.09375 72.703125 38.40625 72.703125 
C 28.703125 72.703125 20.703125 68.8125 13.90625 60.78125 
C 7.5 53.234375 4.5 44.890625 4.5 34.65625 
C 4.5 13.296875 18.59375 -2 38.296875 -2 
C 54.296875 -2 64.5 7.34375 66.796875 24.015625 
L 62.09375 24.8125 
C 61.09375 19.546875 59.90625 15.984375 58.09375 13.015625 
C 54 6.171875 47.59375 2.6875 39.5 2.6875 
C 24.703125 2.6875 17.703125 12.90625 17.703125 34.265625 
C 17.703125 45.46875 19.203125 53.015625 22.59375 58.96875 
C 25.703125 64.53125 31.90625 68 38.296875 68 
C 45.296875 68 51.5 64.328125 55.296875 57.96875 
C 57.203125 54.6875 58.703125 50.8125 61 43.171875 
L 65.40625 43.171875 
z
" id="Century_Schoolbook_L_Roman-67"/>
     <path d="M 39 48 
L 35.5 48 
L 32.59375 44.40625 
C 29 47.203125 25.40625 48.390625 20.40625 48.390625 
C 11.59375 48.390625 5.796875 42.625 5.796875 33.953125 
C 5.796875 30.078125 7.09375 26.78125 9.296875 24.8125 
C 11.59375 22.703125 13.90625 21.71875 19.90625 20.3125 
L 25.203125 19.125 
C 33.09375 17.234375 35.90625 15.234375 35.90625 11.265625 
C 35.90625 6.578125 31.796875 3.296875 25.90625 3.296875 
C 17.5 3.296875 11.5 8.765625 9.09375 18.875 
L 5.09375 18.875 
L 5.09375 0 
L 8.59375 0 
L 12.09375 3.90625 
C 16.203125 0.59375 20.796875 -1 25.796875 -1 
C 35.59375 -1 42.09375 5.078125 42.09375 14.34375 
C 42.09375 18.71875 40.703125 22.09375 37.90625 24.390625 
C 35.5 26.484375 33.5 27.28125 27.40625 28.5625 
L 22.40625 29.671875 
C 16.90625 30.859375 16.90625 30.859375 15.09375 31.859375 
C 12.90625 32.859375 11.59375 34.9375 11.59375 37.140625 
C 11.59375 41.109375 15.40625 44 20.90625 44 
C 24.703125 44 27.796875 42.703125 30.59375 40.015625 
C 32.796875 37.8125 33.90625 35.828125 35.5 31.234375 
L 39 31.234375 
z
" id="Century_Schoolbook_L_Roman-115"/>
     <path d="M 37.796875 73.5 
L 33.59375 73.5 
L 10.59375 15.265625 
C 8.59375 10.078125 8.203125 9.375 6.703125 7.78125 
C 5.09375 5.890625 2.296875 4.6875 -0.40625 4.6875 
L -0.796875 4.6875 
L -0.796875 0 
L 25.703125 0 
L 25.703125 4.6875 
L 23.703125 4.6875 
C 18.296875 4.6875 15.59375 6.625 15.59375 10.453125 
C 15.59375 11.671875 15.90625 13.078125 16.5 14.703125 
L 19.796875 23.609375 
L 46.296875 23.609375 
L 51.703125 10.0625 
C 52.296875 8.53125 52.5 7.828125 52.5 7.3125 
C 52.5 5.703125 50 4.6875 46.296875 4.6875 
L 42.09375 4.6875 
L 42.09375 0 
L 73.09375 0 
L 73.09375 4.6875 
L 71.703125 4.6875 
C 66.703125 4.6875 65.59375 5.484375 63.296875 11.078125 
z
M 32.90625 57.203125 
L 44.203125 29 
L 21.796875 29 
z
" id="Century_Schoolbook_L_Roman-65"/>
     <path d="M 19.59375 7.59375 
C 14.09375 7.59375 13.796875 7.703125 12.59375 8.46875 
C 11.90625 8.90625 11.40625 10.109375 11.40625 11.296875 
C 11.40625 14.578125 14.09375 16 20.796875 16 
C 30.296875 16 31.796875 16.203125 35.09375 17.6875 
C 41.09375 20.359375 44.5 25.484375 44.5 31.984375 
C 44.5 35.921875 43.59375 38.390625 40.796875 41.640625 
C 42.5 43.40625 43.40625 44 44.203125 44 
C 44.703125 44 45 43.6875 45.203125 42.625 
C 45.59375 40.265625 47.203125 39 49.703125 39 
C 52.203125 39 54.203125 41.09375 54.203125 43.78125 
C 54.203125 47.1875 51.5 49.578125 47.59375 49.578125 
C 44.40625 49.578125 42.59375 48.5625 38 44.296875 
C 33.796875 47.09375 30.59375 48.078125 25.59375 48.078125 
C 13.703125 48.078125 5.90625 41.625 5.90625 31.8125 
C 5.90625 26.03125 9.09375 21.03125 14.296875 18.6875 
C 7.59375 17.15625 4.796875 14.09375 4.796875 8.46875 
C 4.796875 3.984375 6.796875 1.328125 11.5 -0.296875 
C 5.296875 -2.484375 2.296875 -5.671875 2.296875 -9.75 
C 2.296875 -16.3125 10 -20 23.40625 -20 
C 40.09375 -20 48.5 -14.71875 48.5 -4.25 
C 48.5 0.71875 46.203125 4.6875 42.5 6.1875 
C 39.90625 7.1875 36.703125 7.59375 29.796875 7.59375 
z
M 25.5 44 
C 31.796875 44 35.296875 39.671875 35.296875 32.09375 
C 35.296875 24.421875 31.5 19.78125 25.09375 19.78125 
C 18.90625 19.78125 15 24.421875 15 31.796875 
C 15 39.5625 18.796875 44 25.5 44 
M 24.59375 -1 
C 32.90625 -1 33.5 -1 35 -1.1875 
C 39 -1.59375 41.5 -3.78125 41.5 -6.953125 
C 41.5 -12.625 35 -15.90625 23.796875 -15.90625 
C 15.40625 -15.90625 10.59375 -13.421875 10.59375 -8.953125 
C 10.59375 -5.671875 12.40625 -3.46875 17.203125 -1 
z
" id="Century_Schoolbook_L_Roman-103"/>
    </defs>
    <g transform="translate(193.328941822 38.2)scale(0.144 -0.144)">
     <use transform="scale(0.9962640099626402)" xlink:href="#Century_Schoolbook_L_Roman-66"/>
     <use transform="translate(71.92998484686333 0.0)scale(0.9962640099626402)" xlink:href="#Century_Schoolbook_L_Roman-114"/>
     <use transform="translate(116.16355354432598 0.0)scale(0.9962640099626402)" xlink:href="#Century_Schoolbook_L_Roman-105"/>
     <use transform="translate(147.54486654051215 0.0)scale(0.9962640099626402)" xlink:href="#Century_Schoolbook_L_Roman-101"/>
     <use transform="translate(197.35806703864418 0.0)scale(0.9962640099626402)" xlink:href="#Century_Schoolbook_L_Roman-114"/>
     <use transform="translate(269.28680533935244 0.0)scale(0.9962640099626402)" xlink:href="#Century_Schoolbook_L_Roman-83"/>
     <use transform="translate(332.0507842903565 0.0)scale(0.9962640099626402)" xlink:href="#Century_Schoolbook_L_Roman-99"/>
     <use transform="translate(376.28435298781915 0.0)scale(0.9962640099626402)" xlink:href="#Century_Schoolbook_L_Roman-111"/>
     <use transform="translate(426.09755348595115 0.0)scale(0.9962640099626402)" xlink:href="#Century_Schoolbook_L_Roman-114"/>
     <use transform="translate(470.3311221834138 0.0)scale(0.9962640099626402)" xlink:href="#Century_Schoolbook_L_Roman-101"/>
     <use transform="translate(520.1443226815458 0.0)scale(0.9962640099626402)" xlink:href="#Century_Schoolbook_L_Roman-115"/>
     <use transform="translate(593.9653028438279 0.0)scale(0.9962640099626402)" xlink:href="#Century_Schoolbook_L_Roman-65"/>
     <use transform="translate(665.8952876906912 0.0)scale(0.9962640099626402)" xlink:href="#Century_Schoolbook_L_Roman-99"/>
     <use transform="translate(710.1288563881538 0.0)scale(0.9962640099626402)" xlink:href="#Century_Schoolbook_L_Roman-114"/>
     <use transform="translate(754.3624250856166 0.0)scale(0.9962640099626402)" xlink:href="#Century_Schoolbook_L_Roman-111"/>
     <use transform="translate(804.1756255837486 0.0)scale(0.9962640099626402)" xlink:href="#Century_Schoolbook_L_Roman-115"/>
     <use transform="translate(850.301436142785 0.0)scale(0.9962640099626402)" xlink:href="#Century_Schoolbook_L_Roman-115"/>
     <use transform="translate(924.1224163050671 0.0)scale(0.9962640099626402)" xlink:href="#Century_Schoolbook_L_Roman-67"/>
     <use transform="translate(996.0524011519303 0.0)scale(0.9962640099626402)" xlink:href="#Century_Schoolbook_L_Roman-97"/>
     <use transform="translate(1051.444078115271 0.0)scale(0.9962640099626402)" xlink:href="#Century_Schoolbook_L_Roman-116"/>
     <use transform="translate(1090.1977843098148 0.0)scale(0.9962640099626402)" xlink:href="#Century_Schoolbook_L_Roman-101"/>
     <use transform="translate(1140.010984807947 0.0)scale(0.9962640099626402)" xlink:href="#Century_Schoolbook_L_Roman-103"/>
     <use transform="translate(1193.5103286990195 0.0)scale(0.9962640099626402)" xlink:href="#Century_Schoolbook_L_Roman-111"/>
     <use transform="translate(1243.3235291971514 0.0)scale(0.9962640099626402)" xlink:href="#Century_Schoolbook_L_Roman-114"/>
     <use transform="translate(1287.5570978946141 0.0)scale(0.9962640099626402)" xlink:href="#Century_Schoolbook_L_Roman-105"/>
     <use transform="translate(1318.9384108908002 0.0)scale(0.9962640099626402)" xlink:href="#Century_Schoolbook_L_Roman-101"/>
     <use transform="translate(1368.7516113889324 0.0)scale(0.9962640099626402)" xlink:href="#Century_Schoolbook_L_Roman-115"/>
    </g>
   </g>
  </g>
 </g>
 <defs>
  <clipPath id="p1684449296">
   <rect height="345.6" width="446.4" x="72.0" y="43.2"/>
  </clipPath>
 </defs>
</svg>
