<?xml version="1.0" encoding="utf-8" standalone="no"?>
<!DOCTYPE svg PUBLIC "-//W3C//DTD SVG 1.1//EN"
  "http://www.w3.org/Graphics/SVG/1.1/DTD/svg11.dtd">
<!-- Created with matplotlib (http://matplotlib.org/) -->
<svg height="720pt" version="1.1" viewBox="0 0 1080 720" width="1080pt" xmlns="http://www.w3.org/2000/svg" xmlns:xlink="http://www.w3.org/1999/xlink">
 <defs>
  <style type="text/css">
*{stroke-linecap:butt;stroke-linejoin:round;stroke-miterlimit:100000;}
  </style>
 </defs>
 <g id="figure_1">
  <g id="patch_1">
   <path d="M 0 720 
L 1080 720 
L 1080 0 
L 0 0 
L 0 720 
z
" style="fill:none;"/>
  </g>
  <g id="axes_1">
   <g id="patch_2">
    <path d="M 135 648 
L 972 648 
L 972 72 
L 135 72 
L 135 648 
z
" style="fill:none;"/>
   </g>
   <g id="PathCollection_1">
    <path clip-path="url(#p127805a04c)" d="M 317.037313 512.478318 
C 320.533068 512.478318 323.886117 511.08944 326.357989 508.617568 
C 328.829861 506.145696 330.21874 502.792647 330.21874 499.296892 
C 330.21874 495.801137 328.829861 492.448088 326.357989 489.976216 
C 323.886117 487.504344 320.533068 486.115466 317.037313 486.115466 
C 313.541558 486.115466 310.18851 487.504344 307.716637 489.976216 
C 305.244765 492.448088 303.855887 495.801137 303.855887 499.296892 
C 303.855887 502.792647 305.244765 506.145696 307.716637 508.617568 
C 310.18851 511.08944 313.541558 512.478318 317.037313 512.478318 
z
" style="fill:#6ec064;fill-opacity:0.3;stroke:#000000;stroke-opacity:0.3;"/>
    <path clip-path="url(#p127805a04c)" d="M 356.682742 177.890315 
C 358.857569 177.890315 360.943614 177.026247 362.481449 175.488412 
C 364.019284 173.950577 364.883352 171.864532 364.883352 169.689705 
C 364.883352 167.514878 364.019284 165.428833 362.481449 163.890998 
C 360.943614 162.353163 358.857569 161.489095 356.682742 161.489095 
C 354.507915 161.489095 352.42187 162.353163 350.884035 163.890998 
C 349.3462 165.428833 348.482132 167.514878 348.482132 169.689705 
C 348.482132 171.864532 349.3462 173.950577 350.884035 175.488412 
C 352.42187 177.026247 354.507915 177.890315 356.682742 177.890315 
z
" style="fill:#d83128;fill-opacity:0.3;stroke:#000000;stroke-opacity:0.3;"/>
    <path clip-path="url(#p127805a04c)" d="M 344.427185 470.286781 
C 346.53217 470.286781 348.551223 469.450462 350.039671 467.962013 
C 351.52812 466.473564 352.364439 464.454511 352.364439 462.349527 
C 352.364439 460.244543 351.52812 458.22549 350.039671 456.737041 
C 348.551223 455.248592 346.53217 454.412273 344.427185 454.412273 
C 342.322201 454.412273 340.303148 455.248592 338.814699 456.737041 
C 337.326251 458.22549 336.489931 460.244543 336.489931 462.349527 
C 336.489931 464.454511 337.326251 466.473564 338.814699 467.962013 
C 340.303148 469.450462 342.322201 470.286781 344.427185 470.286781 
z
" style="fill:#93d168;fill-opacity:0.3;stroke:#000000;stroke-opacity:0.3;"/>
    <path clip-path="url(#p127805a04c)" d="M 336.010551 535.709494 
C 337.814127 535.709494 339.544076 534.992926 340.819397 533.717605 
C 342.094718 532.442284 342.811286 530.712335 342.811286 528.908759 
C 342.811286 527.105183 342.094718 525.375234 340.819397 524.099913 
C 339.544076 522.824592 337.814127 522.108024 336.010551 522.108024 
C 334.206975 522.108024 332.477026 522.824592 331.201705 524.099913 
C 329.926384 525.375234 329.209815 527.105183 329.209815 528.908759 
C 329.209815 530.712335 329.926384 532.442284 331.201705 533.717605 
C 332.477026 534.992926 334.206975 535.709494 336.010551 535.709494 
z
" style="fill:#4bb05c;fill-opacity:0.3;stroke:#000000;stroke-opacity:0.3;"/>
    <path clip-path="url(#p127805a04c)" d="M 354.665491 537.71446 
C 355.971465 537.71446 357.224125 537.195591 358.147588 536.272128 
C 359.071051 535.348665 359.58992 534.096005 359.58992 532.790031 
C 359.58992 531.484057 359.071051 530.231397 358.147588 529.307934 
C 357.224125 528.384471 355.971465 527.865602 354.665491 527.865602 
C 353.359517 527.865602 352.106857 528.384471 351.183394 529.307934 
C 350.259931 530.231397 349.741062 531.484057 349.741062 532.790031 
C 349.741062 534.096005 350.259931 535.348665 351.183394 536.272128 
C 352.106857 537.195591 353.359517 537.71446 354.665491 537.71446 
z
" style="fill:#45ad5b;fill-opacity:0.3;stroke:#000000;stroke-opacity:0.3;"/>
    <path clip-path="url(#p127805a04c)" d="M 367.599821 559.162872 
C 368.732769 559.162872 369.819467 558.712747 370.620583 557.911631 
C 371.421698 557.110516 371.871823 556.023818 371.871823 554.89087 
C 371.871823 553.757922 371.421698 552.671224 370.620583 551.870108 
C 369.819467 551.068993 368.732769 550.618868 367.599821 550.618868 
C 366.466873 550.618868 365.380175 551.068993 364.57906 551.870108 
C 363.777944 552.671224 363.327819 553.757922 363.327819 554.89087 
C 363.327819 556.023818 363.777944 557.110516 364.57906 557.911631 
C 365.380175 558.712747 366.466873 559.162872 367.599821 559.162872 
z
" style="fill:#2da155;fill-opacity:0.3;stroke:#000000;stroke-opacity:0.3;"/>
    <path clip-path="url(#p127805a04c)" d="M 324.460001 369.882102 
C 325.34952 369.882102 326.202725 369.528693 326.83171 368.899708 
C 327.460694 368.270724 327.814103 367.417518 327.814103 366.528 
C 327.814103 365.638482 327.460694 364.785276 326.83171 364.156292 
C 326.202725 363.527307 325.34952 363.173898 324.460001 363.173898 
C 323.570483 363.173898 322.717277 363.527307 322.088293 364.156292 
C 321.459309 364.785276 321.105899 365.638482 321.105899 366.528 
C 321.105899 367.417518 321.459309 368.270724 322.088293 368.899708 
C 322.717277 369.528693 323.570483 369.882102 324.460001 369.882102 
z
" style="fill:#ddf191;fill-opacity:0.3;stroke:#000000;stroke-opacity:0.3;"/>
    <path clip-path="url(#p127805a04c)" d="M 346.024763 501.466102 
C 346.914281 501.466102 347.767487 501.112693 348.396471 500.483708 
C 349.025455 499.854724 349.378865 499.001518 349.378865 498.112 
C 349.378865 497.222482 349.025455 496.369276 348.396471 495.740292 
C 347.767487 495.111307 346.914281 494.757898 346.024763 494.757898 
C 345.135244 494.757898 344.282039 495.111307 343.653054 495.740292 
C 343.02407 496.369276 342.670661 497.222482 342.670661 498.112 
C 342.670661 499.001518 343.02407 499.854724 343.653054 500.483708 
C 344.282039 501.112693 345.135244 501.466102 346.024763 501.466102 
z
" style="fill:#69be63;fill-opacity:0.3;stroke:#000000;stroke-opacity:0.3;"/>
    <path clip-path="url(#p127805a04c)" d="M 352.191747 231.130102 
C 353.081265 231.130102 353.934471 230.776693 354.563455 230.147708 
C 355.192439 229.518724 355.545849 228.665518 355.545849 227.776 
C 355.545849 226.886482 355.192439 226.033276 354.563455 225.404292 
C 353.934471 224.775307 353.081265 224.421898 352.191747 224.421898 
C 351.302228 224.421898 350.449023 224.775307 349.820038 225.404292 
C 349.191054 226.033276 348.837645 226.886482 348.837645 227.776 
C 348.837645 228.665518 349.191054 229.518724 349.820038 230.147708 
C 350.449023 230.776693 351.302228 231.130102 352.191747 231.130102 
z
" style="fill:#fdb567;fill-opacity:0.3;stroke:#000000;stroke-opacity:0.3;"/>
    <path clip-path="url(#p127805a04c)" d="M 337.390123 495.16219 
C 338.25965 495.16219 339.09368 494.816724 339.708528 494.201876 
C 340.323376 493.587028 340.668843 492.752997 340.668843 491.883471 
C 340.668843 491.013944 340.323376 490.179914 339.708528 489.565066 
C 339.09368 488.950218 338.25965 488.604752 337.390123 488.604752 
C 336.520597 488.604752 335.686567 488.950218 335.071719 489.565066 
C 334.456871 490.179914 334.111404 491.013944 334.111404 491.883471 
C 334.111404 492.752997 334.456871 493.587028 335.071719 494.201876 
C 335.686567 494.816724 336.520597 495.16219 337.390123 495.16219 
z
" style="fill:#70c164;fill-opacity:0.3;stroke:#000000;stroke-opacity:0.3;"/>
    <path clip-path="url(#p127805a04c)" d="M 347.823191 491.046469 
C 348.682547 491.046469 349.506822 490.705043 350.114479 490.097386 
C 350.722135 489.48973 351.063561 488.665455 351.063561 487.806098 
C 351.063561 486.946742 350.722135 486.122467 350.114479 485.51481 
C 349.506822 484.907154 348.682547 484.565728 347.823191 484.565728 
C 346.963835 484.565728 346.13956 484.907154 345.531903 485.51481 
C 344.924246 486.122467 344.582821 486.946742 344.582821 487.806098 
C 344.582821 488.665455 344.924246 489.48973 345.531903 490.097386 
C 346.13956 490.705043 346.963835 491.046469 347.823191 491.046469 
z
" style="fill:#73c264;fill-opacity:0.3;stroke:#000000;stroke-opacity:0.3;"/>
    <path clip-path="url(#p127805a04c)" d="M 345.636424 343.215611 
C 346.47507 343.215611 347.27948 342.882413 347.872492 342.289401 
C 348.465504 341.696389 348.798702 340.891979 348.798702 340.053333 
C 348.798702 339.214687 348.465504 338.410278 347.872492 337.817265 
C 347.27948 337.224253 346.47507 336.891056 345.636424 336.891056 
C 344.797778 336.891056 343.993368 337.224253 343.400356 337.817265 
C 342.807344 338.410278 342.474146 339.214687 342.474146 340.053333 
C 342.474146 340.891979 342.807344 341.696389 343.400356 342.289401 
C 343.993368 342.882413 344.797778 343.215611 345.636424 343.215611 
z
" style="fill:#f1f9ac;fill-opacity:0.3;stroke:#000000;stroke-opacity:0.3;"/>
    <path clip-path="url(#p127805a04c)" d="M 332.392157 113.287829 
C 333.16535 113.287829 333.90698 112.980636 334.45371 112.433906 
C 335.00044 111.887176 335.307633 111.145546 335.307633 110.372353 
C 335.307633 109.59916 335.00044 108.85753 334.45371 108.3108 
C 333.90698 107.76407 333.16535 107.456877 332.392157 107.456877 
C 331.618964 107.456877 330.877334 107.76407 330.330604 108.3108 
C 329.783874 108.85753 329.476681 109.59916 329.476681 110.372353 
C 329.476681 111.145546 329.783874 111.887176 330.330604 112.433906 
C 330.877334 112.980636 331.618964 113.287829 332.392157 113.287829 
z
" style="fill:#a50026;fill-opacity:0.3;stroke:#000000;stroke-opacity:0.3;"/>
    <path clip-path="url(#p127805a04c)" d="M 344.981162 286.857515 
C 345.7429 286.857515 346.473542 286.554874 347.012172 286.016244 
C 347.550802 285.477614 347.853444 284.746972 347.853444 283.985234 
C 347.853444 283.223496 347.550802 282.492854 347.012172 281.954224 
C 346.473542 281.415594 345.7429 281.112953 344.981162 281.112953 
C 344.219425 281.112953 343.488783 281.415594 342.950153 281.954224 
C 342.411523 282.492854 342.108881 283.223496 342.108881 283.985234 
C 342.108881 284.746972 342.411523 285.477614 342.950153 286.016244 
C 343.488783 286.554874 344.219425 286.857515 344.981162 286.857515 
z
" style="fill:#feec9f;fill-opacity:0.3;stroke:#000000;stroke-opacity:0.3;"/>
    <path clip-path="url(#p127805a04c)" d="M 341.290696 296.869237 
C 342.004777 296.869237 342.689707 296.585529 343.194639 296.080598 
C 343.699571 295.575666 343.983278 294.890735 343.983278 294.176654 
C 343.983278 293.462573 343.699571 292.777643 343.194639 292.272711 
C 342.689707 291.767779 342.004777 291.484072 341.290696 291.484072 
C 340.576615 291.484072 339.891684 291.767779 339.386753 292.272711 
C 338.881821 292.777643 338.598113 293.462573 338.598113 294.176654 
C 338.598113 294.890735 338.881821 295.575666 339.386753 296.080598 
C 339.891684 296.585529 340.576615 296.869237 341.290696 296.869237 
z
" style="fill:#fff5ae;fill-opacity:0.3;stroke:#000000;stroke-opacity:0.3;"/>
    <path clip-path="url(#p127805a04c)" d="M 343.239782 344.501103 
C 343.941444 344.501103 344.614462 344.22233 345.110611 343.726181 
C 345.606761 343.230031 345.885534 342.557014 345.885534 341.855352 
C 345.885534 341.153691 345.606761 340.480673 345.110611 339.984523 
C 344.614462 339.488374 343.941444 339.209601 343.239782 339.209601 
C 342.538121 339.209601 341.865103 339.488374 341.368954 339.984523 
C 340.872804 340.480673 340.594031 341.153691 340.594031 341.855352 
C 340.594031 342.557014 340.872804 343.230031 341.368954 343.726181 
C 341.865103 344.22233 342.538121 344.501103 343.239782 344.501103 
z
" style="fill:#e9f6a1;fill-opacity:0.3;stroke:#000000;stroke-opacity:0.3;"/>
    <path clip-path="url(#p127805a04c)" d="M 326.723272 327.755559 
C 327.39941 327.755559 328.047946 327.486926 328.526048 327.008825 
C 329.004149 326.530723 329.272782 325.882187 329.272782 325.206049 
C 329.272782 324.529911 329.004149 323.881375 328.526048 323.403274 
C 328.047946 322.925172 327.39941 322.656539 326.723272 322.656539 
C 326.047134 322.656539 325.398598 322.925172 324.920496 323.403274 
C 324.442395 323.881375 324.173762 324.529911 324.173762 325.206049 
C 324.173762 325.882187 324.442395 326.530723 324.920496 327.008825 
C 325.398598 327.486926 326.047134 327.755559 326.723272 327.755559 
z
" style="fill:#f5fbb2;fill-opacity:0.3;stroke:#000000;stroke-opacity:0.3;"/>
    <path clip-path="url(#p127805a04c)" d="M 333.398912 199.963796 
C 334.020868 199.963796 334.617434 199.71669 335.057224 199.2769 
C 335.497014 198.837111 335.744119 198.240544 335.744119 197.618588 
C 335.744119 196.996631 335.497014 196.400065 335.057224 195.960275 
C 334.617434 195.520486 334.020868 195.27338 333.398912 195.27338 
C 332.776955 195.27338 332.180389 195.520486 331.740599 195.960275 
C 331.30081 196.400065 331.053704 196.996631 331.053704 197.618588 
C 331.053704 198.240544 331.30081 198.837111 331.740599 199.2769 
C 332.180389 199.71669 332.776955 199.963796 333.398912 199.963796 
z
" style="fill:#fdad60;fill-opacity:0.3;stroke:#000000;stroke-opacity:0.3;"/>
   </g>
   <g id="PathCollection_2">
    <path clip-path="url(#p127805a04c)" d="M 758.343173 530.416461 
C 761.838928 530.416461 765.191977 529.027583 767.663849 526.555711 
C 770.135721 524.083838 771.524599 520.73079 771.524599 517.235035 
C 771.524599 513.73928 770.135721 510.386231 767.663849 507.914359 
C 765.191977 505.442487 761.838928 504.053608 758.343173 504.053608 
C 754.847418 504.053608 751.494369 505.442487 749.022497 507.914359 
C 746.550625 510.386231 745.161747 513.73928 745.161747 517.235035 
C 745.161747 520.73079 746.550625 524.083838 749.022497 526.555711 
C 751.494369 529.027583 754.847418 530.416461 758.343173 530.416461 
z
" style="fill:#6ec064;fill-opacity:0.3;stroke:#000000;stroke-opacity:0.3;"/>
    <path clip-path="url(#p127805a04c)" d="M 757.676658 256.745085 
C 759.851485 256.745085 761.93753 255.881017 763.475365 254.343182 
C 765.0132 252.805347 765.877268 250.719303 765.877268 248.544475 
C 765.877268 246.369648 765.0132 244.283604 763.475365 242.745769 
C 761.93753 241.207934 759.851485 240.343866 757.676658 240.343866 
C 755.501831 240.343866 753.415786 241.207934 751.877951 242.745769 
C 750.340116 244.283604 749.476048 246.369648 749.476048 248.544475 
C 749.476048 250.719303 750.340116 252.805347 751.877951 254.343182 
C 753.415786 255.881017 755.501831 256.745085 757.676658 256.745085 
z
" style="fill:#d83128;fill-opacity:0.3;stroke:#000000;stroke-opacity:0.3;"/>
    <path clip-path="url(#p127805a04c)" d="M 750.505237 477.551465 
C 752.610222 477.551465 754.629275 476.715146 756.117723 475.226697 
C 757.606172 473.738248 758.442491 471.719195 758.442491 469.614211 
C 758.442491 467.509226 757.606172 465.490173 756.117723 464.001725 
C 754.629275 462.513276 752.610222 461.676957 750.505237 461.676957 
C 748.400253 461.676957 746.3812 462.513276 744.892751 464.001725 
C 743.404303 465.490173 742.567983 467.509226 742.567983 469.614211 
C 742.567983 471.719195 743.404303 473.738248 744.892751 475.226697 
C 746.3812 476.715146 748.400253 477.551465 750.505237 477.551465 
z
" style="fill:#93d168;fill-opacity:0.3;stroke:#000000;stroke-opacity:0.3;"/>
    <path clip-path="url(#p127805a04c)" d="M 754.643176 540.086167 
C 756.446753 540.086167 758.176702 539.369598 759.452022 538.094278 
C 760.727343 536.818957 761.443912 535.089008 761.443912 533.285432 
C 761.443912 531.481855 760.727343 529.751906 759.452022 528.476586 
C 758.176702 527.201265 756.446753 526.484696 754.643176 526.484696 
C 752.8396 526.484696 751.109651 527.201265 749.83433 528.476586 
C 748.55901 529.751906 747.842441 531.481855 747.842441 533.285432 
C 747.842441 535.089008 748.55901 536.818957 749.83433 538.094278 
C 751.109651 539.369598 752.8396 540.086167 754.643176 540.086167 
z
" style="fill:#4bb05c;fill-opacity:0.3;stroke:#000000;stroke-opacity:0.3;"/>
    <path clip-path="url(#p127805a04c)" d="M 745.309848 552.782863 
C 746.615822 552.782863 747.868482 552.263994 748.791945 551.340531 
C 749.715408 550.417068 750.234277 549.164408 750.234277 547.858434 
C 750.234277 546.55246 749.715408 545.2998 748.791945 544.376337 
C 747.868482 543.452874 746.615822 542.934005 745.309848 542.934005 
C 744.003874 542.934005 742.751214 543.452874 741.827751 544.376337 
C 740.904288 545.2998 740.385419 546.55246 740.385419 547.858434 
C 740.385419 549.164408 740.904288 550.417068 741.827751 551.340531 
C 742.751214 552.263994 744.003874 552.782863 745.309848 552.782863 
z
" style="fill:#45ad5b;fill-opacity:0.3;stroke:#000000;stroke-opacity:0.3;"/>
    <path clip-path="url(#p127805a04c)" d="M 742.268992 560.840576 
C 743.40194 560.840576 744.488638 560.390451 745.289754 559.589336 
C 746.090869 558.788221 746.540994 557.701523 746.540994 556.568575 
C 746.540994 555.435626 746.090869 554.348928 745.289754 553.547813 
C 744.488638 552.746698 743.40194 552.296573 742.268992 552.296573 
C 741.136044 552.296573 740.049346 552.746698 739.248231 553.547813 
C 738.447115 554.348928 737.99699 555.435626 737.99699 556.568575 
C 737.99699 557.701523 738.447115 558.788221 739.248231 559.589336 
C 740.049346 560.390451 741.136044 560.840576 742.268992 560.840576 
z
" style="fill:#2da155;fill-opacity:0.3;stroke:#000000;stroke-opacity:0.3;"/>
    <path clip-path="url(#p127805a04c)" d="M 763.960917 435.772948 
C 764.850435 435.772948 765.703641 435.419539 766.332625 434.790554 
C 766.961609 434.16157 767.315019 433.308364 767.315019 432.418846 
C 767.315019 431.529328 766.961609 430.676122 766.332625 430.047138 
C 765.703641 429.418153 764.850435 429.064744 763.960917 429.064744 
C 763.071399 429.064744 762.218193 429.418153 761.589209 430.047138 
C 760.960224 430.676122 760.606815 431.529328 760.606815 432.418846 
C 760.606815 433.308364 760.960224 434.16157 761.589209 434.790554 
C 762.218193 435.419539 763.071399 435.772948 763.960917 435.772948 
z
" style="fill:#ddf191;fill-opacity:0.3;stroke:#000000;stroke-opacity:0.3;"/>
    <path clip-path="url(#p127805a04c)" d="M 753.03733 505.4604 
C 753.926848 505.4604 754.780053 505.106991 755.409038 504.478006 
C 756.038022 503.849022 756.391431 502.995816 756.391431 502.106298 
C 756.391431 501.21678 756.038022 500.363574 755.409038 499.73459 
C 754.780053 499.105606 753.926848 498.752196 753.03733 498.752196 
C 752.147811 498.752196 751.294606 499.105606 750.665621 499.73459 
C 750.036637 500.363574 749.683228 501.21678 749.683228 502.106298 
C 749.683228 502.995816 750.036637 503.849022 750.665621 504.478006 
C 751.294606 505.106991 752.147811 505.4604 753.03733 505.4604 
z
" style="fill:#69be63;fill-opacity:0.3;stroke:#000000;stroke-opacity:0.3;"/>
    <path clip-path="url(#p127805a04c)" d="M 753.04226 392.798928 
C 753.931778 392.798928 754.784984 392.445519 755.413968 391.816534 
C 756.042953 391.18755 756.396362 390.334344 756.396362 389.444826 
C 756.396362 388.555308 756.042953 387.702102 755.413968 387.073118 
C 754.784984 386.444134 753.931778 386.090724 753.04226 386.090724 
C 752.152742 386.090724 751.299536 386.444134 750.670552 387.073118 
C 750.041567 387.702102 749.688158 388.555308 749.688158 389.444826 
C 749.688158 390.334344 750.041567 391.18755 750.670552 391.816534 
C 751.299536 392.445519 752.152742 392.798928 753.04226 392.798928 
z
" style="fill:#fdb567;fill-opacity:0.3;stroke:#000000;stroke-opacity:0.3;"/>
    <path clip-path="url(#p127805a04c)" d="M 762.088836 621.511277 
C 762.958362 621.511277 763.792392 621.165811 764.40724 620.550963 
C 765.022088 619.936115 765.367555 619.102085 765.367555 618.232558 
C 765.367555 617.363032 765.022088 616.529002 764.40724 615.914154 
C 763.792392 615.299305 762.958362 614.953839 762.088836 614.953839 
C 761.219309 614.953839 760.385279 615.299305 759.770431 615.914154 
C 759.155583 616.529002 758.810116 617.363032 758.810116 618.232558 
C 758.810116 619.102085 759.155583 619.936115 759.770431 620.550963 
C 760.385279 621.165811 761.219309 621.511277 762.088836 621.511277 
z
" style="fill:#70c164;fill-opacity:0.3;stroke:#000000;stroke-opacity:0.3;"/>
    <path clip-path="url(#p127805a04c)" d="M 772.056936 532.798313 
C 772.916292 532.798313 773.740567 532.456887 774.348224 531.849231 
C 774.95588 531.241574 775.297306 530.417299 775.297306 529.557943 
C 775.297306 528.698587 774.95588 527.874312 774.348224 527.266655 
C 773.740567 526.658998 772.916292 526.317573 772.056936 526.317573 
C 771.19758 526.317573 770.373305 526.658998 769.765648 527.266655 
C 769.157991 527.874312 768.816565 528.698587 768.816565 529.557943 
C 768.816565 530.417299 769.157991 531.241574 769.765648 531.849231 
C 770.373305 532.456887 771.19758 532.798313 772.056936 532.798313 
z
" style="fill:#73c264;fill-opacity:0.3;stroke:#000000;stroke-opacity:0.3;"/>
    <path clip-path="url(#p127805a04c)" d="M 775.601753 345.222716 
C 776.440399 345.222716 777.244809 344.889519 777.837821 344.296506 
C 778.430833 343.703494 778.764031 342.899084 778.764031 342.060439 
C 778.764031 341.221793 778.430833 340.417383 777.837821 339.824371 
C 777.244809 339.231358 776.440399 338.898161 775.601753 338.898161 
C 774.763107 338.898161 773.958697 339.231358 773.365685 339.824371 
C 772.772673 340.417383 772.439475 341.221793 772.439475 342.060439 
C 772.439475 342.899084 772.772673 343.703494 773.365685 344.296506 
C 773.958697 344.889519 774.763107 345.222716 775.601753 345.222716 
z
" style="fill:#f1f9ac;fill-opacity:0.3;stroke:#000000;stroke-opacity:0.3;"/>
    <path clip-path="url(#p127805a04c)" d="M 780.081497 222.510308 
C 780.85469 222.510308 781.59632 222.203115 782.14305 221.656385 
C 782.68978 221.109654 782.996973 220.368025 782.996973 219.594832 
C 782.996973 218.821639 782.68978 218.080009 782.14305 217.533279 
C 781.59632 216.986549 780.85469 216.679356 780.081497 216.679356 
C 779.308304 216.679356 778.566674 216.986549 778.019944 217.533279 
C 777.473214 218.080009 777.166021 218.821639 777.166021 219.594832 
C 777.166021 220.368025 777.473214 221.109654 778.019944 221.656385 
C 778.566674 222.203115 779.308304 222.510308 780.081497 222.510308 
z
" style="fill:#a50026;fill-opacity:0.3;stroke:#000000;stroke-opacity:0.3;"/>
    <path clip-path="url(#p127805a04c)" d="M 766.024864 393.09917 
C 766.786602 393.09917 767.517243 392.796529 768.055873 392.257899 
C 768.594503 391.719269 768.897145 390.988627 768.897145 390.226889 
C 768.897145 389.465151 768.594503 388.734509 768.055873 388.195879 
C 767.517243 387.657249 766.786602 387.354608 766.024864 387.354608 
C 765.263126 387.354608 764.532484 387.657249 763.993854 388.195879 
C 763.455224 388.734509 763.152583 389.465151 763.152583 390.226889 
C 763.152583 390.988627 763.455224 391.719269 763.993854 392.257899 
C 764.532484 392.796529 765.263126 393.09917 766.024864 393.09917 
z
" style="fill:#feec9f;fill-opacity:0.3;stroke:#000000;stroke-opacity:0.3;"/>
    <path clip-path="url(#p127805a04c)" d="M 762.049166 326.4612 
C 762.763247 326.4612 763.448177 326.177493 763.953109 325.672561 
C 764.45804 325.16763 764.741748 324.482699 764.741748 323.768618 
C 764.741748 323.054537 764.45804 322.369606 763.953109 321.864675 
C 763.448177 321.359743 762.763247 321.076036 762.049166 321.076036 
C 761.335084 321.076036 760.650154 321.359743 760.145222 321.864675 
C 759.640291 322.369606 759.356583 323.054537 759.356583 323.768618 
C 759.356583 324.482699 759.640291 325.16763 760.145222 325.672561 
C 760.650154 326.177493 761.335084 326.4612 762.049166 326.4612 
z
" style="fill:#fff5ae;fill-opacity:0.3;stroke:#000000;stroke-opacity:0.3;"/>
    <path clip-path="url(#p127805a04c)" d="M 753.277382 384.189665 
C 753.979043 384.189665 754.652061 383.910892 755.14821 383.414743 
C 755.64436 382.918593 755.923133 382.245575 755.923133 381.543914 
C 755.923133 380.842253 755.64436 380.169235 755.14821 379.673085 
C 754.652061 379.176936 753.979043 378.898163 753.277382 378.898163 
C 752.57572 378.898163 751.902703 379.176936 751.406553 379.673085 
C 750.910403 380.169235 750.63163 380.842253 750.63163 381.543914 
C 750.63163 382.245575 750.910403 382.918593 751.406553 383.414743 
C 751.902703 383.910892 752.57572 384.189665 753.277382 384.189665 
z
" style="fill:#e9f6a1;fill-opacity:0.3;stroke:#000000;stroke-opacity:0.3;"/>
    <path clip-path="url(#p127805a04c)" d="M 780.424803 441.690006 
C 781.100941 441.690006 781.749477 441.421373 782.227579 440.943272 
C 782.70568 440.46517 782.974313 439.816634 782.974313 439.140496 
C 782.974313 438.464358 782.70568 437.815822 782.227579 437.33772 
C 781.749477 436.859619 781.100941 436.590986 780.424803 436.590986 
C 779.748665 436.590986 779.100129 436.859619 778.622027 437.33772 
C 778.143926 437.815822 777.875293 438.464358 777.875293 439.140496 
C 777.875293 439.816634 778.143926 440.46517 778.622027 440.943272 
C 779.100129 441.421373 779.748665 441.690006 780.424803 441.690006 
z
" style="fill:#f5fbb2;fill-opacity:0.3;stroke:#000000;stroke-opacity:0.3;"/>
    <path clip-path="url(#p127805a04c)" d="M 748.437002 238.854194 
C 749.058959 238.854194 749.655525 238.607088 750.095315 238.167299 
C 750.535104 237.727509 750.78221 237.130943 750.78221 236.508986 
C 750.78221 235.88703 750.535104 235.290464 750.095315 234.850674 
C 749.655525 234.410884 749.058959 234.163778 748.437002 234.163778 
C 747.815046 234.163778 747.21848 234.410884 746.77869 234.850674 
C 746.3389 235.290464 746.091794 235.88703 746.091794 236.508986 
C 746.091794 237.130943 746.3389 237.727509 746.77869 238.167299 
C 747.21848 238.607088 747.815046 238.854194 748.437002 238.854194 
z
" style="fill:#fdad60;fill-opacity:0.3;stroke:#000000;stroke-opacity:0.3;"/>
   </g>
   <g id="line2d_1">
    <path clip-path="url(#p127805a04c)" d="M 312.8625 496.554868 
L 375.6375 496.554868 
L 375.6375 286.533089 
L 312.8625 286.533089 
L 312.8625 496.554868 
" style="fill:none;stroke:#0000ff;stroke-linecap:square;"/>
   </g>
   <g id="line2d_2">
    <path clip-path="url(#p127805a04c)" d="M 344.25 496.554868 
L 344.25 554.89087 
" style="fill:none;stroke:#0000ff;stroke-dasharray:6.000000,6.000000;stroke-dashoffset:0.0;"/>
   </g>
   <g id="line2d_3">
    <path clip-path="url(#p127805a04c)" d="M 344.25 286.533089 
L 344.25 110.372353 
" style="fill:none;stroke:#0000ff;stroke-dasharray:6.000000,6.000000;stroke-dashoffset:0.0;"/>
   </g>
   <g id="line2d_4">
    <path clip-path="url(#p127805a04c)" d="M 328.55625 554.89087 
L 359.94375 554.89087 
" style="fill:none;stroke:#000000;stroke-linecap:square;"/>
   </g>
   <g id="line2d_5">
    <path clip-path="url(#p127805a04c)" d="M 328.55625 110.372353 
L 359.94375 110.372353 
" style="fill:none;stroke:#000000;stroke-linecap:square;"/>
   </g>
   <g id="line2d_6">
    <path clip-path="url(#p127805a04c)" d="M 312.8625 354.191676 
L 375.6375 354.191676 
" style="fill:none;stroke:#ff0000;stroke-linecap:square;"/>
   </g>
   <g id="line2d_7"/>
   <g id="line2d_8">
    <path clip-path="url(#p127805a04c)" d="M 731.3625 526.477216 
L 794.1375 526.477216 
L 794.1375 351.931307 
L 731.3625 351.931307 
L 731.3625 526.477216 
" style="fill:none;stroke:#0000ff;stroke-linecap:square;"/>
   </g>
   <g id="line2d_9">
    <path clip-path="url(#p127805a04c)" d="M 762.75 526.477216 
L 762.75 618.232558 
" style="fill:none;stroke:#0000ff;stroke-dasharray:6.000000,6.000000;stroke-dashoffset:0.0;"/>
   </g>
   <g id="line2d_10">
    <path clip-path="url(#p127805a04c)" d="M 762.75 351.931307 
L 762.75 219.594832 
" style="fill:none;stroke:#0000ff;stroke-dasharray:6.000000,6.000000;stroke-dashoffset:0.0;"/>
   </g>
   <g id="line2d_11">
    <path clip-path="url(#p127805a04c)" d="M 747.05625 618.232558 
L 778.44375 618.232558 
" style="fill:none;stroke:#000000;stroke-linecap:square;"/>
   </g>
   <g id="line2d_12">
    <path clip-path="url(#p127805a04c)" d="M 747.05625 219.594832 
L 778.44375 219.594832 
" style="fill:none;stroke:#000000;stroke-linecap:square;"/>
   </g>
   <g id="line2d_13">
    <path clip-path="url(#p127805a04c)" d="M 731.3625 435.779671 
L 794.1375 435.779671 
" style="fill:none;stroke:#ff0000;stroke-linecap:square;"/>
   </g>
   <g id="line2d_14"/>
   <g id="patch_3">
    <path d="M 135 72 
L 972 72 
" style="fill:none;stroke:#000000;stroke-linecap:square;stroke-linejoin:miter;"/>
   </g>
   <g id="patch_4">
    <path d="M 135 648 
L 135 72 
" style="fill:none;stroke:#000000;stroke-linecap:square;stroke-linejoin:miter;"/>
   </g>
   <g id="patch_5">
    <path d="M 972 648 
L 972 72 
" style="fill:none;stroke:#000000;stroke-linecap:square;stroke-linejoin:miter;"/>
   </g>
   <g id="patch_6">
    <path d="M 135 648 
L 972 648 
" style="fill:none;stroke:#000000;stroke-linecap:square;stroke-linejoin:miter;"/>
   </g>
   <g id="matplotlib.axis_1">
    <g id="xtick_1">
     <g id="line2d_15">
      <defs>
       <path d="M 0 0 
L 0 -4 
" id="mc49476e84e" style="stroke:#000000;stroke-width:0.5;"/>
      </defs>
      <g>
       <use style="stroke:#000000;stroke-width:0.5;" x="344.25" xlink:href="#mc49476e84e" y="648.0"/>
      </g>
     </g>
     <g id="line2d_16">
      <defs>
       <path d="M 0 0 
L 0 4 
" id="m0de440f513" style="stroke:#000000;stroke-width:0.5;"/>
      </defs>
      <g>
       <use style="stroke:#000000;stroke-width:0.5;" x="344.25" xlink:href="#m0de440f513" y="72.0"/>
      </g>
     </g>
     <g id="text_1">
      <!-- Survival Rate -->
      <defs>
       <path d="M 41.203125 0 
L 59.40625 0 
L 59.40625 4.703125 
L 56.90625 4.703125 
C 51.40625 4.703125 50.59375 5.59375 50.59375 11.953125 
L 50.59375 46.78125 
L 31.796875 46.78125 
L 31.796875 42 
L 36.90625 42 
C 40.59375 42 41.203125 41.296875 41.203125 36.953125 
L 41.203125 24.5625 
C 41.203125 18.8125 40.59375 15.484375 39.09375 12.15625 
C 37 7.71875 33 5.09375 28.09375 5.09375 
C 25 5.09375 22.40625 6.1875 21.09375 8.171875 
C 19.796875 10.046875 19.59375 11.046875 19.59375 16.5 
L 19.59375 46.78125 
L 2.09375 46.78125 
L 2.09375 42 
L 5.90625 42 
C 9.59375 42 10.203125 41.296875 10.203125 36.953125 
L 10.203125 15.21875 
C 10.203125 10.078125 10.59375 7.765625 12.09375 5.453125 
C 14.796875 1.3125 19.59375 -1 25.59375 -1 
C 32.203125 -1 36.796875 1.71875 41.203125 8.125 
z
" id="Century_Schoolbook_L_Roman-117"/>
       <path d="M 20.40625 73 
L 1.90625 73 
L 1.90625 68.21875 
L 6.796875 68.21875 
C 10.40625 68.21875 11 67.515625 11 63.21875 
L 11 12.28125 
L 11 8.28125 
C 11 4.296875 9.90625 3.59375 3.5 3.59375 
L 2.796875 3.59375 
L 2.796875 0 
L 28.703125 0 
L 28.703125 3.59375 
L 28 3.59375 
C 21.5 3.59375 20.40625 4.296875 20.40625 8.25 
L 20.40625 12.21875 
z
" id="Century_Schoolbook_L_Roman-108"/>
       <path d="M 19.40625 47 
L 19.40625 67 
L 15.296875 67 
C 14.296875 53.875 9.90625 47.1875 1.796875 46.59375 
L 1.796875 42.703125 
L 10 42.703125 
L 10 17.265625 
C 10 10.28125 10.203125 7.78125 11.203125 5.484375 
C 12.796875 1.296875 16.796875 -1 22.59375 -1 
C 26.5 -1 29.90625 0.203125 32.203125 2.390625 
C 35.5 5.59375 37.40625 10.875 37.40625 16.375 
C 37.40625 16.96875 37.40625 17.671875 37.296875 18.671875 
L 33.09375 18.671875 
C 32.796875 9.6875 30.203125 5.09375 25.296875 5.09375 
C 23 5.09375 21 6.28125 20.296875 7.984375 
C 19.703125 9.375 19.40625 11.875 19.40625 15.46875 
L 19.40625 42.703125 
L 34.09375 42.703125 
L 34.09375 47 
z
" id="Century_Schoolbook_L_Roman-116"/>
       <path d="M 19.796875 46 
L 2.09375 46 
L 2.09375 41.21875 
L 6.203125 41.21875 
C 9.90625 41.21875 10.5 40.515625 10.5 36.203125 
L 10.5 12.296875 
L 10.5 8.296875 
C 10.5 4.296875 9.40625 3.59375 2.90625 3.59375 
L 2.5 3.59375 
L 2.5 0 
L 29.203125 0 
L 29.203125 3.59375 
L 27.296875 3.59375 
C 20.90625 3.59375 19.796875 4.296875 19.796875 8.296875 
L 19.796875 12.296875 
L 19.796875 13.296875 
C 19.796875 20.8125 21.203125 28.40625 23.703125 34.109375 
C 26.09375 39.703125 29.5 42.8125 33.703125 43.3125 
C 32.296875 41.703125 31.90625 40.6875 31.90625 38.765625 
C 31.90625 35.546875 34.203125 33.234375 37.40625 33.234375 
C 41 33.234375 43.5 35.9375 43.5 40.015625 
C 43.5 44.8125 40.09375 48 34.796875 48 
C 28.5 48 23 42.921875 19.796875 34.140625 
z
" id="Century_Schoolbook_L_Roman-114"/>
       <path d="M 45.203125 32.578125 
C 45.203125 38.796875 44.09375 41.96875 41.203125 44.34375 
C 37.90625 46.90625 33 48.28125 26.59375 48.28125 
C 15.40625 48.28125 7.09375 43.046875 7.09375 35.921875 
C 7.09375 32.15625 9.40625 29.78125 12.90625 29.78125 
C 16 29.78125 18.296875 31.859375 18.296875 34.8125 
C 18.296875 36.109375 17.796875 37.484375 16.796875 38.875 
C 16.203125 39.546875 16.09375 39.84375 16.09375 40.15625 
C 16.09375 42.21875 20.203125 44 25 44 
C 28.09375 44 31.59375 43.015625 33.203125 41.53125 
C 35.09375 39.953125 35.796875 37.578125 35.796875 33.125 
L 35.796875 29.28125 
C 25.296875 27.484375 22.09375 26.6875 17.203125 24.8125 
C 8.59375 21.609375 4.40625 16.9375 4.40625 10.65625 
C 4.40625 3.578125 10.09375 -1 18.90625 -1 
C 25.796875 -1 32 1.859375 36.296875 7.0625 
C 37.90625 1.984375 40.40625 0 45.09375 0 
C 49.59375 0 54.296875 2.90625 54.296875 5.78125 
C 54.296875 6.46875 53.796875 6.96875 53.296875 6.96875 
C 52.90625 6.96875 52.5 6.875 51.796875 6.578125 
C 50.203125 6 49.796875 5.890625 49 5.890625 
C 46.203125 5.890625 45.203125 7.78125 45.203125 12.71875 
z
M 35.796875 20.46875 
C 35.796875 14.46875 35.5 13.078125 33.796875 10.484375 
C 31.296875 6.78125 26.703125 4.296875 22.40625 4.296875 
C 17.90625 4.296875 14.5 7.59375 14.5 12.078125 
C 14.5 16.265625 16.59375 19.265625 21 21.359375 
C 24.09375 22.75 28 23.75 35.796875 25.046875 
z
" id="Century_Schoolbook_L_Roman-97"/>
       <path d="M 24.59375 35 
L 30.40625 35 
C 34.296875 35 38.296875 33.796875 40.5 31.984375 
C 43.40625 29.6875 44.90625 26.078125 45.59375 19.46875 
L 46.09375 14.34375 
C 47.296875 3.015625 51 -1.59375 58.90625 -1.59375 
C 67.09375 -1.59375 71 3.921875 71.296875 15.921875 
L 67.09375 15.921875 
C 66.703125 9 65.5 6 62.796875 6 
C 60.5 6 59.5 7.703125 57.796875 14.625 
L 56.203125 20.9375 
C 54 30.171875 50.09375 34.375 42.296875 36.390625 
C 56.703125 38.390625 63.59375 44.140625 63.59375 54.1875 
C 63.59375 65.53125 54 72 37.203125 72 
L 2.59375 72 
L 2.59375 67.3125 
L 4.40625 67.3125 
C 12.5 67.3125 13.40625 66.8125 13.40625 62.609375 
L 13.40625 59.71875 
L 13.40625 12.171875 
L 13.40625 9.375 
C 13.40625 5.1875 12.5 4.6875 4.40625 4.6875 
L 2.59375 4.6875 
L 2.59375 0 
L 35.40625 0 
L 35.40625 4.6875 
L 33.59375 4.6875 
C 25.5 4.6875 24.59375 5.1875 24.59375 9.390625 
L 24.59375 12.1875 
z
M 24.59375 39.6875 
L 24.59375 61.546875 
C 24.59375 65.53125 24.703125 65.8125 25.703125 66.609375 
C 26.5 67.203125 27.203125 67.3125 31.5 67.3125 
L 36.90625 67.3125 
C 46.796875 67.3125 51.296875 63.125 51.296875 54.09375 
C 51.296875 49.015625 50 45.140625 47.40625 43.0625 
C 44.90625 40.984375 40.40625 39.6875 35.59375 39.6875 
z
" id="Century_Schoolbook_L_Roman-82"/>
       <path d="M 54.59375 72 
L 50.90625 72 
L 46.90625 66.09375 
C 42.203125 70.59375 35.796875 73 28.703125 73 
C 15.59375 73 6.796875 64.609375 6.796875 52.15625 
C 6.796875 41.28125 12.203125 35.890625 26.90625 32.109375 
L 36.40625 29.703125 
C 43.796875 27.828125 44.5 27.625 46.59375 26.03125 
C 49.59375 23.734375 51.203125 20.4375 51.203125 16.546875 
C 51.203125 12.5625 49.703125 9.28125 46.703125 6.59375 
C 43.40625 3.6875 40.09375 2.59375 34.59375 2.59375 
C 27.203125 2.59375 21.90625 4.875 17.203125 10.03125 
C 13 14.703125 10.90625 19.375 9.40625 27 
L 5.09375 27 
L 5.5 -1.4375 
L 9.40625 -1.4375 
L 13.90625 5.46875 
C 20.59375 0 26.203125 -2 34.90625 -2 
C 49.59375 -2 59 6.59375 59 19.9375 
C 59 26.109375 56.90625 31.40625 53 35.203125 
C 50.296875 37.796875 46.40625 39.484375 38.40625 41.484375 
L 27.703125 44.171875 
C 18.796875 46.46875 14.59375 50.359375 14.59375 56.4375 
C 14.59375 63.40625 20.296875 68.203125 28.796875 68.203125 
C 35.796875 68.203125 41.5 65.1875 45.5 59.484375 
C 48.40625 55.375 50.203125 51.15625 51.5 46.046875 
L 55.796875 46.046875 
z
" id="Century_Schoolbook_L_Roman-83"/>
       <path d="M 46.5 23 
C 46.59375 37.8125 38.09375 48.28125 25.90625 48.28125 
C 13.09375 48.28125 3.5 37.25 3.5 22.34375 
C 3.5 8.4375 12.59375 -1 26.09375 -1 
C 35.59375 -1 42.40625 3.6875 46.5 13.1875 
L 43 15.09375 
C 38.90625 7.390625 34.703125 4.390625 28 4.390625 
C 22.90625 4.390625 19.203125 6.59375 16.59375 11 
C 14.796875 14 14 17.5 14.09375 23 
z
M 14.203125 27.296875 
C 14.203125 30.34375 14.59375 32.5 15.59375 35.25 
C 17.703125 41.140625 20.90625 44 25.703125 44 
C 31.796875 44 35.796875 38.78125 35.796875 30.921875 
C 35.796875 28.078125 34.90625 27.296875 31.703125 27.296875 
z
" id="Century_Schoolbook_L_Roman-101"/>
       <path d="M 20.59375 46 
L 1.796875 46 
L 1.796875 41.21875 
L 6.90625 41.21875 
C 10.59375 41.21875 11.203125 40.515625 11.203125 36.203125 
L 11.203125 12.296875 
L 11.203125 8.296875 
C 11.203125 4.296875 10.09375 3.59375 3.703125 3.59375 
L 3 3.59375 
L 3 0 
L 28.90625 0 
L 28.90625 3.59375 
L 28.203125 3.59375 
C 21.703125 3.59375 20.59375 4.28125 20.59375 8.21875 
L 20.59375 12.171875 
z
M 15.90625 71.578125 
C 12.703125 71.578125 10.09375 68.984375 10.09375 65.796875 
C 10.09375 62.703125 12.703125 60 15.796875 60 
C 19.09375 60 21.703125 62.59375 21.703125 65.796875 
C 21.703125 68.984375 19.09375 71.578125 15.90625 71.578125 
" id="Century_Schoolbook_L_Roman-105"/>
       <path d="M 29.5 12.09375 
L 18.09375 38.59375 
C 17.796875 39.203125 17.59375 40.09375 17.59375 40.703125 
C 17.59375 42.390625 18.90625 43 23 43 
L 24.40625 43 
L 24.40625 46.59375 
L 0.796875 46.59375 
L 0.796875 43 
L 1.59375 43 
C 5.40625 43 6.796875 42.09375 8.203125 38.703125 
L 25.40625 -1.5 
L 28.90625 -1.5 
L 43.09375 33.59375 
C 45.796875 40.203125 48.59375 43 52.40625 43 
L 52.796875 43 
L 52.796875 46.59375 
L 32.796875 46.59375 
L 32.796875 43 
L 34.203125 43 
C 37.703125 43 39.59375 41.796875 39.59375 39.5 
C 39.59375 38.390625 39.203125 36.796875 38.703125 35.296875 
z
" id="Century_Schoolbook_L_Roman-118"/>
      </defs>
      <g transform="translate(306.053682358 660.870650466)scale(0.12 -0.12)">
       <use transform="scale(0.9962640099626402)" xlink:href="#Century_Schoolbook_L_Roman-83"/>
       <use transform="translate(62.763978951004056 0.0)scale(0.9962640099626402)" xlink:href="#Century_Schoolbook_L_Roman-117"/>
       <use transform="translate(123.63560962795768 0.0)scale(0.9962640099626402)" xlink:href="#Century_Schoolbook_L_Roman-114"/>
       <use transform="translate(167.8691783254203 0.0)scale(0.9962640099626402)" xlink:href="#Century_Schoolbook_L_Roman-118"/>
       <use transform="translate(221.36852221649286 0.0)scale(0.9962640099626402)" xlink:href="#Century_Schoolbook_L_Roman-105"/>
       <use transform="translate(252.74983521267905 0.0)scale(0.9962640099626402)" xlink:href="#Century_Schoolbook_L_Roman-118"/>
       <use transform="translate(306.2491791037516 0.0)scale(0.9962640099626402)" xlink:href="#Century_Schoolbook_L_Roman-97"/>
       <use transform="translate(361.6408560670922 0.0)scale(0.9962640099626402)" xlink:href="#Century_Schoolbook_L_Roman-108"/>
       <use transform="translate(420.71733866652403 0.0)scale(0.9962640099626402)" xlink:href="#Century_Schoolbook_L_Roman-82"/>
       <use transform="translate(492.64732351338733 0.0)scale(0.9962640099626402)" xlink:href="#Century_Schoolbook_L_Roman-97"/>
       <use transform="translate(548.0390004767279 0.0)scale(0.9962640099626402)" xlink:href="#Century_Schoolbook_L_Roman-116"/>
       <use transform="translate(586.7927066712718 0.0)scale(0.9962640099626402)" xlink:href="#Century_Schoolbook_L_Roman-101"/>
      </g>
     </g>
    </g>
    <g id="xtick_2">
     <g id="line2d_17">
      <g>
       <use style="stroke:#000000;stroke-width:0.5;" x="762.75" xlink:href="#mc49476e84e" y="648.0"/>
      </g>
     </g>
     <g id="line2d_18">
      <g>
       <use style="stroke:#000000;stroke-width:0.5;" x="762.75" xlink:href="#m0de440f513" y="72.0"/>
      </g>
     </g>
     <g id="text_2">
      <!-- Kaplan-Meier -->
      <defs>
       <path d="M 4.203125 27.28125 
L 4.203125 19 
L 29.09375 19 
L 29.09375 27.28125 
z
" id="Century_Schoolbook_L_Roman-45"/>
       <path d="M 25 32.609375 
L 25 59.71875 
L 25 62.609375 
C 25 66.8125 25.90625 67.3125 34 67.3125 
L 35.90625 67.3125 
L 35.90625 72 
L 3 72 
L 3 67.3125 
L 4.796875 67.3125 
C 12.90625 67.3125 13.796875 66.8125 13.796875 62.609375 
L 13.796875 59.71875 
L 13.796875 12.28125 
L 13.796875 9.375 
C 13.796875 5.1875 12.90625 4.6875 4.796875 4.6875 
L 3 4.6875 
L 3 0 
L 35.90625 0 
L 35.90625 4.6875 
L 34 4.6875 
C 25.90625 4.6875 25 5.1875 25 9.375 
L 25 12.28125 
L 25 24.9375 
L 36.59375 36.59375 
L 54 11.171875 
C 55.59375 8.78125 56 7.984375 56 6.984375 
C 56 5.390625 54.09375 4.6875 49.203125 4.6875 
L 46.09375 4.6875 
L 46.09375 0 
L 80.296875 0 
L 80.296875 4.6875 
L 78.40625 4.6875 
C 72.90625 4.6875 71.5 5.390625 68.59375 9.6875 
L 44.40625 44.46875 
L 59.296875 59.328125 
C 64.09375 64.40625 70.203125 67.3125 76.203125 67.3125 
L 76.203125 72 
L 45.40625 72 
L 45.40625 67.3125 
L 47.90625 67.3125 
C 52.5 67.3125 54.40625 66.40625 54.40625 64.3125 
C 54.40625 62.921875 52.40625 60.015625 49.5 57.140625 
z
" id="Century_Schoolbook_L_Roman-75"/>
       <path d="M 20.09375 46 
L 2.796875 46 
L 2.796875 41.21875 
L 6.40625 41.21875 
C 10.09375 41.21875 10.703125 40.515625 10.703125 36.21875 
L 10.703125 -7.75 
L 10.703125 -11.71875 
C 10.703125 -15.71875 9.59375 -16.40625 3.203125 -16.40625 
L 2.796875 -16.40625 
L 2.796875 -20 
L 28.796875 -20 
L 28.796875 -16.40625 
L 27.703125 -16.40625 
C 21.203125 -16.40625 20.09375 -15.71875 20.09375 -11.734375 
L 20.09375 -7.75 
L 20.09375 6.6875 
C 23.40625 0.90625 27.203125 -1.390625 33.296875 -1.390625 
C 44.90625 -1.390625 53.5 9.265625 53.5 23.5 
C 53.5 37.265625 44.90625 48 33.90625 48 
C 27.703125 48 23.59375 45.4375 20.09375 39.515625 
z
M 32.09375 42.609375 
C 39 42.609375 43 35.75 43 24.09375 
C 43 11.265625 38.90625 4 31.796875 4 
C 24.703125 4 20 11.375 20 22.8125 
C 20 35.140625 24.5 42.609375 32.09375 42.609375 
" id="Century_Schoolbook_L_Roman-112"/>
       <path d="M 28.703125 72 
L 2.90625 72 
L 2.90625 67.3125 
L 4.796875 67.3125 
C 12.90625 67.3125 13.796875 66.8125 13.796875 62.59375 
L 13.796875 59.703125 
L 13.796875 21.390625 
C 13.796875 7.78125 11.796875 4.890625 2.203125 4.890625 
L 2.203125 0 
L 30.703125 0 
L 30.703125 4.890625 
C 21.203125 4.890625 19.203125 7.78125 19.203125 21.40625 
L 19.203125 65.625 
L 43 0 
L 47 0 
L 69.296875 65.625 
L 69.296875 12.453125 
L 69.296875 9.5625 
C 69.296875 5.296875 68.40625 4.890625 60.296875 4.890625 
L 58.5 4.890625 
L 58.5 0 
L 91.296875 0 
L 91.296875 4.890625 
L 89.5 4.890625 
C 81.40625 4.890625 80.5 5.296875 80.5 9.5625 
L 80.5 12.453125 
L 80.5 59.75 
L 80.5 62.625 
C 80.5 66.8125 81.40625 67.3125 89.5 67.3125 
L 91.296875 67.3125 
L 91.296875 72 
L 66.203125 72 
L 47.90625 18.84375 
z
" id="Century_Schoolbook_L_Roman-77"/>
       <path d="M 20 46 
L 2.703125 46 
L 2.703125 41.21875 
L 6.296875 41.21875 
C 10 41.21875 10.59375 40.515625 10.59375 36.203125 
L 10.59375 12.296875 
L 10.59375 8.296875 
C 10.59375 4.296875 9.5 3.59375 3.09375 3.59375 
L 2.703125 3.59375 
L 2.703125 0 
L 28 0 
L 28 3.59375 
L 27.59375 3.59375 
C 21.09375 3.59375 20 4.296875 20 8.28125 
L 20 12.28125 
L 20 22.65625 
C 20 27.546875 20.703125 32.03125 21.796875 34.328125 
C 23.90625 38.828125 28.40625 41.921875 32.703125 41.921875 
C 35.296875 41.921875 38.296875 40.421875 39.796875 38.421875 
C 41.296875 36.328125 42 33.234375 42 28.4375 
L 42 12.28125 
L 42 8.28125 
C 42 4.296875 40.90625 3.59375 34.40625 3.59375 
L 34 3.59375 
L 34 0 
L 59.296875 0 
L 59.296875 3.59375 
L 58.90625 3.59375 
C 52.5 3.59375 51.40625 4.296875 51.40625 8.28125 
L 51.40625 12.28125 
L 51.40625 27.953125 
C 51.40625 35.125 51.09375 36.921875 49.296875 40.328125 
C 46.796875 45.109375 41.703125 48 35.796875 48 
C 29.40625 48 24.40625 45.046875 20 38.515625 
z
" id="Century_Schoolbook_L_Roman-110"/>
      </defs>
      <g transform="translate(724.338417519 660.870650466)scale(0.12 -0.12)">
       <use transform="scale(0.9962640099626402)" xlink:href="#Century_Schoolbook_L_Roman-75"/>
       <use transform="translate(77.50837010137765 0.0)scale(0.9962640099626402)" xlink:href="#Century_Schoolbook_L_Roman-97"/>
       <use transform="translate(132.90004706471825 0.0)scale(0.9962640099626402)" xlink:href="#Century_Schoolbook_L_Roman-112"/>
       <use transform="translate(190.08553434873133 0.0)scale(0.9962640099626402)" xlink:href="#Century_Schoolbook_L_Roman-108"/>
       <use transform="translate(221.4668473449175 0.0)scale(0.9962640099626402)" xlink:href="#Century_Schoolbook_L_Roman-97"/>
       <use transform="translate(276.8585243082581 0.0)scale(0.9962640099626402)" xlink:href="#Century_Schoolbook_L_Roman-110"/>
       <use transform="translate(337.73015498521175 0.0)scale(0.9962640099626402)" xlink:href="#Century_Schoolbook_L_Roman-45"/>
       <use transform="translate(370.90538471454704 0.0)scale(0.9962640099626402)" xlink:href="#Century_Schoolbook_L_Roman-77"/>
       <use transform="translate(464.9521539101417 0.0)scale(0.9962640099626402)" xlink:href="#Century_Schoolbook_L_Roman-101"/>
       <use transform="translate(514.7653544082738 0.0)scale(0.9962640099626402)" xlink:href="#Century_Schoolbook_L_Roman-105"/>
       <use transform="translate(546.1466674044599 0.0)scale(0.9962640099626402)" xlink:href="#Century_Schoolbook_L_Roman-101"/>
       <use transform="translate(595.9598679025919 0.0)scale(0.9962640099626402)" xlink:href="#Century_Schoolbook_L_Roman-114"/>
      </g>
     </g>
    </g>
   </g>
   <g id="matplotlib.axis_2">
    <g id="ytick_1">
     <g id="line2d_19">
      <defs>
       <path d="M 0 0 
L 4 0 
" id="mcb84aa8fed" style="stroke:#000000;stroke-width:0.5;"/>
      </defs>
      <g>
       <use style="stroke:#000000;stroke-width:0.5;" x="135.0" xlink:href="#mcb84aa8fed" y="648.0"/>
      </g>
     </g>
     <g id="line2d_20">
      <defs>
       <path d="M 0 0 
L -4 0 
" id="m722d7f1e31" style="stroke:#000000;stroke-width:0.5;"/>
      </defs>
      <g>
       <use style="stroke:#000000;stroke-width:0.5;" x="972.0" xlink:href="#m722d7f1e31" y="648.0"/>
      </g>
     </g>
     <g id="text_3">
      <!-- $0.00$ -->
      <defs>
       <path d="M 18.40625 4.796875 
C 18.40625 7.6875 16 9.671875 13.59375 9.671875 
C 10.703125 9.671875 8.703125 7.28125 8.703125 4.890625 
C 8.703125 2 11.09375 0 13.5 0 
C 16.40625 0 18.40625 2.390625 18.40625 4.796875 
" id="CMMI12-58"/>
       <path d="M 42 31.640625 
C 42 37.75 41.90625 48.125 37.703125 56.109375 
C 34 63.109375 28.09375 65.59375 22.90625 65.59375 
C 18.09375 65.59375 12 63.40625 8.203125 56.203125 
C 4.203125 48.71875 3.796875 39.4375 3.796875 31.640625 
C 3.796875 25.953125 3.90625 17.28125 7 9.671875 
C 11.296875 -0.609375 19 -2 22.90625 -2 
C 27.5 -2 34.5 -0.109375 38.59375 9.375 
C 41.59375 16.28125 42 24.359375 42 31.640625 
M 22.90625 -0.40625 
C 16.5 -0.40625 12.703125 5.078125 11.296875 12.6875 
C 10.203125 18.5625 10.203125 27.15625 10.203125 32.75 
C 10.203125 40.4375 10.203125 46.828125 11.5 52.921875 
C 13.40625 61.390625 19 64 22.90625 64 
C 27 64 32.296875 61.296875 34.203125 53.125 
C 35.5 47.4375 35.59375 40.734375 35.59375 32.75 
C 35.59375 26.25 35.59375 18.265625 34.40625 12.375 
C 32.296875 1.484375 26.40625 -0.40625 22.90625 -0.40625 
" id="CMR17-48"/>
      </defs>
      <g transform="translate(110.189367995 651.299607672)scale(0.12 -0.12)">
       <use transform="scale(0.9962640099626402)" xlink:href="#CMR17-48"/>
       <use transform="translate(45.69047711706103 0.0)scale(0.9962640099626402)" xlink:href="#CMMI12-58"/>
       <use transform="translate(72.78765420688046 0.0)scale(0.9962640099626402)" xlink:href="#CMR17-48"/>
       <use transform="translate(118.47813132394148 0.0)scale(0.9962640099626402)" xlink:href="#CMR17-48"/>
      </g>
     </g>
    </g>
    <g id="ytick_2">
     <g id="line2d_21">
      <g>
       <use style="stroke:#000000;stroke-width:0.5;" x="135.0" xlink:href="#mcb84aa8fed" y="532.8"/>
      </g>
     </g>
     <g id="line2d_22">
      <g>
       <use style="stroke:#000000;stroke-width:0.5;" x="972.0" xlink:href="#m722d7f1e31" y="532.8"/>
      </g>
     </g>
     <g id="text_4">
      <!-- $0.05$ -->
      <defs>
       <path d="M 11.40625 57.6875 
C 12.40625 57.28125 16.5 56 20.703125 56 
C 30 56 35.09375 61.015625 38 63.921875 
C 38 64.734375 38 65.25 37.40625 65.25 
C 37.296875 65.25 37.09375 65.25 36.296875 64.828125 
C 32.796875 63.3125 28.703125 62.078125 23.703125 62.078125 
C 20.703125 62.078125 16.203125 62.5 11.296875 64.734375 
C 10.203125 65.25 10 65.25 9.90625 65.25 
C 9.40625 65.25 9.296875 65.140625 9.296875 63.15625 
L 9.296875 34.28125 
C 9.296875 32.5 9.296875 32 10.296875 32 
C 10.796875 32 11 32.203125 11.5 32.90625 
C 14.703125 37.484375 19.09375 39.40625 24.09375 39.40625 
C 27.59375 39.40625 35.09375 37.21875 35.09375 20.140625 
C 35.09375 16.953125 35.09375 11.171875 32.09375 6.578125 
C 29.59375 2.484375 25.703125 0.390625 21.40625 0.390625 
C 14.796875 0.390625 8.09375 5 6.296875 12.71875 
C 6.703125 12.609375 7.5 12.421875 7.90625 12.421875 
C 9.203125 12.421875 11.703125 13.125 11.703125 16.21875 
C 11.703125 18.90625 9.796875 20 7.90625 20 
C 5.59375 20 4.09375 18.59375 4.09375 15.796875 
C 4.09375 7.09375 11 -2 21.59375 -2 
C 31.90625 -2 41.703125 6.875 41.703125 19.75 
C 41.703125 31.71875 33.90625 41 24.203125 41 
C 19.09375 41 14.796875 39.09375 11.40625 35.453125 
z
" id="CMR17-53"/>
      </defs>
      <g transform="translate(110.189367995 536.099607672)scale(0.12 -0.12)">
       <use transform="scale(0.9962640099626402)" xlink:href="#CMR17-48"/>
       <use transform="translate(45.69047711706103 0.0)scale(0.9962640099626402)" xlink:href="#CMMI12-58"/>
       <use transform="translate(72.78765420688046 0.0)scale(0.9962640099626402)" xlink:href="#CMR17-48"/>
       <use transform="translate(118.47813132394148 0.0)scale(0.9962640099626402)" xlink:href="#CMR17-53"/>
      </g>
     </g>
    </g>
    <g id="ytick_3">
     <g id="line2d_23">
      <g>
       <use style="stroke:#000000;stroke-width:0.5;" x="135.0" xlink:href="#mcb84aa8fed" y="417.6"/>
      </g>
     </g>
     <g id="line2d_24">
      <g>
       <use style="stroke:#000000;stroke-width:0.5;" x="972.0" xlink:href="#m722d7f1e31" y="417.6"/>
      </g>
     </g>
     <g id="text_5">
      <!-- $0.10$ -->
      <defs>
       <path d="M 26.59375 63.3125 
C 26.59375 65.40625 26.5 65.5 25.09375 65.5 
C 21.203125 61.1875 15.296875 59.796875 9.703125 59.796875 
C 9.40625 59.796875 8.90625 59.796875 8.796875 59.5 
C 8.703125 59.296875 8.703125 59.09375 8.703125 57 
C 11.796875 57 17 57.59375 21 59.984375 
L 21 7.203125 
C 21 3.6875 20.796875 2.5 12.203125 2.5 
L 9.203125 2.5 
L 9.203125 0 
C 14 0 19 0 23.796875 0 
C 28.59375 0 33.59375 0 38.40625 0 
L 38.40625 2.5 
L 35.40625 2.5 
C 26.796875 2.5 26.59375 3.59375 26.59375 7.15625 
z
" id="CMR17-49"/>
      </defs>
      <g transform="translate(110.189367995 420.899607672)scale(0.12 -0.12)">
       <use transform="scale(0.9962640099626402)" xlink:href="#CMR17-48"/>
       <use transform="translate(45.69047711706103 0.0)scale(0.9962640099626402)" xlink:href="#CMMI12-58"/>
       <use transform="translate(72.78765420688046 0.0)scale(0.9962640099626402)" xlink:href="#CMR17-49"/>
       <use transform="translate(118.47813132394148 0.0)scale(0.9962640099626402)" xlink:href="#CMR17-48"/>
      </g>
     </g>
    </g>
    <g id="ytick_4">
     <g id="line2d_25">
      <g>
       <use style="stroke:#000000;stroke-width:0.5;" x="135.0" xlink:href="#mcb84aa8fed" y="302.4"/>
      </g>
     </g>
     <g id="line2d_26">
      <g>
       <use style="stroke:#000000;stroke-width:0.5;" x="972.0" xlink:href="#m722d7f1e31" y="302.4"/>
      </g>
     </g>
     <g id="text_6">
      <!-- $0.15$ -->
      <g transform="translate(110.189367995 305.699607672)scale(0.12 -0.12)">
       <use transform="scale(0.9962640099626402)" xlink:href="#CMR17-48"/>
       <use transform="translate(45.69047711706103 0.0)scale(0.9962640099626402)" xlink:href="#CMMI12-58"/>
       <use transform="translate(72.78765420688046 0.0)scale(0.9962640099626402)" xlink:href="#CMR17-49"/>
       <use transform="translate(118.47813132394148 0.0)scale(0.9962640099626402)" xlink:href="#CMR17-53"/>
      </g>
     </g>
    </g>
    <g id="ytick_5">
     <g id="line2d_27">
      <g>
       <use style="stroke:#000000;stroke-width:0.5;" x="135.0" xlink:href="#mcb84aa8fed" y="187.2"/>
      </g>
     </g>
     <g id="line2d_28">
      <g>
       <use style="stroke:#000000;stroke-width:0.5;" x="972.0" xlink:href="#m722d7f1e31" y="187.2"/>
      </g>
     </g>
     <g id="text_7">
      <!-- $0.20$ -->
      <defs>
       <path d="M 41.703125 15.453125 
L 39.90625 15.453125 
C 38.90625 8.375 38.09375 7.171875 37.703125 6.5625 
C 37.203125 5.765625 30 5.765625 28.59375 5.765625 
L 9.40625 5.765625 
C 13 9.671875 20 16.75 28.5 24.953125 
C 34.59375 30.734375 41.703125 37.53125 41.703125 47.421875 
C 41.703125 59.21875 32.296875 66 21.796875 66 
C 10.796875 66 4.09375 56.3125 4.09375 47.34375 
C 4.09375 43.4375 7 42.9375 8.203125 42.9375 
C 9.203125 42.9375 12.203125 43.546875 12.203125 47.03125 
C 12.203125 50.109375 9.59375 51 8.203125 51 
C 7.59375 51 7 50.90625 6.59375 50.703125 
C 8.5 59.21875 14.296875 63.40625 20.40625 63.40625 
C 29.09375 63.40625 34.796875 56.515625 34.796875 47.421875 
C 34.796875 38.734375 29.703125 31.25 24 24.75 
L 4.09375 2.28125 
L 4.09375 0 
L 39.296875 0 
z
" id="CMR17-50"/>
      </defs>
      <g transform="translate(110.189367995 190.499607672)scale(0.12 -0.12)">
       <use transform="scale(0.9962640099626402)" xlink:href="#CMR17-48"/>
       <use transform="translate(45.69047711706103 0.0)scale(0.9962640099626402)" xlink:href="#CMMI12-58"/>
       <use transform="translate(72.78765420688046 0.0)scale(0.9962640099626402)" xlink:href="#CMR17-50"/>
       <use transform="translate(118.47813132394148 0.0)scale(0.9962640099626402)" xlink:href="#CMR17-48"/>
      </g>
     </g>
    </g>
    <g id="ytick_6">
     <g id="line2d_29">
      <g>
       <use style="stroke:#000000;stroke-width:0.5;" x="135.0" xlink:href="#mcb84aa8fed" y="72.0"/>
      </g>
     </g>
     <g id="line2d_30">
      <g>
       <use style="stroke:#000000;stroke-width:0.5;" x="972.0" xlink:href="#m722d7f1e31" y="72.0"/>
      </g>
     </g>
     <g id="text_8">
      <!-- $0.25$ -->
      <g transform="translate(110.189367995 75.2996076724)scale(0.12 -0.12)">
       <use transform="scale(0.9962640099626402)" xlink:href="#CMR17-48"/>
       <use transform="translate(45.69047711706103 0.0)scale(0.9962640099626402)" xlink:href="#CMMI12-58"/>
       <use transform="translate(72.78765420688046 0.0)scale(0.9962640099626402)" xlink:href="#CMR17-50"/>
       <use transform="translate(118.47813132394148 0.0)scale(0.9962640099626402)" xlink:href="#CMR17-53"/>
      </g>
     </g>
    </g>
    <g id="text_9">
     <!-- Brier Score -->
     <defs>
      <path d="M 38.703125 15.109375 
C 35.5 7.96875 32.09375 5.09375 26.90625 5.09375 
C 18.90625 5.09375 13.90625 12.328125 13.90625 23.9375 
C 13.90625 35.953125 18.796875 44 26.203125 44 
C 29.203125 44 31.796875 42.59375 31.796875 41.015625 
C 31.796875 40.71875 31.59375 40.421875 31.203125 39.8125 
C 29.59375 37.9375 29.203125 36.9375 29.203125 35.265625 
C 29.203125 31.984375 31.703125 29.703125 35.203125 29.703125 
C 38.703125 29.703125 41.296875 32.484375 41.296875 36.453125 
C 41.296875 43.109375 34.59375 48.28125 25.703125 48.28125 
C 12.703125 48.28125 3.40625 37.65625 3.40625 22.84375 
C 3.40625 8.734375 11.90625 -1 24.296875 -1 
C 33.203125 -1 38.296875 3.078125 42.59375 13.625 
z
" id="Century_Schoolbook_L_Roman-99"/>
      <path d="M 3 72 
L 3 67.3125 
L 4.796875 67.3125 
C 12.90625 67.3125 13.796875 66.8125 13.796875 62.609375 
L 13.796875 59.71875 
L 13.796875 12.28125 
L 13.796875 9.375 
C 13.796875 5.1875 12.90625 4.6875 4.796875 4.6875 
L 3 4.6875 
L 3 0 
L 39.296875 0 
C 56.59375 0 67 7.40625 67 19.59375 
C 67 29.484375 60.59375 35.296875 47 37.6875 
C 51.796875 38.6875 54 39.578125 56.5 41.46875 
C 60.703125 44.546875 63.203125 49.421875 63.203125 54.5 
C 63.203125 60.859375 59.203125 67.125 53.40625 69.609375 
C 49.796875 71.203125 44.796875 72 38.90625 72 
z
M 25 39.6875 
L 25 62.328125 
C 25 66.203125 26.40625 67.3125 31.59375 67.3125 
L 35.59375 67.3125 
C 40.203125 67.3125 44 66.609375 46.09375 65.21875 
C 49.703125 63.03125 51.59375 58.75 51.59375 53.203125 
C 51.59375 43.46875 46.703125 39.6875 33.90625 39.6875 
z
M 25 35 
L 33.796875 35 
C 40.203125 35 44.5 34.390625 47.5 33.09375 
C 52.203125 30.890625 54.703125 26.5 54.703125 19.890625 
C 54.703125 13.59375 52.5 8.890625 48.59375 6.984375 
C 45.5 5.390625 41.296875 4.6875 35 4.6875 
L 30.796875 4.6875 
C 25.703125 4.6875 25 5.484375 25 11 
z
" id="Century_Schoolbook_L_Roman-66"/>
      <path d="M 25.203125 48.28125 
C 13 48.28125 3.40625 37.453125 3.40625 23.546875 
C 3.40625 9.9375 13 -1 25 -1 
C 37 -1 46.59375 9.9375 46.59375 23.640625 
C 46.59375 37.25 37 48.28125 25.203125 48.28125 
M 25.203125 44 
C 32.203125 44 36.09375 36.734375 36.09375 23.640625 
C 36.09375 10.453125 32.203125 3.296875 25 3.296875 
C 17.796875 3.296875 13.90625 10.453125 13.90625 23.546875 
C 13.90625 37.046875 17.703125 44 25.203125 44 
" id="Century_Schoolbook_L_Roman-111"/>
     </defs>
     <g transform="translate(102.917932874 391.20863595)rotate(-90.0)scale(0.12 -0.12)">
      <use transform="scale(0.9962640099626402)" xlink:href="#Century_Schoolbook_L_Roman-66"/>
      <use transform="translate(71.92998484686333 0.0)scale(0.9962640099626402)" xlink:href="#Century_Schoolbook_L_Roman-114"/>
      <use transform="translate(116.16355354432598 0.0)scale(0.9962640099626402)" xlink:href="#Century_Schoolbook_L_Roman-105"/>
      <use transform="translate(147.54486654051215 0.0)scale(0.9962640099626402)" xlink:href="#Century_Schoolbook_L_Roman-101"/>
      <use transform="translate(197.35806703864418 0.0)scale(0.9962640099626402)" xlink:href="#Century_Schoolbook_L_Roman-114"/>
      <use transform="translate(269.28680533935244 0.0)scale(0.9962640099626402)" xlink:href="#Century_Schoolbook_L_Roman-83"/>
      <use transform="translate(332.0507842903565 0.0)scale(0.9962640099626402)" xlink:href="#Century_Schoolbook_L_Roman-99"/>
      <use transform="translate(376.28435298781915 0.0)scale(0.9962640099626402)" xlink:href="#Century_Schoolbook_L_Roman-111"/>
      <use transform="translate(426.09755348595115 0.0)scale(0.9962640099626402)" xlink:href="#Century_Schoolbook_L_Roman-114"/>
      <use transform="translate(470.3311221834138 0.0)scale(0.9962640099626402)" xlink:href="#Century_Schoolbook_L_Roman-101"/>
     </g>
    </g>
   </g>
   <g id="text_10">
    <!-- Brier Scores Across Categories -->
    <defs>
     <path d="M 39 48 
L 35.5 48 
L 32.59375 44.40625 
C 29 47.203125 25.40625 48.390625 20.40625 48.390625 
C 11.59375 48.390625 5.796875 42.625 5.796875 33.953125 
C 5.796875 30.078125 7.09375 26.78125 9.296875 24.8125 
C 11.59375 22.703125 13.90625 21.71875 19.90625 20.3125 
L 25.203125 19.125 
C 33.09375 17.234375 35.90625 15.234375 35.90625 11.265625 
C 35.90625 6.578125 31.796875 3.296875 25.90625 3.296875 
C 17.5 3.296875 11.5 8.765625 9.09375 18.875 
L 5.09375 18.875 
L 5.09375 0 
L 8.59375 0 
L 12.09375 3.90625 
C 16.203125 0.59375 20.796875 -1 25.796875 -1 
C 35.59375 -1 42.09375 5.078125 42.09375 14.34375 
C 42.09375 18.71875 40.703125 22.09375 37.90625 24.390625 
C 35.5 26.484375 33.5 27.28125 27.40625 28.5625 
L 22.40625 29.671875 
C 16.90625 30.859375 16.90625 30.859375 15.09375 31.859375 
C 12.90625 32.859375 11.59375 34.9375 11.59375 37.140625 
C 11.59375 41.109375 15.40625 44 20.90625 44 
C 24.703125 44 27.796875 42.703125 30.59375 40.015625 
C 32.796875 37.8125 33.90625 35.828125 35.5 31.234375 
L 39 31.234375 
z
" id="Century_Schoolbook_L_Roman-115"/>
     <path d="M 19.59375 7.59375 
C 14.09375 7.59375 13.796875 7.703125 12.59375 8.46875 
C 11.90625 8.90625 11.40625 10.109375 11.40625 11.296875 
C 11.40625 14.578125 14.09375 16 20.796875 16 
C 30.296875 16 31.796875 16.203125 35.09375 17.6875 
C 41.09375 20.359375 44.5 25.484375 44.5 31.984375 
C 44.5 35.921875 43.59375 38.390625 40.796875 41.640625 
C 42.5 43.40625 43.40625 44 44.203125 44 
C 44.703125 44 45 43.6875 45.203125 42.625 
C 45.59375 40.265625 47.203125 39 49.703125 39 
C 52.203125 39 54.203125 41.09375 54.203125 43.78125 
C 54.203125 47.1875 51.5 49.578125 47.59375 49.578125 
C 44.40625 49.578125 42.59375 48.5625 38 44.296875 
C 33.796875 47.09375 30.59375 48.078125 25.59375 48.078125 
C 13.703125 48.078125 5.90625 41.625 5.90625 31.8125 
C 5.90625 26.03125 9.09375 21.03125 14.296875 18.6875 
C 7.59375 17.15625 4.796875 14.09375 4.796875 8.46875 
C 4.796875 3.984375 6.796875 1.328125 11.5 -0.296875 
C 5.296875 -2.484375 2.296875 -5.671875 2.296875 -9.75 
C 2.296875 -16.3125 10 -20 23.40625 -20 
C 40.09375 -20 48.5 -14.71875 48.5 -4.25 
C 48.5 0.71875 46.203125 4.6875 42.5 6.1875 
C 39.90625 7.1875 36.703125 7.59375 29.796875 7.59375 
z
M 25.5 44 
C 31.796875 44 35.296875 39.671875 35.296875 32.09375 
C 35.296875 24.421875 31.5 19.78125 25.09375 19.78125 
C 18.90625 19.78125 15 24.421875 15 31.796875 
C 15 39.5625 18.796875 44 25.5 44 
M 24.59375 -1 
C 32.90625 -1 33.5 -1 35 -1.1875 
C 39 -1.59375 41.5 -3.78125 41.5 -6.953125 
C 41.5 -12.625 35 -15.90625 23.796875 -15.90625 
C 15.40625 -15.90625 10.59375 -13.421875 10.59375 -8.953125 
C 10.59375 -5.671875 12.40625 -3.46875 17.203125 -1 
z
" id="Century_Schoolbook_L_Roman-103"/>
     <path d="M 63.90625 72 
L 60.09375 72 
L 56.09375 66.015625 
C 49 71.203125 45.09375 72.703125 38.40625 72.703125 
C 28.703125 72.703125 20.703125 68.8125 13.90625 60.78125 
C 7.5 53.234375 4.5 44.890625 4.5 34.65625 
C 4.5 13.296875 18.59375 -2 38.296875 -2 
C 54.296875 -2 64.5 7.34375 66.796875 24.015625 
L 62.09375 24.8125 
C 61.09375 19.546875 59.90625 15.984375 58.09375 13.015625 
C 54 6.171875 47.59375 2.6875 39.5 2.6875 
C 24.703125 2.6875 17.703125 12.90625 17.703125 34.265625 
C 17.703125 45.46875 19.203125 53.015625 22.59375 58.96875 
C 25.703125 64.53125 31.90625 68 38.296875 68 
C 45.296875 68 51.5 64.328125 55.296875 57.96875 
C 57.203125 54.6875 58.703125 50.8125 61 43.171875 
L 65.40625 43.171875 
z
" id="Century_Schoolbook_L_Roman-67"/>
     <path d="M 37.796875 73.5 
L 33.59375 73.5 
L 10.59375 15.265625 
C 8.59375 10.078125 8.203125 9.375 6.703125 7.78125 
C 5.09375 5.890625 2.296875 4.6875 -0.40625 4.6875 
L -0.796875 4.6875 
L -0.796875 0 
L 25.703125 0 
L 25.703125 4.6875 
L 23.703125 4.6875 
C 18.296875 4.6875 15.59375 6.625 15.59375 10.453125 
C 15.59375 11.671875 15.90625 13.078125 16.5 14.703125 
L 19.796875 23.609375 
L 46.296875 23.609375 
L 51.703125 10.0625 
C 52.296875 8.53125 52.5 7.828125 52.5 7.3125 
C 52.5 5.703125 50 4.6875 46.296875 4.6875 
L 42.09375 4.6875 
L 42.09375 0 
L 73.09375 0 
L 73.09375 4.6875 
L 71.703125 4.6875 
C 66.703125 4.6875 65.59375 5.484375 63.296875 11.078125 
z
M 32.90625 57.203125 
L 44.203125 29 
L 21.796875 29 
z
" id="Century_Schoolbook_L_Roman-65"/>
    </defs>
    <g transform="translate(451.628941822 67.0)scale(0.144 -0.144)">
     <use transform="scale(0.9962640099626402)" xlink:href="#Century_Schoolbook_L_Roman-66"/>
     <use transform="translate(71.92998484686333 0.0)scale(0.9962640099626402)" xlink:href="#Century_Schoolbook_L_Roman-114"/>
     <use transform="translate(116.16355354432598 0.0)scale(0.9962640099626402)" xlink:href="#Century_Schoolbook_L_Roman-105"/>
     <use transform="translate(147.54486654051215 0.0)scale(0.9962640099626402)" xlink:href="#Century_Schoolbook_L_Roman-101"/>
     <use transform="translate(197.35806703864418 0.0)scale(0.9962640099626402)" xlink:href="#Century_Schoolbook_L_Roman-114"/>
     <use transform="translate(269.28680533935244 0.0)scale(0.9962640099626402)" xlink:href="#Century_Schoolbook_L_Roman-83"/>
     <use transform="translate(332.0507842903565 0.0)scale(0.9962640099626402)" xlink:href="#Century_Schoolbook_L_Roman-99"/>
     <use transform="translate(376.28435298781915 0.0)scale(0.9962640099626402)" xlink:href="#Century_Schoolbook_L_Roman-111"/>
     <use transform="translate(426.09755348595115 0.0)scale(0.9962640099626402)" xlink:href="#Century_Schoolbook_L_Roman-114"/>
     <use transform="translate(470.3311221834138 0.0)scale(0.9962640099626402)" xlink:href="#Century_Schoolbook_L_Roman-101"/>
     <use transform="translate(520.1443226815458 0.0)scale(0.9962640099626402)" xlink:href="#Century_Schoolbook_L_Roman-115"/>
     <use transform="translate(593.9653028438279 0.0)scale(0.9962640099626402)" xlink:href="#Century_Schoolbook_L_Roman-65"/>
     <use transform="translate(665.8952876906912 0.0)scale(0.9962640099626402)" xlink:href="#Century_Schoolbook_L_Roman-99"/>
     <use transform="translate(710.1288563881538 0.0)scale(0.9962640099626402)" xlink:href="#Century_Schoolbook_L_Roman-114"/>
     <use transform="translate(754.3624250856166 0.0)scale(0.9962640099626402)" xlink:href="#Century_Schoolbook_L_Roman-111"/>
     <use transform="translate(804.1756255837486 0.0)scale(0.9962640099626402)" xlink:href="#Century_Schoolbook_L_Roman-115"/>
     <use transform="translate(850.301436142785 0.0)scale(0.9962640099626402)" xlink:href="#Century_Schoolbook_L_Roman-115"/>
     <use transform="translate(924.1224163050671 0.0)scale(0.9962640099626402)" xlink:href="#Century_Schoolbook_L_Roman-67"/>
     <use transform="translate(996.0524011519303 0.0)scale(0.9962640099626402)" xlink:href="#Century_Schoolbook_L_Roman-97"/>
     <use transform="translate(1051.444078115271 0.0)scale(0.9962640099626402)" xlink:href="#Century_Schoolbook_L_Roman-116"/>
     <use transform="translate(1090.1977843098148 0.0)scale(0.9962640099626402)" xlink:href="#Century_Schoolbook_L_Roman-101"/>
     <use transform="translate(1140.010984807947 0.0)scale(0.9962640099626402)" xlink:href="#Century_Schoolbook_L_Roman-103"/>
     <use transform="translate(1193.5103286990195 0.0)scale(0.9962640099626402)" xlink:href="#Century_Schoolbook_L_Roman-111"/>
     <use transform="translate(1243.3235291971514 0.0)scale(0.9962640099626402)" xlink:href="#Century_Schoolbook_L_Roman-114"/>
     <use transform="translate(1287.5570978946141 0.0)scale(0.9962640099626402)" xlink:href="#Century_Schoolbook_L_Roman-105"/>
     <use transform="translate(1318.9384108908002 0.0)scale(0.9962640099626402)" xlink:href="#Century_Schoolbook_L_Roman-101"/>
     <use transform="translate(1368.7516113889324 0.0)scale(0.9962640099626402)" xlink:href="#Century_Schoolbook_L_Roman-115"/>
    </g>
   </g>
  </g>
 </g>
 <defs>
  <clipPath id="p127805a04c">
   <rect height="576.0" width="837.0" x="135.0" y="72.0"/>
  </clipPath>
 </defs>
</svg>
