<?xml version="1.0" encoding="utf-8" standalone="no"?>
<!DOCTYPE svg PUBLIC "-//W3C//DTD SVG 1.1//EN"
  "http://www.w3.org/Graphics/SVG/1.1/DTD/svg11.dtd">
<!-- Created with matplotlib (http://matplotlib.org/) -->
<svg height="576pt" version="1.1" viewBox="0 0 720 576" width="720pt" xmlns="http://www.w3.org/2000/svg" xmlns:xlink="http://www.w3.org/1999/xlink">
 <defs>
  <style type="text/css">
*{stroke-linecap:butt;stroke-linejoin:round;stroke-miterlimit:100000;}
  </style>
 </defs>
 <g id="figure_1">
  <g id="patch_1">
   <path d="M 0 576 
L 720 576 
L 720 0 
L 0 0 
L 0 576 
z
" style="fill:none;"/>
  </g>
  <g id="axes_1">
   <g id="patch_2">
    <path d="M 53.912718 547.897914 
L 707.04 547.897914 
L 707.04 28.604774 
L 53.912718 28.604774 
L 53.912718 547.897914 
z
" style="fill:none;"/>
   </g>
   <g id="PathCollection_1">
    <path clip-path="url(#p2b97a2776b)" d="M 220.311525 426.977871 
C 223.80728 426.977871 227.160329 425.588993 229.632201 423.117121 
C 232.104073 420.645249 233.492951 417.2922 233.492951 413.796445 
C 233.492951 410.30069 232.104073 406.947641 229.632201 404.475769 
C 227.160329 402.003897 223.80728 400.615019 220.311525 400.615019 
C 216.81577 400.615019 213.462721 402.003897 210.990849 404.475769 
C 208.518977 406.947641 207.130098 410.30069 207.130098 413.796445 
C 207.130098 417.2922 208.518977 420.645249 210.990849 423.117121 
C 213.462721 425.588993 216.81577 426.977871 220.311525 426.977871 
z
" style="fill:#6ec064;fill-opacity:0.3;stroke:#000000;stroke-opacity:0.3;"/>
    <path clip-path="url(#p2b97a2776b)" d="M 219.811782 124.445368 
C 221.986609 124.445368 224.072653 123.5813 225.610488 122.043465 
C 227.148323 120.50563 228.012391 118.419586 228.012391 116.244758 
C 228.012391 114.069931 227.148323 111.983887 225.610488 110.446052 
C 224.072653 108.908217 221.986609 108.044149 219.811782 108.044149 
C 217.636954 108.044149 215.55091 108.908217 214.013075 110.446052 
C 212.47524 111.983887 211.611172 114.069931 211.611172 116.244758 
C 211.611172 118.419586 212.47524 120.50563 214.013075 122.043465 
C 215.55091 123.5813 217.636954 124.445368 219.811782 124.445368 
z
" style="fill:#d83128;fill-opacity:0.3;stroke:#000000;stroke-opacity:0.3;"/>
    <path clip-path="url(#p2b97a2776b)" d="M 227.590047 388.793561 
C 229.695031 388.793561 231.714084 387.957242 233.202533 386.468793 
C 234.690982 384.980345 235.527301 382.961292 235.527301 380.856307 
C 235.527301 378.751323 234.690982 376.73227 233.202533 375.243821 
C 231.714084 373.755373 229.695031 372.919053 227.590047 372.919053 
C 225.485063 372.919053 223.46601 373.755373 221.977561 375.243821 
C 220.489112 376.73227 219.652793 378.751323 219.652793 380.856307 
C 219.652793 382.961292 220.489112 384.980345 221.977561 386.468793 
C 223.46601 387.957242 225.485063 388.793561 227.590047 388.793561 
z
" style="fill:#93d168;fill-opacity:0.3;stroke:#000000;stroke-opacity:0.3;"/>
    <path clip-path="url(#p2b97a2776b)" d="M 227.18445 447.261432 
C 228.988026 447.261432 230.717975 446.544863 231.993296 445.269543 
C 233.268617 443.994222 233.985185 442.264273 233.985185 440.460697 
C 233.985185 438.657121 233.268617 436.927171 231.993296 435.651851 
C 230.717975 434.37653 228.988026 433.659961 227.18445 433.659961 
C 225.380874 433.659961 223.650925 434.37653 222.375604 435.651851 
C 221.100283 436.927171 220.383715 438.657121 220.383715 440.460697 
C 220.383715 442.264273 221.100283 443.994222 222.375604 445.269543 
C 223.650925 446.544863 225.380874 447.261432 227.18445 447.261432 
z
" style="fill:#4bb05c;fill-opacity:0.3;stroke:#000000;stroke-opacity:0.3;"/>
    <path clip-path="url(#p2b97a2776b)" d="M 215.427935 449.162956 
C 216.733909 449.162956 217.986569 448.644087 218.910032 447.720624 
C 219.833495 446.797161 220.352364 445.544501 220.352364 444.238527 
C 220.352364 442.932553 219.833495 441.679893 218.910032 440.75643 
C 217.986569 439.832967 216.733909 439.314098 215.427935 439.314098 
C 214.121961 439.314098 212.869301 439.832967 211.945838 440.75643 
C 211.022375 441.679893 210.503506 442.932553 210.503506 444.238527 
C 210.503506 445.544501 211.022375 446.797161 211.945838 447.720624 
C 212.869301 448.644087 214.121961 449.162956 215.427935 449.162956 
z
" style="fill:#45ad5b;fill-opacity:0.3;stroke:#000000;stroke-opacity:0.3;"/>
    <path clip-path="url(#p2b97a2776b)" d="M 217.416153 467.814347 
C 218.549101 467.814347 219.635799 467.364222 220.436915 466.563106 
C 221.23803 465.761991 221.688155 464.675293 221.688155 463.542345 
C 221.688155 462.409397 221.23803 461.322699 220.436915 460.521583 
C 219.635799 459.720468 218.549101 459.270343 217.416153 459.270343 
C 216.283205 459.270343 215.196507 459.720468 214.395392 460.521583 
C 213.594276 461.322699 213.144151 462.409397 213.144151 463.542345 
C 213.144151 464.675293 213.594276 465.761991 214.395392 466.563106 
C 215.196507 467.364222 216.283205 467.814347 217.416153 467.814347 
z
" style="fill:#2da155;fill-opacity:0.3;stroke:#000000;stroke-opacity:0.3;"/>
    <path clip-path="url(#p2b97a2776b)" d="M 213.453695 174.360595 
C 214.343213 174.360595 215.196419 174.007186 215.825403 173.378202 
C 216.454388 172.749217 216.807797 171.896012 216.807797 171.006493 
C 216.807797 170.116975 216.454388 169.263769 215.825403 168.634785 
C 215.196419 168.005801 214.343213 167.652391 213.453695 167.652391 
C 212.564177 167.652391 211.710971 168.005801 211.081987 168.634785 
C 210.453002 169.263769 210.099593 170.116975 210.099593 171.006493 
C 210.099593 171.896012 210.453002 172.749217 211.081987 173.378202 
C 211.710971 174.007186 212.564177 174.360595 213.453695 174.360595 
z
" style="fill:#fdb567;fill-opacity:0.3;stroke:#000000;stroke-opacity:0.3;"/>
    <path clip-path="url(#p2b97a2776b)" d="M 205.904849 416.120402 
C 206.794367 416.120402 207.647573 415.766992 208.276557 415.138008 
C 208.905542 414.509023 209.258951 413.655818 209.258951 412.7663 
C 209.258951 411.876781 208.905542 411.023576 208.276557 410.394591 
C 207.647573 409.765607 206.794367 409.412198 205.904849 409.412198 
C 205.015331 409.412198 204.162125 409.765607 203.533141 410.394591 
C 202.904156 411.023576 202.550747 411.876781 202.550747 412.7663 
C 202.550747 413.655818 202.904156 414.509023 203.533141 415.138008 
C 204.162125 415.766992 205.015331 416.120402 205.904849 416.120402 
z
" style="fill:#69be63;fill-opacity:0.3;stroke:#000000;stroke-opacity:0.3;"/>
    <path clip-path="url(#p2b97a2776b)" d="M 213.974262 300.43343 
C 214.86378 300.43343 215.716986 300.08002 216.34597 299.451036 
C 216.974955 298.822052 217.328364 297.968846 217.328364 297.079328 
C 217.328364 296.18981 216.974955 295.336604 216.34597 294.70762 
C 215.716986 294.078635 214.86378 293.725226 213.974262 293.725226 
C 213.084744 293.725226 212.231538 294.078635 211.602554 294.70762 
C 210.973569 295.336604 210.62016 296.18981 210.62016 297.079328 
C 210.62016 297.968846 210.973569 298.822052 211.602554 299.451036 
C 212.231538 300.08002 213.084744 300.43343 213.974262 300.43343 
z
" style="fill:#ddf191;fill-opacity:0.3;stroke:#000000;stroke-opacity:0.3;"/>
    <path clip-path="url(#p2b97a2776b)" d="M 213.738979 409.823974 
C 214.608506 409.823974 215.442536 409.478507 216.057384 408.863659 
C 216.672232 408.248811 217.017699 407.414781 217.017699 406.545255 
C 217.017699 405.675728 216.672232 404.841698 216.057384 404.22685 
C 215.442536 403.612002 214.608506 403.266535 213.738979 403.266535 
C 212.869453 403.266535 212.035423 403.612002 211.420575 404.22685 
C 210.805727 404.841698 210.46026 405.675728 210.46026 406.545255 
C 210.46026 407.414781 210.805727 408.248811 211.420575 408.863659 
C 212.035423 409.478507 212.869453 409.823974 213.738979 409.823974 
z
" style="fill:#70c164;fill-opacity:0.3;stroke:#000000;stroke-opacity:0.3;"/>
    <path clip-path="url(#p2b97a2776b)" d="M 214.833699 405.438649 
C 215.693055 405.438649 216.51733 405.097223 217.124986 404.489567 
C 217.732643 403.88191 218.074069 403.057635 218.074069 402.198279 
C 218.074069 401.338923 217.732643 400.514648 217.124986 399.906991 
C 216.51733 399.299334 215.693055 398.957909 214.833699 398.957909 
C 213.974342 398.957909 213.150067 399.299334 212.542411 399.906991 
C 211.934754 400.514648 211.593328 401.338923 211.593328 402.198279 
C 211.593328 403.057635 211.934754 403.88191 212.542411 404.489567 
C 213.150067 405.097223 213.974342 405.438649 214.833699 405.438649 
z
" style="fill:#73c264;fill-opacity:0.3;stroke:#000000;stroke-opacity:0.3;"/>
    <path clip-path="url(#p2b97a2776b)" d="M 208.457792 270.385455 
C 209.296438 270.385455 210.100848 270.052258 210.69386 269.459246 
C 211.286872 268.866234 211.62007 268.061824 211.62007 267.223178 
C 211.62007 266.384532 211.286872 265.580122 210.69386 264.98711 
C 210.100848 264.394098 209.296438 264.0609 208.457792 264.0609 
C 207.619146 264.0609 206.814736 264.394098 206.221724 264.98711 
C 205.628712 265.580122 205.295514 266.384532 205.295514 267.223178 
C 205.295514 268.061824 205.628712 268.866234 206.221724 269.459246 
C 206.814736 270.052258 207.619146 270.385455 208.457792 270.385455 
z
" style="fill:#f1f9ac;fill-opacity:0.3;stroke:#000000;stroke-opacity:0.3;"/>
    <path clip-path="url(#p2b97a2776b)" d="M 223.688226 61.394402 
C 224.461419 61.394402 225.203048 61.087209 225.749778 60.540479 
C 226.296509 59.993749 226.603702 59.252119 226.603702 58.478926 
C 226.603702 57.705733 226.296509 56.964103 225.749778 56.417373 
C 225.203048 55.870643 224.461419 55.56345 223.688226 55.56345 
C 222.915032 55.56345 222.173403 55.870643 221.626673 56.417373 
C 221.079943 56.964103 220.77275 57.705733 220.77275 58.478926 
C 220.77275 59.252119 221.079943 59.993749 221.626673 60.540479 
C 222.173403 61.087209 222.915032 61.394402 223.688226 61.394402 
z
" style="fill:#a50026;fill-opacity:0.3;stroke:#000000;stroke-opacity:0.3;"/>
    <path clip-path="url(#p2b97a2776b)" d="M 211.301891 220.268832 
C 212.063629 220.268832 212.794271 219.96619 213.332901 219.42756 
C 213.871531 218.88893 214.174173 218.158288 214.174173 217.396551 
C 214.174173 216.634813 213.871531 215.904171 213.332901 215.365541 
C 212.794271 214.826911 212.063629 214.524269 211.301891 214.524269 
C 210.540154 214.524269 209.809512 214.826911 209.270882 215.365541 
C 208.732252 215.904171 208.42961 216.634813 208.42961 217.396551 
C 208.42961 218.158288 208.732252 218.88893 209.270882 219.42756 
C 209.809512 219.96619 210.540154 220.268832 211.301891 220.268832 
z
" style="fill:#feec9f;fill-opacity:0.3;stroke:#000000;stroke-opacity:0.3;"/>
    <path clip-path="url(#p2b97a2776b)" d="M 218.394384 235.479123 
C 219.108465 235.479123 219.793395 235.195415 220.298327 234.690484 
C 220.803259 234.185552 221.086966 233.500621 221.086966 232.78654 
C 221.086966 232.072459 220.803259 231.387529 220.298327 230.882597 
C 219.793395 230.377665 219.108465 230.093958 218.394384 230.093958 
C 217.680302 230.093958 216.995372 230.377665 216.49044 230.882597 
C 215.985509 231.387529 215.701801 232.072459 215.701801 232.78654 
C 215.701801 233.500621 215.985509 234.185552 216.49044 234.690484 
C 216.995372 235.195415 217.680302 235.479123 218.394384 235.479123 
z
" style="fill:#fff5ae;fill-opacity:0.3;stroke:#000000;stroke-opacity:0.3;"/>
    <path clip-path="url(#p2b97a2776b)" d="M 226.67522 276.745213 
C 227.376881 276.745213 228.049899 276.46644 228.546048 275.97029 
C 229.042198 275.474141 229.320971 274.801123 229.320971 274.099462 
C 229.320971 273.3978 229.042198 272.724782 228.546048 272.228633 
C 228.049899 271.732483 227.376881 271.45371 226.67522 271.45371 
C 225.973558 271.45371 225.300541 271.732483 224.804391 272.228633 
C 224.308242 272.724782 224.029468 273.3978 224.029468 274.099462 
C 224.029468 274.801123 224.308242 275.474141 224.804391 275.97029 
C 225.300541 276.46644 225.973558 276.745213 226.67522 276.745213 
z
" style="fill:#e9f6a1;fill-opacity:0.3;stroke:#000000;stroke-opacity:0.3;"/>
    <path clip-path="url(#p2b97a2776b)" d="M 227.378925 260.702567 
C 228.055063 260.702567 228.703599 260.433935 229.181701 259.955833 
C 229.659803 259.477732 229.928435 258.829196 229.928435 258.153058 
C 229.928435 257.47692 229.659803 256.828384 229.181701 256.350282 
C 228.703599 255.87218 228.055063 255.603548 227.378925 255.603548 
C 226.702788 255.603548 226.054252 255.87218 225.57615 256.350282 
C 225.098048 256.828384 224.829416 257.47692 224.829416 258.153058 
C 224.829416 258.829196 225.098048 259.477732 225.57615 259.955833 
C 226.054252 260.433935 226.702788 260.702567 227.378925 260.702567 
z
" style="fill:#f5fbb2;fill-opacity:0.3;stroke:#000000;stroke-opacity:0.3;"/>
    <path clip-path="url(#p2b97a2776b)" d="M 209.485092 142.056844 
C 210.107048 142.056844 210.703615 141.809738 211.143404 141.369948 
C 211.583194 140.930159 211.8303 140.333592 211.8303 139.711636 
C 211.8303 139.089679 211.583194 138.493113 211.143404 138.053323 
C 210.703615 137.613534 210.107048 137.366428 209.485092 137.366428 
C 208.863135 137.366428 208.266569 137.613534 207.826779 138.053323 
C 207.38699 138.493113 207.139884 139.089679 207.139884 139.711636 
C 207.139884 140.333592 207.38699 140.930159 207.826779 141.369948 
C 208.266569 141.809738 208.863135 142.056844 209.485092 142.056844 
z
" style="fill:#fdad60;fill-opacity:0.3;stroke:#000000;stroke-opacity:0.3;"/>
   </g>
   <g id="PathCollection_2">
    <path clip-path="url(#p2b97a2776b)" d="M 539.748141 443.188109 
C 543.243896 443.188109 546.596945 441.799231 549.068817 439.327359 
C 551.540689 436.855487 552.929567 433.502438 552.929567 430.006683 
C 552.929567 426.510928 551.540689 423.157879 549.068817 420.686007 
C 546.596945 418.214135 543.243896 416.825256 539.748141 416.825256 
C 536.252386 416.825256 532.899337 418.214135 530.427465 420.686007 
C 527.955593 423.157879 526.566714 426.510928 526.566714 430.006683 
C 526.566714 433.502438 527.955593 436.855487 530.427465 439.327359 
C 532.899337 441.799231 536.252386 443.188109 539.748141 443.188109 
z
" style="fill:#6ec064;fill-opacity:0.3;stroke:#000000;stroke-opacity:0.3;"/>
    <path clip-path="url(#p2b97a2776b)" d="M 538.459014 195.96916 
C 540.633841 195.96916 542.719886 195.105092 544.257721 193.567257 
C 545.795556 192.029422 546.659624 189.943378 546.659624 187.768551 
C 546.659624 185.593723 545.795556 183.507679 544.257721 181.969844 
C 542.719886 180.432009 540.633841 179.567941 538.459014 179.567941 
C 536.284187 179.567941 534.198142 180.432009 532.660307 181.969844 
C 531.122472 183.507679 530.258404 185.593723 530.258404 187.768551 
C 530.258404 189.943378 531.122472 192.029422 532.660307 193.567257 
C 534.198142 195.105092 536.284187 195.96916 538.459014 195.96916 
z
" style="fill:#d83128;fill-opacity:0.3;stroke:#000000;stroke-opacity:0.3;"/>
    <path clip-path="url(#p2b97a2776b)" d="M 556.856623 395.011355 
C 558.961607 395.011355 560.98066 394.175036 562.469109 392.686587 
C 563.957558 391.198138 564.793877 389.179085 564.793877 387.074101 
C 564.793877 384.969116 563.957558 382.950063 562.469109 381.461615 
C 560.98066 379.973166 558.961607 379.136847 556.856623 379.136847 
C 554.751638 379.136847 552.732585 379.973166 551.244137 381.461615 
C 549.755688 382.950063 548.919369 384.969116 548.919369 387.074101 
C 548.919369 389.179085 549.755688 391.198138 551.244137 392.686587 
C 552.732585 394.175036 554.751638 395.011355 556.856623 395.011355 
z
" style="fill:#93d168;fill-opacity:0.3;stroke:#000000;stroke-opacity:0.3;"/>
    <path clip-path="url(#p2b97a2776b)" d="M 533.100407 451.277663 
C 534.903983 451.277663 536.633932 450.561094 537.909253 449.285774 
C 539.184574 448.010453 539.901143 446.280504 539.901143 444.476928 
C 539.901143 442.673351 539.184574 440.943402 537.909253 439.668082 
C 536.633932 438.392761 534.903983 437.676192 533.100407 437.676192 
C 531.296831 437.676192 529.566882 438.392761 528.291561 439.668082 
C 527.01624 440.943402 526.299672 442.673351 526.299672 444.476928 
C 526.299672 446.280504 527.01624 448.010453 528.291561 449.285774 
C 529.566882 450.561094 531.296831 451.277663 533.100407 451.277663 
z
" style="fill:#4bb05c;fill-opacity:0.3;stroke:#000000;stroke-opacity:0.3;"/>
    <path clip-path="url(#p2b97a2776b)" d="M 540.719176 462.539656 
C 542.025149 462.539656 543.27781 462.020787 544.201273 461.097324 
C 545.124736 460.173861 545.643604 458.921201 545.643604 457.615227 
C 545.643604 456.309253 545.124736 455.056593 544.201273 454.13313 
C 543.27781 453.209667 542.025149 452.690798 540.719176 452.690798 
C 539.413202 452.690798 538.160541 453.209667 537.237079 454.13313 
C 536.313616 455.056593 535.794747 456.309253 535.794747 457.615227 
C 535.794747 458.921201 536.313616 460.173861 537.237079 461.097324 
C 538.160541 462.020787 539.413202 462.539656 540.719176 462.539656 
z
" style="fill:#45ad5b;fill-opacity:0.3;stroke:#000000;stroke-opacity:0.3;"/>
    <path clip-path="url(#p2b97a2776b)" d="M 544.851048 469.739861 
C 545.983996 469.739861 547.070694 469.289736 547.871809 468.48862 
C 548.672925 467.687505 549.12305 466.600807 549.12305 465.467859 
C 549.12305 464.334911 548.672925 463.248213 547.871809 462.447097 
C 547.070694 461.645982 545.983996 461.195857 544.851048 461.195857 
C 543.7181 461.195857 542.631402 461.645982 541.830286 462.447097 
C 541.029171 463.248213 540.579046 464.334911 540.579046 465.467859 
C 540.579046 466.600807 541.029171 467.687505 541.830286 468.48862 
C 542.631402 469.289736 543.7181 469.739861 544.851048 469.739861 
z
" style="fill:#2da155;fill-opacity:0.3;stroke:#000000;stroke-opacity:0.3;"/>
    <path clip-path="url(#p2b97a2776b)" d="M 531.64878 318.151447 
C 532.538298 318.151447 533.391503 317.798037 534.020488 317.169053 
C 534.649472 316.540069 535.002882 315.686863 535.002882 314.797345 
C 535.002882 313.907827 534.649472 313.054621 534.020488 312.425637 
C 533.391503 311.796652 532.538298 311.443243 531.64878 311.443243 
C 530.759261 311.443243 529.906056 311.796652 529.277071 312.425637 
C 528.648087 313.054621 528.294678 313.907827 528.294678 314.797345 
C 528.294678 315.686863 528.648087 316.540069 529.277071 317.169053 
C 529.906056 317.798037 530.759261 318.151447 531.64878 318.151447 
z
" style="fill:#fdb567;fill-opacity:0.3;stroke:#000000;stroke-opacity:0.3;"/>
    <path clip-path="url(#p2b97a2776b)" d="M 544.290751 419.721463 
C 545.180269 419.721463 546.033475 419.368054 546.662459 418.73907 
C 547.291444 418.110085 547.644853 417.25688 547.644853 416.367361 
C 547.644853 415.477843 547.291444 414.624638 546.662459 413.995653 
C 546.033475 413.366669 545.180269 413.013259 544.290751 413.013259 
C 543.401233 413.013259 542.548027 413.366669 541.919043 413.995653 
C 541.290058 414.624638 540.936649 415.477843 540.936649 416.367361 
C 540.936649 417.25688 541.290058 418.110085 541.919043 418.73907 
C 542.548027 419.368054 543.401233 419.721463 544.290751 419.721463 
z
" style="fill:#69be63;fill-opacity:0.3;stroke:#000000;stroke-opacity:0.3;"/>
    <path clip-path="url(#p2b97a2776b)" d="M 554.392265 356.8947 
C 555.281783 356.8947 556.134988 356.54129 556.763973 355.912306 
C 557.392957 355.283322 557.746366 354.430116 557.746366 353.540598 
C 557.746366 352.65108 557.392957 351.797874 556.763973 351.16889 
C 556.134988 350.539905 555.281783 350.186496 554.392265 350.186496 
C 553.502746 350.186496 552.649541 350.539905 552.020556 351.16889 
C 551.391572 351.797874 551.038163 352.65108 551.038163 353.540598 
C 551.038163 354.430116 551.391572 355.283322 552.020556 355.912306 
C 552.649541 356.54129 553.502746 356.8947 554.392265 356.8947 
z
" style="fill:#ddf191;fill-opacity:0.3;stroke:#000000;stroke-opacity:0.3;"/>
    <path clip-path="url(#p2b97a2776b)" d="M 533.256582 524.339779 
C 534.126109 524.339779 534.960139 523.994312 535.574987 523.379464 
C 536.189835 522.764616 536.535301 521.930586 536.535301 521.06106 
C 536.535301 520.191533 536.189835 519.357503 535.574987 518.742655 
C 534.960139 518.127807 534.126109 517.78234 533.256582 517.78234 
C 532.387056 517.78234 531.553025 518.127807 530.938177 518.742655 
C 530.323329 519.357503 529.977863 520.191533 529.977863 521.06106 
C 529.977863 521.930586 530.323329 522.764616 530.938177 523.379464 
C 531.553025 523.994312 532.387056 524.339779 533.256582 524.339779 
z
" style="fill:#70c164;fill-opacity:0.3;stroke:#000000;stroke-opacity:0.3;"/>
    <path clip-path="url(#p2b97a2776b)" d="M 552.561635 444.356778 
C 553.420992 444.356778 554.245267 444.015352 554.852923 443.407696 
C 555.46058 442.800039 555.802006 441.975764 555.802006 441.116408 
C 555.802006 440.257052 555.46058 439.432777 554.852923 438.82512 
C 554.245267 438.217463 553.420992 437.876038 552.561635 437.876038 
C 551.702279 437.876038 550.878004 438.217463 550.270348 438.82512 
C 549.662691 439.432777 549.321265 440.257052 549.321265 441.116408 
C 549.321265 441.975764 549.662691 442.800039 550.270348 443.407696 
C 550.878004 444.015352 551.702279 444.356778 552.561635 444.356778 
z
" style="fill:#73c264;fill-opacity:0.3;stroke:#000000;stroke-opacity:0.3;"/>
    <path clip-path="url(#p2b97a2776b)" d="M 544.325699 275.2402 
C 545.164345 275.2402 545.968755 274.907002 546.561767 274.31399 
C 547.154779 273.720978 547.487977 272.916568 547.487977 272.077922 
C 547.487977 271.239276 547.154779 270.434866 546.561767 269.841854 
C 545.968755 269.248842 545.164345 268.915645 544.325699 268.915645 
C 543.487054 268.915645 542.682644 269.248842 542.089631 269.841854 
C 541.496619 270.434866 541.163422 271.239276 541.163422 272.077922 
C 541.163422 272.916568 541.496619 273.720978 542.089631 274.31399 
C 542.682644 274.907002 543.487054 275.2402 544.325699 275.2402 
z
" style="fill:#f1f9ac;fill-opacity:0.3;stroke:#000000;stroke-opacity:0.3;"/>
    <path clip-path="url(#p2b97a2776b)" d="M 548.385363 164.584458 
C 549.158556 164.584458 549.900185 164.277265 550.446916 163.730535 
C 550.993646 163.183805 551.300839 162.442176 551.300839 161.668982 
C 551.300839 160.895789 550.993646 160.15416 550.446916 159.607429 
C 549.900185 159.060699 549.158556 158.753506 548.385363 158.753506 
C 547.61217 158.753506 546.87054 159.060699 546.32381 159.607429 
C 545.77708 160.15416 545.469887 160.895789 545.469887 161.668982 
C 545.469887 162.442176 545.77708 163.183805 546.32381 163.730535 
C 546.87054 164.277265 547.61217 164.584458 548.385363 164.584458 
z
" style="fill:#a50026;fill-opacity:0.3;stroke:#000000;stroke-opacity:0.3;"/>
    <path clip-path="url(#p2b97a2776b)" d="M 536.680908 318.374695 
C 537.442646 318.374695 538.173288 318.072054 538.711918 317.533424 
C 539.250548 316.994794 539.55319 316.264152 539.55319 315.502414 
C 539.55319 314.740676 539.250548 314.010035 538.711918 313.471404 
C 538.173288 312.932774 537.442646 312.630133 536.680908 312.630133 
C 535.91917 312.630133 535.188529 312.932774 534.649899 313.471404 
C 534.111269 314.010035 533.808627 314.740676 533.808627 315.502414 
C 533.808627 316.264152 534.111269 316.994794 534.649899 317.533424 
C 535.188529 318.072054 535.91917 318.374695 536.680908 318.374695 
z
" style="fill:#feec9f;fill-opacity:0.3;stroke:#000000;stroke-opacity:0.3;"/>
    <path clip-path="url(#p2b97a2776b)" d="M 543.262092 258.279503 
C 543.976173 258.279503 544.661103 257.995795 545.166035 257.490864 
C 545.670967 256.985932 545.954674 256.301002 545.954674 255.586921 
C 545.954674 254.872839 545.670967 254.187909 545.166035 253.682977 
C 544.661103 253.178046 543.976173 252.894338 543.262092 252.894338 
C 542.54801 252.894338 541.86308 253.178046 541.358148 253.682977 
C 540.853217 254.187909 540.569509 254.872839 540.569509 255.586921 
C 540.569509 256.301002 540.853217 256.985932 541.358148 257.490864 
C 541.86308 257.995795 542.54801 258.279503 543.262092 258.279503 
z
" style="fill:#fff5ae;fill-opacity:0.3;stroke:#000000;stroke-opacity:0.3;"/>
    <path clip-path="url(#p2b97a2776b)" d="M 530.795178 310.320024 
C 531.49684 310.320024 532.169858 310.041251 532.666007 309.545102 
C 533.162157 309.048952 533.44093 308.375934 533.44093 307.674273 
C 533.44093 306.972611 533.162157 306.299594 532.666007 305.803444 
C 532.169858 305.307295 531.49684 305.028522 530.795178 305.028522 
C 530.093517 305.028522 529.420499 305.307295 528.92435 305.803444 
C 528.4282 306.299594 528.149427 306.972611 528.149427 307.674273 
C 528.149427 308.375934 528.4282 309.048952 528.92435 309.545102 
C 529.420499 310.041251 530.093517 310.320024 530.795178 310.320024 
z
" style="fill:#e9f6a1;fill-opacity:0.3;stroke:#000000;stroke-opacity:0.3;"/>
    <path clip-path="url(#p2b97a2776b)" d="M 535.880564 362.150015 
C 536.556702 362.150015 537.205238 361.881383 537.68334 361.403281 
C 538.161442 360.925179 538.430074 360.276643 538.430074 359.600505 
C 538.430074 358.924367 538.161442 358.275831 537.68334 357.79773 
C 537.205238 357.319628 536.556702 357.050995 535.880564 357.050995 
C 535.204427 357.050995 534.555891 357.319628 534.077789 357.79773 
C 533.599687 358.275831 533.331055 358.924367 533.331055 359.600505 
C 533.331055 360.276643 533.599687 360.925179 534.077789 361.403281 
C 534.555891 361.881383 535.204427 362.150015 535.880564 362.150015 
z
" style="fill:#f5fbb2;fill-opacity:0.3;stroke:#000000;stroke-opacity:0.3;"/>
    <path clip-path="url(#p2b97a2776b)" d="M 538.643437 179.263156 
C 539.265393 179.263156 539.86196 179.01605 540.301749 178.576261 
C 540.741539 178.136471 540.988645 177.539905 540.988645 176.917948 
C 540.988645 176.295992 540.741539 175.699425 540.301749 175.259636 
C 539.86196 174.819846 539.265393 174.57274 538.643437 174.57274 
C 538.021481 174.57274 537.424914 174.819846 536.985125 175.259636 
C 536.545335 175.699425 536.298229 176.295992 536.298229 176.917948 
C 536.298229 177.539905 536.545335 178.136471 536.985125 178.576261 
C 537.424914 179.01605 538.021481 179.263156 538.643437 179.263156 
z
" style="fill:#fdad60;fill-opacity:0.3;stroke:#000000;stroke-opacity:0.3;"/>
   </g>
   <g id="line2d_1">
    <path clip-path="url(#p2b97a2776b)" d="M 192.702265 411.211038 
L 241.686811 411.211038 
L 241.686811 221.244048 
L 192.702265 221.244048 
L 192.702265 411.211038 
" style="fill:none;stroke:#0000ff;stroke-linecap:square;"/>
   </g>
   <g id="line2d_2">
    <path clip-path="url(#p2b97a2776b)" d="M 217.194538 411.211038 
L 217.194538 463.542345 
" style="fill:none;stroke:#0000ff;stroke-dasharray:6.000000,6.000000;stroke-dashoffset:0.0;"/>
   </g>
   <g id="line2d_3">
    <path clip-path="url(#p2b97a2776b)" d="M 217.194538 221.244048 
L 217.194538 58.478926 
" style="fill:none;stroke:#0000ff;stroke-dasharray:6.000000,6.000000;stroke-dashoffset:0.0;"/>
   </g>
   <g id="line2d_4">
    <path clip-path="url(#p2b97a2776b)" d="M 204.948402 463.542345 
L 229.440675 463.542345 
" style="fill:none;stroke:#000000;stroke-linecap:square;"/>
   </g>
   <g id="line2d_5">
    <path clip-path="url(#p2b97a2776b)" d="M 204.948402 58.478926 
L 229.440675 58.478926 
" style="fill:none;stroke:#000000;stroke-linecap:square;"/>
   </g>
   <g id="line2d_6">
    <path clip-path="url(#p2b97a2776b)" d="M 192.702265 285.589395 
L 241.686811 285.589395 
" style="fill:none;stroke:#ff0000;stroke-linecap:square;"/>
   </g>
   <g id="line2d_7"/>
   <g id="line2d_8">
    <path clip-path="url(#p2b97a2776b)" d="M 519.265906 438.338977 
L 568.250452 438.338977 
L 568.250452 280.97701 
L 519.265906 280.97701 
L 519.265906 438.338977 
" style="fill:none;stroke:#0000ff;stroke-linecap:square;"/>
   </g>
   <g id="line2d_9">
    <path clip-path="url(#p2b97a2776b)" d="M 543.758179 438.338977 
L 543.758179 521.06106 
" style="fill:none;stroke:#0000ff;stroke-dasharray:6.000000,6.000000;stroke-dashoffset:0.0;"/>
   </g>
   <g id="line2d_10">
    <path clip-path="url(#p2b97a2776b)" d="M 543.758179 280.97701 
L 543.758179 161.668982 
" style="fill:none;stroke:#0000ff;stroke-dasharray:6.000000,6.000000;stroke-dashoffset:0.0;"/>
   </g>
   <g id="line2d_11">
    <path clip-path="url(#p2b97a2776b)" d="M 531.512043 521.06106 
L 556.004316 521.06106 
" style="fill:none;stroke:#000000;stroke-linecap:square;"/>
   </g>
   <g id="line2d_12">
    <path clip-path="url(#p2b97a2776b)" d="M 531.512043 161.668982 
L 556.004316 161.668982 
" style="fill:none;stroke:#000000;stroke-linecap:square;"/>
   </g>
   <g id="line2d_13">
    <path clip-path="url(#p2b97a2776b)" d="M 519.265906 356.570552 
L 568.250452 356.570552 
" style="fill:none;stroke:#ff0000;stroke-linecap:square;"/>
   </g>
   <g id="line2d_14"/>
   <g id="patch_3">
    <path d="M 53.912718 547.897914 
L 53.912718 28.604774 
" style="fill:none;stroke:#000000;stroke-linecap:square;stroke-linejoin:miter;"/>
   </g>
   <g id="patch_4">
    <path d="M 707.04 547.897914 
L 707.04 28.604774 
" style="fill:none;stroke:#000000;stroke-linecap:square;stroke-linejoin:miter;"/>
   </g>
   <g id="patch_5">
    <path d="M 53.912718 28.604774 
L 707.04 28.604774 
" style="fill:none;stroke:#000000;stroke-linecap:square;stroke-linejoin:miter;"/>
   </g>
   <g id="patch_6">
    <path d="M 53.912718 547.897914 
L 707.04 547.897914 
" style="fill:none;stroke:#000000;stroke-linecap:square;stroke-linejoin:miter;"/>
   </g>
   <g id="matplotlib.axis_1">
    <g id="xtick_1">
     <g id="line2d_15">
      <defs>
       <path d="M 0 0 
L 0 -4 
" id="m8634743742" style="stroke:#000000;stroke-width:0.5;"/>
      </defs>
      <g>
       <use style="stroke:#000000;stroke-width:0.5;" x="217.194538194" xlink:href="#m8634743742" y="547.897914413"/>
      </g>
     </g>
     <g id="line2d_16">
      <defs>
       <path d="M 0 0 
L 0 4 
" id="mff61a59d19" style="stroke:#000000;stroke-width:0.5;"/>
      </defs>
      <g>
       <use style="stroke:#000000;stroke-width:0.5;" x="217.194538194" xlink:href="#mff61a59d19" y="28.6047744785"/>
      </g>
     </g>
     <g id="text_1">
      <!-- Survival Rate -->
      <defs>
       <path d="M 19.796875 46 
L 2.09375 46 
L 2.09375 41.21875 
L 6.203125 41.21875 
C 9.90625 41.21875 10.5 40.515625 10.5 36.203125 
L 10.5 12.296875 
L 10.5 8.296875 
C 10.5 4.296875 9.40625 3.59375 2.90625 3.59375 
L 2.5 3.59375 
L 2.5 0 
L 29.203125 0 
L 29.203125 3.59375 
L 27.296875 3.59375 
C 20.90625 3.59375 19.796875 4.296875 19.796875 8.296875 
L 19.796875 12.296875 
L 19.796875 13.296875 
C 19.796875 20.8125 21.203125 28.40625 23.703125 34.109375 
C 26.09375 39.703125 29.5 42.8125 33.703125 43.3125 
C 32.296875 41.703125 31.90625 40.6875 31.90625 38.765625 
C 31.90625 35.546875 34.203125 33.234375 37.40625 33.234375 
C 41 33.234375 43.5 35.9375 43.5 40.015625 
C 43.5 44.8125 40.09375 48 34.796875 48 
C 28.5 48 23 42.921875 19.796875 34.140625 
z
" id="Century_Schoolbook_L_Roman-114"/>
       <path d="M 29.5 12.09375 
L 18.09375 38.59375 
C 17.796875 39.203125 17.59375 40.09375 17.59375 40.703125 
C 17.59375 42.390625 18.90625 43 23 43 
L 24.40625 43 
L 24.40625 46.59375 
L 0.796875 46.59375 
L 0.796875 43 
L 1.59375 43 
C 5.40625 43 6.796875 42.09375 8.203125 38.703125 
L 25.40625 -1.5 
L 28.90625 -1.5 
L 43.09375 33.59375 
C 45.796875 40.203125 48.59375 43 52.40625 43 
L 52.796875 43 
L 52.796875 46.59375 
L 32.796875 46.59375 
L 32.796875 43 
L 34.203125 43 
C 37.703125 43 39.59375 41.796875 39.59375 39.5 
C 39.59375 38.390625 39.203125 36.796875 38.703125 35.296875 
z
" id="Century_Schoolbook_L_Roman-118"/>
       <path d="M 20.40625 73 
L 1.90625 73 
L 1.90625 68.21875 
L 6.796875 68.21875 
C 10.40625 68.21875 11 67.515625 11 63.21875 
L 11 12.28125 
L 11 8.28125 
C 11 4.296875 9.90625 3.59375 3.5 3.59375 
L 2.796875 3.59375 
L 2.796875 0 
L 28.703125 0 
L 28.703125 3.59375 
L 28 3.59375 
C 21.5 3.59375 20.40625 4.296875 20.40625 8.25 
L 20.40625 12.21875 
z
" id="Century_Schoolbook_L_Roman-108"/>
       <path d="M 54.59375 72 
L 50.90625 72 
L 46.90625 66.09375 
C 42.203125 70.59375 35.796875 73 28.703125 73 
C 15.59375 73 6.796875 64.609375 6.796875 52.15625 
C 6.796875 41.28125 12.203125 35.890625 26.90625 32.109375 
L 36.40625 29.703125 
C 43.796875 27.828125 44.5 27.625 46.59375 26.03125 
C 49.59375 23.734375 51.203125 20.4375 51.203125 16.546875 
C 51.203125 12.5625 49.703125 9.28125 46.703125 6.59375 
C 43.40625 3.6875 40.09375 2.59375 34.59375 2.59375 
C 27.203125 2.59375 21.90625 4.875 17.203125 10.03125 
C 13 14.703125 10.90625 19.375 9.40625 27 
L 5.09375 27 
L 5.5 -1.4375 
L 9.40625 -1.4375 
L 13.90625 5.46875 
C 20.59375 0 26.203125 -2 34.90625 -2 
C 49.59375 -2 59 6.59375 59 19.9375 
C 59 26.109375 56.90625 31.40625 53 35.203125 
C 50.296875 37.796875 46.40625 39.484375 38.40625 41.484375 
L 27.703125 44.171875 
C 18.796875 46.46875 14.59375 50.359375 14.59375 56.4375 
C 14.59375 63.40625 20.296875 68.203125 28.796875 68.203125 
C 35.796875 68.203125 41.5 65.1875 45.5 59.484375 
C 48.40625 55.375 50.203125 51.15625 51.5 46.046875 
L 55.796875 46.046875 
z
" id="Century_Schoolbook_L_Roman-83"/>
       <path d="M 24.59375 35 
L 30.40625 35 
C 34.296875 35 38.296875 33.796875 40.5 31.984375 
C 43.40625 29.6875 44.90625 26.078125 45.59375 19.46875 
L 46.09375 14.34375 
C 47.296875 3.015625 51 -1.59375 58.90625 -1.59375 
C 67.09375 -1.59375 71 3.921875 71.296875 15.921875 
L 67.09375 15.921875 
C 66.703125 9 65.5 6 62.796875 6 
C 60.5 6 59.5 7.703125 57.796875 14.625 
L 56.203125 20.9375 
C 54 30.171875 50.09375 34.375 42.296875 36.390625 
C 56.703125 38.390625 63.59375 44.140625 63.59375 54.1875 
C 63.59375 65.53125 54 72 37.203125 72 
L 2.59375 72 
L 2.59375 67.3125 
L 4.40625 67.3125 
C 12.5 67.3125 13.40625 66.8125 13.40625 62.609375 
L 13.40625 59.71875 
L 13.40625 12.171875 
L 13.40625 9.375 
C 13.40625 5.1875 12.5 4.6875 4.40625 4.6875 
L 2.59375 4.6875 
L 2.59375 0 
L 35.40625 0 
L 35.40625 4.6875 
L 33.59375 4.6875 
C 25.5 4.6875 24.59375 5.1875 24.59375 9.390625 
L 24.59375 12.1875 
z
M 24.59375 39.6875 
L 24.59375 61.546875 
C 24.59375 65.53125 24.703125 65.8125 25.703125 66.609375 
C 26.5 67.203125 27.203125 67.3125 31.5 67.3125 
L 36.90625 67.3125 
C 46.796875 67.3125 51.296875 63.125 51.296875 54.09375 
C 51.296875 49.015625 50 45.140625 47.40625 43.0625 
C 44.90625 40.984375 40.40625 39.6875 35.59375 39.6875 
z
" id="Century_Schoolbook_L_Roman-82"/>
       <path d="M 20.59375 46 
L 1.796875 46 
L 1.796875 41.21875 
L 6.90625 41.21875 
C 10.59375 41.21875 11.203125 40.515625 11.203125 36.203125 
L 11.203125 12.296875 
L 11.203125 8.296875 
C 11.203125 4.296875 10.09375 3.59375 3.703125 3.59375 
L 3 3.59375 
L 3 0 
L 28.90625 0 
L 28.90625 3.59375 
L 28.203125 3.59375 
C 21.703125 3.59375 20.59375 4.28125 20.59375 8.21875 
L 20.59375 12.171875 
z
M 15.90625 71.578125 
C 12.703125 71.578125 10.09375 68.984375 10.09375 65.796875 
C 10.09375 62.703125 12.703125 60 15.796875 60 
C 19.09375 60 21.703125 62.59375 21.703125 65.796875 
C 21.703125 68.984375 19.09375 71.578125 15.90625 71.578125 
" id="Century_Schoolbook_L_Roman-105"/>
       <path d="M 41.203125 0 
L 59.40625 0 
L 59.40625 4.703125 
L 56.90625 4.703125 
C 51.40625 4.703125 50.59375 5.59375 50.59375 11.953125 
L 50.59375 46.78125 
L 31.796875 46.78125 
L 31.796875 42 
L 36.90625 42 
C 40.59375 42 41.203125 41.296875 41.203125 36.953125 
L 41.203125 24.5625 
C 41.203125 18.8125 40.59375 15.484375 39.09375 12.15625 
C 37 7.71875 33 5.09375 28.09375 5.09375 
C 25 5.09375 22.40625 6.1875 21.09375 8.171875 
C 19.796875 10.046875 19.59375 11.046875 19.59375 16.5 
L 19.59375 46.78125 
L 2.09375 46.78125 
L 2.09375 42 
L 5.90625 42 
C 9.59375 42 10.203125 41.296875 10.203125 36.953125 
L 10.203125 15.21875 
C 10.203125 10.078125 10.59375 7.765625 12.09375 5.453125 
C 14.796875 1.3125 19.59375 -1 25.59375 -1 
C 32.203125 -1 36.796875 1.71875 41.203125 8.125 
z
" id="Century_Schoolbook_L_Roman-117"/>
       <path d="M 19.40625 47 
L 19.40625 67 
L 15.296875 67 
C 14.296875 53.875 9.90625 47.1875 1.796875 46.59375 
L 1.796875 42.703125 
L 10 42.703125 
L 10 17.265625 
C 10 10.28125 10.203125 7.78125 11.203125 5.484375 
C 12.796875 1.296875 16.796875 -1 22.59375 -1 
C 26.5 -1 29.90625 0.203125 32.203125 2.390625 
C 35.5 5.59375 37.40625 10.875 37.40625 16.375 
C 37.40625 16.96875 37.40625 17.671875 37.296875 18.671875 
L 33.09375 18.671875 
C 32.796875 9.6875 30.203125 5.09375 25.296875 5.09375 
C 23 5.09375 21 6.28125 20.296875 7.984375 
C 19.703125 9.375 19.40625 11.875 19.40625 15.46875 
L 19.40625 42.703125 
L 34.09375 42.703125 
L 34.09375 47 
z
" id="Century_Schoolbook_L_Roman-116"/>
       <path d="M 46.5 23 
C 46.59375 37.8125 38.09375 48.28125 25.90625 48.28125 
C 13.09375 48.28125 3.5 37.25 3.5 22.34375 
C 3.5 8.4375 12.59375 -1 26.09375 -1 
C 35.59375 -1 42.40625 3.6875 46.5 13.1875 
L 43 15.09375 
C 38.90625 7.390625 34.703125 4.390625 28 4.390625 
C 22.90625 4.390625 19.203125 6.59375 16.59375 11 
C 14.796875 14 14 17.5 14.09375 23 
z
M 14.203125 27.296875 
C 14.203125 30.34375 14.59375 32.5 15.59375 35.25 
C 17.703125 41.140625 20.90625 44 25.703125 44 
C 31.796875 44 35.796875 38.78125 35.796875 30.921875 
C 35.796875 28.078125 34.90625 27.296875 31.703125 27.296875 
z
" id="Century_Schoolbook_L_Roman-101"/>
       <path d="M 45.203125 32.578125 
C 45.203125 38.796875 44.09375 41.96875 41.203125 44.34375 
C 37.90625 46.90625 33 48.28125 26.59375 48.28125 
C 15.40625 48.28125 7.09375 43.046875 7.09375 35.921875 
C 7.09375 32.15625 9.40625 29.78125 12.90625 29.78125 
C 16 29.78125 18.296875 31.859375 18.296875 34.8125 
C 18.296875 36.109375 17.796875 37.484375 16.796875 38.875 
C 16.203125 39.546875 16.09375 39.84375 16.09375 40.15625 
C 16.09375 42.21875 20.203125 44 25 44 
C 28.09375 44 31.59375 43.015625 33.203125 41.53125 
C 35.09375 39.953125 35.796875 37.578125 35.796875 33.125 
L 35.796875 29.28125 
C 25.296875 27.484375 22.09375 26.6875 17.203125 24.8125 
C 8.59375 21.609375 4.40625 16.9375 4.40625 10.65625 
C 4.40625 3.578125 10.09375 -1 18.90625 -1 
C 25.796875 -1 32 1.859375 36.296875 7.0625 
C 37.90625 1.984375 40.40625 0 45.09375 0 
C 49.59375 0 54.296875 2.90625 54.296875 5.78125 
C 54.296875 6.46875 53.796875 6.96875 53.296875 6.96875 
C 52.90625 6.96875 52.5 6.875 51.796875 6.578125 
C 50.203125 6 49.796875 5.890625 49 5.890625 
C 46.203125 5.890625 45.203125 7.78125 45.203125 12.71875 
z
M 35.796875 20.46875 
C 35.796875 14.46875 35.5 13.078125 33.796875 10.484375 
C 31.296875 6.78125 26.703125 4.296875 22.40625 4.296875 
C 17.90625 4.296875 14.5 7.59375 14.5 12.078125 
C 14.5 16.265625 16.59375 19.265625 21 21.359375 
C 24.09375 22.75 28 23.75 35.796875 25.046875 
z
" id="Century_Schoolbook_L_Roman-97"/>
      </defs>
      <g transform="translate(178.998220552 560.768564879)scale(0.12 -0.12)">
       <use transform="scale(0.9962640099626402)" xlink:href="#Century_Schoolbook_L_Roman-83"/>
       <use transform="translate(62.763978951004056 0.0)scale(0.9962640099626402)" xlink:href="#Century_Schoolbook_L_Roman-117"/>
       <use transform="translate(123.63560962795768 0.0)scale(0.9962640099626402)" xlink:href="#Century_Schoolbook_L_Roman-114"/>
       <use transform="translate(167.8691783254203 0.0)scale(0.9962640099626402)" xlink:href="#Century_Schoolbook_L_Roman-118"/>
       <use transform="translate(221.36852221649286 0.0)scale(0.9962640099626402)" xlink:href="#Century_Schoolbook_L_Roman-105"/>
       <use transform="translate(252.74983521267905 0.0)scale(0.9962640099626402)" xlink:href="#Century_Schoolbook_L_Roman-118"/>
       <use transform="translate(306.2491791037516 0.0)scale(0.9962640099626402)" xlink:href="#Century_Schoolbook_L_Roman-97"/>
       <use transform="translate(361.6408560670922 0.0)scale(0.9962640099626402)" xlink:href="#Century_Schoolbook_L_Roman-108"/>
       <use transform="translate(420.71733866652403 0.0)scale(0.9962640099626402)" xlink:href="#Century_Schoolbook_L_Roman-82"/>
       <use transform="translate(492.64732351338733 0.0)scale(0.9962640099626402)" xlink:href="#Century_Schoolbook_L_Roman-97"/>
       <use transform="translate(548.0390004767279 0.0)scale(0.9962640099626402)" xlink:href="#Century_Schoolbook_L_Roman-116"/>
       <use transform="translate(586.7927066712718 0.0)scale(0.9962640099626402)" xlink:href="#Century_Schoolbook_L_Roman-101"/>
      </g>
     </g>
    </g>
    <g id="xtick_2">
     <g id="line2d_17">
      <g>
       <use style="stroke:#000000;stroke-width:0.5;" x="543.758179398" xlink:href="#m8634743742" y="547.897914413"/>
      </g>
     </g>
     <g id="line2d_18">
      <g>
       <use style="stroke:#000000;stroke-width:0.5;" x="543.758179398" xlink:href="#mff61a59d19" y="28.6047744785"/>
      </g>
     </g>
     <g id="text_2">
      <!-- Kaplan-Meier -->
      <defs>
       <path d="M 4.203125 27.28125 
L 4.203125 19 
L 29.09375 19 
L 29.09375 27.28125 
z
" id="Century_Schoolbook_L_Roman-45"/>
       <path d="M 20 46 
L 2.703125 46 
L 2.703125 41.21875 
L 6.296875 41.21875 
C 10 41.21875 10.59375 40.515625 10.59375 36.203125 
L 10.59375 12.296875 
L 10.59375 8.296875 
C 10.59375 4.296875 9.5 3.59375 3.09375 3.59375 
L 2.703125 3.59375 
L 2.703125 0 
L 28 0 
L 28 3.59375 
L 27.59375 3.59375 
C 21.09375 3.59375 20 4.296875 20 8.28125 
L 20 12.28125 
L 20 22.65625 
C 20 27.546875 20.703125 32.03125 21.796875 34.328125 
C 23.90625 38.828125 28.40625 41.921875 32.703125 41.921875 
C 35.296875 41.921875 38.296875 40.421875 39.796875 38.421875 
C 41.296875 36.328125 42 33.234375 42 28.4375 
L 42 12.28125 
L 42 8.28125 
C 42 4.296875 40.90625 3.59375 34.40625 3.59375 
L 34 3.59375 
L 34 0 
L 59.296875 0 
L 59.296875 3.59375 
L 58.90625 3.59375 
C 52.5 3.59375 51.40625 4.296875 51.40625 8.28125 
L 51.40625 12.28125 
L 51.40625 27.953125 
C 51.40625 35.125 51.09375 36.921875 49.296875 40.328125 
C 46.796875 45.109375 41.703125 48 35.796875 48 
C 29.40625 48 24.40625 45.046875 20 38.515625 
z
" id="Century_Schoolbook_L_Roman-110"/>
       <path d="M 28.703125 72 
L 2.90625 72 
L 2.90625 67.3125 
L 4.796875 67.3125 
C 12.90625 67.3125 13.796875 66.8125 13.796875 62.59375 
L 13.796875 59.703125 
L 13.796875 21.390625 
C 13.796875 7.78125 11.796875 4.890625 2.203125 4.890625 
L 2.203125 0 
L 30.703125 0 
L 30.703125 4.890625 
C 21.203125 4.890625 19.203125 7.78125 19.203125 21.40625 
L 19.203125 65.625 
L 43 0 
L 47 0 
L 69.296875 65.625 
L 69.296875 12.453125 
L 69.296875 9.5625 
C 69.296875 5.296875 68.40625 4.890625 60.296875 4.890625 
L 58.5 4.890625 
L 58.5 0 
L 91.296875 0 
L 91.296875 4.890625 
L 89.5 4.890625 
C 81.40625 4.890625 80.5 5.296875 80.5 9.5625 
L 80.5 12.453125 
L 80.5 59.75 
L 80.5 62.625 
C 80.5 66.8125 81.40625 67.3125 89.5 67.3125 
L 91.296875 67.3125 
L 91.296875 72 
L 66.203125 72 
L 47.90625 18.84375 
z
" id="Century_Schoolbook_L_Roman-77"/>
       <path d="M 20.09375 46 
L 2.796875 46 
L 2.796875 41.21875 
L 6.40625 41.21875 
C 10.09375 41.21875 10.703125 40.515625 10.703125 36.21875 
L 10.703125 -7.75 
L 10.703125 -11.71875 
C 10.703125 -15.71875 9.59375 -16.40625 3.203125 -16.40625 
L 2.796875 -16.40625 
L 2.796875 -20 
L 28.796875 -20 
L 28.796875 -16.40625 
L 27.703125 -16.40625 
C 21.203125 -16.40625 20.09375 -15.71875 20.09375 -11.734375 
L 20.09375 -7.75 
L 20.09375 6.6875 
C 23.40625 0.90625 27.203125 -1.390625 33.296875 -1.390625 
C 44.90625 -1.390625 53.5 9.265625 53.5 23.5 
C 53.5 37.265625 44.90625 48 33.90625 48 
C 27.703125 48 23.59375 45.4375 20.09375 39.515625 
z
M 32.09375 42.609375 
C 39 42.609375 43 35.75 43 24.09375 
C 43 11.265625 38.90625 4 31.796875 4 
C 24.703125 4 20 11.375 20 22.8125 
C 20 35.140625 24.5 42.609375 32.09375 42.609375 
" id="Century_Schoolbook_L_Roman-112"/>
       <path d="M 25 32.609375 
L 25 59.71875 
L 25 62.609375 
C 25 66.8125 25.90625 67.3125 34 67.3125 
L 35.90625 67.3125 
L 35.90625 72 
L 3 72 
L 3 67.3125 
L 4.796875 67.3125 
C 12.90625 67.3125 13.796875 66.8125 13.796875 62.609375 
L 13.796875 59.71875 
L 13.796875 12.28125 
L 13.796875 9.375 
C 13.796875 5.1875 12.90625 4.6875 4.796875 4.6875 
L 3 4.6875 
L 3 0 
L 35.90625 0 
L 35.90625 4.6875 
L 34 4.6875 
C 25.90625 4.6875 25 5.1875 25 9.375 
L 25 12.28125 
L 25 24.9375 
L 36.59375 36.59375 
L 54 11.171875 
C 55.59375 8.78125 56 7.984375 56 6.984375 
C 56 5.390625 54.09375 4.6875 49.203125 4.6875 
L 46.09375 4.6875 
L 46.09375 0 
L 80.296875 0 
L 80.296875 4.6875 
L 78.40625 4.6875 
C 72.90625 4.6875 71.5 5.390625 68.59375 9.6875 
L 44.40625 44.46875 
L 59.296875 59.328125 
C 64.09375 64.40625 70.203125 67.3125 76.203125 67.3125 
L 76.203125 72 
L 45.40625 72 
L 45.40625 67.3125 
L 47.90625 67.3125 
C 52.5 67.3125 54.40625 66.40625 54.40625 64.3125 
C 54.40625 62.921875 52.40625 60.015625 49.5 57.140625 
z
" id="Century_Schoolbook_L_Roman-75"/>
      </defs>
      <g transform="translate(505.346596917 560.768564879)scale(0.12 -0.12)">
       <use transform="scale(0.9962640099626402)" xlink:href="#Century_Schoolbook_L_Roman-75"/>
       <use transform="translate(77.50837010137765 0.0)scale(0.9962640099626402)" xlink:href="#Century_Schoolbook_L_Roman-97"/>
       <use transform="translate(132.90004706471825 0.0)scale(0.9962640099626402)" xlink:href="#Century_Schoolbook_L_Roman-112"/>
       <use transform="translate(190.08553434873133 0.0)scale(0.9962640099626402)" xlink:href="#Century_Schoolbook_L_Roman-108"/>
       <use transform="translate(221.4668473449175 0.0)scale(0.9962640099626402)" xlink:href="#Century_Schoolbook_L_Roman-97"/>
       <use transform="translate(276.8585243082581 0.0)scale(0.9962640099626402)" xlink:href="#Century_Schoolbook_L_Roman-110"/>
       <use transform="translate(337.73015498521175 0.0)scale(0.9962640099626402)" xlink:href="#Century_Schoolbook_L_Roman-45"/>
       <use transform="translate(370.90538471454704 0.0)scale(0.9962640099626402)" xlink:href="#Century_Schoolbook_L_Roman-77"/>
       <use transform="translate(464.9521539101417 0.0)scale(0.9962640099626402)" xlink:href="#Century_Schoolbook_L_Roman-101"/>
       <use transform="translate(514.7653544082738 0.0)scale(0.9962640099626402)" xlink:href="#Century_Schoolbook_L_Roman-105"/>
       <use transform="translate(546.1466674044599 0.0)scale(0.9962640099626402)" xlink:href="#Century_Schoolbook_L_Roman-101"/>
       <use transform="translate(595.9598679025919 0.0)scale(0.9962640099626402)" xlink:href="#Century_Schoolbook_L_Roman-114"/>
      </g>
     </g>
    </g>
   </g>
   <g id="matplotlib.axis_2">
    <g id="ytick_1">
     <g id="line2d_19">
      <defs>
       <path d="M 0 0 
L 4 0 
" id="m42347b82ed" style="stroke:#000000;stroke-width:0.5;"/>
      </defs>
      <g>
       <use style="stroke:#000000;stroke-width:0.5;" x="53.9127175922" xlink:href="#m42347b82ed" y="547.897914413"/>
      </g>
     </g>
     <g id="line2d_20">
      <defs>
       <path d="M 0 0 
L -4 0 
" id="mb7d36b9c36" style="stroke:#000000;stroke-width:0.5;"/>
      </defs>
      <g>
       <use style="stroke:#000000;stroke-width:0.5;" x="707.04" xlink:href="#mb7d36b9c36" y="547.897914413"/>
      </g>
     </g>
     <g id="text_3">
      <!-- $0.00$ -->
      <defs>
       <path d="M 18.40625 4.796875 
C 18.40625 7.6875 16 9.671875 13.59375 9.671875 
C 10.703125 9.671875 8.703125 7.28125 8.703125 4.890625 
C 8.703125 2 11.09375 0 13.5 0 
C 16.40625 0 18.40625 2.390625 18.40625 4.796875 
" id="CMMI12-58"/>
       <path d="M 42 31.640625 
C 42 37.75 41.90625 48.125 37.703125 56.109375 
C 34 63.109375 28.09375 65.59375 22.90625 65.59375 
C 18.09375 65.59375 12 63.40625 8.203125 56.203125 
C 4.203125 48.71875 3.796875 39.4375 3.796875 31.640625 
C 3.796875 25.953125 3.90625 17.28125 7 9.671875 
C 11.296875 -0.609375 19 -2 22.90625 -2 
C 27.5 -2 34.5 -0.109375 38.59375 9.375 
C 41.59375 16.28125 42 24.359375 42 31.640625 
M 22.90625 -0.40625 
C 16.5 -0.40625 12.703125 5.078125 11.296875 12.6875 
C 10.203125 18.5625 10.203125 27.15625 10.203125 32.75 
C 10.203125 40.4375 10.203125 46.828125 11.5 52.921875 
C 13.40625 61.390625 19 64 22.90625 64 
C 27 64 32.296875 61.296875 34.203125 53.125 
C 35.5 47.4375 35.59375 40.734375 35.59375 32.75 
C 35.59375 26.25 35.59375 18.265625 34.40625 12.375 
C 32.296875 1.484375 26.40625 -0.40625 22.90625 -0.40625 
" id="CMR17-48"/>
      </defs>
      <g transform="translate(29.1020855873 551.197522085)scale(0.12 -0.12)">
       <use transform="scale(0.9962640099626402)" xlink:href="#CMR17-48"/>
       <use transform="translate(45.69047711706103 0.0)scale(0.9962640099626402)" xlink:href="#CMMI12-58"/>
       <use transform="translate(72.78765420688046 0.0)scale(0.9962640099626402)" xlink:href="#CMR17-48"/>
       <use transform="translate(118.47813132394148 0.0)scale(0.9962640099626402)" xlink:href="#CMR17-48"/>
      </g>
     </g>
    </g>
    <g id="ytick_2">
     <g id="line2d_21">
      <g>
       <use style="stroke:#000000;stroke-width:0.5;" x="53.9127175922" xlink:href="#m42347b82ed" y="444.039286426"/>
      </g>
     </g>
     <g id="line2d_22">
      <g>
       <use style="stroke:#000000;stroke-width:0.5;" x="707.04" xlink:href="#mb7d36b9c36" y="444.039286426"/>
      </g>
     </g>
     <g id="text_4">
      <!-- $0.05$ -->
      <defs>
       <path d="M 11.40625 57.6875 
C 12.40625 57.28125 16.5 56 20.703125 56 
C 30 56 35.09375 61.015625 38 63.921875 
C 38 64.734375 38 65.25 37.40625 65.25 
C 37.296875 65.25 37.09375 65.25 36.296875 64.828125 
C 32.796875 63.3125 28.703125 62.078125 23.703125 62.078125 
C 20.703125 62.078125 16.203125 62.5 11.296875 64.734375 
C 10.203125 65.25 10 65.25 9.90625 65.25 
C 9.40625 65.25 9.296875 65.140625 9.296875 63.15625 
L 9.296875 34.28125 
C 9.296875 32.5 9.296875 32 10.296875 32 
C 10.796875 32 11 32.203125 11.5 32.90625 
C 14.703125 37.484375 19.09375 39.40625 24.09375 39.40625 
C 27.59375 39.40625 35.09375 37.21875 35.09375 20.140625 
C 35.09375 16.953125 35.09375 11.171875 32.09375 6.578125 
C 29.59375 2.484375 25.703125 0.390625 21.40625 0.390625 
C 14.796875 0.390625 8.09375 5 6.296875 12.71875 
C 6.703125 12.609375 7.5 12.421875 7.90625 12.421875 
C 9.203125 12.421875 11.703125 13.125 11.703125 16.21875 
C 11.703125 18.90625 9.796875 20 7.90625 20 
C 5.59375 20 4.09375 18.59375 4.09375 15.796875 
C 4.09375 7.09375 11 -2 21.59375 -2 
C 31.90625 -2 41.703125 6.875 41.703125 19.75 
C 41.703125 31.71875 33.90625 41 24.203125 41 
C 19.09375 41 14.796875 39.09375 11.40625 35.453125 
z
" id="CMR17-53"/>
      </defs>
      <g transform="translate(29.1020855873 447.338894098)scale(0.12 -0.12)">
       <use transform="scale(0.9962640099626402)" xlink:href="#CMR17-48"/>
       <use transform="translate(45.69047711706103 0.0)scale(0.9962640099626402)" xlink:href="#CMMI12-58"/>
       <use transform="translate(72.78765420688046 0.0)scale(0.9962640099626402)" xlink:href="#CMR17-48"/>
       <use transform="translate(118.47813132394148 0.0)scale(0.9962640099626402)" xlink:href="#CMR17-53"/>
      </g>
     </g>
    </g>
    <g id="ytick_3">
     <g id="line2d_23">
      <g>
       <use style="stroke:#000000;stroke-width:0.5;" x="53.9127175922" xlink:href="#m42347b82ed" y="340.180658439"/>
      </g>
     </g>
     <g id="line2d_24">
      <g>
       <use style="stroke:#000000;stroke-width:0.5;" x="707.04" xlink:href="#mb7d36b9c36" y="340.180658439"/>
      </g>
     </g>
     <g id="text_5">
      <!-- $0.10$ -->
      <defs>
       <path d="M 26.59375 63.3125 
C 26.59375 65.40625 26.5 65.5 25.09375 65.5 
C 21.203125 61.1875 15.296875 59.796875 9.703125 59.796875 
C 9.40625 59.796875 8.90625 59.796875 8.796875 59.5 
C 8.703125 59.296875 8.703125 59.09375 8.703125 57 
C 11.796875 57 17 57.59375 21 59.984375 
L 21 7.203125 
C 21 3.6875 20.796875 2.5 12.203125 2.5 
L 9.203125 2.5 
L 9.203125 0 
C 14 0 19 0 23.796875 0 
C 28.59375 0 33.59375 0 38.40625 0 
L 38.40625 2.5 
L 35.40625 2.5 
C 26.796875 2.5 26.59375 3.59375 26.59375 7.15625 
z
" id="CMR17-49"/>
      </defs>
      <g transform="translate(29.1020855873 343.480266111)scale(0.12 -0.12)">
       <use transform="scale(0.9962640099626402)" xlink:href="#CMR17-48"/>
       <use transform="translate(45.69047711706103 0.0)scale(0.9962640099626402)" xlink:href="#CMMI12-58"/>
       <use transform="translate(72.78765420688046 0.0)scale(0.9962640099626402)" xlink:href="#CMR17-49"/>
       <use transform="translate(118.47813132394148 0.0)scale(0.9962640099626402)" xlink:href="#CMR17-48"/>
      </g>
     </g>
    </g>
    <g id="ytick_4">
     <g id="line2d_25">
      <g>
       <use style="stroke:#000000;stroke-width:0.5;" x="53.9127175922" xlink:href="#m42347b82ed" y="236.322030452"/>
      </g>
     </g>
     <g id="line2d_26">
      <g>
       <use style="stroke:#000000;stroke-width:0.5;" x="707.04" xlink:href="#mb7d36b9c36" y="236.322030452"/>
      </g>
     </g>
     <g id="text_6">
      <!-- $0.15$ -->
      <g transform="translate(29.1020855873 239.621638125)scale(0.12 -0.12)">
       <use transform="scale(0.9962640099626402)" xlink:href="#CMR17-48"/>
       <use transform="translate(45.69047711706103 0.0)scale(0.9962640099626402)" xlink:href="#CMMI12-58"/>
       <use transform="translate(72.78765420688046 0.0)scale(0.9962640099626402)" xlink:href="#CMR17-49"/>
       <use transform="translate(118.47813132394148 0.0)scale(0.9962640099626402)" xlink:href="#CMR17-53"/>
      </g>
     </g>
    </g>
    <g id="ytick_5">
     <g id="line2d_27">
      <g>
       <use style="stroke:#000000;stroke-width:0.5;" x="53.9127175922" xlink:href="#m42347b82ed" y="132.463402465"/>
      </g>
     </g>
     <g id="line2d_28">
      <g>
       <use style="stroke:#000000;stroke-width:0.5;" x="707.04" xlink:href="#mb7d36b9c36" y="132.463402465"/>
      </g>
     </g>
     <g id="text_7">
      <!-- $0.20$ -->
      <defs>
       <path d="M 41.703125 15.453125 
L 39.90625 15.453125 
C 38.90625 8.375 38.09375 7.171875 37.703125 6.5625 
C 37.203125 5.765625 30 5.765625 28.59375 5.765625 
L 9.40625 5.765625 
C 13 9.671875 20 16.75 28.5 24.953125 
C 34.59375 30.734375 41.703125 37.53125 41.703125 47.421875 
C 41.703125 59.21875 32.296875 66 21.796875 66 
C 10.796875 66 4.09375 56.3125 4.09375 47.34375 
C 4.09375 43.4375 7 42.9375 8.203125 42.9375 
C 9.203125 42.9375 12.203125 43.546875 12.203125 47.03125 
C 12.203125 50.109375 9.59375 51 8.203125 51 
C 7.59375 51 7 50.90625 6.59375 50.703125 
C 8.5 59.21875 14.296875 63.40625 20.40625 63.40625 
C 29.09375 63.40625 34.796875 56.515625 34.796875 47.421875 
C 34.796875 38.734375 29.703125 31.25 24 24.75 
L 4.09375 2.28125 
L 4.09375 0 
L 39.296875 0 
z
" id="CMR17-50"/>
      </defs>
      <g transform="translate(29.1020855873 135.763010138)scale(0.12 -0.12)">
       <use transform="scale(0.9962640099626402)" xlink:href="#CMR17-48"/>
       <use transform="translate(45.69047711706103 0.0)scale(0.9962640099626402)" xlink:href="#CMMI12-58"/>
       <use transform="translate(72.78765420688046 0.0)scale(0.9962640099626402)" xlink:href="#CMR17-50"/>
       <use transform="translate(118.47813132394148 0.0)scale(0.9962640099626402)" xlink:href="#CMR17-48"/>
      </g>
     </g>
    </g>
    <g id="ytick_6">
     <g id="line2d_29">
      <g>
       <use style="stroke:#000000;stroke-width:0.5;" x="53.9127175922" xlink:href="#m42347b82ed" y="28.6047744785"/>
      </g>
     </g>
     <g id="line2d_30">
      <g>
       <use style="stroke:#000000;stroke-width:0.5;" x="707.04" xlink:href="#mb7d36b9c36" y="28.6047744785"/>
      </g>
     </g>
     <g id="text_8">
      <!-- $0.25$ -->
      <g transform="translate(29.1020855873 31.9043821509)scale(0.12 -0.12)">
       <use transform="scale(0.9962640099626402)" xlink:href="#CMR17-48"/>
       <use transform="translate(45.69047711706103 0.0)scale(0.9962640099626402)" xlink:href="#CMMI12-58"/>
       <use transform="translate(72.78765420688046 0.0)scale(0.9962640099626402)" xlink:href="#CMR17-50"/>
       <use transform="translate(118.47813132394148 0.0)scale(0.9962640099626402)" xlink:href="#CMR17-53"/>
      </g>
     </g>
    </g>
    <g id="text_9">
     <!-- Brier Score -->
     <defs>
      <path d="M 38.703125 15.109375 
C 35.5 7.96875 32.09375 5.09375 26.90625 5.09375 
C 18.90625 5.09375 13.90625 12.328125 13.90625 23.9375 
C 13.90625 35.953125 18.796875 44 26.203125 44 
C 29.203125 44 31.796875 42.59375 31.796875 41.015625 
C 31.796875 40.71875 31.59375 40.421875 31.203125 39.8125 
C 29.59375 37.9375 29.203125 36.9375 29.203125 35.265625 
C 29.203125 31.984375 31.703125 29.703125 35.203125 29.703125 
C 38.703125 29.703125 41.296875 32.484375 41.296875 36.453125 
C 41.296875 43.109375 34.59375 48.28125 25.703125 48.28125 
C 12.703125 48.28125 3.40625 37.65625 3.40625 22.84375 
C 3.40625 8.734375 11.90625 -1 24.296875 -1 
C 33.203125 -1 38.296875 3.078125 42.59375 13.625 
z
" id="Century_Schoolbook_L_Roman-99"/>
      <path d="M 3 72 
L 3 67.3125 
L 4.796875 67.3125 
C 12.90625 67.3125 13.796875 66.8125 13.796875 62.609375 
L 13.796875 59.71875 
L 13.796875 12.28125 
L 13.796875 9.375 
C 13.796875 5.1875 12.90625 4.6875 4.796875 4.6875 
L 3 4.6875 
L 3 0 
L 39.296875 0 
C 56.59375 0 67 7.40625 67 19.59375 
C 67 29.484375 60.59375 35.296875 47 37.6875 
C 51.796875 38.6875 54 39.578125 56.5 41.46875 
C 60.703125 44.546875 63.203125 49.421875 63.203125 54.5 
C 63.203125 60.859375 59.203125 67.125 53.40625 69.609375 
C 49.796875 71.203125 44.796875 72 38.90625 72 
z
M 25 39.6875 
L 25 62.328125 
C 25 66.203125 26.40625 67.3125 31.59375 67.3125 
L 35.59375 67.3125 
C 40.203125 67.3125 44 66.609375 46.09375 65.21875 
C 49.703125 63.03125 51.59375 58.75 51.59375 53.203125 
C 51.59375 43.46875 46.703125 39.6875 33.90625 39.6875 
z
M 25 35 
L 33.796875 35 
C 40.203125 35 44.5 34.390625 47.5 33.09375 
C 52.203125 30.890625 54.703125 26.5 54.703125 19.890625 
C 54.703125 13.59375 52.5 8.890625 48.59375 6.984375 
C 45.5 5.390625 41.296875 4.6875 35 4.6875 
L 30.796875 4.6875 
C 25.703125 4.6875 25 5.484375 25 11 
z
" id="Century_Schoolbook_L_Roman-66"/>
      <path d="M 25.203125 48.28125 
C 13 48.28125 3.40625 37.453125 3.40625 23.546875 
C 3.40625 9.9375 13 -1 25 -1 
C 37 -1 46.59375 9.9375 46.59375 23.640625 
C 46.59375 37.25 37 48.28125 25.203125 48.28125 
M 25.203125 44 
C 32.203125 44 36.09375 36.734375 36.09375 23.640625 
C 36.09375 10.453125 32.203125 3.296875 25 3.296875 
C 17.796875 3.296875 13.90625 10.453125 13.90625 23.546875 
C 13.90625 37.046875 17.703125 44 25.203125 44 
" id="Century_Schoolbook_L_Roman-111"/>
     </defs>
     <g transform="translate(21.830650466 319.459980396)rotate(-90.0)scale(0.12 -0.12)">
      <use transform="scale(0.9962640099626402)" xlink:href="#Century_Schoolbook_L_Roman-66"/>
      <use transform="translate(71.92998484686333 0.0)scale(0.9962640099626402)" xlink:href="#Century_Schoolbook_L_Roman-114"/>
      <use transform="translate(116.16355354432598 0.0)scale(0.9962640099626402)" xlink:href="#Century_Schoolbook_L_Roman-105"/>
      <use transform="translate(147.54486654051215 0.0)scale(0.9962640099626402)" xlink:href="#Century_Schoolbook_L_Roman-101"/>
      <use transform="translate(197.35806703864418 0.0)scale(0.9962640099626402)" xlink:href="#Century_Schoolbook_L_Roman-114"/>
      <use transform="translate(269.28680533935244 0.0)scale(0.9962640099626402)" xlink:href="#Century_Schoolbook_L_Roman-83"/>
      <use transform="translate(332.0507842903565 0.0)scale(0.9962640099626402)" xlink:href="#Century_Schoolbook_L_Roman-99"/>
      <use transform="translate(376.28435298781915 0.0)scale(0.9962640099626402)" xlink:href="#Century_Schoolbook_L_Roman-111"/>
      <use transform="translate(426.09755348595115 0.0)scale(0.9962640099626402)" xlink:href="#Century_Schoolbook_L_Roman-114"/>
      <use transform="translate(470.3311221834138 0.0)scale(0.9962640099626402)" xlink:href="#Century_Schoolbook_L_Roman-101"/>
     </g>
    </g>
   </g>
   <g id="text_10">
    <!-- Brier Scores Across Categories -->
    <defs>
     <path d="M 37.796875 73.5 
L 33.59375 73.5 
L 10.59375 15.265625 
C 8.59375 10.078125 8.203125 9.375 6.703125 7.78125 
C 5.09375 5.890625 2.296875 4.6875 -0.40625 4.6875 
L -0.796875 4.6875 
L -0.796875 0 
L 25.703125 0 
L 25.703125 4.6875 
L 23.703125 4.6875 
C 18.296875 4.6875 15.59375 6.625 15.59375 10.453125 
C 15.59375 11.671875 15.90625 13.078125 16.5 14.703125 
L 19.796875 23.609375 
L 46.296875 23.609375 
L 51.703125 10.0625 
C 52.296875 8.53125 52.5 7.828125 52.5 7.3125 
C 52.5 5.703125 50 4.6875 46.296875 4.6875 
L 42.09375 4.6875 
L 42.09375 0 
L 73.09375 0 
L 73.09375 4.6875 
L 71.703125 4.6875 
C 66.703125 4.6875 65.59375 5.484375 63.296875 11.078125 
z
M 32.90625 57.203125 
L 44.203125 29 
L 21.796875 29 
z
" id="Century_Schoolbook_L_Roman-65"/>
     <path d="M 39 48 
L 35.5 48 
L 32.59375 44.40625 
C 29 47.203125 25.40625 48.390625 20.40625 48.390625 
C 11.59375 48.390625 5.796875 42.625 5.796875 33.953125 
C 5.796875 30.078125 7.09375 26.78125 9.296875 24.8125 
C 11.59375 22.703125 13.90625 21.71875 19.90625 20.3125 
L 25.203125 19.125 
C 33.09375 17.234375 35.90625 15.234375 35.90625 11.265625 
C 35.90625 6.578125 31.796875 3.296875 25.90625 3.296875 
C 17.5 3.296875 11.5 8.765625 9.09375 18.875 
L 5.09375 18.875 
L 5.09375 0 
L 8.59375 0 
L 12.09375 3.90625 
C 16.203125 0.59375 20.796875 -1 25.796875 -1 
C 35.59375 -1 42.09375 5.078125 42.09375 14.34375 
C 42.09375 18.71875 40.703125 22.09375 37.90625 24.390625 
C 35.5 26.484375 33.5 27.28125 27.40625 28.5625 
L 22.40625 29.671875 
C 16.90625 30.859375 16.90625 30.859375 15.09375 31.859375 
C 12.90625 32.859375 11.59375 34.9375 11.59375 37.140625 
C 11.59375 41.109375 15.40625 44 20.90625 44 
C 24.703125 44 27.796875 42.703125 30.59375 40.015625 
C 32.796875 37.8125 33.90625 35.828125 35.5 31.234375 
L 39 31.234375 
z
" id="Century_Schoolbook_L_Roman-115"/>
     <path d="M 63.90625 72 
L 60.09375 72 
L 56.09375 66.015625 
C 49 71.203125 45.09375 72.703125 38.40625 72.703125 
C 28.703125 72.703125 20.703125 68.8125 13.90625 60.78125 
C 7.5 53.234375 4.5 44.890625 4.5 34.65625 
C 4.5 13.296875 18.59375 -2 38.296875 -2 
C 54.296875 -2 64.5 7.34375 66.796875 24.015625 
L 62.09375 24.8125 
C 61.09375 19.546875 59.90625 15.984375 58.09375 13.015625 
C 54 6.171875 47.59375 2.6875 39.5 2.6875 
C 24.703125 2.6875 17.703125 12.90625 17.703125 34.265625 
C 17.703125 45.46875 19.203125 53.015625 22.59375 58.96875 
C 25.703125 64.53125 31.90625 68 38.296875 68 
C 45.296875 68 51.5 64.328125 55.296875 57.96875 
C 57.203125 54.6875 58.703125 50.8125 61 43.171875 
L 65.40625 43.171875 
z
" id="Century_Schoolbook_L_Roman-67"/>
     <path d="M 19.59375 7.59375 
C 14.09375 7.59375 13.796875 7.703125 12.59375 8.46875 
C 11.90625 8.90625 11.40625 10.109375 11.40625 11.296875 
C 11.40625 14.578125 14.09375 16 20.796875 16 
C 30.296875 16 31.796875 16.203125 35.09375 17.6875 
C 41.09375 20.359375 44.5 25.484375 44.5 31.984375 
C 44.5 35.921875 43.59375 38.390625 40.796875 41.640625 
C 42.5 43.40625 43.40625 44 44.203125 44 
C 44.703125 44 45 43.6875 45.203125 42.625 
C 45.59375 40.265625 47.203125 39 49.703125 39 
C 52.203125 39 54.203125 41.09375 54.203125 43.78125 
C 54.203125 47.1875 51.5 49.578125 47.59375 49.578125 
C 44.40625 49.578125 42.59375 48.5625 38 44.296875 
C 33.796875 47.09375 30.59375 48.078125 25.59375 48.078125 
C 13.703125 48.078125 5.90625 41.625 5.90625 31.8125 
C 5.90625 26.03125 9.09375 21.03125 14.296875 18.6875 
C 7.59375 17.15625 4.796875 14.09375 4.796875 8.46875 
C 4.796875 3.984375 6.796875 1.328125 11.5 -0.296875 
C 5.296875 -2.484375 2.296875 -5.671875 2.296875 -9.75 
C 2.296875 -16.3125 10 -20 23.40625 -20 
C 40.09375 -20 48.5 -14.71875 48.5 -4.25 
C 48.5 0.71875 46.203125 4.6875 42.5 6.1875 
C 39.90625 7.1875 36.703125 7.59375 29.796875 7.59375 
z
M 25.5 44 
C 31.796875 44 35.296875 39.671875 35.296875 32.09375 
C 35.296875 24.421875 31.5 19.78125 25.09375 19.78125 
C 18.90625 19.78125 15 24.421875 15 31.796875 
C 15 39.5625 18.796875 44 25.5 44 
M 24.59375 -1 
C 32.90625 -1 33.5 -1 35 -1.1875 
C 39 -1.59375 41.5 -3.78125 41.5 -6.953125 
C 41.5 -12.625 35 -15.90625 23.796875 -15.90625 
C 15.40625 -15.90625 10.59375 -13.421875 10.59375 -8.953125 
C 10.59375 -5.671875 12.40625 -3.46875 17.203125 -1 
z
" id="Century_Schoolbook_L_Roman-103"/>
    </defs>
    <g transform="translate(278.605300618 23.6047744785)scale(0.144 -0.144)">
     <use transform="scale(0.9962640099626402)" xlink:href="#Century_Schoolbook_L_Roman-66"/>
     <use transform="translate(71.92998484686333 0.0)scale(0.9962640099626402)" xlink:href="#Century_Schoolbook_L_Roman-114"/>
     <use transform="translate(116.16355354432598 0.0)scale(0.9962640099626402)" xlink:href="#Century_Schoolbook_L_Roman-105"/>
     <use transform="translate(147.54486654051215 0.0)scale(0.9962640099626402)" xlink:href="#Century_Schoolbook_L_Roman-101"/>
     <use transform="translate(197.35806703864418 0.0)scale(0.9962640099626402)" xlink:href="#Century_Schoolbook_L_Roman-114"/>
     <use transform="translate(269.28680533935244 0.0)scale(0.9962640099626402)" xlink:href="#Century_Schoolbook_L_Roman-83"/>
     <use transform="translate(332.0507842903565 0.0)scale(0.9962640099626402)" xlink:href="#Century_Schoolbook_L_Roman-99"/>
     <use transform="translate(376.28435298781915 0.0)scale(0.9962640099626402)" xlink:href="#Century_Schoolbook_L_Roman-111"/>
     <use transform="translate(426.09755348595115 0.0)scale(0.9962640099626402)" xlink:href="#Century_Schoolbook_L_Roman-114"/>
     <use transform="translate(470.3311221834138 0.0)scale(0.9962640099626402)" xlink:href="#Century_Schoolbook_L_Roman-101"/>
     <use transform="translate(520.1443226815458 0.0)scale(0.9962640099626402)" xlink:href="#Century_Schoolbook_L_Roman-115"/>
     <use transform="translate(593.9653028438279 0.0)scale(0.9962640099626402)" xlink:href="#Century_Schoolbook_L_Roman-65"/>
     <use transform="translate(665.8952876906912 0.0)scale(0.9962640099626402)" xlink:href="#Century_Schoolbook_L_Roman-99"/>
     <use transform="translate(710.1288563881538 0.0)scale(0.9962640099626402)" xlink:href="#Century_Schoolbook_L_Roman-114"/>
     <use transform="translate(754.3624250856166 0.0)scale(0.9962640099626402)" xlink:href="#Century_Schoolbook_L_Roman-111"/>
     <use transform="translate(804.1756255837486 0.0)scale(0.9962640099626402)" xlink:href="#Century_Schoolbook_L_Roman-115"/>
     <use transform="translate(850.301436142785 0.0)scale(0.9962640099626402)" xlink:href="#Century_Schoolbook_L_Roman-115"/>
     <use transform="translate(924.1224163050671 0.0)scale(0.9962640099626402)" xlink:href="#Century_Schoolbook_L_Roman-67"/>
     <use transform="translate(996.0524011519303 0.0)scale(0.9962640099626402)" xlink:href="#Century_Schoolbook_L_Roman-97"/>
     <use transform="translate(1051.444078115271 0.0)scale(0.9962640099626402)" xlink:href="#Century_Schoolbook_L_Roman-116"/>
     <use transform="translate(1090.1977843098148 0.0)scale(0.9962640099626402)" xlink:href="#Century_Schoolbook_L_Roman-101"/>
     <use transform="translate(1140.010984807947 0.0)scale(0.9962640099626402)" xlink:href="#Century_Schoolbook_L_Roman-103"/>
     <use transform="translate(1193.5103286990195 0.0)scale(0.9962640099626402)" xlink:href="#Century_Schoolbook_L_Roman-111"/>
     <use transform="translate(1243.3235291971514 0.0)scale(0.9962640099626402)" xlink:href="#Century_Schoolbook_L_Roman-114"/>
     <use transform="translate(1287.5570978946141 0.0)scale(0.9962640099626402)" xlink:href="#Century_Schoolbook_L_Roman-105"/>
     <use transform="translate(1318.9384108908002 0.0)scale(0.9962640099626402)" xlink:href="#Century_Schoolbook_L_Roman-101"/>
     <use transform="translate(1368.7516113889324 0.0)scale(0.9962640099626402)" xlink:href="#Century_Schoolbook_L_Roman-115"/>
    </g>
   </g>
  </g>
 </g>
 <defs>
  <clipPath id="p2b97a2776b">
   <rect height="519.293139934" width="653.127282408" x="53.9127175922" y="28.6047744785"/>
  </clipPath>
 </defs>
</svg>
