<?xml version="1.0" encoding="utf-8" standalone="no"?>
<!DOCTYPE svg PUBLIC "-//W3C//DTD SVG 1.1//EN"
  "http://www.w3.org/Graphics/SVG/1.1/DTD/svg11.dtd">
<!-- Created with matplotlib (http://matplotlib.org/) -->
<svg height="720pt" version="1.1" viewBox="0 0 720 720" width="720pt" xmlns="http://www.w3.org/2000/svg" xmlns:xlink="http://www.w3.org/1999/xlink">
 <defs>
  <style type="text/css">
*{stroke-linecap:butt;stroke-linejoin:round;stroke-miterlimit:100000;}
  </style>
 </defs>
 <g id="figure_1">
  <g id="patch_1">
   <path d="M 0 720 
L 720 720 
L 720 0 
L 0 0 
L 0 720 
z
" style="fill:none;"/>
  </g>
  <g id="axes_1">
   <g id="patch_2">
    <path d="M 90 648 
L 648 648 
L 648 72 
L 90 72 
L 90 648 
z
" style="fill:none;"/>
   </g>
   <g id="PathCollection_1">
    <path clip-path="url(#p21ffe68000)" d="M 216.67856 513.046187 
C 220.174315 513.046187 223.527364 511.657309 225.999236 509.185437 
C 228.471108 506.713564 229.859986 503.360516 229.859986 499.864761 
C 229.859986 496.369005 228.471108 493.015957 225.999236 490.544085 
C 223.527364 488.072213 220.174315 486.683334 216.67856 486.683334 
C 213.182805 486.683334 209.829756 488.072213 207.357884 490.544085 
C 204.886012 493.015957 203.497134 496.369005 203.497134 499.864761 
C 203.497134 503.360516 204.886012 506.713564 207.357884 509.185437 
C 209.829756 511.657309 213.182805 513.046187 216.67856 513.046187 
z
" style="fill:#0000ff;fill-opacity:0.3;stroke:#000000;stroke-opacity:0.3;"/>
    <path clip-path="url(#p21ffe68000)" d="M 476.972539 181.842986 
C 479.147367 181.842986 481.233411 180.978918 482.771246 179.441083 
C 484.309081 177.903248 485.173149 175.817204 485.173149 173.642376 
C 485.173149 171.467549 484.309081 169.381505 482.771246 167.84367 
C 481.233411 166.305835 479.147367 165.441767 476.972539 165.441767 
C 474.797712 165.441767 472.711668 166.305835 471.173833 167.84367 
C 469.635998 169.381505 468.77193 171.467549 468.77193 173.642376 
C 468.77193 175.817204 469.635998 177.903248 471.173833 179.441083 
C 472.711668 180.978918 474.797712 181.842986 476.972539 181.842986 
z
" style="fill:#0000ff;fill-opacity:0.3;stroke:#000000;stroke-opacity:0.3;"/>
    <path clip-path="url(#p21ffe68000)" d="M 262.811233 472.354487 
C 264.916218 472.354487 266.935271 471.518168 268.423719 470.02972 
C 269.912168 468.541271 270.748487 466.522218 270.748487 464.417234 
C 270.748487 462.312249 269.912168 460.293196 268.423719 458.804747 
C 266.935271 457.316299 264.916218 456.47998 262.811233 456.47998 
C 260.706249 456.47998 258.687196 457.316299 257.198747 458.804747 
C 255.710299 460.293196 254.873979 462.312249 254.873979 464.417234 
C 254.873979 466.522218 255.710299 468.541271 257.198747 470.02972 
C 258.687196 471.518168 260.706249 472.354487 262.811233 472.354487 
z
" style="fill:#0000ff;fill-opacity:0.3;stroke:#000000;stroke-opacity:0.3;"/>
    <path clip-path="url(#p21ffe68000)" d="M 201.129738 536.992116 
C 202.933314 536.992116 204.663263 536.275547 205.938584 535.000227 
C 207.213905 533.724906 207.930473 531.994957 207.930473 530.191381 
C 207.930473 528.387804 207.213905 526.657855 205.938584 525.382535 
C 204.663263 524.107214 202.933314 523.390645 201.129738 523.390645 
C 199.326162 523.390645 197.596213 524.107214 196.320892 525.382535 
C 195.045571 526.657855 194.329003 528.387804 194.329003 530.191381 
C 194.329003 531.994957 195.045571 533.724906 196.320892 535.000227 
C 197.596213 536.275547 199.326162 536.992116 201.129738 536.992116 
z
" style="fill:#0000ff;fill-opacity:0.3;stroke:#000000;stroke-opacity:0.3;"/>
    <path clip-path="url(#p21ffe68000)" d="M 187.012142 540.283341 
C 188.318116 540.283341 189.570776 539.764472 190.494239 538.841009 
C 191.417702 537.917546 191.936571 536.664885 191.936571 535.358912 
C 191.936571 534.052938 191.417702 532.800278 190.494239 531.876815 
C 189.570776 530.953352 188.318116 530.434483 187.012142 530.434483 
C 185.706168 530.434483 184.453508 530.953352 183.530045 531.876815 
C 182.606582 532.800278 182.087713 534.052938 182.087713 535.358912 
C 182.087713 536.664885 182.606582 537.917546 183.530045 538.841009 
C 184.453508 539.764472 185.706168 540.283341 187.012142 540.283341 
z
" style="fill:#0000ff;fill-opacity:0.3;stroke:#000000;stroke-opacity:0.3;"/>
    <path clip-path="url(#p21ffe68000)" d="M 178.574193 561.478232 
C 179.707141 561.478232 180.79384 561.028107 181.594955 560.226992 
C 182.39607 559.425876 182.846195 558.339178 182.846195 557.20623 
C 182.846195 556.073282 182.39607 554.986584 181.594955 554.185469 
C 180.79384 553.384353 179.707141 552.934228 178.574193 552.934228 
C 177.441245 552.934228 176.354547 553.384353 175.553432 554.185469 
C 174.752317 554.986584 174.302191 556.073282 174.302191 557.20623 
C 174.302191 558.339178 174.752317 559.425876 175.553432 560.226992 
C 176.354547 561.028107 177.441245 561.478232 178.574193 561.478232 
z
" style="fill:#0000ff;fill-opacity:0.3;stroke:#000000;stroke-opacity:0.3;"/>
    <path clip-path="url(#p21ffe68000)" d="M 340.475325 253.13188 
C 341.364843 253.13188 342.218049 252.77847 342.847033 252.149486 
C 343.476017 251.520502 343.829427 250.667296 343.829427 249.777778 
C 343.829427 248.88826 343.476017 248.035054 342.847033 247.40607 
C 342.218049 246.777085 341.364843 246.423676 340.475325 246.423676 
C 339.585806 246.423676 338.732601 246.777085 338.103616 247.40607 
C 337.474632 248.035054 337.121223 248.88826 337.121223 249.777778 
C 337.121223 250.667296 337.474632 251.520502 338.103616 252.149486 
C 338.732601 252.77847 339.585806 253.13188 340.475325 253.13188 
z
" style="fill:#0000ff;fill-opacity:0.3;stroke:#000000;stroke-opacity:0.3;"/>
    <path clip-path="url(#p21ffe68000)" d="M 298.844243 385.114102 
C 299.733761 385.114102 300.586967 384.760693 301.215951 384.131708 
C 301.844936 383.502724 302.198345 382.649518 302.198345 381.76 
C 302.198345 380.870482 301.844936 380.017276 301.215951 379.388292 
C 300.586967 378.759307 299.733761 378.405898 298.844243 378.405898 
C 297.954725 378.405898 297.101519 378.759307 296.472535 379.388292 
C 295.84355 380.017276 295.490141 380.870482 295.490141 381.76 
C 295.490141 382.649518 295.84355 383.502724 296.472535 384.131708 
C 297.101519 384.760693 297.954725 385.114102 298.844243 385.114102 
z
" style="fill:#0000ff;fill-opacity:0.3;stroke:#000000;stroke-opacity:0.3;"/>
    <path clip-path="url(#p21ffe68000)" d="M 231.334524 507.994102 
C 232.224042 507.994102 233.077247 507.640693 233.706232 507.011708 
C 234.335216 506.382724 234.688626 505.529518 234.688626 504.64 
C 234.688626 503.750482 234.335216 502.897276 233.706232 502.268292 
C 233.077247 501.639307 232.224042 501.285898 231.334524 501.285898 
C 230.445005 501.285898 229.5918 501.639307 228.962815 502.268292 
C 228.333831 502.897276 227.980422 503.750482 227.980422 504.64 
C 227.980422 505.529518 228.333831 506.382724 228.962815 507.011708 
C 229.5918 507.640693 230.445005 507.994102 231.334524 507.994102 
z
" style="fill:#0000ff;fill-opacity:0.3;stroke:#000000;stroke-opacity:0.3;"/>
    <path clip-path="url(#p21ffe68000)" d="M 118.837209 501.749244 
C 119.706736 501.749244 120.540766 501.403777 121.155614 500.788929 
C 121.770462 500.174081 122.115929 499.340051 122.115929 498.470525 
C 122.115929 497.600998 121.770462 496.766968 121.155614 496.15212 
C 120.540766 495.537272 119.706736 495.191805 118.837209 495.191805 
C 117.967683 495.191805 117.133653 495.537272 116.518805 496.15212 
C 115.903957 496.766968 115.55849 497.600998 115.55849 498.470525 
C 115.55849 499.340051 115.903957 500.174081 116.518805 500.788929 
C 117.133653 501.403777 117.967683 501.749244 118.837209 501.749244 
z
" style="fill:#0000ff;fill-opacity:0.3;stroke:#000000;stroke-opacity:0.3;"/>
    <path clip-path="url(#p21ffe68000)" d="M 204.740743 498.424044 
C 205.600099 498.424044 206.424374 498.082618 207.032031 497.474961 
C 207.639687 496.867305 207.981113 496.04303 207.981113 495.183673 
C 207.981113 494.324317 207.639687 493.500042 207.032031 492.892386 
C 206.424374 492.284729 205.600099 491.943303 204.740743 491.943303 
C 203.881387 491.943303 203.057112 492.284729 202.449455 492.892386 
C 201.841798 493.500042 201.500373 494.324317 201.500373 495.183673 
C 201.500373 496.04303 201.841798 496.867305 202.449455 497.474961 
C 203.057112 498.082618 203.881387 498.424044 204.740743 498.424044 
z
" style="fill:#0000ff;fill-opacity:0.3;stroke:#000000;stroke-opacity:0.3;"/>
    <path clip-path="url(#p21ffe68000)" d="M 386.37895 357.402278 
C 387.217596 357.402278 388.022006 357.06908 388.615018 356.476068 
C 389.20803 355.883056 389.541228 355.078646 389.541228 354.24 
C 389.541228 353.401354 389.20803 352.596944 388.615018 352.003932 
C 388.022006 351.41092 387.217596 351.077722 386.37895 351.077722 
C 385.540304 351.077722 384.735894 351.41092 384.142882 352.003932 
C 383.54987 352.596944 383.216673 353.401354 383.216673 354.24 
C 383.216673 355.078646 383.54987 355.883056 384.142882 356.476068 
C 384.735894 357.06908 385.540304 357.402278 386.37895 357.402278 
z
" style="fill:#0000ff;fill-opacity:0.3;stroke:#000000;stroke-opacity:0.3;"/>
    <path clip-path="url(#p21ffe68000)" d="M 90 651.041381 
C 90.806584 651.041381 91.58024 650.720922 92.150581 650.150581 
C 92.720922 649.58024 93.041381 648.806584 93.041381 648 
C 93.041381 647.193416 92.720922 646.41976 92.150581 645.849419 
C 91.58024 645.279078 90.806584 644.958619 90 644.958619 
C 89.193416 644.958619 88.41976 645.279078 87.849419 645.849419 
C 87.279078 646.41976 86.958619 647.193416 86.958619 648 
C 86.958619 648.806584 87.279078 649.58024 87.849419 650.150581 
C 88.41976 650.720922 89.193416 651.041381 90 651.041381 
z
" style="fill:#0000ff;fill-opacity:0.3;stroke:#000000;stroke-opacity:0.3;"/>
    <path clip-path="url(#p21ffe68000)" d="M 90 651 
C 90.795609 651 91.55874 650.683901 92.12132 650.12132 
C 92.683901 649.55874 93 648.795609 93 648 
C 93 647.204391 92.683901 646.44126 92.12132 645.87868 
C 91.55874 645.316099 90.795609 645 90 645 
C 89.204391 645 88.44126 645.316099 87.87868 645.87868 
C 87.316099 646.44126 87 647.204391 87 648 
C 87 648.795609 87.316099 649.55874 87.87868 650.12132 
C 88.44126 650.683901 89.204391 651 90 651 
z
" style="fill:#0000ff;fill-opacity:0.3;stroke:#000000;stroke-opacity:0.3;"/>
    <path clip-path="url(#p21ffe68000)" d="M 90 650.95804 
C 90.784481 650.95804 91.536938 650.646362 92.09165 650.09165 
C 92.646362 649.536938 92.95804 648.784481 92.95804 648 
C 92.95804 647.215519 92.646362 646.463062 92.09165 645.90835 
C 91.536938 645.353638 90.784481 645.04196 90 645.04196 
C 89.215519 645.04196 88.463062 645.353638 87.90835 645.90835 
C 87.353638 646.463062 87.04196 647.215519 87.04196 648 
C 87.04196 648.784481 87.353638 649.536938 87.90835 650.09165 
C 88.463062 650.646362 89.215519 650.95804 90 650.95804 
z
" style="fill:#0000ff;fill-opacity:0.3;stroke:#000000;stroke-opacity:0.3;"/>
    <path clip-path="url(#p21ffe68000)" d="M 505.017507 146.666341 
C 505.7907 146.666341 506.532329 146.359148 507.079059 145.812418 
C 507.62579 145.265688 507.932983 144.524058 507.932983 143.750865 
C 507.932983 142.977672 507.62579 142.236042 507.079059 141.689312 
C 506.532329 141.142582 505.7907 140.835389 505.017507 140.835389 
C 504.244313 140.835389 503.502684 141.142582 502.955954 141.689312 
C 502.409224 142.236042 502.102031 142.977672 502.102031 143.750865 
C 502.102031 144.524058 502.409224 145.265688 502.955954 145.812418 
C 503.502684 146.359148 504.244313 146.666341 505.017507 146.666341 
z
" style="fill:#0000ff;fill-opacity:0.3;stroke:#000000;stroke-opacity:0.3;"/>
    <path clip-path="url(#p21ffe68000)" d="M 339.717701 308.12848 
C 340.479439 308.12848 341.210081 307.825838 341.748711 307.287208 
C 342.287341 306.748578 342.589983 306.017936 342.589983 305.256198 
C 342.589983 304.49446 342.287341 303.763819 341.748711 303.225189 
C 341.210081 302.686559 340.479439 302.383917 339.717701 302.383917 
C 338.955963 302.383917 338.225322 302.686559 337.686692 303.225189 
C 337.148062 303.763819 336.84542 304.49446 336.84542 305.256198 
C 336.84542 306.017936 337.148062 306.748578 337.686692 307.287208 
C 338.225322 307.825838 338.955963 308.12848 339.717701 308.12848 
z
" style="fill:#0000ff;fill-opacity:0.3;stroke:#000000;stroke-opacity:0.3;"/>
    <path clip-path="url(#p21ffe68000)" d="M 90 650.872281 
C 90.761738 650.872281 91.49238 650.56964 92.03101 650.03101 
C 92.56964 649.49238 92.872281 648.761738 92.872281 648 
C 92.872281 647.238262 92.56964 646.50762 92.03101 645.96899 
C 91.49238 645.43036 90.761738 645.127719 90 645.127719 
C 89.238262 645.127719 88.50762 645.43036 87.96899 645.96899 
C 87.43036 646.50762 87.127719 647.238262 87.127719 648 
C 87.127719 648.761738 87.43036 649.49238 87.96899 650.03101 
C 88.50762 650.56964 89.238262 650.872281 90 650.872281 
z
" style="fill:#0000ff;fill-opacity:0.3;stroke:#000000;stroke-opacity:0.3;"/>
    <path clip-path="url(#p21ffe68000)" d="M 90 578.858804 
C 90.738294 578.858804 91.446449 578.565477 91.968502 578.043424 
C 92.490555 577.521371 92.783882 576.813216 92.783882 576.074922 
C 92.783882 575.336628 92.490555 574.628473 91.968502 574.10642 
C 91.446449 573.584367 90.738294 573.29104 90 573.29104 
C 89.261706 573.29104 88.553551 573.584367 88.031498 574.10642 
C 87.509445 574.628473 87.216118 575.336628 87.216118 576.074922 
C 87.216118 576.813216 87.509445 577.521371 88.031498 578.043424 
C 88.553551 578.565477 89.261706 578.858804 90 578.858804 
z
" style="fill:#0000ff;fill-opacity:0.3;stroke:#000000;stroke-opacity:0.3;"/>
    <path clip-path="url(#p21ffe68000)" d="M 404.099151 321.941096 
C 404.813233 321.941096 405.498163 321.657389 406.003095 321.152457 
C 406.508026 320.647525 406.791734 319.962595 406.791734 319.248514 
C 406.791734 318.534432 406.508026 317.849502 406.003095 317.34457 
C 405.498163 316.839639 404.813233 316.555931 404.099151 316.555931 
C 403.38507 316.555931 402.70014 316.839639 402.195208 317.34457 
C 401.690276 317.849502 401.406569 318.534432 401.406569 319.248514 
C 401.406569 319.962595 401.690276 320.647525 402.195208 321.152457 
C 402.70014 321.657389 403.38507 321.941096 404.099151 321.941096 
z
" style="fill:#0000ff;fill-opacity:0.3;stroke:#000000;stroke-opacity:0.3;"/>
    <path clip-path="url(#p21ffe68000)" d="M 348.129333 368.523302 
C 348.830995 368.523302 349.504012 368.244529 350.000162 367.74838 
C 350.496312 367.25223 350.775085 366.579212 350.775085 365.877551 
C 350.775085 365.17589 350.496312 364.502872 350.000162 364.006722 
C 349.504012 363.510573 348.830995 363.2318 348.129333 363.2318 
C 347.427672 363.2318 346.754654 363.510573 346.258505 364.006722 
C 345.762355 364.502872 345.483582 365.17589 345.483582 365.877551 
C 345.483582 366.579212 345.762355 367.25223 346.258505 367.74838 
C 346.754654 368.244529 347.427672 368.523302 348.129333 368.523302 
z
" style="fill:#0000ff;fill-opacity:0.3;stroke:#000000;stroke-opacity:0.3;"/>
    <path clip-path="url(#p21ffe68000)" d="M 292.332645 350.620516 
C 293.008783 350.620516 293.657319 350.351883 294.13542 349.873782 
C 294.613522 349.39568 294.882154 348.747144 294.882154 348.071006 
C 294.882154 347.394868 294.613522 346.746332 294.13542 346.26823 
C 293.657319 345.790129 293.008783 345.521496 292.332645 345.521496 
C 291.656507 345.521496 291.007971 345.790129 290.529869 346.26823 
C 290.051767 346.746332 289.783135 347.394868 289.783135 348.071006 
C 289.783135 348.747144 290.051767 349.39568 290.529869 349.873782 
C 291.007971 350.351883 291.656507 350.620516 292.332645 350.620516 
z
" style="fill:#0000ff;fill-opacity:0.3;stroke:#000000;stroke-opacity:0.3;"/>
    <path clip-path="url(#p21ffe68000)" d="M 136.5 558.44949 
C 137.149612 558.44949 137.772706 558.191396 138.232051 557.732051 
C 138.691396 557.272706 138.94949 556.649612 138.94949 556 
C 138.94949 555.350388 138.691396 554.727294 138.232051 554.267949 
C 137.772706 553.808604 137.149612 553.55051 136.5 553.55051 
C 135.850388 553.55051 135.227294 553.808604 134.767949 554.267949 
C 134.308604 554.727294 134.05051 555.350388 134.05051 556 
C 134.05051 556.649612 134.308604 557.272706 134.767949 557.732051 
C 135.227294 558.191396 135.850388 558.44949 136.5 558.44949 
z
" style="fill:#0000ff;fill-opacity:0.3;stroke:#000000;stroke-opacity:0.3;"/>
    <path clip-path="url(#p21ffe68000)" d="M 90 554.57939 
C 90.635935 554.57939 91.245909 554.326731 91.695582 553.877057 
C 92.145256 553.427383 92.397916 552.817409 92.397916 552.181474 
C 92.397916 551.54554 92.145256 550.935566 91.695582 550.485892 
C 91.245909 550.036218 90.635935 549.783559 90 549.783559 
C 89.364065 549.783559 88.754091 550.036218 88.304418 550.485892 
C 87.854744 550.935566 87.602084 551.54554 87.602084 552.181474 
C 87.602084 552.817409 87.854744 553.427383 88.304418 553.877057 
C 88.754091 554.326731 89.364065 554.57939 90 554.57939 
z
" style="fill:#0000ff;fill-opacity:0.3;stroke:#000000;stroke-opacity:0.3;"/>
    <path clip-path="url(#p21ffe68000)" d="M 174.913043 554.57939 
C 175.548978 554.57939 176.158952 554.326731 176.608626 553.877057 
C 177.0583 553.427383 177.310959 552.817409 177.310959 552.181474 
C 177.310959 551.54554 177.0583 550.935566 176.608626 550.485892 
C 176.158952 550.036218 175.548978 549.783559 174.913043 549.783559 
C 174.277109 549.783559 173.667135 550.036218 173.217461 550.485892 
C 172.767787 550.935566 172.515128 551.54554 172.515128 552.181474 
C 172.515128 552.817409 172.767787 553.427383 173.217461 553.877057 
C 173.667135 554.326731 174.277109 554.57939 174.913043 554.57939 
z
" style="fill:#0000ff;fill-opacity:0.3;stroke:#000000;stroke-opacity:0.3;"/>
    <path clip-path="url(#p21ffe68000)" d="M 488.63192 245.717109 
C 489.253876 245.717109 489.850442 245.470003 490.290232 245.030213 
C 490.730021 244.590424 490.977127 243.993857 490.977127 243.371901 
C 490.977127 242.749944 490.730021 242.153378 490.290232 241.713588 
C 489.850442 241.273799 489.253876 241.026693 488.63192 241.026693 
C 488.009963 241.026693 487.413397 241.273799 486.973607 241.713588 
C 486.533818 242.153378 486.286712 242.749944 486.286712 243.371901 
C 486.286712 243.993857 486.533818 244.590424 486.973607 245.030213 
C 487.413397 245.470003 488.009963 245.717109 488.63192 245.717109 
z
" style="fill:#0000ff;fill-opacity:0.3;stroke:#000000;stroke-opacity:0.3;"/>
    <path clip-path="url(#p21ffe68000)" d="M 284.361842 433.18222 
C 284.939839 433.18222 285.49424 432.952579 285.902946 432.543874 
C 286.311651 432.135168 286.541292 431.580767 286.541292 431.00277 
C 286.541292 430.424773 286.311651 429.870372 285.902946 429.461667 
C 285.49424 429.052961 284.939839 428.823321 284.361842 428.823321 
C 283.783845 428.823321 283.229444 429.052961 282.820739 429.461667 
C 282.412033 429.870372 282.182393 430.424773 282.182393 431.00277 
C 282.182393 431.580767 282.412033 432.135168 282.820739 432.543874 
C 283.229444 432.952579 283.783845 433.18222 284.361842 433.18222 
z
" style="fill:#0000ff;fill-opacity:0.3;stroke:#000000;stroke-opacity:0.3;"/>
    <path clip-path="url(#p21ffe68000)" d="M 90 650.179449 
C 90.577997 650.179449 91.132398 649.949809 91.541104 649.541104 
C 91.949809 649.132398 92.179449 648.577997 92.179449 648 
C 92.179449 647.422003 91.949809 646.867602 91.541104 646.458896 
C 91.132398 646.050191 90.577997 645.820551 90 645.820551 
C 89.422003 645.820551 88.867602 646.050191 88.458896 646.458896 
C 88.050191 646.867602 87.820551 647.422003 87.820551 648 
C 87.820551 648.577997 88.050191 649.132398 88.458896 649.541104 
C 88.867602 649.949809 89.422003 650.179449 90 650.179449 
z
" style="fill:#0000ff;fill-opacity:0.3;stroke:#000000;stroke-opacity:0.3;"/>
    <path clip-path="url(#p21ffe68000)" d="M 90 650.12132 
C 90.562581 650.12132 91.102195 649.897805 91.5 649.5 
C 91.897805 649.102195 92.12132 648.562581 92.12132 648 
C 92.12132 647.437419 91.897805 646.897805 91.5 646.5 
C 91.102195 646.102195 90.562581 645.87868 90 645.87868 
C 89.437419 645.87868 88.897805 646.102195 88.5 646.5 
C 88.102195 646.897805 87.87868 647.437419 87.87868 648 
C 87.87868 648.562581 88.102195 649.102195 88.5 649.5 
C 88.897805 649.897805 89.437419 650.12132 90 650.12132 
z
" style="fill:#0000ff;fill-opacity:0.3;stroke:#000000;stroke-opacity:0.3;"/>
    <path clip-path="url(#p21ffe68000)" d="M 90 650.061553 
C 90.54673 650.061553 91.071141 649.844335 91.457738 649.457738 
C 91.844335 649.071141 92.061553 648.54673 92.061553 648 
C 92.061553 647.45327 91.844335 646.928859 91.457738 646.542262 
C 91.071141 646.155665 90.54673 645.938447 90 645.938447 
C 89.45327 645.938447 88.928859 646.155665 88.542262 646.542262 
C 88.155665 646.928859 87.938447 647.45327 87.938447 648 
C 87.938447 648.54673 88.155665 649.071141 88.542262 649.457738 
C 88.928859 649.844335 89.45327 650.061553 90 650.061553 
z
" style="fill:#0000ff;fill-opacity:0.3;stroke:#000000;stroke-opacity:0.3;"/>
    <path clip-path="url(#p21ffe68000)" d="M 90 649.870829 
C 90.49615 649.870829 90.972045 649.673706 91.322876 649.322876 
C 91.673706 648.972045 91.870829 648.49615 91.870829 648 
C 91.870829 647.50385 91.673706 647.027955 91.322876 646.677124 
C 90.972045 646.326294 90.49615 646.129171 90 646.129171 
C 89.50385 646.129171 89.027955 646.326294 88.677124 646.677124 
C 88.326294 647.027955 88.129171 647.50385 88.129171 648 
C 88.129171 648.49615 88.326294 648.972045 88.677124 649.322876 
C 89.027955 649.673706 89.50385 649.870829 90 649.870829 
z
" style="fill:#0000ff;fill-opacity:0.3;stroke:#000000;stroke-opacity:0.3;"/>
    <path clip-path="url(#p21ffe68000)" d="M 471.828148 137.732051 
C 472.287493 137.732051 472.728087 137.549551 473.052893 137.224745 
C 473.377699 136.899939 473.560199 136.459345 473.560199 136 
C 473.560199 135.540655 473.377699 135.100061 473.052893 134.775255 
C 472.728087 134.450449 472.287493 134.267949 471.828148 134.267949 
C 471.368803 134.267949 470.928209 134.450449 470.603403 134.775255 
C 470.278597 135.100061 470.096097 135.540655 470.096097 136 
C 470.096097 136.459345 470.278597 136.899939 470.603403 137.224745 
C 470.928209 137.549551 471.368803 137.732051 471.828148 137.732051 
z
" style="fill:#0000ff;fill-opacity:0.3;stroke:#000000;stroke-opacity:0.3;"/>
    <path clip-path="url(#p21ffe68000)" d="M 90 649.732051 
C 90.459345 649.732051 90.899939 649.549551 91.224745 649.224745 
C 91.549551 648.899939 91.732051 648.459345 91.732051 648 
C 91.732051 647.540655 91.549551 647.100061 91.224745 646.775255 
C 90.899939 646.450449 90.459345 646.267949 90 646.267949 
C 89.540655 646.267949 89.100061 646.450449 88.775255 646.775255 
C 88.450449 647.100061 88.267949 647.540655 88.267949 648 
C 88.267949 648.459345 88.450449 648.899939 88.775255 649.224745 
C 89.100061 649.549551 89.540655 649.732051 90 649.732051 
z
" style="fill:#0000ff;fill-opacity:0.3;stroke:#000000;stroke-opacity:0.3;"/>
    <path clip-path="url(#p21ffe68000)" d="M 90 649.658312 
C 90.43979 649.658312 90.861626 649.483582 91.172604 649.172604 
C 91.483582 648.861626 91.658312 648.43979 91.658312 648 
C 91.658312 647.56021 91.483582 647.138374 91.172604 646.827396 
C 90.861626 646.516418 90.43979 646.341688 90 646.341688 
C 89.56021 646.341688 89.138374 646.516418 88.827396 646.827396 
C 88.516418 647.138374 88.341688 647.56021 88.341688 648 
C 88.341688 648.43979 88.516418 648.861626 88.827396 649.172604 
C 89.138374 649.483582 89.56021 649.658312 90 649.658312 
z
" style="fill:#0000ff;fill-opacity:0.3;stroke:#000000;stroke-opacity:0.3;"/>
   </g>
   <g id="line2d_1">
    <path clip-path="url(#p21ffe68000)" d="M 90 648 
L 95.636364 642.181818 
L 101.272727 636.363636 
L 106.909091 630.545455 
L 112.545455 624.727273 
L 118.181818 618.909091 
L 123.818182 613.090909 
L 129.454545 607.272727 
L 135.090909 601.454545 
L 140.727273 595.636364 
L 146.363636 589.818182 
L 152 584 
L 157.636364 578.181818 
L 163.272727 572.363636 
L 168.909091 566.545455 
L 174.545455 560.727273 
L 180.181818 554.909091 
L 185.818182 549.090909 
L 191.454545 543.272727 
L 197.090909 537.454545 
L 202.727273 531.636364 
L 208.363636 525.818182 
L 214 520 
L 219.636364 514.181818 
L 225.272727 508.363636 
L 230.909091 502.545455 
L 236.545455 496.727273 
L 242.181818 490.909091 
L 247.818182 485.090909 
L 253.454545 479.272727 
L 259.090909 473.454545 
L 264.727273 467.636364 
L 270.363636 461.818182 
L 276 456 
L 281.636364 450.181818 
L 287.272727 444.363636 
L 292.909091 438.545455 
L 298.545455 432.727273 
L 304.181818 426.909091 
L 309.818182 421.090909 
L 315.454545 415.272727 
L 321.090909 409.454545 
L 326.727273 403.636364 
L 332.363636 397.818182 
L 338 392 
L 343.636364 386.181818 
L 349.272727 380.363636 
L 354.909091 374.545455 
L 360.545455 368.727273 
L 366.181818 362.909091 
L 371.818182 357.090909 
L 377.454545 351.272727 
L 383.090909 345.454545 
L 388.727273 339.636364 
L 394.363636 333.818182 
L 400 328 
L 405.636364 322.181818 
L 411.272727 316.363636 
L 416.909091 310.545455 
L 422.545455 304.727273 
L 428.181818 298.909091 
L 433.818182 293.090909 
L 439.454545 287.272727 
L 445.090909 281.454545 
L 450.727273 275.636364 
L 456.363636 269.818182 
L 462 264 
L 467.636364 258.181818 
L 473.272727 252.363636 
L 478.909091 246.545455 
L 484.545455 240.727273 
L 490.181818 234.909091 
L 495.818182 229.090909 
L 501.454545 223.272727 
L 507.090909 217.454545 
L 512.727273 211.636364 
L 518.363636 205.818182 
L 524 200 
L 529.636364 194.181818 
L 535.272727 188.363636 
L 540.909091 182.545455 
L 546.545455 176.727273 
L 552.181818 170.909091 
L 557.818182 165.090909 
L 563.454545 159.272727 
L 569.090909 153.454545 
L 574.727273 147.636364 
L 580.363636 141.818182 
L 586 136 
L 591.636364 130.181818 
L 597.272727 124.363636 
L 602.909091 118.545455 
L 608.545455 112.727273 
L 614.181818 106.909091 
L 619.818182 101.090909 
L 625.454545 95.272727 
L 631.090909 89.454545 
L 636.727273 83.636364 
L 642.363636 77.818182 
L 648 72 
" style="fill:none;stroke:#ff0000;stroke-dasharray:6.000000,6.000000;stroke-dashoffset:0.0;"/>
   </g>
   <g id="patch_3">
    <path d="M 90 648 
L 90 72 
" style="fill:none;stroke:#000000;stroke-linecap:square;stroke-linejoin:miter;"/>
   </g>
   <g id="patch_4">
    <path d="M 90 648 
L 648 648 
" style="fill:none;stroke:#000000;stroke-linecap:square;stroke-linejoin:miter;"/>
   </g>
   <g id="patch_5">
    <path d="M 648 648 
L 648 72 
" style="fill:none;stroke:#000000;stroke-linecap:square;stroke-linejoin:miter;"/>
   </g>
   <g id="patch_6">
    <path d="M 90 72 
L 648 72 
" style="fill:none;stroke:#000000;stroke-linecap:square;stroke-linejoin:miter;"/>
   </g>
   <g id="matplotlib.axis_1">
    <g id="xtick_1">
     <g id="line2d_2">
      <path clip-path="url(#p21ffe68000)" d="M 90 648 
L 90 72 
" style="fill:none;stroke:#000000;stroke-dasharray:1.000000,3.000000;stroke-dashoffset:0.0;stroke-width:0.5;"/>
     </g>
     <g id="line2d_3">
      <defs>
       <path d="M 0 0 
L 0 -4 
" id="m7950e62e46" style="stroke:#000000;stroke-width:0.5;"/>
      </defs>
      <g>
       <use style="stroke:#000000;stroke-width:0.5;" x="90.0" xlink:href="#m7950e62e46" y="648.0"/>
      </g>
     </g>
     <g id="line2d_4">
      <defs>
       <path d="M 0 0 
L 0 4 
" id="mb8a7291e78" style="stroke:#000000;stroke-width:0.5;"/>
      </defs>
      <g>
       <use style="stroke:#000000;stroke-width:0.5;" x="90.0" xlink:href="#mb8a7291e78" y="72.0"/>
      </g>
     </g>
     <g id="text_1">
      <!-- $0.00$ -->
      <defs>
       <path d="M 18.40625 4.796875 
C 18.40625 7.6875 16 9.671875 13.59375 9.671875 
C 10.703125 9.671875 8.703125 7.28125 8.703125 4.890625 
C 8.703125 2 11.09375 0 13.5 0 
C 16.40625 0 18.40625 2.390625 18.40625 4.796875 
" id="CMMI12-58"/>
       <path d="M 42 31.640625 
C 42 37.75 41.90625 48.125 37.703125 56.109375 
C 34 63.109375 28.09375 65.59375 22.90625 65.59375 
C 18.09375 65.59375 12 63.40625 8.203125 56.203125 
C 4.203125 48.71875 3.796875 39.4375 3.796875 31.640625 
C 3.796875 25.953125 3.90625 17.28125 7 9.671875 
C 11.296875 -0.609375 19 -2 22.90625 -2 
C 27.5 -2 34.5 -0.109375 38.59375 9.375 
C 41.59375 16.28125 42 24.359375 42 31.640625 
M 22.90625 -0.40625 
C 16.5 -0.40625 12.703125 5.078125 11.296875 12.6875 
C 10.203125 18.5625 10.203125 27.15625 10.203125 32.75 
C 10.203125 40.4375 10.203125 46.828125 11.5 52.921875 
C 13.40625 61.390625 19 64 22.90625 64 
C 27 64 32.296875 61.296875 34.203125 53.125 
C 35.5 47.4375 35.59375 40.734375 35.59375 32.75 
C 35.59375 26.25 35.59375 18.265625 34.40625 12.375 
C 32.296875 1.484375 26.40625 -0.40625 22.90625 -0.40625 
" id="CMR17-48"/>
      </defs>
      <g transform="translate(79.5946839975 660.870650466)scale(0.12 -0.12)">
       <use transform="scale(0.9962640099626402)" xlink:href="#CMR17-48"/>
       <use transform="translate(45.69047711706103 0.0)scale(0.9962640099626402)" xlink:href="#CMMI12-58"/>
       <use transform="translate(72.78765420688046 0.0)scale(0.9962640099626402)" xlink:href="#CMR17-48"/>
       <use transform="translate(118.47813132394148 0.0)scale(0.9962640099626402)" xlink:href="#CMR17-48"/>
      </g>
     </g>
    </g>
    <g id="xtick_2">
     <g id="line2d_5">
      <path clip-path="url(#p21ffe68000)" d="M 201.6 648 
L 201.6 72 
" style="fill:none;stroke:#000000;stroke-dasharray:1.000000,3.000000;stroke-dashoffset:0.0;stroke-width:0.5;"/>
     </g>
     <g id="line2d_6">
      <g>
       <use style="stroke:#000000;stroke-width:0.5;" x="201.6" xlink:href="#m7950e62e46" y="648.0"/>
      </g>
     </g>
     <g id="line2d_7">
      <g>
       <use style="stroke:#000000;stroke-width:0.5;" x="201.6" xlink:href="#mb8a7291e78" y="72.0"/>
      </g>
     </g>
     <g id="text_2">
      <!-- $0.05$ -->
      <defs>
       <path d="M 11.40625 57.6875 
C 12.40625 57.28125 16.5 56 20.703125 56 
C 30 56 35.09375 61.015625 38 63.921875 
C 38 64.734375 38 65.25 37.40625 65.25 
C 37.296875 65.25 37.09375 65.25 36.296875 64.828125 
C 32.796875 63.3125 28.703125 62.078125 23.703125 62.078125 
C 20.703125 62.078125 16.203125 62.5 11.296875 64.734375 
C 10.203125 65.25 10 65.25 9.90625 65.25 
C 9.40625 65.25 9.296875 65.140625 9.296875 63.15625 
L 9.296875 34.28125 
C 9.296875 32.5 9.296875 32 10.296875 32 
C 10.796875 32 11 32.203125 11.5 32.90625 
C 14.703125 37.484375 19.09375 39.40625 24.09375 39.40625 
C 27.59375 39.40625 35.09375 37.21875 35.09375 20.140625 
C 35.09375 16.953125 35.09375 11.171875 32.09375 6.578125 
C 29.59375 2.484375 25.703125 0.390625 21.40625 0.390625 
C 14.796875 0.390625 8.09375 5 6.296875 12.71875 
C 6.703125 12.609375 7.5 12.421875 7.90625 12.421875 
C 9.203125 12.421875 11.703125 13.125 11.703125 16.21875 
C 11.703125 18.90625 9.796875 20 7.90625 20 
C 5.59375 20 4.09375 18.59375 4.09375 15.796875 
C 4.09375 7.09375 11 -2 21.59375 -2 
C 31.90625 -2 41.703125 6.875 41.703125 19.75 
C 41.703125 31.71875 33.90625 41 24.203125 41 
C 19.09375 41 14.796875 39.09375 11.40625 35.453125 
z
" id="CMR17-53"/>
      </defs>
      <g transform="translate(191.194683998 660.870650466)scale(0.12 -0.12)">
       <use transform="scale(0.9962640099626402)" xlink:href="#CMR17-48"/>
       <use transform="translate(45.69047711706103 0.0)scale(0.9962640099626402)" xlink:href="#CMMI12-58"/>
       <use transform="translate(72.78765420688046 0.0)scale(0.9962640099626402)" xlink:href="#CMR17-48"/>
       <use transform="translate(118.47813132394148 0.0)scale(0.9962640099626402)" xlink:href="#CMR17-53"/>
      </g>
     </g>
    </g>
    <g id="xtick_3">
     <g id="line2d_8">
      <path clip-path="url(#p21ffe68000)" d="M 313.2 648 
L 313.2 72 
" style="fill:none;stroke:#000000;stroke-dasharray:1.000000,3.000000;stroke-dashoffset:0.0;stroke-width:0.5;"/>
     </g>
     <g id="line2d_9">
      <g>
       <use style="stroke:#000000;stroke-width:0.5;" x="313.2" xlink:href="#m7950e62e46" y="648.0"/>
      </g>
     </g>
     <g id="line2d_10">
      <g>
       <use style="stroke:#000000;stroke-width:0.5;" x="313.2" xlink:href="#mb8a7291e78" y="72.0"/>
      </g>
     </g>
     <g id="text_3">
      <!-- $0.10$ -->
      <defs>
       <path d="M 26.59375 63.3125 
C 26.59375 65.40625 26.5 65.5 25.09375 65.5 
C 21.203125 61.1875 15.296875 59.796875 9.703125 59.796875 
C 9.40625 59.796875 8.90625 59.796875 8.796875 59.5 
C 8.703125 59.296875 8.703125 59.09375 8.703125 57 
C 11.796875 57 17 57.59375 21 59.984375 
L 21 7.203125 
C 21 3.6875 20.796875 2.5 12.203125 2.5 
L 9.203125 2.5 
L 9.203125 0 
C 14 0 19 0 23.796875 0 
C 28.59375 0 33.59375 0 38.40625 0 
L 38.40625 2.5 
L 35.40625 2.5 
C 26.796875 2.5 26.59375 3.59375 26.59375 7.15625 
z
" id="CMR17-49"/>
      </defs>
      <g transform="translate(302.794683998 660.870650466)scale(0.12 -0.12)">
       <use transform="scale(0.9962640099626402)" xlink:href="#CMR17-48"/>
       <use transform="translate(45.69047711706103 0.0)scale(0.9962640099626402)" xlink:href="#CMMI12-58"/>
       <use transform="translate(72.78765420688046 0.0)scale(0.9962640099626402)" xlink:href="#CMR17-49"/>
       <use transform="translate(118.47813132394148 0.0)scale(0.9962640099626402)" xlink:href="#CMR17-48"/>
      </g>
     </g>
    </g>
    <g id="xtick_4">
     <g id="line2d_11">
      <path clip-path="url(#p21ffe68000)" d="M 424.8 648 
L 424.8 72 
" style="fill:none;stroke:#000000;stroke-dasharray:1.000000,3.000000;stroke-dashoffset:0.0;stroke-width:0.5;"/>
     </g>
     <g id="line2d_12">
      <g>
       <use style="stroke:#000000;stroke-width:0.5;" x="424.8" xlink:href="#m7950e62e46" y="648.0"/>
      </g>
     </g>
     <g id="line2d_13">
      <g>
       <use style="stroke:#000000;stroke-width:0.5;" x="424.8" xlink:href="#mb8a7291e78" y="72.0"/>
      </g>
     </g>
     <g id="text_4">
      <!-- $0.15$ -->
      <g transform="translate(414.394683998 660.870650466)scale(0.12 -0.12)">
       <use transform="scale(0.9962640099626402)" xlink:href="#CMR17-48"/>
       <use transform="translate(45.69047711706103 0.0)scale(0.9962640099626402)" xlink:href="#CMMI12-58"/>
       <use transform="translate(72.78765420688046 0.0)scale(0.9962640099626402)" xlink:href="#CMR17-49"/>
       <use transform="translate(118.47813132394148 0.0)scale(0.9962640099626402)" xlink:href="#CMR17-53"/>
      </g>
     </g>
    </g>
    <g id="xtick_5">
     <g id="line2d_14">
      <path clip-path="url(#p21ffe68000)" d="M 536.4 648 
L 536.4 72 
" style="fill:none;stroke:#000000;stroke-dasharray:1.000000,3.000000;stroke-dashoffset:0.0;stroke-width:0.5;"/>
     </g>
     <g id="line2d_15">
      <g>
       <use style="stroke:#000000;stroke-width:0.5;" x="536.4" xlink:href="#m7950e62e46" y="648.0"/>
      </g>
     </g>
     <g id="line2d_16">
      <g>
       <use style="stroke:#000000;stroke-width:0.5;" x="536.4" xlink:href="#mb8a7291e78" y="72.0"/>
      </g>
     </g>
     <g id="text_5">
      <!-- $0.20$ -->
      <defs>
       <path d="M 41.703125 15.453125 
L 39.90625 15.453125 
C 38.90625 8.375 38.09375 7.171875 37.703125 6.5625 
C 37.203125 5.765625 30 5.765625 28.59375 5.765625 
L 9.40625 5.765625 
C 13 9.671875 20 16.75 28.5 24.953125 
C 34.59375 30.734375 41.703125 37.53125 41.703125 47.421875 
C 41.703125 59.21875 32.296875 66 21.796875 66 
C 10.796875 66 4.09375 56.3125 4.09375 47.34375 
C 4.09375 43.4375 7 42.9375 8.203125 42.9375 
C 9.203125 42.9375 12.203125 43.546875 12.203125 47.03125 
C 12.203125 50.109375 9.59375 51 8.203125 51 
C 7.59375 51 7 50.90625 6.59375 50.703125 
C 8.5 59.21875 14.296875 63.40625 20.40625 63.40625 
C 29.09375 63.40625 34.796875 56.515625 34.796875 47.421875 
C 34.796875 38.734375 29.703125 31.25 24 24.75 
L 4.09375 2.28125 
L 4.09375 0 
L 39.296875 0 
z
" id="CMR17-50"/>
      </defs>
      <g transform="translate(525.994683998 660.870650466)scale(0.12 -0.12)">
       <use transform="scale(0.9962640099626402)" xlink:href="#CMR17-48"/>
       <use transform="translate(45.69047711706103 0.0)scale(0.9962640099626402)" xlink:href="#CMMI12-58"/>
       <use transform="translate(72.78765420688046 0.0)scale(0.9962640099626402)" xlink:href="#CMR17-50"/>
       <use transform="translate(118.47813132394148 0.0)scale(0.9962640099626402)" xlink:href="#CMR17-48"/>
      </g>
     </g>
    </g>
    <g id="xtick_6">
     <g id="line2d_17">
      <path clip-path="url(#p21ffe68000)" d="M 648 648 
L 648 72 
" style="fill:none;stroke:#000000;stroke-dasharray:1.000000,3.000000;stroke-dashoffset:0.0;stroke-width:0.5;"/>
     </g>
     <g id="line2d_18">
      <g>
       <use style="stroke:#000000;stroke-width:0.5;" x="648.0" xlink:href="#m7950e62e46" y="648.0"/>
      </g>
     </g>
     <g id="line2d_19">
      <g>
       <use style="stroke:#000000;stroke-width:0.5;" x="648.0" xlink:href="#mb8a7291e78" y="72.0"/>
      </g>
     </g>
     <g id="text_6">
      <!-- $0.25$ -->
      <g transform="translate(637.594683998 660.870650466)scale(0.12 -0.12)">
       <use transform="scale(0.9962640099626402)" xlink:href="#CMR17-48"/>
       <use transform="translate(45.69047711706103 0.0)scale(0.9962640099626402)" xlink:href="#CMMI12-58"/>
       <use transform="translate(72.78765420688046 0.0)scale(0.9962640099626402)" xlink:href="#CMR17-50"/>
       <use transform="translate(118.47813132394148 0.0)scale(0.9962640099626402)" xlink:href="#CMR17-53"/>
      </g>
     </g>
    </g>
    <g id="text_7">
     <!-- Brier Score by Kaplan-Meier -->
     <defs>
      <path d="M 4.203125 27.28125 
L 4.203125 19 
L 29.09375 19 
L 29.09375 27.28125 
z
" id="Century_Schoolbook_L_Roman-45"/>
      <path d="M 28.703125 72 
L 2.90625 72 
L 2.90625 67.3125 
L 4.796875 67.3125 
C 12.90625 67.3125 13.796875 66.8125 13.796875 62.59375 
L 13.796875 59.703125 
L 13.796875 21.390625 
C 13.796875 7.78125 11.796875 4.890625 2.203125 4.890625 
L 2.203125 0 
L 30.703125 0 
L 30.703125 4.890625 
C 21.203125 4.890625 19.203125 7.78125 19.203125 21.40625 
L 19.203125 65.625 
L 43 0 
L 47 0 
L 69.296875 65.625 
L 69.296875 12.453125 
L 69.296875 9.5625 
C 69.296875 5.296875 68.40625 4.890625 60.296875 4.890625 
L 58.5 4.890625 
L 58.5 0 
L 91.296875 0 
L 91.296875 4.890625 
L 89.5 4.890625 
C 81.40625 4.890625 80.5 5.296875 80.5 9.5625 
L 80.5 12.453125 
L 80.5 59.75 
L 80.5 62.625 
C 80.5 66.8125 81.40625 67.3125 89.5 67.3125 
L 91.296875 67.3125 
L 91.296875 72 
L 66.203125 72 
L 47.90625 18.84375 
z
" id="Century_Schoolbook_L_Roman-77"/>
      <path d="M 3 72 
L 3 67.3125 
L 4.796875 67.3125 
C 12.90625 67.3125 13.796875 66.8125 13.796875 62.609375 
L 13.796875 59.71875 
L 13.796875 12.28125 
L 13.796875 9.375 
C 13.796875 5.1875 12.90625 4.6875 4.796875 4.6875 
L 3 4.6875 
L 3 0 
L 39.296875 0 
C 56.59375 0 67 7.40625 67 19.59375 
C 67 29.484375 60.59375 35.296875 47 37.6875 
C 51.796875 38.6875 54 39.578125 56.5 41.46875 
C 60.703125 44.546875 63.203125 49.421875 63.203125 54.5 
C 63.203125 60.859375 59.203125 67.125 53.40625 69.609375 
C 49.796875 71.203125 44.796875 72 38.90625 72 
z
M 25 39.6875 
L 25 62.328125 
C 25 66.203125 26.40625 67.3125 31.59375 67.3125 
L 35.59375 67.3125 
C 40.203125 67.3125 44 66.609375 46.09375 65.21875 
C 49.703125 63.03125 51.59375 58.75 51.59375 53.203125 
C 51.59375 43.46875 46.703125 39.6875 33.90625 39.6875 
z
M 25 35 
L 33.796875 35 
C 40.203125 35 44.5 34.390625 47.5 33.09375 
C 52.203125 30.890625 54.703125 26.5 54.703125 19.890625 
C 54.703125 13.59375 52.5 8.890625 48.59375 6.984375 
C 45.5 5.390625 41.296875 4.6875 35 4.6875 
L 30.796875 4.6875 
C 25.703125 4.6875 25 5.484375 25 11 
z
" id="Century_Schoolbook_L_Roman-66"/>
      <path d="M 30 13.203125 
L 19 38.8125 
C 18.59375 39.703125 18.40625 40.40625 18.40625 40.90625 
C 18.40625 42.703125 19.59375 43.40625 23 43.40625 
L 25.09375 43.40625 
L 25.09375 47 
L 1.296875 47 
L 1.296875 43.40625 
L 2.40625 43.40625 
C 5.59375 43.40625 7.40625 42 9.203125 38.015625 
L 25.5 1.234375 
L 23.796875 -2.265625 
C 20.203125 -9.828125 15.5 -15.109375 12.296875 -15.109375 
C 11.40625 -15.109375 10.703125 -14.703125 10.703125 -14.109375 
C 10.703125 -13.90625 10.796875 -13.609375 10.90625 -13.203125 
C 11.203125 -12.3125 11.40625 -11.421875 11.40625 -10.625 
C 11.40625 -8.03125 9.203125 -6.140625 6.296875 -6.140625 
C 2.796875 -6.140625 0.296875 -8.734375 0.296875 -12.328125 
C 0.296875 -16.703125 4.203125 -20 9.40625 -20 
C 14.703125 -20 19.203125 -17.40625 23.203125 -12.03125 
C 26.296875 -7.84375 28.296875 -3.84375 32.703125 7.21875 
L 44.09375 35.328125 
C 46.59375 41.40625 48.703125 43.40625 52.5 43.40625 
L 53.09375 43.40625 
L 53.09375 47 
L 33.09375 47 
L 33.09375 43.40625 
L 34.703125 43.40625 
C 38.5 43.40625 40.09375 42.296875 40.09375 39.703125 
C 40.09375 38.703125 39.796875 37.421875 39.09375 35.734375 
z
" id="Century_Schoolbook_L_Roman-121"/>
      <path d="M 20.09375 46 
L 2.796875 46 
L 2.796875 41.21875 
L 6.40625 41.21875 
C 10.09375 41.21875 10.703125 40.515625 10.703125 36.21875 
L 10.703125 -7.75 
L 10.703125 -11.71875 
C 10.703125 -15.71875 9.59375 -16.40625 3.203125 -16.40625 
L 2.796875 -16.40625 
L 2.796875 -20 
L 28.796875 -20 
L 28.796875 -16.40625 
L 27.703125 -16.40625 
C 21.203125 -16.40625 20.09375 -15.71875 20.09375 -11.734375 
L 20.09375 -7.75 
L 20.09375 6.6875 
C 23.40625 0.90625 27.203125 -1.390625 33.296875 -1.390625 
C 44.90625 -1.390625 53.5 9.265625 53.5 23.5 
C 53.5 37.265625 44.90625 48 33.90625 48 
C 27.703125 48 23.59375 45.4375 20.09375 39.515625 
z
M 32.09375 42.609375 
C 39 42.609375 43 35.75 43 24.09375 
C 43 11.265625 38.90625 4 31.796875 4 
C 24.703125 4 20 11.375 20 22.8125 
C 20 35.140625 24.5 42.609375 32.09375 42.609375 
" id="Century_Schoolbook_L_Roman-112"/>
      <path d="M 46.5 23 
C 46.59375 37.8125 38.09375 48.28125 25.90625 48.28125 
C 13.09375 48.28125 3.5 37.25 3.5 22.34375 
C 3.5 8.4375 12.59375 -1 26.09375 -1 
C 35.59375 -1 42.40625 3.6875 46.5 13.1875 
L 43 15.09375 
C 38.90625 7.390625 34.703125 4.390625 28 4.390625 
C 22.90625 4.390625 19.203125 6.59375 16.59375 11 
C 14.796875 14 14 17.5 14.09375 23 
z
M 14.203125 27.296875 
C 14.203125 30.34375 14.59375 32.5 15.59375 35.25 
C 17.703125 41.140625 20.90625 44 25.703125 44 
C 31.796875 44 35.796875 38.78125 35.796875 30.921875 
C 35.796875 28.078125 34.90625 27.296875 31.703125 27.296875 
z
" id="Century_Schoolbook_L_Roman-101"/>
      <path d="M 54.59375 72 
L 50.90625 72 
L 46.90625 66.09375 
C 42.203125 70.59375 35.796875 73 28.703125 73 
C 15.59375 73 6.796875 64.609375 6.796875 52.15625 
C 6.796875 41.28125 12.203125 35.890625 26.90625 32.109375 
L 36.40625 29.703125 
C 43.796875 27.828125 44.5 27.625 46.59375 26.03125 
C 49.59375 23.734375 51.203125 20.4375 51.203125 16.546875 
C 51.203125 12.5625 49.703125 9.28125 46.703125 6.59375 
C 43.40625 3.6875 40.09375 2.59375 34.59375 2.59375 
C 27.203125 2.59375 21.90625 4.875 17.203125 10.03125 
C 13 14.703125 10.90625 19.375 9.40625 27 
L 5.09375 27 
L 5.5 -1.4375 
L 9.40625 -1.4375 
L 13.90625 5.46875 
C 20.59375 0 26.203125 -2 34.90625 -2 
C 49.59375 -2 59 6.59375 59 19.9375 
C 59 26.109375 56.90625 31.40625 53 35.203125 
C 50.296875 37.796875 46.40625 39.484375 38.40625 41.484375 
L 27.703125 44.171875 
C 18.796875 46.46875 14.59375 50.359375 14.59375 56.4375 
C 14.59375 63.40625 20.296875 68.203125 28.796875 68.203125 
C 35.796875 68.203125 41.5 65.1875 45.5 59.484375 
C 48.40625 55.375 50.203125 51.15625 51.5 46.046875 
L 55.796875 46.046875 
z
" id="Century_Schoolbook_L_Roman-83"/>
      <path d="M 20.40625 73 
L 1.90625 73 
L 1.90625 68.21875 
L 6.796875 68.21875 
C 10.40625 68.21875 11 67.515625 11 63.21875 
L 11 12.28125 
L 11 8.28125 
C 11 4.296875 9.90625 3.59375 3.5 3.59375 
L 2.796875 3.59375 
L 2.796875 0 
L 28.703125 0 
L 28.703125 3.59375 
L 28 3.59375 
C 21.5 3.59375 20.40625 4.296875 20.40625 8.25 
L 20.40625 12.21875 
z
" id="Century_Schoolbook_L_Roman-108"/>
      <path d="M 45.203125 32.578125 
C 45.203125 38.796875 44.09375 41.96875 41.203125 44.34375 
C 37.90625 46.90625 33 48.28125 26.59375 48.28125 
C 15.40625 48.28125 7.09375 43.046875 7.09375 35.921875 
C 7.09375 32.15625 9.40625 29.78125 12.90625 29.78125 
C 16 29.78125 18.296875 31.859375 18.296875 34.8125 
C 18.296875 36.109375 17.796875 37.484375 16.796875 38.875 
C 16.203125 39.546875 16.09375 39.84375 16.09375 40.15625 
C 16.09375 42.21875 20.203125 44 25 44 
C 28.09375 44 31.59375 43.015625 33.203125 41.53125 
C 35.09375 39.953125 35.796875 37.578125 35.796875 33.125 
L 35.796875 29.28125 
C 25.296875 27.484375 22.09375 26.6875 17.203125 24.8125 
C 8.59375 21.609375 4.40625 16.9375 4.40625 10.65625 
C 4.40625 3.578125 10.09375 -1 18.90625 -1 
C 25.796875 -1 32 1.859375 36.296875 7.0625 
C 37.90625 1.984375 40.40625 0 45.09375 0 
C 49.59375 0 54.296875 2.90625 54.296875 5.78125 
C 54.296875 6.46875 53.796875 6.96875 53.296875 6.96875 
C 52.90625 6.96875 52.5 6.875 51.796875 6.578125 
C 50.203125 6 49.796875 5.890625 49 5.890625 
C 46.203125 5.890625 45.203125 7.78125 45.203125 12.71875 
z
M 35.796875 20.46875 
C 35.796875 14.46875 35.5 13.078125 33.796875 10.484375 
C 31.296875 6.78125 26.703125 4.296875 22.40625 4.296875 
C 17.90625 4.296875 14.5 7.59375 14.5 12.078125 
C 14.5 16.265625 16.59375 19.265625 21 21.359375 
C 24.09375 22.75 28 23.75 35.796875 25.046875 
z
" id="Century_Schoolbook_L_Roman-97"/>
      <path d="M 20.59375 46 
L 1.796875 46 
L 1.796875 41.21875 
L 6.90625 41.21875 
C 10.59375 41.21875 11.203125 40.515625 11.203125 36.203125 
L 11.203125 12.296875 
L 11.203125 8.296875 
C 11.203125 4.296875 10.09375 3.59375 3.703125 3.59375 
L 3 3.59375 
L 3 0 
L 28.90625 0 
L 28.90625 3.59375 
L 28.203125 3.59375 
C 21.703125 3.59375 20.59375 4.28125 20.59375 8.21875 
L 20.59375 12.171875 
z
M 15.90625 71.578125 
C 12.703125 71.578125 10.09375 68.984375 10.09375 65.796875 
C 10.09375 62.703125 12.703125 60 15.796875 60 
C 19.09375 60 21.703125 62.59375 21.703125 65.796875 
C 21.703125 68.984375 19.09375 71.578125 15.90625 71.578125 
" id="Century_Schoolbook_L_Roman-105"/>
      <path d="M 38.703125 15.109375 
C 35.5 7.96875 32.09375 5.09375 26.90625 5.09375 
C 18.90625 5.09375 13.90625 12.328125 13.90625 23.9375 
C 13.90625 35.953125 18.796875 44 26.203125 44 
C 29.203125 44 31.796875 42.59375 31.796875 41.015625 
C 31.796875 40.71875 31.59375 40.421875 31.203125 39.8125 
C 29.59375 37.9375 29.203125 36.9375 29.203125 35.265625 
C 29.203125 31.984375 31.703125 29.703125 35.203125 29.703125 
C 38.703125 29.703125 41.296875 32.484375 41.296875 36.453125 
C 41.296875 43.109375 34.59375 48.28125 25.703125 48.28125 
C 12.703125 48.28125 3.40625 37.65625 3.40625 22.84375 
C 3.40625 8.734375 11.90625 -1 24.296875 -1 
C 33.203125 -1 38.296875 3.078125 42.59375 13.625 
z
" id="Century_Schoolbook_L_Roman-99"/>
      <path d="M 18 73 
L 0.796875 73 
L 0.796875 68.21875 
L 4.296875 68.21875 
C 8 68.21875 8.59375 67.515625 8.59375 63.25 
L 8.59375 24.625 
C 8.59375 11.3125 8.09375 4.84375 6.796875 -1 
L 10.59375 -1 
L 15.5 6.75 
C 19.59375 1.453125 24.296875 -1 30.5 -1 
C 42.796875 -1 52 9.59375 52 23.828125 
C 52 38.078125 43.59375 48.078125 31.59375 48.078125 
C 25.5 48.078125 21.796875 46 18 40.328125 
z
M 29.796875 43 
C 37.296875 43 41.5 35.765625 41.5 22.796875 
C 41.5 10.3125 37.40625 3.1875 30.09375 3.1875 
C 22.203125 3.1875 17.5 10.40625 17.5 22.59375 
C 17.5 35.765625 21.796875 43 29.796875 43 
" id="Century_Schoolbook_L_Roman-98"/>
      <path d="M 25 32.609375 
L 25 59.71875 
L 25 62.609375 
C 25 66.8125 25.90625 67.3125 34 67.3125 
L 35.90625 67.3125 
L 35.90625 72 
L 3 72 
L 3 67.3125 
L 4.796875 67.3125 
C 12.90625 67.3125 13.796875 66.8125 13.796875 62.609375 
L 13.796875 59.71875 
L 13.796875 12.28125 
L 13.796875 9.375 
C 13.796875 5.1875 12.90625 4.6875 4.796875 4.6875 
L 3 4.6875 
L 3 0 
L 35.90625 0 
L 35.90625 4.6875 
L 34 4.6875 
C 25.90625 4.6875 25 5.1875 25 9.375 
L 25 12.28125 
L 25 24.9375 
L 36.59375 36.59375 
L 54 11.171875 
C 55.59375 8.78125 56 7.984375 56 6.984375 
C 56 5.390625 54.09375 4.6875 49.203125 4.6875 
L 46.09375 4.6875 
L 46.09375 0 
L 80.296875 0 
L 80.296875 4.6875 
L 78.40625 4.6875 
C 72.90625 4.6875 71.5 5.390625 68.59375 9.6875 
L 44.40625 44.46875 
L 59.296875 59.328125 
C 64.09375 64.40625 70.203125 67.3125 76.203125 67.3125 
L 76.203125 72 
L 45.40625 72 
L 45.40625 67.3125 
L 47.90625 67.3125 
C 52.5 67.3125 54.40625 66.40625 54.40625 64.3125 
C 54.40625 62.921875 52.40625 60.015625 49.5 57.140625 
z
" id="Century_Schoolbook_L_Roman-75"/>
      <path d="M 20 46 
L 2.703125 46 
L 2.703125 41.21875 
L 6.296875 41.21875 
C 10 41.21875 10.59375 40.515625 10.59375 36.203125 
L 10.59375 12.296875 
L 10.59375 8.296875 
C 10.59375 4.296875 9.5 3.59375 3.09375 3.59375 
L 2.703125 3.59375 
L 2.703125 0 
L 28 0 
L 28 3.59375 
L 27.59375 3.59375 
C 21.09375 3.59375 20 4.296875 20 8.28125 
L 20 12.28125 
L 20 22.65625 
C 20 27.546875 20.703125 32.03125 21.796875 34.328125 
C 23.90625 38.828125 28.40625 41.921875 32.703125 41.921875 
C 35.296875 41.921875 38.296875 40.421875 39.796875 38.421875 
C 41.296875 36.328125 42 33.234375 42 28.4375 
L 42 12.28125 
L 42 8.28125 
C 42 4.296875 40.90625 3.59375 34.40625 3.59375 
L 34 3.59375 
L 34 0 
L 59.296875 0 
L 59.296875 3.59375 
L 58.90625 3.59375 
C 52.5 3.59375 51.40625 4.296875 51.40625 8.28125 
L 51.40625 12.28125 
L 51.40625 27.953125 
C 51.40625 35.125 51.09375 36.921875 49.296875 40.328125 
C 46.796875 45.109375 41.703125 48 35.796875 48 
C 29.40625 48 24.40625 45.046875 20 38.515625 
z
" id="Century_Schoolbook_L_Roman-110"/>
      <path d="M 25.203125 48.28125 
C 13 48.28125 3.40625 37.453125 3.40625 23.546875 
C 3.40625 9.9375 13 -1 25 -1 
C 37 -1 46.59375 9.9375 46.59375 23.640625 
C 46.59375 37.25 37 48.28125 25.203125 48.28125 
M 25.203125 44 
C 32.203125 44 36.09375 36.734375 36.09375 23.640625 
C 36.09375 10.453125 32.203125 3.296875 25 3.296875 
C 17.796875 3.296875 13.90625 10.453125 13.90625 23.546875 
C 13.90625 37.046875 17.703125 44 25.203125 44 
" id="Century_Schoolbook_L_Roman-111"/>
      <path d="M 19.796875 46 
L 2.09375 46 
L 2.09375 41.21875 
L 6.203125 41.21875 
C 9.90625 41.21875 10.5 40.515625 10.5 36.203125 
L 10.5 12.296875 
L 10.5 8.296875 
C 10.5 4.296875 9.40625 3.59375 2.90625 3.59375 
L 2.5 3.59375 
L 2.5 0 
L 29.203125 0 
L 29.203125 3.59375 
L 27.296875 3.59375 
C 20.90625 3.59375 19.796875 4.296875 19.796875 8.296875 
L 19.796875 12.296875 
L 19.796875 13.296875 
C 19.796875 20.8125 21.203125 28.40625 23.703125 34.109375 
C 26.09375 39.703125 29.5 42.8125 33.703125 43.3125 
C 32.296875 41.703125 31.90625 40.6875 31.90625 38.765625 
C 31.90625 35.546875 34.203125 33.234375 37.40625 33.234375 
C 41 33.234375 43.5 35.9375 43.5 40.015625 
C 43.5 44.8125 40.09375 48 34.796875 48 
C 28.5 48 23 42.921875 19.796875 34.140625 
z
" id="Century_Schoolbook_L_Roman-114"/>
     </defs>
     <g transform="translate(289.522915471 677.012736053)scale(0.12 -0.12)">
      <use transform="scale(0.9962640099626402)" xlink:href="#Century_Schoolbook_L_Roman-66"/>
      <use transform="translate(71.92998484686333 0.0)scale(0.9962640099626402)" xlink:href="#Century_Schoolbook_L_Roman-114"/>
      <use transform="translate(116.16355354432598 0.0)scale(0.9962640099626402)" xlink:href="#Century_Schoolbook_L_Roman-105"/>
      <use transform="translate(147.54486654051215 0.0)scale(0.9962640099626402)" xlink:href="#Century_Schoolbook_L_Roman-101"/>
      <use transform="translate(197.35806703864418 0.0)scale(0.9962640099626402)" xlink:href="#Century_Schoolbook_L_Roman-114"/>
      <use transform="translate(269.28680533935244 0.0)scale(0.9962640099626402)" xlink:href="#Century_Schoolbook_L_Roman-83"/>
      <use transform="translate(332.0507842903565 0.0)scale(0.9962640099626402)" xlink:href="#Century_Schoolbook_L_Roman-99"/>
      <use transform="translate(376.28435298781915 0.0)scale(0.9962640099626402)" xlink:href="#Century_Schoolbook_L_Roman-111"/>
      <use transform="translate(426.09755348595115 0.0)scale(0.9962640099626402)" xlink:href="#Century_Schoolbook_L_Roman-114"/>
      <use transform="translate(470.3311221834138 0.0)scale(0.9962640099626402)" xlink:href="#Century_Schoolbook_L_Roman-101"/>
      <use transform="translate(547.8394922847915 0.0)scale(0.9962640099626402)" xlink:href="#Century_Schoolbook_L_Roman-98"/>
      <use transform="translate(603.2311692481321 0.0)scale(0.9962640099626402)" xlink:href="#Century_Schoolbook_L_Roman-121"/>
      <use transform="translate(684.4256827424502 0.0)scale(0.9962640099626402)" xlink:href="#Century_Schoolbook_L_Roman-75"/>
      <use transform="translate(761.9340528438279 0.0)scale(0.9962640099626402)" xlink:href="#Century_Schoolbook_L_Roman-97"/>
      <use transform="translate(817.3257298071685 0.0)scale(0.9962640099626402)" xlink:href="#Century_Schoolbook_L_Roman-112"/>
      <use transform="translate(874.5112170911816 0.0)scale(0.9962640099626402)" xlink:href="#Century_Schoolbook_L_Roman-108"/>
      <use transform="translate(905.8925300873677 0.0)scale(0.9962640099626402)" xlink:href="#Century_Schoolbook_L_Roman-97"/>
      <use transform="translate(961.2842070507083 0.0)scale(0.9962640099626402)" xlink:href="#Century_Schoolbook_L_Roman-110"/>
      <use transform="translate(1022.155837727662 0.0)scale(0.9962640099626402)" xlink:href="#Century_Schoolbook_L_Roman-45"/>
      <use transform="translate(1055.3310674569973 0.0)scale(0.9962640099626402)" xlink:href="#Century_Schoolbook_L_Roman-77"/>
      <use transform="translate(1149.377836652592 0.0)scale(0.9962640099626402)" xlink:href="#Century_Schoolbook_L_Roman-101"/>
      <use transform="translate(1199.191037150724 0.0)scale(0.9962640099626402)" xlink:href="#Century_Schoolbook_L_Roman-105"/>
      <use transform="translate(1230.5723501469101 0.0)scale(0.9962640099626402)" xlink:href="#Century_Schoolbook_L_Roman-101"/>
      <use transform="translate(1280.3855506450423 0.0)scale(0.9962640099626402)" xlink:href="#Century_Schoolbook_L_Roman-114"/>
     </g>
    </g>
   </g>
   <g id="matplotlib.axis_2">
    <g id="ytick_1">
     <g id="line2d_20">
      <path clip-path="url(#p21ffe68000)" d="M 90 648 
L 648 648 
" style="fill:none;stroke:#000000;stroke-dasharray:1.000000,3.000000;stroke-dashoffset:0.0;stroke-width:0.5;"/>
     </g>
     <g id="line2d_21">
      <defs>
       <path d="M 0 0 
L 4 0 
" id="m235de2e1fc" style="stroke:#000000;stroke-width:0.5;"/>
      </defs>
      <g>
       <use style="stroke:#000000;stroke-width:0.5;" x="90.0" xlink:href="#m235de2e1fc" y="648.0"/>
      </g>
     </g>
     <g id="line2d_22">
      <defs>
       <path d="M 0 0 
L -4 0 
" id="mc3aa16cc32" style="stroke:#000000;stroke-width:0.5;"/>
      </defs>
      <g>
       <use style="stroke:#000000;stroke-width:0.5;" x="648.0" xlink:href="#mc3aa16cc32" y="648.0"/>
      </g>
     </g>
     <g id="text_8">
      <!-- $0.00$ -->
      <g transform="translate(65.189367995 651.299607672)scale(0.12 -0.12)">
       <use transform="scale(0.9962640099626402)" xlink:href="#CMR17-48"/>
       <use transform="translate(45.69047711706103 0.0)scale(0.9962640099626402)" xlink:href="#CMMI12-58"/>
       <use transform="translate(72.78765420688046 0.0)scale(0.9962640099626402)" xlink:href="#CMR17-48"/>
       <use transform="translate(118.47813132394148 0.0)scale(0.9962640099626402)" xlink:href="#CMR17-48"/>
      </g>
     </g>
    </g>
    <g id="ytick_2">
     <g id="line2d_23">
      <path clip-path="url(#p21ffe68000)" d="M 90 532.8 
L 648 532.8 
" style="fill:none;stroke:#000000;stroke-dasharray:1.000000,3.000000;stroke-dashoffset:0.0;stroke-width:0.5;"/>
     </g>
     <g id="line2d_24">
      <g>
       <use style="stroke:#000000;stroke-width:0.5;" x="90.0" xlink:href="#m235de2e1fc" y="532.8"/>
      </g>
     </g>
     <g id="line2d_25">
      <g>
       <use style="stroke:#000000;stroke-width:0.5;" x="648.0" xlink:href="#mc3aa16cc32" y="532.8"/>
      </g>
     </g>
     <g id="text_9">
      <!-- $0.05$ -->
      <g transform="translate(65.189367995 536.099607672)scale(0.12 -0.12)">
       <use transform="scale(0.9962640099626402)" xlink:href="#CMR17-48"/>
       <use transform="translate(45.69047711706103 0.0)scale(0.9962640099626402)" xlink:href="#CMMI12-58"/>
       <use transform="translate(72.78765420688046 0.0)scale(0.9962640099626402)" xlink:href="#CMR17-48"/>
       <use transform="translate(118.47813132394148 0.0)scale(0.9962640099626402)" xlink:href="#CMR17-53"/>
      </g>
     </g>
    </g>
    <g id="ytick_3">
     <g id="line2d_26">
      <path clip-path="url(#p21ffe68000)" d="M 90 417.6 
L 648 417.6 
" style="fill:none;stroke:#000000;stroke-dasharray:1.000000,3.000000;stroke-dashoffset:0.0;stroke-width:0.5;"/>
     </g>
     <g id="line2d_27">
      <g>
       <use style="stroke:#000000;stroke-width:0.5;" x="90.0" xlink:href="#m235de2e1fc" y="417.6"/>
      </g>
     </g>
     <g id="line2d_28">
      <g>
       <use style="stroke:#000000;stroke-width:0.5;" x="648.0" xlink:href="#mc3aa16cc32" y="417.6"/>
      </g>
     </g>
     <g id="text_10">
      <!-- $0.10$ -->
      <g transform="translate(65.189367995 420.899607672)scale(0.12 -0.12)">
       <use transform="scale(0.9962640099626402)" xlink:href="#CMR17-48"/>
       <use transform="translate(45.69047711706103 0.0)scale(0.9962640099626402)" xlink:href="#CMMI12-58"/>
       <use transform="translate(72.78765420688046 0.0)scale(0.9962640099626402)" xlink:href="#CMR17-49"/>
       <use transform="translate(118.47813132394148 0.0)scale(0.9962640099626402)" xlink:href="#CMR17-48"/>
      </g>
     </g>
    </g>
    <g id="ytick_4">
     <g id="line2d_29">
      <path clip-path="url(#p21ffe68000)" d="M 90 302.4 
L 648 302.4 
" style="fill:none;stroke:#000000;stroke-dasharray:1.000000,3.000000;stroke-dashoffset:0.0;stroke-width:0.5;"/>
     </g>
     <g id="line2d_30">
      <g>
       <use style="stroke:#000000;stroke-width:0.5;" x="90.0" xlink:href="#m235de2e1fc" y="302.4"/>
      </g>
     </g>
     <g id="line2d_31">
      <g>
       <use style="stroke:#000000;stroke-width:0.5;" x="648.0" xlink:href="#mc3aa16cc32" y="302.4"/>
      </g>
     </g>
     <g id="text_11">
      <!-- $0.15$ -->
      <g transform="translate(65.189367995 305.699607672)scale(0.12 -0.12)">
       <use transform="scale(0.9962640099626402)" xlink:href="#CMR17-48"/>
       <use transform="translate(45.69047711706103 0.0)scale(0.9962640099626402)" xlink:href="#CMMI12-58"/>
       <use transform="translate(72.78765420688046 0.0)scale(0.9962640099626402)" xlink:href="#CMR17-49"/>
       <use transform="translate(118.47813132394148 0.0)scale(0.9962640099626402)" xlink:href="#CMR17-53"/>
      </g>
     </g>
    </g>
    <g id="ytick_5">
     <g id="line2d_32">
      <path clip-path="url(#p21ffe68000)" d="M 90 187.2 
L 648 187.2 
" style="fill:none;stroke:#000000;stroke-dasharray:1.000000,3.000000;stroke-dashoffset:0.0;stroke-width:0.5;"/>
     </g>
     <g id="line2d_33">
      <g>
       <use style="stroke:#000000;stroke-width:0.5;" x="90.0" xlink:href="#m235de2e1fc" y="187.2"/>
      </g>
     </g>
     <g id="line2d_34">
      <g>
       <use style="stroke:#000000;stroke-width:0.5;" x="648.0" xlink:href="#mc3aa16cc32" y="187.2"/>
      </g>
     </g>
     <g id="text_12">
      <!-- $0.20$ -->
      <g transform="translate(65.189367995 190.499607672)scale(0.12 -0.12)">
       <use transform="scale(0.9962640099626402)" xlink:href="#CMR17-48"/>
       <use transform="translate(45.69047711706103 0.0)scale(0.9962640099626402)" xlink:href="#CMMI12-58"/>
       <use transform="translate(72.78765420688046 0.0)scale(0.9962640099626402)" xlink:href="#CMR17-50"/>
       <use transform="translate(118.47813132394148 0.0)scale(0.9962640099626402)" xlink:href="#CMR17-48"/>
      </g>
     </g>
    </g>
    <g id="ytick_6">
     <g id="line2d_35">
      <path clip-path="url(#p21ffe68000)" d="M 90 72 
L 648 72 
" style="fill:none;stroke:#000000;stroke-dasharray:1.000000,3.000000;stroke-dashoffset:0.0;stroke-width:0.5;"/>
     </g>
     <g id="line2d_36">
      <g>
       <use style="stroke:#000000;stroke-width:0.5;" x="90.0" xlink:href="#m235de2e1fc" y="72.0"/>
      </g>
     </g>
     <g id="line2d_37">
      <g>
       <use style="stroke:#000000;stroke-width:0.5;" x="648.0" xlink:href="#mc3aa16cc32" y="72.0"/>
      </g>
     </g>
     <g id="text_13">
      <!-- $0.25$ -->
      <g transform="translate(65.189367995 75.2996076724)scale(0.12 -0.12)">
       <use transform="scale(0.9962640099626402)" xlink:href="#CMR17-48"/>
       <use transform="translate(45.69047711706103 0.0)scale(0.9962640099626402)" xlink:href="#CMMI12-58"/>
       <use transform="translate(72.78765420688046 0.0)scale(0.9962640099626402)" xlink:href="#CMR17-50"/>
       <use transform="translate(118.47813132394148 0.0)scale(0.9962640099626402)" xlink:href="#CMR17-53"/>
      </g>
     </g>
    </g>
    <g id="text_14">
     <!-- Brier Score by Survival Rate -->
     <defs>
      <path d="M 24.59375 35 
L 30.40625 35 
C 34.296875 35 38.296875 33.796875 40.5 31.984375 
C 43.40625 29.6875 44.90625 26.078125 45.59375 19.46875 
L 46.09375 14.34375 
C 47.296875 3.015625 51 -1.59375 58.90625 -1.59375 
C 67.09375 -1.59375 71 3.921875 71.296875 15.921875 
L 67.09375 15.921875 
C 66.703125 9 65.5 6 62.796875 6 
C 60.5 6 59.5 7.703125 57.796875 14.625 
L 56.203125 20.9375 
C 54 30.171875 50.09375 34.375 42.296875 36.390625 
C 56.703125 38.390625 63.59375 44.140625 63.59375 54.1875 
C 63.59375 65.53125 54 72 37.203125 72 
L 2.59375 72 
L 2.59375 67.3125 
L 4.40625 67.3125 
C 12.5 67.3125 13.40625 66.8125 13.40625 62.609375 
L 13.40625 59.71875 
L 13.40625 12.171875 
L 13.40625 9.375 
C 13.40625 5.1875 12.5 4.6875 4.40625 4.6875 
L 2.59375 4.6875 
L 2.59375 0 
L 35.40625 0 
L 35.40625 4.6875 
L 33.59375 4.6875 
C 25.5 4.6875 24.59375 5.1875 24.59375 9.390625 
L 24.59375 12.1875 
z
M 24.59375 39.6875 
L 24.59375 61.546875 
C 24.59375 65.53125 24.703125 65.8125 25.703125 66.609375 
C 26.5 67.203125 27.203125 67.3125 31.5 67.3125 
L 36.90625 67.3125 
C 46.796875 67.3125 51.296875 63.125 51.296875 54.09375 
C 51.296875 49.015625 50 45.140625 47.40625 43.0625 
C 44.90625 40.984375 40.40625 39.6875 35.59375 39.6875 
z
" id="Century_Schoolbook_L_Roman-82"/>
      <path d="M 29.5 12.09375 
L 18.09375 38.59375 
C 17.796875 39.203125 17.59375 40.09375 17.59375 40.703125 
C 17.59375 42.390625 18.90625 43 23 43 
L 24.40625 43 
L 24.40625 46.59375 
L 0.796875 46.59375 
L 0.796875 43 
L 1.59375 43 
C 5.40625 43 6.796875 42.09375 8.203125 38.703125 
L 25.40625 -1.5 
L 28.90625 -1.5 
L 43.09375 33.59375 
C 45.796875 40.203125 48.59375 43 52.40625 43 
L 52.796875 43 
L 52.796875 46.59375 
L 32.796875 46.59375 
L 32.796875 43 
L 34.203125 43 
C 37.703125 43 39.59375 41.796875 39.59375 39.5 
C 39.59375 38.390625 39.203125 36.796875 38.703125 35.296875 
z
" id="Century_Schoolbook_L_Roman-118"/>
      <path d="M 41.203125 0 
L 59.40625 0 
L 59.40625 4.703125 
L 56.90625 4.703125 
C 51.40625 4.703125 50.59375 5.59375 50.59375 11.953125 
L 50.59375 46.78125 
L 31.796875 46.78125 
L 31.796875 42 
L 36.90625 42 
C 40.59375 42 41.203125 41.296875 41.203125 36.953125 
L 41.203125 24.5625 
C 41.203125 18.8125 40.59375 15.484375 39.09375 12.15625 
C 37 7.71875 33 5.09375 28.09375 5.09375 
C 25 5.09375 22.40625 6.1875 21.09375 8.171875 
C 19.796875 10.046875 19.59375 11.046875 19.59375 16.5 
L 19.59375 46.78125 
L 2.09375 46.78125 
L 2.09375 42 
L 5.90625 42 
C 9.59375 42 10.203125 41.296875 10.203125 36.953125 
L 10.203125 15.21875 
C 10.203125 10.078125 10.59375 7.765625 12.09375 5.453125 
C 14.796875 1.3125 19.59375 -1 25.59375 -1 
C 32.203125 -1 36.796875 1.71875 41.203125 8.125 
z
" id="Century_Schoolbook_L_Roman-117"/>
      <path d="M 19.40625 47 
L 19.40625 67 
L 15.296875 67 
C 14.296875 53.875 9.90625 47.1875 1.796875 46.59375 
L 1.796875 42.703125 
L 10 42.703125 
L 10 17.265625 
C 10 10.28125 10.203125 7.78125 11.203125 5.484375 
C 12.796875 1.296875 16.796875 -1 22.59375 -1 
C 26.5 -1 29.90625 0.203125 32.203125 2.390625 
C 35.5 5.59375 37.40625 10.875 37.40625 16.375 
C 37.40625 16.96875 37.40625 17.671875 37.296875 18.671875 
L 33.09375 18.671875 
C 32.796875 9.6875 30.203125 5.09375 25.296875 5.09375 
C 23 5.09375 21 6.28125 20.296875 7.984375 
C 19.703125 9.375 19.40625 11.875 19.40625 15.46875 
L 19.40625 42.703125 
L 34.09375 42.703125 
L 34.09375 47 
z
" id="Century_Schoolbook_L_Roman-116"/>
     </defs>
     <g transform="translate(57.9179328738 439.26181969)rotate(-90.0)scale(0.12 -0.12)">
      <use transform="scale(0.9962640099626402)" xlink:href="#Century_Schoolbook_L_Roman-66"/>
      <use transform="translate(71.92998484686333 0.0)scale(0.9962640099626402)" xlink:href="#Century_Schoolbook_L_Roman-114"/>
      <use transform="translate(116.16355354432598 0.0)scale(0.9962640099626402)" xlink:href="#Century_Schoolbook_L_Roman-105"/>
      <use transform="translate(147.54486654051215 0.0)scale(0.9962640099626402)" xlink:href="#Century_Schoolbook_L_Roman-101"/>
      <use transform="translate(197.35806703864418 0.0)scale(0.9962640099626402)" xlink:href="#Century_Schoolbook_L_Roman-114"/>
      <use transform="translate(269.28680533935244 0.0)scale(0.9962640099626402)" xlink:href="#Century_Schoolbook_L_Roman-83"/>
      <use transform="translate(332.0507842903565 0.0)scale(0.9962640099626402)" xlink:href="#Century_Schoolbook_L_Roman-99"/>
      <use transform="translate(376.28435298781915 0.0)scale(0.9962640099626402)" xlink:href="#Century_Schoolbook_L_Roman-111"/>
      <use transform="translate(426.09755348595115 0.0)scale(0.9962640099626402)" xlink:href="#Century_Schoolbook_L_Roman-114"/>
      <use transform="translate(470.3311221834138 0.0)scale(0.9962640099626402)" xlink:href="#Century_Schoolbook_L_Roman-101"/>
      <use transform="translate(547.8394922847915 0.0)scale(0.9962640099626402)" xlink:href="#Century_Schoolbook_L_Roman-98"/>
      <use transform="translate(603.2311692481321 0.0)scale(0.9962640099626402)" xlink:href="#Century_Schoolbook_L_Roman-121"/>
      <use transform="translate(684.4256827424502 0.0)scale(0.9962640099626402)" xlink:href="#Century_Schoolbook_L_Roman-83"/>
      <use transform="translate(747.1896616934544 0.0)scale(0.9962640099626402)" xlink:href="#Century_Schoolbook_L_Roman-117"/>
      <use transform="translate(808.061292370408 0.0)scale(0.9962640099626402)" xlink:href="#Century_Schoolbook_L_Roman-114"/>
      <use transform="translate(852.2948610678706 0.0)scale(0.9962640099626402)" xlink:href="#Century_Schoolbook_L_Roman-118"/>
      <use transform="translate(905.7942049589432 0.0)scale(0.9962640099626402)" xlink:href="#Century_Schoolbook_L_Roman-105"/>
      <use transform="translate(937.1755179551293 0.0)scale(0.9962640099626402)" xlink:href="#Century_Schoolbook_L_Roman-118"/>
      <use transform="translate(990.6748618462018 0.0)scale(0.9962640099626402)" xlink:href="#Century_Schoolbook_L_Roman-97"/>
      <use transform="translate(1046.0665388095424 0.0)scale(0.9962640099626402)" xlink:href="#Century_Schoolbook_L_Roman-108"/>
      <use transform="translate(1105.1430214089742 0.0)scale(0.9962640099626402)" xlink:href="#Century_Schoolbook_L_Roman-82"/>
      <use transform="translate(1177.0730062558375 0.0)scale(0.9962640099626402)" xlink:href="#Century_Schoolbook_L_Roman-97"/>
      <use transform="translate(1232.4646832191781 0.0)scale(0.9962640099626402)" xlink:href="#Century_Schoolbook_L_Roman-116"/>
      <use transform="translate(1271.2183894137222 0.0)scale(0.9962640099626402)" xlink:href="#Century_Schoolbook_L_Roman-101"/>
     </g>
    </g>
   </g>
   <g id="text_15">
    <!-- Brier Score Comparison -->
    <defs>
     <path d="M 20.09375 46 
L 2.296875 46 
L 2.296875 41.21875 
L 6.40625 41.21875 
C 10.09375 41.21875 10.703125 40.515625 10.703125 36.203125 
L 10.703125 12.296875 
L 10.703125 8.40625 
C 10.703125 4.296875 9.59375 3.59375 3.203125 3.59375 
L 2.796875 3.59375 
L 2.796875 0 
L 28 0 
L 28 3.59375 
L 27.59375 3.59375 
C 21.203125 3.59375 20.09375 4.296875 20.09375 8.390625 
L 20.09375 12.28125 
L 20.09375 26.453125 
C 20.09375 35.328125 25 41.921875 31.5 41.921875 
C 34.09375 41.921875 36.90625 40.515625 38.09375 38.625 
C 39.5 36.734375 40.09375 33.828125 40.09375 29.734375 
L 40.09375 12.28125 
L 40.09375 8.28125 
C 40.09375 4.296875 39 3.59375 32.5 3.59375 
L 32.09375 3.59375 
L 32.09375 0 
L 57.40625 0 
L 57.40625 3.59375 
L 57 3.59375 
C 50.59375 3.59375 49.5 4.296875 49.5 8.28125 
L 49.5 12.28125 
L 49.5 25.546875 
C 49.5 35.53125 54 41.921875 61 41.921875 
C 64.296875 41.921875 67 40.015625 68.296875 36.921875 
C 69.203125 34.734375 69.5 32.53125 69.5 28.640625 
L 69.5 12.28125 
L 69.5 8.28125 
C 69.5 4.296875 68.40625 3.59375 61.90625 3.59375 
L 61.5 3.59375 
L 61.5 0 
L 86.796875 0 
L 86.796875 3.59375 
L 86.40625 3.59375 
C 80 3.59375 78.90625 4.296875 78.90625 8.390625 
L 78.90625 12.28125 
L 78.90625 30.640625 
C 78.90625 36.828125 78.296875 38.921875 75.703125 42.3125 
C 72.796875 46.015625 68.703125 48 63.90625 48 
C 57.40625 48 52.59375 44.9375 48.296875 38.109375 
C 46.59375 44.046875 41.203125 48 34.5 48 
C 28.5 48 24 45.140625 20.09375 38.921875 
z
" id="Century_Schoolbook_L_Roman-109"/>
     <path d="M 39 48 
L 35.5 48 
L 32.59375 44.40625 
C 29 47.203125 25.40625 48.390625 20.40625 48.390625 
C 11.59375 48.390625 5.796875 42.625 5.796875 33.953125 
C 5.796875 30.078125 7.09375 26.78125 9.296875 24.8125 
C 11.59375 22.703125 13.90625 21.71875 19.90625 20.3125 
L 25.203125 19.125 
C 33.09375 17.234375 35.90625 15.234375 35.90625 11.265625 
C 35.90625 6.578125 31.796875 3.296875 25.90625 3.296875 
C 17.5 3.296875 11.5 8.765625 9.09375 18.875 
L 5.09375 18.875 
L 5.09375 0 
L 8.59375 0 
L 12.09375 3.90625 
C 16.203125 0.59375 20.796875 -1 25.796875 -1 
C 35.59375 -1 42.09375 5.078125 42.09375 14.34375 
C 42.09375 18.71875 40.703125 22.09375 37.90625 24.390625 
C 35.5 26.484375 33.5 27.28125 27.40625 28.5625 
L 22.40625 29.671875 
C 16.90625 30.859375 16.90625 30.859375 15.09375 31.859375 
C 12.90625 32.859375 11.59375 34.9375 11.59375 37.140625 
C 11.59375 41.109375 15.40625 44 20.90625 44 
C 24.703125 44 27.796875 42.703125 30.59375 40.015625 
C 32.796875 37.8125 33.90625 35.828125 35.5 31.234375 
L 39 31.234375 
z
" id="Century_Schoolbook_L_Roman-115"/>
     <path d="M 63.90625 72 
L 60.09375 72 
L 56.09375 66.015625 
C 49 71.203125 45.09375 72.703125 38.40625 72.703125 
C 28.703125 72.703125 20.703125 68.8125 13.90625 60.78125 
C 7.5 53.234375 4.5 44.890625 4.5 34.65625 
C 4.5 13.296875 18.59375 -2 38.296875 -2 
C 54.296875 -2 64.5 7.34375 66.796875 24.015625 
L 62.09375 24.8125 
C 61.09375 19.546875 59.90625 15.984375 58.09375 13.015625 
C 54 6.171875 47.59375 2.6875 39.5 2.6875 
C 24.703125 2.6875 17.703125 12.90625 17.703125 34.265625 
C 17.703125 45.46875 19.203125 53.015625 22.59375 58.96875 
C 25.703125 64.53125 31.90625 68 38.296875 68 
C 45.296875 68 51.5 64.328125 55.296875 57.96875 
C 57.203125 54.6875 58.703125 50.8125 61 43.171875 
L 65.40625 43.171875 
z
" id="Century_Schoolbook_L_Roman-67"/>
    </defs>
    <g transform="translate(289.573134559 67.0)scale(0.144 -0.144)">
     <use transform="scale(0.9962640099626402)" xlink:href="#Century_Schoolbook_L_Roman-66"/>
     <use transform="translate(71.92998484686333 0.0)scale(0.9962640099626402)" xlink:href="#Century_Schoolbook_L_Roman-114"/>
     <use transform="translate(116.16355354432598 0.0)scale(0.9962640099626402)" xlink:href="#Century_Schoolbook_L_Roman-105"/>
     <use transform="translate(147.54486654051215 0.0)scale(0.9962640099626402)" xlink:href="#Century_Schoolbook_L_Roman-101"/>
     <use transform="translate(197.35806703864418 0.0)scale(0.9962640099626402)" xlink:href="#Century_Schoolbook_L_Roman-114"/>
     <use transform="translate(269.28680533935244 0.0)scale(0.9962640099626402)" xlink:href="#Century_Schoolbook_L_Roman-83"/>
     <use transform="translate(332.0507842903565 0.0)scale(0.9962640099626402)" xlink:href="#Century_Schoolbook_L_Roman-99"/>
     <use transform="translate(376.28435298781915 0.0)scale(0.9962640099626402)" xlink:href="#Century_Schoolbook_L_Roman-111"/>
     <use transform="translate(426.09755348595115 0.0)scale(0.9962640099626402)" xlink:href="#Century_Schoolbook_L_Roman-114"/>
     <use transform="translate(470.3311221834138 0.0)scale(0.9962640099626402)" xlink:href="#Century_Schoolbook_L_Roman-101"/>
     <use transform="translate(547.8394922847915 0.0)scale(0.9962640099626402)" xlink:href="#Century_Schoolbook_L_Roman-67"/>
     <use transform="translate(619.7694771316548 0.0)scale(0.9962640099626402)" xlink:href="#Century_Schoolbook_L_Roman-111"/>
     <use transform="translate(669.5826776297868 0.0)scale(0.9962640099626402)" xlink:href="#Century_Schoolbook_L_Roman-109"/>
     <use transform="translate(758.1495843224627 0.0)scale(0.9962640099626402)" xlink:href="#Century_Schoolbook_L_Roman-112"/>
     <use transform="translate(815.3350716064758 0.0)scale(0.9962640099626402)" xlink:href="#Century_Schoolbook_L_Roman-97"/>
     <use transform="translate(870.7267485698164 0.0)scale(0.9962640099626402)" xlink:href="#Century_Schoolbook_L_Roman-114"/>
     <use transform="translate(914.960317267279 0.0)scale(0.9962640099626402)" xlink:href="#Century_Schoolbook_L_Roman-105"/>
     <use transform="translate(946.3416302634653 0.0)scale(0.9962640099626402)" xlink:href="#Century_Schoolbook_L_Roman-115"/>
     <use transform="translate(992.4674408225017 0.0)scale(0.9962640099626402)" xlink:href="#Century_Schoolbook_L_Roman-111"/>
     <use transform="translate(1042.2806413206335 0.0)scale(0.9962640099626402)" xlink:href="#Century_Schoolbook_L_Roman-110"/>
    </g>
   </g>
  </g>
 </g>
 <defs>
  <clipPath id="p21ffe68000">
   <rect height="576.0" width="558.0" x="90.0" y="72.0"/>
  </clipPath>
 </defs>
</svg>
