<?xml version="1.0" encoding="utf-8" standalone="no"?>
<!DOCTYPE svg PUBLIC "-//W3C//DTD SVG 1.1//EN"
  "http://www.w3.org/Graphics/SVG/1.1/DTD/svg11.dtd">
<!-- Created with matplotlib (http://matplotlib.org/) -->
<svg height="720pt" version="1.1" viewBox="0 0 720 720" width="720pt" xmlns="http://www.w3.org/2000/svg" xmlns:xlink="http://www.w3.org/1999/xlink">
 <defs>
  <style type="text/css">
*{stroke-linecap:butt;stroke-linejoin:round;stroke-miterlimit:100000;}
  </style>
 </defs>
 <g id="figure_1">
  <g id="patch_1">
   <path d="M 0 720 
L 720 720 
L 720 0 
L 0 0 
L 0 720 
z
" style="fill:none;"/>
  </g>
  <g id="axes_1">
   <g id="patch_2">
    <path d="M 53.912718 675.755829 
L 696.634684 675.755829 
L 696.634684 28.604774 
L 53.912718 28.604774 
L 53.912718 675.755829 
z
" style="fill:none;"/>
   </g>
   <g id="PathCollection_1">
    <path clip-path="url(#p230a553092)" d="M 199.825071 521.817953 
C 203.320826 521.817953 206.673875 520.429075 209.145747 517.957202 
C 211.617619 515.48533 213.006497 512.132282 213.006497 508.636526 
C 213.006497 505.140771 211.617619 501.787723 209.145747 499.315851 
C 206.673875 496.843978 203.320826 495.4551 199.825071 495.4551 
C 196.329316 495.4551 192.976267 496.843978 190.504395 499.315851 
C 188.032523 501.787723 186.643645 505.140771 186.643645 508.636526 
C 186.643645 512.132282 188.032523 515.48533 190.504395 517.957202 
C 192.976267 520.429075 196.329316 521.817953 199.825071 521.817953 
z
" style="fill:#0000ff;fill-opacity:0.3;stroke:#000000;stroke-opacity:0.3;"/>
    <path clip-path="url(#p230a553092)" d="M 499.639871 146.023673 
C 501.814698 146.023673 503.900743 145.159605 505.438578 143.62177 
C 506.976413 142.083935 507.840481 139.99789 507.840481 137.823063 
C 507.840481 135.648236 506.976413 133.562191 505.438578 132.024356 
C 503.900743 130.486521 501.814698 129.622453 499.639871 129.622453 
C 497.465044 129.622453 495.378999 130.486521 493.841164 132.024356 
C 492.303329 133.562191 491.439261 135.648236 491.439261 137.823063 
C 491.439261 139.99789 492.303329 142.083935 493.841164 143.62177 
C 495.378999 145.159605 497.465044 146.023673 499.639871 146.023673 
z
" style="fill:#0000ff;fill-opacity:0.3;stroke:#000000;stroke-opacity:0.3;"/>
    <path clip-path="url(#p230a553092)" d="M 252.962136 475.523277 
C 255.067121 475.523277 257.086174 474.686958 258.574623 473.198509 
C 260.063071 471.71006 260.89939 469.691007 260.89939 467.586023 
C 260.89939 465.481039 260.063071 463.461986 258.574623 461.973537 
C 257.086174 460.485088 255.067121 459.648769 252.962136 459.648769 
C 250.857152 459.648769 248.838099 460.485088 247.34965 461.973537 
C 245.861202 463.461986 245.024883 465.481039 245.024883 467.586023 
C 245.024883 469.691007 245.861202 471.71006 247.34965 473.198509 
C 248.838099 474.686958 250.857152 475.523277 252.962136 475.523277 
z
" style="fill:#0000ff;fill-opacity:0.3;stroke:#000000;stroke-opacity:0.3;"/>
    <path clip-path="url(#p230a553092)" d="M 181.915448 548.66666 
C 183.719025 548.66666 185.448974 547.950091 186.724295 546.674771 
C 187.999615 545.39945 188.716184 543.669501 188.716184 541.865925 
C 188.716184 540.062348 187.999615 538.332399 186.724295 537.057079 
C 185.448974 535.781758 183.719025 535.065189 181.915448 535.065189 
C 180.111872 535.065189 178.381923 535.781758 177.106602 537.057079 
C 175.831282 538.332399 175.114713 540.062348 175.114713 541.865925 
C 175.114713 543.669501 175.831282 545.39945 177.106602 546.674771 
C 178.381923 547.950091 180.111872 548.66666 181.915448 548.66666 
z
" style="fill:#0000ff;fill-opacity:0.3;stroke:#000000;stroke-opacity:0.3;"/>
    <path clip-path="url(#p230a553092)" d="M 165.654357 551.498344 
C 166.96033 551.498344 168.212991 550.979475 169.136454 550.056012 
C 170.059917 549.132549 170.578785 547.879889 170.578785 546.573915 
C 170.578785 545.267941 170.059917 544.015281 169.136454 543.091818 
C 168.212991 542.168355 166.96033 541.649486 165.654357 541.649486 
C 164.348383 541.649486 163.095722 542.168355 162.17226 543.091818 
C 161.248797 544.015281 160.729928 545.267941 160.729928 546.573915 
C 160.729928 547.879889 161.248797 549.132549 162.17226 550.056012 
C 163.095722 550.979475 164.348383 551.498344 165.654357 551.498344 
z
" style="fill:#0000ff;fill-opacity:0.3;stroke:#000000;stroke-opacity:0.3;"/>
    <path clip-path="url(#p230a553092)" d="M 155.935262 574.90263 
C 157.06821 574.90263 158.154908 574.452505 158.956023 573.651389 
C 159.757139 572.850274 160.207264 571.763576 160.207264 570.630628 
C 160.207264 569.49768 159.757139 568.410982 158.956023 567.609866 
C 158.154908 566.808751 157.06821 566.358626 155.935262 566.358626 
C 154.802314 566.358626 153.715616 566.808751 152.9145 567.609866 
C 152.113385 568.410982 151.66326 569.49768 151.66326 570.630628 
C 151.66326 571.763576 152.113385 572.850274 152.9145 573.651389 
C 153.715616 574.452505 154.802314 574.90263 155.935262 574.90263 
z
" style="fill:#0000ff;fill-opacity:0.3;stroke:#000000;stroke-opacity:0.3;"/>
    <path clip-path="url(#p230a553092)" d="M 342.418082 209.422077 
C 343.3076 209.422077 344.160806 209.068667 344.78979 208.439683 
C 345.418774 207.810699 345.772184 206.957493 345.772184 206.067975 
C 345.772184 205.178456 345.418774 204.325251 344.78979 203.696266 
C 344.160806 203.067282 343.3076 202.713873 342.418082 202.713873 
C 341.528564 202.713873 340.675358 203.067282 340.046374 203.696266 
C 339.417389 204.325251 339.06398 205.178456 339.06398 206.067975 
C 339.06398 206.957493 339.417389 207.810699 340.046374 208.439683 
C 340.675358 209.068667 341.528564 209.422077 342.418082 209.422077 
z
" style="fill:#0000ff;fill-opacity:0.3;stroke:#000000;stroke-opacity:0.3;"/>
    <path clip-path="url(#p230a553092)" d="M 216.706271 510.706845 
C 217.595789 510.706845 218.448995 510.353436 219.077979 509.724452 
C 219.706964 509.095467 220.060373 508.242262 220.060373 507.352743 
C 220.060373 506.463225 219.706964 505.610019 219.077979 504.981035 
C 218.448995 504.352051 217.595789 503.998641 216.706271 503.998641 
C 215.816753 503.998641 214.963547 504.352051 214.334563 504.981035 
C 213.705579 505.610019 213.352169 506.463225 213.352169 507.352743 
C 213.352169 508.242262 213.705579 509.095467 214.334563 509.724452 
C 214.963547 510.353436 215.816753 510.706845 216.706271 510.706845 
z
" style="fill:#0000ff;fill-opacity:0.3;stroke:#000000;stroke-opacity:0.3;"/>
    <path clip-path="url(#p230a553092)" d="M 294.466091 366.535972 
C 295.355609 366.535972 296.208815 366.182562 296.837799 365.553578 
C 297.466784 364.924593 297.820193 364.071388 297.820193 363.18187 
C 297.820193 362.292351 297.466784 361.439146 296.837799 360.810161 
C 296.208815 360.181177 295.355609 359.827768 294.466091 359.827768 
C 293.576573 359.827768 292.723367 360.181177 292.094383 360.810161 
C 291.465399 361.439146 291.111989 362.292351 291.111989 363.18187 
C 291.111989 364.071388 291.465399 364.924593 292.094383 365.553578 
C 292.723367 366.182562 293.576573 366.535972 294.466091 366.535972 
z
" style="fill:#0000ff;fill-opacity:0.3;stroke:#000000;stroke-opacity:0.3;"/>
    <path clip-path="url(#p230a553092)" d="M 87.128323 502.878701 
C 87.99785 502.878701 88.83188 502.533235 89.446728 501.918387 
C 90.061576 501.303538 90.407042 500.469508 90.407042 499.599982 
C 90.407042 498.730455 90.061576 497.896425 89.446728 497.281577 
C 88.83188 496.666729 87.99785 496.321263 87.128323 496.321263 
C 86.258797 496.321263 85.424767 496.666729 84.809918 497.281577 
C 84.19507 497.896425 83.849604 498.730455 83.849604 499.599982 
C 83.849604 500.469508 84.19507 501.303538 84.809918 501.918387 
C 85.424767 502.533235 86.258797 502.878701 87.128323 502.878701 
z
" style="fill:#0000ff;fill-opacity:0.3;stroke:#000000;stroke-opacity:0.3;"/>
    <path clip-path="url(#p230a553092)" d="M 186.074717 497.423085 
C 186.934074 497.423085 187.758349 497.081659 188.366005 496.474002 
C 188.973662 495.866346 189.315088 495.042071 189.315088 494.182714 
C 189.315088 493.323358 188.973662 492.499083 188.366005 491.891427 
C 187.758349 491.28377 186.934074 490.942344 186.074717 490.942344 
C 185.215361 490.942344 184.391086 491.28377 183.78343 491.891427 
C 183.175773 492.499083 182.834347 493.323358 182.834347 494.182714 
C 182.834347 495.042071 183.175773 495.866346 183.78343 496.474002 
C 184.391086 497.081659 185.215361 497.423085 186.074717 497.423085 
z
" style="fill:#0000ff;fill-opacity:0.3;stroke:#000000;stroke-opacity:0.3;"/>
    <path clip-path="url(#p230a553092)" d="M 395.291323 329.136956 
C 396.129969 329.136956 396.934379 328.803759 397.527391 328.210747 
C 398.120403 327.617735 398.4536 326.813325 398.4536 325.974679 
C 398.4536 325.136033 398.120403 324.331623 397.527391 323.738611 
C 396.934379 323.145599 396.129969 322.812401 395.291323 322.812401 
C 394.452677 322.812401 393.648267 323.145599 393.055255 323.738611 
C 392.462243 324.331623 392.129045 325.136033 392.129045 325.974679 
C 392.129045 326.813325 392.462243 327.617735 393.055255 328.210747 
C 393.648267 328.803759 394.452677 329.136956 395.291323 329.136956 
z
" style="fill:#0000ff;fill-opacity:0.3;stroke:#000000;stroke-opacity:0.3;"/>
    <path clip-path="url(#p230a553092)" d="M 531.942947 68.749875 
C 532.71614 68.749875 533.45777 68.442682 534.0045 67.895952 
C 534.55123 67.349222 534.858423 66.607592 534.858423 65.834399 
C 534.858423 65.061206 534.55123 64.319577 534.0045 63.772846 
C 533.45777 63.226116 532.71614 62.918923 531.942947 62.918923 
C 531.169754 62.918923 530.428124 63.226116 529.881394 63.772846 
C 529.334664 64.319577 529.027471 65.061206 529.027471 65.834399 
C 529.027471 66.607592 529.334664 67.349222 529.881394 67.895952 
C 530.428124 68.442682 531.169754 68.749875 531.942947 68.749875 
z
" style="fill:#0000ff;fill-opacity:0.3;stroke:#000000;stroke-opacity:0.3;"/>
    <path clip-path="url(#p230a553092)" d="M 341.545427 266.752255 
C 342.307165 266.752255 343.037807 266.449613 343.576437 265.910983 
C 344.115067 265.372353 344.417709 264.641712 344.417709 263.879974 
C 344.417709 263.118236 344.115067 262.387594 343.576437 261.848964 
C 343.037807 261.310334 342.307165 261.007692 341.545427 261.007692 
C 340.783689 261.007692 340.053048 261.310334 339.514418 261.848964 
C 338.975788 262.387594 338.673146 263.118236 338.673146 263.879974 
C 338.673146 264.641712 338.975788 265.372353 339.514418 265.910983 
C 340.053048 266.449613 340.783689 266.752255 341.545427 266.752255 
z
" style="fill:#0000ff;fill-opacity:0.3;stroke:#000000;stroke-opacity:0.3;"/>
    <path clip-path="url(#p230a553092)" d="M 415.702008 285.751797 
C 416.41609 285.751797 417.10102 285.468089 417.605952 284.963158 
C 418.110883 284.458226 418.394591 283.773296 418.394591 283.059214 
C 418.394591 282.345133 418.110883 281.660203 417.605952 281.155271 
C 417.10102 280.650339 416.41609 280.366632 415.702008 280.366632 
C 414.987927 280.366632 414.302997 280.650339 413.798065 281.155271 
C 413.293133 281.660203 413.009426 282.345133 413.009426 283.059214 
C 413.009426 283.773296 413.293133 284.458226 413.798065 284.963158 
C 414.302997 285.468089 414.987927 285.751797 415.702008 285.751797 
z
" style="fill:#0000ff;fill-opacity:0.3;stroke:#000000;stroke-opacity:0.3;"/>
    <path clip-path="url(#p230a553092)" d="M 351.23421 337.18976 
C 351.935871 337.18976 352.608889 336.910987 353.105039 336.414837 
C 353.601188 335.918688 353.879961 335.24567 353.879961 334.544009 
C 353.879961 333.842347 353.601188 333.16933 353.105039 332.67318 
C 352.608889 332.17703 351.935871 331.898257 351.23421 331.898257 
C 350.532548 331.898257 349.859531 332.17703 349.363381 332.67318 
C 348.867232 333.16933 348.588459 333.842347 348.588459 334.544009 
C 348.588459 335.24567 348.867232 335.918688 349.363381 336.414837 
C 349.859531 336.910987 350.532548 337.18976 351.23421 337.18976 
z
" style="fill:#0000ff;fill-opacity:0.3;stroke:#000000;stroke-opacity:0.3;"/>
    <path clip-path="url(#p230a553092)" d="M 286.965827 317.220866 
C 287.641965 317.220866 288.290501 316.952234 288.768603 316.474132 
C 289.246705 315.99603 289.515337 315.347494 289.515337 314.671356 
C 289.515337 313.995218 289.246705 313.346682 288.768603 312.868581 
C 288.290501 312.390479 287.641965 312.121847 286.965827 312.121847 
C 286.289689 312.121847 285.641153 312.390479 285.163052 312.868581 
C 284.68495 313.346682 284.416318 313.995218 284.416318 314.671356 
C 284.416318 315.347494 284.68495 315.99603 285.163052 316.474132 
C 285.641153 316.952234 286.289689 317.220866 286.965827 317.220866 
z
" style="fill:#0000ff;fill-opacity:0.3;stroke:#000000;stroke-opacity:0.3;"/>
    <path clip-path="url(#p230a553092)" d="M 513.069512 169.413053 
C 513.691468 169.413053 514.288035 169.165947 514.727824 168.726157 
C 515.167614 168.286368 515.41472 167.689801 515.41472 167.067845 
C 515.41472 166.445888 515.167614 165.849322 514.727824 165.409532 
C 514.288035 164.969743 513.691468 164.722637 513.069512 164.722637 
C 512.447555 164.722637 511.850989 164.969743 511.411199 165.409532 
C 510.97141 165.849322 510.724304 166.445888 510.724304 167.067845 
C 510.724304 167.689801 510.97141 168.286368 511.411199 168.726157 
C 511.850989 169.165947 512.447555 169.413053 513.069512 169.413053 
z
" style="fill:#0000ff;fill-opacity:0.3;stroke:#000000;stroke-opacity:0.3;"/>
   </g>
   <g id="line2d_1">
    <path clip-path="url(#p230a553092)" d="M 53.912718 675.755829 
L 60.404859 669.218949 
L 66.897 662.68207 
L 73.389141 656.145191 
L 79.881282 649.608311 
L 86.373423 643.071432 
L 92.865564 636.534553 
L 99.357705 629.997673 
L 105.849846 623.460794 
L 112.341987 616.923915 
L 118.834128 610.387035 
L 125.326269 603.850156 
L 131.81841 597.313277 
L 138.310552 590.776397 
L 144.802693 584.239518 
L 151.294834 577.702639 
L 157.786975 571.165759 
L 164.279116 564.62888 
L 170.771257 558.092001 
L 177.263398 551.555121 
L 183.755539 545.018242 
L 190.24768 538.481363 
L 196.739821 531.944483 
L 203.231962 525.407604 
L 209.724103 518.870725 
L 216.216244 512.333845 
L 222.708386 505.796966 
L 229.200527 499.260087 
L 235.692668 492.723207 
L 242.184809 486.186328 
L 248.67695 479.649449 
L 255.169091 473.112569 
L 261.661232 466.57569 
L 268.153373 460.038811 
L 274.645514 453.501931 
L 281.137655 446.965052 
L 287.629796 440.428173 
L 294.121937 433.891293 
L 300.614078 427.354414 
L 307.10622 420.817535 
L 313.598361 414.280655 
L 320.090502 407.743776 
L 326.582643 401.206897 
L 333.074784 394.670017 
L 339.566925 388.133138 
L 346.059066 381.596259 
L 352.551207 375.059379 
L 359.043348 368.5225 
L 365.535489 361.985621 
L 372.02763 355.448741 
L 378.519771 348.911862 
L 385.011912 342.374983 
L 391.504053 335.838103 
L 397.996195 329.301224 
L 404.488336 322.764345 
L 410.980477 316.227465 
L 417.472618 309.690586 
L 423.964759 303.153707 
L 430.4569 296.616827 
L 436.949041 290.079948 
L 443.441182 283.543069 
L 449.933323 277.006189 
L 456.425464 270.46931 
L 462.917605 263.932431 
L 469.409746 257.395551 
L 475.901887 250.858672 
L 482.394029 244.321793 
L 488.88617 237.784913 
L 495.378311 231.248034 
L 501.870452 224.711155 
L 508.362593 218.174275 
L 514.854734 211.637396 
L 521.346875 205.100517 
L 527.839016 198.563637 
L 534.331157 192.026758 
L 540.823298 185.489879 
L 547.315439 178.952999 
L 553.80758 172.41612 
L 560.299721 165.879241 
L 566.791863 159.342361 
L 573.284004 152.805482 
L 579.776145 146.268603 
L 586.268286 139.731723 
L 592.760427 133.194844 
L 599.252568 126.657965 
L 605.744709 120.121085 
L 612.23685 113.584206 
L 618.728991 107.047327 
L 625.221132 100.510447 
L 631.713273 93.973568 
L 638.205414 87.436689 
L 644.697555 80.899809 
L 651.189696 74.36293 
L 657.681838 67.82605 
L 664.173979 61.289171 
L 670.66612 54.752292 
L 677.158261 48.215412 
L 683.650402 41.678533 
L 690.142543 35.141654 
L 696.634684 28.604774 
" style="fill:none;stroke:#ff0000;stroke-dasharray:6.000000,6.000000;stroke-dashoffset:0.0;"/>
   </g>
   <g id="patch_3">
    <path d="M 53.912718 675.755829 
L 53.912718 28.604774 
" style="fill:none;stroke:#000000;stroke-linecap:square;stroke-linejoin:miter;"/>
   </g>
   <g id="patch_4">
    <path d="M 696.634684 675.755829 
L 696.634684 28.604774 
" style="fill:none;stroke:#000000;stroke-linecap:square;stroke-linejoin:miter;"/>
   </g>
   <g id="patch_5">
    <path d="M 53.912718 28.604774 
L 696.634684 28.604774 
" style="fill:none;stroke:#000000;stroke-linecap:square;stroke-linejoin:miter;"/>
   </g>
   <g id="patch_6">
    <path d="M 53.912718 675.755829 
L 696.634684 675.755829 
" style="fill:none;stroke:#000000;stroke-linecap:square;stroke-linejoin:miter;"/>
   </g>
   <g id="matplotlib.axis_1">
    <g id="xtick_1">
     <g id="line2d_2">
      <path clip-path="url(#p230a553092)" d="M 53.912718 675.755829 
L 53.912718 28.604774 
" style="fill:none;stroke:#000000;stroke-dasharray:1.000000,3.000000;stroke-dashoffset:0.0;stroke-width:0.5;"/>
     </g>
     <g id="line2d_3">
      <defs>
       <path d="M 0 0 
L 0 -4 
" id="m092f951d0d" style="stroke:#000000;stroke-width:0.5;"/>
      </defs>
      <g>
       <use style="stroke:#000000;stroke-width:0.5;" x="53.9127175922" xlink:href="#m092f951d0d" y="675.755828825"/>
      </g>
     </g>
     <g id="line2d_4">
      <defs>
       <path d="M 0 0 
L 0 4 
" id="m21cb01f995" style="stroke:#000000;stroke-width:0.5;"/>
      </defs>
      <g>
       <use style="stroke:#000000;stroke-width:0.5;" x="53.9127175922" xlink:href="#m21cb01f995" y="28.6047744785"/>
      </g>
     </g>
     <g id="text_1">
      <!-- $0.00$ -->
      <defs>
       <path d="M 18.40625 4.796875 
C 18.40625 7.6875 16 9.671875 13.59375 9.671875 
C 10.703125 9.671875 8.703125 7.28125 8.703125 4.890625 
C 8.703125 2 11.09375 0 13.5 0 
C 16.40625 0 18.40625 2.390625 18.40625 4.796875 
" id="CMMI12-58"/>
       <path d="M 42 31.640625 
C 42 37.75 41.90625 48.125 37.703125 56.109375 
C 34 63.109375 28.09375 65.59375 22.90625 65.59375 
C 18.09375 65.59375 12 63.40625 8.203125 56.203125 
C 4.203125 48.71875 3.796875 39.4375 3.796875 31.640625 
C 3.796875 25.953125 3.90625 17.28125 7 9.671875 
C 11.296875 -0.609375 19 -2 22.90625 -2 
C 27.5 -2 34.5 -0.109375 38.59375 9.375 
C 41.59375 16.28125 42 24.359375 42 31.640625 
M 22.90625 -0.40625 
C 16.5 -0.40625 12.703125 5.078125 11.296875 12.6875 
C 10.203125 18.5625 10.203125 27.15625 10.203125 32.75 
C 10.203125 40.4375 10.203125 46.828125 11.5 52.921875 
C 13.40625 61.390625 19 64 22.90625 64 
C 27 64 32.296875 61.296875 34.203125 53.125 
C 35.5 47.4375 35.59375 40.734375 35.59375 32.75 
C 35.59375 26.25 35.59375 18.265625 34.40625 12.375 
C 32.296875 1.484375 26.40625 -0.40625 22.90625 -0.40625 
" id="CMR17-48"/>
      </defs>
      <g transform="translate(43.5074015897 688.626479292)scale(0.12 -0.12)">
       <use transform="scale(0.9962640099626402)" xlink:href="#CMR17-48"/>
       <use transform="translate(45.69047711706103 0.0)scale(0.9962640099626402)" xlink:href="#CMMI12-58"/>
       <use transform="translate(72.78765420688046 0.0)scale(0.9962640099626402)" xlink:href="#CMR17-48"/>
       <use transform="translate(118.47813132394148 0.0)scale(0.9962640099626402)" xlink:href="#CMR17-48"/>
      </g>
     </g>
    </g>
    <g id="xtick_2">
     <g id="line2d_5">
      <path clip-path="url(#p230a553092)" d="M 182.457111 675.755829 
L 182.457111 28.604774 
" style="fill:none;stroke:#000000;stroke-dasharray:1.000000,3.000000;stroke-dashoffset:0.0;stroke-width:0.5;"/>
     </g>
     <g id="line2d_6">
      <g>
       <use style="stroke:#000000;stroke-width:0.5;" x="182.457110873" xlink:href="#m092f951d0d" y="675.755828825"/>
      </g>
     </g>
     <g id="line2d_7">
      <g>
       <use style="stroke:#000000;stroke-width:0.5;" x="182.457110873" xlink:href="#m21cb01f995" y="28.6047744785"/>
      </g>
     </g>
     <g id="text_2">
      <!-- $0.05$ -->
      <defs>
       <path d="M 11.40625 57.6875 
C 12.40625 57.28125 16.5 56 20.703125 56 
C 30 56 35.09375 61.015625 38 63.921875 
C 38 64.734375 38 65.25 37.40625 65.25 
C 37.296875 65.25 37.09375 65.25 36.296875 64.828125 
C 32.796875 63.3125 28.703125 62.078125 23.703125 62.078125 
C 20.703125 62.078125 16.203125 62.5 11.296875 64.734375 
C 10.203125 65.25 10 65.25 9.90625 65.25 
C 9.40625 65.25 9.296875 65.140625 9.296875 63.15625 
L 9.296875 34.28125 
C 9.296875 32.5 9.296875 32 10.296875 32 
C 10.796875 32 11 32.203125 11.5 32.90625 
C 14.703125 37.484375 19.09375 39.40625 24.09375 39.40625 
C 27.59375 39.40625 35.09375 37.21875 35.09375 20.140625 
C 35.09375 16.953125 35.09375 11.171875 32.09375 6.578125 
C 29.59375 2.484375 25.703125 0.390625 21.40625 0.390625 
C 14.796875 0.390625 8.09375 5 6.296875 12.71875 
C 6.703125 12.609375 7.5 12.421875 7.90625 12.421875 
C 9.203125 12.421875 11.703125 13.125 11.703125 16.21875 
C 11.703125 18.90625 9.796875 20 7.90625 20 
C 5.59375 20 4.09375 18.59375 4.09375 15.796875 
C 4.09375 7.09375 11 -2 21.59375 -2 
C 31.90625 -2 41.703125 6.875 41.703125 19.75 
C 41.703125 31.71875 33.90625 41 24.203125 41 
C 19.09375 41 14.796875 39.09375 11.40625 35.453125 
z
" id="CMR17-53"/>
      </defs>
      <g transform="translate(172.051794871 688.626479292)scale(0.12 -0.12)">
       <use transform="scale(0.9962640099626402)" xlink:href="#CMR17-48"/>
       <use transform="translate(45.69047711706103 0.0)scale(0.9962640099626402)" xlink:href="#CMMI12-58"/>
       <use transform="translate(72.78765420688046 0.0)scale(0.9962640099626402)" xlink:href="#CMR17-48"/>
       <use transform="translate(118.47813132394148 0.0)scale(0.9962640099626402)" xlink:href="#CMR17-53"/>
      </g>
     </g>
    </g>
    <g id="xtick_3">
     <g id="line2d_8">
      <path clip-path="url(#p230a553092)" d="M 311.001504 675.755829 
L 311.001504 28.604774 
" style="fill:none;stroke:#000000;stroke-dasharray:1.000000,3.000000;stroke-dashoffset:0.0;stroke-width:0.5;"/>
     </g>
     <g id="line2d_9">
      <g>
       <use style="stroke:#000000;stroke-width:0.5;" x="311.001504154" xlink:href="#m092f951d0d" y="675.755828825"/>
      </g>
     </g>
     <g id="line2d_10">
      <g>
       <use style="stroke:#000000;stroke-width:0.5;" x="311.001504154" xlink:href="#m21cb01f995" y="28.6047744785"/>
      </g>
     </g>
     <g id="text_3">
      <!-- $0.10$ -->
      <defs>
       <path d="M 26.59375 63.3125 
C 26.59375 65.40625 26.5 65.5 25.09375 65.5 
C 21.203125 61.1875 15.296875 59.796875 9.703125 59.796875 
C 9.40625 59.796875 8.90625 59.796875 8.796875 59.5 
C 8.703125 59.296875 8.703125 59.09375 8.703125 57 
C 11.796875 57 17 57.59375 21 59.984375 
L 21 7.203125 
C 21 3.6875 20.796875 2.5 12.203125 2.5 
L 9.203125 2.5 
L 9.203125 0 
C 14 0 19 0 23.796875 0 
C 28.59375 0 33.59375 0 38.40625 0 
L 38.40625 2.5 
L 35.40625 2.5 
C 26.796875 2.5 26.59375 3.59375 26.59375 7.15625 
z
" id="CMR17-49"/>
      </defs>
      <g transform="translate(300.596188152 688.626479292)scale(0.12 -0.12)">
       <use transform="scale(0.9962640099626402)" xlink:href="#CMR17-48"/>
       <use transform="translate(45.69047711706103 0.0)scale(0.9962640099626402)" xlink:href="#CMMI12-58"/>
       <use transform="translate(72.78765420688046 0.0)scale(0.9962640099626402)" xlink:href="#CMR17-49"/>
       <use transform="translate(118.47813132394148 0.0)scale(0.9962640099626402)" xlink:href="#CMR17-48"/>
      </g>
     </g>
    </g>
    <g id="xtick_4">
     <g id="line2d_11">
      <path clip-path="url(#p230a553092)" d="M 439.545897 675.755829 
L 439.545897 28.604774 
" style="fill:none;stroke:#000000;stroke-dasharray:1.000000,3.000000;stroke-dashoffset:0.0;stroke-width:0.5;"/>
     </g>
     <g id="line2d_12">
      <g>
       <use style="stroke:#000000;stroke-width:0.5;" x="439.545897435" xlink:href="#m092f951d0d" y="675.755828825"/>
      </g>
     </g>
     <g id="line2d_13">
      <g>
       <use style="stroke:#000000;stroke-width:0.5;" x="439.545897435" xlink:href="#m21cb01f995" y="28.6047744785"/>
      </g>
     </g>
     <g id="text_4">
      <!-- $0.15$ -->
      <g transform="translate(429.140581433 688.626479292)scale(0.12 -0.12)">
       <use transform="scale(0.9962640099626402)" xlink:href="#CMR17-48"/>
       <use transform="translate(45.69047711706103 0.0)scale(0.9962640099626402)" xlink:href="#CMMI12-58"/>
       <use transform="translate(72.78765420688046 0.0)scale(0.9962640099626402)" xlink:href="#CMR17-49"/>
       <use transform="translate(118.47813132394148 0.0)scale(0.9962640099626402)" xlink:href="#CMR17-53"/>
      </g>
     </g>
    </g>
    <g id="xtick_5">
     <g id="line2d_14">
      <path clip-path="url(#p230a553092)" d="M 568.090291 675.755829 
L 568.090291 28.604774 
" style="fill:none;stroke:#000000;stroke-dasharray:1.000000,3.000000;stroke-dashoffset:0.0;stroke-width:0.5;"/>
     </g>
     <g id="line2d_15">
      <g>
       <use style="stroke:#000000;stroke-width:0.5;" x="568.090290716" xlink:href="#m092f951d0d" y="675.755828825"/>
      </g>
     </g>
     <g id="line2d_16">
      <g>
       <use style="stroke:#000000;stroke-width:0.5;" x="568.090290716" xlink:href="#m21cb01f995" y="28.6047744785"/>
      </g>
     </g>
     <g id="text_5">
      <!-- $0.20$ -->
      <defs>
       <path d="M 41.703125 15.453125 
L 39.90625 15.453125 
C 38.90625 8.375 38.09375 7.171875 37.703125 6.5625 
C 37.203125 5.765625 30 5.765625 28.59375 5.765625 
L 9.40625 5.765625 
C 13 9.671875 20 16.75 28.5 24.953125 
C 34.59375 30.734375 41.703125 37.53125 41.703125 47.421875 
C 41.703125 59.21875 32.296875 66 21.796875 66 
C 10.796875 66 4.09375 56.3125 4.09375 47.34375 
C 4.09375 43.4375 7 42.9375 8.203125 42.9375 
C 9.203125 42.9375 12.203125 43.546875 12.203125 47.03125 
C 12.203125 50.109375 9.59375 51 8.203125 51 
C 7.59375 51 7 50.90625 6.59375 50.703125 
C 8.5 59.21875 14.296875 63.40625 20.40625 63.40625 
C 29.09375 63.40625 34.796875 56.515625 34.796875 47.421875 
C 34.796875 38.734375 29.703125 31.25 24 24.75 
L 4.09375 2.28125 
L 4.09375 0 
L 39.296875 0 
z
" id="CMR17-50"/>
      </defs>
      <g transform="translate(557.684974714 688.626479292)scale(0.12 -0.12)">
       <use transform="scale(0.9962640099626402)" xlink:href="#CMR17-48"/>
       <use transform="translate(45.69047711706103 0.0)scale(0.9962640099626402)" xlink:href="#CMMI12-58"/>
       <use transform="translate(72.78765420688046 0.0)scale(0.9962640099626402)" xlink:href="#CMR17-50"/>
       <use transform="translate(118.47813132394148 0.0)scale(0.9962640099626402)" xlink:href="#CMR17-48"/>
      </g>
     </g>
    </g>
    <g id="xtick_6">
     <g id="line2d_17">
      <path clip-path="url(#p230a553092)" d="M 696.634684 675.755829 
L 696.634684 28.604774 
" style="fill:none;stroke:#000000;stroke-dasharray:1.000000,3.000000;stroke-dashoffset:0.0;stroke-width:0.5;"/>
     </g>
     <g id="line2d_18">
      <g>
       <use style="stroke:#000000;stroke-width:0.5;" x="696.634683998" xlink:href="#m092f951d0d" y="675.755828825"/>
      </g>
     </g>
     <g id="line2d_19">
      <g>
       <use style="stroke:#000000;stroke-width:0.5;" x="696.634683998" xlink:href="#m21cb01f995" y="28.6047744785"/>
      </g>
     </g>
     <g id="text_6">
      <!-- $0.25$ -->
      <g transform="translate(686.229367995 688.626479292)scale(0.12 -0.12)">
       <use transform="scale(0.9962640099626402)" xlink:href="#CMR17-48"/>
       <use transform="translate(45.69047711706103 0.0)scale(0.9962640099626402)" xlink:href="#CMMI12-58"/>
       <use transform="translate(72.78765420688046 0.0)scale(0.9962640099626402)" xlink:href="#CMR17-50"/>
       <use transform="translate(118.47813132394148 0.0)scale(0.9962640099626402)" xlink:href="#CMR17-53"/>
      </g>
     </g>
    </g>
    <g id="text_7">
     <!-- Brier Score by Kaplan-Meier -->
     <defs>
      <path d="M 18 73 
L 0.796875 73 
L 0.796875 68.21875 
L 4.296875 68.21875 
C 8 68.21875 8.59375 67.515625 8.59375 63.25 
L 8.59375 24.625 
C 8.59375 11.3125 8.09375 4.84375 6.796875 -1 
L 10.59375 -1 
L 15.5 6.75 
C 19.59375 1.453125 24.296875 -1 30.5 -1 
C 42.796875 -1 52 9.59375 52 23.828125 
C 52 38.078125 43.59375 48.078125 31.59375 48.078125 
C 25.5 48.078125 21.796875 46 18 40.328125 
z
M 29.796875 43 
C 37.296875 43 41.5 35.765625 41.5 22.796875 
C 41.5 10.3125 37.40625 3.1875 30.09375 3.1875 
C 22.203125 3.1875 17.5 10.40625 17.5 22.59375 
C 17.5 35.765625 21.796875 43 29.796875 43 
" id="Century_Schoolbook_L_Roman-98"/>
      <path d="M 38.703125 15.109375 
C 35.5 7.96875 32.09375 5.09375 26.90625 5.09375 
C 18.90625 5.09375 13.90625 12.328125 13.90625 23.9375 
C 13.90625 35.953125 18.796875 44 26.203125 44 
C 29.203125 44 31.796875 42.59375 31.796875 41.015625 
C 31.796875 40.71875 31.59375 40.421875 31.203125 39.8125 
C 29.59375 37.9375 29.203125 36.9375 29.203125 35.265625 
C 29.203125 31.984375 31.703125 29.703125 35.203125 29.703125 
C 38.703125 29.703125 41.296875 32.484375 41.296875 36.453125 
C 41.296875 43.109375 34.59375 48.28125 25.703125 48.28125 
C 12.703125 48.28125 3.40625 37.65625 3.40625 22.84375 
C 3.40625 8.734375 11.90625 -1 24.296875 -1 
C 33.203125 -1 38.296875 3.078125 42.59375 13.625 
z
" id="Century_Schoolbook_L_Roman-99"/>
      <path d="M 3 72 
L 3 67.3125 
L 4.796875 67.3125 
C 12.90625 67.3125 13.796875 66.8125 13.796875 62.609375 
L 13.796875 59.71875 
L 13.796875 12.28125 
L 13.796875 9.375 
C 13.796875 5.1875 12.90625 4.6875 4.796875 4.6875 
L 3 4.6875 
L 3 0 
L 39.296875 0 
C 56.59375 0 67 7.40625 67 19.59375 
C 67 29.484375 60.59375 35.296875 47 37.6875 
C 51.796875 38.6875 54 39.578125 56.5 41.46875 
C 60.703125 44.546875 63.203125 49.421875 63.203125 54.5 
C 63.203125 60.859375 59.203125 67.125 53.40625 69.609375 
C 49.796875 71.203125 44.796875 72 38.90625 72 
z
M 25 39.6875 
L 25 62.328125 
C 25 66.203125 26.40625 67.3125 31.59375 67.3125 
L 35.59375 67.3125 
C 40.203125 67.3125 44 66.609375 46.09375 65.21875 
C 49.703125 63.03125 51.59375 58.75 51.59375 53.203125 
C 51.59375 43.46875 46.703125 39.6875 33.90625 39.6875 
z
M 25 35 
L 33.796875 35 
C 40.203125 35 44.5 34.390625 47.5 33.09375 
C 52.203125 30.890625 54.703125 26.5 54.703125 19.890625 
C 54.703125 13.59375 52.5 8.890625 48.59375 6.984375 
C 45.5 5.390625 41.296875 4.6875 35 4.6875 
L 30.796875 4.6875 
C 25.703125 4.6875 25 5.484375 25 11 
z
" id="Century_Schoolbook_L_Roman-66"/>
      <path d="M 54.59375 72 
L 50.90625 72 
L 46.90625 66.09375 
C 42.203125 70.59375 35.796875 73 28.703125 73 
C 15.59375 73 6.796875 64.609375 6.796875 52.15625 
C 6.796875 41.28125 12.203125 35.890625 26.90625 32.109375 
L 36.40625 29.703125 
C 43.796875 27.828125 44.5 27.625 46.59375 26.03125 
C 49.59375 23.734375 51.203125 20.4375 51.203125 16.546875 
C 51.203125 12.5625 49.703125 9.28125 46.703125 6.59375 
C 43.40625 3.6875 40.09375 2.59375 34.59375 2.59375 
C 27.203125 2.59375 21.90625 4.875 17.203125 10.03125 
C 13 14.703125 10.90625 19.375 9.40625 27 
L 5.09375 27 
L 5.5 -1.4375 
L 9.40625 -1.4375 
L 13.90625 5.46875 
C 20.59375 0 26.203125 -2 34.90625 -2 
C 49.59375 -2 59 6.59375 59 19.9375 
C 59 26.109375 56.90625 31.40625 53 35.203125 
C 50.296875 37.796875 46.40625 39.484375 38.40625 41.484375 
L 27.703125 44.171875 
C 18.796875 46.46875 14.59375 50.359375 14.59375 56.4375 
C 14.59375 63.40625 20.296875 68.203125 28.796875 68.203125 
C 35.796875 68.203125 41.5 65.1875 45.5 59.484375 
C 48.40625 55.375 50.203125 51.15625 51.5 46.046875 
L 55.796875 46.046875 
z
" id="Century_Schoolbook_L_Roman-83"/>
      <path d="M 4.203125 27.28125 
L 4.203125 19 
L 29.09375 19 
L 29.09375 27.28125 
z
" id="Century_Schoolbook_L_Roman-45"/>
      <path d="M 28.703125 72 
L 2.90625 72 
L 2.90625 67.3125 
L 4.796875 67.3125 
C 12.90625 67.3125 13.796875 66.8125 13.796875 62.59375 
L 13.796875 59.703125 
L 13.796875 21.390625 
C 13.796875 7.78125 11.796875 4.890625 2.203125 4.890625 
L 2.203125 0 
L 30.703125 0 
L 30.703125 4.890625 
C 21.203125 4.890625 19.203125 7.78125 19.203125 21.40625 
L 19.203125 65.625 
L 43 0 
L 47 0 
L 69.296875 65.625 
L 69.296875 12.453125 
L 69.296875 9.5625 
C 69.296875 5.296875 68.40625 4.890625 60.296875 4.890625 
L 58.5 4.890625 
L 58.5 0 
L 91.296875 0 
L 91.296875 4.890625 
L 89.5 4.890625 
C 81.40625 4.890625 80.5 5.296875 80.5 9.5625 
L 80.5 12.453125 
L 80.5 59.75 
L 80.5 62.625 
C 80.5 66.8125 81.40625 67.3125 89.5 67.3125 
L 91.296875 67.3125 
L 91.296875 72 
L 66.203125 72 
L 47.90625 18.84375 
z
" id="Century_Schoolbook_L_Roman-77"/>
      <path d="M 45.203125 32.578125 
C 45.203125 38.796875 44.09375 41.96875 41.203125 44.34375 
C 37.90625 46.90625 33 48.28125 26.59375 48.28125 
C 15.40625 48.28125 7.09375 43.046875 7.09375 35.921875 
C 7.09375 32.15625 9.40625 29.78125 12.90625 29.78125 
C 16 29.78125 18.296875 31.859375 18.296875 34.8125 
C 18.296875 36.109375 17.796875 37.484375 16.796875 38.875 
C 16.203125 39.546875 16.09375 39.84375 16.09375 40.15625 
C 16.09375 42.21875 20.203125 44 25 44 
C 28.09375 44 31.59375 43.015625 33.203125 41.53125 
C 35.09375 39.953125 35.796875 37.578125 35.796875 33.125 
L 35.796875 29.28125 
C 25.296875 27.484375 22.09375 26.6875 17.203125 24.8125 
C 8.59375 21.609375 4.40625 16.9375 4.40625 10.65625 
C 4.40625 3.578125 10.09375 -1 18.90625 -1 
C 25.796875 -1 32 1.859375 36.296875 7.0625 
C 37.90625 1.984375 40.40625 0 45.09375 0 
C 49.59375 0 54.296875 2.90625 54.296875 5.78125 
C 54.296875 6.46875 53.796875 6.96875 53.296875 6.96875 
C 52.90625 6.96875 52.5 6.875 51.796875 6.578125 
C 50.203125 6 49.796875 5.890625 49 5.890625 
C 46.203125 5.890625 45.203125 7.78125 45.203125 12.71875 
z
M 35.796875 20.46875 
C 35.796875 14.46875 35.5 13.078125 33.796875 10.484375 
C 31.296875 6.78125 26.703125 4.296875 22.40625 4.296875 
C 17.90625 4.296875 14.5 7.59375 14.5 12.078125 
C 14.5 16.265625 16.59375 19.265625 21 21.359375 
C 24.09375 22.75 28 23.75 35.796875 25.046875 
z
" id="Century_Schoolbook_L_Roman-97"/>
      <path d="M 30 13.203125 
L 19 38.8125 
C 18.59375 39.703125 18.40625 40.40625 18.40625 40.90625 
C 18.40625 42.703125 19.59375 43.40625 23 43.40625 
L 25.09375 43.40625 
L 25.09375 47 
L 1.296875 47 
L 1.296875 43.40625 
L 2.40625 43.40625 
C 5.59375 43.40625 7.40625 42 9.203125 38.015625 
L 25.5 1.234375 
L 23.796875 -2.265625 
C 20.203125 -9.828125 15.5 -15.109375 12.296875 -15.109375 
C 11.40625 -15.109375 10.703125 -14.703125 10.703125 -14.109375 
C 10.703125 -13.90625 10.796875 -13.609375 10.90625 -13.203125 
C 11.203125 -12.3125 11.40625 -11.421875 11.40625 -10.625 
C 11.40625 -8.03125 9.203125 -6.140625 6.296875 -6.140625 
C 2.796875 -6.140625 0.296875 -8.734375 0.296875 -12.328125 
C 0.296875 -16.703125 4.203125 -20 9.40625 -20 
C 14.703125 -20 19.203125 -17.40625 23.203125 -12.03125 
C 26.296875 -7.84375 28.296875 -3.84375 32.703125 7.21875 
L 44.09375 35.328125 
C 46.59375 41.40625 48.703125 43.40625 52.5 43.40625 
L 53.09375 43.40625 
L 53.09375 47 
L 33.09375 47 
L 33.09375 43.40625 
L 34.703125 43.40625 
C 38.5 43.40625 40.09375 42.296875 40.09375 39.703125 
C 40.09375 38.703125 39.796875 37.421875 39.09375 35.734375 
z
" id="Century_Schoolbook_L_Roman-121"/>
      <path d="M 20.09375 46 
L 2.796875 46 
L 2.796875 41.21875 
L 6.40625 41.21875 
C 10.09375 41.21875 10.703125 40.515625 10.703125 36.21875 
L 10.703125 -7.75 
L 10.703125 -11.71875 
C 10.703125 -15.71875 9.59375 -16.40625 3.203125 -16.40625 
L 2.796875 -16.40625 
L 2.796875 -20 
L 28.796875 -20 
L 28.796875 -16.40625 
L 27.703125 -16.40625 
C 21.203125 -16.40625 20.09375 -15.71875 20.09375 -11.734375 
L 20.09375 -7.75 
L 20.09375 6.6875 
C 23.40625 0.90625 27.203125 -1.390625 33.296875 -1.390625 
C 44.90625 -1.390625 53.5 9.265625 53.5 23.5 
C 53.5 37.265625 44.90625 48 33.90625 48 
C 27.703125 48 23.59375 45.4375 20.09375 39.515625 
z
M 32.09375 42.609375 
C 39 42.609375 43 35.75 43 24.09375 
C 43 11.265625 38.90625 4 31.796875 4 
C 24.703125 4 20 11.375 20 22.8125 
C 20 35.140625 24.5 42.609375 32.09375 42.609375 
" id="Century_Schoolbook_L_Roman-112"/>
      <path d="M 20.40625 73 
L 1.90625 73 
L 1.90625 68.21875 
L 6.796875 68.21875 
C 10.40625 68.21875 11 67.515625 11 63.21875 
L 11 12.28125 
L 11 8.28125 
C 11 4.296875 9.90625 3.59375 3.5 3.59375 
L 2.796875 3.59375 
L 2.796875 0 
L 28.703125 0 
L 28.703125 3.59375 
L 28 3.59375 
C 21.5 3.59375 20.40625 4.296875 20.40625 8.25 
L 20.40625 12.21875 
z
" id="Century_Schoolbook_L_Roman-108"/>
      <path d="M 19.796875 46 
L 2.09375 46 
L 2.09375 41.21875 
L 6.203125 41.21875 
C 9.90625 41.21875 10.5 40.515625 10.5 36.203125 
L 10.5 12.296875 
L 10.5 8.296875 
C 10.5 4.296875 9.40625 3.59375 2.90625 3.59375 
L 2.5 3.59375 
L 2.5 0 
L 29.203125 0 
L 29.203125 3.59375 
L 27.296875 3.59375 
C 20.90625 3.59375 19.796875 4.296875 19.796875 8.296875 
L 19.796875 12.296875 
L 19.796875 13.296875 
C 19.796875 20.8125 21.203125 28.40625 23.703125 34.109375 
C 26.09375 39.703125 29.5 42.8125 33.703125 43.3125 
C 32.296875 41.703125 31.90625 40.6875 31.90625 38.765625 
C 31.90625 35.546875 34.203125 33.234375 37.40625 33.234375 
C 41 33.234375 43.5 35.9375 43.5 40.015625 
C 43.5 44.8125 40.09375 48 34.796875 48 
C 28.5 48 23 42.921875 19.796875 34.140625 
z
" id="Century_Schoolbook_L_Roman-114"/>
      <path d="M 20.59375 46 
L 1.796875 46 
L 1.796875 41.21875 
L 6.90625 41.21875 
C 10.59375 41.21875 11.203125 40.515625 11.203125 36.203125 
L 11.203125 12.296875 
L 11.203125 8.296875 
C 11.203125 4.296875 10.09375 3.59375 3.703125 3.59375 
L 3 3.59375 
L 3 0 
L 28.90625 0 
L 28.90625 3.59375 
L 28.203125 3.59375 
C 21.703125 3.59375 20.59375 4.28125 20.59375 8.21875 
L 20.59375 12.171875 
z
M 15.90625 71.578125 
C 12.703125 71.578125 10.09375 68.984375 10.09375 65.796875 
C 10.09375 62.703125 12.703125 60 15.796875 60 
C 19.09375 60 21.703125 62.59375 21.703125 65.796875 
C 21.703125 68.984375 19.09375 71.578125 15.90625 71.578125 
" id="Century_Schoolbook_L_Roman-105"/>
      <path d="M 25 32.609375 
L 25 59.71875 
L 25 62.609375 
C 25 66.8125 25.90625 67.3125 34 67.3125 
L 35.90625 67.3125 
L 35.90625 72 
L 3 72 
L 3 67.3125 
L 4.796875 67.3125 
C 12.90625 67.3125 13.796875 66.8125 13.796875 62.609375 
L 13.796875 59.71875 
L 13.796875 12.28125 
L 13.796875 9.375 
C 13.796875 5.1875 12.90625 4.6875 4.796875 4.6875 
L 3 4.6875 
L 3 0 
L 35.90625 0 
L 35.90625 4.6875 
L 34 4.6875 
C 25.90625 4.6875 25 5.1875 25 9.375 
L 25 12.28125 
L 25 24.9375 
L 36.59375 36.59375 
L 54 11.171875 
C 55.59375 8.78125 56 7.984375 56 6.984375 
C 56 5.390625 54.09375 4.6875 49.203125 4.6875 
L 46.09375 4.6875 
L 46.09375 0 
L 80.296875 0 
L 80.296875 4.6875 
L 78.40625 4.6875 
C 72.90625 4.6875 71.5 5.390625 68.59375 9.6875 
L 44.40625 44.46875 
L 59.296875 59.328125 
C 64.09375 64.40625 70.203125 67.3125 76.203125 67.3125 
L 76.203125 72 
L 45.40625 72 
L 45.40625 67.3125 
L 47.90625 67.3125 
C 52.5 67.3125 54.40625 66.40625 54.40625 64.3125 
C 54.40625 62.921875 52.40625 60.015625 49.5 57.140625 
z
" id="Century_Schoolbook_L_Roman-75"/>
      <path d="M 20 46 
L 2.703125 46 
L 2.703125 41.21875 
L 6.296875 41.21875 
C 10 41.21875 10.59375 40.515625 10.59375 36.203125 
L 10.59375 12.296875 
L 10.59375 8.296875 
C 10.59375 4.296875 9.5 3.59375 3.09375 3.59375 
L 2.703125 3.59375 
L 2.703125 0 
L 28 0 
L 28 3.59375 
L 27.59375 3.59375 
C 21.09375 3.59375 20 4.296875 20 8.28125 
L 20 12.28125 
L 20 22.65625 
C 20 27.546875 20.703125 32.03125 21.796875 34.328125 
C 23.90625 38.828125 28.40625 41.921875 32.703125 41.921875 
C 35.296875 41.921875 38.296875 40.421875 39.796875 38.421875 
C 41.296875 36.328125 42 33.234375 42 28.4375 
L 42 12.28125 
L 42 8.28125 
C 42 4.296875 40.90625 3.59375 34.40625 3.59375 
L 34 3.59375 
L 34 0 
L 59.296875 0 
L 59.296875 3.59375 
L 58.90625 3.59375 
C 52.5 3.59375 51.40625 4.296875 51.40625 8.28125 
L 51.40625 12.28125 
L 51.40625 27.953125 
C 51.40625 35.125 51.09375 36.921875 49.296875 40.328125 
C 46.796875 45.109375 41.703125 48 35.796875 48 
C 29.40625 48 24.40625 45.046875 20 38.515625 
z
" id="Century_Schoolbook_L_Roman-110"/>
      <path d="M 25.203125 48.28125 
C 13 48.28125 3.40625 37.453125 3.40625 23.546875 
C 3.40625 9.9375 13 -1 25 -1 
C 37 -1 46.59375 9.9375 46.59375 23.640625 
C 46.59375 37.25 37 48.28125 25.203125 48.28125 
M 25.203125 44 
C 32.203125 44 36.09375 36.734375 36.09375 23.640625 
C 36.09375 10.453125 32.203125 3.296875 25 3.296875 
C 17.796875 3.296875 13.90625 10.453125 13.90625 23.546875 
C 13.90625 37.046875 17.703125 44 25.203125 44 
" id="Century_Schoolbook_L_Roman-111"/>
      <path d="M 46.5 23 
C 46.59375 37.8125 38.09375 48.28125 25.90625 48.28125 
C 13.09375 48.28125 3.5 37.25 3.5 22.34375 
C 3.5 8.4375 12.59375 -1 26.09375 -1 
C 35.59375 -1 42.40625 3.6875 46.5 13.1875 
L 43 15.09375 
C 38.90625 7.390625 34.703125 4.390625 28 4.390625 
C 22.90625 4.390625 19.203125 6.59375 16.59375 11 
C 14.796875 14 14 17.5 14.09375 23 
z
M 14.203125 27.296875 
C 14.203125 30.34375 14.59375 32.5 15.59375 35.25 
C 17.703125 41.140625 20.90625 44 25.703125 44 
C 31.796875 44 35.796875 38.78125 35.796875 30.921875 
C 35.796875 28.078125 34.90625 27.296875 31.703125 27.296875 
z
" id="Century_Schoolbook_L_Roman-101"/>
     </defs>
     <g transform="translate(295.796616266 704.768564879)scale(0.12 -0.12)">
      <use transform="scale(0.9962640099626402)" xlink:href="#Century_Schoolbook_L_Roman-66"/>
      <use transform="translate(71.92998484686333 0.0)scale(0.9962640099626402)" xlink:href="#Century_Schoolbook_L_Roman-114"/>
      <use transform="translate(116.16355354432598 0.0)scale(0.9962640099626402)" xlink:href="#Century_Schoolbook_L_Roman-105"/>
      <use transform="translate(147.54486654051215 0.0)scale(0.9962640099626402)" xlink:href="#Century_Schoolbook_L_Roman-101"/>
      <use transform="translate(197.35806703864418 0.0)scale(0.9962640099626402)" xlink:href="#Century_Schoolbook_L_Roman-114"/>
      <use transform="translate(269.28680533935244 0.0)scale(0.9962640099626402)" xlink:href="#Century_Schoolbook_L_Roman-83"/>
      <use transform="translate(332.0507842903565 0.0)scale(0.9962640099626402)" xlink:href="#Century_Schoolbook_L_Roman-99"/>
      <use transform="translate(376.28435298781915 0.0)scale(0.9962640099626402)" xlink:href="#Century_Schoolbook_L_Roman-111"/>
      <use transform="translate(426.09755348595115 0.0)scale(0.9962640099626402)" xlink:href="#Century_Schoolbook_L_Roman-114"/>
      <use transform="translate(470.3311221834138 0.0)scale(0.9962640099626402)" xlink:href="#Century_Schoolbook_L_Roman-101"/>
      <use transform="translate(547.8394922847915 0.0)scale(0.9962640099626402)" xlink:href="#Century_Schoolbook_L_Roman-98"/>
      <use transform="translate(603.2311692481321 0.0)scale(0.9962640099626402)" xlink:href="#Century_Schoolbook_L_Roman-121"/>
      <use transform="translate(684.4256827424502 0.0)scale(0.9962640099626402)" xlink:href="#Century_Schoolbook_L_Roman-75"/>
      <use transform="translate(761.9340528438279 0.0)scale(0.9962640099626402)" xlink:href="#Century_Schoolbook_L_Roman-97"/>
      <use transform="translate(817.3257298071685 0.0)scale(0.9962640099626402)" xlink:href="#Century_Schoolbook_L_Roman-112"/>
      <use transform="translate(874.5112170911816 0.0)scale(0.9962640099626402)" xlink:href="#Century_Schoolbook_L_Roman-108"/>
      <use transform="translate(905.8925300873677 0.0)scale(0.9962640099626402)" xlink:href="#Century_Schoolbook_L_Roman-97"/>
      <use transform="translate(961.2842070507083 0.0)scale(0.9962640099626402)" xlink:href="#Century_Schoolbook_L_Roman-110"/>
      <use transform="translate(1022.155837727662 0.0)scale(0.9962640099626402)" xlink:href="#Century_Schoolbook_L_Roman-45"/>
      <use transform="translate(1055.3310674569973 0.0)scale(0.9962640099626402)" xlink:href="#Century_Schoolbook_L_Roman-77"/>
      <use transform="translate(1149.377836652592 0.0)scale(0.9962640099626402)" xlink:href="#Century_Schoolbook_L_Roman-101"/>
      <use transform="translate(1199.191037150724 0.0)scale(0.9962640099626402)" xlink:href="#Century_Schoolbook_L_Roman-105"/>
      <use transform="translate(1230.5723501469101 0.0)scale(0.9962640099626402)" xlink:href="#Century_Schoolbook_L_Roman-101"/>
      <use transform="translate(1280.3855506450423 0.0)scale(0.9962640099626402)" xlink:href="#Century_Schoolbook_L_Roman-114"/>
     </g>
    </g>
   </g>
   <g id="matplotlib.axis_2">
    <g id="ytick_1">
     <g id="line2d_20">
      <path clip-path="url(#p230a553092)" d="M 53.912718 675.755829 
L 696.634684 675.755829 
" style="fill:none;stroke:#000000;stroke-dasharray:1.000000,3.000000;stroke-dashoffset:0.0;stroke-width:0.5;"/>
     </g>
     <g id="line2d_21">
      <defs>
       <path d="M 0 0 
L 4 0 
" id="m3920fa1523" style="stroke:#000000;stroke-width:0.5;"/>
      </defs>
      <g>
       <use style="stroke:#000000;stroke-width:0.5;" x="53.9127175922" xlink:href="#m3920fa1523" y="675.755828825"/>
      </g>
     </g>
     <g id="line2d_22">
      <defs>
       <path d="M 0 0 
L -4 0 
" id="m52668bf98d" style="stroke:#000000;stroke-width:0.5;"/>
      </defs>
      <g>
       <use style="stroke:#000000;stroke-width:0.5;" x="696.634683998" xlink:href="#m52668bf98d" y="675.755828825"/>
      </g>
     </g>
     <g id="text_8">
      <!-- $0.00$ -->
      <g transform="translate(29.1020855873 679.055436498)scale(0.12 -0.12)">
       <use transform="scale(0.9962640099626402)" xlink:href="#CMR17-48"/>
       <use transform="translate(45.69047711706103 0.0)scale(0.9962640099626402)" xlink:href="#CMMI12-58"/>
       <use transform="translate(72.78765420688046 0.0)scale(0.9962640099626402)" xlink:href="#CMR17-48"/>
       <use transform="translate(118.47813132394148 0.0)scale(0.9962640099626402)" xlink:href="#CMR17-48"/>
      </g>
     </g>
    </g>
    <g id="ytick_2">
     <g id="line2d_23">
      <path clip-path="url(#p230a553092)" d="M 53.912718 546.325618 
L 696.634684 546.325618 
" style="fill:none;stroke:#000000;stroke-dasharray:1.000000,3.000000;stroke-dashoffset:0.0;stroke-width:0.5;"/>
     </g>
     <g id="line2d_24">
      <g>
       <use style="stroke:#000000;stroke-width:0.5;" x="53.9127175922" xlink:href="#m3920fa1523" y="546.325617956"/>
      </g>
     </g>
     <g id="line2d_25">
      <g>
       <use style="stroke:#000000;stroke-width:0.5;" x="696.634683998" xlink:href="#m52668bf98d" y="546.325617956"/>
      </g>
     </g>
     <g id="text_9">
      <!-- $0.05$ -->
      <g transform="translate(29.1020855873 549.625225629)scale(0.12 -0.12)">
       <use transform="scale(0.9962640099626402)" xlink:href="#CMR17-48"/>
       <use transform="translate(45.69047711706103 0.0)scale(0.9962640099626402)" xlink:href="#CMMI12-58"/>
       <use transform="translate(72.78765420688046 0.0)scale(0.9962640099626402)" xlink:href="#CMR17-48"/>
       <use transform="translate(118.47813132394148 0.0)scale(0.9962640099626402)" xlink:href="#CMR17-53"/>
      </g>
     </g>
    </g>
    <g id="ytick_3">
     <g id="line2d_26">
      <path clip-path="url(#p230a553092)" d="M 53.912718 416.895407 
L 696.634684 416.895407 
" style="fill:none;stroke:#000000;stroke-dasharray:1.000000,3.000000;stroke-dashoffset:0.0;stroke-width:0.5;"/>
     </g>
     <g id="line2d_27">
      <g>
       <use style="stroke:#000000;stroke-width:0.5;" x="53.9127175922" xlink:href="#m3920fa1523" y="416.895407087"/>
      </g>
     </g>
     <g id="line2d_28">
      <g>
       <use style="stroke:#000000;stroke-width:0.5;" x="696.634683998" xlink:href="#m52668bf98d" y="416.895407087"/>
      </g>
     </g>
     <g id="text_10">
      <!-- $0.10$ -->
      <g transform="translate(29.1020855873 420.195014759)scale(0.12 -0.12)">
       <use transform="scale(0.9962640099626402)" xlink:href="#CMR17-48"/>
       <use transform="translate(45.69047711706103 0.0)scale(0.9962640099626402)" xlink:href="#CMMI12-58"/>
       <use transform="translate(72.78765420688046 0.0)scale(0.9962640099626402)" xlink:href="#CMR17-49"/>
       <use transform="translate(118.47813132394148 0.0)scale(0.9962640099626402)" xlink:href="#CMR17-48"/>
      </g>
     </g>
    </g>
    <g id="ytick_4">
     <g id="line2d_29">
      <path clip-path="url(#p230a553092)" d="M 53.912718 287.465196 
L 696.634684 287.465196 
" style="fill:none;stroke:#000000;stroke-dasharray:1.000000,3.000000;stroke-dashoffset:0.0;stroke-width:0.5;"/>
     </g>
     <g id="line2d_30">
      <g>
       <use style="stroke:#000000;stroke-width:0.5;" x="53.9127175922" xlink:href="#m3920fa1523" y="287.465196217"/>
      </g>
     </g>
     <g id="line2d_31">
      <g>
       <use style="stroke:#000000;stroke-width:0.5;" x="696.634683998" xlink:href="#m52668bf98d" y="287.465196217"/>
      </g>
     </g>
     <g id="text_11">
      <!-- $0.15$ -->
      <g transform="translate(29.1020855873 290.76480389)scale(0.12 -0.12)">
       <use transform="scale(0.9962640099626402)" xlink:href="#CMR17-48"/>
       <use transform="translate(45.69047711706103 0.0)scale(0.9962640099626402)" xlink:href="#CMMI12-58"/>
       <use transform="translate(72.78765420688046 0.0)scale(0.9962640099626402)" xlink:href="#CMR17-49"/>
       <use transform="translate(118.47813132394148 0.0)scale(0.9962640099626402)" xlink:href="#CMR17-53"/>
      </g>
     </g>
    </g>
    <g id="ytick_5">
     <g id="line2d_32">
      <path clip-path="url(#p230a553092)" d="M 53.912718 158.034985 
L 696.634684 158.034985 
" style="fill:none;stroke:#000000;stroke-dasharray:1.000000,3.000000;stroke-dashoffset:0.0;stroke-width:0.5;"/>
     </g>
     <g id="line2d_33">
      <g>
       <use style="stroke:#000000;stroke-width:0.5;" x="53.9127175922" xlink:href="#m3920fa1523" y="158.034985348"/>
      </g>
     </g>
     <g id="line2d_34">
      <g>
       <use style="stroke:#000000;stroke-width:0.5;" x="696.634683998" xlink:href="#m52668bf98d" y="158.034985348"/>
      </g>
     </g>
     <g id="text_12">
      <!-- $0.20$ -->
      <g transform="translate(29.1020855873 161.33459302)scale(0.12 -0.12)">
       <use transform="scale(0.9962640099626402)" xlink:href="#CMR17-48"/>
       <use transform="translate(45.69047711706103 0.0)scale(0.9962640099626402)" xlink:href="#CMMI12-58"/>
       <use transform="translate(72.78765420688046 0.0)scale(0.9962640099626402)" xlink:href="#CMR17-50"/>
       <use transform="translate(118.47813132394148 0.0)scale(0.9962640099626402)" xlink:href="#CMR17-48"/>
      </g>
     </g>
    </g>
    <g id="ytick_6">
     <g id="line2d_35">
      <path clip-path="url(#p230a553092)" d="M 53.912718 28.604774 
L 696.634684 28.604774 
" style="fill:none;stroke:#000000;stroke-dasharray:1.000000,3.000000;stroke-dashoffset:0.0;stroke-width:0.5;"/>
     </g>
     <g id="line2d_36">
      <g>
       <use style="stroke:#000000;stroke-width:0.5;" x="53.9127175922" xlink:href="#m3920fa1523" y="28.6047744785"/>
      </g>
     </g>
     <g id="line2d_37">
      <g>
       <use style="stroke:#000000;stroke-width:0.5;" x="696.634683998" xlink:href="#m52668bf98d" y="28.6047744785"/>
      </g>
     </g>
     <g id="text_13">
      <!-- $0.25$ -->
      <g transform="translate(29.1020855873 31.9043821509)scale(0.12 -0.12)">
       <use transform="scale(0.9962640099626402)" xlink:href="#CMR17-48"/>
       <use transform="translate(45.69047711706103 0.0)scale(0.9962640099626402)" xlink:href="#CMMI12-58"/>
       <use transform="translate(72.78765420688046 0.0)scale(0.9962640099626402)" xlink:href="#CMR17-50"/>
       <use transform="translate(118.47813132394148 0.0)scale(0.9962640099626402)" xlink:href="#CMR17-53"/>
      </g>
     </g>
    </g>
    <g id="text_14">
     <!-- Brier Score by Survival Rate -->
     <defs>
      <path d="M 24.59375 35 
L 30.40625 35 
C 34.296875 35 38.296875 33.796875 40.5 31.984375 
C 43.40625 29.6875 44.90625 26.078125 45.59375 19.46875 
L 46.09375 14.34375 
C 47.296875 3.015625 51 -1.59375 58.90625 -1.59375 
C 67.09375 -1.59375 71 3.921875 71.296875 15.921875 
L 67.09375 15.921875 
C 66.703125 9 65.5 6 62.796875 6 
C 60.5 6 59.5 7.703125 57.796875 14.625 
L 56.203125 20.9375 
C 54 30.171875 50.09375 34.375 42.296875 36.390625 
C 56.703125 38.390625 63.59375 44.140625 63.59375 54.1875 
C 63.59375 65.53125 54 72 37.203125 72 
L 2.59375 72 
L 2.59375 67.3125 
L 4.40625 67.3125 
C 12.5 67.3125 13.40625 66.8125 13.40625 62.609375 
L 13.40625 59.71875 
L 13.40625 12.171875 
L 13.40625 9.375 
C 13.40625 5.1875 12.5 4.6875 4.40625 4.6875 
L 2.59375 4.6875 
L 2.59375 0 
L 35.40625 0 
L 35.40625 4.6875 
L 33.59375 4.6875 
C 25.5 4.6875 24.59375 5.1875 24.59375 9.390625 
L 24.59375 12.1875 
z
M 24.59375 39.6875 
L 24.59375 61.546875 
C 24.59375 65.53125 24.703125 65.8125 25.703125 66.609375 
C 26.5 67.203125 27.203125 67.3125 31.5 67.3125 
L 36.90625 67.3125 
C 46.796875 67.3125 51.296875 63.125 51.296875 54.09375 
C 51.296875 49.015625 50 45.140625 47.40625 43.0625 
C 44.90625 40.984375 40.40625 39.6875 35.59375 39.6875 
z
" id="Century_Schoolbook_L_Roman-82"/>
      <path d="M 19.40625 47 
L 19.40625 67 
L 15.296875 67 
C 14.296875 53.875 9.90625 47.1875 1.796875 46.59375 
L 1.796875 42.703125 
L 10 42.703125 
L 10 17.265625 
C 10 10.28125 10.203125 7.78125 11.203125 5.484375 
C 12.796875 1.296875 16.796875 -1 22.59375 -1 
C 26.5 -1 29.90625 0.203125 32.203125 2.390625 
C 35.5 5.59375 37.40625 10.875 37.40625 16.375 
C 37.40625 16.96875 37.40625 17.671875 37.296875 18.671875 
L 33.09375 18.671875 
C 32.796875 9.6875 30.203125 5.09375 25.296875 5.09375 
C 23 5.09375 21 6.28125 20.296875 7.984375 
C 19.703125 9.375 19.40625 11.875 19.40625 15.46875 
L 19.40625 42.703125 
L 34.09375 42.703125 
L 34.09375 47 
z
" id="Century_Schoolbook_L_Roman-116"/>
      <path d="M 41.203125 0 
L 59.40625 0 
L 59.40625 4.703125 
L 56.90625 4.703125 
C 51.40625 4.703125 50.59375 5.59375 50.59375 11.953125 
L 50.59375 46.78125 
L 31.796875 46.78125 
L 31.796875 42 
L 36.90625 42 
C 40.59375 42 41.203125 41.296875 41.203125 36.953125 
L 41.203125 24.5625 
C 41.203125 18.8125 40.59375 15.484375 39.09375 12.15625 
C 37 7.71875 33 5.09375 28.09375 5.09375 
C 25 5.09375 22.40625 6.1875 21.09375 8.171875 
C 19.796875 10.046875 19.59375 11.046875 19.59375 16.5 
L 19.59375 46.78125 
L 2.09375 46.78125 
L 2.09375 42 
L 5.90625 42 
C 9.59375 42 10.203125 41.296875 10.203125 36.953125 
L 10.203125 15.21875 
C 10.203125 10.078125 10.59375 7.765625 12.09375 5.453125 
C 14.796875 1.3125 19.59375 -1 25.59375 -1 
C 32.203125 -1 36.796875 1.71875 41.203125 8.125 
z
" id="Century_Schoolbook_L_Roman-117"/>
      <path d="M 29.5 12.09375 
L 18.09375 38.59375 
C 17.796875 39.203125 17.59375 40.09375 17.59375 40.703125 
C 17.59375 42.390625 18.90625 43 23 43 
L 24.40625 43 
L 24.40625 46.59375 
L 0.796875 46.59375 
L 0.796875 43 
L 1.59375 43 
C 5.40625 43 6.796875 42.09375 8.203125 38.703125 
L 25.40625 -1.5 
L 28.90625 -1.5 
L 43.09375 33.59375 
C 45.796875 40.203125 48.59375 43 52.40625 43 
L 52.796875 43 
L 52.796875 46.59375 
L 32.796875 46.59375 
L 32.796875 43 
L 34.203125 43 
C 37.703125 43 39.59375 41.796875 39.59375 39.5 
C 39.59375 38.390625 39.203125 36.796875 38.703125 35.296875 
z
" id="Century_Schoolbook_L_Roman-118"/>
     </defs>
     <g transform="translate(21.830650466 431.442121342)rotate(-90.0)scale(0.12 -0.12)">
      <use transform="scale(0.9962640099626402)" xlink:href="#Century_Schoolbook_L_Roman-66"/>
      <use transform="translate(71.92998484686333 0.0)scale(0.9962640099626402)" xlink:href="#Century_Schoolbook_L_Roman-114"/>
      <use transform="translate(116.16355354432598 0.0)scale(0.9962640099626402)" xlink:href="#Century_Schoolbook_L_Roman-105"/>
      <use transform="translate(147.54486654051215 0.0)scale(0.9962640099626402)" xlink:href="#Century_Schoolbook_L_Roman-101"/>
      <use transform="translate(197.35806703864418 0.0)scale(0.9962640099626402)" xlink:href="#Century_Schoolbook_L_Roman-114"/>
      <use transform="translate(269.28680533935244 0.0)scale(0.9962640099626402)" xlink:href="#Century_Schoolbook_L_Roman-83"/>
      <use transform="translate(332.0507842903565 0.0)scale(0.9962640099626402)" xlink:href="#Century_Schoolbook_L_Roman-99"/>
      <use transform="translate(376.28435298781915 0.0)scale(0.9962640099626402)" xlink:href="#Century_Schoolbook_L_Roman-111"/>
      <use transform="translate(426.09755348595115 0.0)scale(0.9962640099626402)" xlink:href="#Century_Schoolbook_L_Roman-114"/>
      <use transform="translate(470.3311221834138 0.0)scale(0.9962640099626402)" xlink:href="#Century_Schoolbook_L_Roman-101"/>
      <use transform="translate(547.8394922847915 0.0)scale(0.9962640099626402)" xlink:href="#Century_Schoolbook_L_Roman-98"/>
      <use transform="translate(603.2311692481321 0.0)scale(0.9962640099626402)" xlink:href="#Century_Schoolbook_L_Roman-121"/>
      <use transform="translate(684.4256827424502 0.0)scale(0.9962640099626402)" xlink:href="#Century_Schoolbook_L_Roman-83"/>
      <use transform="translate(747.1896616934544 0.0)scale(0.9962640099626402)" xlink:href="#Century_Schoolbook_L_Roman-117"/>
      <use transform="translate(808.061292370408 0.0)scale(0.9962640099626402)" xlink:href="#Century_Schoolbook_L_Roman-114"/>
      <use transform="translate(852.2948610678706 0.0)scale(0.9962640099626402)" xlink:href="#Century_Schoolbook_L_Roman-118"/>
      <use transform="translate(905.7942049589432 0.0)scale(0.9962640099626402)" xlink:href="#Century_Schoolbook_L_Roman-105"/>
      <use transform="translate(937.1755179551293 0.0)scale(0.9962640099626402)" xlink:href="#Century_Schoolbook_L_Roman-118"/>
      <use transform="translate(990.6748618462018 0.0)scale(0.9962640099626402)" xlink:href="#Century_Schoolbook_L_Roman-97"/>
      <use transform="translate(1046.0665388095424 0.0)scale(0.9962640099626402)" xlink:href="#Century_Schoolbook_L_Roman-108"/>
      <use transform="translate(1105.1430214089742 0.0)scale(0.9962640099626402)" xlink:href="#Century_Schoolbook_L_Roman-82"/>
      <use transform="translate(1177.0730062558375 0.0)scale(0.9962640099626402)" xlink:href="#Century_Schoolbook_L_Roman-97"/>
      <use transform="translate(1232.4646832191781 0.0)scale(0.9962640099626402)" xlink:href="#Century_Schoolbook_L_Roman-116"/>
      <use transform="translate(1271.2183894137222 0.0)scale(0.9962640099626402)" xlink:href="#Century_Schoolbook_L_Roman-101"/>
     </g>
    </g>
   </g>
   <g id="text_15">
    <!-- Brier Score Comparison -->
    <defs>
     <path d="M 39 48 
L 35.5 48 
L 32.59375 44.40625 
C 29 47.203125 25.40625 48.390625 20.40625 48.390625 
C 11.59375 48.390625 5.796875 42.625 5.796875 33.953125 
C 5.796875 30.078125 7.09375 26.78125 9.296875 24.8125 
C 11.59375 22.703125 13.90625 21.71875 19.90625 20.3125 
L 25.203125 19.125 
C 33.09375 17.234375 35.90625 15.234375 35.90625 11.265625 
C 35.90625 6.578125 31.796875 3.296875 25.90625 3.296875 
C 17.5 3.296875 11.5 8.765625 9.09375 18.875 
L 5.09375 18.875 
L 5.09375 0 
L 8.59375 0 
L 12.09375 3.90625 
C 16.203125 0.59375 20.796875 -1 25.796875 -1 
C 35.59375 -1 42.09375 5.078125 42.09375 14.34375 
C 42.09375 18.71875 40.703125 22.09375 37.90625 24.390625 
C 35.5 26.484375 33.5 27.28125 27.40625 28.5625 
L 22.40625 29.671875 
C 16.90625 30.859375 16.90625 30.859375 15.09375 31.859375 
C 12.90625 32.859375 11.59375 34.9375 11.59375 37.140625 
C 11.59375 41.109375 15.40625 44 20.90625 44 
C 24.703125 44 27.796875 42.703125 30.59375 40.015625 
C 32.796875 37.8125 33.90625 35.828125 35.5 31.234375 
L 39 31.234375 
z
" id="Century_Schoolbook_L_Roman-115"/>
     <path d="M 63.90625 72 
L 60.09375 72 
L 56.09375 66.015625 
C 49 71.203125 45.09375 72.703125 38.40625 72.703125 
C 28.703125 72.703125 20.703125 68.8125 13.90625 60.78125 
C 7.5 53.234375 4.5 44.890625 4.5 34.65625 
C 4.5 13.296875 18.59375 -2 38.296875 -2 
C 54.296875 -2 64.5 7.34375 66.796875 24.015625 
L 62.09375 24.8125 
C 61.09375 19.546875 59.90625 15.984375 58.09375 13.015625 
C 54 6.171875 47.59375 2.6875 39.5 2.6875 
C 24.703125 2.6875 17.703125 12.90625 17.703125 34.265625 
C 17.703125 45.46875 19.203125 53.015625 22.59375 58.96875 
C 25.703125 64.53125 31.90625 68 38.296875 68 
C 45.296875 68 51.5 64.328125 55.296875 57.96875 
C 57.203125 54.6875 58.703125 50.8125 61 43.171875 
L 65.40625 43.171875 
z
" id="Century_Schoolbook_L_Roman-67"/>
     <path d="M 20.09375 46 
L 2.296875 46 
L 2.296875 41.21875 
L 6.40625 41.21875 
C 10.09375 41.21875 10.703125 40.515625 10.703125 36.203125 
L 10.703125 12.296875 
L 10.703125 8.40625 
C 10.703125 4.296875 9.59375 3.59375 3.203125 3.59375 
L 2.796875 3.59375 
L 2.796875 0 
L 28 0 
L 28 3.59375 
L 27.59375 3.59375 
C 21.203125 3.59375 20.09375 4.296875 20.09375 8.390625 
L 20.09375 12.28125 
L 20.09375 26.453125 
C 20.09375 35.328125 25 41.921875 31.5 41.921875 
C 34.09375 41.921875 36.90625 40.515625 38.09375 38.625 
C 39.5 36.734375 40.09375 33.828125 40.09375 29.734375 
L 40.09375 12.28125 
L 40.09375 8.28125 
C 40.09375 4.296875 39 3.59375 32.5 3.59375 
L 32.09375 3.59375 
L 32.09375 0 
L 57.40625 0 
L 57.40625 3.59375 
L 57 3.59375 
C 50.59375 3.59375 49.5 4.296875 49.5 8.28125 
L 49.5 12.28125 
L 49.5 25.546875 
C 49.5 35.53125 54 41.921875 61 41.921875 
C 64.296875 41.921875 67 40.015625 68.296875 36.921875 
C 69.203125 34.734375 69.5 32.53125 69.5 28.640625 
L 69.5 12.28125 
L 69.5 8.28125 
C 69.5 4.296875 68.40625 3.59375 61.90625 3.59375 
L 61.5 3.59375 
L 61.5 0 
L 86.796875 0 
L 86.796875 3.59375 
L 86.40625 3.59375 
C 80 3.59375 78.90625 4.296875 78.90625 8.390625 
L 78.90625 12.28125 
L 78.90625 30.640625 
C 78.90625 36.828125 78.296875 38.921875 75.703125 42.3125 
C 72.796875 46.015625 68.703125 48 63.90625 48 
C 57.40625 48 52.59375 44.9375 48.296875 38.109375 
C 46.59375 44.046875 41.203125 48 34.5 48 
C 28.5 48 24 45.140625 20.09375 38.921875 
z
" id="Century_Schoolbook_L_Roman-109"/>
    </defs>
    <g transform="translate(295.846835354 23.6047744785)scale(0.144 -0.144)">
     <use transform="scale(0.9962640099626402)" xlink:href="#Century_Schoolbook_L_Roman-66"/>
     <use transform="translate(71.92998484686333 0.0)scale(0.9962640099626402)" xlink:href="#Century_Schoolbook_L_Roman-114"/>
     <use transform="translate(116.16355354432598 0.0)scale(0.9962640099626402)" xlink:href="#Century_Schoolbook_L_Roman-105"/>
     <use transform="translate(147.54486654051215 0.0)scale(0.9962640099626402)" xlink:href="#Century_Schoolbook_L_Roman-101"/>
     <use transform="translate(197.35806703864418 0.0)scale(0.9962640099626402)" xlink:href="#Century_Schoolbook_L_Roman-114"/>
     <use transform="translate(269.28680533935244 0.0)scale(0.9962640099626402)" xlink:href="#Century_Schoolbook_L_Roman-83"/>
     <use transform="translate(332.0507842903565 0.0)scale(0.9962640099626402)" xlink:href="#Century_Schoolbook_L_Roman-99"/>
     <use transform="translate(376.28435298781915 0.0)scale(0.9962640099626402)" xlink:href="#Century_Schoolbook_L_Roman-111"/>
     <use transform="translate(426.09755348595115 0.0)scale(0.9962640099626402)" xlink:href="#Century_Schoolbook_L_Roman-114"/>
     <use transform="translate(470.3311221834138 0.0)scale(0.9962640099626402)" xlink:href="#Century_Schoolbook_L_Roman-101"/>
     <use transform="translate(547.8394922847915 0.0)scale(0.9962640099626402)" xlink:href="#Century_Schoolbook_L_Roman-67"/>
     <use transform="translate(619.7694771316548 0.0)scale(0.9962640099626402)" xlink:href="#Century_Schoolbook_L_Roman-111"/>
     <use transform="translate(669.5826776297868 0.0)scale(0.9962640099626402)" xlink:href="#Century_Schoolbook_L_Roman-109"/>
     <use transform="translate(758.1495843224627 0.0)scale(0.9962640099626402)" xlink:href="#Century_Schoolbook_L_Roman-112"/>
     <use transform="translate(815.3350716064758 0.0)scale(0.9962640099626402)" xlink:href="#Century_Schoolbook_L_Roman-97"/>
     <use transform="translate(870.7267485698164 0.0)scale(0.9962640099626402)" xlink:href="#Century_Schoolbook_L_Roman-114"/>
     <use transform="translate(914.960317267279 0.0)scale(0.9962640099626402)" xlink:href="#Century_Schoolbook_L_Roman-105"/>
     <use transform="translate(946.3416302634653 0.0)scale(0.9962640099626402)" xlink:href="#Century_Schoolbook_L_Roman-115"/>
     <use transform="translate(992.4674408225017 0.0)scale(0.9962640099626402)" xlink:href="#Century_Schoolbook_L_Roman-111"/>
     <use transform="translate(1042.2806413206335 0.0)scale(0.9962640099626402)" xlink:href="#Century_Schoolbook_L_Roman-110"/>
    </g>
   </g>
  </g>
 </g>
 <defs>
  <clipPath id="p230a553092">
   <rect height="647.151054347" width="642.721966405" x="53.9127175922" y="28.6047744785"/>
  </clipPath>
 </defs>
</svg>
