<?xml version="1.0" encoding="utf-8" standalone="no"?>
<!DOCTYPE svg PUBLIC "-//W3C//DTD SVG 1.1//EN"
  "http://www.w3.org/Graphics/SVG/1.1/DTD/svg11.dtd">
<!-- Created with matplotlib (http://matplotlib.org/) -->
<svg height="432pt" version="1.1" viewBox="0 0 576 432" width="576pt" xmlns="http://www.w3.org/2000/svg" xmlns:xlink="http://www.w3.org/1999/xlink">
 <defs>
  <style type="text/css">
*{stroke-linecap:butt;stroke-linejoin:round;stroke-miterlimit:100000;}
  </style>
 </defs>
 <g id="figure_1">
  <g id="patch_1">
   <path d="M 0 432 
L 576 432 
L 576 0 
L 0 0 
L 0 432 
z
" style="fill:none;"/>
  </g>
  <g id="axes_1">
   <g id="patch_2">
    <path d="M 72 388.8 
L 518.4 388.8 
L 518.4 43.2 
L 72 43.2 
L 72 388.8 
z
" style="fill:none;"/>
   </g>
   <g id="PathCollection_1">
    <path clip-path="url(#p6ef1205451)" d="M 187.069652 313.100283 
C 190.565407 313.100283 193.918456 311.711404 196.390328 309.239532 
C 198.8622 306.76766 200.251078 303.414611 200.251078 299.918856 
C 200.251078 296.423101 198.8622 293.070053 196.390328 290.59818 
C 193.918456 288.126308 190.565407 286.73743 187.069652 286.73743 
C 183.573897 286.73743 180.220848 288.126308 177.748976 290.59818 
C 175.277104 293.070053 173.888226 296.423101 173.888226 299.918856 
C 173.888226 303.414611 175.277104 306.76766 177.748976 309.239532 
C 180.220848 311.711404 183.573897 313.100283 187.069652 313.100283 
z
" style="fill:#6bbf64;fill-opacity:0.3;stroke:#000000;stroke-opacity:0.3;"/>
    <path clip-path="url(#p6ef1205451)" d="M 191.741611 112.386036 
C 193.916438 112.386036 196.002483 111.521968 197.540318 109.984133 
C 199.078153 108.446298 199.942221 106.360253 199.942221 104.185426 
C 199.942221 102.010599 199.078153 99.924554 197.540318 98.386719 
C 196.002483 96.848884 193.916438 95.984816 191.741611 95.984816 
C 189.566784 95.984816 187.480739 96.848884 185.942904 98.386719 
C 184.405069 99.924554 183.541001 102.010599 183.541001 104.185426 
C 183.541001 106.360253 184.405069 108.446298 185.942904 109.984133 
C 187.480739 111.521968 189.566784 112.386036 191.741611 112.386036 
z
" style="fill:#e0422f;fill-opacity:0.3;stroke:#000000;stroke-opacity:0.3;"/>
    <path clip-path="url(#p6ef1205451)" d="M 178.189549 286.587594 
C 180.294533 286.587594 182.313586 285.751275 183.802035 284.262826 
C 185.290484 282.774378 186.126803 280.755324 186.126803 278.65034 
C 186.126803 276.545356 185.290484 274.526303 183.802035 273.037854 
C 182.313586 271.549405 180.294533 270.713086 178.189549 270.713086 
C 176.084565 270.713086 174.065512 271.549405 172.577063 273.037854 
C 171.088614 274.526303 170.252295 276.545356 170.252295 278.65034 
C 170.252295 280.755324 171.088614 282.774378 172.577063 284.262826 
C 174.065512 285.751275 176.084565 286.587594 178.189549 286.587594 
z
" style="fill:#8ecf67;fill-opacity:0.3;stroke:#000000;stroke-opacity:0.3;"/>
    <path clip-path="url(#p6ef1205451)" d="M 181.958201 324.915564 
C 183.761777 324.915564 185.491726 324.198995 186.767047 322.923674 
C 188.042368 321.648353 188.758937 319.918404 188.758937 318.114828 
C 188.758937 316.311252 188.042368 314.581303 186.767047 313.305982 
C 185.491726 312.030661 183.761777 311.314093 181.958201 311.314093 
C 180.154625 311.314093 178.424676 312.030661 177.149355 313.305982 
C 175.874034 314.581303 175.157466 316.311252 175.157466 318.114828 
C 175.157466 319.918404 175.874034 321.648353 177.149355 322.923674 
C 178.424676 324.198995 180.154625 324.915564 181.958201 324.915564 
z
" style="fill:#48ae5c;fill-opacity:0.3;stroke:#000000;stroke-opacity:0.3;"/>
    <path clip-path="url(#p6ef1205451)" d="M 190.440053 326.139776 
C 191.746026 326.139776 192.998687 325.620907 193.92215 324.697444 
C 194.845613 323.773981 195.364482 322.521321 195.364482 321.215347 
C 195.364482 319.909373 194.845613 318.656713 193.92215 317.73325 
C 192.998687 316.809787 191.746026 316.290918 190.440053 316.290918 
C 189.134079 316.290918 187.881418 316.809787 186.957956 317.73325 
C 186.034493 318.656713 185.515624 319.909373 185.515624 321.215347 
C 185.515624 322.521321 186.034493 323.773981 186.957956 324.697444 
C 187.881418 325.620907 189.134079 326.139776 190.440053 326.139776 
z
" style="fill:#42ac5a;fill-opacity:0.3;stroke:#000000;stroke-opacity:0.3;"/>
    <path clip-path="url(#p6ef1205451)" d="M 198.911545 338.59574 
C 200.044493 338.59574 201.131191 338.145615 201.932306 337.3445 
C 202.733421 336.543384 203.183546 335.456686 203.183546 334.323738 
C 203.183546 333.19079 202.733421 332.104092 201.932306 331.302977 
C 201.131191 330.501861 200.044493 330.051736 198.911545 330.051736 
C 197.778596 330.051736 196.691898 330.501861 195.890783 331.302977 
C 195.089668 332.104092 194.639543 333.19079 194.639543 334.323738 
C 194.639543 335.456686 195.089668 336.543384 195.890783 337.3445 
C 196.691898 338.145615 197.778596 338.59574 198.911545 338.59574 
z
" style="fill:#2aa054;fill-opacity:0.3;stroke:#000000;stroke-opacity:0.3;"/>
    <path clip-path="url(#p6ef1205451)" d="M 183.866492 153.220769 
C 184.75601 153.220769 185.609216 152.867359 186.2382 152.238375 
C 186.867184 151.609391 187.220594 150.756185 187.220594 149.866667 
C 187.220594 148.977148 186.867184 148.123943 186.2382 147.494958 
C 185.609216 146.865974 184.75601 146.512565 183.866492 146.512565 
C 182.976974 146.512565 182.123768 146.865974 181.494784 147.494958 
C 180.865799 148.123943 180.51239 148.977148 180.51239 149.866667 
C 180.51239 150.756185 180.865799 151.609391 181.494784 152.238375 
C 182.123768 152.867359 182.976974 153.220769 183.866492 153.220769 
z
" style="fill:#fdbf6f;fill-opacity:0.3;stroke:#000000;stroke-opacity:0.3;"/>
    <path clip-path="url(#p6ef1205451)" d="M 173.676066 232.410102 
C 174.565584 232.410102 175.41879 232.056693 176.047774 231.427708 
C 176.676759 230.798724 177.030168 229.945518 177.030168 229.056 
C 177.030168 228.166482 176.676759 227.313276 176.047774 226.684292 
C 175.41879 226.055307 174.565584 225.701898 173.676066 225.701898 
C 172.786548 225.701898 171.933342 226.055307 171.304358 226.684292 
C 170.675373 227.313276 170.321964 228.166482 170.321964 229.056 
C 170.321964 229.945518 170.675373 230.798724 171.304358 231.427708 
C 171.933342 232.056693 172.786548 232.410102 173.676066 232.410102 
z
" style="fill:#d9ef8b;fill-opacity:0.3;stroke:#000000;stroke-opacity:0.3;"/>
    <path clip-path="url(#p6ef1205451)" d="M 197.581502 306.138102 
C 198.47102 306.138102 199.324226 305.784693 199.953211 305.155708 
C 200.582195 304.526724 200.935604 303.673518 200.935604 302.784 
C 200.935604 301.894482 200.582195 301.041276 199.953211 300.412292 
C 199.324226 299.783307 198.47102 299.429898 197.581502 299.429898 
C 196.691984 299.429898 195.838778 299.783307 195.209794 300.412292 
C 194.58081 301.041276 194.2274 301.894482 194.2274 302.784 
C 194.2274 303.673518 194.58081 304.526724 195.209794 305.155708 
C 195.838778 305.784693 196.691984 306.138102 197.581502 306.138102 
z
" style="fill:#66bd63;fill-opacity:0.3;stroke:#000000;stroke-opacity:0.3;"/>
    <path clip-path="url(#p6ef1205451)" d="M 176.498871 302.361034 
C 177.368398 302.361034 178.202428 302.015567 178.817276 301.400719 
C 179.432124 300.785871 179.77759 299.951841 179.77759 299.082315 
C 179.77759 298.212788 179.432124 297.378758 178.817276 296.76391 
C 178.202428 296.149062 177.368398 295.803596 176.498871 295.803596 
C 175.629345 295.803596 174.795315 296.149062 174.180467 296.76391 
C 173.565618 297.378758 173.220152 298.212788 173.220152 299.082315 
C 173.220152 299.951841 173.565618 300.785871 174.180467 301.400719 
C 174.795315 302.015567 175.629345 302.361034 176.498871 302.361034 
z
" style="fill:#6bbf64;fill-opacity:0.3;stroke:#000000;stroke-opacity:0.3;"/>
    <path clip-path="url(#p6ef1205451)" d="M 187.503032 300.350574 
C 188.362388 300.350574 189.186663 300.009149 189.79432 299.401492 
C 190.401976 298.793835 190.743402 297.96956 190.743402 297.110204 
C 190.743402 296.250848 190.401976 295.426573 189.79432 294.818916 
C 189.186663 294.21126 188.362388 293.869834 187.503032 293.869834 
C 186.643676 293.869834 185.819401 294.21126 185.211744 294.818916 
C 184.604087 295.426573 184.262662 296.250848 184.262662 297.110204 
C 184.262662 297.96956 184.604087 298.793835 185.211744 299.401492 
C 185.819401 300.009149 186.643676 300.350574 187.503032 300.350574 
z
" style="fill:#6ec064;fill-opacity:0.3;stroke:#000000;stroke-opacity:0.3;"/>
    <path clip-path="url(#p6ef1205451)" d="M 184.204207 215.706278 
C 185.042853 215.706278 185.847263 215.37308 186.440275 214.780068 
C 187.033287 214.187056 187.366484 213.382646 187.366484 212.544 
C 187.366484 211.705354 187.033287 210.900944 186.440275 210.307932 
C 185.847263 209.71492 185.042853 209.381722 184.204207 209.381722 
C 183.365561 209.381722 182.561151 209.71492 181.968139 210.307932 
C 181.375127 210.900944 181.041929 211.705354 181.041929 212.544 
C 181.041929 213.382646 181.375127 214.187056 181.968139 214.780068 
C 182.561151 215.37308 183.365561 215.706278 184.204207 215.706278 
z
" style="fill:#ecf7a6;fill-opacity:0.3;stroke:#000000;stroke-opacity:0.3;"/>
    <path clip-path="url(#p6ef1205451)" d="M 188.135638 391.841381 
C 188.942222 391.841381 189.715878 391.520922 190.286219 390.950581 
C 190.85656 390.38024 191.177019 389.606584 191.177019 388.8 
C 191.177019 387.993416 190.85656 387.21976 190.286219 386.649419 
C 189.715878 386.079078 188.942222 385.758619 188.135638 385.758619 
C 187.329054 385.758619 186.555398 386.079078 185.985057 386.649419 
C 185.414716 387.21976 185.094257 387.993416 185.094257 388.8 
C 185.094257 389.606584 185.414716 390.38024 185.985057 390.950581 
C 186.555398 391.520922 187.329054 391.841381 188.135638 391.841381 
z
" style="fill:#006837;fill-opacity:0.3;stroke:#000000;stroke-opacity:0.3;"/>
    <path clip-path="url(#p6ef1205451)" d="M 184.241152 391.8 
C 185.036761 391.8 185.799892 391.483901 186.362472 390.92132 
C 186.925053 390.35874 187.241152 389.595609 187.241152 388.8 
C 187.241152 388.004391 186.925053 387.24126 186.362472 386.67868 
C 185.799892 386.116099 185.036761 385.8 184.241152 385.8 
C 183.445543 385.8 182.682412 386.116099 182.119832 386.67868 
C 181.557251 387.24126 181.241152 388.004391 181.241152 388.8 
C 181.241152 389.595609 181.557251 390.35874 182.119832 390.92132 
C 182.682412 391.483901 183.445543 391.8 184.241152 391.8 
z
" style="fill:#006837;fill-opacity:0.3;stroke:#000000;stroke-opacity:0.3;"/>
    <path clip-path="url(#p6ef1205451)" d="M 182.6486 391.75804 
C 183.433081 391.75804 184.185538 391.446362 184.74025 390.89165 
C 185.294962 390.336938 185.60664 389.584481 185.60664 388.8 
C 185.60664 388.015519 185.294962 387.263062 184.74025 386.70835 
C 184.185538 386.153638 183.433081 385.84196 182.6486 385.84196 
C 181.864119 385.84196 181.111662 386.153638 180.55695 386.70835 
C 180.002238 387.263062 179.69056 388.015519 179.69056 388.8 
C 179.69056 389.584481 180.002238 390.336938 180.55695 390.89165 
C 181.111662 391.446362 181.864119 391.75804 182.6486 391.75804 
z
" style="fill:#006837;fill-opacity:0.3;stroke:#000000;stroke-opacity:0.3;"/>
    <path clip-path="url(#p6ef1205451)" d="M 184.640055 89.165995 
C 185.413249 89.165995 186.154878 88.858802 186.701608 88.312072 
C 187.248338 87.765342 187.555531 87.023712 187.555531 86.250519 
C 187.555531 85.477326 187.248338 84.735696 186.701608 84.188966 
C 186.154878 83.642236 185.413249 83.335043 184.640055 83.335043 
C 183.866862 83.335043 183.125233 83.642236 182.578503 84.188966 
C 182.031772 84.735696 181.724579 85.477326 181.724579 86.250519 
C 181.724579 87.023712 182.031772 87.765342 182.578503 88.312072 
C 183.125233 88.858802 183.866862 89.165995 184.640055 89.165995 
z
" style="fill:#b30d26;fill-opacity:0.3;stroke:#000000;stroke-opacity:0.3;"/>
    <path clip-path="url(#p6ef1205451)" d="M 192.991623 186.026 
C 193.753361 186.026 194.484003 185.723359 195.022633 185.184729 
C 195.561263 184.646099 195.863904 183.915457 195.863904 183.153719 
C 195.863904 182.391981 195.561263 181.661339 195.022633 181.122709 
C 194.484003 180.584079 193.753361 180.281438 192.991623 180.281438 
C 192.229885 180.281438 191.499244 180.584079 190.960614 181.122709 
C 190.421983 181.661339 190.119342 182.391981 190.119342 183.153719 
C 190.119342 183.915457 190.421983 184.646099 190.960614 185.184729 
C 191.499244 185.723359 192.229885 186.026 192.991623 186.026 
z
" style="fill:#fff1a8;fill-opacity:0.3;stroke:#000000;stroke-opacity:0.3;"/>
    <path clip-path="url(#p6ef1205451)" d="M 175.669702 391.672281 
C 176.43144 391.672281 177.162082 391.36964 177.700712 390.83101 
C 178.239342 390.29238 178.541983 389.561738 178.541983 388.8 
C 178.541983 388.038262 178.239342 387.30762 177.700712 386.76899 
C 177.162082 386.23036 176.43144 385.927719 175.669702 385.927719 
C 174.907964 385.927719 174.177323 386.23036 173.638693 386.76899 
C 173.100062 387.30762 172.797421 388.038262 172.797421 388.8 
C 172.797421 389.561738 173.100062 390.29238 173.638693 390.83101 
C 174.177323 391.36964 174.907964 391.672281 175.669702 391.672281 
z
" style="fill:#006837;fill-opacity:0.3;stroke:#000000;stroke-opacity:0.3;"/>
    <path clip-path="url(#p6ef1205451)" d="M 176.83536 348.428835 
C 177.573655 348.428835 178.281809 348.135508 178.803862 347.613455 
C 179.325915 347.091402 179.619242 346.383247 179.619242 345.644953 
C 179.619242 344.906659 179.325915 344.198504 178.803862 343.676451 
C 178.281809 343.154398 177.573655 342.861071 176.83536 342.861071 
C 176.097066 342.861071 175.388911 343.154398 174.866858 343.676451 
C 174.344806 344.198504 174.051478 344.906659 174.051478 345.644953 
C 174.051478 346.383247 174.344806 347.091402 174.866858 347.613455 
C 175.388911 348.135508 176.097066 348.428835 176.83536 348.428835 
z
" style="fill:#18954f;fill-opacity:0.3;stroke:#000000;stroke-opacity:0.3;"/>
    <path clip-path="url(#p6ef1205451)" d="M 187.840343 194.241691 
C 188.554424 194.241691 189.239355 193.957983 189.744286 193.453051 
C 190.249218 192.94812 190.532926 192.263189 190.532926 191.549108 
C 190.532926 190.835027 190.249218 190.150097 189.744286 189.645165 
C 189.239355 189.140233 188.554424 188.856526 187.840343 188.856526 
C 187.126262 188.856526 186.441332 189.140233 185.9364 189.645165 
C 185.431468 190.150097 185.147761 190.835027 185.147761 191.549108 
C 185.147761 192.263189 185.431468 192.94812 185.9364 193.453051 
C 186.441332 193.957983 187.126262 194.241691 187.840343 194.241691 
z
" style="fill:#fffab6;fill-opacity:0.3;stroke:#000000;stroke-opacity:0.3;"/>
    <path clip-path="url(#p6ef1205451)" d="M 185.966284 222.172282 
C 186.667945 222.172282 187.340963 221.893509 187.837113 221.397359 
C 188.333262 220.90121 188.612035 220.228192 188.612035 219.526531 
C 188.612035 218.824869 188.333262 218.151851 187.837113 217.655702 
C 187.340963 217.159552 186.667945 216.880779 185.966284 216.880779 
C 185.264623 216.880779 184.591605 217.159552 184.095455 217.655702 
C 183.599306 218.151851 183.320533 218.824869 183.320533 219.526531 
C 183.320533 220.228192 183.599306 220.90121 184.095455 221.397359 
C 184.591605 221.893509 185.264623 222.172282 185.966284 222.172282 
z
" style="fill:#e3f399;fill-opacity:0.3;stroke:#000000;stroke-opacity:0.3;"/>
    <path clip-path="url(#p6ef1205451)" d="M 188.954978 211.392113 
C 189.631116 211.392113 190.279652 211.123481 190.757754 210.645379 
C 191.235855 210.167278 191.504488 209.518741 191.504488 208.842604 
C 191.504488 208.166466 191.235855 207.51793 190.757754 207.039828 
C 190.279652 206.561726 189.631116 206.293094 188.954978 206.293094 
C 188.27884 206.293094 187.630304 206.561726 187.152203 207.039828 
C 186.674101 207.51793 186.405468 208.166466 186.405468 208.842604 
C 186.405468 209.518741 186.674101 210.167278 187.152203 210.645379 
C 187.630304 211.123481 188.27884 211.392113 188.954978 211.392113 
z
" style="fill:#f1f9ac;fill-opacity:0.3;stroke:#000000;stroke-opacity:0.3;"/>
    <path clip-path="url(#p6ef1205451)" d="M 180.883213 336.04949 
C 181.532825 336.04949 182.155918 335.791396 182.615264 335.332051 
C 183.074609 334.872706 183.332703 334.249612 183.332703 333.6 
C 183.332703 332.950388 183.074609 332.327294 182.615264 331.867949 
C 182.155918 331.408604 181.532825 331.15051 180.883213 331.15051 
C 180.233601 331.15051 179.610507 331.408604 179.151162 331.867949 
C 178.691817 332.327294 178.433723 332.950388 178.433723 333.6 
C 178.433723 334.249612 178.691817 334.872706 179.151162 335.332051 
C 179.610507 335.791396 180.233601 336.04949 180.883213 336.04949 
z
" style="fill:#2aa054;fill-opacity:0.3;stroke:#000000;stroke-opacity:0.3;"/>
    <path clip-path="url(#p6ef1205451)" d="M 177.77337 333.7068 
C 178.409305 333.7068 179.019279 333.454141 179.468952 333.004467 
C 179.918626 332.554793 180.171286 331.944819 180.171286 331.308885 
C 180.171286 330.67295 179.918626 330.062976 179.468952 329.613302 
C 179.019279 329.163628 178.409305 328.910969 177.77337 328.910969 
C 177.137435 328.910969 176.527461 329.163628 176.077787 329.613302 
C 175.628114 330.062976 175.375454 330.67295 175.375454 331.308885 
C 175.375454 331.944819 175.628114 332.554793 176.077787 333.004467 
C 176.527461 333.454141 177.137435 333.7068 177.77337 333.7068 
z
" style="fill:#30a356;fill-opacity:0.3;stroke:#000000;stroke-opacity:0.3;"/>
    <path clip-path="url(#p6ef1205451)" d="M 178.195137 333.7068 
C 178.831071 333.7068 179.441045 333.454141 179.890719 333.004467 
C 180.340393 332.554793 180.593052 331.944819 180.593052 331.308885 
C 180.593052 330.67295 180.340393 330.062976 179.890719 329.613302 
C 179.441045 329.163628 178.831071 328.910969 178.195137 328.910969 
C 177.559202 328.910969 176.949228 329.163628 176.499554 329.613302 
C 176.04988 330.062976 175.797221 330.67295 175.797221 331.308885 
C 175.797221 331.944819 176.04988 332.554793 176.499554 333.004467 
C 176.949228 333.454141 177.559202 333.7068 178.195137 333.7068 
z
" style="fill:#30a356;fill-opacity:0.3;stroke:#000000;stroke-opacity:0.3;"/>
    <path clip-path="url(#p6ef1205451)" d="M 185.030431 148.368348 
C 185.652387 148.368348 186.248954 148.121242 186.688743 147.681453 
C 187.128533 147.241663 187.375639 146.645097 187.375639 146.02314 
C 187.375639 145.401184 187.128533 144.804618 186.688743 144.364828 
C 186.248954 143.925039 185.652387 143.677933 185.030431 143.677933 
C 184.408475 143.677933 183.811908 143.925039 183.372119 144.364828 
C 182.932329 144.804618 182.685223 145.401184 182.685223 146.02314 
C 182.685223 146.645097 182.932329 147.241663 183.372119 147.681453 
C 183.811908 148.121242 184.408475 148.368348 185.030431 148.368348 
z
" style="fill:#fdb768;fill-opacity:0.3;stroke:#000000;stroke-opacity:0.3;"/>
    <path clip-path="url(#p6ef1205451)" d="M 186.868424 260.781112 
C 187.446421 260.781112 188.000822 260.551471 188.409528 260.142766 
C 188.818233 259.73406 189.047874 259.179659 189.047874 258.601662 
C 189.047874 258.023665 188.818233 257.469264 188.409528 257.060559 
C 188.000822 256.651853 187.446421 256.422213 186.868424 256.422213 
C 186.290428 256.422213 185.736026 256.651853 185.327321 257.060559 
C 184.918615 257.469264 184.688975 258.023665 184.688975 258.601662 
C 184.688975 259.179659 184.918615 259.73406 185.327321 260.142766 
C 185.736026 260.551471 186.290428 260.781112 186.868424 260.781112 
z
" style="fill:#addc6f;fill-opacity:0.3;stroke:#000000;stroke-opacity:0.3;"/>
    <path clip-path="url(#p6ef1205451)" d="M 180.411982 390.979449 
C 180.989979 390.979449 181.54438 390.749809 181.953086 390.341104 
C 182.361791 389.932398 182.591432 389.377997 182.591432 388.8 
C 182.591432 388.222003 182.361791 387.667602 181.953086 387.258896 
C 181.54438 386.850191 180.989979 386.620551 180.411982 386.620551 
C 179.833985 386.620551 179.279584 386.850191 178.870879 387.258896 
C 178.462173 387.667602 178.232533 388.222003 178.232533 388.8 
C 178.232533 389.377997 178.462173 389.932398 178.870879 390.341104 
C 179.279584 390.749809 179.833985 390.979449 180.411982 390.979449 
z
" style="fill:#006837;fill-opacity:0.3;stroke:#000000;stroke-opacity:0.3;"/>
    <path clip-path="url(#p6ef1205451)" d="M 186.286073 390.92132 
C 186.848654 390.92132 187.388269 390.697805 187.786073 390.3 
C 188.183878 389.902195 188.407394 389.362581 188.407394 388.8 
C 188.407394 388.237419 188.183878 387.697805 187.786073 387.3 
C 187.388269 386.902195 186.848654 386.67868 186.286073 386.67868 
C 185.723493 386.67868 185.183878 386.902195 184.786073 387.3 
C 184.388269 387.697805 184.164753 388.237419 184.164753 388.8 
C 184.164753 389.362581 184.388269 389.902195 184.786073 390.3 
C 185.183878 390.697805 185.723493 390.92132 186.286073 390.92132 
z
" style="fill:#006837;fill-opacity:0.3;stroke:#000000;stroke-opacity:0.3;"/>
    <path clip-path="url(#p6ef1205451)" d="M 180.111167 390.861553 
C 180.657897 390.861553 181.182309 390.644335 181.568905 390.257738 
C 181.955502 389.871141 182.17272 389.34673 182.17272 388.8 
C 182.17272 388.25327 181.955502 387.728859 181.568905 387.342262 
C 181.182309 386.955665 180.657897 386.738447 180.111167 386.738447 
C 179.564437 386.738447 179.040026 386.955665 178.653429 387.342262 
C 178.266833 387.728859 178.049614 388.25327 178.049614 388.8 
C 178.049614 389.34673 178.266833 389.871141 178.653429 390.257738 
C 179.040026 390.644335 179.564437 390.861553 180.111167 390.861553 
z
" style="fill:#006837;fill-opacity:0.3;stroke:#000000;stroke-opacity:0.3;"/>
    <path clip-path="url(#p6ef1205451)" d="M 180.897193 390.670829 
C 181.393343 390.670829 181.869238 390.473706 182.220069 390.122876 
C 182.5709 389.772045 182.768022 389.29615 182.768022 388.8 
C 182.768022 388.30385 182.5709 387.827955 182.220069 387.477124 
C 181.869238 387.126294 181.393343 386.929171 180.897193 386.929171 
C 180.401044 386.929171 179.925149 387.126294 179.574318 387.477124 
C 179.223487 387.827955 179.026365 388.30385 179.026365 388.8 
C 179.026365 389.29615 179.223487 389.772045 179.574318 390.122876 
C 179.925149 390.473706 180.401044 390.670829 180.897193 390.670829 
z
" style="fill:#006837;fill-opacity:0.3;stroke:#000000;stroke-opacity:0.3;"/>
    <path clip-path="url(#p6ef1205451)" d="M 170.703865 83.332051 
C 171.163211 83.332051 171.603804 83.149551 171.92861 82.824745 
C 172.253416 82.499939 172.435916 82.059345 172.435916 81.6 
C 172.435916 81.140655 172.253416 80.700061 171.92861 80.375255 
C 171.603804 80.050449 171.163211 79.867949 170.703865 79.867949 
C 170.24452 79.867949 169.803927 80.050449 169.47912 80.375255 
C 169.154314 80.700061 168.971815 81.140655 168.971815 81.6 
C 168.971815 82.059345 169.154314 82.499939 169.47912 82.824745 
C 169.803927 83.149551 170.24452 83.332051 170.703865 83.332051 
z
" style="fill:#a50026;fill-opacity:0.3;stroke:#000000;stroke-opacity:0.3;"/>
    <path clip-path="url(#p6ef1205451)" d="M 187.957982 390.532051 
C 188.417327 390.532051 188.857921 390.349551 189.182727 390.024745 
C 189.507533 389.699939 189.690033 389.259345 189.690033 388.8 
C 189.690033 388.340655 189.507533 387.900061 189.182727 387.575255 
C 188.857921 387.250449 188.417327 387.067949 187.957982 387.067949 
C 187.498637 387.067949 187.058043 387.250449 186.733237 387.575255 
C 186.408431 387.900061 186.225931 388.340655 186.225931 388.8 
C 186.225931 389.259345 186.408431 389.699939 186.733237 390.024745 
C 187.058043 390.349551 187.498637 390.532051 187.957982 390.532051 
z
" style="fill:#006837;fill-opacity:0.3;stroke:#000000;stroke-opacity:0.3;"/>
    <path clip-path="url(#p6ef1205451)" d="M 181.200839 390.458312 
C 181.640628 390.458312 182.062464 390.283582 182.373443 389.972604 
C 182.684421 389.661626 182.859151 389.23979 182.859151 388.8 
C 182.859151 388.36021 182.684421 387.938374 182.373443 387.627396 
C 182.062464 387.316418 181.640628 387.141688 181.200839 387.141688 
C 180.761049 387.141688 180.339213 387.316418 180.028235 387.627396 
C 179.717257 387.938374 179.542526 388.36021 179.542526 388.8 
C 179.542526 389.23979 179.717257 389.661626 180.028235 389.972604 
C 180.339213 390.283582 180.761049 390.458312 181.200839 390.458312 
z
" style="fill:#006837;fill-opacity:0.3;stroke:#000000;stroke-opacity:0.3;"/>
   </g>
   <g id="PathCollection_2">
    <path clip-path="url(#p6ef1205451)" d="M 403.42619 323.522447 
C 406.921945 323.522447 410.274994 322.133569 412.746866 319.661697 
C 415.218738 317.189825 416.607616 313.836776 416.607616 310.341021 
C 416.607616 306.845266 415.218738 303.492217 412.746866 301.020345 
C 410.274994 298.548473 406.921945 297.159594 403.42619 297.159594 
C 399.930435 297.159594 396.577386 298.548473 394.105514 301.020345 
C 391.633642 303.492217 390.244764 306.845266 390.244764 310.341021 
C 390.244764 313.836776 391.633642 317.189825 394.105514 319.661697 
C 396.577386 322.133569 399.930435 323.522447 403.42619 323.522447 
z
" style="fill:#6bbf64;fill-opacity:0.3;stroke:#000000;stroke-opacity:0.3;"/>
    <path clip-path="url(#p6ef1205451)" d="M 398.814666 157.327295 
C 400.989493 157.327295 403.075538 156.463227 404.613373 154.925392 
C 406.151208 153.387557 407.015276 151.301512 407.015276 149.126685 
C 407.015276 146.951858 406.151208 144.865814 404.613373 143.327979 
C 403.075538 141.790144 400.989493 140.926076 398.814666 140.926076 
C 396.639839 140.926076 394.553794 141.790144 393.015959 143.327979 
C 391.478124 144.865814 390.614056 146.951858 390.614056 149.126685 
C 390.614056 151.301512 391.478124 153.387557 393.015959 154.925392 
C 394.553794 156.463227 396.639839 157.327295 398.814666 157.327295 
z
" style="fill:#e0422f;fill-opacity:0.3;stroke:#000000;stroke-opacity:0.3;"/>
    <path clip-path="url(#p6ef1205451)" d="M 402.502866 289.70578 
C 404.607851 289.70578 406.626904 288.869461 408.115352 287.381013 
C 409.603801 285.892564 410.44012 283.873511 410.44012 281.768526 
C 410.44012 279.663542 409.603801 277.644489 408.115352 276.15604 
C 406.626904 274.667592 404.607851 273.831273 402.502866 273.831273 
C 400.397882 273.831273 398.378829 274.667592 396.89038 276.15604 
C 395.401931 277.644489 394.565612 279.663542 394.565612 281.768526 
C 394.565612 283.873511 395.401931 285.892564 396.89038 287.381013 
C 398.378829 288.869461 400.397882 289.70578 402.502866 289.70578 
z
" style="fill:#8ecf67;fill-opacity:0.3;stroke:#000000;stroke-opacity:0.3;"/>
    <path clip-path="url(#p6ef1205451)" d="M 408.79751 326.771994 
C 410.601087 326.771994 412.331036 326.055426 413.606356 324.780105 
C 414.881677 323.504784 415.598246 321.774835 415.598246 319.971259 
C 415.598246 318.167683 414.881677 316.437734 413.606356 315.162413 
C 412.331036 313.887092 410.601087 313.170524 408.79751 313.170524 
C 406.993934 313.170524 405.263985 313.887092 403.988664 315.162413 
C 402.713344 316.437734 401.996775 318.167683 401.996775 319.971259 
C 401.996775 321.774835 402.713344 323.504784 403.988664 324.780105 
C 405.263985 326.055426 406.993934 326.771994 408.79751 326.771994 
z
" style="fill:#48ae5c;fill-opacity:0.3;stroke:#000000;stroke-opacity:0.3;"/>
    <path clip-path="url(#p6ef1205451)" d="M 421.998814 333.639489 
C 423.304788 333.639489 424.557448 333.120621 425.480911 332.197158 
C 426.404374 331.273695 426.923243 330.021034 426.923243 328.715061 
C 426.923243 327.409087 426.404374 326.156426 425.480911 325.232963 
C 424.557448 324.309501 423.304788 323.790632 421.998814 323.790632 
C 420.69284 323.790632 419.44018 324.309501 418.516717 325.232963 
C 417.593254 326.156426 417.074385 327.409087 417.074385 328.715061 
C 417.074385 330.021034 417.593254 331.273695 418.516717 332.197158 
C 419.44018 333.120621 420.69284 333.639489 421.998814 333.639489 
z
" style="fill:#42ac5a;fill-opacity:0.3;stroke:#000000;stroke-opacity:0.3;"/>
    <path clip-path="url(#p6ef1205451)" d="M 413.56693 338.213147 
C 414.699878 338.213147 415.786576 337.763022 416.587691 336.961906 
C 417.388806 336.160791 417.838931 335.074093 417.838931 333.941145 
C 417.838931 332.808197 417.388806 331.721499 416.587691 330.920383 
C 415.786576 330.119268 414.699878 329.669143 413.56693 329.669143 
C 412.433981 329.669143 411.347283 330.119268 410.546168 330.920383 
C 409.745053 331.721499 409.294928 332.808197 409.294928 333.941145 
C 409.294928 335.074093 409.745053 336.160791 410.546168 336.961906 
C 411.347283 337.763022 412.433981 338.213147 413.56693 338.213147 
z
" style="fill:#2aa054;fill-opacity:0.3;stroke:#000000;stroke-opacity:0.3;"/>
    <path clip-path="url(#p6ef1205451)" d="M 409.961651 237.020998 
C 410.85117 237.020998 411.704375 236.667588 412.33336 236.038604 
C 412.962344 235.40962 413.315753 234.556414 413.315753 233.666896 
C 413.315753 232.777377 412.962344 231.924172 412.33336 231.295187 
C 411.704375 230.666203 410.85117 230.312794 409.961651 230.312794 
C 409.072133 230.312794 408.218927 230.666203 407.589943 231.295187 
C 406.960959 231.924172 406.607549 232.777377 406.607549 233.666896 
C 406.607549 234.556414 406.960959 235.40962 407.589943 236.038604 
C 408.218927 236.667588 409.072133 237.020998 409.961651 237.020998 
z
" style="fill:#fdbf6f;fill-opacity:0.3;stroke:#000000;stroke-opacity:0.3;"/>
    <path clip-path="url(#p6ef1205451)" d="M 413.100441 262.80541 
C 413.989959 262.80541 414.843165 262.452 415.472149 261.823016 
C 416.101134 261.194032 416.454543 260.340826 416.454543 259.451308 
C 416.454543 258.561789 416.101134 257.708584 415.472149 257.079599 
C 414.843165 256.450615 413.989959 256.097206 413.100441 256.097206 
C 412.210923 256.097206 411.357717 256.450615 410.728733 257.079599 
C 410.099749 257.708584 409.746339 258.561789 409.746339 259.451308 
C 409.746339 260.340826 410.099749 261.194032 410.728733 261.823016 
C 411.357717 262.452 412.210923 262.80541 413.100441 262.80541 
z
" style="fill:#d9ef8b;fill-opacity:0.3;stroke:#000000;stroke-opacity:0.3;"/>
    <path clip-path="url(#p6ef1205451)" d="M 411.6304 304.617881 
C 412.519918 304.617881 413.373124 304.264472 414.002108 303.635487 
C 414.631093 303.006503 414.984502 302.153297 414.984502 301.263779 
C 414.984502 300.374261 414.631093 299.521055 414.002108 298.892071 
C 413.373124 298.263086 412.519918 297.909677 411.6304 297.909677 
C 410.740882 297.909677 409.887676 298.263086 409.258692 298.892071 
C 408.629708 299.521055 408.276298 300.374261 408.276298 301.263779 
C 408.276298 302.153297 408.629708 303.006503 409.258692 303.635487 
C 409.887676 304.264472 410.740882 304.617881 411.6304 304.617881 
z
" style="fill:#66bd63;fill-opacity:0.3;stroke:#000000;stroke-opacity:0.3;"/>
    <path clip-path="url(#p6ef1205451)" d="M 404.990905 374.218254 
C 405.860431 374.218254 406.694461 373.872788 407.309309 373.25794 
C 407.924157 372.643091 408.269624 371.809061 408.269624 370.939535 
C 408.269624 370.070008 407.924157 369.235978 407.309309 368.62113 
C 406.694461 368.006282 405.860431 367.660816 404.990905 367.660816 
C 404.121378 367.660816 403.287348 368.006282 402.6725 368.62113 
C 402.057652 369.235978 401.712185 370.070008 401.712185 370.939535 
C 401.712185 371.809061 402.057652 372.643091 402.6725 373.25794 
C 403.287348 373.872788 404.121378 374.218254 404.990905 374.218254 
z
" style="fill:#6bbf64;fill-opacity:0.3;stroke:#000000;stroke-opacity:0.3;"/>
    <path clip-path="url(#p6ef1205451)" d="M 405.871542 320.975136 
C 406.730898 320.975136 407.555173 320.63371 408.16283 320.026054 
C 408.770487 319.418397 409.111912 318.594122 409.111912 317.734766 
C 409.111912 316.875409 408.770487 316.051135 408.16283 315.443478 
C 407.555173 314.835821 406.730898 314.494395 405.871542 314.494395 
C 405.012186 314.494395 404.187911 314.835821 403.580254 315.443478 
C 402.972598 316.051135 402.631172 316.875409 402.631172 317.734766 
C 402.631172 318.594122 402.972598 319.418397 403.580254 320.026054 
C 404.187911 320.63371 405.012186 320.975136 405.871542 320.975136 
z
" style="fill:#6ec064;fill-opacity:0.3;stroke:#000000;stroke-opacity:0.3;"/>
    <path clip-path="url(#p6ef1205451)" d="M 412.65382 208.398541 
C 413.492466 208.398541 414.296876 208.065343 414.889888 207.472331 
C 415.4829 206.879319 415.816097 206.074909 415.816097 205.236263 
C 415.816097 204.397617 415.4829 203.593207 414.889888 203.000195 
C 414.296876 202.407183 413.492466 202.073985 412.65382 202.073985 
C 411.815174 202.073985 411.010764 202.407183 410.417752 203.000195 
C 409.82474 203.593207 409.491542 204.397617 409.491542 205.236263 
C 409.491542 206.074909 409.82474 206.879319 410.417752 207.472331 
C 411.010764 208.065343 411.815174 208.398541 412.65382 208.398541 
z
" style="fill:#ecf7a6;fill-opacity:0.3;stroke:#000000;stroke-opacity:0.3;"/>
    <path clip-path="url(#p6ef1205451)" d="M 399.78553 391.841381 
C 400.592114 391.841381 401.36577 391.520922 401.936111 390.950581 
C 402.506452 390.38024 402.826911 389.606584 402.826911 388.8 
C 402.826911 387.993416 402.506452 387.21976 401.936111 386.649419 
C 401.36577 386.079078 400.592114 385.758619 399.78553 385.758619 
C 398.978946 385.758619 398.205289 386.079078 397.634949 386.649419 
C 397.064608 387.21976 396.744149 387.993416 396.744149 388.8 
C 396.744149 389.606584 397.064608 390.38024 397.634949 390.950581 
C 398.205289 391.520922 398.978946 391.841381 399.78553 391.841381 
z
" style="fill:#006837;fill-opacity:0.3;stroke:#000000;stroke-opacity:0.3;"/>
    <path clip-path="url(#p6ef1205451)" d="M 400.668656 391.8 
C 401.464265 391.8 402.227396 391.483901 402.789976 390.92132 
C 403.352557 390.35874 403.668656 389.595609 403.668656 388.8 
C 403.668656 388.004391 403.352557 387.24126 402.789976 386.67868 
C 402.227396 386.116099 401.464265 385.8 400.668656 385.8 
C 399.873047 385.8 399.109916 386.116099 398.547336 386.67868 
C 397.984755 387.24126 397.668656 388.004391 397.668656 388.8 
C 397.668656 389.595609 397.984755 390.35874 398.547336 390.92132 
C 399.109916 391.483901 399.873047 391.8 400.668656 391.8 
z
" style="fill:#006837;fill-opacity:0.3;stroke:#000000;stroke-opacity:0.3;"/>
    <path clip-path="url(#p6ef1205451)" d="M 409.460753 391.75804 
C 410.245234 391.75804 410.997691 391.446362 411.552403 390.89165 
C 412.107115 390.336938 412.418793 389.584481 412.418793 388.8 
C 412.418793 388.015519 412.107115 387.263062 411.552403 386.70835 
C 410.997691 386.153638 410.245234 385.84196 409.460753 385.84196 
C 408.676271 385.84196 407.923815 386.153638 407.369103 386.70835 
C 406.814391 387.263062 406.502713 388.015519 406.502713 388.8 
C 406.502713 389.584481 406.814391 390.336938 407.369103 390.89165 
C 407.923815 391.446362 408.676271 391.75804 409.460753 391.75804 
z
" style="fill:#006837;fill-opacity:0.3;stroke:#000000;stroke-opacity:0.3;"/>
    <path clip-path="url(#p6ef1205451)" d="M 400.715416 134.672375 
C 401.488609 134.672375 402.230239 134.365182 402.776969 133.818452 
C 403.323699 133.271722 403.630892 132.530092 403.630892 131.756899 
C 403.630892 130.983706 403.323699 130.242077 402.776969 129.695346 
C 402.230239 129.148616 401.488609 128.841423 400.715416 128.841423 
C 399.942223 128.841423 399.200594 129.148616 398.653863 129.695346 
C 398.107133 130.242077 397.79994 130.983706 397.79994 131.756899 
C 397.79994 132.530092 398.107133 133.271722 398.653863 133.818452 
C 399.200594 134.365182 399.942223 134.672375 400.715416 134.672375 
z
" style="fill:#b30d26;fill-opacity:0.3;stroke:#000000;stroke-opacity:0.3;"/>
    <path clip-path="url(#p6ef1205451)" d="M 412.25563 237.008415 
C 413.017368 237.008415 413.748009 236.705773 414.286639 236.167143 
C 414.825269 235.628513 415.127911 234.897871 415.127911 234.136133 
C 415.127911 233.374395 414.825269 232.643754 414.286639 232.105124 
C 413.748009 231.566494 413.017368 231.263852 412.25563 231.263852 
C 411.493892 231.263852 410.76325 231.566494 410.22462 232.105124 
C 409.68599 232.643754 409.383348 233.374395 409.383348 234.136133 
C 409.383348 234.897871 409.68599 235.628513 410.22462 236.167143 
C 410.76325 236.705773 411.493892 237.008415 412.25563 237.008415 
z
" style="fill:#fff1a8;fill-opacity:0.3;stroke:#000000;stroke-opacity:0.3;"/>
    <path clip-path="url(#p6ef1205451)" d="M 405.622954 391.672281 
C 406.384692 391.672281 407.115334 391.36964 407.653964 390.83101 
C 408.192594 390.29238 408.495235 389.561738 408.495235 388.8 
C 408.495235 388.038262 408.192594 387.30762 407.653964 386.76899 
C 407.115334 386.23036 406.384692 385.927719 405.622954 385.927719 
C 404.861216 385.927719 404.130574 386.23036 403.591944 386.76899 
C 403.053314 387.30762 402.750673 388.038262 402.750673 388.8 
C 402.750673 389.561738 403.053314 390.29238 403.591944 390.83101 
C 404.130574 391.36964 404.861216 391.672281 405.622954 391.672281 
z
" style="fill:#006837;fill-opacity:0.3;stroke:#000000;stroke-opacity:0.3;"/>
    <path clip-path="url(#p6ef1205451)" d="M 401.758004 391.583882 
C 402.496298 391.583882 403.204453 391.290555 403.726506 390.768502 
C 404.248559 390.246449 404.541886 389.538294 404.541886 388.8 
C 404.541886 388.061706 404.248559 387.353551 403.726506 386.831498 
C 403.204453 386.309445 402.496298 386.016118 401.758004 386.016118 
C 401.01971 386.016118 400.311555 386.309445 399.789502 386.831498 
C 399.267449 387.353551 398.974122 388.061706 398.974122 388.8 
C 398.974122 389.538294 399.267449 390.246449 399.789502 390.768502 
C 400.311555 391.290555 401.01971 391.583882 401.758004 391.583882 
z
" style="fill:#18954f;fill-opacity:0.3;stroke:#000000;stroke-opacity:0.3;"/>
    <path clip-path="url(#p6ef1205451)" d="M 403.739541 196.953753 
C 404.453622 196.953753 405.138553 196.670046 405.643484 196.165114 
C 406.148416 195.660182 406.432123 194.975252 406.432123 194.261171 
C 406.432123 193.54709 406.148416 192.862159 405.643484 192.357227 
C 405.138553 191.852296 404.453622 191.568588 403.739541 191.568588 
C 403.02546 191.568588 402.340529 191.852296 401.835598 192.357227 
C 401.330666 192.862159 401.046959 193.54709 401.046959 194.261171 
C 401.046959 194.975252 401.330666 195.660182 401.835598 196.165114 
C 402.340529 196.670046 403.02546 196.953753 403.739541 196.953753 
z
" style="fill:#fffab6;fill-opacity:0.3;stroke:#000000;stroke-opacity:0.3;"/>
    <path clip-path="url(#p6ef1205451)" d="M 398.854825 231.5721 
C 399.556486 231.5721 400.229504 231.293327 400.725654 230.797177 
C 401.221803 230.301028 401.500576 229.62801 401.500576 228.926348 
C 401.500576 228.224687 401.221803 227.551669 400.725654 227.05552 
C 400.229504 226.55937 399.556486 226.280597 398.854825 226.280597 
C 398.153163 226.280597 397.480146 226.55937 396.983996 227.05552 
C 396.487847 227.551669 396.209074 228.224687 396.209074 228.926348 
C 396.209074 229.62801 396.487847 230.301028 396.983996 230.797177 
C 397.480146 231.293327 398.153163 231.5721 398.854825 231.5721 
z
" style="fill:#e3f399;fill-opacity:0.3;stroke:#000000;stroke-opacity:0.3;"/>
    <path clip-path="url(#p6ef1205451)" d="M 405.607029 266.033807 
C 406.283167 266.033807 406.931703 265.765175 407.409804 265.287073 
C 407.887906 264.808971 408.156539 264.160435 408.156539 263.484298 
C 408.156539 262.80816 407.887906 262.159624 407.409804 261.681522 
C 406.931703 261.20342 406.283167 260.934788 405.607029 260.934788 
C 404.930891 260.934788 404.282355 261.20342 403.804253 261.681522 
C 403.326151 262.159624 403.057519 262.80816 403.057519 263.484298 
C 403.057519 264.160435 403.326151 264.808971 403.804253 265.287073 
C 404.282355 265.765175 404.930891 266.033807 405.607029 266.033807 
z
" style="fill:#f1f9ac;fill-opacity:0.3;stroke:#000000;stroke-opacity:0.3;"/>
    <path clip-path="url(#p6ef1205451)" d="M 413.445146 362.44949 
C 414.094758 362.44949 414.717851 362.191396 415.177196 361.732051 
C 415.636542 361.272706 415.894635 360.649612 415.894635 360 
C 415.894635 359.350388 415.636542 358.727294 415.177196 358.267949 
C 414.717851 357.808604 414.094758 357.55051 413.445146 357.55051 
C 412.795533 357.55051 412.17244 357.808604 411.713095 358.267949 
C 411.25375 358.727294 410.995656 359.350388 410.995656 360 
C 410.995656 360.649612 411.25375 361.272706 411.713095 361.732051 
C 412.17244 362.191396 412.795533 362.44949 413.445146 362.44949 
z
" style="fill:#2aa054;fill-opacity:0.3;stroke:#000000;stroke-opacity:0.3;"/>
    <path clip-path="url(#p6ef1205451)" d="M 409.948353 391.197916 
C 410.584288 391.197916 411.194262 390.945256 411.643936 390.495582 
C 412.093609 390.045909 412.346269 389.435935 412.346269 388.8 
C 412.346269 388.164065 412.093609 387.554091 411.643936 387.104418 
C 411.194262 386.654744 410.584288 386.402084 409.948353 386.402084 
C 409.312418 386.402084 408.702444 386.654744 408.252771 387.104418 
C 407.803097 387.554091 407.550437 388.164065 407.550437 388.8 
C 407.550437 389.435935 407.803097 390.045909 408.252771 390.495582 
C 408.702444 390.945256 409.312418 391.197916 409.948353 391.197916 
z
" style="fill:#30a356;fill-opacity:0.3;stroke:#000000;stroke-opacity:0.3;"/>
    <path clip-path="url(#p6ef1205451)" d="M 412.032109 338.606611 
C 412.668044 338.606611 413.278018 338.353952 413.727691 337.904278 
C 414.177365 337.454604 414.430025 336.84463 414.430025 336.208696 
C 414.430025 335.572761 414.177365 334.962787 413.727691 334.513113 
C 413.278018 334.063439 412.668044 333.81078 412.032109 333.81078 
C 411.396174 333.81078 410.7862 334.063439 410.336526 334.513113 
C 409.886853 334.962787 409.634193 335.572761 409.634193 336.208696 
C 409.634193 336.84463 409.886853 337.454604 410.336526 337.904278 
C 410.7862 338.353952 411.396174 338.606611 412.032109 338.606611 
z
" style="fill:#30a356;fill-opacity:0.3;stroke:#000000;stroke-opacity:0.3;"/>
    <path clip-path="url(#p6ef1205451)" d="M 410.579915 144.2506 
C 411.201871 144.2506 411.798438 144.003494 412.238227 143.563704 
C 412.678017 143.123915 412.925123 142.527348 412.925123 141.905392 
C 412.925123 141.283435 412.678017 140.686869 412.238227 140.247079 
C 411.798438 139.80729 411.201871 139.560184 410.579915 139.560184 
C 409.957959 139.560184 409.361392 139.80729 408.921603 140.247079 
C 408.481813 140.686869 408.234707 141.283435 408.234707 141.905392 
C 408.234707 142.527348 408.481813 143.123915 408.921603 143.563704 
C 409.361392 144.003494 409.957959 144.2506 410.579915 144.2506 
z
" style="fill:#fdb768;fill-opacity:0.3;stroke:#000000;stroke-opacity:0.3;"/>
    <path clip-path="url(#p6ef1205451)" d="M 398.629436 270.600502 
C 399.207433 270.600502 399.761834 270.370862 400.17054 269.962156 
C 400.579245 269.553451 400.808886 268.999049 400.808886 268.421053 
C 400.808886 267.843056 400.579245 267.288655 400.17054 266.879949 
C 399.761834 266.471244 399.207433 266.241603 398.629436 266.241603 
C 398.051439 266.241603 397.497038 266.471244 397.088333 266.879949 
C 396.679627 267.288655 396.449987 267.843056 396.449987 268.421053 
C 396.449987 268.999049 396.679627 269.553451 397.088333 269.962156 
C 397.497038 270.370862 398.051439 270.600502 398.629436 270.600502 
z
" style="fill:#addc6f;fill-opacity:0.3;stroke:#000000;stroke-opacity:0.3;"/>
    <path clip-path="url(#p6ef1205451)" d="M 412.426943 390.979449 
C 413.00494 390.979449 413.559341 390.749809 413.968047 390.341104 
C 414.376752 389.932398 414.606393 389.377997 414.606393 388.8 
C 414.606393 388.222003 414.376752 387.667602 413.968047 387.258896 
C 413.559341 386.850191 413.00494 386.620551 412.426943 386.620551 
C 411.848946 386.620551 411.294545 386.850191 410.88584 387.258896 
C 410.477134 387.667602 410.247494 388.222003 410.247494 388.8 
C 410.247494 389.377997 410.477134 389.932398 410.88584 390.341104 
C 411.294545 390.749809 411.848946 390.979449 412.426943 390.979449 
z
" style="fill:#006837;fill-opacity:0.3;stroke:#000000;stroke-opacity:0.3;"/>
    <path clip-path="url(#p6ef1205451)" d="M 405.89017 390.92132 
C 406.452751 390.92132 406.992365 390.697805 407.39017 390.3 
C 407.787975 389.902195 408.01149 389.362581 408.01149 388.8 
C 408.01149 388.237419 407.787975 387.697805 407.39017 387.3 
C 406.992365 386.902195 406.452751 386.67868 405.89017 386.67868 
C 405.327589 386.67868 404.787975 386.902195 404.39017 387.3 
C 403.992365 387.697805 403.76885 388.237419 403.76885 388.8 
C 403.76885 389.362581 403.992365 389.902195 404.39017 390.3 
C 404.787975 390.697805 405.327589 390.92132 405.89017 390.92132 
z
" style="fill:#006837;fill-opacity:0.3;stroke:#000000;stroke-opacity:0.3;"/>
    <path clip-path="url(#p6ef1205451)" d="M 397.942273 390.861553 
C 398.489004 390.861553 399.013415 390.644335 399.400011 390.257738 
C 399.786608 389.871141 400.003826 389.34673 400.003826 388.8 
C 400.003826 388.25327 399.786608 387.728859 399.400011 387.342262 
C 399.013415 386.955665 398.489004 386.738447 397.942273 386.738447 
C 397.395543 386.738447 396.871132 386.955665 396.484535 387.342262 
C 396.097939 387.728859 395.880721 388.25327 395.880721 388.8 
C 395.880721 389.34673 396.097939 389.871141 396.484535 390.257738 
C 396.871132 390.644335 397.395543 390.861553 397.942273 390.861553 
z
" style="fill:#006837;fill-opacity:0.3;stroke:#000000;stroke-opacity:0.3;"/>
    <path clip-path="url(#p6ef1205451)" d="M 399.465797 390.670829 
C 399.961947 390.670829 400.437842 390.473706 400.788673 390.122876 
C 401.139503 389.772045 401.336626 389.29615 401.336626 388.8 
C 401.336626 388.30385 401.139503 387.827955 400.788673 387.477124 
C 400.437842 387.126294 399.961947 386.929171 399.465797 386.929171 
C 398.969648 386.929171 398.493752 387.126294 398.142921 387.477124 
C 397.792091 387.827955 397.594968 388.30385 397.594968 388.8 
C 397.594968 389.29615 397.792091 389.772045 398.142921 390.122876 
C 398.493752 390.473706 398.969648 390.670829 399.465797 390.670829 
z
" style="fill:#006837;fill-opacity:0.3;stroke:#000000;stroke-opacity:0.3;"/>
    <path clip-path="url(#p6ef1205451)" d="M 409.031267 154.04494 
C 409.490612 154.04494 409.931206 153.86244 410.256012 153.537634 
C 410.580818 153.212828 410.763318 152.772234 410.763318 152.312889 
C 410.763318 151.853544 410.580818 151.41295 410.256012 151.088144 
C 409.931206 150.763338 409.490612 150.580838 409.031267 150.580838 
C 408.571922 150.580838 408.131328 150.763338 407.806522 151.088144 
C 407.481716 151.41295 407.299216 151.853544 407.299216 152.312889 
C 407.299216 152.772234 407.481716 153.212828 407.806522 153.537634 
C 408.131328 153.86244 408.571922 154.04494 409.031267 154.04494 
z
" style="fill:#a50026;fill-opacity:0.3;stroke:#000000;stroke-opacity:0.3;"/>
    <path clip-path="url(#p6ef1205451)" d="M 405.612759 390.532051 
C 406.072104 390.532051 406.512698 390.349551 406.837504 390.024745 
C 407.16231 389.699939 407.34481 389.259345 407.34481 388.8 
C 407.34481 388.340655 407.16231 387.900061 406.837504 387.575255 
C 406.512698 387.250449 406.072104 387.067949 405.612759 387.067949 
C 405.153414 387.067949 404.71282 387.250449 404.388014 387.575255 
C 404.063208 387.900061 403.880708 388.340655 403.880708 388.8 
C 403.880708 389.259345 404.063208 389.699939 404.388014 390.024745 
C 404.71282 390.349551 405.153414 390.532051 405.612759 390.532051 
z
" style="fill:#006837;fill-opacity:0.3;stroke:#000000;stroke-opacity:0.3;"/>
    <path clip-path="url(#p6ef1205451)" d="M 403.201998 390.458312 
C 403.641787 390.458312 404.063623 390.283582 404.374602 389.972604 
C 404.68558 389.661626 404.86031 389.23979 404.86031 388.8 
C 404.86031 388.36021 404.68558 387.938374 404.374602 387.627396 
C 404.063623 387.316418 403.641787 387.141688 403.201998 387.141688 
C 402.762208 387.141688 402.340372 387.316418 402.029394 387.627396 
C 401.718416 387.938374 401.543685 388.36021 401.543685 388.8 
C 401.543685 389.23979 401.718416 389.661626 402.029394 389.972604 
C 402.340372 390.283582 402.762208 390.458312 403.201998 390.458312 
z
" style="fill:#006837;fill-opacity:0.3;stroke:#000000;stroke-opacity:0.3;"/>
   </g>
   <g id="line2d_1">
    <path clip-path="url(#p6ef1205451)" d="M 166.86 388.8 
L 200.34 388.8 
L 200.34 214.289633 
L 166.86 214.289633 
L 166.86 388.8 
" style="fill:none;stroke:#0000ff;stroke-linecap:square;"/>
   </g>
   <g id="line2d_2">
    <path clip-path="url(#p6ef1205451)" d="M 183.6 388.8 
L 183.6 388.8 
" style="fill:none;stroke:#0000ff;stroke-dasharray:6.000000,6.000000;stroke-dashoffset:0.0;"/>
   </g>
   <g id="line2d_3">
    <path clip-path="url(#p6ef1205451)" d="M 183.6 214.289633 
L 183.6 81.6 
" style="fill:none;stroke:#0000ff;stroke-dasharray:6.000000,6.000000;stroke-dashoffset:0.0;"/>
   </g>
   <g id="line2d_4">
    <path clip-path="url(#p6ef1205451)" d="M 175.23 388.8 
L 191.97 388.8 
" style="fill:none;stroke:#000000;stroke-linecap:square;"/>
   </g>
   <g id="line2d_5">
    <path clip-path="url(#p6ef1205451)" d="M 175.23 81.6 
L 191.97 81.6 
" style="fill:none;stroke:#000000;stroke-linecap:square;"/>
   </g>
   <g id="line2d_6">
    <path clip-path="url(#p6ef1205451)" d="M 166.86 310.449414 
L 200.34 310.449414 
" style="fill:none;stroke:#ff0000;stroke-linecap:square;"/>
   </g>
   <g id="line2d_7"/>
   <g id="line2d_8">
    <path clip-path="url(#p6ef1205451)" d="M 390.06 388.8 
L 423.54 388.8 
L 423.54 240.464927 
L 390.06 240.464927 
L 390.06 388.8 
" style="fill:none;stroke:#0000ff;stroke-linecap:square;"/>
   </g>
   <g id="line2d_9">
    <path clip-path="url(#p6ef1205451)" d="M 406.8 388.8 
L 406.8 388.8 
" style="fill:none;stroke:#0000ff;stroke-dasharray:6.000000,6.000000;stroke-dashoffset:0.0;"/>
   </g>
   <g id="line2d_10">
    <path clip-path="url(#p6ef1205451)" d="M 406.8 240.464927 
L 406.8 131.756899 
" style="fill:none;stroke:#0000ff;stroke-dasharray:6.000000,6.000000;stroke-dashoffset:0.0;"/>
   </g>
   <g id="line2d_11">
    <path clip-path="url(#p6ef1205451)" d="M 398.43 388.8 
L 415.17 388.8 
" style="fill:none;stroke:#000000;stroke-linecap:square;"/>
   </g>
   <g id="line2d_12">
    <path clip-path="url(#p6ef1205451)" d="M 398.43 131.756899 
L 415.17 131.756899 
" style="fill:none;stroke:#000000;stroke-linecap:square;"/>
   </g>
   <g id="line2d_13">
    <path clip-path="url(#p6ef1205451)" d="M 390.06 324.34316 
L 423.54 324.34316 
" style="fill:none;stroke:#ff0000;stroke-linecap:square;"/>
   </g>
   <g id="line2d_14"/>
   <g id="patch_3">
    <path d="M 72 388.8 
L 72 43.2 
" style="fill:none;stroke:#000000;stroke-linecap:square;stroke-linejoin:miter;"/>
   </g>
   <g id="patch_4">
    <path d="M 72 388.8 
L 518.4 388.8 
" style="fill:none;stroke:#000000;stroke-linecap:square;stroke-linejoin:miter;"/>
   </g>
   <g id="patch_5">
    <path d="M 518.4 388.8 
L 518.4 43.2 
" style="fill:none;stroke:#000000;stroke-linecap:square;stroke-linejoin:miter;"/>
   </g>
   <g id="patch_6">
    <path d="M 72 43.2 
L 518.4 43.2 
" style="fill:none;stroke:#000000;stroke-linecap:square;stroke-linejoin:miter;"/>
   </g>
   <g id="matplotlib.axis_1">
    <g id="xtick_1">
     <g id="line2d_15">
      <defs>
       <path d="M 0 0 
L 0 -4 
" id="me5f79949af" style="stroke:#000000;stroke-width:0.5;"/>
      </defs>
      <g>
       <use style="stroke:#000000;stroke-width:0.5;" x="183.6" xlink:href="#me5f79949af" y="388.8"/>
      </g>
     </g>
     <g id="line2d_16">
      <defs>
       <path d="M 0 0 
L 0 4 
" id="m40671d66f3" style="stroke:#000000;stroke-width:0.5;"/>
      </defs>
      <g>
       <use style="stroke:#000000;stroke-width:0.5;" x="183.6" xlink:href="#m40671d66f3" y="43.2"/>
      </g>
     </g>
     <g id="text_1">
      <!-- Survival Rate -->
      <defs>
       <path d="M 24.59375 35 
L 30.40625 35 
C 34.296875 35 38.296875 33.796875 40.5 31.984375 
C 43.40625 29.6875 44.90625 26.078125 45.59375 19.46875 
L 46.09375 14.34375 
C 47.296875 3.015625 51 -1.59375 58.90625 -1.59375 
C 67.09375 -1.59375 71 3.921875 71.296875 15.921875 
L 67.09375 15.921875 
C 66.703125 9 65.5 6 62.796875 6 
C 60.5 6 59.5 7.703125 57.796875 14.625 
L 56.203125 20.9375 
C 54 30.171875 50.09375 34.375 42.296875 36.390625 
C 56.703125 38.390625 63.59375 44.140625 63.59375 54.1875 
C 63.59375 65.53125 54 72 37.203125 72 
L 2.59375 72 
L 2.59375 67.3125 
L 4.40625 67.3125 
C 12.5 67.3125 13.40625 66.8125 13.40625 62.609375 
L 13.40625 59.71875 
L 13.40625 12.171875 
L 13.40625 9.375 
C 13.40625 5.1875 12.5 4.6875 4.40625 4.6875 
L 2.59375 4.6875 
L 2.59375 0 
L 35.40625 0 
L 35.40625 4.6875 
L 33.59375 4.6875 
C 25.5 4.6875 24.59375 5.1875 24.59375 9.390625 
L 24.59375 12.1875 
z
M 24.59375 39.6875 
L 24.59375 61.546875 
C 24.59375 65.53125 24.703125 65.8125 25.703125 66.609375 
C 26.5 67.203125 27.203125 67.3125 31.5 67.3125 
L 36.90625 67.3125 
C 46.796875 67.3125 51.296875 63.125 51.296875 54.09375 
C 51.296875 49.015625 50 45.140625 47.40625 43.0625 
C 44.90625 40.984375 40.40625 39.6875 35.59375 39.6875 
z
" id="Century_Schoolbook_L_Roman-82"/>
       <path d="M 54.59375 72 
L 50.90625 72 
L 46.90625 66.09375 
C 42.203125 70.59375 35.796875 73 28.703125 73 
C 15.59375 73 6.796875 64.609375 6.796875 52.15625 
C 6.796875 41.28125 12.203125 35.890625 26.90625 32.109375 
L 36.40625 29.703125 
C 43.796875 27.828125 44.5 27.625 46.59375 26.03125 
C 49.59375 23.734375 51.203125 20.4375 51.203125 16.546875 
C 51.203125 12.5625 49.703125 9.28125 46.703125 6.59375 
C 43.40625 3.6875 40.09375 2.59375 34.59375 2.59375 
C 27.203125 2.59375 21.90625 4.875 17.203125 10.03125 
C 13 14.703125 10.90625 19.375 9.40625 27 
L 5.09375 27 
L 5.5 -1.4375 
L 9.40625 -1.4375 
L 13.90625 5.46875 
C 20.59375 0 26.203125 -2 34.90625 -2 
C 49.59375 -2 59 6.59375 59 19.9375 
C 59 26.109375 56.90625 31.40625 53 35.203125 
C 50.296875 37.796875 46.40625 39.484375 38.40625 41.484375 
L 27.703125 44.171875 
C 18.796875 46.46875 14.59375 50.359375 14.59375 56.4375 
C 14.59375 63.40625 20.296875 68.203125 28.796875 68.203125 
C 35.796875 68.203125 41.5 65.1875 45.5 59.484375 
C 48.40625 55.375 50.203125 51.15625 51.5 46.046875 
L 55.796875 46.046875 
z
" id="Century_Schoolbook_L_Roman-83"/>
       <path d="M 29.5 12.09375 
L 18.09375 38.59375 
C 17.796875 39.203125 17.59375 40.09375 17.59375 40.703125 
C 17.59375 42.390625 18.90625 43 23 43 
L 24.40625 43 
L 24.40625 46.59375 
L 0.796875 46.59375 
L 0.796875 43 
L 1.59375 43 
C 5.40625 43 6.796875 42.09375 8.203125 38.703125 
L 25.40625 -1.5 
L 28.90625 -1.5 
L 43.09375 33.59375 
C 45.796875 40.203125 48.59375 43 52.40625 43 
L 52.796875 43 
L 52.796875 46.59375 
L 32.796875 46.59375 
L 32.796875 43 
L 34.203125 43 
C 37.703125 43 39.59375 41.796875 39.59375 39.5 
C 39.59375 38.390625 39.203125 36.796875 38.703125 35.296875 
z
" id="Century_Schoolbook_L_Roman-118"/>
       <path d="M 20.40625 73 
L 1.90625 73 
L 1.90625 68.21875 
L 6.796875 68.21875 
C 10.40625 68.21875 11 67.515625 11 63.21875 
L 11 12.28125 
L 11 8.28125 
C 11 4.296875 9.90625 3.59375 3.5 3.59375 
L 2.796875 3.59375 
L 2.796875 0 
L 28.703125 0 
L 28.703125 3.59375 
L 28 3.59375 
C 21.5 3.59375 20.40625 4.296875 20.40625 8.25 
L 20.40625 12.21875 
z
" id="Century_Schoolbook_L_Roman-108"/>
       <path d="M 45.203125 32.578125 
C 45.203125 38.796875 44.09375 41.96875 41.203125 44.34375 
C 37.90625 46.90625 33 48.28125 26.59375 48.28125 
C 15.40625 48.28125 7.09375 43.046875 7.09375 35.921875 
C 7.09375 32.15625 9.40625 29.78125 12.90625 29.78125 
C 16 29.78125 18.296875 31.859375 18.296875 34.8125 
C 18.296875 36.109375 17.796875 37.484375 16.796875 38.875 
C 16.203125 39.546875 16.09375 39.84375 16.09375 40.15625 
C 16.09375 42.21875 20.203125 44 25 44 
C 28.09375 44 31.59375 43.015625 33.203125 41.53125 
C 35.09375 39.953125 35.796875 37.578125 35.796875 33.125 
L 35.796875 29.28125 
C 25.296875 27.484375 22.09375 26.6875 17.203125 24.8125 
C 8.59375 21.609375 4.40625 16.9375 4.40625 10.65625 
C 4.40625 3.578125 10.09375 -1 18.90625 -1 
C 25.796875 -1 32 1.859375 36.296875 7.0625 
C 37.90625 1.984375 40.40625 0 45.09375 0 
C 49.59375 0 54.296875 2.90625 54.296875 5.78125 
C 54.296875 6.46875 53.796875 6.96875 53.296875 6.96875 
C 52.90625 6.96875 52.5 6.875 51.796875 6.578125 
C 50.203125 6 49.796875 5.890625 49 5.890625 
C 46.203125 5.890625 45.203125 7.78125 45.203125 12.71875 
z
M 35.796875 20.46875 
C 35.796875 14.46875 35.5 13.078125 33.796875 10.484375 
C 31.296875 6.78125 26.703125 4.296875 22.40625 4.296875 
C 17.90625 4.296875 14.5 7.59375 14.5 12.078125 
C 14.5 16.265625 16.59375 19.265625 21 21.359375 
C 24.09375 22.75 28 23.75 35.796875 25.046875 
z
" id="Century_Schoolbook_L_Roman-97"/>
       <path d="M 20.59375 46 
L 1.796875 46 
L 1.796875 41.21875 
L 6.90625 41.21875 
C 10.59375 41.21875 11.203125 40.515625 11.203125 36.203125 
L 11.203125 12.296875 
L 11.203125 8.296875 
C 11.203125 4.296875 10.09375 3.59375 3.703125 3.59375 
L 3 3.59375 
L 3 0 
L 28.90625 0 
L 28.90625 3.59375 
L 28.203125 3.59375 
C 21.703125 3.59375 20.59375 4.28125 20.59375 8.21875 
L 20.59375 12.171875 
z
M 15.90625 71.578125 
C 12.703125 71.578125 10.09375 68.984375 10.09375 65.796875 
C 10.09375 62.703125 12.703125 60 15.796875 60 
C 19.09375 60 21.703125 62.59375 21.703125 65.796875 
C 21.703125 68.984375 19.09375 71.578125 15.90625 71.578125 
" id="Century_Schoolbook_L_Roman-105"/>
       <path d="M 46.5 23 
C 46.59375 37.8125 38.09375 48.28125 25.90625 48.28125 
C 13.09375 48.28125 3.5 37.25 3.5 22.34375 
C 3.5 8.4375 12.59375 -1 26.09375 -1 
C 35.59375 -1 42.40625 3.6875 46.5 13.1875 
L 43 15.09375 
C 38.90625 7.390625 34.703125 4.390625 28 4.390625 
C 22.90625 4.390625 19.203125 6.59375 16.59375 11 
C 14.796875 14 14 17.5 14.09375 23 
z
M 14.203125 27.296875 
C 14.203125 30.34375 14.59375 32.5 15.59375 35.25 
C 17.703125 41.140625 20.90625 44 25.703125 44 
C 31.796875 44 35.796875 38.78125 35.796875 30.921875 
C 35.796875 28.078125 34.90625 27.296875 31.703125 27.296875 
z
" id="Century_Schoolbook_L_Roman-101"/>
       <path d="M 41.203125 0 
L 59.40625 0 
L 59.40625 4.703125 
L 56.90625 4.703125 
C 51.40625 4.703125 50.59375 5.59375 50.59375 11.953125 
L 50.59375 46.78125 
L 31.796875 46.78125 
L 31.796875 42 
L 36.90625 42 
C 40.59375 42 41.203125 41.296875 41.203125 36.953125 
L 41.203125 24.5625 
C 41.203125 18.8125 40.59375 15.484375 39.09375 12.15625 
C 37 7.71875 33 5.09375 28.09375 5.09375 
C 25 5.09375 22.40625 6.1875 21.09375 8.171875 
C 19.796875 10.046875 19.59375 11.046875 19.59375 16.5 
L 19.59375 46.78125 
L 2.09375 46.78125 
L 2.09375 42 
L 5.90625 42 
C 9.59375 42 10.203125 41.296875 10.203125 36.953125 
L 10.203125 15.21875 
C 10.203125 10.078125 10.59375 7.765625 12.09375 5.453125 
C 14.796875 1.3125 19.59375 -1 25.59375 -1 
C 32.203125 -1 36.796875 1.71875 41.203125 8.125 
z
" id="Century_Schoolbook_L_Roman-117"/>
       <path d="M 19.40625 47 
L 19.40625 67 
L 15.296875 67 
C 14.296875 53.875 9.90625 47.1875 1.796875 46.59375 
L 1.796875 42.703125 
L 10 42.703125 
L 10 17.265625 
C 10 10.28125 10.203125 7.78125 11.203125 5.484375 
C 12.796875 1.296875 16.796875 -1 22.59375 -1 
C 26.5 -1 29.90625 0.203125 32.203125 2.390625 
C 35.5 5.59375 37.40625 10.875 37.40625 16.375 
C 37.40625 16.96875 37.40625 17.671875 37.296875 18.671875 
L 33.09375 18.671875 
C 32.796875 9.6875 30.203125 5.09375 25.296875 5.09375 
C 23 5.09375 21 6.28125 20.296875 7.984375 
C 19.703125 9.375 19.40625 11.875 19.40625 15.46875 
L 19.40625 42.703125 
L 34.09375 42.703125 
L 34.09375 47 
z
" id="Century_Schoolbook_L_Roman-116"/>
       <path d="M 19.796875 46 
L 2.09375 46 
L 2.09375 41.21875 
L 6.203125 41.21875 
C 9.90625 41.21875 10.5 40.515625 10.5 36.203125 
L 10.5 12.296875 
L 10.5 8.296875 
C 10.5 4.296875 9.40625 3.59375 2.90625 3.59375 
L 2.5 3.59375 
L 2.5 0 
L 29.203125 0 
L 29.203125 3.59375 
L 27.296875 3.59375 
C 20.90625 3.59375 19.796875 4.296875 19.796875 8.296875 
L 19.796875 12.296875 
L 19.796875 13.296875 
C 19.796875 20.8125 21.203125 28.40625 23.703125 34.109375 
C 26.09375 39.703125 29.5 42.8125 33.703125 43.3125 
C 32.296875 41.703125 31.90625 40.6875 31.90625 38.765625 
C 31.90625 35.546875 34.203125 33.234375 37.40625 33.234375 
C 41 33.234375 43.5 35.9375 43.5 40.015625 
C 43.5 44.8125 40.09375 48 34.796875 48 
C 28.5 48 23 42.921875 19.796875 34.140625 
z
" id="Century_Schoolbook_L_Roman-114"/>
      </defs>
      <g transform="translate(145.403682358 401.670650466)scale(0.12 -0.12)">
       <use transform="scale(0.9962640099626402)" xlink:href="#Century_Schoolbook_L_Roman-83"/>
       <use transform="translate(62.763978951004056 0.0)scale(0.9962640099626402)" xlink:href="#Century_Schoolbook_L_Roman-117"/>
       <use transform="translate(123.63560962795768 0.0)scale(0.9962640099626402)" xlink:href="#Century_Schoolbook_L_Roman-114"/>
       <use transform="translate(167.8691783254203 0.0)scale(0.9962640099626402)" xlink:href="#Century_Schoolbook_L_Roman-118"/>
       <use transform="translate(221.36852221649286 0.0)scale(0.9962640099626402)" xlink:href="#Century_Schoolbook_L_Roman-105"/>
       <use transform="translate(252.74983521267905 0.0)scale(0.9962640099626402)" xlink:href="#Century_Schoolbook_L_Roman-118"/>
       <use transform="translate(306.2491791037516 0.0)scale(0.9962640099626402)" xlink:href="#Century_Schoolbook_L_Roman-97"/>
       <use transform="translate(361.6408560670922 0.0)scale(0.9962640099626402)" xlink:href="#Century_Schoolbook_L_Roman-108"/>
       <use transform="translate(420.71733866652403 0.0)scale(0.9962640099626402)" xlink:href="#Century_Schoolbook_L_Roman-82"/>
       <use transform="translate(492.64732351338733 0.0)scale(0.9962640099626402)" xlink:href="#Century_Schoolbook_L_Roman-97"/>
       <use transform="translate(548.0390004767279 0.0)scale(0.9962640099626402)" xlink:href="#Century_Schoolbook_L_Roman-116"/>
       <use transform="translate(586.7927066712718 0.0)scale(0.9962640099626402)" xlink:href="#Century_Schoolbook_L_Roman-101"/>
      </g>
     </g>
    </g>
    <g id="xtick_2">
     <g id="line2d_17">
      <g>
       <use style="stroke:#000000;stroke-width:0.5;" x="406.8" xlink:href="#me5f79949af" y="388.8"/>
      </g>
     </g>
     <g id="line2d_18">
      <g>
       <use style="stroke:#000000;stroke-width:0.5;" x="406.8" xlink:href="#m40671d66f3" y="43.2"/>
      </g>
     </g>
     <g id="text_2">
      <!-- Kaplan-Meier -->
      <defs>
       <path d="M 28.703125 72 
L 2.90625 72 
L 2.90625 67.3125 
L 4.796875 67.3125 
C 12.90625 67.3125 13.796875 66.8125 13.796875 62.59375 
L 13.796875 59.703125 
L 13.796875 21.390625 
C 13.796875 7.78125 11.796875 4.890625 2.203125 4.890625 
L 2.203125 0 
L 30.703125 0 
L 30.703125 4.890625 
C 21.203125 4.890625 19.203125 7.78125 19.203125 21.40625 
L 19.203125 65.625 
L 43 0 
L 47 0 
L 69.296875 65.625 
L 69.296875 12.453125 
L 69.296875 9.5625 
C 69.296875 5.296875 68.40625 4.890625 60.296875 4.890625 
L 58.5 4.890625 
L 58.5 0 
L 91.296875 0 
L 91.296875 4.890625 
L 89.5 4.890625 
C 81.40625 4.890625 80.5 5.296875 80.5 9.5625 
L 80.5 12.453125 
L 80.5 59.75 
L 80.5 62.625 
C 80.5 66.8125 81.40625 67.3125 89.5 67.3125 
L 91.296875 67.3125 
L 91.296875 72 
L 66.203125 72 
L 47.90625 18.84375 
z
" id="Century_Schoolbook_L_Roman-77"/>
       <path d="M 20.09375 46 
L 2.796875 46 
L 2.796875 41.21875 
L 6.40625 41.21875 
C 10.09375 41.21875 10.703125 40.515625 10.703125 36.21875 
L 10.703125 -7.75 
L 10.703125 -11.71875 
C 10.703125 -15.71875 9.59375 -16.40625 3.203125 -16.40625 
L 2.796875 -16.40625 
L 2.796875 -20 
L 28.796875 -20 
L 28.796875 -16.40625 
L 27.703125 -16.40625 
C 21.203125 -16.40625 20.09375 -15.71875 20.09375 -11.734375 
L 20.09375 -7.75 
L 20.09375 6.6875 
C 23.40625 0.90625 27.203125 -1.390625 33.296875 -1.390625 
C 44.90625 -1.390625 53.5 9.265625 53.5 23.5 
C 53.5 37.265625 44.90625 48 33.90625 48 
C 27.703125 48 23.59375 45.4375 20.09375 39.515625 
z
M 32.09375 42.609375 
C 39 42.609375 43 35.75 43 24.09375 
C 43 11.265625 38.90625 4 31.796875 4 
C 24.703125 4 20 11.375 20 22.8125 
C 20 35.140625 24.5 42.609375 32.09375 42.609375 
" id="Century_Schoolbook_L_Roman-112"/>
       <path d="M 25 32.609375 
L 25 59.71875 
L 25 62.609375 
C 25 66.8125 25.90625 67.3125 34 67.3125 
L 35.90625 67.3125 
L 35.90625 72 
L 3 72 
L 3 67.3125 
L 4.796875 67.3125 
C 12.90625 67.3125 13.796875 66.8125 13.796875 62.609375 
L 13.796875 59.71875 
L 13.796875 12.28125 
L 13.796875 9.375 
C 13.796875 5.1875 12.90625 4.6875 4.796875 4.6875 
L 3 4.6875 
L 3 0 
L 35.90625 0 
L 35.90625 4.6875 
L 34 4.6875 
C 25.90625 4.6875 25 5.1875 25 9.375 
L 25 12.28125 
L 25 24.9375 
L 36.59375 36.59375 
L 54 11.171875 
C 55.59375 8.78125 56 7.984375 56 6.984375 
C 56 5.390625 54.09375 4.6875 49.203125 4.6875 
L 46.09375 4.6875 
L 46.09375 0 
L 80.296875 0 
L 80.296875 4.6875 
L 78.40625 4.6875 
C 72.90625 4.6875 71.5 5.390625 68.59375 9.6875 
L 44.40625 44.46875 
L 59.296875 59.328125 
C 64.09375 64.40625 70.203125 67.3125 76.203125 67.3125 
L 76.203125 72 
L 45.40625 72 
L 45.40625 67.3125 
L 47.90625 67.3125 
C 52.5 67.3125 54.40625 66.40625 54.40625 64.3125 
C 54.40625 62.921875 52.40625 60.015625 49.5 57.140625 
z
" id="Century_Schoolbook_L_Roman-75"/>
       <path d="M 20 46 
L 2.703125 46 
L 2.703125 41.21875 
L 6.296875 41.21875 
C 10 41.21875 10.59375 40.515625 10.59375 36.203125 
L 10.59375 12.296875 
L 10.59375 8.296875 
C 10.59375 4.296875 9.5 3.59375 3.09375 3.59375 
L 2.703125 3.59375 
L 2.703125 0 
L 28 0 
L 28 3.59375 
L 27.59375 3.59375 
C 21.09375 3.59375 20 4.296875 20 8.28125 
L 20 12.28125 
L 20 22.65625 
C 20 27.546875 20.703125 32.03125 21.796875 34.328125 
C 23.90625 38.828125 28.40625 41.921875 32.703125 41.921875 
C 35.296875 41.921875 38.296875 40.421875 39.796875 38.421875 
C 41.296875 36.328125 42 33.234375 42 28.4375 
L 42 12.28125 
L 42 8.28125 
C 42 4.296875 40.90625 3.59375 34.40625 3.59375 
L 34 3.59375 
L 34 0 
L 59.296875 0 
L 59.296875 3.59375 
L 58.90625 3.59375 
C 52.5 3.59375 51.40625 4.296875 51.40625 8.28125 
L 51.40625 12.28125 
L 51.40625 27.953125 
C 51.40625 35.125 51.09375 36.921875 49.296875 40.328125 
C 46.796875 45.109375 41.703125 48 35.796875 48 
C 29.40625 48 24.40625 45.046875 20 38.515625 
z
" id="Century_Schoolbook_L_Roman-110"/>
       <path d="M 4.203125 27.28125 
L 4.203125 19 
L 29.09375 19 
L 29.09375 27.28125 
z
" id="Century_Schoolbook_L_Roman-45"/>
      </defs>
      <g transform="translate(368.388417519 401.670650466)scale(0.12 -0.12)">
       <use transform="scale(0.9962640099626402)" xlink:href="#Century_Schoolbook_L_Roman-75"/>
       <use transform="translate(77.50837010137765 0.0)scale(0.9962640099626402)" xlink:href="#Century_Schoolbook_L_Roman-97"/>
       <use transform="translate(132.90004706471825 0.0)scale(0.9962640099626402)" xlink:href="#Century_Schoolbook_L_Roman-112"/>
       <use transform="translate(190.08553434873133 0.0)scale(0.9962640099626402)" xlink:href="#Century_Schoolbook_L_Roman-108"/>
       <use transform="translate(221.4668473449175 0.0)scale(0.9962640099626402)" xlink:href="#Century_Schoolbook_L_Roman-97"/>
       <use transform="translate(276.8585243082581 0.0)scale(0.9962640099626402)" xlink:href="#Century_Schoolbook_L_Roman-110"/>
       <use transform="translate(337.73015498521175 0.0)scale(0.9962640099626402)" xlink:href="#Century_Schoolbook_L_Roman-45"/>
       <use transform="translate(370.90538471454704 0.0)scale(0.9962640099626402)" xlink:href="#Century_Schoolbook_L_Roman-77"/>
       <use transform="translate(464.9521539101417 0.0)scale(0.9962640099626402)" xlink:href="#Century_Schoolbook_L_Roman-101"/>
       <use transform="translate(514.7653544082738 0.0)scale(0.9962640099626402)" xlink:href="#Century_Schoolbook_L_Roman-105"/>
       <use transform="translate(546.1466674044599 0.0)scale(0.9962640099626402)" xlink:href="#Century_Schoolbook_L_Roman-101"/>
       <use transform="translate(595.9598679025919 0.0)scale(0.9962640099626402)" xlink:href="#Century_Schoolbook_L_Roman-114"/>
      </g>
     </g>
    </g>
   </g>
   <g id="matplotlib.axis_2">
    <g id="ytick_1">
     <g id="line2d_19">
      <defs>
       <path d="M 0 0 
L 4 0 
" id="m8ede0c9477" style="stroke:#000000;stroke-width:0.5;"/>
      </defs>
      <g>
       <use style="stroke:#000000;stroke-width:0.5;" x="72.0" xlink:href="#m8ede0c9477" y="388.8"/>
      </g>
     </g>
     <g id="line2d_20">
      <defs>
       <path d="M 0 0 
L -4 0 
" id="ma4864ee572" style="stroke:#000000;stroke-width:0.5;"/>
      </defs>
      <g>
       <use style="stroke:#000000;stroke-width:0.5;" x="518.4" xlink:href="#ma4864ee572" y="388.8"/>
      </g>
     </g>
     <g id="text_3">
      <!-- $0.00$ -->
      <defs>
       <path d="M 18.40625 4.796875 
C 18.40625 7.6875 16 9.671875 13.59375 9.671875 
C 10.703125 9.671875 8.703125 7.28125 8.703125 4.890625 
C 8.703125 2 11.09375 0 13.5 0 
C 16.40625 0 18.40625 2.390625 18.40625 4.796875 
" id="CMMI12-58"/>
       <path d="M 42 31.640625 
C 42 37.75 41.90625 48.125 37.703125 56.109375 
C 34 63.109375 28.09375 65.59375 22.90625 65.59375 
C 18.09375 65.59375 12 63.40625 8.203125 56.203125 
C 4.203125 48.71875 3.796875 39.4375 3.796875 31.640625 
C 3.796875 25.953125 3.90625 17.28125 7 9.671875 
C 11.296875 -0.609375 19 -2 22.90625 -2 
C 27.5 -2 34.5 -0.109375 38.59375 9.375 
C 41.59375 16.28125 42 24.359375 42 31.640625 
M 22.90625 -0.40625 
C 16.5 -0.40625 12.703125 5.078125 11.296875 12.6875 
C 10.203125 18.5625 10.203125 27.15625 10.203125 32.75 
C 10.203125 40.4375 10.203125 46.828125 11.5 52.921875 
C 13.40625 61.390625 19 64 22.90625 64 
C 27 64 32.296875 61.296875 34.203125 53.125 
C 35.5 47.4375 35.59375 40.734375 35.59375 32.75 
C 35.59375 26.25 35.59375 18.265625 34.40625 12.375 
C 32.296875 1.484375 26.40625 -0.40625 22.90625 -0.40625 
" id="CMR17-48"/>
      </defs>
      <g transform="translate(47.189367995 392.099607672)scale(0.12 -0.12)">
       <use transform="scale(0.9962640099626402)" xlink:href="#CMR17-48"/>
       <use transform="translate(45.69047711706103 0.0)scale(0.9962640099626402)" xlink:href="#CMMI12-58"/>
       <use transform="translate(72.78765420688046 0.0)scale(0.9962640099626402)" xlink:href="#CMR17-48"/>
       <use transform="translate(118.47813132394148 0.0)scale(0.9962640099626402)" xlink:href="#CMR17-48"/>
      </g>
     </g>
    </g>
    <g id="ytick_2">
     <g id="line2d_21">
      <g>
       <use style="stroke:#000000;stroke-width:0.5;" x="72.0" xlink:href="#m8ede0c9477" y="319.68"/>
      </g>
     </g>
     <g id="line2d_22">
      <g>
       <use style="stroke:#000000;stroke-width:0.5;" x="518.4" xlink:href="#ma4864ee572" y="319.68"/>
      </g>
     </g>
     <g id="text_4">
      <!-- $0.05$ -->
      <defs>
       <path d="M 11.40625 57.6875 
C 12.40625 57.28125 16.5 56 20.703125 56 
C 30 56 35.09375 61.015625 38 63.921875 
C 38 64.734375 38 65.25 37.40625 65.25 
C 37.296875 65.25 37.09375 65.25 36.296875 64.828125 
C 32.796875 63.3125 28.703125 62.078125 23.703125 62.078125 
C 20.703125 62.078125 16.203125 62.5 11.296875 64.734375 
C 10.203125 65.25 10 65.25 9.90625 65.25 
C 9.40625 65.25 9.296875 65.140625 9.296875 63.15625 
L 9.296875 34.28125 
C 9.296875 32.5 9.296875 32 10.296875 32 
C 10.796875 32 11 32.203125 11.5 32.90625 
C 14.703125 37.484375 19.09375 39.40625 24.09375 39.40625 
C 27.59375 39.40625 35.09375 37.21875 35.09375 20.140625 
C 35.09375 16.953125 35.09375 11.171875 32.09375 6.578125 
C 29.59375 2.484375 25.703125 0.390625 21.40625 0.390625 
C 14.796875 0.390625 8.09375 5 6.296875 12.71875 
C 6.703125 12.609375 7.5 12.421875 7.90625 12.421875 
C 9.203125 12.421875 11.703125 13.125 11.703125 16.21875 
C 11.703125 18.90625 9.796875 20 7.90625 20 
C 5.59375 20 4.09375 18.59375 4.09375 15.796875 
C 4.09375 7.09375 11 -2 21.59375 -2 
C 31.90625 -2 41.703125 6.875 41.703125 19.75 
C 41.703125 31.71875 33.90625 41 24.203125 41 
C 19.09375 41 14.796875 39.09375 11.40625 35.453125 
z
" id="CMR17-53"/>
      </defs>
      <g transform="translate(47.189367995 322.979607672)scale(0.12 -0.12)">
       <use transform="scale(0.9962640099626402)" xlink:href="#CMR17-48"/>
       <use transform="translate(45.69047711706103 0.0)scale(0.9962640099626402)" xlink:href="#CMMI12-58"/>
       <use transform="translate(72.78765420688046 0.0)scale(0.9962640099626402)" xlink:href="#CMR17-48"/>
       <use transform="translate(118.47813132394148 0.0)scale(0.9962640099626402)" xlink:href="#CMR17-53"/>
      </g>
     </g>
    </g>
    <g id="ytick_3">
     <g id="line2d_23">
      <g>
       <use style="stroke:#000000;stroke-width:0.5;" x="72.0" xlink:href="#m8ede0c9477" y="250.56"/>
      </g>
     </g>
     <g id="line2d_24">
      <g>
       <use style="stroke:#000000;stroke-width:0.5;" x="518.4" xlink:href="#ma4864ee572" y="250.56"/>
      </g>
     </g>
     <g id="text_5">
      <!-- $0.10$ -->
      <defs>
       <path d="M 26.59375 63.3125 
C 26.59375 65.40625 26.5 65.5 25.09375 65.5 
C 21.203125 61.1875 15.296875 59.796875 9.703125 59.796875 
C 9.40625 59.796875 8.90625 59.796875 8.796875 59.5 
C 8.703125 59.296875 8.703125 59.09375 8.703125 57 
C 11.796875 57 17 57.59375 21 59.984375 
L 21 7.203125 
C 21 3.6875 20.796875 2.5 12.203125 2.5 
L 9.203125 2.5 
L 9.203125 0 
C 14 0 19 0 23.796875 0 
C 28.59375 0 33.59375 0 38.40625 0 
L 38.40625 2.5 
L 35.40625 2.5 
C 26.796875 2.5 26.59375 3.59375 26.59375 7.15625 
z
" id="CMR17-49"/>
      </defs>
      <g transform="translate(47.189367995 253.859607672)scale(0.12 -0.12)">
       <use transform="scale(0.9962640099626402)" xlink:href="#CMR17-48"/>
       <use transform="translate(45.69047711706103 0.0)scale(0.9962640099626402)" xlink:href="#CMMI12-58"/>
       <use transform="translate(72.78765420688046 0.0)scale(0.9962640099626402)" xlink:href="#CMR17-49"/>
       <use transform="translate(118.47813132394148 0.0)scale(0.9962640099626402)" xlink:href="#CMR17-48"/>
      </g>
     </g>
    </g>
    <g id="ytick_4">
     <g id="line2d_25">
      <g>
       <use style="stroke:#000000;stroke-width:0.5;" x="72.0" xlink:href="#m8ede0c9477" y="181.44"/>
      </g>
     </g>
     <g id="line2d_26">
      <g>
       <use style="stroke:#000000;stroke-width:0.5;" x="518.4" xlink:href="#ma4864ee572" y="181.44"/>
      </g>
     </g>
     <g id="text_6">
      <!-- $0.15$ -->
      <g transform="translate(47.189367995 184.739607672)scale(0.12 -0.12)">
       <use transform="scale(0.9962640099626402)" xlink:href="#CMR17-48"/>
       <use transform="translate(45.69047711706103 0.0)scale(0.9962640099626402)" xlink:href="#CMMI12-58"/>
       <use transform="translate(72.78765420688046 0.0)scale(0.9962640099626402)" xlink:href="#CMR17-49"/>
       <use transform="translate(118.47813132394148 0.0)scale(0.9962640099626402)" xlink:href="#CMR17-53"/>
      </g>
     </g>
    </g>
    <g id="ytick_5">
     <g id="line2d_27">
      <g>
       <use style="stroke:#000000;stroke-width:0.5;" x="72.0" xlink:href="#m8ede0c9477" y="112.32"/>
      </g>
     </g>
     <g id="line2d_28">
      <g>
       <use style="stroke:#000000;stroke-width:0.5;" x="518.4" xlink:href="#ma4864ee572" y="112.32"/>
      </g>
     </g>
     <g id="text_7">
      <!-- $0.20$ -->
      <defs>
       <path d="M 41.703125 15.453125 
L 39.90625 15.453125 
C 38.90625 8.375 38.09375 7.171875 37.703125 6.5625 
C 37.203125 5.765625 30 5.765625 28.59375 5.765625 
L 9.40625 5.765625 
C 13 9.671875 20 16.75 28.5 24.953125 
C 34.59375 30.734375 41.703125 37.53125 41.703125 47.421875 
C 41.703125 59.21875 32.296875 66 21.796875 66 
C 10.796875 66 4.09375 56.3125 4.09375 47.34375 
C 4.09375 43.4375 7 42.9375 8.203125 42.9375 
C 9.203125 42.9375 12.203125 43.546875 12.203125 47.03125 
C 12.203125 50.109375 9.59375 51 8.203125 51 
C 7.59375 51 7 50.90625 6.59375 50.703125 
C 8.5 59.21875 14.296875 63.40625 20.40625 63.40625 
C 29.09375 63.40625 34.796875 56.515625 34.796875 47.421875 
C 34.796875 38.734375 29.703125 31.25 24 24.75 
L 4.09375 2.28125 
L 4.09375 0 
L 39.296875 0 
z
" id="CMR17-50"/>
      </defs>
      <g transform="translate(47.189367995 115.619607672)scale(0.12 -0.12)">
       <use transform="scale(0.9962640099626402)" xlink:href="#CMR17-48"/>
       <use transform="translate(45.69047711706103 0.0)scale(0.9962640099626402)" xlink:href="#CMMI12-58"/>
       <use transform="translate(72.78765420688046 0.0)scale(0.9962640099626402)" xlink:href="#CMR17-50"/>
       <use transform="translate(118.47813132394148 0.0)scale(0.9962640099626402)" xlink:href="#CMR17-48"/>
      </g>
     </g>
    </g>
    <g id="ytick_6">
     <g id="line2d_29">
      <g>
       <use style="stroke:#000000;stroke-width:0.5;" x="72.0" xlink:href="#m8ede0c9477" y="43.2"/>
      </g>
     </g>
     <g id="line2d_30">
      <g>
       <use style="stroke:#000000;stroke-width:0.5;" x="518.4" xlink:href="#ma4864ee572" y="43.2"/>
      </g>
     </g>
     <g id="text_8">
      <!-- $0.25$ -->
      <g transform="translate(47.189367995 46.4996076724)scale(0.12 -0.12)">
       <use transform="scale(0.9962640099626402)" xlink:href="#CMR17-48"/>
       <use transform="translate(45.69047711706103 0.0)scale(0.9962640099626402)" xlink:href="#CMMI12-58"/>
       <use transform="translate(72.78765420688046 0.0)scale(0.9962640099626402)" xlink:href="#CMR17-50"/>
       <use transform="translate(118.47813132394148 0.0)scale(0.9962640099626402)" xlink:href="#CMR17-53"/>
      </g>
     </g>
    </g>
    <g id="text_9">
     <!-- Brier Score -->
     <defs>
      <path d="M 38.703125 15.109375 
C 35.5 7.96875 32.09375 5.09375 26.90625 5.09375 
C 18.90625 5.09375 13.90625 12.328125 13.90625 23.9375 
C 13.90625 35.953125 18.796875 44 26.203125 44 
C 29.203125 44 31.796875 42.59375 31.796875 41.015625 
C 31.796875 40.71875 31.59375 40.421875 31.203125 39.8125 
C 29.59375 37.9375 29.203125 36.9375 29.203125 35.265625 
C 29.203125 31.984375 31.703125 29.703125 35.203125 29.703125 
C 38.703125 29.703125 41.296875 32.484375 41.296875 36.453125 
C 41.296875 43.109375 34.59375 48.28125 25.703125 48.28125 
C 12.703125 48.28125 3.40625 37.65625 3.40625 22.84375 
C 3.40625 8.734375 11.90625 -1 24.296875 -1 
C 33.203125 -1 38.296875 3.078125 42.59375 13.625 
z
" id="Century_Schoolbook_L_Roman-99"/>
      <path d="M 25.203125 48.28125 
C 13 48.28125 3.40625 37.453125 3.40625 23.546875 
C 3.40625 9.9375 13 -1 25 -1 
C 37 -1 46.59375 9.9375 46.59375 23.640625 
C 46.59375 37.25 37 48.28125 25.203125 48.28125 
M 25.203125 44 
C 32.203125 44 36.09375 36.734375 36.09375 23.640625 
C 36.09375 10.453125 32.203125 3.296875 25 3.296875 
C 17.796875 3.296875 13.90625 10.453125 13.90625 23.546875 
C 13.90625 37.046875 17.703125 44 25.203125 44 
" id="Century_Schoolbook_L_Roman-111"/>
      <path d="M 3 72 
L 3 67.3125 
L 4.796875 67.3125 
C 12.90625 67.3125 13.796875 66.8125 13.796875 62.609375 
L 13.796875 59.71875 
L 13.796875 12.28125 
L 13.796875 9.375 
C 13.796875 5.1875 12.90625 4.6875 4.796875 4.6875 
L 3 4.6875 
L 3 0 
L 39.296875 0 
C 56.59375 0 67 7.40625 67 19.59375 
C 67 29.484375 60.59375 35.296875 47 37.6875 
C 51.796875 38.6875 54 39.578125 56.5 41.46875 
C 60.703125 44.546875 63.203125 49.421875 63.203125 54.5 
C 63.203125 60.859375 59.203125 67.125 53.40625 69.609375 
C 49.796875 71.203125 44.796875 72 38.90625 72 
z
M 25 39.6875 
L 25 62.328125 
C 25 66.203125 26.40625 67.3125 31.59375 67.3125 
L 35.59375 67.3125 
C 40.203125 67.3125 44 66.609375 46.09375 65.21875 
C 49.703125 63.03125 51.59375 58.75 51.59375 53.203125 
C 51.59375 43.46875 46.703125 39.6875 33.90625 39.6875 
z
M 25 35 
L 33.796875 35 
C 40.203125 35 44.5 34.390625 47.5 33.09375 
C 52.203125 30.890625 54.703125 26.5 54.703125 19.890625 
C 54.703125 13.59375 52.5 8.890625 48.59375 6.984375 
C 45.5 5.390625 41.296875 4.6875 35 4.6875 
L 30.796875 4.6875 
C 25.703125 4.6875 25 5.484375 25 11 
z
" id="Century_Schoolbook_L_Roman-66"/>
     </defs>
     <g transform="translate(39.9179328738 247.20863595)rotate(-90.0)scale(0.12 -0.12)">
      <use transform="scale(0.9962640099626402)" xlink:href="#Century_Schoolbook_L_Roman-66"/>
      <use transform="translate(71.92998484686333 0.0)scale(0.9962640099626402)" xlink:href="#Century_Schoolbook_L_Roman-114"/>
      <use transform="translate(116.16355354432598 0.0)scale(0.9962640099626402)" xlink:href="#Century_Schoolbook_L_Roman-105"/>
      <use transform="translate(147.54486654051215 0.0)scale(0.9962640099626402)" xlink:href="#Century_Schoolbook_L_Roman-101"/>
      <use transform="translate(197.35806703864418 0.0)scale(0.9962640099626402)" xlink:href="#Century_Schoolbook_L_Roman-114"/>
      <use transform="translate(269.28680533935244 0.0)scale(0.9962640099626402)" xlink:href="#Century_Schoolbook_L_Roman-83"/>
      <use transform="translate(332.0507842903565 0.0)scale(0.9962640099626402)" xlink:href="#Century_Schoolbook_L_Roman-99"/>
      <use transform="translate(376.28435298781915 0.0)scale(0.9962640099626402)" xlink:href="#Century_Schoolbook_L_Roman-111"/>
      <use transform="translate(426.09755348595115 0.0)scale(0.9962640099626402)" xlink:href="#Century_Schoolbook_L_Roman-114"/>
      <use transform="translate(470.3311221834138 0.0)scale(0.9962640099626402)" xlink:href="#Century_Schoolbook_L_Roman-101"/>
     </g>
    </g>
   </g>
   <g id="text_10">
    <!-- Brier Scores Across Categories -->
    <defs>
     <path d="M 19.59375 7.59375 
C 14.09375 7.59375 13.796875 7.703125 12.59375 8.46875 
C 11.90625 8.90625 11.40625 10.109375 11.40625 11.296875 
C 11.40625 14.578125 14.09375 16 20.796875 16 
C 30.296875 16 31.796875 16.203125 35.09375 17.6875 
C 41.09375 20.359375 44.5 25.484375 44.5 31.984375 
C 44.5 35.921875 43.59375 38.390625 40.796875 41.640625 
C 42.5 43.40625 43.40625 44 44.203125 44 
C 44.703125 44 45 43.6875 45.203125 42.625 
C 45.59375 40.265625 47.203125 39 49.703125 39 
C 52.203125 39 54.203125 41.09375 54.203125 43.78125 
C 54.203125 47.1875 51.5 49.578125 47.59375 49.578125 
C 44.40625 49.578125 42.59375 48.5625 38 44.296875 
C 33.796875 47.09375 30.59375 48.078125 25.59375 48.078125 
C 13.703125 48.078125 5.90625 41.625 5.90625 31.8125 
C 5.90625 26.03125 9.09375 21.03125 14.296875 18.6875 
C 7.59375 17.15625 4.796875 14.09375 4.796875 8.46875 
C 4.796875 3.984375 6.796875 1.328125 11.5 -0.296875 
C 5.296875 -2.484375 2.296875 -5.671875 2.296875 -9.75 
C 2.296875 -16.3125 10 -20 23.40625 -20 
C 40.09375 -20 48.5 -14.71875 48.5 -4.25 
C 48.5 0.71875 46.203125 4.6875 42.5 6.1875 
C 39.90625 7.1875 36.703125 7.59375 29.796875 7.59375 
z
M 25.5 44 
C 31.796875 44 35.296875 39.671875 35.296875 32.09375 
C 35.296875 24.421875 31.5 19.78125 25.09375 19.78125 
C 18.90625 19.78125 15 24.421875 15 31.796875 
C 15 39.5625 18.796875 44 25.5 44 
M 24.59375 -1 
C 32.90625 -1 33.5 -1 35 -1.1875 
C 39 -1.59375 41.5 -3.78125 41.5 -6.953125 
C 41.5 -12.625 35 -15.90625 23.796875 -15.90625 
C 15.40625 -15.90625 10.59375 -13.421875 10.59375 -8.953125 
C 10.59375 -5.671875 12.40625 -3.46875 17.203125 -1 
z
" id="Century_Schoolbook_L_Roman-103"/>
     <path d="M 37.796875 73.5 
L 33.59375 73.5 
L 10.59375 15.265625 
C 8.59375 10.078125 8.203125 9.375 6.703125 7.78125 
C 5.09375 5.890625 2.296875 4.6875 -0.40625 4.6875 
L -0.796875 4.6875 
L -0.796875 0 
L 25.703125 0 
L 25.703125 4.6875 
L 23.703125 4.6875 
C 18.296875 4.6875 15.59375 6.625 15.59375 10.453125 
C 15.59375 11.671875 15.90625 13.078125 16.5 14.703125 
L 19.796875 23.609375 
L 46.296875 23.609375 
L 51.703125 10.0625 
C 52.296875 8.53125 52.5 7.828125 52.5 7.3125 
C 52.5 5.703125 50 4.6875 46.296875 4.6875 
L 42.09375 4.6875 
L 42.09375 0 
L 73.09375 0 
L 73.09375 4.6875 
L 71.703125 4.6875 
C 66.703125 4.6875 65.59375 5.484375 63.296875 11.078125 
z
M 32.90625 57.203125 
L 44.203125 29 
L 21.796875 29 
z
" id="Century_Schoolbook_L_Roman-65"/>
     <path d="M 39 48 
L 35.5 48 
L 32.59375 44.40625 
C 29 47.203125 25.40625 48.390625 20.40625 48.390625 
C 11.59375 48.390625 5.796875 42.625 5.796875 33.953125 
C 5.796875 30.078125 7.09375 26.78125 9.296875 24.8125 
C 11.59375 22.703125 13.90625 21.71875 19.90625 20.3125 
L 25.203125 19.125 
C 33.09375 17.234375 35.90625 15.234375 35.90625 11.265625 
C 35.90625 6.578125 31.796875 3.296875 25.90625 3.296875 
C 17.5 3.296875 11.5 8.765625 9.09375 18.875 
L 5.09375 18.875 
L 5.09375 0 
L 8.59375 0 
L 12.09375 3.90625 
C 16.203125 0.59375 20.796875 -1 25.796875 -1 
C 35.59375 -1 42.09375 5.078125 42.09375 14.34375 
C 42.09375 18.71875 40.703125 22.09375 37.90625 24.390625 
C 35.5 26.484375 33.5 27.28125 27.40625 28.5625 
L 22.40625 29.671875 
C 16.90625 30.859375 16.90625 30.859375 15.09375 31.859375 
C 12.90625 32.859375 11.59375 34.9375 11.59375 37.140625 
C 11.59375 41.109375 15.40625 44 20.90625 44 
C 24.703125 44 27.796875 42.703125 30.59375 40.015625 
C 32.796875 37.8125 33.90625 35.828125 35.5 31.234375 
L 39 31.234375 
z
" id="Century_Schoolbook_L_Roman-115"/>
     <path d="M 63.90625 72 
L 60.09375 72 
L 56.09375 66.015625 
C 49 71.203125 45.09375 72.703125 38.40625 72.703125 
C 28.703125 72.703125 20.703125 68.8125 13.90625 60.78125 
C 7.5 53.234375 4.5 44.890625 4.5 34.65625 
C 4.5 13.296875 18.59375 -2 38.296875 -2 
C 54.296875 -2 64.5 7.34375 66.796875 24.015625 
L 62.09375 24.8125 
C 61.09375 19.546875 59.90625 15.984375 58.09375 13.015625 
C 54 6.171875 47.59375 2.6875 39.5 2.6875 
C 24.703125 2.6875 17.703125 12.90625 17.703125 34.265625 
C 17.703125 45.46875 19.203125 53.015625 22.59375 58.96875 
C 25.703125 64.53125 31.90625 68 38.296875 68 
C 45.296875 68 51.5 64.328125 55.296875 57.96875 
C 57.203125 54.6875 58.703125 50.8125 61 43.171875 
L 65.40625 43.171875 
z
" id="Century_Schoolbook_L_Roman-67"/>
    </defs>
    <g transform="translate(193.328941822 38.2)scale(0.144 -0.144)">
     <use transform="scale(0.9962640099626402)" xlink:href="#Century_Schoolbook_L_Roman-66"/>
     <use transform="translate(71.92998484686333 0.0)scale(0.9962640099626402)" xlink:href="#Century_Schoolbook_L_Roman-114"/>
     <use transform="translate(116.16355354432598 0.0)scale(0.9962640099626402)" xlink:href="#Century_Schoolbook_L_Roman-105"/>
     <use transform="translate(147.54486654051215 0.0)scale(0.9962640099626402)" xlink:href="#Century_Schoolbook_L_Roman-101"/>
     <use transform="translate(197.35806703864418 0.0)scale(0.9962640099626402)" xlink:href="#Century_Schoolbook_L_Roman-114"/>
     <use transform="translate(269.28680533935244 0.0)scale(0.9962640099626402)" xlink:href="#Century_Schoolbook_L_Roman-83"/>
     <use transform="translate(332.0507842903565 0.0)scale(0.9962640099626402)" xlink:href="#Century_Schoolbook_L_Roman-99"/>
     <use transform="translate(376.28435298781915 0.0)scale(0.9962640099626402)" xlink:href="#Century_Schoolbook_L_Roman-111"/>
     <use transform="translate(426.09755348595115 0.0)scale(0.9962640099626402)" xlink:href="#Century_Schoolbook_L_Roman-114"/>
     <use transform="translate(470.3311221834138 0.0)scale(0.9962640099626402)" xlink:href="#Century_Schoolbook_L_Roman-101"/>
     <use transform="translate(520.1443226815458 0.0)scale(0.9962640099626402)" xlink:href="#Century_Schoolbook_L_Roman-115"/>
     <use transform="translate(593.9653028438279 0.0)scale(0.9962640099626402)" xlink:href="#Century_Schoolbook_L_Roman-65"/>
     <use transform="translate(665.8952876906912 0.0)scale(0.9962640099626402)" xlink:href="#Century_Schoolbook_L_Roman-99"/>
     <use transform="translate(710.1288563881538 0.0)scale(0.9962640099626402)" xlink:href="#Century_Schoolbook_L_Roman-114"/>
     <use transform="translate(754.3624250856166 0.0)scale(0.9962640099626402)" xlink:href="#Century_Schoolbook_L_Roman-111"/>
     <use transform="translate(804.1756255837486 0.0)scale(0.9962640099626402)" xlink:href="#Century_Schoolbook_L_Roman-115"/>
     <use transform="translate(850.301436142785 0.0)scale(0.9962640099626402)" xlink:href="#Century_Schoolbook_L_Roman-115"/>
     <use transform="translate(924.1224163050671 0.0)scale(0.9962640099626402)" xlink:href="#Century_Schoolbook_L_Roman-67"/>
     <use transform="translate(996.0524011519303 0.0)scale(0.9962640099626402)" xlink:href="#Century_Schoolbook_L_Roman-97"/>
     <use transform="translate(1051.444078115271 0.0)scale(0.9962640099626402)" xlink:href="#Century_Schoolbook_L_Roman-116"/>
     <use transform="translate(1090.1977843098148 0.0)scale(0.9962640099626402)" xlink:href="#Century_Schoolbook_L_Roman-101"/>
     <use transform="translate(1140.010984807947 0.0)scale(0.9962640099626402)" xlink:href="#Century_Schoolbook_L_Roman-103"/>
     <use transform="translate(1193.5103286990195 0.0)scale(0.9962640099626402)" xlink:href="#Century_Schoolbook_L_Roman-111"/>
     <use transform="translate(1243.3235291971514 0.0)scale(0.9962640099626402)" xlink:href="#Century_Schoolbook_L_Roman-114"/>
     <use transform="translate(1287.5570978946141 0.0)scale(0.9962640099626402)" xlink:href="#Century_Schoolbook_L_Roman-105"/>
     <use transform="translate(1318.9384108908002 0.0)scale(0.9962640099626402)" xlink:href="#Century_Schoolbook_L_Roman-101"/>
     <use transform="translate(1368.7516113889324 0.0)scale(0.9962640099626402)" xlink:href="#Century_Schoolbook_L_Roman-115"/>
    </g>
   </g>
  </g>
 </g>
 <defs>
  <clipPath id="p6ef1205451">
   <rect height="345.6" width="446.4" x="72.0" y="43.2"/>
  </clipPath>
 </defs>
</svg>
