<?xml version="1.0" encoding="utf-8" standalone="no"?>
<!DOCTYPE svg PUBLIC "-//W3C//DTD SVG 1.1//EN"
  "http://www.w3.org/Graphics/SVG/1.1/DTD/svg11.dtd">
<!-- Created with matplotlib (http://matplotlib.org/) -->
<svg height="720pt" version="1.1" viewBox="0 0 720 720" width="720pt" xmlns="http://www.w3.org/2000/svg" xmlns:xlink="http://www.w3.org/1999/xlink">
 <defs>
  <style type="text/css">
*{stroke-linecap:butt;stroke-linejoin:round;stroke-miterlimit:100000;}
  </style>
 </defs>
 <g id="figure_1">
  <g id="patch_1">
   <path d="M 0 720 
L 720 720 
L 720 0 
L 0 0 
L 0 720 
z
" style="fill:none;"/>
  </g>
  <g id="axes_1">
   <g id="patch_2">
    <path d="M 53.912718 675.755829 
L 696.634684 675.755829 
L 696.634684 28.604774 
L 53.912718 28.604774 
L 53.912718 675.755829 
z
" style="fill:none;"/>
   </g>
   <g id="PathCollection_1">
    <path clip-path="url(#pac7ece265a)" d="M 199.825071 521.95973 
C 203.320826 521.95973 206.673875 520.570852 209.145747 518.098979 
C 211.617619 515.627107 213.006497 512.274059 213.006497 508.778303 
C 213.006497 505.282548 211.617619 501.9295 209.145747 499.457627 
C 206.673875 496.985755 203.320826 495.596877 199.825071 495.596877 
C 196.329316 495.596877 192.976267 496.985755 190.504395 499.457627 
C 188.032523 501.9295 186.643645 505.282548 186.643645 508.778303 
C 186.643645 512.274059 188.032523 515.627107 190.504395 518.098979 
C 192.976267 520.570852 196.329316 521.95973 199.825071 521.95973 
z
" style="fill:#6ec064;fill-opacity:0.3;stroke:#000000;stroke-opacity:0.3;"/>
    <path clip-path="url(#pac7ece265a)" d="M 499.639871 146.043206 
C 501.814698 146.043206 503.900743 145.179138 505.438578 143.641303 
C 506.976413 142.103468 507.840481 140.017424 507.840481 137.842597 
C 507.840481 135.667769 506.976413 133.581725 505.438578 132.04389 
C 503.900743 130.506055 501.814698 129.641987 499.639871 129.641987 
C 497.465044 129.641987 495.378999 130.506055 493.841164 132.04389 
C 492.303329 133.581725 491.439261 135.667769 491.439261 137.842597 
C 491.439261 140.017424 492.303329 142.103468 493.841164 143.641303 
C 495.378999 145.179138 497.465044 146.043206 499.639871 146.043206 
z
" style="fill:#d83128;fill-opacity:0.3;stroke:#000000;stroke-opacity:0.3;"/>
    <path clip-path="url(#pac7ece265a)" d="M 252.962136 475.75663 
C 255.067121 475.75663 257.086174 474.920311 258.574623 473.431862 
C 260.063071 471.943414 260.89939 469.924361 260.89939 467.819376 
C 260.89939 465.714392 260.063071 463.695339 258.574623 462.20689 
C 257.086174 460.718442 255.067121 459.882122 252.962136 459.882122 
C 250.857152 459.882122 248.838099 460.718442 247.34965 462.20689 
C 245.861202 463.695339 245.024883 465.714392 245.024883 467.819376 
C 245.024883 469.924361 245.861202 471.943414 247.34965 473.431862 
C 248.838099 474.920311 250.857152 475.75663 252.962136 475.75663 
z
" style="fill:#93d168;fill-opacity:0.3;stroke:#000000;stroke-opacity:0.3;"/>
    <path clip-path="url(#pac7ece265a)" d="M 181.915448 548.71169 
C 183.719025 548.71169 185.448974 547.995121 186.724295 546.719801 
C 187.999615 545.44448 188.716184 543.714531 188.716184 541.910955 
C 188.716184 540.107378 187.999615 538.377429 186.724295 537.102109 
C 185.448974 535.826788 183.719025 535.110219 181.915448 535.110219 
C 180.111872 535.110219 178.381923 535.826788 177.106602 537.102109 
C 175.831282 538.377429 175.114713 540.107378 175.114713 541.910955 
C 175.114713 543.714531 175.831282 545.44448 177.106602 546.719801 
C 178.381923 547.995121 180.111872 548.71169 181.915448 548.71169 
z
" style="fill:#4bb05c;fill-opacity:0.3;stroke:#000000;stroke-opacity:0.3;"/>
    <path clip-path="url(#pac7ece265a)" d="M 165.654357 551.776997 
C 166.96033 551.776997 168.212991 551.258128 169.136454 550.334665 
C 170.059917 549.411202 170.578785 548.158542 170.578785 546.852568 
C 170.578785 545.546594 170.059917 544.293934 169.136454 543.370471 
C 168.212991 542.447008 166.96033 541.928139 165.654357 541.928139 
C 164.348383 541.928139 163.095722 542.447008 162.17226 543.370471 
C 161.248797 544.293934 160.729928 545.546594 160.729928 546.852568 
C 160.729928 548.158542 161.248797 549.411202 162.17226 550.334665 
C 163.095722 551.258128 164.348383 551.776997 165.654357 551.776997 
z
" style="fill:#45ad5b;fill-opacity:0.3;stroke:#000000;stroke-opacity:0.3;"/>
    <path clip-path="url(#pac7ece265a)" d="M 155.935262 575.185643 
C 157.06821 575.185643 158.154908 574.735518 158.956023 573.934403 
C 159.757139 573.133287 160.207264 572.046589 160.207264 570.913641 
C 160.207264 569.780693 159.757139 568.693995 158.956023 567.89288 
C 158.154908 567.091764 157.06821 566.641639 155.935262 566.641639 
C 154.802314 566.641639 153.715616 567.091764 152.9145 567.89288 
C 152.113385 568.693995 151.66326 569.780693 151.66326 570.913641 
C 151.66326 572.046589 152.113385 573.133287 152.9145 573.934403 
C 153.715616 574.735518 154.802314 575.185643 155.935262 575.185643 
z
" style="fill:#2da155;fill-opacity:0.3;stroke:#000000;stroke-opacity:0.3;"/>
    <path clip-path="url(#pac7ece265a)" d="M 294.466091 365.924773 
C 295.355609 365.924773 296.208815 365.571364 296.837799 364.94238 
C 297.466784 364.313395 297.820193 363.46019 297.820193 362.570671 
C 297.820193 361.681153 297.466784 360.827947 296.837799 360.198963 
C 296.208815 359.569979 295.355609 359.216569 294.466091 359.216569 
C 293.576573 359.216569 292.723367 359.569979 292.094383 360.198963 
C 291.465399 360.827947 291.111989 361.681153 291.111989 362.570671 
C 291.111989 363.46019 291.465399 364.313395 292.094383 364.94238 
C 292.723367 365.571364 293.576573 365.924773 294.466091 365.924773 
z
" style="fill:#ddf191;fill-opacity:0.3;stroke:#000000;stroke-opacity:0.3;"/>
    <path clip-path="url(#pac7ece265a)" d="M 342.418082 208.810878 
C 343.3076 208.810878 344.160806 208.457469 344.78979 207.828485 
C 345.418774 207.1995 345.772184 206.346295 345.772184 205.456776 
C 345.772184 204.567258 345.418774 203.714053 344.78979 203.085068 
C 344.160806 202.456084 343.3076 202.102675 342.418082 202.102675 
C 341.528564 202.102675 340.675358 202.456084 340.046374 203.085068 
C 339.417389 203.714053 339.06398 204.567258 339.06398 205.456776 
C 339.06398 206.346295 339.417389 207.1995 340.046374 207.828485 
C 340.675358 208.457469 341.528564 208.810878 342.418082 208.810878 
z
" style="fill:#fdb567;fill-opacity:0.3;stroke:#000000;stroke-opacity:0.3;"/>
    <path clip-path="url(#pac7ece265a)" d="M 216.706271 511.929242 
C 217.595789 511.929242 218.448995 511.575832 219.077979 510.946848 
C 219.706964 510.317864 220.060373 509.464658 220.060373 508.57514 
C 220.060373 507.685622 219.706964 506.832416 219.077979 506.203432 
C 218.448995 505.574447 217.595789 505.221038 216.706271 505.221038 
C 215.816753 505.221038 214.963547 505.574447 214.334563 506.203432 
C 213.705579 506.832416 213.352169 507.685622 213.352169 508.57514 
C 213.352169 509.464658 213.705579 510.317864 214.334563 510.946848 
C 214.963547 511.575832 215.816753 511.929242 216.706271 511.929242 
z
" style="fill:#69be63;fill-opacity:0.3;stroke:#000000;stroke-opacity:0.3;"/>
    <path clip-path="url(#pac7ece265a)" d="M 87.128323 501.607422 
C 87.99785 501.607422 88.83188 501.261956 89.446728 500.647108 
C 90.061576 500.03226 90.407042 499.19823 90.407042 498.328703 
C 90.407042 497.459177 90.061576 496.625146 89.446728 496.010298 
C 88.83188 495.39545 87.99785 495.049984 87.128323 495.049984 
C 86.258797 495.049984 85.424767 495.39545 84.809918 496.010298 
C 84.19507 496.625146 83.849604 497.459177 83.849604 498.328703 
C 83.849604 499.19823 84.19507 500.03226 84.809918 500.647108 
C 85.424767 501.261956 86.258797 501.607422 87.128323 501.607422 
z
" style="fill:#70c164;fill-opacity:0.3;stroke:#000000;stroke-opacity:0.3;"/>
    <path clip-path="url(#pac7ece265a)" d="M 186.074717 499.849496 
C 186.934074 499.849496 187.758349 499.50807 188.366005 498.900414 
C 188.973662 498.292757 189.315088 497.468482 189.315088 496.609126 
C 189.315088 495.749769 188.973662 494.925494 188.366005 494.317838 
C 187.758349 493.710181 186.934074 493.368755 186.074717 493.368755 
C 185.215361 493.368755 184.391086 493.710181 183.78343 494.317838 
C 183.175773 494.925494 182.834347 495.749769 182.834347 496.609126 
C 182.834347 497.468482 183.175773 498.292757 183.78343 498.900414 
C 184.391086 499.50807 185.215361 499.849496 186.074717 499.849496 
z
" style="fill:#73c264;fill-opacity:0.3;stroke:#000000;stroke-opacity:0.3;"/>
    <path clip-path="url(#pac7ece265a)" d="M 395.291323 333.690982 
C 396.129969 333.690982 396.934379 333.357785 397.527391 332.764773 
C 398.120403 332.17176 398.4536 331.36735 398.4536 330.528705 
C 398.4536 329.690059 398.120403 328.885649 397.527391 328.292637 
C 396.934379 327.699625 396.129969 327.366427 395.291323 327.366427 
C 394.452677 327.366427 393.648267 327.699625 393.055255 328.292637 
C 392.462243 328.885649 392.129045 329.690059 392.129045 330.528705 
C 392.129045 331.36735 392.462243 332.17176 393.055255 332.764773 
C 393.648267 333.357785 394.452677 333.690982 395.291323 333.690982 
z
" style="fill:#f1f9ac;fill-opacity:0.3;stroke:#000000;stroke-opacity:0.3;"/>
    <path clip-path="url(#pac7ece265a)" d="M 531.942947 82.110914 
C 532.71614 82.110914 533.45777 81.803721 534.0045 81.256991 
C 534.55123 80.710261 534.858423 79.968631 534.858423 79.195438 
C 534.858423 78.422245 534.55123 77.680615 534.0045 77.133885 
C 533.45777 76.587155 532.71614 76.279962 531.942947 76.279962 
C 531.169754 76.279962 530.428124 76.587155 529.881394 77.133885 
C 529.334664 77.680615 529.027471 78.422245 529.027471 79.195438 
C 529.027471 79.968631 529.334664 80.710261 529.881394 81.256991 
C 530.428124 81.803721 531.169754 82.110914 531.942947 82.110914 
z
" style="fill:#a50026;fill-opacity:0.3;stroke:#000000;stroke-opacity:0.3;"/>
    <path clip-path="url(#pac7ece265a)" d="M 341.545427 274.848347 
C 342.307165 274.848347 343.037807 274.545705 343.576437 274.007075 
C 344.115067 273.468445 344.417709 272.737804 344.417709 271.976066 
C 344.417709 271.214328 344.115067 270.483686 343.576437 269.945056 
C 343.037807 269.406426 342.307165 269.103785 341.545427 269.103785 
C 340.783689 269.103785 340.053048 269.406426 339.514418 269.945056 
C 338.975788 270.483686 338.673146 271.214328 338.673146 271.976066 
C 338.673146 272.737804 338.975788 273.468445 339.514418 274.007075 
C 340.053048 274.545705 340.783689 274.848347 341.545427 274.848347 
z
" style="fill:#feec9f;fill-opacity:0.3;stroke:#000000;stroke-opacity:0.3;"/>
    <path clip-path="url(#pac7ece265a)" d="M 415.702008 275.427622 
C 416.41609 275.427622 417.10102 275.143915 417.605952 274.638983 
C 418.110883 274.134051 418.394591 273.449121 418.394591 272.73504 
C 418.394591 272.020959 418.110883 271.336028 417.605952 270.831097 
C 417.10102 270.326165 416.41609 270.042457 415.702008 270.042457 
C 414.987927 270.042457 414.302997 270.326165 413.798065 270.831097 
C 413.293133 271.336028 413.009426 272.020959 413.009426 272.73504 
C 413.009426 273.449121 413.293133 274.134051 413.798065 274.638983 
C 414.302997 275.143915 414.987927 275.427622 415.702008 275.427622 
z
" style="fill:#fff5ae;fill-opacity:0.3;stroke:#000000;stroke-opacity:0.3;"/>
    <path clip-path="url(#pac7ece265a)" d="M 351.23421 336.803544 
C 351.935871 336.803544 352.608889 336.524771 353.105039 336.028622 
C 353.601188 335.532472 353.879961 334.859454 353.879961 334.157793 
C 353.879961 333.456131 353.601188 332.783114 353.105039 332.286964 
C 352.608889 331.790815 351.935871 331.512042 351.23421 331.512042 
C 350.532548 331.512042 349.859531 331.790815 349.363381 332.286964 
C 348.867232 332.783114 348.588459 333.456131 348.588459 334.157793 
C 348.588459 334.859454 348.867232 335.532472 349.363381 336.028622 
C 349.859531 336.524771 350.532548 336.803544 351.23421 336.803544 
z
" style="fill:#e9f6a1;fill-opacity:0.3;stroke:#000000;stroke-opacity:0.3;"/>
    <path clip-path="url(#pac7ece265a)" d="M 286.965827 310.104601 
C 287.641965 310.104601 288.290501 309.835969 288.768603 309.357867 
C 289.246705 308.879766 289.515337 308.23123 289.515337 307.555092 
C 289.515337 306.878954 289.246705 306.230418 288.768603 305.752316 
C 288.290501 305.274214 287.641965 305.005582 286.965827 305.005582 
C 286.289689 305.005582 285.641153 305.274214 285.163052 305.752316 
C 284.68495 306.230418 284.416318 306.878954 284.416318 307.555092 
C 284.416318 308.23123 284.68495 308.879766 285.163052 309.357867 
C 285.641153 309.835969 286.289689 310.104601 286.965827 310.104601 
z
" style="fill:#f5fbb2;fill-opacity:0.3;stroke:#000000;stroke-opacity:0.3;"/>
    <path clip-path="url(#pac7ece265a)" d="M 513.069512 190.794624 
C 513.691468 190.794624 514.288035 190.547518 514.727824 190.107728 
C 515.167614 189.667938 515.41472 189.071372 515.41472 188.449416 
C 515.41472 187.827459 515.167614 187.230893 514.727824 186.791103 
C 514.288035 186.351314 513.691468 186.104208 513.069512 186.104208 
C 512.447555 186.104208 511.850989 186.351314 511.411199 186.791103 
C 510.97141 187.230893 510.724304 187.827459 510.724304 188.449416 
C 510.724304 189.071372 510.97141 189.667938 511.411199 190.107728 
C 511.850989 190.547518 512.447555 190.794624 513.069512 190.794624 
z
" style="fill:#fdad60;fill-opacity:0.3;stroke:#000000;stroke-opacity:0.3;"/>
   </g>
   <g id="line2d_1">
    <path clip-path="url(#pac7ece265a)" d="M 53.912718 675.755829 
L 60.404859 669.218949 
L 66.897 662.68207 
L 73.389141 656.145191 
L 79.881282 649.608311 
L 86.373423 643.071432 
L 92.865564 636.534553 
L 99.357705 629.997673 
L 105.849846 623.460794 
L 112.341987 616.923915 
L 118.834128 610.387035 
L 125.326269 603.850156 
L 131.81841 597.313277 
L 138.310552 590.776397 
L 144.802693 584.239518 
L 151.294834 577.702639 
L 157.786975 571.165759 
L 164.279116 564.62888 
L 170.771257 558.092001 
L 177.263398 551.555121 
L 183.755539 545.018242 
L 190.24768 538.481363 
L 196.739821 531.944483 
L 203.231962 525.407604 
L 209.724103 518.870725 
L 216.216244 512.333845 
L 222.708386 505.796966 
L 229.200527 499.260087 
L 235.692668 492.723207 
L 242.184809 486.186328 
L 248.67695 479.649449 
L 255.169091 473.112569 
L 261.661232 466.57569 
L 268.153373 460.038811 
L 274.645514 453.501931 
L 281.137655 446.965052 
L 287.629796 440.428173 
L 294.121937 433.891293 
L 300.614078 427.354414 
L 307.10622 420.817535 
L 313.598361 414.280655 
L 320.090502 407.743776 
L 326.582643 401.206897 
L 333.074784 394.670017 
L 339.566925 388.133138 
L 346.059066 381.596259 
L 352.551207 375.059379 
L 359.043348 368.5225 
L 365.535489 361.985621 
L 372.02763 355.448741 
L 378.519771 348.911862 
L 385.011912 342.374983 
L 391.504053 335.838103 
L 397.996195 329.301224 
L 404.488336 322.764345 
L 410.980477 316.227465 
L 417.472618 309.690586 
L 423.964759 303.153707 
L 430.4569 296.616827 
L 436.949041 290.079948 
L 443.441182 283.543069 
L 449.933323 277.006189 
L 456.425464 270.46931 
L 462.917605 263.932431 
L 469.409746 257.395551 
L 475.901887 250.858672 
L 482.394029 244.321793 
L 488.88617 237.784913 
L 495.378311 231.248034 
L 501.870452 224.711155 
L 508.362593 218.174275 
L 514.854734 211.637396 
L 521.346875 205.100517 
L 527.839016 198.563637 
L 534.331157 192.026758 
L 540.823298 185.489879 
L 547.315439 178.952999 
L 553.80758 172.41612 
L 560.299721 165.879241 
L 566.791863 159.342361 
L 573.284004 152.805482 
L 579.776145 146.268603 
L 586.268286 139.731723 
L 592.760427 133.194844 
L 599.252568 126.657965 
L 605.744709 120.121085 
L 612.23685 113.584206 
L 618.728991 107.047327 
L 625.221132 100.510447 
L 631.713273 93.973568 
L 638.205414 87.436689 
L 644.697555 80.899809 
L 651.189696 74.36293 
L 657.681838 67.82605 
L 664.173979 61.289171 
L 670.66612 54.752292 
L 677.158261 48.215412 
L 683.650402 41.678533 
L 690.142543 35.141654 
L 696.634684 28.604774 
" style="fill:none;stroke:#0000ff;stroke-dasharray:6.000000,6.000000;stroke-dashoffset:0.0;"/>
   </g>
   <g id="patch_3">
    <path d="M 53.912718 675.755829 
L 696.634684 675.755829 
" style="fill:none;stroke:#000000;stroke-linecap:square;stroke-linejoin:miter;"/>
   </g>
   <g id="patch_4">
    <path d="M 696.634684 675.755829 
L 696.634684 28.604774 
" style="fill:none;stroke:#000000;stroke-linecap:square;stroke-linejoin:miter;"/>
   </g>
   <g id="patch_5">
    <path d="M 53.912718 28.604774 
L 696.634684 28.604774 
" style="fill:none;stroke:#000000;stroke-linecap:square;stroke-linejoin:miter;"/>
   </g>
   <g id="patch_6">
    <path d="M 53.912718 675.755829 
L 53.912718 28.604774 
" style="fill:none;stroke:#000000;stroke-linecap:square;stroke-linejoin:miter;"/>
   </g>
   <g id="matplotlib.axis_1">
    <g id="xtick_1">
     <g id="line2d_2">
      <path clip-path="url(#pac7ece265a)" d="M 53.912718 675.755829 
L 53.912718 28.604774 
" style="fill:none;stroke:#000000;stroke-dasharray:1.000000,3.000000;stroke-dashoffset:0.0;stroke-width:0.5;"/>
     </g>
     <g id="line2d_3">
      <defs>
       <path d="M 0 0 
L 0 -4 
" id="mf44e5d7c0b" style="stroke:#000000;stroke-width:0.5;"/>
      </defs>
      <g>
       <use style="stroke:#000000;stroke-width:0.5;" x="53.9127175922" xlink:href="#mf44e5d7c0b" y="675.755828825"/>
      </g>
     </g>
     <g id="line2d_4">
      <defs>
       <path d="M 0 0 
L 0 4 
" id="m20bbfe76be" style="stroke:#000000;stroke-width:0.5;"/>
      </defs>
      <g>
       <use style="stroke:#000000;stroke-width:0.5;" x="53.9127175922" xlink:href="#m20bbfe76be" y="28.6047744785"/>
      </g>
     </g>
     <g id="text_1">
      <!-- $0.00$ -->
      <defs>
       <path d="M 42 31.640625 
C 42 37.75 41.90625 48.125 37.703125 56.109375 
C 34 63.109375 28.09375 65.59375 22.90625 65.59375 
C 18.09375 65.59375 12 63.40625 8.203125 56.203125 
C 4.203125 48.71875 3.796875 39.4375 3.796875 31.640625 
C 3.796875 25.953125 3.90625 17.28125 7 9.671875 
C 11.296875 -0.609375 19 -2 22.90625 -2 
C 27.5 -2 34.5 -0.109375 38.59375 9.375 
C 41.59375 16.28125 42 24.359375 42 31.640625 
M 22.90625 -0.40625 
C 16.5 -0.40625 12.703125 5.078125 11.296875 12.6875 
C 10.203125 18.5625 10.203125 27.15625 10.203125 32.75 
C 10.203125 40.4375 10.203125 46.828125 11.5 52.921875 
C 13.40625 61.390625 19 64 22.90625 64 
C 27 64 32.296875 61.296875 34.203125 53.125 
C 35.5 47.4375 35.59375 40.734375 35.59375 32.75 
C 35.59375 26.25 35.59375 18.265625 34.40625 12.375 
C 32.296875 1.484375 26.40625 -0.40625 22.90625 -0.40625 
" id="CMR17-48"/>
       <path d="M 18.40625 4.796875 
C 18.40625 7.6875 16 9.671875 13.59375 9.671875 
C 10.703125 9.671875 8.703125 7.28125 8.703125 4.890625 
C 8.703125 2 11.09375 0 13.5 0 
C 16.40625 0 18.40625 2.390625 18.40625 4.796875 
" id="CMMI12-58"/>
      </defs>
      <g transform="translate(43.5074015897 688.626479292)scale(0.12 -0.12)">
       <use transform="scale(0.9962640099626402)" xlink:href="#CMR17-48"/>
       <use transform="translate(45.69047711706103 0.0)scale(0.9962640099626402)" xlink:href="#CMMI12-58"/>
       <use transform="translate(72.78765420688046 0.0)scale(0.9962640099626402)" xlink:href="#CMR17-48"/>
       <use transform="translate(118.47813132394148 0.0)scale(0.9962640099626402)" xlink:href="#CMR17-48"/>
      </g>
     </g>
    </g>
    <g id="xtick_2">
     <g id="line2d_5">
      <path clip-path="url(#pac7ece265a)" d="M 182.457111 675.755829 
L 182.457111 28.604774 
" style="fill:none;stroke:#000000;stroke-dasharray:1.000000,3.000000;stroke-dashoffset:0.0;stroke-width:0.5;"/>
     </g>
     <g id="line2d_6">
      <g>
       <use style="stroke:#000000;stroke-width:0.5;" x="182.457110873" xlink:href="#mf44e5d7c0b" y="675.755828825"/>
      </g>
     </g>
     <g id="line2d_7">
      <g>
       <use style="stroke:#000000;stroke-width:0.5;" x="182.457110873" xlink:href="#m20bbfe76be" y="28.6047744785"/>
      </g>
     </g>
     <g id="text_2">
      <!-- $0.05$ -->
      <defs>
       <path d="M 11.40625 57.6875 
C 12.40625 57.28125 16.5 56 20.703125 56 
C 30 56 35.09375 61.015625 38 63.921875 
C 38 64.734375 38 65.25 37.40625 65.25 
C 37.296875 65.25 37.09375 65.25 36.296875 64.828125 
C 32.796875 63.3125 28.703125 62.078125 23.703125 62.078125 
C 20.703125 62.078125 16.203125 62.5 11.296875 64.734375 
C 10.203125 65.25 10 65.25 9.90625 65.25 
C 9.40625 65.25 9.296875 65.140625 9.296875 63.15625 
L 9.296875 34.28125 
C 9.296875 32.5 9.296875 32 10.296875 32 
C 10.796875 32 11 32.203125 11.5 32.90625 
C 14.703125 37.484375 19.09375 39.40625 24.09375 39.40625 
C 27.59375 39.40625 35.09375 37.21875 35.09375 20.140625 
C 35.09375 16.953125 35.09375 11.171875 32.09375 6.578125 
C 29.59375 2.484375 25.703125 0.390625 21.40625 0.390625 
C 14.796875 0.390625 8.09375 5 6.296875 12.71875 
C 6.703125 12.609375 7.5 12.421875 7.90625 12.421875 
C 9.203125 12.421875 11.703125 13.125 11.703125 16.21875 
C 11.703125 18.90625 9.796875 20 7.90625 20 
C 5.59375 20 4.09375 18.59375 4.09375 15.796875 
C 4.09375 7.09375 11 -2 21.59375 -2 
C 31.90625 -2 41.703125 6.875 41.703125 19.75 
C 41.703125 31.71875 33.90625 41 24.203125 41 
C 19.09375 41 14.796875 39.09375 11.40625 35.453125 
z
" id="CMR17-53"/>
      </defs>
      <g transform="translate(172.051794871 688.626479292)scale(0.12 -0.12)">
       <use transform="scale(0.9962640099626402)" xlink:href="#CMR17-48"/>
       <use transform="translate(45.69047711706103 0.0)scale(0.9962640099626402)" xlink:href="#CMMI12-58"/>
       <use transform="translate(72.78765420688046 0.0)scale(0.9962640099626402)" xlink:href="#CMR17-48"/>
       <use transform="translate(118.47813132394148 0.0)scale(0.9962640099626402)" xlink:href="#CMR17-53"/>
      </g>
     </g>
    </g>
    <g id="xtick_3">
     <g id="line2d_8">
      <path clip-path="url(#pac7ece265a)" d="M 311.001504 675.755829 
L 311.001504 28.604774 
" style="fill:none;stroke:#000000;stroke-dasharray:1.000000,3.000000;stroke-dashoffset:0.0;stroke-width:0.5;"/>
     </g>
     <g id="line2d_9">
      <g>
       <use style="stroke:#000000;stroke-width:0.5;" x="311.001504154" xlink:href="#mf44e5d7c0b" y="675.755828825"/>
      </g>
     </g>
     <g id="line2d_10">
      <g>
       <use style="stroke:#000000;stroke-width:0.5;" x="311.001504154" xlink:href="#m20bbfe76be" y="28.6047744785"/>
      </g>
     </g>
     <g id="text_3">
      <!-- $0.10$ -->
      <defs>
       <path d="M 26.59375 63.3125 
C 26.59375 65.40625 26.5 65.5 25.09375 65.5 
C 21.203125 61.1875 15.296875 59.796875 9.703125 59.796875 
C 9.40625 59.796875 8.90625 59.796875 8.796875 59.5 
C 8.703125 59.296875 8.703125 59.09375 8.703125 57 
C 11.796875 57 17 57.59375 21 59.984375 
L 21 7.203125 
C 21 3.6875 20.796875 2.5 12.203125 2.5 
L 9.203125 2.5 
L 9.203125 0 
C 14 0 19 0 23.796875 0 
C 28.59375 0 33.59375 0 38.40625 0 
L 38.40625 2.5 
L 35.40625 2.5 
C 26.796875 2.5 26.59375 3.59375 26.59375 7.15625 
z
" id="CMR17-49"/>
      </defs>
      <g transform="translate(300.596188152 688.626479292)scale(0.12 -0.12)">
       <use transform="scale(0.9962640099626402)" xlink:href="#CMR17-48"/>
       <use transform="translate(45.69047711706103 0.0)scale(0.9962640099626402)" xlink:href="#CMMI12-58"/>
       <use transform="translate(72.78765420688046 0.0)scale(0.9962640099626402)" xlink:href="#CMR17-49"/>
       <use transform="translate(118.47813132394148 0.0)scale(0.9962640099626402)" xlink:href="#CMR17-48"/>
      </g>
     </g>
    </g>
    <g id="xtick_4">
     <g id="line2d_11">
      <path clip-path="url(#pac7ece265a)" d="M 439.545897 675.755829 
L 439.545897 28.604774 
" style="fill:none;stroke:#000000;stroke-dasharray:1.000000,3.000000;stroke-dashoffset:0.0;stroke-width:0.5;"/>
     </g>
     <g id="line2d_12">
      <g>
       <use style="stroke:#000000;stroke-width:0.5;" x="439.545897435" xlink:href="#mf44e5d7c0b" y="675.755828825"/>
      </g>
     </g>
     <g id="line2d_13">
      <g>
       <use style="stroke:#000000;stroke-width:0.5;" x="439.545897435" xlink:href="#m20bbfe76be" y="28.6047744785"/>
      </g>
     </g>
     <g id="text_4">
      <!-- $0.15$ -->
      <g transform="translate(429.140581433 688.626479292)scale(0.12 -0.12)">
       <use transform="scale(0.9962640099626402)" xlink:href="#CMR17-48"/>
       <use transform="translate(45.69047711706103 0.0)scale(0.9962640099626402)" xlink:href="#CMMI12-58"/>
       <use transform="translate(72.78765420688046 0.0)scale(0.9962640099626402)" xlink:href="#CMR17-49"/>
       <use transform="translate(118.47813132394148 0.0)scale(0.9962640099626402)" xlink:href="#CMR17-53"/>
      </g>
     </g>
    </g>
    <g id="xtick_5">
     <g id="line2d_14">
      <path clip-path="url(#pac7ece265a)" d="M 568.090291 675.755829 
L 568.090291 28.604774 
" style="fill:none;stroke:#000000;stroke-dasharray:1.000000,3.000000;stroke-dashoffset:0.0;stroke-width:0.5;"/>
     </g>
     <g id="line2d_15">
      <g>
       <use style="stroke:#000000;stroke-width:0.5;" x="568.090290716" xlink:href="#mf44e5d7c0b" y="675.755828825"/>
      </g>
     </g>
     <g id="line2d_16">
      <g>
       <use style="stroke:#000000;stroke-width:0.5;" x="568.090290716" xlink:href="#m20bbfe76be" y="28.6047744785"/>
      </g>
     </g>
     <g id="text_5">
      <!-- $0.20$ -->
      <defs>
       <path d="M 41.703125 15.453125 
L 39.90625 15.453125 
C 38.90625 8.375 38.09375 7.171875 37.703125 6.5625 
C 37.203125 5.765625 30 5.765625 28.59375 5.765625 
L 9.40625 5.765625 
C 13 9.671875 20 16.75 28.5 24.953125 
C 34.59375 30.734375 41.703125 37.53125 41.703125 47.421875 
C 41.703125 59.21875 32.296875 66 21.796875 66 
C 10.796875 66 4.09375 56.3125 4.09375 47.34375 
C 4.09375 43.4375 7 42.9375 8.203125 42.9375 
C 9.203125 42.9375 12.203125 43.546875 12.203125 47.03125 
C 12.203125 50.109375 9.59375 51 8.203125 51 
C 7.59375 51 7 50.90625 6.59375 50.703125 
C 8.5 59.21875 14.296875 63.40625 20.40625 63.40625 
C 29.09375 63.40625 34.796875 56.515625 34.796875 47.421875 
C 34.796875 38.734375 29.703125 31.25 24 24.75 
L 4.09375 2.28125 
L 4.09375 0 
L 39.296875 0 
z
" id="CMR17-50"/>
      </defs>
      <g transform="translate(557.684974714 688.626479292)scale(0.12 -0.12)">
       <use transform="scale(0.9962640099626402)" xlink:href="#CMR17-48"/>
       <use transform="translate(45.69047711706103 0.0)scale(0.9962640099626402)" xlink:href="#CMMI12-58"/>
       <use transform="translate(72.78765420688046 0.0)scale(0.9962640099626402)" xlink:href="#CMR17-50"/>
       <use transform="translate(118.47813132394148 0.0)scale(0.9962640099626402)" xlink:href="#CMR17-48"/>
      </g>
     </g>
    </g>
    <g id="xtick_6">
     <g id="line2d_17">
      <path clip-path="url(#pac7ece265a)" d="M 696.634684 675.755829 
L 696.634684 28.604774 
" style="fill:none;stroke:#000000;stroke-dasharray:1.000000,3.000000;stroke-dashoffset:0.0;stroke-width:0.5;"/>
     </g>
     <g id="line2d_18">
      <g>
       <use style="stroke:#000000;stroke-width:0.5;" x="696.634683998" xlink:href="#mf44e5d7c0b" y="675.755828825"/>
      </g>
     </g>
     <g id="line2d_19">
      <g>
       <use style="stroke:#000000;stroke-width:0.5;" x="696.634683998" xlink:href="#m20bbfe76be" y="28.6047744785"/>
      </g>
     </g>
     <g id="text_6">
      <!-- $0.25$ -->
      <g transform="translate(686.229367995 688.626479292)scale(0.12 -0.12)">
       <use transform="scale(0.9962640099626402)" xlink:href="#CMR17-48"/>
       <use transform="translate(45.69047711706103 0.0)scale(0.9962640099626402)" xlink:href="#CMMI12-58"/>
       <use transform="translate(72.78765420688046 0.0)scale(0.9962640099626402)" xlink:href="#CMR17-50"/>
       <use transform="translate(118.47813132394148 0.0)scale(0.9962640099626402)" xlink:href="#CMR17-53"/>
      </g>
     </g>
    </g>
    <g id="text_7">
     <!-- Brier Score by Kaplan-Meier -->
     <defs>
      <path d="M 28.703125 72 
L 2.90625 72 
L 2.90625 67.3125 
L 4.796875 67.3125 
C 12.90625 67.3125 13.796875 66.8125 13.796875 62.59375 
L 13.796875 59.703125 
L 13.796875 21.390625 
C 13.796875 7.78125 11.796875 4.890625 2.203125 4.890625 
L 2.203125 0 
L 30.703125 0 
L 30.703125 4.890625 
C 21.203125 4.890625 19.203125 7.78125 19.203125 21.40625 
L 19.203125 65.625 
L 43 0 
L 47 0 
L 69.296875 65.625 
L 69.296875 12.453125 
L 69.296875 9.5625 
C 69.296875 5.296875 68.40625 4.890625 60.296875 4.890625 
L 58.5 4.890625 
L 58.5 0 
L 91.296875 0 
L 91.296875 4.890625 
L 89.5 4.890625 
C 81.40625 4.890625 80.5 5.296875 80.5 9.5625 
L 80.5 12.453125 
L 80.5 59.75 
L 80.5 62.625 
C 80.5 66.8125 81.40625 67.3125 89.5 67.3125 
L 91.296875 67.3125 
L 91.296875 72 
L 66.203125 72 
L 47.90625 18.84375 
z
" id="Century_Schoolbook_L_Roman-77"/>
      <path d="M 3 72 
L 3 67.3125 
L 4.796875 67.3125 
C 12.90625 67.3125 13.796875 66.8125 13.796875 62.609375 
L 13.796875 59.71875 
L 13.796875 12.28125 
L 13.796875 9.375 
C 13.796875 5.1875 12.90625 4.6875 4.796875 4.6875 
L 3 4.6875 
L 3 0 
L 39.296875 0 
C 56.59375 0 67 7.40625 67 19.59375 
C 67 29.484375 60.59375 35.296875 47 37.6875 
C 51.796875 38.6875 54 39.578125 56.5 41.46875 
C 60.703125 44.546875 63.203125 49.421875 63.203125 54.5 
C 63.203125 60.859375 59.203125 67.125 53.40625 69.609375 
C 49.796875 71.203125 44.796875 72 38.90625 72 
z
M 25 39.6875 
L 25 62.328125 
C 25 66.203125 26.40625 67.3125 31.59375 67.3125 
L 35.59375 67.3125 
C 40.203125 67.3125 44 66.609375 46.09375 65.21875 
C 49.703125 63.03125 51.59375 58.75 51.59375 53.203125 
C 51.59375 43.46875 46.703125 39.6875 33.90625 39.6875 
z
M 25 35 
L 33.796875 35 
C 40.203125 35 44.5 34.390625 47.5 33.09375 
C 52.203125 30.890625 54.703125 26.5 54.703125 19.890625 
C 54.703125 13.59375 52.5 8.890625 48.59375 6.984375 
C 45.5 5.390625 41.296875 4.6875 35 4.6875 
L 30.796875 4.6875 
C 25.703125 4.6875 25 5.484375 25 11 
z
" id="Century_Schoolbook_L_Roman-66"/>
      <path d="M 20.09375 46 
L 2.796875 46 
L 2.796875 41.21875 
L 6.40625 41.21875 
C 10.09375 41.21875 10.703125 40.515625 10.703125 36.21875 
L 10.703125 -7.75 
L 10.703125 -11.71875 
C 10.703125 -15.71875 9.59375 -16.40625 3.203125 -16.40625 
L 2.796875 -16.40625 
L 2.796875 -20 
L 28.796875 -20 
L 28.796875 -16.40625 
L 27.703125 -16.40625 
C 21.203125 -16.40625 20.09375 -15.71875 20.09375 -11.734375 
L 20.09375 -7.75 
L 20.09375 6.6875 
C 23.40625 0.90625 27.203125 -1.390625 33.296875 -1.390625 
C 44.90625 -1.390625 53.5 9.265625 53.5 23.5 
C 53.5 37.265625 44.90625 48 33.90625 48 
C 27.703125 48 23.59375 45.4375 20.09375 39.515625 
z
M 32.09375 42.609375 
C 39 42.609375 43 35.75 43 24.09375 
C 43 11.265625 38.90625 4 31.796875 4 
C 24.703125 4 20 11.375 20 22.8125 
C 20 35.140625 24.5 42.609375 32.09375 42.609375 
" id="Century_Schoolbook_L_Roman-112"/>
      <path d="M 45.203125 32.578125 
C 45.203125 38.796875 44.09375 41.96875 41.203125 44.34375 
C 37.90625 46.90625 33 48.28125 26.59375 48.28125 
C 15.40625 48.28125 7.09375 43.046875 7.09375 35.921875 
C 7.09375 32.15625 9.40625 29.78125 12.90625 29.78125 
C 16 29.78125 18.296875 31.859375 18.296875 34.8125 
C 18.296875 36.109375 17.796875 37.484375 16.796875 38.875 
C 16.203125 39.546875 16.09375 39.84375 16.09375 40.15625 
C 16.09375 42.21875 20.203125 44 25 44 
C 28.09375 44 31.59375 43.015625 33.203125 41.53125 
C 35.09375 39.953125 35.796875 37.578125 35.796875 33.125 
L 35.796875 29.28125 
C 25.296875 27.484375 22.09375 26.6875 17.203125 24.8125 
C 8.59375 21.609375 4.40625 16.9375 4.40625 10.65625 
C 4.40625 3.578125 10.09375 -1 18.90625 -1 
C 25.796875 -1 32 1.859375 36.296875 7.0625 
C 37.90625 1.984375 40.40625 0 45.09375 0 
C 49.59375 0 54.296875 2.90625 54.296875 5.78125 
C 54.296875 6.46875 53.796875 6.96875 53.296875 6.96875 
C 52.90625 6.96875 52.5 6.875 51.796875 6.578125 
C 50.203125 6 49.796875 5.890625 49 5.890625 
C 46.203125 5.890625 45.203125 7.78125 45.203125 12.71875 
z
M 35.796875 20.46875 
C 35.796875 14.46875 35.5 13.078125 33.796875 10.484375 
C 31.296875 6.78125 26.703125 4.296875 22.40625 4.296875 
C 17.90625 4.296875 14.5 7.59375 14.5 12.078125 
C 14.5 16.265625 16.59375 19.265625 21 21.359375 
C 24.09375 22.75 28 23.75 35.796875 25.046875 
z
" id="Century_Schoolbook_L_Roman-97"/>
      <path d="M 4.203125 27.28125 
L 4.203125 19 
L 29.09375 19 
L 29.09375 27.28125 
z
" id="Century_Schoolbook_L_Roman-45"/>
      <path d="M 20.59375 46 
L 1.796875 46 
L 1.796875 41.21875 
L 6.90625 41.21875 
C 10.59375 41.21875 11.203125 40.515625 11.203125 36.203125 
L 11.203125 12.296875 
L 11.203125 8.296875 
C 11.203125 4.296875 10.09375 3.59375 3.703125 3.59375 
L 3 3.59375 
L 3 0 
L 28.90625 0 
L 28.90625 3.59375 
L 28.203125 3.59375 
C 21.703125 3.59375 20.59375 4.28125 20.59375 8.21875 
L 20.59375 12.171875 
z
M 15.90625 71.578125 
C 12.703125 71.578125 10.09375 68.984375 10.09375 65.796875 
C 10.09375 62.703125 12.703125 60 15.796875 60 
C 19.09375 60 21.703125 62.59375 21.703125 65.796875 
C 21.703125 68.984375 19.09375 71.578125 15.90625 71.578125 
" id="Century_Schoolbook_L_Roman-105"/>
      <path d="M 19.796875 46 
L 2.09375 46 
L 2.09375 41.21875 
L 6.203125 41.21875 
C 9.90625 41.21875 10.5 40.515625 10.5 36.203125 
L 10.5 12.296875 
L 10.5 8.296875 
C 10.5 4.296875 9.40625 3.59375 2.90625 3.59375 
L 2.5 3.59375 
L 2.5 0 
L 29.203125 0 
L 29.203125 3.59375 
L 27.296875 3.59375 
C 20.90625 3.59375 19.796875 4.296875 19.796875 8.296875 
L 19.796875 12.296875 
L 19.796875 13.296875 
C 19.796875 20.8125 21.203125 28.40625 23.703125 34.109375 
C 26.09375 39.703125 29.5 42.8125 33.703125 43.3125 
C 32.296875 41.703125 31.90625 40.6875 31.90625 38.765625 
C 31.90625 35.546875 34.203125 33.234375 37.40625 33.234375 
C 41 33.234375 43.5 35.9375 43.5 40.015625 
C 43.5 44.8125 40.09375 48 34.796875 48 
C 28.5 48 23 42.921875 19.796875 34.140625 
z
" id="Century_Schoolbook_L_Roman-114"/>
      <path d="M 54.59375 72 
L 50.90625 72 
L 46.90625 66.09375 
C 42.203125 70.59375 35.796875 73 28.703125 73 
C 15.59375 73 6.796875 64.609375 6.796875 52.15625 
C 6.796875 41.28125 12.203125 35.890625 26.90625 32.109375 
L 36.40625 29.703125 
C 43.796875 27.828125 44.5 27.625 46.59375 26.03125 
C 49.59375 23.734375 51.203125 20.4375 51.203125 16.546875 
C 51.203125 12.5625 49.703125 9.28125 46.703125 6.59375 
C 43.40625 3.6875 40.09375 2.59375 34.59375 2.59375 
C 27.203125 2.59375 21.90625 4.875 17.203125 10.03125 
C 13 14.703125 10.90625 19.375 9.40625 27 
L 5.09375 27 
L 5.5 -1.4375 
L 9.40625 -1.4375 
L 13.90625 5.46875 
C 20.59375 0 26.203125 -2 34.90625 -2 
C 49.59375 -2 59 6.59375 59 19.9375 
C 59 26.109375 56.90625 31.40625 53 35.203125 
C 50.296875 37.796875 46.40625 39.484375 38.40625 41.484375 
L 27.703125 44.171875 
C 18.796875 46.46875 14.59375 50.359375 14.59375 56.4375 
C 14.59375 63.40625 20.296875 68.203125 28.796875 68.203125 
C 35.796875 68.203125 41.5 65.1875 45.5 59.484375 
C 48.40625 55.375 50.203125 51.15625 51.5 46.046875 
L 55.796875 46.046875 
z
" id="Century_Schoolbook_L_Roman-83"/>
      <path d="M 46.5 23 
C 46.59375 37.8125 38.09375 48.28125 25.90625 48.28125 
C 13.09375 48.28125 3.5 37.25 3.5 22.34375 
C 3.5 8.4375 12.59375 -1 26.09375 -1 
C 35.59375 -1 42.40625 3.6875 46.5 13.1875 
L 43 15.09375 
C 38.90625 7.390625 34.703125 4.390625 28 4.390625 
C 22.90625 4.390625 19.203125 6.59375 16.59375 11 
C 14.796875 14 14 17.5 14.09375 23 
z
M 14.203125 27.296875 
C 14.203125 30.34375 14.59375 32.5 15.59375 35.25 
C 17.703125 41.140625 20.90625 44 25.703125 44 
C 31.796875 44 35.796875 38.78125 35.796875 30.921875 
C 35.796875 28.078125 34.90625 27.296875 31.703125 27.296875 
z
" id="Century_Schoolbook_L_Roman-101"/>
      <path d="M 20 46 
L 2.703125 46 
L 2.703125 41.21875 
L 6.296875 41.21875 
C 10 41.21875 10.59375 40.515625 10.59375 36.203125 
L 10.59375 12.296875 
L 10.59375 8.296875 
C 10.59375 4.296875 9.5 3.59375 3.09375 3.59375 
L 2.703125 3.59375 
L 2.703125 0 
L 28 0 
L 28 3.59375 
L 27.59375 3.59375 
C 21.09375 3.59375 20 4.296875 20 8.28125 
L 20 12.28125 
L 20 22.65625 
C 20 27.546875 20.703125 32.03125 21.796875 34.328125 
C 23.90625 38.828125 28.40625 41.921875 32.703125 41.921875 
C 35.296875 41.921875 38.296875 40.421875 39.796875 38.421875 
C 41.296875 36.328125 42 33.234375 42 28.4375 
L 42 12.28125 
L 42 8.28125 
C 42 4.296875 40.90625 3.59375 34.40625 3.59375 
L 34 3.59375 
L 34 0 
L 59.296875 0 
L 59.296875 3.59375 
L 58.90625 3.59375 
C 52.5 3.59375 51.40625 4.296875 51.40625 8.28125 
L 51.40625 12.28125 
L 51.40625 27.953125 
C 51.40625 35.125 51.09375 36.921875 49.296875 40.328125 
C 46.796875 45.109375 41.703125 48 35.796875 48 
C 29.40625 48 24.40625 45.046875 20 38.515625 
z
" id="Century_Schoolbook_L_Roman-110"/>
      <path d="M 25.203125 48.28125 
C 13 48.28125 3.40625 37.453125 3.40625 23.546875 
C 3.40625 9.9375 13 -1 25 -1 
C 37 -1 46.59375 9.9375 46.59375 23.640625 
C 46.59375 37.25 37 48.28125 25.203125 48.28125 
M 25.203125 44 
C 32.203125 44 36.09375 36.734375 36.09375 23.640625 
C 36.09375 10.453125 32.203125 3.296875 25 3.296875 
C 17.796875 3.296875 13.90625 10.453125 13.90625 23.546875 
C 13.90625 37.046875 17.703125 44 25.203125 44 
" id="Century_Schoolbook_L_Roman-111"/>
      <path d="M 18 73 
L 0.796875 73 
L 0.796875 68.21875 
L 4.296875 68.21875 
C 8 68.21875 8.59375 67.515625 8.59375 63.25 
L 8.59375 24.625 
C 8.59375 11.3125 8.09375 4.84375 6.796875 -1 
L 10.59375 -1 
L 15.5 6.75 
C 19.59375 1.453125 24.296875 -1 30.5 -1 
C 42.796875 -1 52 9.59375 52 23.828125 
C 52 38.078125 43.59375 48.078125 31.59375 48.078125 
C 25.5 48.078125 21.796875 46 18 40.328125 
z
M 29.796875 43 
C 37.296875 43 41.5 35.765625 41.5 22.796875 
C 41.5 10.3125 37.40625 3.1875 30.09375 3.1875 
C 22.203125 3.1875 17.5 10.40625 17.5 22.59375 
C 17.5 35.765625 21.796875 43 29.796875 43 
" id="Century_Schoolbook_L_Roman-98"/>
      <path d="M 38.703125 15.109375 
C 35.5 7.96875 32.09375 5.09375 26.90625 5.09375 
C 18.90625 5.09375 13.90625 12.328125 13.90625 23.9375 
C 13.90625 35.953125 18.796875 44 26.203125 44 
C 29.203125 44 31.796875 42.59375 31.796875 41.015625 
C 31.796875 40.71875 31.59375 40.421875 31.203125 39.8125 
C 29.59375 37.9375 29.203125 36.9375 29.203125 35.265625 
C 29.203125 31.984375 31.703125 29.703125 35.203125 29.703125 
C 38.703125 29.703125 41.296875 32.484375 41.296875 36.453125 
C 41.296875 43.109375 34.59375 48.28125 25.703125 48.28125 
C 12.703125 48.28125 3.40625 37.65625 3.40625 22.84375 
C 3.40625 8.734375 11.90625 -1 24.296875 -1 
C 33.203125 -1 38.296875 3.078125 42.59375 13.625 
z
" id="Century_Schoolbook_L_Roman-99"/>
      <path d="M 25 32.609375 
L 25 59.71875 
L 25 62.609375 
C 25 66.8125 25.90625 67.3125 34 67.3125 
L 35.90625 67.3125 
L 35.90625 72 
L 3 72 
L 3 67.3125 
L 4.796875 67.3125 
C 12.90625 67.3125 13.796875 66.8125 13.796875 62.609375 
L 13.796875 59.71875 
L 13.796875 12.28125 
L 13.796875 9.375 
C 13.796875 5.1875 12.90625 4.6875 4.796875 4.6875 
L 3 4.6875 
L 3 0 
L 35.90625 0 
L 35.90625 4.6875 
L 34 4.6875 
C 25.90625 4.6875 25 5.1875 25 9.375 
L 25 12.28125 
L 25 24.9375 
L 36.59375 36.59375 
L 54 11.171875 
C 55.59375 8.78125 56 7.984375 56 6.984375 
C 56 5.390625 54.09375 4.6875 49.203125 4.6875 
L 46.09375 4.6875 
L 46.09375 0 
L 80.296875 0 
L 80.296875 4.6875 
L 78.40625 4.6875 
C 72.90625 4.6875 71.5 5.390625 68.59375 9.6875 
L 44.40625 44.46875 
L 59.296875 59.328125 
C 64.09375 64.40625 70.203125 67.3125 76.203125 67.3125 
L 76.203125 72 
L 45.40625 72 
L 45.40625 67.3125 
L 47.90625 67.3125 
C 52.5 67.3125 54.40625 66.40625 54.40625 64.3125 
C 54.40625 62.921875 52.40625 60.015625 49.5 57.140625 
z
" id="Century_Schoolbook_L_Roman-75"/>
      <path d="M 20.40625 73 
L 1.90625 73 
L 1.90625 68.21875 
L 6.796875 68.21875 
C 10.40625 68.21875 11 67.515625 11 63.21875 
L 11 12.28125 
L 11 8.28125 
C 11 4.296875 9.90625 3.59375 3.5 3.59375 
L 2.796875 3.59375 
L 2.796875 0 
L 28.703125 0 
L 28.703125 3.59375 
L 28 3.59375 
C 21.5 3.59375 20.40625 4.296875 20.40625 8.25 
L 20.40625 12.21875 
z
" id="Century_Schoolbook_L_Roman-108"/>
      <path d="M 30 13.203125 
L 19 38.8125 
C 18.59375 39.703125 18.40625 40.40625 18.40625 40.90625 
C 18.40625 42.703125 19.59375 43.40625 23 43.40625 
L 25.09375 43.40625 
L 25.09375 47 
L 1.296875 47 
L 1.296875 43.40625 
L 2.40625 43.40625 
C 5.59375 43.40625 7.40625 42 9.203125 38.015625 
L 25.5 1.234375 
L 23.796875 -2.265625 
C 20.203125 -9.828125 15.5 -15.109375 12.296875 -15.109375 
C 11.40625 -15.109375 10.703125 -14.703125 10.703125 -14.109375 
C 10.703125 -13.90625 10.796875 -13.609375 10.90625 -13.203125 
C 11.203125 -12.3125 11.40625 -11.421875 11.40625 -10.625 
C 11.40625 -8.03125 9.203125 -6.140625 6.296875 -6.140625 
C 2.796875 -6.140625 0.296875 -8.734375 0.296875 -12.328125 
C 0.296875 -16.703125 4.203125 -20 9.40625 -20 
C 14.703125 -20 19.203125 -17.40625 23.203125 -12.03125 
C 26.296875 -7.84375 28.296875 -3.84375 32.703125 7.21875 
L 44.09375 35.328125 
C 46.59375 41.40625 48.703125 43.40625 52.5 43.40625 
L 53.09375 43.40625 
L 53.09375 47 
L 33.09375 47 
L 33.09375 43.40625 
L 34.703125 43.40625 
C 38.5 43.40625 40.09375 42.296875 40.09375 39.703125 
C 40.09375 38.703125 39.796875 37.421875 39.09375 35.734375 
z
" id="Century_Schoolbook_L_Roman-121"/>
     </defs>
     <g transform="translate(295.796616266 704.768564879)scale(0.12 -0.12)">
      <use transform="scale(0.9962640099626402)" xlink:href="#Century_Schoolbook_L_Roman-66"/>
      <use transform="translate(71.92998484686333 0.0)scale(0.9962640099626402)" xlink:href="#Century_Schoolbook_L_Roman-114"/>
      <use transform="translate(116.16355354432598 0.0)scale(0.9962640099626402)" xlink:href="#Century_Schoolbook_L_Roman-105"/>
      <use transform="translate(147.54486654051215 0.0)scale(0.9962640099626402)" xlink:href="#Century_Schoolbook_L_Roman-101"/>
      <use transform="translate(197.35806703864418 0.0)scale(0.9962640099626402)" xlink:href="#Century_Schoolbook_L_Roman-114"/>
      <use transform="translate(269.28680533935244 0.0)scale(0.9962640099626402)" xlink:href="#Century_Schoolbook_L_Roman-83"/>
      <use transform="translate(332.0507842903565 0.0)scale(0.9962640099626402)" xlink:href="#Century_Schoolbook_L_Roman-99"/>
      <use transform="translate(376.28435298781915 0.0)scale(0.9962640099626402)" xlink:href="#Century_Schoolbook_L_Roman-111"/>
      <use transform="translate(426.09755348595115 0.0)scale(0.9962640099626402)" xlink:href="#Century_Schoolbook_L_Roman-114"/>
      <use transform="translate(470.3311221834138 0.0)scale(0.9962640099626402)" xlink:href="#Century_Schoolbook_L_Roman-101"/>
      <use transform="translate(547.8394922847915 0.0)scale(0.9962640099626402)" xlink:href="#Century_Schoolbook_L_Roman-98"/>
      <use transform="translate(603.2311692481321 0.0)scale(0.9962640099626402)" xlink:href="#Century_Schoolbook_L_Roman-121"/>
      <use transform="translate(684.4256827424502 0.0)scale(0.9962640099626402)" xlink:href="#Century_Schoolbook_L_Roman-75"/>
      <use transform="translate(761.9340528438279 0.0)scale(0.9962640099626402)" xlink:href="#Century_Schoolbook_L_Roman-97"/>
      <use transform="translate(817.3257298071685 0.0)scale(0.9962640099626402)" xlink:href="#Century_Schoolbook_L_Roman-112"/>
      <use transform="translate(874.5112170911816 0.0)scale(0.9962640099626402)" xlink:href="#Century_Schoolbook_L_Roman-108"/>
      <use transform="translate(905.8925300873677 0.0)scale(0.9962640099626402)" xlink:href="#Century_Schoolbook_L_Roman-97"/>
      <use transform="translate(961.2842070507083 0.0)scale(0.9962640099626402)" xlink:href="#Century_Schoolbook_L_Roman-110"/>
      <use transform="translate(1022.155837727662 0.0)scale(0.9962640099626402)" xlink:href="#Century_Schoolbook_L_Roman-45"/>
      <use transform="translate(1055.3310674569973 0.0)scale(0.9962640099626402)" xlink:href="#Century_Schoolbook_L_Roman-77"/>
      <use transform="translate(1149.377836652592 0.0)scale(0.9962640099626402)" xlink:href="#Century_Schoolbook_L_Roman-101"/>
      <use transform="translate(1199.191037150724 0.0)scale(0.9962640099626402)" xlink:href="#Century_Schoolbook_L_Roman-105"/>
      <use transform="translate(1230.5723501469101 0.0)scale(0.9962640099626402)" xlink:href="#Century_Schoolbook_L_Roman-101"/>
      <use transform="translate(1280.3855506450423 0.0)scale(0.9962640099626402)" xlink:href="#Century_Schoolbook_L_Roman-114"/>
     </g>
    </g>
   </g>
   <g id="matplotlib.axis_2">
    <g id="ytick_1">
     <g id="line2d_20">
      <path clip-path="url(#pac7ece265a)" d="M 53.912718 675.755829 
L 696.634684 675.755829 
" style="fill:none;stroke:#000000;stroke-dasharray:1.000000,3.000000;stroke-dashoffset:0.0;stroke-width:0.5;"/>
     </g>
     <g id="line2d_21">
      <defs>
       <path d="M 0 0 
L 4 0 
" id="mf2ea85c701" style="stroke:#000000;stroke-width:0.5;"/>
      </defs>
      <g>
       <use style="stroke:#000000;stroke-width:0.5;" x="53.9127175922" xlink:href="#mf2ea85c701" y="675.755828825"/>
      </g>
     </g>
     <g id="line2d_22">
      <defs>
       <path d="M 0 0 
L -4 0 
" id="m865ddda82a" style="stroke:#000000;stroke-width:0.5;"/>
      </defs>
      <g>
       <use style="stroke:#000000;stroke-width:0.5;" x="696.634683998" xlink:href="#m865ddda82a" y="675.755828825"/>
      </g>
     </g>
     <g id="text_8">
      <!-- $0.00$ -->
      <g transform="translate(29.1020855873 679.055436498)scale(0.12 -0.12)">
       <use transform="scale(0.9962640099626402)" xlink:href="#CMR17-48"/>
       <use transform="translate(45.69047711706103 0.0)scale(0.9962640099626402)" xlink:href="#CMMI12-58"/>
       <use transform="translate(72.78765420688046 0.0)scale(0.9962640099626402)" xlink:href="#CMR17-48"/>
       <use transform="translate(118.47813132394148 0.0)scale(0.9962640099626402)" xlink:href="#CMR17-48"/>
      </g>
     </g>
    </g>
    <g id="ytick_2">
     <g id="line2d_23">
      <path clip-path="url(#pac7ece265a)" d="M 53.912718 546.325618 
L 696.634684 546.325618 
" style="fill:none;stroke:#000000;stroke-dasharray:1.000000,3.000000;stroke-dashoffset:0.0;stroke-width:0.5;"/>
     </g>
     <g id="line2d_24">
      <g>
       <use style="stroke:#000000;stroke-width:0.5;" x="53.9127175922" xlink:href="#mf2ea85c701" y="546.325617956"/>
      </g>
     </g>
     <g id="line2d_25">
      <g>
       <use style="stroke:#000000;stroke-width:0.5;" x="696.634683998" xlink:href="#m865ddda82a" y="546.325617956"/>
      </g>
     </g>
     <g id="text_9">
      <!-- $0.05$ -->
      <g transform="translate(29.1020855873 549.625225629)scale(0.12 -0.12)">
       <use transform="scale(0.9962640099626402)" xlink:href="#CMR17-48"/>
       <use transform="translate(45.69047711706103 0.0)scale(0.9962640099626402)" xlink:href="#CMMI12-58"/>
       <use transform="translate(72.78765420688046 0.0)scale(0.9962640099626402)" xlink:href="#CMR17-48"/>
       <use transform="translate(118.47813132394148 0.0)scale(0.9962640099626402)" xlink:href="#CMR17-53"/>
      </g>
     </g>
    </g>
    <g id="ytick_3">
     <g id="line2d_26">
      <path clip-path="url(#pac7ece265a)" d="M 53.912718 416.895407 
L 696.634684 416.895407 
" style="fill:none;stroke:#000000;stroke-dasharray:1.000000,3.000000;stroke-dashoffset:0.0;stroke-width:0.5;"/>
     </g>
     <g id="line2d_27">
      <g>
       <use style="stroke:#000000;stroke-width:0.5;" x="53.9127175922" xlink:href="#mf2ea85c701" y="416.895407087"/>
      </g>
     </g>
     <g id="line2d_28">
      <g>
       <use style="stroke:#000000;stroke-width:0.5;" x="696.634683998" xlink:href="#m865ddda82a" y="416.895407087"/>
      </g>
     </g>
     <g id="text_10">
      <!-- $0.10$ -->
      <g transform="translate(29.1020855873 420.195014759)scale(0.12 -0.12)">
       <use transform="scale(0.9962640099626402)" xlink:href="#CMR17-48"/>
       <use transform="translate(45.69047711706103 0.0)scale(0.9962640099626402)" xlink:href="#CMMI12-58"/>
       <use transform="translate(72.78765420688046 0.0)scale(0.9962640099626402)" xlink:href="#CMR17-49"/>
       <use transform="translate(118.47813132394148 0.0)scale(0.9962640099626402)" xlink:href="#CMR17-48"/>
      </g>
     </g>
    </g>
    <g id="ytick_4">
     <g id="line2d_29">
      <path clip-path="url(#pac7ece265a)" d="M 53.912718 287.465196 
L 696.634684 287.465196 
" style="fill:none;stroke:#000000;stroke-dasharray:1.000000,3.000000;stroke-dashoffset:0.0;stroke-width:0.5;"/>
     </g>
     <g id="line2d_30">
      <g>
       <use style="stroke:#000000;stroke-width:0.5;" x="53.9127175922" xlink:href="#mf2ea85c701" y="287.465196217"/>
      </g>
     </g>
     <g id="line2d_31">
      <g>
       <use style="stroke:#000000;stroke-width:0.5;" x="696.634683998" xlink:href="#m865ddda82a" y="287.465196217"/>
      </g>
     </g>
     <g id="text_11">
      <!-- $0.15$ -->
      <g transform="translate(29.1020855873 290.76480389)scale(0.12 -0.12)">
       <use transform="scale(0.9962640099626402)" xlink:href="#CMR17-48"/>
       <use transform="translate(45.69047711706103 0.0)scale(0.9962640099626402)" xlink:href="#CMMI12-58"/>
       <use transform="translate(72.78765420688046 0.0)scale(0.9962640099626402)" xlink:href="#CMR17-49"/>
       <use transform="translate(118.47813132394148 0.0)scale(0.9962640099626402)" xlink:href="#CMR17-53"/>
      </g>
     </g>
    </g>
    <g id="ytick_5">
     <g id="line2d_32">
      <path clip-path="url(#pac7ece265a)" d="M 53.912718 158.034985 
L 696.634684 158.034985 
" style="fill:none;stroke:#000000;stroke-dasharray:1.000000,3.000000;stroke-dashoffset:0.0;stroke-width:0.5;"/>
     </g>
     <g id="line2d_33">
      <g>
       <use style="stroke:#000000;stroke-width:0.5;" x="53.9127175922" xlink:href="#mf2ea85c701" y="158.034985348"/>
      </g>
     </g>
     <g id="line2d_34">
      <g>
       <use style="stroke:#000000;stroke-width:0.5;" x="696.634683998" xlink:href="#m865ddda82a" y="158.034985348"/>
      </g>
     </g>
     <g id="text_12">
      <!-- $0.20$ -->
      <g transform="translate(29.1020855873 161.33459302)scale(0.12 -0.12)">
       <use transform="scale(0.9962640099626402)" xlink:href="#CMR17-48"/>
       <use transform="translate(45.69047711706103 0.0)scale(0.9962640099626402)" xlink:href="#CMMI12-58"/>
       <use transform="translate(72.78765420688046 0.0)scale(0.9962640099626402)" xlink:href="#CMR17-50"/>
       <use transform="translate(118.47813132394148 0.0)scale(0.9962640099626402)" xlink:href="#CMR17-48"/>
      </g>
     </g>
    </g>
    <g id="ytick_6">
     <g id="line2d_35">
      <path clip-path="url(#pac7ece265a)" d="M 53.912718 28.604774 
L 696.634684 28.604774 
" style="fill:none;stroke:#000000;stroke-dasharray:1.000000,3.000000;stroke-dashoffset:0.0;stroke-width:0.5;"/>
     </g>
     <g id="line2d_36">
      <g>
       <use style="stroke:#000000;stroke-width:0.5;" x="53.9127175922" xlink:href="#mf2ea85c701" y="28.6047744785"/>
      </g>
     </g>
     <g id="line2d_37">
      <g>
       <use style="stroke:#000000;stroke-width:0.5;" x="696.634683998" xlink:href="#m865ddda82a" y="28.6047744785"/>
      </g>
     </g>
     <g id="text_13">
      <!-- $0.25$ -->
      <g transform="translate(29.1020855873 31.9043821509)scale(0.12 -0.12)">
       <use transform="scale(0.9962640099626402)" xlink:href="#CMR17-48"/>
       <use transform="translate(45.69047711706103 0.0)scale(0.9962640099626402)" xlink:href="#CMMI12-58"/>
       <use transform="translate(72.78765420688046 0.0)scale(0.9962640099626402)" xlink:href="#CMR17-50"/>
       <use transform="translate(118.47813132394148 0.0)scale(0.9962640099626402)" xlink:href="#CMR17-53"/>
      </g>
     </g>
    </g>
    <g id="text_14">
     <!-- Brier Score by Survival Rate -->
     <defs>
      <path d="M 19.40625 47 
L 19.40625 67 
L 15.296875 67 
C 14.296875 53.875 9.90625 47.1875 1.796875 46.59375 
L 1.796875 42.703125 
L 10 42.703125 
L 10 17.265625 
C 10 10.28125 10.203125 7.78125 11.203125 5.484375 
C 12.796875 1.296875 16.796875 -1 22.59375 -1 
C 26.5 -1 29.90625 0.203125 32.203125 2.390625 
C 35.5 5.59375 37.40625 10.875 37.40625 16.375 
C 37.40625 16.96875 37.40625 17.671875 37.296875 18.671875 
L 33.09375 18.671875 
C 32.796875 9.6875 30.203125 5.09375 25.296875 5.09375 
C 23 5.09375 21 6.28125 20.296875 7.984375 
C 19.703125 9.375 19.40625 11.875 19.40625 15.46875 
L 19.40625 42.703125 
L 34.09375 42.703125 
L 34.09375 47 
z
" id="Century_Schoolbook_L_Roman-116"/>
      <path d="M 41.203125 0 
L 59.40625 0 
L 59.40625 4.703125 
L 56.90625 4.703125 
C 51.40625 4.703125 50.59375 5.59375 50.59375 11.953125 
L 50.59375 46.78125 
L 31.796875 46.78125 
L 31.796875 42 
L 36.90625 42 
C 40.59375 42 41.203125 41.296875 41.203125 36.953125 
L 41.203125 24.5625 
C 41.203125 18.8125 40.59375 15.484375 39.09375 12.15625 
C 37 7.71875 33 5.09375 28.09375 5.09375 
C 25 5.09375 22.40625 6.1875 21.09375 8.171875 
C 19.796875 10.046875 19.59375 11.046875 19.59375 16.5 
L 19.59375 46.78125 
L 2.09375 46.78125 
L 2.09375 42 
L 5.90625 42 
C 9.59375 42 10.203125 41.296875 10.203125 36.953125 
L 10.203125 15.21875 
C 10.203125 10.078125 10.59375 7.765625 12.09375 5.453125 
C 14.796875 1.3125 19.59375 -1 25.59375 -1 
C 32.203125 -1 36.796875 1.71875 41.203125 8.125 
z
" id="Century_Schoolbook_L_Roman-117"/>
      <path d="M 24.59375 35 
L 30.40625 35 
C 34.296875 35 38.296875 33.796875 40.5 31.984375 
C 43.40625 29.6875 44.90625 26.078125 45.59375 19.46875 
L 46.09375 14.34375 
C 47.296875 3.015625 51 -1.59375 58.90625 -1.59375 
C 67.09375 -1.59375 71 3.921875 71.296875 15.921875 
L 67.09375 15.921875 
C 66.703125 9 65.5 6 62.796875 6 
C 60.5 6 59.5 7.703125 57.796875 14.625 
L 56.203125 20.9375 
C 54 30.171875 50.09375 34.375 42.296875 36.390625 
C 56.703125 38.390625 63.59375 44.140625 63.59375 54.1875 
C 63.59375 65.53125 54 72 37.203125 72 
L 2.59375 72 
L 2.59375 67.3125 
L 4.40625 67.3125 
C 12.5 67.3125 13.40625 66.8125 13.40625 62.609375 
L 13.40625 59.71875 
L 13.40625 12.171875 
L 13.40625 9.375 
C 13.40625 5.1875 12.5 4.6875 4.40625 4.6875 
L 2.59375 4.6875 
L 2.59375 0 
L 35.40625 0 
L 35.40625 4.6875 
L 33.59375 4.6875 
C 25.5 4.6875 24.59375 5.1875 24.59375 9.390625 
L 24.59375 12.1875 
z
M 24.59375 39.6875 
L 24.59375 61.546875 
C 24.59375 65.53125 24.703125 65.8125 25.703125 66.609375 
C 26.5 67.203125 27.203125 67.3125 31.5 67.3125 
L 36.90625 67.3125 
C 46.796875 67.3125 51.296875 63.125 51.296875 54.09375 
C 51.296875 49.015625 50 45.140625 47.40625 43.0625 
C 44.90625 40.984375 40.40625 39.6875 35.59375 39.6875 
z
" id="Century_Schoolbook_L_Roman-82"/>
      <path d="M 29.5 12.09375 
L 18.09375 38.59375 
C 17.796875 39.203125 17.59375 40.09375 17.59375 40.703125 
C 17.59375 42.390625 18.90625 43 23 43 
L 24.40625 43 
L 24.40625 46.59375 
L 0.796875 46.59375 
L 0.796875 43 
L 1.59375 43 
C 5.40625 43 6.796875 42.09375 8.203125 38.703125 
L 25.40625 -1.5 
L 28.90625 -1.5 
L 43.09375 33.59375 
C 45.796875 40.203125 48.59375 43 52.40625 43 
L 52.796875 43 
L 52.796875 46.59375 
L 32.796875 46.59375 
L 32.796875 43 
L 34.203125 43 
C 37.703125 43 39.59375 41.796875 39.59375 39.5 
C 39.59375 38.390625 39.203125 36.796875 38.703125 35.296875 
z
" id="Century_Schoolbook_L_Roman-118"/>
     </defs>
     <g transform="translate(21.830650466 431.442121342)rotate(-90.0)scale(0.12 -0.12)">
      <use transform="scale(0.9962640099626402)" xlink:href="#Century_Schoolbook_L_Roman-66"/>
      <use transform="translate(71.92998484686333 0.0)scale(0.9962640099626402)" xlink:href="#Century_Schoolbook_L_Roman-114"/>
      <use transform="translate(116.16355354432598 0.0)scale(0.9962640099626402)" xlink:href="#Century_Schoolbook_L_Roman-105"/>
      <use transform="translate(147.54486654051215 0.0)scale(0.9962640099626402)" xlink:href="#Century_Schoolbook_L_Roman-101"/>
      <use transform="translate(197.35806703864418 0.0)scale(0.9962640099626402)" xlink:href="#Century_Schoolbook_L_Roman-114"/>
      <use transform="translate(269.28680533935244 0.0)scale(0.9962640099626402)" xlink:href="#Century_Schoolbook_L_Roman-83"/>
      <use transform="translate(332.0507842903565 0.0)scale(0.9962640099626402)" xlink:href="#Century_Schoolbook_L_Roman-99"/>
      <use transform="translate(376.28435298781915 0.0)scale(0.9962640099626402)" xlink:href="#Century_Schoolbook_L_Roman-111"/>
      <use transform="translate(426.09755348595115 0.0)scale(0.9962640099626402)" xlink:href="#Century_Schoolbook_L_Roman-114"/>
      <use transform="translate(470.3311221834138 0.0)scale(0.9962640099626402)" xlink:href="#Century_Schoolbook_L_Roman-101"/>
      <use transform="translate(547.8394922847915 0.0)scale(0.9962640099626402)" xlink:href="#Century_Schoolbook_L_Roman-98"/>
      <use transform="translate(603.2311692481321 0.0)scale(0.9962640099626402)" xlink:href="#Century_Schoolbook_L_Roman-121"/>
      <use transform="translate(684.4256827424502 0.0)scale(0.9962640099626402)" xlink:href="#Century_Schoolbook_L_Roman-83"/>
      <use transform="translate(747.1896616934544 0.0)scale(0.9962640099626402)" xlink:href="#Century_Schoolbook_L_Roman-117"/>
      <use transform="translate(808.061292370408 0.0)scale(0.9962640099626402)" xlink:href="#Century_Schoolbook_L_Roman-114"/>
      <use transform="translate(852.2948610678706 0.0)scale(0.9962640099626402)" xlink:href="#Century_Schoolbook_L_Roman-118"/>
      <use transform="translate(905.7942049589432 0.0)scale(0.9962640099626402)" xlink:href="#Century_Schoolbook_L_Roman-105"/>
      <use transform="translate(937.1755179551293 0.0)scale(0.9962640099626402)" xlink:href="#Century_Schoolbook_L_Roman-118"/>
      <use transform="translate(990.6748618462018 0.0)scale(0.9962640099626402)" xlink:href="#Century_Schoolbook_L_Roman-97"/>
      <use transform="translate(1046.0665388095424 0.0)scale(0.9962640099626402)" xlink:href="#Century_Schoolbook_L_Roman-108"/>
      <use transform="translate(1105.1430214089742 0.0)scale(0.9962640099626402)" xlink:href="#Century_Schoolbook_L_Roman-82"/>
      <use transform="translate(1177.0730062558375 0.0)scale(0.9962640099626402)" xlink:href="#Century_Schoolbook_L_Roman-97"/>
      <use transform="translate(1232.4646832191781 0.0)scale(0.9962640099626402)" xlink:href="#Century_Schoolbook_L_Roman-116"/>
      <use transform="translate(1271.2183894137222 0.0)scale(0.9962640099626402)" xlink:href="#Century_Schoolbook_L_Roman-101"/>
     </g>
    </g>
   </g>
   <g id="text_15">
    <!-- Brier Score Comparison -->
    <defs>
     <path d="M 63.90625 72 
L 60.09375 72 
L 56.09375 66.015625 
C 49 71.203125 45.09375 72.703125 38.40625 72.703125 
C 28.703125 72.703125 20.703125 68.8125 13.90625 60.78125 
C 7.5 53.234375 4.5 44.890625 4.5 34.65625 
C 4.5 13.296875 18.59375 -2 38.296875 -2 
C 54.296875 -2 64.5 7.34375 66.796875 24.015625 
L 62.09375 24.8125 
C 61.09375 19.546875 59.90625 15.984375 58.09375 13.015625 
C 54 6.171875 47.59375 2.6875 39.5 2.6875 
C 24.703125 2.6875 17.703125 12.90625 17.703125 34.265625 
C 17.703125 45.46875 19.203125 53.015625 22.59375 58.96875 
C 25.703125 64.53125 31.90625 68 38.296875 68 
C 45.296875 68 51.5 64.328125 55.296875 57.96875 
C 57.203125 54.6875 58.703125 50.8125 61 43.171875 
L 65.40625 43.171875 
z
" id="Century_Schoolbook_L_Roman-67"/>
     <path d="M 39 48 
L 35.5 48 
L 32.59375 44.40625 
C 29 47.203125 25.40625 48.390625 20.40625 48.390625 
C 11.59375 48.390625 5.796875 42.625 5.796875 33.953125 
C 5.796875 30.078125 7.09375 26.78125 9.296875 24.8125 
C 11.59375 22.703125 13.90625 21.71875 19.90625 20.3125 
L 25.203125 19.125 
C 33.09375 17.234375 35.90625 15.234375 35.90625 11.265625 
C 35.90625 6.578125 31.796875 3.296875 25.90625 3.296875 
C 17.5 3.296875 11.5 8.765625 9.09375 18.875 
L 5.09375 18.875 
L 5.09375 0 
L 8.59375 0 
L 12.09375 3.90625 
C 16.203125 0.59375 20.796875 -1 25.796875 -1 
C 35.59375 -1 42.09375 5.078125 42.09375 14.34375 
C 42.09375 18.71875 40.703125 22.09375 37.90625 24.390625 
C 35.5 26.484375 33.5 27.28125 27.40625 28.5625 
L 22.40625 29.671875 
C 16.90625 30.859375 16.90625 30.859375 15.09375 31.859375 
C 12.90625 32.859375 11.59375 34.9375 11.59375 37.140625 
C 11.59375 41.109375 15.40625 44 20.90625 44 
C 24.703125 44 27.796875 42.703125 30.59375 40.015625 
C 32.796875 37.8125 33.90625 35.828125 35.5 31.234375 
L 39 31.234375 
z
" id="Century_Schoolbook_L_Roman-115"/>
     <path d="M 20.09375 46 
L 2.296875 46 
L 2.296875 41.21875 
L 6.40625 41.21875 
C 10.09375 41.21875 10.703125 40.515625 10.703125 36.203125 
L 10.703125 12.296875 
L 10.703125 8.40625 
C 10.703125 4.296875 9.59375 3.59375 3.203125 3.59375 
L 2.796875 3.59375 
L 2.796875 0 
L 28 0 
L 28 3.59375 
L 27.59375 3.59375 
C 21.203125 3.59375 20.09375 4.296875 20.09375 8.390625 
L 20.09375 12.28125 
L 20.09375 26.453125 
C 20.09375 35.328125 25 41.921875 31.5 41.921875 
C 34.09375 41.921875 36.90625 40.515625 38.09375 38.625 
C 39.5 36.734375 40.09375 33.828125 40.09375 29.734375 
L 40.09375 12.28125 
L 40.09375 8.28125 
C 40.09375 4.296875 39 3.59375 32.5 3.59375 
L 32.09375 3.59375 
L 32.09375 0 
L 57.40625 0 
L 57.40625 3.59375 
L 57 3.59375 
C 50.59375 3.59375 49.5 4.296875 49.5 8.28125 
L 49.5 12.28125 
L 49.5 25.546875 
C 49.5 35.53125 54 41.921875 61 41.921875 
C 64.296875 41.921875 67 40.015625 68.296875 36.921875 
C 69.203125 34.734375 69.5 32.53125 69.5 28.640625 
L 69.5 12.28125 
L 69.5 8.28125 
C 69.5 4.296875 68.40625 3.59375 61.90625 3.59375 
L 61.5 3.59375 
L 61.5 0 
L 86.796875 0 
L 86.796875 3.59375 
L 86.40625 3.59375 
C 80 3.59375 78.90625 4.296875 78.90625 8.390625 
L 78.90625 12.28125 
L 78.90625 30.640625 
C 78.90625 36.828125 78.296875 38.921875 75.703125 42.3125 
C 72.796875 46.015625 68.703125 48 63.90625 48 
C 57.40625 48 52.59375 44.9375 48.296875 38.109375 
C 46.59375 44.046875 41.203125 48 34.5 48 
C 28.5 48 24 45.140625 20.09375 38.921875 
z
" id="Century_Schoolbook_L_Roman-109"/>
    </defs>
    <g transform="translate(295.846835354 23.6047744785)scale(0.144 -0.144)">
     <use transform="scale(0.9962640099626402)" xlink:href="#Century_Schoolbook_L_Roman-66"/>
     <use transform="translate(71.92998484686333 0.0)scale(0.9962640099626402)" xlink:href="#Century_Schoolbook_L_Roman-114"/>
     <use transform="translate(116.16355354432598 0.0)scale(0.9962640099626402)" xlink:href="#Century_Schoolbook_L_Roman-105"/>
     <use transform="translate(147.54486654051215 0.0)scale(0.9962640099626402)" xlink:href="#Century_Schoolbook_L_Roman-101"/>
     <use transform="translate(197.35806703864418 0.0)scale(0.9962640099626402)" xlink:href="#Century_Schoolbook_L_Roman-114"/>
     <use transform="translate(269.28680533935244 0.0)scale(0.9962640099626402)" xlink:href="#Century_Schoolbook_L_Roman-83"/>
     <use transform="translate(332.0507842903565 0.0)scale(0.9962640099626402)" xlink:href="#Century_Schoolbook_L_Roman-99"/>
     <use transform="translate(376.28435298781915 0.0)scale(0.9962640099626402)" xlink:href="#Century_Schoolbook_L_Roman-111"/>
     <use transform="translate(426.09755348595115 0.0)scale(0.9962640099626402)" xlink:href="#Century_Schoolbook_L_Roman-114"/>
     <use transform="translate(470.3311221834138 0.0)scale(0.9962640099626402)" xlink:href="#Century_Schoolbook_L_Roman-101"/>
     <use transform="translate(547.8394922847915 0.0)scale(0.9962640099626402)" xlink:href="#Century_Schoolbook_L_Roman-67"/>
     <use transform="translate(619.7694771316548 0.0)scale(0.9962640099626402)" xlink:href="#Century_Schoolbook_L_Roman-111"/>
     <use transform="translate(669.5826776297868 0.0)scale(0.9962640099626402)" xlink:href="#Century_Schoolbook_L_Roman-109"/>
     <use transform="translate(758.1495843224627 0.0)scale(0.9962640099626402)" xlink:href="#Century_Schoolbook_L_Roman-112"/>
     <use transform="translate(815.3350716064758 0.0)scale(0.9962640099626402)" xlink:href="#Century_Schoolbook_L_Roman-97"/>
     <use transform="translate(870.7267485698164 0.0)scale(0.9962640099626402)" xlink:href="#Century_Schoolbook_L_Roman-114"/>
     <use transform="translate(914.960317267279 0.0)scale(0.9962640099626402)" xlink:href="#Century_Schoolbook_L_Roman-105"/>
     <use transform="translate(946.3416302634653 0.0)scale(0.9962640099626402)" xlink:href="#Century_Schoolbook_L_Roman-115"/>
     <use transform="translate(992.4674408225017 0.0)scale(0.9962640099626402)" xlink:href="#Century_Schoolbook_L_Roman-111"/>
     <use transform="translate(1042.2806413206335 0.0)scale(0.9962640099626402)" xlink:href="#Century_Schoolbook_L_Roman-110"/>
    </g>
   </g>
  </g>
 </g>
 <defs>
  <clipPath id="pac7ece265a">
   <rect height="647.151054347" width="642.721966405" x="53.9127175922" y="28.6047744785"/>
  </clipPath>
 </defs>
</svg>
