<?xml version="1.0" encoding="utf-8" standalone="no"?>
<!DOCTYPE svg PUBLIC "-//W3C//DTD SVG 1.1//EN"
  "http://www.w3.org/Graphics/SVG/1.1/DTD/svg11.dtd">
<!-- Created with matplotlib (http://matplotlib.org/) -->
<svg height="576pt" version="1.1" viewBox="0 0 720 576" width="720pt" xmlns="http://www.w3.org/2000/svg" xmlns:xlink="http://www.w3.org/1999/xlink">
 <defs>
  <style type="text/css">
*{stroke-linecap:butt;stroke-linejoin:round;stroke-miterlimit:100000;}
  </style>
 </defs>
 <g id="figure_1">
  <g id="patch_1">
   <path d="M 0 576 
L 720 576 
L 720 0 
L 0 0 
L 0 576 
z
" style="fill:none;"/>
  </g>
  <g id="axes_1">
   <g id="patch_2">
    <path d="M 53.912718 547.897914 
L 707.04 547.897914 
L 707.04 28.604774 
L 53.912718 28.604774 
L 53.912718 547.897914 
z
" style="fill:none;"/>
   </g>
   <g id="PathCollection_1">
    <path clip-path="url(#pef60058ef6)" d="M 211.163795 427.091637 
C 214.65955 427.091637 218.012599 425.702759 220.484471 423.230887 
C 222.956343 420.759015 224.345221 417.405966 224.345221 413.910211 
C 224.345221 410.414456 222.956343 407.061407 220.484471 404.589535 
C 218.012599 402.117663 214.65955 400.728785 211.163795 400.728785 
C 207.66804 400.728785 204.314991 402.117663 201.843119 404.589535 
C 199.371247 407.061407 197.982369 410.414456 197.982369 413.910211 
C 197.982369 417.405966 199.371247 420.759015 201.843119 423.230887 
C 204.314991 425.702759 207.66804 427.091637 211.163795 427.091637 
z
" style="fill:#6ec064;fill-opacity:0.3;stroke:#000000;stroke-opacity:0.3;"/>
    <path clip-path="url(#pef60058ef6)" d="M 206.508536 124.461042 
C 208.683363 124.461042 210.769408 123.596974 212.307243 122.059139 
C 213.845078 120.521304 214.709146 118.43526 214.709146 116.260433 
C 214.709146 114.085606 213.845078 111.999561 212.307243 110.461726 
C 210.769408 108.923891 208.683363 108.059823 206.508536 108.059823 
C 204.333709 108.059823 202.247664 108.923891 200.709829 110.461726 
C 199.171994 111.999561 198.307926 114.085606 198.307926 116.260433 
C 198.307926 118.43526 199.171994 120.521304 200.709829 122.059139 
C 202.247664 123.596974 204.333709 124.461042 206.508536 124.461042 
z
" style="fill:#d83128;fill-opacity:0.3;stroke:#000000;stroke-opacity:0.3;"/>
    <path clip-path="url(#pef60058ef6)" d="M 210.136164 388.980811 
C 212.241148 388.980811 214.260201 388.144492 215.74865 386.656043 
C 217.237098 385.167594 218.073418 383.148541 218.073418 381.043557 
C 218.073418 378.938573 217.237098 376.91952 215.74865 375.431071 
C 214.260201 373.942622 212.241148 373.106303 210.136164 373.106303 
C 208.031179 373.106303 206.012126 373.942622 204.523678 375.431071 
C 203.035229 376.91952 202.19891 378.938573 202.19891 381.043557 
C 202.19891 383.148541 203.035229 385.167594 204.523678 386.656043 
C 206.012126 388.144492 208.031179 388.980811 210.136164 388.980811 
z
" style="fill:#93d168;fill-opacity:0.3;stroke:#000000;stroke-opacity:0.3;"/>
    <path clip-path="url(#pef60058ef6)" d="M 215.614774 447.297565 
C 217.41835 447.297565 219.148299 446.580997 220.42362 445.305676 
C 221.698941 444.030355 222.415509 442.300406 222.415509 440.49683 
C 222.415509 438.693254 221.698941 436.963305 220.42362 435.687984 
C 219.148299 434.412663 217.41835 433.696095 215.614774 433.696095 
C 213.811198 433.696095 212.081249 434.412663 210.805928 435.687984 
C 209.530607 436.963305 208.814039 438.693254 208.814039 440.49683 
C 208.814039 442.300406 209.530607 444.030355 210.805928 445.305676 
C 212.081249 446.580997 213.811198 447.297565 215.614774 447.297565 
z
" style="fill:#4bb05c;fill-opacity:0.3;stroke:#000000;stroke-opacity:0.3;"/>
    <path clip-path="url(#pef60058ef6)" d="M 227.469798 449.386556 
C 228.775772 449.386556 230.028432 448.867687 230.951895 447.944224 
C 231.875358 447.020761 232.394227 445.768101 232.394227 444.462127 
C 232.394227 443.156153 231.875358 441.903493 230.951895 440.98003 
C 230.028432 440.056567 228.775772 439.537698 227.469798 439.537698 
C 226.163825 439.537698 224.911164 440.056567 223.987701 440.98003 
C 223.064238 441.903493 222.545369 443.156153 222.545369 444.462127 
C 222.545369 445.768101 223.064238 447.020761 223.987701 447.944224 
C 224.911164 448.867687 226.163825 449.386556 227.469798 449.386556 
z
" style="fill:#45ad5b;fill-opacity:0.3;stroke:#000000;stroke-opacity:0.3;"/>
    <path clip-path="url(#pef60058ef6)" d="M 210.245184 468.041445 
C 211.378132 468.041445 212.46483 467.59132 213.265945 466.790205 
C 214.067061 465.989089 214.517186 464.902391 214.517186 463.769443 
C 214.517186 462.636495 214.067061 461.549797 213.265945 460.748682 
C 212.46483 459.947566 211.378132 459.497441 210.245184 459.497441 
C 209.112236 459.497441 208.025538 459.947566 207.224422 460.748682 
C 206.423307 461.549797 205.973182 462.636495 205.973182 463.769443 
C 205.973182 464.902391 206.423307 465.989089 207.224422 466.790205 
C 208.025538 467.59132 209.112236 468.041445 210.245184 468.041445 
z
" style="fill:#2da155;fill-opacity:0.3;stroke:#000000;stroke-opacity:0.3;"/>
    <path clip-path="url(#pef60058ef6)" d="M 224.617118 299.942986 
C 225.506636 299.942986 226.359842 299.589577 226.988826 298.960593 
C 227.61781 298.331608 227.97122 297.478403 227.97122 296.588884 
C 227.97122 295.699366 227.61781 294.84616 226.988826 294.217176 
C 226.359842 293.588192 225.506636 293.234782 224.617118 293.234782 
C 223.7276 293.234782 222.874394 293.588192 222.24541 294.217176 
C 221.616425 294.84616 221.263016 295.699366 221.263016 296.588884 
C 221.263016 297.478403 221.616425 298.331608 222.24541 298.960593 
C 222.874394 299.589577 223.7276 299.942986 224.617118 299.942986 
z
" style="fill:#ddf191;fill-opacity:0.3;stroke:#000000;stroke-opacity:0.3;"/>
    <path clip-path="url(#pef60058ef6)" d="M 218.290401 173.870152 
C 219.179919 173.870152 220.033125 173.516742 220.662109 172.887758 
C 221.291094 172.258774 221.644503 171.405568 221.644503 170.51605 
C 221.644503 169.626532 221.291094 168.773326 220.662109 168.144342 
C 220.033125 167.515357 219.179919 167.161948 218.290401 167.161948 
C 217.400883 167.161948 216.547677 167.515357 215.918693 168.144342 
C 215.289709 168.773326 214.936299 169.626532 214.936299 170.51605 
C 214.936299 171.405568 215.289709 172.258774 215.918693 172.887758 
C 216.547677 173.516742 217.400883 173.870152 218.290401 173.870152 
z
" style="fill:#fdb567;fill-opacity:0.3;stroke:#000000;stroke-opacity:0.3;"/>
    <path clip-path="url(#pef60058ef6)" d="M 219.418424 417.101289 
C 220.307942 417.101289 221.161147 416.747879 221.790132 416.118895 
C 222.419116 415.48991 222.772526 414.636705 222.772526 413.747187 
C 222.772526 412.857668 222.419116 412.004463 221.790132 411.375478 
C 221.161147 410.746494 220.307942 410.393085 219.418424 410.393085 
C 218.528905 410.393085 217.6757 410.746494 217.046715 411.375478 
C 216.417731 412.004463 216.064322 412.857668 216.064322 413.747187 
C 216.064322 414.636705 216.417731 415.48991 217.046715 416.118895 
C 217.6757 416.747879 218.528905 417.101289 219.418424 417.101289 
z
" style="fill:#69be63;fill-opacity:0.3;stroke:#000000;stroke-opacity:0.3;"/>
    <path clip-path="url(#pef60058ef6)" d="M 234.895734 408.803862 
C 235.765261 408.803862 236.599291 408.458396 237.214139 407.843547 
C 237.828987 407.228699 238.174453 406.394669 238.174453 405.525143 
C 238.174453 404.655616 237.828987 403.821586 237.214139 403.206738 
C 236.599291 402.59189 235.765261 402.246424 234.895734 402.246424 
C 234.026208 402.246424 233.192178 402.59189 232.577329 403.206738 
C 231.962481 403.821586 231.617015 404.655616 231.617015 405.525143 
C 231.617015 406.394669 231.962481 407.228699 232.577329 407.843547 
C 233.192178 408.458396 234.026208 408.803862 234.895734 408.803862 
z
" style="fill:#70c164;fill-opacity:0.3;stroke:#000000;stroke-opacity:0.3;"/>
    <path clip-path="url(#pef60058ef6)" d="M 217.318225 407.385673 
C 218.177581 407.385673 219.001856 407.044248 219.609513 406.436591 
C 220.217169 405.828934 220.558595 405.004659 220.558595 404.145303 
C 220.558595 403.285947 220.217169 402.461672 219.609513 401.854015 
C 219.001856 401.246359 218.177581 400.904933 217.318225 400.904933 
C 216.458868 400.904933 215.634594 401.246359 215.026937 401.854015 
C 214.41928 402.461672 214.077854 403.285947 214.077854 404.145303 
C 214.077854 405.004659 214.41928 405.828934 215.026937 406.436591 
C 215.634594 407.044248 216.458868 407.385673 217.318225 407.385673 
z
" style="fill:#73c264;fill-opacity:0.3;stroke:#000000;stroke-opacity:0.3;"/>
    <path clip-path="url(#pef60058ef6)" d="M 211.262633 274.039741 
C 212.101279 274.039741 212.905689 273.706543 213.498701 273.113531 
C 214.091714 272.520519 214.424911 271.716109 214.424911 270.877463 
C 214.424911 270.038817 214.091714 269.234407 213.498701 268.641395 
C 212.905689 268.048383 212.101279 267.715185 211.262633 267.715185 
C 210.423988 267.715185 209.619578 268.048383 209.026565 268.641395 
C 208.433553 269.234407 208.100356 270.038817 208.100356 270.877463 
C 208.100356 271.716109 208.433553 272.520519 209.026565 273.113531 
C 209.619578 273.706543 210.423988 274.039741 211.262633 274.039741 
z
" style="fill:#f1f9ac;fill-opacity:0.3;stroke:#000000;stroke-opacity:0.3;"/>
    <path clip-path="url(#pef60058ef6)" d="M 226.249686 72.115695 
C 227.02288 72.115695 227.764509 71.808502 228.311239 71.261772 
C 228.857969 70.715041 229.165162 69.973412 229.165162 69.200219 
C 229.165162 68.427025 228.857969 67.685396 228.311239 67.138666 
C 227.764509 66.591936 227.02288 66.284743 226.249686 66.284743 
C 225.476493 66.284743 224.734864 66.591936 224.188134 67.138666 
C 223.641403 67.685396 223.334211 68.427025 223.334211 69.200219 
C 223.334211 69.973412 223.641403 70.715041 224.188134 71.261772 
C 224.734864 71.808502 225.476493 72.115695 226.249686 72.115695 
z
" style="fill:#a50026;fill-opacity:0.3;stroke:#000000;stroke-opacity:0.3;"/>
    <path clip-path="url(#pef60058ef6)" d="M 231.126826 226.765376 
C 231.888564 226.765376 232.619205 226.462734 233.157835 225.924104 
C 233.696465 225.385474 233.999107 224.654832 233.999107 223.893094 
C 233.999107 223.131356 233.696465 222.400715 233.157835 221.862085 
C 232.619205 221.323455 231.888564 221.020813 231.126826 221.020813 
C 230.365088 221.020813 229.634446 221.323455 229.095816 221.862085 
C 228.557186 222.400715 228.254544 223.131356 228.254544 223.893094 
C 228.254544 224.654832 228.557186 225.385474 229.095816 225.924104 
C 229.634446 226.462734 230.365088 226.765376 231.126826 226.765376 
z
" style="fill:#feec9f;fill-opacity:0.3;stroke:#000000;stroke-opacity:0.3;"/>
    <path clip-path="url(#pef60058ef6)" d="M 217.582609 227.1947 
C 218.29669 227.1947 218.98162 226.910992 219.486552 226.406061 
C 219.991484 225.901129 220.275191 225.216199 220.275191 224.502117 
C 220.275191 223.788036 219.991484 223.103106 219.486552 222.598174 
C 218.98162 222.093243 218.29669 221.809535 217.582609 221.809535 
C 216.868528 221.809535 216.183597 222.093243 215.678665 222.598174 
C 215.173734 223.103106 214.890026 223.788036 214.890026 224.502117 
C 214.890026 225.216199 215.173734 225.901129 215.678665 226.406061 
C 216.183597 226.910992 216.868528 227.1947 217.582609 227.1947 
z
" style="fill:#fff5ae;fill-opacity:0.3;stroke:#000000;stroke-opacity:0.3;"/>
    <path clip-path="url(#pef60058ef6)" d="M 218.592503 276.435302 
C 219.294165 276.435302 219.967182 276.156529 220.463332 275.660379 
C 220.959481 275.16423 221.238255 274.491212 221.238255 273.789551 
C 221.238255 273.087889 220.959481 272.414871 220.463332 271.918722 
C 219.967182 271.422572 219.294165 271.143799 218.592503 271.143799 
C 217.890842 271.143799 217.217824 271.422572 216.721675 271.918722 
C 216.225525 272.414871 215.946752 273.087889 215.946752 273.789551 
C 215.946752 274.491212 216.225525 275.16423 216.721675 275.660379 
C 217.217824 276.156529 217.890842 276.435302 218.592503 276.435302 
z
" style="fill:#e9f6a1;fill-opacity:0.3;stroke:#000000;stroke-opacity:0.3;"/>
    <path clip-path="url(#pef60058ef6)" d="M 200.115348 254.992266 
C 200.791486 254.992266 201.440022 254.723634 201.918124 254.245532 
C 202.396226 253.767431 202.664858 253.118894 202.664858 252.442757 
C 202.664858 251.766619 202.396226 251.118083 201.918124 250.639981 
C 201.440022 250.161879 200.791486 249.893247 200.115348 249.893247 
C 199.43921 249.893247 198.790674 250.161879 198.312573 250.639981 
C 197.834471 251.118083 197.565838 251.766619 197.565838 252.442757 
C 197.565838 253.118894 197.834471 253.767431 198.312573 254.245532 
C 198.790674 254.723634 199.43921 254.992266 200.115348 254.992266 
z
" style="fill:#f5fbb2;fill-opacity:0.3;stroke:#000000;stroke-opacity:0.3;"/>
    <path clip-path="url(#pef60058ef6)" d="M 210.66282 159.214048 
C 211.284776 159.214048 211.881342 158.966943 212.321132 158.527153 
C 212.760922 158.087363 213.008027 157.490797 213.008027 156.868841 
C 213.008027 156.246884 212.760922 155.650318 212.321132 155.210528 
C 211.881342 154.770739 211.284776 154.523633 210.66282 154.523633 
C 210.040863 154.523633 209.444297 154.770739 209.004507 155.210528 
C 208.564718 155.650318 208.317612 156.246884 208.317612 156.868841 
C 208.317612 157.490797 208.564718 158.087363 209.004507 158.527153 
C 209.444297 158.966943 210.040863 159.214048 210.66282 159.214048 
z
" style="fill:#fdad60;fill-opacity:0.3;stroke:#000000;stroke-opacity:0.3;"/>
   </g>
   <g id="PathCollection_2">
    <path clip-path="url(#pef60058ef6)" d="M 536.977436 443.188109 
C 540.473191 443.188109 543.82624 441.799231 546.298112 439.327359 
C 548.769984 436.855487 550.158862 433.502438 550.158862 430.006683 
C 550.158862 426.510928 548.769984 423.157879 546.298112 420.686007 
C 543.82624 418.214135 540.473191 416.825256 536.977436 416.825256 
C 533.481681 416.825256 530.128632 418.214135 527.65676 420.686007 
C 525.184888 423.157879 523.796009 426.510928 523.796009 430.006683 
C 523.796009 433.502438 525.184888 436.855487 527.65676 439.327359 
C 530.128632 441.799231 533.481681 443.188109 536.977436 443.188109 
z
" style="fill:#6ec064;fill-opacity:0.3;stroke:#000000;stroke-opacity:0.3;"/>
    <path clip-path="url(#pef60058ef6)" d="M 561.858111 195.96916 
C 564.032938 195.96916 566.118983 195.105092 567.656818 193.567257 
C 569.194653 192.029422 570.058721 189.943378 570.058721 187.768551 
C 570.058721 185.593723 569.194653 183.507679 567.656818 181.969844 
C 566.118983 180.432009 564.032938 179.567941 561.858111 179.567941 
C 559.683284 179.567941 557.597239 180.432009 556.059404 181.969844 
C 554.521569 183.507679 553.657501 185.593723 553.657501 187.768551 
C 553.657501 189.943378 554.521569 192.029422 556.059404 193.567257 
C 557.597239 195.105092 559.683284 195.96916 561.858111 195.96916 
z
" style="fill:#d83128;fill-opacity:0.3;stroke:#000000;stroke-opacity:0.3;"/>
    <path clip-path="url(#pef60058ef6)" d="M 535.685848 395.011355 
C 537.790833 395.011355 539.809886 394.175036 541.298334 392.686587 
C 542.786783 391.198138 543.623102 389.179085 543.623102 387.074101 
C 543.623102 384.969116 542.786783 382.950063 541.298334 381.461615 
C 539.809886 379.973166 537.790833 379.136847 535.685848 379.136847 
C 533.580864 379.136847 531.561811 379.973166 530.073362 381.461615 
C 528.584914 382.950063 527.748594 384.969116 527.748594 387.074101 
C 527.748594 389.179085 528.584914 391.198138 530.073362 392.686587 
C 531.561811 394.175036 533.580864 395.011355 535.685848 395.011355 
z
" style="fill:#93d168;fill-opacity:0.3;stroke:#000000;stroke-opacity:0.3;"/>
    <path clip-path="url(#pef60058ef6)" d="M 540.598816 451.277663 
C 542.402392 451.277663 544.132341 450.561094 545.407662 449.285774 
C 546.682983 448.010453 547.399551 446.280504 547.399551 444.476928 
C 547.399551 442.673351 546.682983 440.943402 545.407662 439.668082 
C 544.132341 438.392761 542.402392 437.676192 540.598816 437.676192 
C 538.79524 437.676192 537.065291 438.392761 535.78997 439.668082 
C 534.514649 440.943402 533.798081 442.673351 533.798081 444.476928 
C 533.798081 446.280504 534.514649 448.010453 535.78997 449.285774 
C 537.065291 450.561094 538.79524 451.277663 540.598816 451.277663 
z
" style="fill:#4bb05c;fill-opacity:0.3;stroke:#000000;stroke-opacity:0.3;"/>
    <path clip-path="url(#pef60058ef6)" d="M 550.091383 462.539656 
C 551.397357 462.539656 552.650017 462.020787 553.57348 461.097324 
C 554.496943 460.173861 555.015812 458.921201 555.015812 457.615227 
C 555.015812 456.309253 554.496943 455.056593 553.57348 454.13313 
C 552.650017 453.209667 551.397357 452.690798 550.091383 452.690798 
C 548.785409 452.690798 547.532749 453.209667 546.609286 454.13313 
C 545.685823 455.056593 545.166954 456.309253 545.166954 457.615227 
C 545.166954 458.921201 545.685823 460.173861 546.609286 461.097324 
C 547.532749 462.020787 548.785409 462.539656 550.091383 462.539656 
z
" style="fill:#45ad5b;fill-opacity:0.3;stroke:#000000;stroke-opacity:0.3;"/>
    <path clip-path="url(#pef60058ef6)" d="M 549.26092 469.739861 
C 550.393868 469.739861 551.480566 469.289736 552.281682 468.48862 
C 553.082797 467.687505 553.532922 466.600807 553.532922 465.467859 
C 553.532922 464.334911 553.082797 463.248213 552.281682 462.447097 
C 551.480566 461.645982 550.393868 461.195857 549.26092 461.195857 
C 548.127972 461.195857 547.041274 461.645982 546.240159 462.447097 
C 545.439043 463.248213 544.988918 464.334911 544.988918 465.467859 
C 544.988918 466.600807 545.439043 467.687505 546.240159 468.48862 
C 547.041274 469.289736 548.127972 469.739861 549.26092 469.739861 
z
" style="fill:#2da155;fill-opacity:0.3;stroke:#000000;stroke-opacity:0.3;"/>
    <path clip-path="url(#pef60058ef6)" d="M 547.09271 356.8947 
C 547.982229 356.8947 548.835434 356.54129 549.464419 355.912306 
C 550.093403 355.283322 550.446812 354.430116 550.446812 353.540598 
C 550.446812 352.65108 550.093403 351.797874 549.464419 351.16889 
C 548.835434 350.539905 547.982229 350.186496 547.09271 350.186496 
C 546.203192 350.186496 545.349987 350.539905 544.721002 351.16889 
C 544.092018 351.797874 543.738608 352.65108 543.738608 353.540598 
C 543.738608 354.430116 544.092018 355.283322 544.721002 355.912306 
C 545.349987 356.54129 546.203192 356.8947 547.09271 356.8947 
z
" style="fill:#ddf191;fill-opacity:0.3;stroke:#000000;stroke-opacity:0.3;"/>
    <path clip-path="url(#pef60058ef6)" d="M 548.445563 318.151447 
C 549.335081 318.151447 550.188287 317.798037 550.817271 317.169053 
C 551.446256 316.540069 551.799665 315.686863 551.799665 314.797345 
C 551.799665 313.907827 551.446256 313.054621 550.817271 312.425637 
C 550.188287 311.796652 549.335081 311.443243 548.445563 311.443243 
C 547.556045 311.443243 546.702839 311.796652 546.073855 312.425637 
C 545.44487 313.054621 545.091461 313.907827 545.091461 314.797345 
C 545.091461 315.686863 545.44487 316.540069 546.073855 317.169053 
C 546.702839 317.798037 547.556045 318.151447 548.445563 318.151447 
z
" style="fill:#fdb567;fill-opacity:0.3;stroke:#000000;stroke-opacity:0.3;"/>
    <path clip-path="url(#pef60058ef6)" d="M 551.65117 419.721463 
C 552.540688 419.721463 553.393893 419.368054 554.022878 418.73907 
C 554.651862 418.110085 555.005272 417.25688 555.005272 416.367361 
C 555.005272 415.477843 554.651862 414.624638 554.022878 413.995653 
C 553.393893 413.366669 552.540688 413.013259 551.65117 413.013259 
C 550.761651 413.013259 549.908446 413.366669 549.279461 413.995653 
C 548.650477 414.624638 548.297068 415.477843 548.297068 416.367361 
C 548.297068 417.25688 548.650477 418.110085 549.279461 418.73907 
C 549.908446 419.368054 550.761651 419.721463 551.65117 419.721463 
z
" style="fill:#69be63;fill-opacity:0.3;stroke:#000000;stroke-opacity:0.3;"/>
    <path clip-path="url(#pef60058ef6)" d="M 550.81064 524.339779 
C 551.680167 524.339779 552.514197 523.994312 553.129045 523.379464 
C 553.743893 522.764616 554.08936 521.930586 554.08936 521.06106 
C 554.08936 520.191533 553.743893 519.357503 553.129045 518.742655 
C 552.514197 518.127807 551.680167 517.78234 550.81064 517.78234 
C 549.941114 517.78234 549.107084 518.127807 548.492236 518.742655 
C 547.877388 519.357503 547.531921 520.191533 547.531921 521.06106 
C 547.531921 521.930586 547.877388 522.764616 548.492236 523.379464 
C 549.107084 523.994312 549.941114 524.339779 550.81064 524.339779 
z
" style="fill:#70c164;fill-opacity:0.3;stroke:#000000;stroke-opacity:0.3;"/>
    <path clip-path="url(#pef60058ef6)" d="M 523.608746 444.356778 
C 524.468103 444.356778 525.292378 444.015352 525.900034 443.407696 
C 526.507691 442.800039 526.849117 441.975764 526.849117 441.116408 
C 526.849117 440.257052 526.507691 439.432777 525.900034 438.82512 
C 525.292378 438.217463 524.468103 437.876038 523.608746 437.876038 
C 522.74939 437.876038 521.925115 438.217463 521.317458 438.82512 
C 520.709802 439.432777 520.368376 440.257052 520.368376 441.116408 
C 520.368376 441.975764 520.709802 442.800039 521.317458 443.407696 
C 521.925115 444.015352 522.74939 444.356778 523.608746 444.356778 
z
" style="fill:#73c264;fill-opacity:0.3;stroke:#000000;stroke-opacity:0.3;"/>
    <path clip-path="url(#pef60058ef6)" d="M 541.15908 275.2402 
C 541.997726 275.2402 542.802136 274.907002 543.395148 274.31399 
C 543.98816 273.720978 544.321358 272.916568 544.321358 272.077922 
C 544.321358 271.239276 543.98816 270.434866 543.395148 269.841854 
C 542.802136 269.248842 541.997726 268.915645 541.15908 268.915645 
C 540.320434 268.915645 539.516024 269.248842 538.923012 269.841854 
C 538.33 270.434866 537.996803 271.239276 537.996803 272.077922 
C 537.996803 272.916568 538.33 273.720978 538.923012 274.31399 
C 539.516024 274.907002 540.320434 275.2402 541.15908 275.2402 
z
" style="fill:#f1f9ac;fill-opacity:0.3;stroke:#000000;stroke-opacity:0.3;"/>
    <path clip-path="url(#pef60058ef6)" d="M 535.376482 164.584458 
C 536.149675 164.584458 536.891305 164.277265 537.438035 163.730535 
C 537.984765 163.183805 538.291958 162.442176 538.291958 161.668982 
C 538.291958 160.895789 537.984765 160.15416 537.438035 159.607429 
C 536.891305 159.060699 536.149675 158.753506 535.376482 158.753506 
C 534.603289 158.753506 533.861659 159.060699 533.314929 159.607429 
C 532.768199 160.15416 532.461006 160.895789 532.461006 161.668982 
C 532.461006 162.442176 532.768199 163.183805 533.314929 163.730535 
C 533.861659 164.277265 534.603289 164.584458 535.376482 164.584458 
z
" style="fill:#a50026;fill-opacity:0.3;stroke:#000000;stroke-opacity:0.3;"/>
    <path clip-path="url(#pef60058ef6)" d="M 545.937191 318.374695 
C 546.698929 318.374695 547.429571 318.072054 547.968201 317.533424 
C 548.506831 316.994794 548.809473 316.264152 548.809473 315.502414 
C 548.809473 314.740676 548.506831 314.010035 547.968201 313.471404 
C 547.429571 312.932774 546.698929 312.630133 545.937191 312.630133 
C 545.175453 312.630133 544.444812 312.932774 543.906182 313.471404 
C 543.367552 314.010035 543.06491 314.740676 543.06491 315.502414 
C 543.06491 316.264152 543.367552 316.994794 543.906182 317.533424 
C 544.444812 318.072054 545.175453 318.374695 545.937191 318.374695 
z
" style="fill:#feec9f;fill-opacity:0.3;stroke:#000000;stroke-opacity:0.3;"/>
    <path clip-path="url(#pef60058ef6)" d="M 532.265066 258.279503 
C 532.979147 258.279503 533.664078 257.995795 534.169009 257.490864 
C 534.673941 256.985932 534.957648 256.301002 534.957648 255.586921 
C 534.957648 254.872839 534.673941 254.187909 534.169009 253.682977 
C 533.664078 253.178046 532.979147 252.894338 532.265066 252.894338 
C 531.550985 252.894338 530.866054 253.178046 530.361123 253.682977 
C 529.856191 254.187909 529.572484 254.872839 529.572484 255.586921 
C 529.572484 256.301002 529.856191 256.985932 530.361123 257.490864 
C 530.866054 257.995795 531.550985 258.279503 532.265066 258.279503 
z
" style="fill:#fff5ae;fill-opacity:0.3;stroke:#000000;stroke-opacity:0.3;"/>
    <path clip-path="url(#pef60058ef6)" d="M 543.938101 310.320024 
C 544.639763 310.320024 545.31278 310.041251 545.80893 309.545102 
C 546.305079 309.048952 546.583852 308.375934 546.583852 307.674273 
C 546.583852 306.972611 546.305079 306.299594 545.80893 305.803444 
C 545.31278 305.307295 544.639763 305.028522 543.938101 305.028522 
C 543.23644 305.028522 542.563422 305.307295 542.067272 305.803444 
C 541.571123 306.299594 541.29235 306.972611 541.29235 307.674273 
C 541.29235 308.375934 541.571123 309.048952 542.067272 309.545102 
C 542.563422 310.041251 543.23644 310.320024 543.938101 310.320024 
z
" style="fill:#e9f6a1;fill-opacity:0.3;stroke:#000000;stroke-opacity:0.3;"/>
    <path clip-path="url(#pef60058ef6)" d="M 539.769873 362.150015 
C 540.446011 362.150015 541.094547 361.881383 541.572648 361.403281 
C 542.05075 360.925179 542.319383 360.276643 542.319383 359.600505 
C 542.319383 358.924367 542.05075 358.275831 541.572648 357.79773 
C 541.094547 357.319628 540.446011 357.050995 539.769873 357.050995 
C 539.093735 357.050995 538.445199 357.319628 537.967097 357.79773 
C 537.488995 358.275831 537.220363 358.924367 537.220363 359.600505 
C 537.220363 360.276643 537.488995 360.925179 537.967097 361.403281 
C 538.445199 361.881383 539.093735 362.150015 539.769873 362.150015 
z
" style="fill:#f5fbb2;fill-opacity:0.3;stroke:#000000;stroke-opacity:0.3;"/>
    <path clip-path="url(#pef60058ef6)" d="M 546.875033 179.263156 
C 547.496989 179.263156 548.093555 179.01605 548.533345 178.576261 
C 548.973135 178.136471 549.22024 177.539905 549.22024 176.917948 
C 549.22024 176.295992 548.973135 175.699425 548.533345 175.259636 
C 548.093555 174.819846 547.496989 174.57274 546.875033 174.57274 
C 546.253076 174.57274 545.65651 174.819846 545.21672 175.259636 
C 544.776931 175.699425 544.529825 176.295992 544.529825 176.917948 
C 544.529825 177.539905 544.776931 178.136471 545.21672 178.576261 
C 545.65651 179.01605 546.253076 179.263156 546.875033 179.263156 
z
" style="fill:#fdad60;fill-opacity:0.3;stroke:#000000;stroke-opacity:0.3;"/>
   </g>
   <g id="line2d_1">
    <path clip-path="url(#pef60058ef6)" d="M 192.702265 411.691676 
L 241.686811 411.691676 
L 241.686811 224.04535 
L 192.702265 224.04535 
L 192.702265 411.691676 
" style="fill:none;stroke:#0000ff;stroke-linecap:square;"/>
   </g>
   <g id="line2d_2">
    <path clip-path="url(#pef60058ef6)" d="M 217.194538 411.691676 
L 217.194538 463.769443 
" style="fill:none;stroke:#0000ff;stroke-dasharray:6.000000,6.000000;stroke-dashoffset:0.0;"/>
   </g>
   <g id="line2d_3">
    <path clip-path="url(#pef60058ef6)" d="M 217.194538 224.04535 
L 217.194538 69.200219 
" style="fill:none;stroke:#0000ff;stroke-dasharray:6.000000,6.000000;stroke-dashoffset:0.0;"/>
   </g>
   <g id="line2d_4">
    <path clip-path="url(#pef60058ef6)" d="M 204.948402 463.769443 
L 229.440675 463.769443 
" style="fill:none;stroke:#000000;stroke-linecap:square;"/>
   </g>
   <g id="line2d_5">
    <path clip-path="url(#pef60058ef6)" d="M 204.948402 69.200219 
L 229.440675 69.200219 
" style="fill:none;stroke:#000000;stroke-linecap:square;"/>
   </g>
   <g id="line2d_6">
    <path clip-path="url(#pef60058ef6)" d="M 192.702265 285.189217 
L 241.686811 285.189217 
" style="fill:none;stroke:#ff0000;stroke-linecap:square;"/>
   </g>
   <g id="line2d_7"/>
   <g id="line2d_8">
    <path clip-path="url(#pef60058ef6)" d="M 519.265906 438.338977 
L 568.250452 438.338977 
L 568.250452 280.97701 
L 519.265906 280.97701 
L 519.265906 438.338977 
" style="fill:none;stroke:#0000ff;stroke-linecap:square;"/>
   </g>
   <g id="line2d_9">
    <path clip-path="url(#pef60058ef6)" d="M 543.758179 438.338977 
L 543.758179 521.06106 
" style="fill:none;stroke:#0000ff;stroke-dasharray:6.000000,6.000000;stroke-dashoffset:0.0;"/>
   </g>
   <g id="line2d_10">
    <path clip-path="url(#pef60058ef6)" d="M 543.758179 280.97701 
L 543.758179 161.668982 
" style="fill:none;stroke:#0000ff;stroke-dasharray:6.000000,6.000000;stroke-dashoffset:0.0;"/>
   </g>
   <g id="line2d_11">
    <path clip-path="url(#pef60058ef6)" d="M 531.512043 521.06106 
L 556.004316 521.06106 
" style="fill:none;stroke:#000000;stroke-linecap:square;"/>
   </g>
   <g id="line2d_12">
    <path clip-path="url(#pef60058ef6)" d="M 531.512043 161.668982 
L 556.004316 161.668982 
" style="fill:none;stroke:#000000;stroke-linecap:square;"/>
   </g>
   <g id="line2d_13">
    <path clip-path="url(#pef60058ef6)" d="M 519.265906 356.570552 
L 568.250452 356.570552 
" style="fill:none;stroke:#ff0000;stroke-linecap:square;"/>
   </g>
   <g id="line2d_14"/>
   <g id="patch_3">
    <path d="M 53.912718 547.897914 
L 707.04 547.897914 
" style="fill:none;stroke:#000000;stroke-linecap:square;stroke-linejoin:miter;"/>
   </g>
   <g id="patch_4">
    <path d="M 707.04 547.897914 
L 707.04 28.604774 
" style="fill:none;stroke:#000000;stroke-linecap:square;stroke-linejoin:miter;"/>
   </g>
   <g id="patch_5">
    <path d="M 53.912718 28.604774 
L 707.04 28.604774 
" style="fill:none;stroke:#000000;stroke-linecap:square;stroke-linejoin:miter;"/>
   </g>
   <g id="patch_6">
    <path d="M 53.912718 547.897914 
L 53.912718 28.604774 
" style="fill:none;stroke:#000000;stroke-linecap:square;stroke-linejoin:miter;"/>
   </g>
   <g id="matplotlib.axis_1">
    <g id="xtick_1">
     <g id="line2d_15">
      <defs>
       <path d="M 0 0 
L 0 -4 
" id="m3fff611731" style="stroke:#000000;stroke-width:0.5;"/>
      </defs>
      <g>
       <use style="stroke:#000000;stroke-width:0.5;" x="217.194538194" xlink:href="#m3fff611731" y="547.897914413"/>
      </g>
     </g>
     <g id="line2d_16">
      <defs>
       <path d="M 0 0 
L 0 4 
" id="m2170f3732c" style="stroke:#000000;stroke-width:0.5;"/>
      </defs>
      <g>
       <use style="stroke:#000000;stroke-width:0.5;" x="217.194538194" xlink:href="#m2170f3732c" y="28.6047744785"/>
      </g>
     </g>
     <g id="text_1">
      <!-- Survival Rate -->
      <defs>
       <path d="M 20.59375 46 
L 1.796875 46 
L 1.796875 41.21875 
L 6.90625 41.21875 
C 10.59375 41.21875 11.203125 40.515625 11.203125 36.203125 
L 11.203125 12.296875 
L 11.203125 8.296875 
C 11.203125 4.296875 10.09375 3.59375 3.703125 3.59375 
L 3 3.59375 
L 3 0 
L 28.90625 0 
L 28.90625 3.59375 
L 28.203125 3.59375 
C 21.703125 3.59375 20.59375 4.28125 20.59375 8.21875 
L 20.59375 12.171875 
z
M 15.90625 71.578125 
C 12.703125 71.578125 10.09375 68.984375 10.09375 65.796875 
C 10.09375 62.703125 12.703125 60 15.796875 60 
C 19.09375 60 21.703125 62.59375 21.703125 65.796875 
C 21.703125 68.984375 19.09375 71.578125 15.90625 71.578125 
" id="Century_Schoolbook_L_Roman-105"/>
       <path d="M 41.203125 0 
L 59.40625 0 
L 59.40625 4.703125 
L 56.90625 4.703125 
C 51.40625 4.703125 50.59375 5.59375 50.59375 11.953125 
L 50.59375 46.78125 
L 31.796875 46.78125 
L 31.796875 42 
L 36.90625 42 
C 40.59375 42 41.203125 41.296875 41.203125 36.953125 
L 41.203125 24.5625 
C 41.203125 18.8125 40.59375 15.484375 39.09375 12.15625 
C 37 7.71875 33 5.09375 28.09375 5.09375 
C 25 5.09375 22.40625 6.1875 21.09375 8.171875 
C 19.796875 10.046875 19.59375 11.046875 19.59375 16.5 
L 19.59375 46.78125 
L 2.09375 46.78125 
L 2.09375 42 
L 5.90625 42 
C 9.59375 42 10.203125 41.296875 10.203125 36.953125 
L 10.203125 15.21875 
C 10.203125 10.078125 10.59375 7.765625 12.09375 5.453125 
C 14.796875 1.3125 19.59375 -1 25.59375 -1 
C 32.203125 -1 36.796875 1.71875 41.203125 8.125 
z
" id="Century_Schoolbook_L_Roman-117"/>
       <path d="M 19.796875 46 
L 2.09375 46 
L 2.09375 41.21875 
L 6.203125 41.21875 
C 9.90625 41.21875 10.5 40.515625 10.5 36.203125 
L 10.5 12.296875 
L 10.5 8.296875 
C 10.5 4.296875 9.40625 3.59375 2.90625 3.59375 
L 2.5 3.59375 
L 2.5 0 
L 29.203125 0 
L 29.203125 3.59375 
L 27.296875 3.59375 
C 20.90625 3.59375 19.796875 4.296875 19.796875 8.296875 
L 19.796875 12.296875 
L 19.796875 13.296875 
C 19.796875 20.8125 21.203125 28.40625 23.703125 34.109375 
C 26.09375 39.703125 29.5 42.8125 33.703125 43.3125 
C 32.296875 41.703125 31.90625 40.6875 31.90625 38.765625 
C 31.90625 35.546875 34.203125 33.234375 37.40625 33.234375 
C 41 33.234375 43.5 35.9375 43.5 40.015625 
C 43.5 44.8125 40.09375 48 34.796875 48 
C 28.5 48 23 42.921875 19.796875 34.140625 
z
" id="Century_Schoolbook_L_Roman-114"/>
       <path d="M 54.59375 72 
L 50.90625 72 
L 46.90625 66.09375 
C 42.203125 70.59375 35.796875 73 28.703125 73 
C 15.59375 73 6.796875 64.609375 6.796875 52.15625 
C 6.796875 41.28125 12.203125 35.890625 26.90625 32.109375 
L 36.40625 29.703125 
C 43.796875 27.828125 44.5 27.625 46.59375 26.03125 
C 49.59375 23.734375 51.203125 20.4375 51.203125 16.546875 
C 51.203125 12.5625 49.703125 9.28125 46.703125 6.59375 
C 43.40625 3.6875 40.09375 2.59375 34.59375 2.59375 
C 27.203125 2.59375 21.90625 4.875 17.203125 10.03125 
C 13 14.703125 10.90625 19.375 9.40625 27 
L 5.09375 27 
L 5.5 -1.4375 
L 9.40625 -1.4375 
L 13.90625 5.46875 
C 20.59375 0 26.203125 -2 34.90625 -2 
C 49.59375 -2 59 6.59375 59 19.9375 
C 59 26.109375 56.90625 31.40625 53 35.203125 
C 50.296875 37.796875 46.40625 39.484375 38.40625 41.484375 
L 27.703125 44.171875 
C 18.796875 46.46875 14.59375 50.359375 14.59375 56.4375 
C 14.59375 63.40625 20.296875 68.203125 28.796875 68.203125 
C 35.796875 68.203125 41.5 65.1875 45.5 59.484375 
C 48.40625 55.375 50.203125 51.15625 51.5 46.046875 
L 55.796875 46.046875 
z
" id="Century_Schoolbook_L_Roman-83"/>
       <path d="M 24.59375 35 
L 30.40625 35 
C 34.296875 35 38.296875 33.796875 40.5 31.984375 
C 43.40625 29.6875 44.90625 26.078125 45.59375 19.46875 
L 46.09375 14.34375 
C 47.296875 3.015625 51 -1.59375 58.90625 -1.59375 
C 67.09375 -1.59375 71 3.921875 71.296875 15.921875 
L 67.09375 15.921875 
C 66.703125 9 65.5 6 62.796875 6 
C 60.5 6 59.5 7.703125 57.796875 14.625 
L 56.203125 20.9375 
C 54 30.171875 50.09375 34.375 42.296875 36.390625 
C 56.703125 38.390625 63.59375 44.140625 63.59375 54.1875 
C 63.59375 65.53125 54 72 37.203125 72 
L 2.59375 72 
L 2.59375 67.3125 
L 4.40625 67.3125 
C 12.5 67.3125 13.40625 66.8125 13.40625 62.609375 
L 13.40625 59.71875 
L 13.40625 12.171875 
L 13.40625 9.375 
C 13.40625 5.1875 12.5 4.6875 4.40625 4.6875 
L 2.59375 4.6875 
L 2.59375 0 
L 35.40625 0 
L 35.40625 4.6875 
L 33.59375 4.6875 
C 25.5 4.6875 24.59375 5.1875 24.59375 9.390625 
L 24.59375 12.1875 
z
M 24.59375 39.6875 
L 24.59375 61.546875 
C 24.59375 65.53125 24.703125 65.8125 25.703125 66.609375 
C 26.5 67.203125 27.203125 67.3125 31.5 67.3125 
L 36.90625 67.3125 
C 46.796875 67.3125 51.296875 63.125 51.296875 54.09375 
C 51.296875 49.015625 50 45.140625 47.40625 43.0625 
C 44.90625 40.984375 40.40625 39.6875 35.59375 39.6875 
z
" id="Century_Schoolbook_L_Roman-82"/>
       <path d="M 45.203125 32.578125 
C 45.203125 38.796875 44.09375 41.96875 41.203125 44.34375 
C 37.90625 46.90625 33 48.28125 26.59375 48.28125 
C 15.40625 48.28125 7.09375 43.046875 7.09375 35.921875 
C 7.09375 32.15625 9.40625 29.78125 12.90625 29.78125 
C 16 29.78125 18.296875 31.859375 18.296875 34.8125 
C 18.296875 36.109375 17.796875 37.484375 16.796875 38.875 
C 16.203125 39.546875 16.09375 39.84375 16.09375 40.15625 
C 16.09375 42.21875 20.203125 44 25 44 
C 28.09375 44 31.59375 43.015625 33.203125 41.53125 
C 35.09375 39.953125 35.796875 37.578125 35.796875 33.125 
L 35.796875 29.28125 
C 25.296875 27.484375 22.09375 26.6875 17.203125 24.8125 
C 8.59375 21.609375 4.40625 16.9375 4.40625 10.65625 
C 4.40625 3.578125 10.09375 -1 18.90625 -1 
C 25.796875 -1 32 1.859375 36.296875 7.0625 
C 37.90625 1.984375 40.40625 0 45.09375 0 
C 49.59375 0 54.296875 2.90625 54.296875 5.78125 
C 54.296875 6.46875 53.796875 6.96875 53.296875 6.96875 
C 52.90625 6.96875 52.5 6.875 51.796875 6.578125 
C 50.203125 6 49.796875 5.890625 49 5.890625 
C 46.203125 5.890625 45.203125 7.78125 45.203125 12.71875 
z
M 35.796875 20.46875 
C 35.796875 14.46875 35.5 13.078125 33.796875 10.484375 
C 31.296875 6.78125 26.703125 4.296875 22.40625 4.296875 
C 17.90625 4.296875 14.5 7.59375 14.5 12.078125 
C 14.5 16.265625 16.59375 19.265625 21 21.359375 
C 24.09375 22.75 28 23.75 35.796875 25.046875 
z
" id="Century_Schoolbook_L_Roman-97"/>
       <path d="M 46.5 23 
C 46.59375 37.8125 38.09375 48.28125 25.90625 48.28125 
C 13.09375 48.28125 3.5 37.25 3.5 22.34375 
C 3.5 8.4375 12.59375 -1 26.09375 -1 
C 35.59375 -1 42.40625 3.6875 46.5 13.1875 
L 43 15.09375 
C 38.90625 7.390625 34.703125 4.390625 28 4.390625 
C 22.90625 4.390625 19.203125 6.59375 16.59375 11 
C 14.796875 14 14 17.5 14.09375 23 
z
M 14.203125 27.296875 
C 14.203125 30.34375 14.59375 32.5 15.59375 35.25 
C 17.703125 41.140625 20.90625 44 25.703125 44 
C 31.796875 44 35.796875 38.78125 35.796875 30.921875 
C 35.796875 28.078125 34.90625 27.296875 31.703125 27.296875 
z
" id="Century_Schoolbook_L_Roman-101"/>
       <path d="M 20.40625 73 
L 1.90625 73 
L 1.90625 68.21875 
L 6.796875 68.21875 
C 10.40625 68.21875 11 67.515625 11 63.21875 
L 11 12.28125 
L 11 8.28125 
C 11 4.296875 9.90625 3.59375 3.5 3.59375 
L 2.796875 3.59375 
L 2.796875 0 
L 28.703125 0 
L 28.703125 3.59375 
L 28 3.59375 
C 21.5 3.59375 20.40625 4.296875 20.40625 8.25 
L 20.40625 12.21875 
z
" id="Century_Schoolbook_L_Roman-108"/>
       <path d="M 29.5 12.09375 
L 18.09375 38.59375 
C 17.796875 39.203125 17.59375 40.09375 17.59375 40.703125 
C 17.59375 42.390625 18.90625 43 23 43 
L 24.40625 43 
L 24.40625 46.59375 
L 0.796875 46.59375 
L 0.796875 43 
L 1.59375 43 
C 5.40625 43 6.796875 42.09375 8.203125 38.703125 
L 25.40625 -1.5 
L 28.90625 -1.5 
L 43.09375 33.59375 
C 45.796875 40.203125 48.59375 43 52.40625 43 
L 52.796875 43 
L 52.796875 46.59375 
L 32.796875 46.59375 
L 32.796875 43 
L 34.203125 43 
C 37.703125 43 39.59375 41.796875 39.59375 39.5 
C 39.59375 38.390625 39.203125 36.796875 38.703125 35.296875 
z
" id="Century_Schoolbook_L_Roman-118"/>
       <path d="M 19.40625 47 
L 19.40625 67 
L 15.296875 67 
C 14.296875 53.875 9.90625 47.1875 1.796875 46.59375 
L 1.796875 42.703125 
L 10 42.703125 
L 10 17.265625 
C 10 10.28125 10.203125 7.78125 11.203125 5.484375 
C 12.796875 1.296875 16.796875 -1 22.59375 -1 
C 26.5 -1 29.90625 0.203125 32.203125 2.390625 
C 35.5 5.59375 37.40625 10.875 37.40625 16.375 
C 37.40625 16.96875 37.40625 17.671875 37.296875 18.671875 
L 33.09375 18.671875 
C 32.796875 9.6875 30.203125 5.09375 25.296875 5.09375 
C 23 5.09375 21 6.28125 20.296875 7.984375 
C 19.703125 9.375 19.40625 11.875 19.40625 15.46875 
L 19.40625 42.703125 
L 34.09375 42.703125 
L 34.09375 47 
z
" id="Century_Schoolbook_L_Roman-116"/>
      </defs>
      <g transform="translate(178.998220552 560.768564879)scale(0.12 -0.12)">
       <use transform="scale(0.9962640099626402)" xlink:href="#Century_Schoolbook_L_Roman-83"/>
       <use transform="translate(62.763978951004056 0.0)scale(0.9962640099626402)" xlink:href="#Century_Schoolbook_L_Roman-117"/>
       <use transform="translate(123.63560962795768 0.0)scale(0.9962640099626402)" xlink:href="#Century_Schoolbook_L_Roman-114"/>
       <use transform="translate(167.8691783254203 0.0)scale(0.9962640099626402)" xlink:href="#Century_Schoolbook_L_Roman-118"/>
       <use transform="translate(221.36852221649286 0.0)scale(0.9962640099626402)" xlink:href="#Century_Schoolbook_L_Roman-105"/>
       <use transform="translate(252.74983521267905 0.0)scale(0.9962640099626402)" xlink:href="#Century_Schoolbook_L_Roman-118"/>
       <use transform="translate(306.2491791037516 0.0)scale(0.9962640099626402)" xlink:href="#Century_Schoolbook_L_Roman-97"/>
       <use transform="translate(361.6408560670922 0.0)scale(0.9962640099626402)" xlink:href="#Century_Schoolbook_L_Roman-108"/>
       <use transform="translate(420.71733866652403 0.0)scale(0.9962640099626402)" xlink:href="#Century_Schoolbook_L_Roman-82"/>
       <use transform="translate(492.64732351338733 0.0)scale(0.9962640099626402)" xlink:href="#Century_Schoolbook_L_Roman-97"/>
       <use transform="translate(548.0390004767279 0.0)scale(0.9962640099626402)" xlink:href="#Century_Schoolbook_L_Roman-116"/>
       <use transform="translate(586.7927066712718 0.0)scale(0.9962640099626402)" xlink:href="#Century_Schoolbook_L_Roman-101"/>
      </g>
     </g>
    </g>
    <g id="xtick_2">
     <g id="line2d_17">
      <g>
       <use style="stroke:#000000;stroke-width:0.5;" x="543.758179398" xlink:href="#m3fff611731" y="547.897914413"/>
      </g>
     </g>
     <g id="line2d_18">
      <g>
       <use style="stroke:#000000;stroke-width:0.5;" x="543.758179398" xlink:href="#m2170f3732c" y="28.6047744785"/>
      </g>
     </g>
     <g id="text_2">
      <!-- Kaplan-Meier -->
      <defs>
       <path d="M 28.703125 72 
L 2.90625 72 
L 2.90625 67.3125 
L 4.796875 67.3125 
C 12.90625 67.3125 13.796875 66.8125 13.796875 62.59375 
L 13.796875 59.703125 
L 13.796875 21.390625 
C 13.796875 7.78125 11.796875 4.890625 2.203125 4.890625 
L 2.203125 0 
L 30.703125 0 
L 30.703125 4.890625 
C 21.203125 4.890625 19.203125 7.78125 19.203125 21.40625 
L 19.203125 65.625 
L 43 0 
L 47 0 
L 69.296875 65.625 
L 69.296875 12.453125 
L 69.296875 9.5625 
C 69.296875 5.296875 68.40625 4.890625 60.296875 4.890625 
L 58.5 4.890625 
L 58.5 0 
L 91.296875 0 
L 91.296875 4.890625 
L 89.5 4.890625 
C 81.40625 4.890625 80.5 5.296875 80.5 9.5625 
L 80.5 12.453125 
L 80.5 59.75 
L 80.5 62.625 
C 80.5 66.8125 81.40625 67.3125 89.5 67.3125 
L 91.296875 67.3125 
L 91.296875 72 
L 66.203125 72 
L 47.90625 18.84375 
z
" id="Century_Schoolbook_L_Roman-77"/>
       <path d="M 25 32.609375 
L 25 59.71875 
L 25 62.609375 
C 25 66.8125 25.90625 67.3125 34 67.3125 
L 35.90625 67.3125 
L 35.90625 72 
L 3 72 
L 3 67.3125 
L 4.796875 67.3125 
C 12.90625 67.3125 13.796875 66.8125 13.796875 62.609375 
L 13.796875 59.71875 
L 13.796875 12.28125 
L 13.796875 9.375 
C 13.796875 5.1875 12.90625 4.6875 4.796875 4.6875 
L 3 4.6875 
L 3 0 
L 35.90625 0 
L 35.90625 4.6875 
L 34 4.6875 
C 25.90625 4.6875 25 5.1875 25 9.375 
L 25 12.28125 
L 25 24.9375 
L 36.59375 36.59375 
L 54 11.171875 
C 55.59375 8.78125 56 7.984375 56 6.984375 
C 56 5.390625 54.09375 4.6875 49.203125 4.6875 
L 46.09375 4.6875 
L 46.09375 0 
L 80.296875 0 
L 80.296875 4.6875 
L 78.40625 4.6875 
C 72.90625 4.6875 71.5 5.390625 68.59375 9.6875 
L 44.40625 44.46875 
L 59.296875 59.328125 
C 64.09375 64.40625 70.203125 67.3125 76.203125 67.3125 
L 76.203125 72 
L 45.40625 72 
L 45.40625 67.3125 
L 47.90625 67.3125 
C 52.5 67.3125 54.40625 66.40625 54.40625 64.3125 
C 54.40625 62.921875 52.40625 60.015625 49.5 57.140625 
z
" id="Century_Schoolbook_L_Roman-75"/>
       <path d="M 20.09375 46 
L 2.796875 46 
L 2.796875 41.21875 
L 6.40625 41.21875 
C 10.09375 41.21875 10.703125 40.515625 10.703125 36.21875 
L 10.703125 -7.75 
L 10.703125 -11.71875 
C 10.703125 -15.71875 9.59375 -16.40625 3.203125 -16.40625 
L 2.796875 -16.40625 
L 2.796875 -20 
L 28.796875 -20 
L 28.796875 -16.40625 
L 27.703125 -16.40625 
C 21.203125 -16.40625 20.09375 -15.71875 20.09375 -11.734375 
L 20.09375 -7.75 
L 20.09375 6.6875 
C 23.40625 0.90625 27.203125 -1.390625 33.296875 -1.390625 
C 44.90625 -1.390625 53.5 9.265625 53.5 23.5 
C 53.5 37.265625 44.90625 48 33.90625 48 
C 27.703125 48 23.59375 45.4375 20.09375 39.515625 
z
M 32.09375 42.609375 
C 39 42.609375 43 35.75 43 24.09375 
C 43 11.265625 38.90625 4 31.796875 4 
C 24.703125 4 20 11.375 20 22.8125 
C 20 35.140625 24.5 42.609375 32.09375 42.609375 
" id="Century_Schoolbook_L_Roman-112"/>
       <path d="M 4.203125 27.28125 
L 4.203125 19 
L 29.09375 19 
L 29.09375 27.28125 
z
" id="Century_Schoolbook_L_Roman-45"/>
       <path d="M 20 46 
L 2.703125 46 
L 2.703125 41.21875 
L 6.296875 41.21875 
C 10 41.21875 10.59375 40.515625 10.59375 36.203125 
L 10.59375 12.296875 
L 10.59375 8.296875 
C 10.59375 4.296875 9.5 3.59375 3.09375 3.59375 
L 2.703125 3.59375 
L 2.703125 0 
L 28 0 
L 28 3.59375 
L 27.59375 3.59375 
C 21.09375 3.59375 20 4.296875 20 8.28125 
L 20 12.28125 
L 20 22.65625 
C 20 27.546875 20.703125 32.03125 21.796875 34.328125 
C 23.90625 38.828125 28.40625 41.921875 32.703125 41.921875 
C 35.296875 41.921875 38.296875 40.421875 39.796875 38.421875 
C 41.296875 36.328125 42 33.234375 42 28.4375 
L 42 12.28125 
L 42 8.28125 
C 42 4.296875 40.90625 3.59375 34.40625 3.59375 
L 34 3.59375 
L 34 0 
L 59.296875 0 
L 59.296875 3.59375 
L 58.90625 3.59375 
C 52.5 3.59375 51.40625 4.296875 51.40625 8.28125 
L 51.40625 12.28125 
L 51.40625 27.953125 
C 51.40625 35.125 51.09375 36.921875 49.296875 40.328125 
C 46.796875 45.109375 41.703125 48 35.796875 48 
C 29.40625 48 24.40625 45.046875 20 38.515625 
z
" id="Century_Schoolbook_L_Roman-110"/>
      </defs>
      <g transform="translate(505.346596917 560.768564879)scale(0.12 -0.12)">
       <use transform="scale(0.9962640099626402)" xlink:href="#Century_Schoolbook_L_Roman-75"/>
       <use transform="translate(77.50837010137765 0.0)scale(0.9962640099626402)" xlink:href="#Century_Schoolbook_L_Roman-97"/>
       <use transform="translate(132.90004706471825 0.0)scale(0.9962640099626402)" xlink:href="#Century_Schoolbook_L_Roman-112"/>
       <use transform="translate(190.08553434873133 0.0)scale(0.9962640099626402)" xlink:href="#Century_Schoolbook_L_Roman-108"/>
       <use transform="translate(221.4668473449175 0.0)scale(0.9962640099626402)" xlink:href="#Century_Schoolbook_L_Roman-97"/>
       <use transform="translate(276.8585243082581 0.0)scale(0.9962640099626402)" xlink:href="#Century_Schoolbook_L_Roman-110"/>
       <use transform="translate(337.73015498521175 0.0)scale(0.9962640099626402)" xlink:href="#Century_Schoolbook_L_Roman-45"/>
       <use transform="translate(370.90538471454704 0.0)scale(0.9962640099626402)" xlink:href="#Century_Schoolbook_L_Roman-77"/>
       <use transform="translate(464.9521539101417 0.0)scale(0.9962640099626402)" xlink:href="#Century_Schoolbook_L_Roman-101"/>
       <use transform="translate(514.7653544082738 0.0)scale(0.9962640099626402)" xlink:href="#Century_Schoolbook_L_Roman-105"/>
       <use transform="translate(546.1466674044599 0.0)scale(0.9962640099626402)" xlink:href="#Century_Schoolbook_L_Roman-101"/>
       <use transform="translate(595.9598679025919 0.0)scale(0.9962640099626402)" xlink:href="#Century_Schoolbook_L_Roman-114"/>
      </g>
     </g>
    </g>
   </g>
   <g id="matplotlib.axis_2">
    <g id="ytick_1">
     <g id="line2d_19">
      <defs>
       <path d="M 0 0 
L 4 0 
" id="m9cf92c2e1b" style="stroke:#000000;stroke-width:0.5;"/>
      </defs>
      <g>
       <use style="stroke:#000000;stroke-width:0.5;" x="53.9127175922" xlink:href="#m9cf92c2e1b" y="547.897914413"/>
      </g>
     </g>
     <g id="line2d_20">
      <defs>
       <path d="M 0 0 
L -4 0 
" id="m246c0bdee2" style="stroke:#000000;stroke-width:0.5;"/>
      </defs>
      <g>
       <use style="stroke:#000000;stroke-width:0.5;" x="707.04" xlink:href="#m246c0bdee2" y="547.897914413"/>
      </g>
     </g>
     <g id="text_3">
      <!-- $0.00$ -->
      <defs>
       <path d="M 42 31.640625 
C 42 37.75 41.90625 48.125 37.703125 56.109375 
C 34 63.109375 28.09375 65.59375 22.90625 65.59375 
C 18.09375 65.59375 12 63.40625 8.203125 56.203125 
C 4.203125 48.71875 3.796875 39.4375 3.796875 31.640625 
C 3.796875 25.953125 3.90625 17.28125 7 9.671875 
C 11.296875 -0.609375 19 -2 22.90625 -2 
C 27.5 -2 34.5 -0.109375 38.59375 9.375 
C 41.59375 16.28125 42 24.359375 42 31.640625 
M 22.90625 -0.40625 
C 16.5 -0.40625 12.703125 5.078125 11.296875 12.6875 
C 10.203125 18.5625 10.203125 27.15625 10.203125 32.75 
C 10.203125 40.4375 10.203125 46.828125 11.5 52.921875 
C 13.40625 61.390625 19 64 22.90625 64 
C 27 64 32.296875 61.296875 34.203125 53.125 
C 35.5 47.4375 35.59375 40.734375 35.59375 32.75 
C 35.59375 26.25 35.59375 18.265625 34.40625 12.375 
C 32.296875 1.484375 26.40625 -0.40625 22.90625 -0.40625 
" id="CMR17-48"/>
       <path d="M 18.40625 4.796875 
C 18.40625 7.6875 16 9.671875 13.59375 9.671875 
C 10.703125 9.671875 8.703125 7.28125 8.703125 4.890625 
C 8.703125 2 11.09375 0 13.5 0 
C 16.40625 0 18.40625 2.390625 18.40625 4.796875 
" id="CMMI12-58"/>
      </defs>
      <g transform="translate(29.1020855873 551.197522085)scale(0.12 -0.12)">
       <use transform="scale(0.9962640099626402)" xlink:href="#CMR17-48"/>
       <use transform="translate(45.69047711706103 0.0)scale(0.9962640099626402)" xlink:href="#CMMI12-58"/>
       <use transform="translate(72.78765420688046 0.0)scale(0.9962640099626402)" xlink:href="#CMR17-48"/>
       <use transform="translate(118.47813132394148 0.0)scale(0.9962640099626402)" xlink:href="#CMR17-48"/>
      </g>
     </g>
    </g>
    <g id="ytick_2">
     <g id="line2d_21">
      <g>
       <use style="stroke:#000000;stroke-width:0.5;" x="53.9127175922" xlink:href="#m9cf92c2e1b" y="444.039286426"/>
      </g>
     </g>
     <g id="line2d_22">
      <g>
       <use style="stroke:#000000;stroke-width:0.5;" x="707.04" xlink:href="#m246c0bdee2" y="444.039286426"/>
      </g>
     </g>
     <g id="text_4">
      <!-- $0.05$ -->
      <defs>
       <path d="M 11.40625 57.6875 
C 12.40625 57.28125 16.5 56 20.703125 56 
C 30 56 35.09375 61.015625 38 63.921875 
C 38 64.734375 38 65.25 37.40625 65.25 
C 37.296875 65.25 37.09375 65.25 36.296875 64.828125 
C 32.796875 63.3125 28.703125 62.078125 23.703125 62.078125 
C 20.703125 62.078125 16.203125 62.5 11.296875 64.734375 
C 10.203125 65.25 10 65.25 9.90625 65.25 
C 9.40625 65.25 9.296875 65.140625 9.296875 63.15625 
L 9.296875 34.28125 
C 9.296875 32.5 9.296875 32 10.296875 32 
C 10.796875 32 11 32.203125 11.5 32.90625 
C 14.703125 37.484375 19.09375 39.40625 24.09375 39.40625 
C 27.59375 39.40625 35.09375 37.21875 35.09375 20.140625 
C 35.09375 16.953125 35.09375 11.171875 32.09375 6.578125 
C 29.59375 2.484375 25.703125 0.390625 21.40625 0.390625 
C 14.796875 0.390625 8.09375 5 6.296875 12.71875 
C 6.703125 12.609375 7.5 12.421875 7.90625 12.421875 
C 9.203125 12.421875 11.703125 13.125 11.703125 16.21875 
C 11.703125 18.90625 9.796875 20 7.90625 20 
C 5.59375 20 4.09375 18.59375 4.09375 15.796875 
C 4.09375 7.09375 11 -2 21.59375 -2 
C 31.90625 -2 41.703125 6.875 41.703125 19.75 
C 41.703125 31.71875 33.90625 41 24.203125 41 
C 19.09375 41 14.796875 39.09375 11.40625 35.453125 
z
" id="CMR17-53"/>
      </defs>
      <g transform="translate(29.1020855873 447.338894098)scale(0.12 -0.12)">
       <use transform="scale(0.9962640099626402)" xlink:href="#CMR17-48"/>
       <use transform="translate(45.69047711706103 0.0)scale(0.9962640099626402)" xlink:href="#CMMI12-58"/>
       <use transform="translate(72.78765420688046 0.0)scale(0.9962640099626402)" xlink:href="#CMR17-48"/>
       <use transform="translate(118.47813132394148 0.0)scale(0.9962640099626402)" xlink:href="#CMR17-53"/>
      </g>
     </g>
    </g>
    <g id="ytick_3">
     <g id="line2d_23">
      <g>
       <use style="stroke:#000000;stroke-width:0.5;" x="53.9127175922" xlink:href="#m9cf92c2e1b" y="340.180658439"/>
      </g>
     </g>
     <g id="line2d_24">
      <g>
       <use style="stroke:#000000;stroke-width:0.5;" x="707.04" xlink:href="#m246c0bdee2" y="340.180658439"/>
      </g>
     </g>
     <g id="text_5">
      <!-- $0.10$ -->
      <defs>
       <path d="M 26.59375 63.3125 
C 26.59375 65.40625 26.5 65.5 25.09375 65.5 
C 21.203125 61.1875 15.296875 59.796875 9.703125 59.796875 
C 9.40625 59.796875 8.90625 59.796875 8.796875 59.5 
C 8.703125 59.296875 8.703125 59.09375 8.703125 57 
C 11.796875 57 17 57.59375 21 59.984375 
L 21 7.203125 
C 21 3.6875 20.796875 2.5 12.203125 2.5 
L 9.203125 2.5 
L 9.203125 0 
C 14 0 19 0 23.796875 0 
C 28.59375 0 33.59375 0 38.40625 0 
L 38.40625 2.5 
L 35.40625 2.5 
C 26.796875 2.5 26.59375 3.59375 26.59375 7.15625 
z
" id="CMR17-49"/>
      </defs>
      <g transform="translate(29.1020855873 343.480266111)scale(0.12 -0.12)">
       <use transform="scale(0.9962640099626402)" xlink:href="#CMR17-48"/>
       <use transform="translate(45.69047711706103 0.0)scale(0.9962640099626402)" xlink:href="#CMMI12-58"/>
       <use transform="translate(72.78765420688046 0.0)scale(0.9962640099626402)" xlink:href="#CMR17-49"/>
       <use transform="translate(118.47813132394148 0.0)scale(0.9962640099626402)" xlink:href="#CMR17-48"/>
      </g>
     </g>
    </g>
    <g id="ytick_4">
     <g id="line2d_25">
      <g>
       <use style="stroke:#000000;stroke-width:0.5;" x="53.9127175922" xlink:href="#m9cf92c2e1b" y="236.322030452"/>
      </g>
     </g>
     <g id="line2d_26">
      <g>
       <use style="stroke:#000000;stroke-width:0.5;" x="707.04" xlink:href="#m246c0bdee2" y="236.322030452"/>
      </g>
     </g>
     <g id="text_6">
      <!-- $0.15$ -->
      <g transform="translate(29.1020855873 239.621638125)scale(0.12 -0.12)">
       <use transform="scale(0.9962640099626402)" xlink:href="#CMR17-48"/>
       <use transform="translate(45.69047711706103 0.0)scale(0.9962640099626402)" xlink:href="#CMMI12-58"/>
       <use transform="translate(72.78765420688046 0.0)scale(0.9962640099626402)" xlink:href="#CMR17-49"/>
       <use transform="translate(118.47813132394148 0.0)scale(0.9962640099626402)" xlink:href="#CMR17-53"/>
      </g>
     </g>
    </g>
    <g id="ytick_5">
     <g id="line2d_27">
      <g>
       <use style="stroke:#000000;stroke-width:0.5;" x="53.9127175922" xlink:href="#m9cf92c2e1b" y="132.463402465"/>
      </g>
     </g>
     <g id="line2d_28">
      <g>
       <use style="stroke:#000000;stroke-width:0.5;" x="707.04" xlink:href="#m246c0bdee2" y="132.463402465"/>
      </g>
     </g>
     <g id="text_7">
      <!-- $0.20$ -->
      <defs>
       <path d="M 41.703125 15.453125 
L 39.90625 15.453125 
C 38.90625 8.375 38.09375 7.171875 37.703125 6.5625 
C 37.203125 5.765625 30 5.765625 28.59375 5.765625 
L 9.40625 5.765625 
C 13 9.671875 20 16.75 28.5 24.953125 
C 34.59375 30.734375 41.703125 37.53125 41.703125 47.421875 
C 41.703125 59.21875 32.296875 66 21.796875 66 
C 10.796875 66 4.09375 56.3125 4.09375 47.34375 
C 4.09375 43.4375 7 42.9375 8.203125 42.9375 
C 9.203125 42.9375 12.203125 43.546875 12.203125 47.03125 
C 12.203125 50.109375 9.59375 51 8.203125 51 
C 7.59375 51 7 50.90625 6.59375 50.703125 
C 8.5 59.21875 14.296875 63.40625 20.40625 63.40625 
C 29.09375 63.40625 34.796875 56.515625 34.796875 47.421875 
C 34.796875 38.734375 29.703125 31.25 24 24.75 
L 4.09375 2.28125 
L 4.09375 0 
L 39.296875 0 
z
" id="CMR17-50"/>
      </defs>
      <g transform="translate(29.1020855873 135.763010138)scale(0.12 -0.12)">
       <use transform="scale(0.9962640099626402)" xlink:href="#CMR17-48"/>
       <use transform="translate(45.69047711706103 0.0)scale(0.9962640099626402)" xlink:href="#CMMI12-58"/>
       <use transform="translate(72.78765420688046 0.0)scale(0.9962640099626402)" xlink:href="#CMR17-50"/>
       <use transform="translate(118.47813132394148 0.0)scale(0.9962640099626402)" xlink:href="#CMR17-48"/>
      </g>
     </g>
    </g>
    <g id="ytick_6">
     <g id="line2d_29">
      <g>
       <use style="stroke:#000000;stroke-width:0.5;" x="53.9127175922" xlink:href="#m9cf92c2e1b" y="28.6047744785"/>
      </g>
     </g>
     <g id="line2d_30">
      <g>
       <use style="stroke:#000000;stroke-width:0.5;" x="707.04" xlink:href="#m246c0bdee2" y="28.6047744785"/>
      </g>
     </g>
     <g id="text_8">
      <!-- $0.25$ -->
      <g transform="translate(29.1020855873 31.9043821509)scale(0.12 -0.12)">
       <use transform="scale(0.9962640099626402)" xlink:href="#CMR17-48"/>
       <use transform="translate(45.69047711706103 0.0)scale(0.9962640099626402)" xlink:href="#CMMI12-58"/>
       <use transform="translate(72.78765420688046 0.0)scale(0.9962640099626402)" xlink:href="#CMR17-50"/>
       <use transform="translate(118.47813132394148 0.0)scale(0.9962640099626402)" xlink:href="#CMR17-53"/>
      </g>
     </g>
    </g>
    <g id="text_9">
     <!-- Brier Score -->
     <defs>
      <path d="M 38.703125 15.109375 
C 35.5 7.96875 32.09375 5.09375 26.90625 5.09375 
C 18.90625 5.09375 13.90625 12.328125 13.90625 23.9375 
C 13.90625 35.953125 18.796875 44 26.203125 44 
C 29.203125 44 31.796875 42.59375 31.796875 41.015625 
C 31.796875 40.71875 31.59375 40.421875 31.203125 39.8125 
C 29.59375 37.9375 29.203125 36.9375 29.203125 35.265625 
C 29.203125 31.984375 31.703125 29.703125 35.203125 29.703125 
C 38.703125 29.703125 41.296875 32.484375 41.296875 36.453125 
C 41.296875 43.109375 34.59375 48.28125 25.703125 48.28125 
C 12.703125 48.28125 3.40625 37.65625 3.40625 22.84375 
C 3.40625 8.734375 11.90625 -1 24.296875 -1 
C 33.203125 -1 38.296875 3.078125 42.59375 13.625 
z
" id="Century_Schoolbook_L_Roman-99"/>
      <path d="M 3 72 
L 3 67.3125 
L 4.796875 67.3125 
C 12.90625 67.3125 13.796875 66.8125 13.796875 62.609375 
L 13.796875 59.71875 
L 13.796875 12.28125 
L 13.796875 9.375 
C 13.796875 5.1875 12.90625 4.6875 4.796875 4.6875 
L 3 4.6875 
L 3 0 
L 39.296875 0 
C 56.59375 0 67 7.40625 67 19.59375 
C 67 29.484375 60.59375 35.296875 47 37.6875 
C 51.796875 38.6875 54 39.578125 56.5 41.46875 
C 60.703125 44.546875 63.203125 49.421875 63.203125 54.5 
C 63.203125 60.859375 59.203125 67.125 53.40625 69.609375 
C 49.796875 71.203125 44.796875 72 38.90625 72 
z
M 25 39.6875 
L 25 62.328125 
C 25 66.203125 26.40625 67.3125 31.59375 67.3125 
L 35.59375 67.3125 
C 40.203125 67.3125 44 66.609375 46.09375 65.21875 
C 49.703125 63.03125 51.59375 58.75 51.59375 53.203125 
C 51.59375 43.46875 46.703125 39.6875 33.90625 39.6875 
z
M 25 35 
L 33.796875 35 
C 40.203125 35 44.5 34.390625 47.5 33.09375 
C 52.203125 30.890625 54.703125 26.5 54.703125 19.890625 
C 54.703125 13.59375 52.5 8.890625 48.59375 6.984375 
C 45.5 5.390625 41.296875 4.6875 35 4.6875 
L 30.796875 4.6875 
C 25.703125 4.6875 25 5.484375 25 11 
z
" id="Century_Schoolbook_L_Roman-66"/>
      <path d="M 25.203125 48.28125 
C 13 48.28125 3.40625 37.453125 3.40625 23.546875 
C 3.40625 9.9375 13 -1 25 -1 
C 37 -1 46.59375 9.9375 46.59375 23.640625 
C 46.59375 37.25 37 48.28125 25.203125 48.28125 
M 25.203125 44 
C 32.203125 44 36.09375 36.734375 36.09375 23.640625 
C 36.09375 10.453125 32.203125 3.296875 25 3.296875 
C 17.796875 3.296875 13.90625 10.453125 13.90625 23.546875 
C 13.90625 37.046875 17.703125 44 25.203125 44 
" id="Century_Schoolbook_L_Roman-111"/>
     </defs>
     <g transform="translate(21.830650466 319.459980396)rotate(-90.0)scale(0.12 -0.12)">
      <use transform="scale(0.9962640099626402)" xlink:href="#Century_Schoolbook_L_Roman-66"/>
      <use transform="translate(71.92998484686333 0.0)scale(0.9962640099626402)" xlink:href="#Century_Schoolbook_L_Roman-114"/>
      <use transform="translate(116.16355354432598 0.0)scale(0.9962640099626402)" xlink:href="#Century_Schoolbook_L_Roman-105"/>
      <use transform="translate(147.54486654051215 0.0)scale(0.9962640099626402)" xlink:href="#Century_Schoolbook_L_Roman-101"/>
      <use transform="translate(197.35806703864418 0.0)scale(0.9962640099626402)" xlink:href="#Century_Schoolbook_L_Roman-114"/>
      <use transform="translate(269.28680533935244 0.0)scale(0.9962640099626402)" xlink:href="#Century_Schoolbook_L_Roman-83"/>
      <use transform="translate(332.0507842903565 0.0)scale(0.9962640099626402)" xlink:href="#Century_Schoolbook_L_Roman-99"/>
      <use transform="translate(376.28435298781915 0.0)scale(0.9962640099626402)" xlink:href="#Century_Schoolbook_L_Roman-111"/>
      <use transform="translate(426.09755348595115 0.0)scale(0.9962640099626402)" xlink:href="#Century_Schoolbook_L_Roman-114"/>
      <use transform="translate(470.3311221834138 0.0)scale(0.9962640099626402)" xlink:href="#Century_Schoolbook_L_Roman-101"/>
     </g>
    </g>
   </g>
   <g id="text_10">
    <!-- Brier Scores Across Categories -->
    <defs>
     <path d="M 37.796875 73.5 
L 33.59375 73.5 
L 10.59375 15.265625 
C 8.59375 10.078125 8.203125 9.375 6.703125 7.78125 
C 5.09375 5.890625 2.296875 4.6875 -0.40625 4.6875 
L -0.796875 4.6875 
L -0.796875 0 
L 25.703125 0 
L 25.703125 4.6875 
L 23.703125 4.6875 
C 18.296875 4.6875 15.59375 6.625 15.59375 10.453125 
C 15.59375 11.671875 15.90625 13.078125 16.5 14.703125 
L 19.796875 23.609375 
L 46.296875 23.609375 
L 51.703125 10.0625 
C 52.296875 8.53125 52.5 7.828125 52.5 7.3125 
C 52.5 5.703125 50 4.6875 46.296875 4.6875 
L 42.09375 4.6875 
L 42.09375 0 
L 73.09375 0 
L 73.09375 4.6875 
L 71.703125 4.6875 
C 66.703125 4.6875 65.59375 5.484375 63.296875 11.078125 
z
M 32.90625 57.203125 
L 44.203125 29 
L 21.796875 29 
z
" id="Century_Schoolbook_L_Roman-65"/>
     <path d="M 63.90625 72 
L 60.09375 72 
L 56.09375 66.015625 
C 49 71.203125 45.09375 72.703125 38.40625 72.703125 
C 28.703125 72.703125 20.703125 68.8125 13.90625 60.78125 
C 7.5 53.234375 4.5 44.890625 4.5 34.65625 
C 4.5 13.296875 18.59375 -2 38.296875 -2 
C 54.296875 -2 64.5 7.34375 66.796875 24.015625 
L 62.09375 24.8125 
C 61.09375 19.546875 59.90625 15.984375 58.09375 13.015625 
C 54 6.171875 47.59375 2.6875 39.5 2.6875 
C 24.703125 2.6875 17.703125 12.90625 17.703125 34.265625 
C 17.703125 45.46875 19.203125 53.015625 22.59375 58.96875 
C 25.703125 64.53125 31.90625 68 38.296875 68 
C 45.296875 68 51.5 64.328125 55.296875 57.96875 
C 57.203125 54.6875 58.703125 50.8125 61 43.171875 
L 65.40625 43.171875 
z
" id="Century_Schoolbook_L_Roman-67"/>
     <path d="M 39 48 
L 35.5 48 
L 32.59375 44.40625 
C 29 47.203125 25.40625 48.390625 20.40625 48.390625 
C 11.59375 48.390625 5.796875 42.625 5.796875 33.953125 
C 5.796875 30.078125 7.09375 26.78125 9.296875 24.8125 
C 11.59375 22.703125 13.90625 21.71875 19.90625 20.3125 
L 25.203125 19.125 
C 33.09375 17.234375 35.90625 15.234375 35.90625 11.265625 
C 35.90625 6.578125 31.796875 3.296875 25.90625 3.296875 
C 17.5 3.296875 11.5 8.765625 9.09375 18.875 
L 5.09375 18.875 
L 5.09375 0 
L 8.59375 0 
L 12.09375 3.90625 
C 16.203125 0.59375 20.796875 -1 25.796875 -1 
C 35.59375 -1 42.09375 5.078125 42.09375 14.34375 
C 42.09375 18.71875 40.703125 22.09375 37.90625 24.390625 
C 35.5 26.484375 33.5 27.28125 27.40625 28.5625 
L 22.40625 29.671875 
C 16.90625 30.859375 16.90625 30.859375 15.09375 31.859375 
C 12.90625 32.859375 11.59375 34.9375 11.59375 37.140625 
C 11.59375 41.109375 15.40625 44 20.90625 44 
C 24.703125 44 27.796875 42.703125 30.59375 40.015625 
C 32.796875 37.8125 33.90625 35.828125 35.5 31.234375 
L 39 31.234375 
z
" id="Century_Schoolbook_L_Roman-115"/>
     <path d="M 19.59375 7.59375 
C 14.09375 7.59375 13.796875 7.703125 12.59375 8.46875 
C 11.90625 8.90625 11.40625 10.109375 11.40625 11.296875 
C 11.40625 14.578125 14.09375 16 20.796875 16 
C 30.296875 16 31.796875 16.203125 35.09375 17.6875 
C 41.09375 20.359375 44.5 25.484375 44.5 31.984375 
C 44.5 35.921875 43.59375 38.390625 40.796875 41.640625 
C 42.5 43.40625 43.40625 44 44.203125 44 
C 44.703125 44 45 43.6875 45.203125 42.625 
C 45.59375 40.265625 47.203125 39 49.703125 39 
C 52.203125 39 54.203125 41.09375 54.203125 43.78125 
C 54.203125 47.1875 51.5 49.578125 47.59375 49.578125 
C 44.40625 49.578125 42.59375 48.5625 38 44.296875 
C 33.796875 47.09375 30.59375 48.078125 25.59375 48.078125 
C 13.703125 48.078125 5.90625 41.625 5.90625 31.8125 
C 5.90625 26.03125 9.09375 21.03125 14.296875 18.6875 
C 7.59375 17.15625 4.796875 14.09375 4.796875 8.46875 
C 4.796875 3.984375 6.796875 1.328125 11.5 -0.296875 
C 5.296875 -2.484375 2.296875 -5.671875 2.296875 -9.75 
C 2.296875 -16.3125 10 -20 23.40625 -20 
C 40.09375 -20 48.5 -14.71875 48.5 -4.25 
C 48.5 0.71875 46.203125 4.6875 42.5 6.1875 
C 39.90625 7.1875 36.703125 7.59375 29.796875 7.59375 
z
M 25.5 44 
C 31.796875 44 35.296875 39.671875 35.296875 32.09375 
C 35.296875 24.421875 31.5 19.78125 25.09375 19.78125 
C 18.90625 19.78125 15 24.421875 15 31.796875 
C 15 39.5625 18.796875 44 25.5 44 
M 24.59375 -1 
C 32.90625 -1 33.5 -1 35 -1.1875 
C 39 -1.59375 41.5 -3.78125 41.5 -6.953125 
C 41.5 -12.625 35 -15.90625 23.796875 -15.90625 
C 15.40625 -15.90625 10.59375 -13.421875 10.59375 -8.953125 
C 10.59375 -5.671875 12.40625 -3.46875 17.203125 -1 
z
" id="Century_Schoolbook_L_Roman-103"/>
    </defs>
    <g transform="translate(278.605300618 23.6047744785)scale(0.144 -0.144)">
     <use transform="scale(0.9962640099626402)" xlink:href="#Century_Schoolbook_L_Roman-66"/>
     <use transform="translate(71.92998484686333 0.0)scale(0.9962640099626402)" xlink:href="#Century_Schoolbook_L_Roman-114"/>
     <use transform="translate(116.16355354432598 0.0)scale(0.9962640099626402)" xlink:href="#Century_Schoolbook_L_Roman-105"/>
     <use transform="translate(147.54486654051215 0.0)scale(0.9962640099626402)" xlink:href="#Century_Schoolbook_L_Roman-101"/>
     <use transform="translate(197.35806703864418 0.0)scale(0.9962640099626402)" xlink:href="#Century_Schoolbook_L_Roman-114"/>
     <use transform="translate(269.28680533935244 0.0)scale(0.9962640099626402)" xlink:href="#Century_Schoolbook_L_Roman-83"/>
     <use transform="translate(332.0507842903565 0.0)scale(0.9962640099626402)" xlink:href="#Century_Schoolbook_L_Roman-99"/>
     <use transform="translate(376.28435298781915 0.0)scale(0.9962640099626402)" xlink:href="#Century_Schoolbook_L_Roman-111"/>
     <use transform="translate(426.09755348595115 0.0)scale(0.9962640099626402)" xlink:href="#Century_Schoolbook_L_Roman-114"/>
     <use transform="translate(470.3311221834138 0.0)scale(0.9962640099626402)" xlink:href="#Century_Schoolbook_L_Roman-101"/>
     <use transform="translate(520.1443226815458 0.0)scale(0.9962640099626402)" xlink:href="#Century_Schoolbook_L_Roman-115"/>
     <use transform="translate(593.9653028438279 0.0)scale(0.9962640099626402)" xlink:href="#Century_Schoolbook_L_Roman-65"/>
     <use transform="translate(665.8952876906912 0.0)scale(0.9962640099626402)" xlink:href="#Century_Schoolbook_L_Roman-99"/>
     <use transform="translate(710.1288563881538 0.0)scale(0.9962640099626402)" xlink:href="#Century_Schoolbook_L_Roman-114"/>
     <use transform="translate(754.3624250856166 0.0)scale(0.9962640099626402)" xlink:href="#Century_Schoolbook_L_Roman-111"/>
     <use transform="translate(804.1756255837486 0.0)scale(0.9962640099626402)" xlink:href="#Century_Schoolbook_L_Roman-115"/>
     <use transform="translate(850.301436142785 0.0)scale(0.9962640099626402)" xlink:href="#Century_Schoolbook_L_Roman-115"/>
     <use transform="translate(924.1224163050671 0.0)scale(0.9962640099626402)" xlink:href="#Century_Schoolbook_L_Roman-67"/>
     <use transform="translate(996.0524011519303 0.0)scale(0.9962640099626402)" xlink:href="#Century_Schoolbook_L_Roman-97"/>
     <use transform="translate(1051.444078115271 0.0)scale(0.9962640099626402)" xlink:href="#Century_Schoolbook_L_Roman-116"/>
     <use transform="translate(1090.1977843098148 0.0)scale(0.9962640099626402)" xlink:href="#Century_Schoolbook_L_Roman-101"/>
     <use transform="translate(1140.010984807947 0.0)scale(0.9962640099626402)" xlink:href="#Century_Schoolbook_L_Roman-103"/>
     <use transform="translate(1193.5103286990195 0.0)scale(0.9962640099626402)" xlink:href="#Century_Schoolbook_L_Roman-111"/>
     <use transform="translate(1243.3235291971514 0.0)scale(0.9962640099626402)" xlink:href="#Century_Schoolbook_L_Roman-114"/>
     <use transform="translate(1287.5570978946141 0.0)scale(0.9962640099626402)" xlink:href="#Century_Schoolbook_L_Roman-105"/>
     <use transform="translate(1318.9384108908002 0.0)scale(0.9962640099626402)" xlink:href="#Century_Schoolbook_L_Roman-101"/>
     <use transform="translate(1368.7516113889324 0.0)scale(0.9962640099626402)" xlink:href="#Century_Schoolbook_L_Roman-115"/>
    </g>
   </g>
  </g>
 </g>
 <defs>
  <clipPath id="pef60058ef6">
   <rect height="519.293139934" width="653.127282408" x="53.9127175922" y="28.6047744785"/>
  </clipPath>
 </defs>
</svg>
