<?xml version="1.0" encoding="utf-8" standalone="no"?>
<!DOCTYPE svg PUBLIC "-//W3C//DTD SVG 1.1//EN"
  "http://www.w3.org/Graphics/SVG/1.1/DTD/svg11.dtd">
<!-- Created with matplotlib (http://matplotlib.org/) -->
<svg height="576pt" version="1.1" viewBox="0 0 720 576" width="720pt" xmlns="http://www.w3.org/2000/svg" xmlns:xlink="http://www.w3.org/1999/xlink">
 <defs>
  <style type="text/css">
*{stroke-linecap:butt;stroke-linejoin:round;stroke-miterlimit:100000;}
  </style>
 </defs>
 <g id="figure_1">
  <g id="patch_1">
   <path d="M 0 576 
L 720 576 
L 720 0 
L 0 0 
L 0 576 
z
" style="fill:none;"/>
  </g>
  <g id="axes_1">
   <g id="patch_2">
    <path d="M 50.661056 531.755829 
L 699.561179 531.755829 
L 699.561179 28.604774 
L 50.661056 28.604774 
L 50.661056 531.755829 
z
" style="fill:none;"/>
   </g>
   <g id="patch_3">
    <path clip-path="url(#p23a9022ba3)" d="M 50.661056 531.755829 
L 53.905557 531.755829 
L 53.905557 531.755829 
L 50.661056 531.755829 
z
" style="fill:#0000ff;opacity:0.6;stroke:#000000;stroke-linejoin:miter;"/>
   </g>
   <g id="patch_4">
    <path clip-path="url(#p23a9022ba3)" d="M 53.905557 531.755829 
L 57.150058 531.755829 
L 57.150058 531.755829 
L 53.905557 531.755829 
z
" style="fill:#0000ff;opacity:0.6;stroke:#000000;stroke-linejoin:miter;"/>
   </g>
   <g id="patch_5">
    <path clip-path="url(#p23a9022ba3)" d="M 57.150058 531.755829 
L 60.394558 531.755829 
L 60.394558 531.755829 
L 57.150058 531.755829 
z
" style="fill:#0000ff;opacity:0.6;stroke:#000000;stroke-linejoin:miter;"/>
   </g>
   <g id="patch_6">
    <path clip-path="url(#p23a9022ba3)" d="M 60.394558 531.755829 
L 63.639059 531.755829 
L 63.639059 531.755829 
L 60.394558 531.755829 
z
" style="fill:#0000ff;opacity:0.6;stroke:#000000;stroke-linejoin:miter;"/>
   </g>
   <g id="patch_7">
    <path clip-path="url(#p23a9022ba3)" d="M 63.639059 531.755829 
L 66.883559 531.755829 
L 66.883559 531.755829 
L 63.639059 531.755829 
z
" style="fill:#0000ff;opacity:0.6;stroke:#000000;stroke-linejoin:miter;"/>
   </g>
   <g id="patch_8">
    <path clip-path="url(#p23a9022ba3)" d="M 66.883559 531.755829 
L 70.12806 531.755829 
L 70.12806 531.755829 
L 66.883559 531.755829 
z
" style="fill:#0000ff;opacity:0.6;stroke:#000000;stroke-linejoin:miter;"/>
   </g>
   <g id="patch_9">
    <path clip-path="url(#p23a9022ba3)" d="M 70.12806 531.755829 
L 73.372561 531.755829 
L 73.372561 531.755829 
L 70.12806 531.755829 
z
" style="fill:#0000ff;opacity:0.6;stroke:#000000;stroke-linejoin:miter;"/>
   </g>
   <g id="patch_10">
    <path clip-path="url(#p23a9022ba3)" d="M 73.372561 531.755829 
L 76.617061 531.755829 
L 76.617061 531.755829 
L 73.372561 531.755829 
z
" style="fill:#0000ff;opacity:0.6;stroke:#000000;stroke-linejoin:miter;"/>
   </g>
   <g id="patch_11">
    <path clip-path="url(#p23a9022ba3)" d="M 76.617061 531.755829 
L 79.861562 531.755829 
L 79.861562 531.755829 
L 76.617061 531.755829 
z
" style="fill:#0000ff;opacity:0.6;stroke:#000000;stroke-linejoin:miter;"/>
   </g>
   <g id="patch_12">
    <path clip-path="url(#p23a9022ba3)" d="M 79.861562 531.755829 
L 83.106062 531.755829 
L 83.106062 531.755829 
L 79.861562 531.755829 
z
" style="fill:#0000ff;opacity:0.6;stroke:#000000;stroke-linejoin:miter;"/>
   </g>
   <g id="patch_13">
    <path clip-path="url(#p23a9022ba3)" d="M 83.106062 531.755829 
L 86.350563 531.755829 
L 86.350563 531.755829 
L 83.106062 531.755829 
z
" style="fill:#0000ff;opacity:0.6;stroke:#000000;stroke-linejoin:miter;"/>
   </g>
   <g id="patch_14">
    <path clip-path="url(#p23a9022ba3)" d="M 86.350563 531.755829 
L 89.595064 531.755829 
L 89.595064 531.755829 
L 86.350563 531.755829 
z
" style="fill:#0000ff;opacity:0.6;stroke:#000000;stroke-linejoin:miter;"/>
   </g>
   <g id="patch_15">
    <path clip-path="url(#p23a9022ba3)" d="M 89.595064 531.755829 
L 92.839564 531.755829 
L 92.839564 531.755829 
L 89.595064 531.755829 
z
" style="fill:#0000ff;opacity:0.6;stroke:#000000;stroke-linejoin:miter;"/>
   </g>
   <g id="patch_16">
    <path clip-path="url(#p23a9022ba3)" d="M 92.839564 531.755829 
L 96.084065 531.755829 
L 96.084065 531.755829 
L 92.839564 531.755829 
z
" style="fill:#0000ff;opacity:0.6;stroke:#000000;stroke-linejoin:miter;"/>
   </g>
   <g id="patch_17">
    <path clip-path="url(#p23a9022ba3)" d="M 96.084065 531.755829 
L 99.328566 531.755829 
L 99.328566 531.755829 
L 96.084065 531.755829 
z
" style="fill:#0000ff;opacity:0.6;stroke:#000000;stroke-linejoin:miter;"/>
   </g>
   <g id="patch_18">
    <path clip-path="url(#p23a9022ba3)" d="M 99.328566 531.755829 
L 102.573066 531.755829 
L 102.573066 531.755829 
L 99.328566 531.755829 
z
" style="fill:#0000ff;opacity:0.6;stroke:#000000;stroke-linejoin:miter;"/>
   </g>
   <g id="patch_19">
    <path clip-path="url(#p23a9022ba3)" d="M 102.573066 531.755829 
L 105.817567 531.755829 
L 105.817567 531.755829 
L 102.573066 531.755829 
z
" style="fill:#0000ff;opacity:0.6;stroke:#000000;stroke-linejoin:miter;"/>
   </g>
   <g id="patch_20">
    <path clip-path="url(#p23a9022ba3)" d="M 105.817567 531.755829 
L 109.062067 531.755829 
L 109.062067 531.755829 
L 105.817567 531.755829 
z
" style="fill:#0000ff;opacity:0.6;stroke:#000000;stroke-linejoin:miter;"/>
   </g>
   <g id="patch_21">
    <path clip-path="url(#p23a9022ba3)" d="M 109.062067 531.755829 
L 112.306568 531.755829 
L 112.306568 531.755829 
L 109.062067 531.755829 
z
" style="fill:#0000ff;opacity:0.6;stroke:#000000;stroke-linejoin:miter;"/>
   </g>
   <g id="patch_22">
    <path clip-path="url(#p23a9022ba3)" d="M 112.306568 531.755829 
L 115.551069 531.755829 
L 115.551069 531.755829 
L 112.306568 531.755829 
z
" style="fill:#0000ff;opacity:0.6;stroke:#000000;stroke-linejoin:miter;"/>
   </g>
   <g id="patch_23">
    <path clip-path="url(#p23a9022ba3)" d="M 115.551069 531.755829 
L 118.795569 531.755829 
L 118.795569 531.755829 
L 115.551069 531.755829 
z
" style="fill:#0000ff;opacity:0.6;stroke:#000000;stroke-linejoin:miter;"/>
   </g>
   <g id="patch_24">
    <path clip-path="url(#p23a9022ba3)" d="M 118.795569 531.755829 
L 122.04007 531.755829 
L 122.04007 531.755829 
L 118.795569 531.755829 
z
" style="fill:#0000ff;opacity:0.6;stroke:#000000;stroke-linejoin:miter;"/>
   </g>
   <g id="patch_25">
    <path clip-path="url(#p23a9022ba3)" d="M 122.04007 531.755829 
L 125.28457 531.755829 
L 125.28457 531.755829 
L 122.04007 531.755829 
z
" style="fill:#0000ff;opacity:0.6;stroke:#000000;stroke-linejoin:miter;"/>
   </g>
   <g id="patch_26">
    <path clip-path="url(#p23a9022ba3)" d="M 125.28457 531.755829 
L 128.529071 531.755829 
L 128.529071 531.755829 
L 125.28457 531.755829 
z
" style="fill:#0000ff;opacity:0.6;stroke:#000000;stroke-linejoin:miter;"/>
   </g>
   <g id="patch_27">
    <path clip-path="url(#p23a9022ba3)" d="M 128.529071 531.755829 
L 131.773572 531.755829 
L 131.773572 531.152048 
L 128.529071 531.152048 
z
" style="fill:#0000ff;opacity:0.6;stroke:#000000;stroke-linejoin:miter;"/>
   </g>
   <g id="patch_28">
    <path clip-path="url(#p23a9022ba3)" d="M 131.773572 531.755829 
L 135.018072 531.755829 
L 135.018072 528.334402 
L 131.773572 528.334402 
z
" style="fill:#0000ff;opacity:0.6;stroke:#000000;stroke-linejoin:miter;"/>
   </g>
   <g id="patch_29">
    <path clip-path="url(#p23a9022ba3)" d="M 135.018072 531.755829 
L 138.262573 531.755829 
L 138.262573 531.755829 
L 135.018072 531.755829 
z
" style="fill:#0000ff;opacity:0.6;stroke:#000000;stroke-linejoin:miter;"/>
   </g>
   <g id="patch_30">
    <path clip-path="url(#p23a9022ba3)" d="M 138.262573 531.755829 
L 141.507074 531.755829 
L 141.507074 531.755829 
L 138.262573 531.755829 
z
" style="fill:#0000ff;opacity:0.6;stroke:#000000;stroke-linejoin:miter;"/>
   </g>
   <g id="patch_31">
    <path clip-path="url(#p23a9022ba3)" d="M 141.507074 531.755829 
L 144.751574 531.755829 
L 144.751574 531.755829 
L 141.507074 531.755829 
z
" style="fill:#0000ff;opacity:0.6;stroke:#000000;stroke-linejoin:miter;"/>
   </g>
   <g id="patch_32">
    <path clip-path="url(#p23a9022ba3)" d="M 144.751574 531.755829 
L 147.996075 531.755829 
L 147.996075 531.755829 
L 144.751574 531.755829 
z
" style="fill:#0000ff;opacity:0.6;stroke:#000000;stroke-linejoin:miter;"/>
   </g>
   <g id="patch_33">
    <path clip-path="url(#p23a9022ba3)" d="M 147.996075 531.755829 
L 151.240575 531.755829 
L 151.240575 531.755829 
L 147.996075 531.755829 
z
" style="fill:#0000ff;opacity:0.6;stroke:#000000;stroke-linejoin:miter;"/>
   </g>
   <g id="patch_34">
    <path clip-path="url(#p23a9022ba3)" d="M 151.240575 531.755829 
L 154.485076 531.755829 
L 154.485076 531.755829 
L 151.240575 531.755829 
z
" style="fill:#0000ff;opacity:0.6;stroke:#000000;stroke-linejoin:miter;"/>
   </g>
   <g id="patch_35">
    <path clip-path="url(#p23a9022ba3)" d="M 154.485076 531.755829 
L 157.729577 531.755829 
L 157.729577 531.755829 
L 154.485076 531.755829 
z
" style="fill:#0000ff;opacity:0.6;stroke:#000000;stroke-linejoin:miter;"/>
   </g>
   <g id="patch_36">
    <path clip-path="url(#p23a9022ba3)" d="M 157.729577 531.755829 
L 160.974077 531.755829 
L 160.974077 530.749527 
L 157.729577 530.749527 
z
" style="fill:#0000ff;opacity:0.6;stroke:#000000;stroke-linejoin:miter;"/>
   </g>
   <g id="patch_37">
    <path clip-path="url(#p23a9022ba3)" d="M 160.974077 531.755829 
L 164.218578 531.755829 
L 164.218578 528.736922 
L 160.974077 528.736922 
z
" style="fill:#0000ff;opacity:0.6;stroke:#000000;stroke-linejoin:miter;"/>
   </g>
   <g id="patch_38">
    <path clip-path="url(#p23a9022ba3)" d="M 164.218578 531.755829 
L 167.463078 531.755829 
L 167.463078 531.755829 
L 164.218578 531.755829 
z
" style="fill:#0000ff;opacity:0.6;stroke:#000000;stroke-linejoin:miter;"/>
   </g>
   <g id="patch_39">
    <path clip-path="url(#p23a9022ba3)" d="M 167.463078 531.755829 
L 170.707579 531.755829 
L 170.707579 531.755829 
L 167.463078 531.755829 
z
" style="fill:#0000ff;opacity:0.6;stroke:#000000;stroke-linejoin:miter;"/>
   </g>
   <g id="patch_40">
    <path clip-path="url(#p23a9022ba3)" d="M 170.707579 531.755829 
L 173.95208 531.755829 
L 173.95208 531.755829 
L 170.707579 531.755829 
z
" style="fill:#0000ff;opacity:0.6;stroke:#000000;stroke-linejoin:miter;"/>
   </g>
   <g id="patch_41">
    <path clip-path="url(#p23a9022ba3)" d="M 173.95208 531.755829 
L 177.19658 531.755829 
L 177.19658 531.755829 
L 173.95208 531.755829 
z
" style="fill:#0000ff;opacity:0.6;stroke:#000000;stroke-linejoin:miter;"/>
   </g>
   <g id="patch_42">
    <path clip-path="url(#p23a9022ba3)" d="M 177.19658 531.755829 
L 180.441081 531.755829 
L 180.441081 531.755829 
L 177.19658 531.755829 
z
" style="fill:#0000ff;opacity:0.6;stroke:#000000;stroke-linejoin:miter;"/>
   </g>
   <g id="patch_43">
    <path clip-path="url(#p23a9022ba3)" d="M 180.441081 531.755829 
L 183.685582 531.755829 
L 183.685582 531.755829 
L 180.441081 531.755829 
z
" style="fill:#0000ff;opacity:0.6;stroke:#000000;stroke-linejoin:miter;"/>
   </g>
   <g id="patch_44">
    <path clip-path="url(#p23a9022ba3)" d="M 183.685582 531.755829 
L 186.930082 531.755829 
L 186.930082 531.755829 
L 183.685582 531.755829 
z
" style="fill:#0000ff;opacity:0.6;stroke:#000000;stroke-linejoin:miter;"/>
   </g>
   <g id="patch_45">
    <path clip-path="url(#p23a9022ba3)" d="M 186.930082 531.755829 
L 190.174583 531.755829 
L 190.174583 531.554568 
L 186.930082 531.554568 
z
" style="fill:#0000ff;opacity:0.6;stroke:#000000;stroke-linejoin:miter;"/>
   </g>
   <g id="patch_46">
    <path clip-path="url(#p23a9022ba3)" d="M 190.174583 531.755829 
L 193.419083 531.755829 
L 193.419083 530.347006 
L 190.174583 530.347006 
z
" style="fill:#0000ff;opacity:0.6;stroke:#000000;stroke-linejoin:miter;"/>
   </g>
   <g id="patch_47">
    <path clip-path="url(#p23a9022ba3)" d="M 193.419083 531.755829 
L 196.663584 531.755829 
L 196.663584 529.139443 
L 193.419083 529.139443 
z
" style="fill:#0000ff;opacity:0.6;stroke:#000000;stroke-linejoin:miter;"/>
   </g>
   <g id="patch_48">
    <path clip-path="url(#p23a9022ba3)" d="M 196.663584 531.755829 
L 199.908085 531.755829 
L 199.908085 523.906672 
L 196.663584 523.906672 
z
" style="fill:#0000ff;opacity:0.6;stroke:#000000;stroke-linejoin:miter;"/>
   </g>
   <g id="patch_49">
    <path clip-path="url(#p23a9022ba3)" d="M 199.908085 531.755829 
L 203.152585 531.755829 
L 203.152585 528.535662 
L 199.908085 528.535662 
z
" style="fill:#0000ff;opacity:0.6;stroke:#000000;stroke-linejoin:miter;"/>
   </g>
   <g id="patch_50">
    <path clip-path="url(#p23a9022ba3)" d="M 203.152585 531.755829 
L 206.397086 531.755829 
L 206.397086 530.749527 
L 203.152585 530.749527 
z
" style="fill:#0000ff;opacity:0.6;stroke:#000000;stroke-linejoin:miter;"/>
   </g>
   <g id="patch_51">
    <path clip-path="url(#p23a9022ba3)" d="M 206.397086 531.755829 
L 209.641586 531.755829 
L 209.641586 527.931881 
L 206.397086 527.931881 
z
" style="fill:#0000ff;opacity:0.6;stroke:#000000;stroke-linejoin:miter;"/>
   </g>
   <g id="patch_52">
    <path clip-path="url(#p23a9022ba3)" d="M 209.641586 531.755829 
L 212.886087 531.755829 
L 212.886087 531.755829 
L 209.641586 531.755829 
z
" style="fill:#0000ff;opacity:0.6;stroke:#000000;stroke-linejoin:miter;"/>
   </g>
   <g id="patch_53">
    <path clip-path="url(#p23a9022ba3)" d="M 212.886087 531.755829 
L 216.130588 531.755829 
L 216.130588 531.755829 
L 212.886087 531.755829 
z
" style="fill:#0000ff;opacity:0.6;stroke:#000000;stroke-linejoin:miter;"/>
   </g>
   <g id="patch_54">
    <path clip-path="url(#p23a9022ba3)" d="M 216.130588 531.755829 
L 219.375088 531.755829 
L 219.375088 531.755829 
L 216.130588 531.755829 
z
" style="fill:#0000ff;opacity:0.6;stroke:#000000;stroke-linejoin:miter;"/>
   </g>
   <g id="patch_55">
    <path clip-path="url(#p23a9022ba3)" d="M 219.375088 531.755829 
L 222.619589 531.755829 
L 222.619589 531.353308 
L 219.375088 531.353308 
z
" style="fill:#0000ff;opacity:0.6;stroke:#000000;stroke-linejoin:miter;"/>
   </g>
   <g id="patch_56">
    <path clip-path="url(#p23a9022ba3)" d="M 222.619589 531.755829 
L 225.864089 531.755829 
L 225.864089 529.944485 
L 222.619589 529.944485 
z
" style="fill:#0000ff;opacity:0.6;stroke:#000000;stroke-linejoin:miter;"/>
   </g>
   <g id="patch_57">
    <path clip-path="url(#p23a9022ba3)" d="M 225.864089 531.755829 
L 229.10859 531.755829 
L 229.10859 528.938183 
L 225.864089 528.938183 
z
" style="fill:#0000ff;opacity:0.6;stroke:#000000;stroke-linejoin:miter;"/>
   </g>
   <g id="patch_58">
    <path clip-path="url(#p23a9022ba3)" d="M 229.10859 531.755829 
L 232.353091 531.755829 
L 232.353091 530.347006 
L 229.10859 530.347006 
z
" style="fill:#0000ff;opacity:0.6;stroke:#000000;stroke-linejoin:miter;"/>
   </g>
   <g id="patch_59">
    <path clip-path="url(#p23a9022ba3)" d="M 232.353091 531.755829 
L 235.597591 531.755829 
L 235.597591 528.334402 
L 232.353091 528.334402 
z
" style="fill:#0000ff;opacity:0.6;stroke:#000000;stroke-linejoin:miter;"/>
   </g>
   <g id="patch_60">
    <path clip-path="url(#p23a9022ba3)" d="M 235.597591 531.755829 
L 238.842092 531.755829 
L 238.842092 531.353308 
L 235.597591 531.353308 
z
" style="fill:#0000ff;opacity:0.6;stroke:#000000;stroke-linejoin:miter;"/>
   </g>
   <g id="patch_61">
    <path clip-path="url(#p23a9022ba3)" d="M 238.842092 531.755829 
L 242.086593 531.755829 
L 242.086593 529.541964 
L 238.842092 529.541964 
z
" style="fill:#0000ff;opacity:0.6;stroke:#000000;stroke-linejoin:miter;"/>
   </g>
   <g id="patch_62">
    <path clip-path="url(#p23a9022ba3)" d="M 242.086593 531.755829 
L 245.331093 531.755829 
L 245.331093 527.73062 
L 242.086593 527.73062 
z
" style="fill:#0000ff;opacity:0.6;stroke:#000000;stroke-linejoin:miter;"/>
   </g>
   <g id="patch_63">
    <path clip-path="url(#p23a9022ba3)" d="M 245.331093 531.755829 
L 248.575594 531.755829 
L 248.575594 526.321797 
L 245.331093 526.321797 
z
" style="fill:#0000ff;opacity:0.6;stroke:#000000;stroke-linejoin:miter;"/>
   </g>
   <g id="patch_64">
    <path clip-path="url(#p23a9022ba3)" d="M 248.575594 531.755829 
L 251.820094 531.755829 
L 251.820094 530.950787 
L 248.575594 530.950787 
z
" style="fill:#0000ff;opacity:0.6;stroke:#000000;stroke-linejoin:miter;"/>
   </g>
   <g id="patch_65">
    <path clip-path="url(#p23a9022ba3)" d="M 251.820094 531.755829 
L 255.064595 531.755829 
L 255.064595 529.139443 
L 251.820094 529.139443 
z
" style="fill:#0000ff;opacity:0.6;stroke:#000000;stroke-linejoin:miter;"/>
   </g>
   <g id="patch_66">
    <path clip-path="url(#p23a9022ba3)" d="M 255.064595 531.755829 
L 258.309096 531.755829 
L 258.309096 530.347006 
L 255.064595 530.347006 
z
" style="fill:#0000ff;opacity:0.6;stroke:#000000;stroke-linejoin:miter;"/>
   </g>
   <g id="patch_67">
    <path clip-path="url(#p23a9022ba3)" d="M 258.309096 531.755829 
L 261.553596 531.755829 
L 261.553596 531.152048 
L 258.309096 531.152048 
z
" style="fill:#0000ff;opacity:0.6;stroke:#000000;stroke-linejoin:miter;"/>
   </g>
   <g id="patch_68">
    <path clip-path="url(#p23a9022ba3)" d="M 261.553596 531.755829 
L 264.798097 531.755829 
L 264.798097 526.925579 
L 261.553596 526.925579 
z
" style="fill:#0000ff;opacity:0.6;stroke:#000000;stroke-linejoin:miter;"/>
   </g>
   <g id="patch_69">
    <path clip-path="url(#p23a9022ba3)" d="M 264.798097 531.755829 
L 268.042597 531.755829 
L 268.042597 530.145745 
L 264.798097 530.145745 
z
" style="fill:#0000ff;opacity:0.6;stroke:#000000;stroke-linejoin:miter;"/>
   </g>
   <g id="patch_70">
    <path clip-path="url(#p23a9022ba3)" d="M 268.042597 531.755829 
L 271.287098 531.755829 
L 271.287098 528.736922 
L 268.042597 528.736922 
z
" style="fill:#0000ff;opacity:0.6;stroke:#000000;stroke-linejoin:miter;"/>
   </g>
   <g id="patch_71">
    <path clip-path="url(#p23a9022ba3)" d="M 271.287098 531.755829 
L 274.531599 531.755829 
L 274.531599 531.353308 
L 271.287098 531.353308 
z
" style="fill:#0000ff;opacity:0.6;stroke:#000000;stroke-linejoin:miter;"/>
   </g>
   <g id="patch_72">
    <path clip-path="url(#p23a9022ba3)" d="M 274.531599 531.755829 
L 277.776099 531.755829 
L 277.776099 526.523058 
L 274.531599 526.523058 
z
" style="fill:#0000ff;opacity:0.6;stroke:#000000;stroke-linejoin:miter;"/>
   </g>
   <g id="patch_73">
    <path clip-path="url(#p23a9022ba3)" d="M 277.776099 531.755829 
L 281.0206 531.755829 
L 281.0206 529.743225 
L 277.776099 529.743225 
z
" style="fill:#0000ff;opacity:0.6;stroke:#000000;stroke-linejoin:miter;"/>
   </g>
   <g id="patch_74">
    <path clip-path="url(#p23a9022ba3)" d="M 281.0206 531.755829 
L 284.265101 531.755829 
L 284.265101 528.334402 
L 281.0206 528.334402 
z
" style="fill:#0000ff;opacity:0.6;stroke:#000000;stroke-linejoin:miter;"/>
   </g>
   <g id="patch_75">
    <path clip-path="url(#p23a9022ba3)" d="M 284.265101 531.755829 
L 287.509601 531.755829 
L 287.509601 527.73062 
L 284.265101 527.73062 
z
" style="fill:#0000ff;opacity:0.6;stroke:#000000;stroke-linejoin:miter;"/>
   </g>
   <g id="patch_76">
    <path clip-path="url(#p23a9022ba3)" d="M 287.509601 531.755829 
L 290.754102 531.755829 
L 290.754102 525.919277 
L 287.509601 525.919277 
z
" style="fill:#0000ff;opacity:0.6;stroke:#000000;stroke-linejoin:miter;"/>
   </g>
   <g id="patch_77">
    <path clip-path="url(#p23a9022ba3)" d="M 290.754102 531.755829 
L 293.998602 531.755829 
L 293.998602 523.504152 
L 290.754102 523.504152 
z
" style="fill:#0000ff;opacity:0.6;stroke:#000000;stroke-linejoin:miter;"/>
   </g>
   <g id="patch_78">
    <path clip-path="url(#p23a9022ba3)" d="M 293.998602 531.755829 
L 297.243103 531.755829 
L 297.243103 527.73062 
L 293.998602 527.73062 
z
" style="fill:#0000ff;opacity:0.6;stroke:#000000;stroke-linejoin:miter;"/>
   </g>
   <g id="patch_79">
    <path clip-path="url(#p23a9022ba3)" d="M 297.243103 531.755829 
L 300.487604 531.755829 
L 300.487604 519.881464 
L 297.243103 519.881464 
z
" style="fill:#0000ff;opacity:0.6;stroke:#000000;stroke-linejoin:miter;"/>
   </g>
   <g id="patch_80">
    <path clip-path="url(#p23a9022ba3)" d="M 300.487604 531.755829 
L 303.732104 531.755829 
L 303.732104 520.887766 
L 300.487604 520.887766 
z
" style="fill:#0000ff;opacity:0.6;stroke:#000000;stroke-linejoin:miter;"/>
   </g>
   <g id="patch_81">
    <path clip-path="url(#p23a9022ba3)" d="M 303.732104 531.755829 
L 306.976605 531.755829 
L 306.976605 524.912974 
L 303.732104 524.912974 
z
" style="fill:#0000ff;opacity:0.6;stroke:#000000;stroke-linejoin:miter;"/>
   </g>
   <g id="patch_82">
    <path clip-path="url(#p23a9022ba3)" d="M 306.976605 531.755829 
L 310.221105 531.755829 
L 310.221105 524.711714 
L 306.976605 524.711714 
z
" style="fill:#0000ff;opacity:0.6;stroke:#000000;stroke-linejoin:miter;"/>
   </g>
   <g id="patch_83">
    <path clip-path="url(#p23a9022ba3)" d="M 310.221105 531.755829 
L 313.465606 531.755829 
L 313.465606 526.523058 
L 310.221105 526.523058 
z
" style="fill:#0000ff;opacity:0.6;stroke:#000000;stroke-linejoin:miter;"/>
   </g>
   <g id="patch_84">
    <path clip-path="url(#p23a9022ba3)" d="M 313.465606 531.755829 
L 316.710107 531.755829 
L 316.710107 523.504152 
L 313.465606 523.504152 
z
" style="fill:#0000ff;opacity:0.6;stroke:#000000;stroke-linejoin:miter;"/>
   </g>
   <g id="patch_85">
    <path clip-path="url(#p23a9022ba3)" d="M 316.710107 531.755829 
L 319.954607 531.755829 
L 319.954607 516.057516 
L 316.710107 516.057516 
z
" style="fill:#0000ff;opacity:0.6;stroke:#000000;stroke-linejoin:miter;"/>
   </g>
   <g id="patch_86">
    <path clip-path="url(#p23a9022ba3)" d="M 319.954607 531.755829 
L 323.199108 531.755829 
L 323.199108 521.491547 
L 319.954607 521.491547 
z
" style="fill:#0000ff;opacity:0.6;stroke:#000000;stroke-linejoin:miter;"/>
   </g>
   <g id="patch_87">
    <path clip-path="url(#p23a9022ba3)" d="M 323.199108 531.755829 
L 326.443609 531.755829 
L 326.443609 507.604578 
L 323.199108 507.604578 
z
" style="fill:#0000ff;opacity:0.6;stroke:#000000;stroke-linejoin:miter;"/>
   </g>
   <g id="patch_88">
    <path clip-path="url(#p23a9022ba3)" d="M 326.443609 531.755829 
L 329.688109 531.755829 
L 329.688109 520.283985 
L 326.443609 520.283985 
z
" style="fill:#0000ff;opacity:0.6;stroke:#000000;stroke-linejoin:miter;"/>
   </g>
   <g id="patch_89">
    <path clip-path="url(#p23a9022ba3)" d="M 329.688109 531.755829 
L 332.93261 531.755829 
L 332.93261 518.875162 
L 329.688109 518.875162 
z
" style="fill:#0000ff;opacity:0.6;stroke:#000000;stroke-linejoin:miter;"/>
   </g>
   <g id="patch_90">
    <path clip-path="url(#p23a9022ba3)" d="M 332.93261 531.755829 
L 336.17711 531.755829 
L 336.17711 521.491547 
L 332.93261 521.491547 
z
" style="fill:#0000ff;opacity:0.6;stroke:#000000;stroke-linejoin:miter;"/>
   </g>
   <g id="patch_91">
    <path clip-path="url(#p23a9022ba3)" d="M 336.17711 531.755829 
L 339.421611 531.755829 
L 339.421611 510.019703 
L 336.17711 510.019703 
z
" style="fill:#0000ff;opacity:0.6;stroke:#000000;stroke-linejoin:miter;"/>
   </g>
   <g id="patch_92">
    <path clip-path="url(#p23a9022ba3)" d="M 339.421611 531.755829 
L 342.666112 531.755829 
L 342.666112 515.051214 
L 339.421611 515.051214 
z
" style="fill:#0000ff;opacity:0.6;stroke:#000000;stroke-linejoin:miter;"/>
   </g>
   <g id="patch_93">
    <path clip-path="url(#p23a9022ba3)" d="M 342.666112 531.755829 
L 345.910612 531.755829 
L 345.910612 511.026005 
L 342.666112 511.026005 
z
" style="fill:#0000ff;opacity:0.6;stroke:#000000;stroke-linejoin:miter;"/>
   </g>
   <g id="patch_94">
    <path clip-path="url(#p23a9022ba3)" d="M 345.910612 531.755829 
L 349.155113 531.755829 
L 349.155113 480.434421 
L 345.910612 480.434421 
z
" style="fill:#0000ff;opacity:0.6;stroke:#000000;stroke-linejoin:miter;"/>
   </g>
   <g id="patch_95">
    <path clip-path="url(#p23a9022ba3)" d="M 349.155113 531.755829 
L 352.399613 531.755829 
L 352.399613 515.252474 
L 349.155113 515.252474 
z
" style="fill:#0000ff;opacity:0.6;stroke:#000000;stroke-linejoin:miter;"/>
   </g>
   <g id="patch_96">
    <path clip-path="url(#p23a9022ba3)" d="M 352.399613 531.755829 
L 355.644114 531.755829 
L 355.644114 454.270566 
L 352.399613 454.270566 
z
" style="fill:#0000ff;opacity:0.6;stroke:#000000;stroke-linejoin:miter;"/>
   </g>
   <g id="patch_97">
    <path clip-path="url(#p23a9022ba3)" d="M 355.644114 531.755829 
L 358.888615 531.755829 
L 358.888615 488.887359 
L 355.644114 488.887359 
z
" style="fill:#0000ff;opacity:0.6;stroke:#000000;stroke-linejoin:miter;"/>
   </g>
   <g id="patch_98">
    <path clip-path="url(#p23a9022ba3)" d="M 358.888615 531.755829 
L 362.133115 531.755829 
L 362.133115 466.144931 
L 358.888615 466.144931 
z
" style="fill:#0000ff;opacity:0.6;stroke:#000000;stroke-linejoin:miter;"/>
   </g>
   <g id="patch_99">
    <path clip-path="url(#p23a9022ba3)" d="M 362.133115 531.755829 
L 365.377616 531.755829 
L 365.377616 457.490733 
L 362.133115 457.490733 
z
" style="fill:#0000ff;opacity:0.6;stroke:#000000;stroke-linejoin:miter;"/>
   </g>
   <g id="patch_100">
    <path clip-path="url(#p23a9022ba3)" d="M 365.377616 531.755829 
L 368.622117 531.755829 
L 368.622117 395.100002 
L 365.377616 395.100002 
z
" style="fill:#0000ff;opacity:0.6;stroke:#000000;stroke-linejoin:miter;"/>
   </g>
   <g id="patch_101">
    <path clip-path="url(#p23a9022ba3)" d="M 368.622117 531.755829 
L 371.866617 531.755829 
L 371.866617 463.528546 
L 368.622117 463.528546 
z
" style="fill:#0000ff;opacity:0.6;stroke:#000000;stroke-linejoin:miter;"/>
   </g>
   <g id="patch_102">
    <path clip-path="url(#p23a9022ba3)" d="M 371.866617 531.755829 
L 375.111118 531.755829 
L 375.111118 418.446211 
L 371.866617 418.446211 
z
" style="fill:#0000ff;opacity:0.6;stroke:#000000;stroke-linejoin:miter;"/>
   </g>
   <g id="patch_103">
    <path clip-path="url(#p23a9022ba3)" d="M 375.111118 531.755829 
L 378.355618 531.755829 
L 378.355618 465.943671 
L 375.111118 465.943671 
z
" style="fill:#0000ff;opacity:0.6;stroke:#000000;stroke-linejoin:miter;"/>
   </g>
   <g id="patch_104">
    <path clip-path="url(#p23a9022ba3)" d="M 378.355618 531.755829 
L 381.600119 531.755829 
L 381.600119 272.733666 
L 378.355618 272.733666 
z
" style="fill:#0000ff;opacity:0.6;stroke:#000000;stroke-linejoin:miter;"/>
   </g>
   <g id="patch_105">
    <path clip-path="url(#p23a9022ba3)" d="M 381.600119 531.755829 
L 384.84462 531.755829 
L 384.84462 205.512685 
L 381.600119 205.512685 
z
" style="fill:#0000ff;opacity:0.6;stroke:#000000;stroke-linejoin:miter;"/>
   </g>
   <g id="patch_106">
    <path clip-path="url(#p23a9022ba3)" d="M 384.84462 531.755829 
L 388.08912 531.755829 
L 388.08912 365.1122 
L 384.84462 365.1122 
z
" style="fill:#0000ff;opacity:0.6;stroke:#000000;stroke-linejoin:miter;"/>
   </g>
   <g id="patch_107">
    <path clip-path="url(#p23a9022ba3)" d="M 388.08912 531.755829 
L 391.333621 531.755829 
L 391.333621 243.349644 
L 388.08912 243.349644 
z
" style="fill:#0000ff;opacity:0.6;stroke:#000000;stroke-linejoin:miter;"/>
   </g>
   <g id="patch_108">
    <path clip-path="url(#p23a9022ba3)" d="M 391.333621 531.755829 
L 394.578121 531.755829 
L 394.578121 204.103862 
L 391.333621 204.103862 
z
" style="fill:#0000ff;opacity:0.6;stroke:#000000;stroke-linejoin:miter;"/>
   </g>
   <g id="patch_109">
    <path clip-path="url(#p23a9022ba3)" d="M 394.578121 531.755829 
L 397.822622 531.755829 
L 397.822622 63.825348 
L 394.578121 63.825348 
z
" style="fill:#0000ff;opacity:0.6;stroke:#000000;stroke-linejoin:miter;"/>
   </g>
   <g id="patch_110">
    <path clip-path="url(#p23a9022ba3)" d="M 397.822622 531.755829 
L 401.067123 531.755829 
L 401.067123 252.808884 
L 397.822622 252.808884 
z
" style="fill:#0000ff;opacity:0.6;stroke:#000000;stroke-linejoin:miter;"/>
   </g>
   <g id="patch_111">
    <path clip-path="url(#p23a9022ba3)" d="M 401.067123 531.755829 
L 404.311623 531.755829 
L 404.311623 395.502523 
L 401.067123 395.502523 
z
" style="fill:#0000ff;opacity:0.6;stroke:#000000;stroke-linejoin:miter;"/>
   </g>
   <g id="patch_112">
    <path clip-path="url(#p23a9022ba3)" d="M 404.311623 531.755829 
L 407.556124 531.755829 
L 407.556124 502.573068 
L 404.311623 502.573068 
z
" style="fill:#0000ff;opacity:0.6;stroke:#000000;stroke-linejoin:miter;"/>
   </g>
   <g id="patch_113">
    <path clip-path="url(#p23a9022ba3)" d="M 407.556124 531.755829 
L 410.800624 531.755829 
L 410.800624 506.397016 
L 407.556124 506.397016 
z
" style="fill:#0000ff;opacity:0.6;stroke:#000000;stroke-linejoin:miter;"/>
   </g>
   <g id="patch_114">
    <path clip-path="url(#p23a9022ba3)" d="M 410.800624 531.755829 
L 414.045125 531.755829 
L 414.045125 501.164245 
L 410.800624 501.164245 
z
" style="fill:#0000ff;opacity:0.6;stroke:#000000;stroke-linejoin:miter;"/>
   </g>
   <g id="patch_115">
    <path clip-path="url(#p23a9022ba3)" d="M 414.045125 531.755829 
L 417.289626 531.755829 
L 417.289626 475.805432 
L 414.045125 475.805432 
z
" style="fill:#0000ff;opacity:0.6;stroke:#000000;stroke-linejoin:miter;"/>
   </g>
   <g id="patch_116">
    <path clip-path="url(#p23a9022ba3)" d="M 417.289626 531.755829 
L 420.534126 531.755829 
L 420.534126 496.535255 
L 417.289626 496.535255 
z
" style="fill:#0000ff;opacity:0.6;stroke:#000000;stroke-linejoin:miter;"/>
   </g>
   <g id="patch_117">
    <path clip-path="url(#p23a9022ba3)" d="M 420.534126 531.755829 
L 423.778627 531.755829 
L 423.778627 502.170547 
L 420.534126 502.170547 
z
" style="fill:#0000ff;opacity:0.6;stroke:#000000;stroke-linejoin:miter;"/>
   </g>
   <g id="patch_118">
    <path clip-path="url(#p23a9022ba3)" d="M 423.778627 531.755829 
L 427.023128 531.755829 
L 427.023128 507.202057 
L 423.778627 507.202057 
z
" style="fill:#0000ff;opacity:0.6;stroke:#000000;stroke-linejoin:miter;"/>
   </g>
   <g id="patch_119">
    <path clip-path="url(#p23a9022ba3)" d="M 427.023128 531.755829 
L 430.267628 531.755829 
L 430.267628 501.768026 
L 427.023128 501.768026 
z
" style="fill:#0000ff;opacity:0.6;stroke:#000000;stroke-linejoin:miter;"/>
   </g>
   <g id="patch_120">
    <path clip-path="url(#p23a9022ba3)" d="M 430.267628 531.755829 
L 433.512129 531.755829 
L 433.512129 496.333995 
L 430.267628 496.333995 
z
" style="fill:#0000ff;opacity:0.6;stroke:#000000;stroke-linejoin:miter;"/>
   </g>
   <g id="patch_121">
    <path clip-path="url(#p23a9022ba3)" d="M 433.512129 531.755829 
L 436.756629 531.755829 
L 436.756629 508.007099 
L 433.512129 508.007099 
z
" style="fill:#0000ff;opacity:0.6;stroke:#000000;stroke-linejoin:miter;"/>
   </g>
   <g id="patch_122">
    <path clip-path="url(#p23a9022ba3)" d="M 436.756629 531.755829 
L 440.00113 531.755829 
L 440.00113 493.113828 
L 436.756629 493.113828 
z
" style="fill:#0000ff;opacity:0.6;stroke:#000000;stroke-linejoin:miter;"/>
   </g>
   <g id="patch_123">
    <path clip-path="url(#p23a9022ba3)" d="M 440.00113 531.755829 
L 443.245631 531.755829 
L 443.245631 500.962984 
L 440.00113 500.962984 
z
" style="fill:#0000ff;opacity:0.6;stroke:#000000;stroke-linejoin:miter;"/>
   </g>
   <g id="patch_124">
    <path clip-path="url(#p23a9022ba3)" d="M 443.245631 531.755829 
L 446.490131 531.755829 
L 446.490131 512.636089 
L 443.245631 512.636089 
z
" style="fill:#0000ff;opacity:0.6;stroke:#000000;stroke-linejoin:miter;"/>
   </g>
   <g id="patch_125">
    <path clip-path="url(#p23a9022ba3)" d="M 446.490131 531.755829 
L 449.734632 531.755829 
L 449.734632 489.088619 
L 446.490131 489.088619 
z
" style="fill:#0000ff;opacity:0.6;stroke:#000000;stroke-linejoin:miter;"/>
   </g>
   <g id="patch_126">
    <path clip-path="url(#p23a9022ba3)" d="M 449.734632 531.755829 
L 452.979132 531.755829 
L 452.979132 518.673901 
L 449.734632 518.673901 
z
" style="fill:#0000ff;opacity:0.6;stroke:#000000;stroke-linejoin:miter;"/>
   </g>
   <g id="patch_127">
    <path clip-path="url(#p23a9022ba3)" d="M 452.979132 531.755829 
L 456.223633 531.755829 
L 456.223633 516.661297 
L 452.979132 516.661297 
z
" style="fill:#0000ff;opacity:0.6;stroke:#000000;stroke-linejoin:miter;"/>
   </g>
   <g id="patch_128">
    <path clip-path="url(#p23a9022ba3)" d="M 456.223633 531.755829 
L 459.468134 531.755829 
L 459.468134 502.170547 
L 456.223633 502.170547 
z
" style="fill:#0000ff;opacity:0.6;stroke:#000000;stroke-linejoin:miter;"/>
   </g>
   <g id="patch_129">
    <path clip-path="url(#p23a9022ba3)" d="M 459.468134 531.755829 
L 462.712634 531.755829 
L 462.712634 484.66089 
L 459.468134 484.66089 
z
" style="fill:#0000ff;opacity:0.6;stroke:#000000;stroke-linejoin:miter;"/>
   </g>
   <g id="patch_130">
    <path clip-path="url(#p23a9022ba3)" d="M 462.712634 531.755829 
L 465.957135 531.755829 
L 465.957135 481.440723 
L 462.712634 481.440723 
z
" style="fill:#0000ff;opacity:0.6;stroke:#000000;stroke-linejoin:miter;"/>
   </g>
   <g id="patch_131">
    <path clip-path="url(#p23a9022ba3)" d="M 465.957135 531.755829 
L 469.201636 531.755829 
L 469.201636 496.333995 
L 465.957135 496.333995 
z
" style="fill:#0000ff;opacity:0.6;stroke:#000000;stroke-linejoin:miter;"/>
   </g>
   <g id="patch_132">
    <path clip-path="url(#p23a9022ba3)" d="M 469.201636 531.755829 
L 472.446136 531.755829 
L 472.446136 517.667599 
L 469.201636 517.667599 
z
" style="fill:#0000ff;opacity:0.6;stroke:#000000;stroke-linejoin:miter;"/>
   </g>
   <g id="patch_133">
    <path clip-path="url(#p23a9022ba3)" d="M 472.446136 531.755829 
L 475.690637 531.755829 
L 475.690637 517.063818 
L 472.446136 517.063818 
z
" style="fill:#0000ff;opacity:0.6;stroke:#000000;stroke-linejoin:miter;"/>
   </g>
   <g id="patch_134">
    <path clip-path="url(#p23a9022ba3)" d="M 475.690637 531.755829 
L 478.935137 531.755829 
L 478.935137 529.340704 
L 475.690637 529.340704 
z
" style="fill:#0000ff;opacity:0.6;stroke:#000000;stroke-linejoin:miter;"/>
   </g>
   <g id="patch_135">
    <path clip-path="url(#p23a9022ba3)" d="M 478.935137 531.755829 
L 482.179638 531.755829 
L 482.179638 529.139443 
L 478.935137 529.139443 
z
" style="fill:#0000ff;opacity:0.6;stroke:#000000;stroke-linejoin:miter;"/>
   </g>
   <g id="patch_136">
    <path clip-path="url(#p23a9022ba3)" d="M 482.179638 531.755829 
L 485.424139 531.755829 
L 485.424139 525.516756 
L 482.179638 525.516756 
z
" style="fill:#0000ff;opacity:0.6;stroke:#000000;stroke-linejoin:miter;"/>
   </g>
   <g id="patch_137">
    <path clip-path="url(#p23a9022ba3)" d="M 485.424139 531.755829 
L 488.668639 531.755829 
L 488.668639 530.548266 
L 485.424139 530.548266 
z
" style="fill:#0000ff;opacity:0.6;stroke:#000000;stroke-linejoin:miter;"/>
   </g>
   <g id="patch_138">
    <path clip-path="url(#p23a9022ba3)" d="M 488.668639 531.755829 
L 491.91314 531.755829 
L 491.91314 530.548266 
L 488.668639 530.548266 
z
" style="fill:#0000ff;opacity:0.6;stroke:#000000;stroke-linejoin:miter;"/>
   </g>
   <g id="patch_139">
    <path clip-path="url(#p23a9022ba3)" d="M 491.91314 531.755829 
L 495.15764 531.755829 
L 495.15764 523.906672 
L 491.91314 523.906672 
z
" style="fill:#0000ff;opacity:0.6;stroke:#000000;stroke-linejoin:miter;"/>
   </g>
   <g id="patch_140">
    <path clip-path="url(#p23a9022ba3)" d="M 495.15764 531.755829 
L 498.402141 531.755829 
L 498.402141 528.334402 
L 495.15764 528.334402 
z
" style="fill:#0000ff;opacity:0.6;stroke:#000000;stroke-linejoin:miter;"/>
   </g>
   <g id="patch_141">
    <path clip-path="url(#p23a9022ba3)" d="M 498.402141 531.755829 
L 501.646642 531.755829 
L 501.646642 529.139443 
L 498.402141 529.139443 
z
" style="fill:#0000ff;opacity:0.6;stroke:#000000;stroke-linejoin:miter;"/>
   </g>
   <g id="patch_142">
    <path clip-path="url(#p23a9022ba3)" d="M 501.646642 531.755829 
L 504.891142 531.755829 
L 504.891142 528.133141 
L 501.646642 528.133141 
z
" style="fill:#0000ff;opacity:0.6;stroke:#000000;stroke-linejoin:miter;"/>
   </g>
   <g id="patch_143">
    <path clip-path="url(#p23a9022ba3)" d="M 504.891142 531.755829 
L 508.135643 531.755829 
L 508.135643 529.139443 
L 504.891142 529.139443 
z
" style="fill:#0000ff;opacity:0.6;stroke:#000000;stroke-linejoin:miter;"/>
   </g>
   <g id="patch_144">
    <path clip-path="url(#p23a9022ba3)" d="M 508.135643 531.755829 
L 511.380144 531.755829 
L 511.380144 529.541964 
L 508.135643 529.541964 
z
" style="fill:#0000ff;opacity:0.6;stroke:#000000;stroke-linejoin:miter;"/>
   </g>
   <g id="patch_145">
    <path clip-path="url(#p23a9022ba3)" d="M 511.380144 531.755829 
L 514.624644 531.755829 
L 514.624644 529.541964 
L 511.380144 529.541964 
z
" style="fill:#0000ff;opacity:0.6;stroke:#000000;stroke-linejoin:miter;"/>
   </g>
   <g id="patch_146">
    <path clip-path="url(#p23a9022ba3)" d="M 514.624644 531.755829 
L 517.869145 531.755829 
L 517.869145 528.535662 
L 514.624644 528.535662 
z
" style="fill:#0000ff;opacity:0.6;stroke:#000000;stroke-linejoin:miter;"/>
   </g>
   <g id="patch_147">
    <path clip-path="url(#p23a9022ba3)" d="M 517.869145 531.755829 
L 521.113645 531.755829 
L 521.113645 529.340704 
L 517.869145 529.340704 
z
" style="fill:#0000ff;opacity:0.6;stroke:#000000;stroke-linejoin:miter;"/>
   </g>
   <g id="patch_148">
    <path clip-path="url(#p23a9022ba3)" d="M 521.113645 531.755829 
L 524.358146 531.755829 
L 524.358146 531.152048 
L 521.113645 531.152048 
z
" style="fill:#0000ff;opacity:0.6;stroke:#000000;stroke-linejoin:miter;"/>
   </g>
   <g id="patch_149">
    <path clip-path="url(#p23a9022ba3)" d="M 524.358146 531.755829 
L 527.602647 531.755829 
L 527.602647 527.3281 
L 524.358146 527.3281 
z
" style="fill:#0000ff;opacity:0.6;stroke:#000000;stroke-linejoin:miter;"/>
   </g>
   <g id="patch_150">
    <path clip-path="url(#p23a9022ba3)" d="M 527.602647 531.755829 
L 530.847147 531.755829 
L 530.847147 529.541964 
L 527.602647 529.541964 
z
" style="fill:#0000ff;opacity:0.6;stroke:#000000;stroke-linejoin:miter;"/>
   </g>
   <g id="patch_151">
    <path clip-path="url(#p23a9022ba3)" d="M 530.847147 531.755829 
L 534.091648 531.755829 
L 534.091648 531.353308 
L 530.847147 531.353308 
z
" style="fill:#0000ff;opacity:0.6;stroke:#000000;stroke-linejoin:miter;"/>
   </g>
   <g id="patch_152">
    <path clip-path="url(#p23a9022ba3)" d="M 534.091648 531.755829 
L 537.336148 531.755829 
L 537.336148 530.950787 
L 534.091648 530.950787 
z
" style="fill:#0000ff;opacity:0.6;stroke:#000000;stroke-linejoin:miter;"/>
   </g>
   <g id="patch_153">
    <path clip-path="url(#p23a9022ba3)" d="M 537.336148 531.755829 
L 540.580649 531.755829 
L 540.580649 526.523058 
L 537.336148 526.523058 
z
" style="fill:#0000ff;opacity:0.6;stroke:#000000;stroke-linejoin:miter;"/>
   </g>
   <g id="patch_154">
    <path clip-path="url(#p23a9022ba3)" d="M 540.580649 531.755829 
L 543.82515 531.755829 
L 543.82515 528.736922 
L 540.580649 528.736922 
z
" style="fill:#0000ff;opacity:0.6;stroke:#000000;stroke-linejoin:miter;"/>
   </g>
   <g id="patch_155">
    <path clip-path="url(#p23a9022ba3)" d="M 543.82515 531.755829 
L 547.06965 531.755829 
L 547.06965 530.548266 
L 543.82515 530.548266 
z
" style="fill:#0000ff;opacity:0.6;stroke:#000000;stroke-linejoin:miter;"/>
   </g>
   <g id="patch_156">
    <path clip-path="url(#p23a9022ba3)" d="M 547.06965 531.755829 
L 550.314151 531.755829 
L 550.314151 529.944485 
L 547.06965 529.944485 
z
" style="fill:#0000ff;opacity:0.6;stroke:#000000;stroke-linejoin:miter;"/>
   </g>
   <g id="patch_157">
    <path clip-path="url(#p23a9022ba3)" d="M 550.314151 531.755829 
L 553.558651 531.755829 
L 553.558651 528.133141 
L 550.314151 528.133141 
z
" style="fill:#0000ff;opacity:0.6;stroke:#000000;stroke-linejoin:miter;"/>
   </g>
   <g id="patch_158">
    <path clip-path="url(#p23a9022ba3)" d="M 553.558651 531.755829 
L 556.803152 531.755829 
L 556.803152 530.347006 
L 553.558651 530.347006 
z
" style="fill:#0000ff;opacity:0.6;stroke:#000000;stroke-linejoin:miter;"/>
   </g>
   <g id="patch_159">
    <path clip-path="url(#p23a9022ba3)" d="M 556.803152 531.755829 
L 560.047653 531.755829 
L 560.047653 528.133141 
L 556.803152 528.133141 
z
" style="fill:#0000ff;opacity:0.6;stroke:#000000;stroke-linejoin:miter;"/>
   </g>
   <g id="patch_160">
    <path clip-path="url(#p23a9022ba3)" d="M 560.047653 531.755829 
L 563.292153 531.755829 
L 563.292153 528.736922 
L 560.047653 528.736922 
z
" style="fill:#0000ff;opacity:0.6;stroke:#000000;stroke-linejoin:miter;"/>
   </g>
   <g id="patch_161">
    <path clip-path="url(#p23a9022ba3)" d="M 563.292153 531.755829 
L 566.536654 531.755829 
L 566.536654 530.950787 
L 563.292153 530.950787 
z
" style="fill:#0000ff;opacity:0.6;stroke:#000000;stroke-linejoin:miter;"/>
   </g>
   <g id="patch_162">
    <path clip-path="url(#p23a9022ba3)" d="M 566.536654 531.755829 
L 569.781155 531.755829 
L 569.781155 531.353308 
L 566.536654 531.353308 
z
" style="fill:#0000ff;opacity:0.6;stroke:#000000;stroke-linejoin:miter;"/>
   </g>
   <g id="patch_163">
    <path clip-path="url(#p23a9022ba3)" d="M 569.781155 531.755829 
L 573.025655 531.755829 
L 573.025655 528.938183 
L 569.781155 528.938183 
z
" style="fill:#0000ff;opacity:0.6;stroke:#000000;stroke-linejoin:miter;"/>
   </g>
   <g id="patch_164">
    <path clip-path="url(#p23a9022ba3)" d="M 573.025655 531.755829 
L 576.270156 531.755829 
L 576.270156 528.535662 
L 573.025655 528.535662 
z
" style="fill:#0000ff;opacity:0.6;stroke:#000000;stroke-linejoin:miter;"/>
   </g>
   <g id="patch_165">
    <path clip-path="url(#p23a9022ba3)" d="M 576.270156 531.755829 
L 579.514656 531.755829 
L 579.514656 530.145745 
L 576.270156 530.145745 
z
" style="fill:#0000ff;opacity:0.6;stroke:#000000;stroke-linejoin:miter;"/>
   </g>
   <g id="patch_166">
    <path clip-path="url(#p23a9022ba3)" d="M 579.514656 531.755829 
L 582.759157 531.755829 
L 582.759157 531.755829 
L 579.514656 531.755829 
z
" style="fill:#0000ff;opacity:0.6;stroke:#000000;stroke-linejoin:miter;"/>
   </g>
   <g id="patch_167">
    <path clip-path="url(#p23a9022ba3)" d="M 582.759157 531.755829 
L 586.003658 531.755829 
L 586.003658 529.944485 
L 582.759157 529.944485 
z
" style="fill:#0000ff;opacity:0.6;stroke:#000000;stroke-linejoin:miter;"/>
   </g>
   <g id="patch_168">
    <path clip-path="url(#p23a9022ba3)" d="M 586.003658 531.755829 
L 589.248158 531.755829 
L 589.248158 529.541964 
L 586.003658 529.541964 
z
" style="fill:#0000ff;opacity:0.6;stroke:#000000;stroke-linejoin:miter;"/>
   </g>
   <g id="patch_169">
    <path clip-path="url(#p23a9022ba3)" d="M 589.248158 531.755829 
L 592.492659 531.755829 
L 592.492659 530.749527 
L 589.248158 530.749527 
z
" style="fill:#0000ff;opacity:0.6;stroke:#000000;stroke-linejoin:miter;"/>
   </g>
   <g id="patch_170">
    <path clip-path="url(#p23a9022ba3)" d="M 592.492659 531.755829 
L 595.737159 531.755829 
L 595.737159 531.353308 
L 592.492659 531.353308 
z
" style="fill:#0000ff;opacity:0.6;stroke:#000000;stroke-linejoin:miter;"/>
   </g>
   <g id="patch_171">
    <path clip-path="url(#p23a9022ba3)" d="M 595.737159 531.755829 
L 598.98166 531.755829 
L 598.98166 531.755829 
L 595.737159 531.755829 
z
" style="fill:#0000ff;opacity:0.6;stroke:#000000;stroke-linejoin:miter;"/>
   </g>
   <g id="patch_172">
    <path clip-path="url(#p23a9022ba3)" d="M 598.98166 531.755829 
L 602.226161 531.755829 
L 602.226161 531.755829 
L 598.98166 531.755829 
z
" style="fill:#0000ff;opacity:0.6;stroke:#000000;stroke-linejoin:miter;"/>
   </g>
   <g id="patch_173">
    <path clip-path="url(#p23a9022ba3)" d="M 602.226161 531.755829 
L 605.470661 531.755829 
L 605.470661 530.749527 
L 602.226161 530.749527 
z
" style="fill:#0000ff;opacity:0.6;stroke:#000000;stroke-linejoin:miter;"/>
   </g>
   <g id="patch_174">
    <path clip-path="url(#p23a9022ba3)" d="M 605.470661 531.755829 
L 608.715162 531.755829 
L 608.715162 529.743225 
L 605.470661 529.743225 
z
" style="fill:#0000ff;opacity:0.6;stroke:#000000;stroke-linejoin:miter;"/>
   </g>
   <g id="patch_175">
    <path clip-path="url(#p23a9022ba3)" d="M 608.715162 531.755829 
L 611.959663 531.755829 
L 611.959663 531.554568 
L 608.715162 531.554568 
z
" style="fill:#0000ff;opacity:0.6;stroke:#000000;stroke-linejoin:miter;"/>
   </g>
   <g id="patch_176">
    <path clip-path="url(#p23a9022ba3)" d="M 611.959663 531.755829 
L 615.204163 531.755829 
L 615.204163 530.950787 
L 611.959663 530.950787 
z
" style="fill:#0000ff;opacity:0.6;stroke:#000000;stroke-linejoin:miter;"/>
   </g>
   <g id="patch_177">
    <path clip-path="url(#p23a9022ba3)" d="M 615.204163 531.755829 
L 618.448664 531.755829 
L 618.448664 530.548266 
L 615.204163 530.548266 
z
" style="fill:#0000ff;opacity:0.6;stroke:#000000;stroke-linejoin:miter;"/>
   </g>
   <g id="patch_178">
    <path clip-path="url(#p23a9022ba3)" d="M 618.448664 531.755829 
L 621.693164 531.755829 
L 621.693164 530.950787 
L 618.448664 530.950787 
z
" style="fill:#0000ff;opacity:0.6;stroke:#000000;stroke-linejoin:miter;"/>
   </g>
   <g id="patch_179">
    <path clip-path="url(#p23a9022ba3)" d="M 621.693164 531.755829 
L 624.937665 531.755829 
L 624.937665 531.755829 
L 621.693164 531.755829 
z
" style="fill:#0000ff;opacity:0.6;stroke:#000000;stroke-linejoin:miter;"/>
   </g>
   <g id="patch_180">
    <path clip-path="url(#p23a9022ba3)" d="M 624.937665 531.755829 
L 628.182166 531.755829 
L 628.182166 531.152048 
L 624.937665 531.152048 
z
" style="fill:#0000ff;opacity:0.6;stroke:#000000;stroke-linejoin:miter;"/>
   </g>
   <g id="patch_181">
    <path clip-path="url(#p23a9022ba3)" d="M 628.182166 531.755829 
L 631.426666 531.755829 
L 631.426666 531.755829 
L 628.182166 531.755829 
z
" style="fill:#0000ff;opacity:0.6;stroke:#000000;stroke-linejoin:miter;"/>
   </g>
   <g id="patch_182">
    <path clip-path="url(#p23a9022ba3)" d="M 631.426666 531.755829 
L 634.671167 531.755829 
L 634.671167 531.755829 
L 631.426666 531.755829 
z
" style="fill:#0000ff;opacity:0.6;stroke:#000000;stroke-linejoin:miter;"/>
   </g>
   <g id="patch_183">
    <path clip-path="url(#p23a9022ba3)" d="M 634.671167 531.755829 
L 637.915667 531.755829 
L 637.915667 530.950787 
L 634.671167 530.950787 
z
" style="fill:#0000ff;opacity:0.6;stroke:#000000;stroke-linejoin:miter;"/>
   </g>
   <g id="patch_184">
    <path clip-path="url(#p23a9022ba3)" d="M 637.915667 531.755829 
L 641.160168 531.755829 
L 641.160168 531.755829 
L 637.915667 531.755829 
z
" style="fill:#0000ff;opacity:0.6;stroke:#000000;stroke-linejoin:miter;"/>
   </g>
   <g id="patch_185">
    <path clip-path="url(#p23a9022ba3)" d="M 641.160168 531.755829 
L 644.404669 531.755829 
L 644.404669 529.743225 
L 641.160168 529.743225 
z
" style="fill:#0000ff;opacity:0.6;stroke:#000000;stroke-linejoin:miter;"/>
   </g>
   <g id="patch_186">
    <path clip-path="url(#p23a9022ba3)" d="M 644.404669 531.755829 
L 647.649169 531.755829 
L 647.649169 531.755829 
L 644.404669 531.755829 
z
" style="fill:#0000ff;opacity:0.6;stroke:#000000;stroke-linejoin:miter;"/>
   </g>
   <g id="patch_187">
    <path clip-path="url(#p23a9022ba3)" d="M 647.649169 531.755829 
L 650.89367 531.755829 
L 650.89367 531.554568 
L 647.649169 531.554568 
z
" style="fill:#0000ff;opacity:0.6;stroke:#000000;stroke-linejoin:miter;"/>
   </g>
   <g id="patch_188">
    <path clip-path="url(#p23a9022ba3)" d="M 650.89367 531.755829 
L 654.138171 531.755829 
L 654.138171 531.755829 
L 650.89367 531.755829 
z
" style="fill:#0000ff;opacity:0.6;stroke:#000000;stroke-linejoin:miter;"/>
   </g>
   <g id="patch_189">
    <path clip-path="url(#p23a9022ba3)" d="M 654.138171 531.755829 
L 657.382671 531.755829 
L 657.382671 530.347006 
L 654.138171 530.347006 
z
" style="fill:#0000ff;opacity:0.6;stroke:#000000;stroke-linejoin:miter;"/>
   </g>
   <g id="patch_190">
    <path clip-path="url(#p23a9022ba3)" d="M 657.382671 531.755829 
L 660.627172 531.755829 
L 660.627172 531.554568 
L 657.382671 531.554568 
z
" style="fill:#0000ff;opacity:0.6;stroke:#000000;stroke-linejoin:miter;"/>
   </g>
   <g id="patch_191">
    <path clip-path="url(#p23a9022ba3)" d="M 660.627172 531.755829 
L 663.871672 531.755829 
L 663.871672 531.755829 
L 660.627172 531.755829 
z
" style="fill:#0000ff;opacity:0.6;stroke:#000000;stroke-linejoin:miter;"/>
   </g>
   <g id="patch_192">
    <path clip-path="url(#p23a9022ba3)" d="M 663.871672 531.755829 
L 667.116173 531.755829 
L 667.116173 531.755829 
L 663.871672 531.755829 
z
" style="fill:#0000ff;opacity:0.6;stroke:#000000;stroke-linejoin:miter;"/>
   </g>
   <g id="patch_193">
    <path clip-path="url(#p23a9022ba3)" d="M 667.116173 531.755829 
L 670.360674 531.755829 
L 670.360674 531.554568 
L 667.116173 531.554568 
z
" style="fill:#0000ff;opacity:0.6;stroke:#000000;stroke-linejoin:miter;"/>
   </g>
   <g id="patch_194">
    <path clip-path="url(#p23a9022ba3)" d="M 670.360674 531.755829 
L 673.605174 531.755829 
L 673.605174 530.347006 
L 670.360674 530.347006 
z
" style="fill:#0000ff;opacity:0.6;stroke:#000000;stroke-linejoin:miter;"/>
   </g>
   <g id="patch_195">
    <path clip-path="url(#p23a9022ba3)" d="M 673.605174 531.755829 
L 676.849675 531.755829 
L 676.849675 530.548266 
L 673.605174 530.548266 
z
" style="fill:#0000ff;opacity:0.6;stroke:#000000;stroke-linejoin:miter;"/>
   </g>
   <g id="patch_196">
    <path clip-path="url(#p23a9022ba3)" d="M 676.849675 531.755829 
L 680.094175 531.755829 
L 680.094175 531.755829 
L 676.849675 531.755829 
z
" style="fill:#0000ff;opacity:0.6;stroke:#000000;stroke-linejoin:miter;"/>
   </g>
   <g id="patch_197">
    <path clip-path="url(#p23a9022ba3)" d="M 680.094175 531.755829 
L 683.338676 531.755829 
L 683.338676 530.548266 
L 680.094175 530.548266 
z
" style="fill:#0000ff;opacity:0.6;stroke:#000000;stroke-linejoin:miter;"/>
   </g>
   <g id="patch_198">
    <path clip-path="url(#p23a9022ba3)" d="M 683.338676 531.755829 
L 686.583177 531.755829 
L 686.583177 531.554568 
L 683.338676 531.554568 
z
" style="fill:#0000ff;opacity:0.6;stroke:#000000;stroke-linejoin:miter;"/>
   </g>
   <g id="patch_199">
    <path clip-path="url(#p23a9022ba3)" d="M 686.583177 531.755829 
L 689.827677 531.755829 
L 689.827677 531.755829 
L 686.583177 531.755829 
z
" style="fill:#0000ff;opacity:0.6;stroke:#000000;stroke-linejoin:miter;"/>
   </g>
   <g id="patch_200">
    <path clip-path="url(#p23a9022ba3)" d="M 689.827677 531.755829 
L 693.072178 531.755829 
L 693.072178 531.152048 
L 689.827677 531.152048 
z
" style="fill:#0000ff;opacity:0.6;stroke:#000000;stroke-linejoin:miter;"/>
   </g>
   <g id="patch_201">
    <path clip-path="url(#p23a9022ba3)" d="M 693.072178 531.755829 
L 696.316679 531.755829 
L 696.316679 531.755829 
L 693.072178 531.755829 
z
" style="fill:#0000ff;opacity:0.6;stroke:#000000;stroke-linejoin:miter;"/>
   </g>
   <g id="patch_202">
    <path clip-path="url(#p23a9022ba3)" d="M 696.316679 531.755829 
L 699.561179 531.755829 
L 699.561179 531.755829 
L 696.316679 531.755829 
z
" style="fill:#0000ff;opacity:0.6;stroke:#000000;stroke-linejoin:miter;"/>
   </g>
   <g id="line2d_1">
    <path clip-path="url(#p23a9022ba3)" d="M 358.888615 531.755829 
L 358.888615 28.604774 
" style="fill:none;opacity:0.6;stroke:#ff0000;stroke-dasharray:6.000000,6.000000;stroke-dashoffset:0.0;"/>
   </g>
   <g id="line2d_2">
    <path clip-path="url(#p23a9022ba3)" d="M 391.333621 531.755829 
L 391.333621 28.604774 
" style="fill:none;opacity:0.6;stroke:#ff0000;stroke-dasharray:6.000000,6.000000;stroke-dashoffset:0.0;"/>
   </g>
   <g id="line2d_3">
    <path clip-path="url(#p23a9022ba3)" d="M 375.111118 531.755829 
L 375.111118 28.604774 
" style="fill:none;opacity:0.6;stroke:#0000ff;stroke-dasharray:6.000000,6.000000;stroke-dashoffset:0.0;"/>
   </g>
   <g id="patch_203">
    <path d="M 50.661056 531.755829 
L 699.561179 531.755829 
" style="fill:none;stroke:#000000;stroke-linecap:square;stroke-linejoin:miter;"/>
   </g>
   <g id="patch_204">
    <path d="M 699.561179 531.755829 
L 699.561179 28.604774 
" style="fill:none;stroke:#000000;stroke-linecap:square;stroke-linejoin:miter;"/>
   </g>
   <g id="patch_205">
    <path d="M 50.661056 28.604774 
L 699.561179 28.604774 
" style="fill:none;stroke:#000000;stroke-linecap:square;stroke-linejoin:miter;"/>
   </g>
   <g id="patch_206">
    <path d="M 50.661056 531.755829 
L 50.661056 28.604774 
" style="fill:none;stroke:#000000;stroke-linecap:square;stroke-linejoin:miter;"/>
   </g>
   <g id="matplotlib.axis_1">
    <g id="xtick_1">
     <g id="line2d_4">
      <defs>
       <path d="M 0 0 
L 0 -4 
" id="me40a903697" style="stroke:#000000;stroke-width:0.5;"/>
      </defs>
      <g>
       <use style="stroke:#000000;stroke-width:0.5;" x="50.6610563415" xlink:href="#me40a903697" y="531.755828825"/>
      </g>
     </g>
     <g id="line2d_5">
      <defs>
       <path d="M 0 0 
L 0 4 
" id="m85e17e07f3" style="stroke:#000000;stroke-width:0.5;"/>
      </defs>
      <g>
       <use style="stroke:#000000;stroke-width:0.5;" x="50.6610563415" xlink:href="#m85e17e07f3" y="28.6047744785"/>
      </g>
     </g>
     <g id="text_1">
      <!-- $-1.0$ -->
      <defs>
       <path d="M 65.90625 23 
C 67.59375 23 69.40625 23 69.40625 25 
C 69.40625 27 67.59375 27 65.90625 27 
L 11.796875 27 
C 10.09375 27 8.296875 27 8.296875 25 
C 8.296875 23 10.09375 23 11.796875 23 
z
" id="CMSY10-0"/>
       <path d="M 26.59375 63.3125 
C 26.59375 65.40625 26.5 65.5 25.09375 65.5 
C 21.203125 61.1875 15.296875 59.796875 9.703125 59.796875 
C 9.40625 59.796875 8.90625 59.796875 8.796875 59.5 
C 8.703125 59.296875 8.703125 59.09375 8.703125 57 
C 11.796875 57 17 57.59375 21 59.984375 
L 21 7.203125 
C 21 3.6875 20.796875 2.5 12.203125 2.5 
L 9.203125 2.5 
L 9.203125 0 
C 14 0 19 0 23.796875 0 
C 28.59375 0 33.59375 0 38.40625 0 
L 38.40625 2.5 
L 35.40625 2.5 
C 26.796875 2.5 26.59375 3.59375 26.59375 7.15625 
z
" id="CMR17-49"/>
       <path d="M 42 31.640625 
C 42 37.75 41.90625 48.125 37.703125 56.109375 
C 34 63.109375 28.09375 65.59375 22.90625 65.59375 
C 18.09375 65.59375 12 63.40625 8.203125 56.203125 
C 4.203125 48.71875 3.796875 39.4375 3.796875 31.640625 
C 3.796875 25.953125 3.90625 17.28125 7 9.671875 
C 11.296875 -0.609375 19 -2 22.90625 -2 
C 27.5 -2 34.5 -0.109375 38.59375 9.375 
C 41.59375 16.28125 42 24.359375 42 31.640625 
M 22.90625 -0.40625 
C 16.5 -0.40625 12.703125 5.078125 11.296875 12.6875 
C 10.203125 18.5625 10.203125 27.15625 10.203125 32.75 
C 10.203125 40.4375 10.203125 46.828125 11.5 52.921875 
C 13.40625 61.390625 19 64 22.90625 64 
C 27 64 32.296875 61.296875 34.203125 53.125 
C 35.5 47.4375 35.59375 40.734375 35.59375 32.75 
C 35.59375 26.25 35.59375 18.265625 34.40625 12.375 
C 32.296875 1.484375 26.40625 -0.40625 22.90625 -0.40625 
" id="CMR17-48"/>
       <path d="M 18.40625 4.796875 
C 18.40625 7.6875 16 9.671875 13.59375 9.671875 
C 10.703125 9.671875 8.703125 7.28125 8.703125 4.890625 
C 8.703125 2 11.09375 0 13.5 0 
C 16.40625 0 18.40625 2.390625 18.40625 4.796875 
" id="CMMI12-58"/>
      </defs>
      <g transform="translate(38.53299075 544.626479292)scale(0.12 -0.12)">
       <use transform="scale(0.9962640099626402)" xlink:href="#CMSY10-0"/>
       <use transform="translate(77.4874676506071 0.0)scale(0.9962640099626402)" xlink:href="#CMR17-49"/>
       <use transform="translate(123.17794476766814 0.0)scale(0.9962640099626402)" xlink:href="#CMMI12-58"/>
       <use transform="translate(150.27512185748756 0.0)scale(0.9962640099626402)" xlink:href="#CMR17-48"/>
      </g>
     </g>
    </g>
    <g id="xtick_2">
     <g id="line2d_6">
      <g>
       <use style="stroke:#000000;stroke-width:0.5;" x="212.886087037" xlink:href="#me40a903697" y="531.755828825"/>
      </g>
     </g>
     <g id="line2d_7">
      <g>
       <use style="stroke:#000000;stroke-width:0.5;" x="212.886087037" xlink:href="#m85e17e07f3" y="28.6047744785"/>
      </g>
     </g>
     <g id="text_2">
      <!-- $-0.5$ -->
      <defs>
       <path d="M 11.40625 57.6875 
C 12.40625 57.28125 16.5 56 20.703125 56 
C 30 56 35.09375 61.015625 38 63.921875 
C 38 64.734375 38 65.25 37.40625 65.25 
C 37.296875 65.25 37.09375 65.25 36.296875 64.828125 
C 32.796875 63.3125 28.703125 62.078125 23.703125 62.078125 
C 20.703125 62.078125 16.203125 62.5 11.296875 64.734375 
C 10.203125 65.25 10 65.25 9.90625 65.25 
C 9.40625 65.25 9.296875 65.140625 9.296875 63.15625 
L 9.296875 34.28125 
C 9.296875 32.5 9.296875 32 10.296875 32 
C 10.796875 32 11 32.203125 11.5 32.90625 
C 14.703125 37.484375 19.09375 39.40625 24.09375 39.40625 
C 27.59375 39.40625 35.09375 37.21875 35.09375 20.140625 
C 35.09375 16.953125 35.09375 11.171875 32.09375 6.578125 
C 29.59375 2.484375 25.703125 0.390625 21.40625 0.390625 
C 14.796875 0.390625 8.09375 5 6.296875 12.71875 
C 6.703125 12.609375 7.5 12.421875 7.90625 12.421875 
C 9.203125 12.421875 11.703125 13.125 11.703125 16.21875 
C 11.703125 18.90625 9.796875 20 7.90625 20 
C 5.59375 20 4.09375 18.59375 4.09375 15.796875 
C 4.09375 7.09375 11 -2 21.59375 -2 
C 31.90625 -2 41.703125 6.875 41.703125 19.75 
C 41.703125 31.71875 33.90625 41 24.203125 41 
C 19.09375 41 14.796875 39.09375 11.40625 35.453125 
z
" id="CMR17-53"/>
      </defs>
      <g transform="translate(200.758021445 544.626479292)scale(0.12 -0.12)">
       <use transform="scale(0.9962640099626402)" xlink:href="#CMSY10-0"/>
       <use transform="translate(77.4874676506071 0.0)scale(0.9962640099626402)" xlink:href="#CMR17-48"/>
       <use transform="translate(123.17794476766814 0.0)scale(0.9962640099626402)" xlink:href="#CMMI12-58"/>
       <use transform="translate(150.27512185748756 0.0)scale(0.9962640099626402)" xlink:href="#CMR17-53"/>
      </g>
     </g>
    </g>
    <g id="xtick_3">
     <g id="line2d_8">
      <g>
       <use style="stroke:#000000;stroke-width:0.5;" x="375.111117732" xlink:href="#me40a903697" y="531.755828825"/>
      </g>
     </g>
     <g id="line2d_9">
      <g>
       <use style="stroke:#000000;stroke-width:0.5;" x="375.111117732" xlink:href="#m85e17e07f3" y="28.6047744785"/>
      </g>
     </g>
     <g id="text_3">
      <!-- $0.0$ -->
      <g transform="translate(367.632296856 544.626479292)scale(0.12 -0.12)">
       <use transform="scale(0.9962640099626402)" xlink:href="#CMR17-48"/>
       <use transform="translate(45.69047711706103 0.0)scale(0.9962640099626402)" xlink:href="#CMMI12-58"/>
       <use transform="translate(72.78765420688046 0.0)scale(0.9962640099626402)" xlink:href="#CMR17-48"/>
      </g>
     </g>
    </g>
    <g id="xtick_4">
     <g id="line2d_10">
      <g>
       <use style="stroke:#000000;stroke-width:0.5;" x="537.336148428" xlink:href="#me40a903697" y="531.755828825"/>
      </g>
     </g>
     <g id="line2d_11">
      <g>
       <use style="stroke:#000000;stroke-width:0.5;" x="537.336148428" xlink:href="#m85e17e07f3" y="28.6047744785"/>
      </g>
     </g>
     <g id="text_4">
      <!-- $0.5$ -->
      <g transform="translate(529.857327551 544.626479292)scale(0.12 -0.12)">
       <use transform="scale(0.9962640099626402)" xlink:href="#CMR17-48"/>
       <use transform="translate(45.69047711706103 0.0)scale(0.9962640099626402)" xlink:href="#CMMI12-58"/>
       <use transform="translate(72.78765420688046 0.0)scale(0.9962640099626402)" xlink:href="#CMR17-53"/>
      </g>
     </g>
    </g>
    <g id="xtick_5">
     <g id="line2d_12">
      <g>
       <use style="stroke:#000000;stroke-width:0.5;" x="699.561179123" xlink:href="#me40a903697" y="531.755828825"/>
      </g>
     </g>
     <g id="line2d_13">
      <g>
       <use style="stroke:#000000;stroke-width:0.5;" x="699.561179123" xlink:href="#m85e17e07f3" y="28.6047744785"/>
      </g>
     </g>
     <g id="text_5">
      <!-- $1.0$ -->
      <g transform="translate(692.082358246 544.626479292)scale(0.12 -0.12)">
       <use transform="scale(0.9962640099626402)" xlink:href="#CMR17-49"/>
       <use transform="translate(45.69047711706103 0.0)scale(0.9962640099626402)" xlink:href="#CMMI12-58"/>
       <use transform="translate(72.78765420688046 0.0)scale(0.9962640099626402)" xlink:href="#CMR17-48"/>
      </g>
     </g>
    </g>
    <g id="text_6">
     <!-- Difference in Absolute Error ($\Delta E$) -->
     <defs>
      <path d="M 19.40625 47 
L 19.40625 67 
L 15.296875 67 
C 14.296875 53.875 9.90625 47.1875 1.796875 46.59375 
L 1.796875 42.703125 
L 10 42.703125 
L 10 17.265625 
C 10 10.28125 10.203125 7.78125 11.203125 5.484375 
C 12.796875 1.296875 16.796875 -1 22.59375 -1 
C 26.5 -1 29.90625 0.203125 32.203125 2.390625 
C 35.5 5.59375 37.40625 10.875 37.40625 16.375 
C 37.40625 16.96875 37.40625 17.671875 37.296875 18.671875 
L 33.09375 18.671875 
C 32.796875 9.6875 30.203125 5.09375 25.296875 5.09375 
C 23 5.09375 21 6.28125 20.296875 7.984375 
C 19.703125 9.375 19.40625 11.875 19.40625 15.46875 
L 19.40625 42.703125 
L 34.09375 42.703125 
L 34.09375 47 
z
" id="Century_Schoolbook_L_Roman-116"/>
      <path d="M 63 72 
L 2.90625 72 
L 2.90625 67.3125 
L 4.703125 67.3125 
C 12.796875 67.3125 13.703125 66.8125 13.703125 62.609375 
L 13.703125 59.71875 
L 13.703125 12.28125 
L 13.703125 9.375 
C 13.703125 5.1875 12.796875 4.6875 4.703125 4.6875 
L 2.90625 4.6875 
L 2.90625 0 
L 64.296875 0 
L 66.296875 26.5 
L 61.90625 26.5 
C 60.59375 19.5625 58.296875 13.40625 55.90625 10.546875 
C 52.796875 6.578125 47.09375 4.6875 38.703125 4.6875 
L 32.09375 4.6875 
C 29.09375 4.6875 26.59375 5.296875 25.703125 6.1875 
C 25 6.78125 24.90625 7.390625 24.90625 9.5 
L 24.90625 35 
L 26.90625 35 
C 33 35 35.5 34.375 37.5 32.234375 
C 40.09375 29.578125 41.09375 26.296875 41.296875 20.265625 
L 46 20.265625 
L 46 53 
L 41.296875 53 
C 40.796875 43.46875 36.796875 39.6875 27.296875 39.6875 
L 24.90625 39.6875 
L 24.90625 62.328125 
C 24.90625 66.609375 25.796875 67.3125 31.203125 67.3125 
L 36.40625 67.3125 
C 45.203125 67.3125 49.5 66.40625 52.90625 63.59375 
C 56.203125 61 58.59375 55.390625 60.09375 46.390625 
L 64.40625 46.390625 
z
" id="Century_Schoolbook_L_Roman-69"/>
      <path d="M 40.59375 68.8125 
C 39.796875 70.5 39.40625 70.5 38.59375 70.5 
C 37.40625 70.5 37.296875 70.296875 36.59375 68.90625 
L 4.203125 1.6875 
C 4.09375 1.5 3.703125 0.59375 3.703125 0.5 
C 3.703125 0.09375 3.796875 0 5.59375 0 
L 71.5 0 
C 73.296875 0 73.40625 0.09375 73.40625 0.5 
C 73.40625 0.59375 73 1.5 72.90625 1.6875 
z
M 36.09375 62.921875 
L 63.796875 5.578125 
L 8.296875 5.578125 
z
" id="CMR17-1"/>
      <path d="M 41.203125 0 
L 59.40625 0 
L 59.40625 4.703125 
L 56.90625 4.703125 
C 51.40625 4.703125 50.59375 5.59375 50.59375 11.953125 
L 50.59375 46.78125 
L 31.796875 46.78125 
L 31.796875 42 
L 36.90625 42 
C 40.59375 42 41.203125 41.296875 41.203125 36.953125 
L 41.203125 24.5625 
C 41.203125 18.8125 40.59375 15.484375 39.09375 12.15625 
C 37 7.71875 33 5.09375 28.09375 5.09375 
C 25 5.09375 22.40625 6.1875 21.09375 8.171875 
C 19.796875 10.046875 19.59375 11.046875 19.59375 16.5 
L 19.59375 46.78125 
L 2.09375 46.78125 
L 2.09375 42 
L 5.90625 42 
C 9.59375 42 10.203125 41.296875 10.203125 36.953125 
L 10.203125 15.21875 
C 10.203125 10.078125 10.59375 7.765625 12.09375 5.453125 
C 14.796875 1.3125 19.59375 -1 25.59375 -1 
C 32.203125 -1 36.796875 1.71875 41.203125 8.125 
z
" id="Century_Schoolbook_L_Roman-117"/>
      <path d="M 25.203125 48.28125 
C 13 48.28125 3.40625 37.453125 3.40625 23.546875 
C 3.40625 9.9375 13 -1 25 -1 
C 37 -1 46.59375 9.9375 46.59375 23.640625 
C 46.59375 37.25 37 48.28125 25.203125 48.28125 
M 25.203125 44 
C 32.203125 44 36.09375 36.734375 36.09375 23.640625 
C 36.09375 10.453125 32.203125 3.296875 25 3.296875 
C 17.796875 3.296875 13.90625 10.453125 13.90625 23.546875 
C 13.90625 37.046875 17.703125 44 25.203125 44 
" id="Century_Schoolbook_L_Roman-111"/>
      <path d="M 20.59375 46 
L 1.796875 46 
L 1.796875 41.21875 
L 6.90625 41.21875 
C 10.59375 41.21875 11.203125 40.515625 11.203125 36.203125 
L 11.203125 12.296875 
L 11.203125 8.296875 
C 11.203125 4.296875 10.09375 3.59375 3.703125 3.59375 
L 3 3.59375 
L 3 0 
L 28.90625 0 
L 28.90625 3.59375 
L 28.203125 3.59375 
C 21.703125 3.59375 20.59375 4.28125 20.59375 8.21875 
L 20.59375 12.171875 
z
M 15.90625 71.578125 
C 12.703125 71.578125 10.09375 68.984375 10.09375 65.796875 
C 10.09375 62.703125 12.703125 60 15.796875 60 
C 19.09375 60 21.703125 62.59375 21.703125 65.796875 
C 21.703125 68.984375 19.09375 71.578125 15.90625 71.578125 
" id="Century_Schoolbook_L_Roman-105"/>
      <path d="M 37.796875 73.5 
L 33.59375 73.5 
L 10.59375 15.265625 
C 8.59375 10.078125 8.203125 9.375 6.703125 7.78125 
C 5.09375 5.890625 2.296875 4.6875 -0.40625 4.6875 
L -0.796875 4.6875 
L -0.796875 0 
L 25.703125 0 
L 25.703125 4.6875 
L 23.703125 4.6875 
C 18.296875 4.6875 15.59375 6.625 15.59375 10.453125 
C 15.59375 11.671875 15.90625 13.078125 16.5 14.703125 
L 19.796875 23.609375 
L 46.296875 23.609375 
L 51.703125 10.0625 
C 52.296875 8.53125 52.5 7.828125 52.5 7.3125 
C 52.5 5.703125 50 4.6875 46.296875 4.6875 
L 42.09375 4.6875 
L 42.09375 0 
L 73.09375 0 
L 73.09375 4.6875 
L 71.703125 4.6875 
C 66.703125 4.6875 65.59375 5.484375 63.296875 11.078125 
z
M 32.90625 57.203125 
L 44.203125 29 
L 21.796875 29 
z
" id="Century_Schoolbook_L_Roman-65"/>
      <path d="M 19.796875 46 
L 2.09375 46 
L 2.09375 41.21875 
L 6.203125 41.21875 
C 9.90625 41.21875 10.5 40.515625 10.5 36.203125 
L 10.5 12.296875 
L 10.5 8.296875 
C 10.5 4.296875 9.40625 3.59375 2.90625 3.59375 
L 2.5 3.59375 
L 2.5 0 
L 29.203125 0 
L 29.203125 3.59375 
L 27.296875 3.59375 
C 20.90625 3.59375 19.796875 4.296875 19.796875 8.296875 
L 19.796875 12.296875 
L 19.796875 13.296875 
C 19.796875 20.8125 21.203125 28.40625 23.703125 34.109375 
C 26.09375 39.703125 29.5 42.8125 33.703125 43.3125 
C 32.296875 41.703125 31.90625 40.6875 31.90625 38.765625 
C 31.90625 35.546875 34.203125 33.234375 37.40625 33.234375 
C 41 33.234375 43.5 35.9375 43.5 40.015625 
C 43.5 44.8125 40.09375 48 34.796875 48 
C 28.5 48 23 42.921875 19.796875 34.140625 
z
" id="Century_Schoolbook_L_Roman-114"/>
      <path d="M 39 48 
L 35.5 48 
L 32.59375 44.40625 
C 29 47.203125 25.40625 48.390625 20.40625 48.390625 
C 11.59375 48.390625 5.796875 42.625 5.796875 33.953125 
C 5.796875 30.078125 7.09375 26.78125 9.296875 24.8125 
C 11.59375 22.703125 13.90625 21.71875 19.90625 20.3125 
L 25.203125 19.125 
C 33.09375 17.234375 35.90625 15.234375 35.90625 11.265625 
C 35.90625 6.578125 31.796875 3.296875 25.90625 3.296875 
C 17.5 3.296875 11.5 8.765625 9.09375 18.875 
L 5.09375 18.875 
L 5.09375 0 
L 8.59375 0 
L 12.09375 3.90625 
C 16.203125 0.59375 20.796875 -1 25.796875 -1 
C 35.59375 -1 42.09375 5.078125 42.09375 14.34375 
C 42.09375 18.71875 40.703125 22.09375 37.90625 24.390625 
C 35.5 26.484375 33.5 27.28125 27.40625 28.5625 
L 22.40625 29.671875 
C 16.90625 30.859375 16.90625 30.859375 15.09375 31.859375 
C 12.90625 32.859375 11.59375 34.9375 11.59375 37.140625 
C 11.59375 41.109375 15.40625 44 20.90625 44 
C 24.703125 44 27.796875 42.703125 30.59375 40.015625 
C 32.796875 37.8125 33.90625 35.828125 35.5 31.234375 
L 39 31.234375 
z
" id="Century_Schoolbook_L_Roman-115"/>
      <path d="M 46.5 23 
C 46.59375 37.8125 38.09375 48.28125 25.90625 48.28125 
C 13.09375 48.28125 3.5 37.25 3.5 22.34375 
C 3.5 8.4375 12.59375 -1 26.09375 -1 
C 35.59375 -1 42.40625 3.6875 46.5 13.1875 
L 43 15.09375 
C 38.90625 7.390625 34.703125 4.390625 28 4.390625 
C 22.90625 4.390625 19.203125 6.59375 16.59375 11 
C 14.796875 14 14 17.5 14.09375 23 
z
M 14.203125 27.296875 
C 14.203125 30.34375 14.59375 32.5 15.59375 35.25 
C 17.703125 41.140625 20.90625 44 25.703125 44 
C 31.796875 44 35.796875 38.78125 35.796875 30.921875 
C 35.796875 28.078125 34.90625 27.296875 31.703125 27.296875 
z
" id="Century_Schoolbook_L_Roman-101"/>
      <path d="M 13.703125 12.28125 
L 13.703125 9.375 
C 13.703125 5.1875 12.796875 4.6875 4.796875 4.6875 
L 2.90625 4.6875 
L 2.90625 0 
L 36.5 0 
C 45.40625 0 52.203125 1.390625 57.5 4.390625 
C 67.59375 10.0625 73.203125 21.4375 73.203125 36.390625 
C 73.203125 50.0625 68.203125 60.9375 59 66.90625 
C 53.5 70.40625 46.09375 72 34.703125 72 
L 2.90625 72 
L 2.90625 67.3125 
L 4.796875 67.3125 
C 12.796875 67.3125 13.703125 66.8125 13.703125 62.609375 
L 13.703125 59.71875 
z
M 30.59375 4.6875 
C 25.59375 4.6875 24.90625 5.296875 24.90625 10.1875 
L 24.90625 61.71875 
C 24.90625 66.609375 25.59375 67.3125 30.59375 67.3125 
L 35.796875 67.3125 
C 52.90625 67.3125 60 58.046875 60 36 
C 60 13.65625 53.5 4.6875 37.40625 4.6875 
z
" id="Century_Schoolbook_L_Roman-68"/>
      <path d="M 20 46 
L 2.703125 46 
L 2.703125 41.21875 
L 6.296875 41.21875 
C 10 41.21875 10.59375 40.515625 10.59375 36.203125 
L 10.59375 12.296875 
L 10.59375 8.296875 
C 10.59375 4.296875 9.5 3.59375 3.09375 3.59375 
L 2.703125 3.59375 
L 2.703125 0 
L 28 0 
L 28 3.59375 
L 27.59375 3.59375 
C 21.09375 3.59375 20 4.296875 20 8.28125 
L 20 12.28125 
L 20 22.65625 
C 20 27.546875 20.703125 32.03125 21.796875 34.328125 
C 23.90625 38.828125 28.40625 41.921875 32.703125 41.921875 
C 35.296875 41.921875 38.296875 40.421875 39.796875 38.421875 
C 41.296875 36.328125 42 33.234375 42 28.4375 
L 42 12.28125 
L 42 8.28125 
C 42 4.296875 40.90625 3.59375 34.40625 3.59375 
L 34 3.59375 
L 34 0 
L 59.296875 0 
L 59.296875 3.59375 
L 58.90625 3.59375 
C 52.5 3.59375 51.40625 4.296875 51.40625 8.28125 
L 51.40625 12.28125 
L 51.40625 27.953125 
C 51.40625 35.125 51.09375 36.921875 49.296875 40.328125 
C 46.796875 45.109375 41.703125 48 35.796875 48 
C 29.40625 48 24.40625 45.046875 20 38.515625 
z
" id="Century_Schoolbook_L_Roman-110"/>
      <path d="M 20.09375 46.296875 
L 20.09375 52.140625 
C 20.09375 57.265625 20.40625 60.65625 21.203125 62.71875 
C 22.796875 67.234375 26.296875 70 30.296875 70 
C 32.40625 70 33.703125 69.390625 33.703125 68.265625 
C 33.703125 67.9375 33.59375 67.75 33.09375 66.921875 
C 32.5 65.90625 32.203125 64.765625 32.203125 63.640625 
C 32.203125 60.546875 34.59375 58.203125 37.703125 58.203125 
C 41 58.203125 43.296875 60.734375 43.296875 64.40625 
C 43.296875 70.328125 38.296875 74 30.203125 74 
C 23.296875 74 18.296875 71.53125 14.703125 66.4375 
C 11.703125 62.140625 10.703125 57.734375 10.703125 49.46875 
L 10.703125 46.296875 
L 1.90625 46.296875 
L 1.90625 42 
L 10.703125 42 
L 10.703125 12.234375 
L 10.703125 8.25 
C 10.703125 4.296875 9.59375 3.59375 3.203125 3.59375 
L 2.796875 3.59375 
L 2.796875 0 
L 29.5 0 
L 29.5 3.59375 
L 27.703125 3.59375 
C 21.203125 3.59375 20.09375 4.296875 20.09375 8.25 
L 20.09375 12.234375 
L 20.09375 42 
L 31.09375 42 
L 31.09375 46.296875 
z
" id="Century_Schoolbook_L_Roman-102"/>
      <path d="M 18 73 
L 0.796875 73 
L 0.796875 68.21875 
L 4.296875 68.21875 
C 8 68.21875 8.59375 67.515625 8.59375 63.25 
L 8.59375 24.625 
C 8.59375 11.3125 8.09375 4.84375 6.796875 -1 
L 10.59375 -1 
L 15.5 6.75 
C 19.59375 1.453125 24.296875 -1 30.5 -1 
C 42.796875 -1 52 9.59375 52 23.828125 
C 52 38.078125 43.59375 48.078125 31.59375 48.078125 
C 25.5 48.078125 21.796875 46 18 40.328125 
z
M 29.796875 43 
C 37.296875 43 41.5 35.765625 41.5 22.796875 
C 41.5 10.3125 37.40625 3.1875 30.09375 3.1875 
C 22.203125 3.1875 17.5 10.40625 17.5 22.59375 
C 17.5 35.765625 21.796875 43 29.796875 43 
" id="Century_Schoolbook_L_Roman-98"/>
      <path d="M 38.703125 15.109375 
C 35.5 7.96875 32.09375 5.09375 26.90625 5.09375 
C 18.90625 5.09375 13.90625 12.328125 13.90625 23.9375 
C 13.90625 35.953125 18.796875 44 26.203125 44 
C 29.203125 44 31.796875 42.59375 31.796875 41.015625 
C 31.796875 40.71875 31.59375 40.421875 31.203125 39.8125 
C 29.59375 37.9375 29.203125 36.9375 29.203125 35.265625 
C 29.203125 31.984375 31.703125 29.703125 35.203125 29.703125 
C 38.703125 29.703125 41.296875 32.484375 41.296875 36.453125 
C 41.296875 43.109375 34.59375 48.28125 25.703125 48.28125 
C 12.703125 48.28125 3.40625 37.65625 3.40625 22.84375 
C 3.40625 8.734375 11.90625 -1 24.296875 -1 
C 33.203125 -1 38.296875 3.078125 42.59375 13.625 
z
" id="Century_Schoolbook_L_Roman-99"/>
      <path d="M 5.40625 -12.28125 
C 11.40625 -8.578125 14.59375 -5.984375 18 -1.890625 
C 25.59375 6.984375 29.703125 18.5625 29.703125 30.640625 
C 29.703125 42.015625 26.09375 52.703125 19.40625 61.484375 
C 15.59375 66.375 12.203125 69.359375 5.40625 73.453125 
L 5.40625 69.765625 
C 15.40625 60.984375 19.40625 49.796875 19.40625 30.640625 
C 19.40625 11.375 15.40625 0.203125 5.40625 -8.578125 
z
" id="Century_Schoolbook_L_Roman-41"/>
      <path d="M 27.90625 73.453125 
C 21.90625 69.765625 18.703125 67.171875 15.296875 63.171875 
C 7.703125 54.1875 3.59375 42.71875 3.59375 30.640625 
C 3.59375 19.265625 7.203125 8.578125 13.90625 -0.296875 
C 17.703125 -5.09375 21.09375 -8.078125 27.90625 -12.28125 
L 27.90625 -8.578125 
C 17.90625 0.203125 13.90625 11.484375 13.90625 30.640625 
C 13.90625 49.796875 17.90625 60.984375 27.90625 69.765625 
z
" id="Century_Schoolbook_L_Roman-40"/>
      <path d="M 20.40625 73 
L 1.90625 73 
L 1.90625 68.21875 
L 6.796875 68.21875 
C 10.40625 68.21875 11 67.515625 11 63.21875 
L 11 12.28125 
L 11 8.28125 
C 11 4.296875 9.90625 3.59375 3.5 3.59375 
L 2.796875 3.59375 
L 2.796875 0 
L 28.703125 0 
L 28.703125 3.59375 
L 28 3.59375 
C 21.5 3.59375 20.40625 4.296875 20.40625 8.25 
L 20.40625 12.21875 
z
" id="Century_Schoolbook_L_Roman-108"/>
      <path d="M 69.5 23.265625 
C 69.59375 23.5625 69.90625 24.28125 69.90625 24.671875 
C 69.90625 25.171875 69.5 25.671875 68.90625 25.671875 
C 68.5 25.671875 68.296875 25.578125 68 25.265625 
C 67.796875 25.171875 67.796875 24.96875 66.90625 22.953125 
C 61 8.90625 56.703125 2.890625 40.703125 2.890625 
L 26.09375 2.890625 
C 24.703125 2.890625 24.5 2.890625 23.90625 3 
C 22.796875 3.09375 22.703125 3.296875 22.703125 4.09375 
C 22.703125 4.8125 22.90625 5.40625 23.09375 6.296875 
L 30 34 
L 39.90625 34 
C 47.703125 34 48.296875 32.28125 48.296875 29.28125 
C 48.296875 28.28125 48.296875 27.375 47.59375 24.375 
C 47.40625 23.96875 47.296875 23.5625 47.296875 23.265625 
C 47.296875 22.5625 47.796875 22.265625 48.40625 22.265625 
C 49.296875 22.265625 49.40625 22.953125 49.796875 24.359375 
L 55.5 47.515625 
C 55.5 48 55.09375 48.5 54.5 48.5 
C 53.59375 48.5 53.5 48.109375 53.09375 46.71875 
C 51.09375 39.078125 49.09375 36.890625 40.203125 36.890625 
L 30.703125 36.890625 
L 36.90625 61.328125 
C 37.796875 64.8125 38 65.109375 42.09375 65.109375 
L 56.40625 65.109375 
C 68.703125 65.109375 71.203125 61.828125 71.203125 54.28125 
C 71.203125 54.171875 71.203125 51.40625 70.796875 48.109375 
C 70.703125 47.71875 70.59375 47.125 70.59375 46.921875 
C 70.59375 46.125 71.09375 45.828125 71.703125 45.828125 
C 72.40625 45.828125 72.796875 46.234375 73 48 
L 75.09375 65.40625 
C 75.09375 65.703125 75.296875 66.703125 75.296875 66.90625 
C 75.296875 68 74.40625 68 72.59375 68 
L 23.796875 68 
C 21.90625 68 20.90625 68 20.90625 66.203125 
C 20.90625 65.109375 21.59375 65.109375 23.296875 65.109375 
C 29.5 65.109375 29.5 64.40625 29.5 63.3125 
C 29.5 62.8125 29.40625 62.40625 29.09375 61.3125 
L 15.59375 7.390625 
C 14.703125 3.890625 14.5 2.890625 7.5 2.890625 
C 5.59375 2.890625 4.59375 2.890625 4.59375 1.09375 
C 4.59375 0 5.203125 0 7.203125 0 
L 57.40625 0 
C 59.59375 0 59.703125 0.09375 60.40625 1.71875 
z
" id="CMMI12-69"/>
     </defs>
     <g transform="translate(281.434990794 560.768564879)scale(0.12 -0.12)">
      <use transform="scale(0.9962640099626402)" xlink:href="#Century_Schoolbook_L_Roman-68"/>
      <use transform="translate(77.50837010137765 0.0)scale(0.9962640099626402)" xlink:href="#Century_Schoolbook_L_Roman-105"/>
      <use transform="translate(108.88968309756383 0.0)scale(0.9962640099626402)" xlink:href="#Century_Schoolbook_L_Roman-102"/>
      <use transform="translate(142.06491282689913 0.0)scale(0.9962640099626402)" xlink:href="#Century_Schoolbook_L_Roman-102"/>
      <use transform="translate(175.23994493306353 0.0)scale(0.9962640099626402)" xlink:href="#Century_Schoolbook_L_Roman-101"/>
      <use transform="translate(225.05314543119553 0.0)scale(0.9962640099626402)" xlink:href="#Century_Schoolbook_L_Roman-114"/>
      <use transform="translate(269.28671412865816 0.0)scale(0.9962640099626402)" xlink:href="#Century_Schoolbook_L_Roman-101"/>
      <use transform="translate(319.09991462679017 0.0)scale(0.9962640099626402)" xlink:href="#Century_Schoolbook_L_Roman-110"/>
      <use transform="translate(379.9715453037438 0.0)scale(0.9962640099626402)" xlink:href="#Century_Schoolbook_L_Roman-99"/>
      <use transform="translate(424.2051140012065 0.0)scale(0.9962640099626402)" xlink:href="#Century_Schoolbook_L_Roman-101"/>
      <use transform="translate(501.7134841025841 0.0)scale(0.9962640099626402)" xlink:href="#Century_Schoolbook_L_Roman-105"/>
      <use transform="translate(533.0947970987703 0.0)scale(0.9962640099626402)" xlink:href="#Century_Schoolbook_L_Roman-110"/>
      <use transform="translate(621.6615973789695 0.0)scale(0.9962640099626402)" xlink:href="#Century_Schoolbook_L_Roman-65"/>
      <use transform="translate(693.5915822258329 0.0)scale(0.9962640099626402)" xlink:href="#Century_Schoolbook_L_Roman-98"/>
      <use transform="translate(748.9832591891735 0.0)scale(0.9962640099626402)" xlink:href="#Century_Schoolbook_L_Roman-115"/>
      <use transform="translate(795.1090697482099 0.0)scale(0.9962640099626402)" xlink:href="#Century_Schoolbook_L_Roman-111"/>
      <use transform="translate(844.9222702463419 0.0)scale(0.9962640099626402)" xlink:href="#Century_Schoolbook_L_Roman-108"/>
      <use transform="translate(876.3035832425281 0.0)scale(0.9962640099626402)" xlink:href="#Century_Schoolbook_L_Roman-117"/>
      <use transform="translate(937.1752139194817 0.0)scale(0.9962640099626402)" xlink:href="#Century_Schoolbook_L_Roman-116"/>
      <use transform="translate(975.9289201140256 0.0)scale(0.9962640099626402)" xlink:href="#Century_Schoolbook_L_Roman-101"/>
      <use transform="translate(1053.4372902154032 0.0)scale(0.9962640099626402)" xlink:href="#Century_Schoolbook_L_Roman-69"/>
      <use transform="translate(1125.3672750622666 0.0)scale(0.9962640099626402)" xlink:href="#Century_Schoolbook_L_Roman-114"/>
      <use transform="translate(1169.6008437597293 0.0)scale(0.9962640099626402)" xlink:href="#Century_Schoolbook_L_Roman-114"/>
      <use transform="translate(1213.834412457192 0.0)scale(0.9962640099626402)" xlink:href="#Century_Schoolbook_L_Roman-111"/>
      <use transform="translate(1263.647612955324 0.0)scale(0.9962640099626402)" xlink:href="#Century_Schoolbook_L_Roman-114"/>
      <use transform="translate(1335.5763512560322 0.0)scale(0.9962640099626402)" xlink:href="#Century_Schoolbook_L_Roman-40"/>
      <use transform="translate(1368.7515809853676 0.0)scale(0.9962640099626402)" xlink:href="#CMR17-1"/>
      <use transform="translate(1445.6711708534403 0.0)scale(0.9962640099626402)" xlink:href="#CMMI12-69"/>
      <use transform="translate(1523.7228070516812 0.0)scale(0.9962640099626402)" xlink:href="#Century_Schoolbook_L_Roman-41"/>
     </g>
    </g>
   </g>
   <g id="matplotlib.axis_2">
    <g id="ytick_1">
     <g id="line2d_14">
      <defs>
       <path d="M 0 0 
L 4 0 
" id="mbfc807dae7" style="stroke:#000000;stroke-width:0.5;"/>
      </defs>
      <g>
       <use style="stroke:#000000;stroke-width:0.5;" x="50.6610563415" xlink:href="#mbfc807dae7" y="531.755828825"/>
      </g>
     </g>
     <g id="line2d_15">
      <defs>
       <path d="M 0 0 
L -4 0 
" id="me0b10a20e9" style="stroke:#000000;stroke-width:0.5;"/>
      </defs>
      <g>
       <use style="stroke:#000000;stroke-width:0.5;" x="699.561179123" xlink:href="#me0b10a20e9" y="531.755828825"/>
      </g>
     </g>
     <g id="text_7">
      <!-- $0$ -->
      <g transform="translate(40.8080660901 535.055436498)scale(0.12 -0.12)">
       <use transform="scale(0.9962640099626402)" xlink:href="#CMR17-48"/>
      </g>
     </g>
    </g>
    <g id="ytick_2">
     <g id="line2d_16">
      <g>
       <use style="stroke:#000000;stroke-width:0.5;" x="50.6610563415" xlink:href="#mbfc807dae7" y="431.125617956"/>
      </g>
     </g>
     <g id="line2d_17">
      <g>
       <use style="stroke:#000000;stroke-width:0.5;" x="699.561179123" xlink:href="#me0b10a20e9" y="431.125617956"/>
      </g>
     </g>
     <g id="text_8">
      <!-- $50$ -->
      <g transform="translate(34.9550758387 434.425225629)scale(0.12 -0.12)">
       <use transform="scale(0.9962640099626402)" xlink:href="#CMR17-53"/>
       <use transform="translate(45.69047711706103 0.0)scale(0.9962640099626402)" xlink:href="#CMR17-48"/>
      </g>
     </g>
    </g>
    <g id="ytick_3">
     <g id="line2d_18">
      <g>
       <use style="stroke:#000000;stroke-width:0.5;" x="50.6610563415" xlink:href="#mbfc807dae7" y="330.495407087"/>
      </g>
     </g>
     <g id="line2d_19">
      <g>
       <use style="stroke:#000000;stroke-width:0.5;" x="699.561179123" xlink:href="#me0b10a20e9" y="330.495407087"/>
      </g>
     </g>
     <g id="text_9">
      <!-- $100$ -->
      <g transform="translate(29.1020855873 333.795014759)scale(0.12 -0.12)">
       <use transform="scale(0.9962640099626402)" xlink:href="#CMR17-49"/>
       <use transform="translate(45.69047711706103 0.0)scale(0.9962640099626402)" xlink:href="#CMR17-48"/>
       <use transform="translate(91.38095423412206 0.0)scale(0.9962640099626402)" xlink:href="#CMR17-48"/>
      </g>
     </g>
    </g>
    <g id="ytick_4">
     <g id="line2d_20">
      <g>
       <use style="stroke:#000000;stroke-width:0.5;" x="50.6610563415" xlink:href="#mbfc807dae7" y="229.865196217"/>
      </g>
     </g>
     <g id="line2d_21">
      <g>
       <use style="stroke:#000000;stroke-width:0.5;" x="699.561179123" xlink:href="#me0b10a20e9" y="229.865196217"/>
      </g>
     </g>
     <g id="text_10">
      <!-- $150$ -->
      <g transform="translate(29.1020855873 233.16480389)scale(0.12 -0.12)">
       <use transform="scale(0.9962640099626402)" xlink:href="#CMR17-49"/>
       <use transform="translate(45.69047711706103 0.0)scale(0.9962640099626402)" xlink:href="#CMR17-53"/>
       <use transform="translate(91.38095423412206 0.0)scale(0.9962640099626402)" xlink:href="#CMR17-48"/>
      </g>
     </g>
    </g>
    <g id="ytick_5">
     <g id="line2d_22">
      <g>
       <use style="stroke:#000000;stroke-width:0.5;" x="50.6610563415" xlink:href="#mbfc807dae7" y="129.234985348"/>
      </g>
     </g>
     <g id="line2d_23">
      <g>
       <use style="stroke:#000000;stroke-width:0.5;" x="699.561179123" xlink:href="#me0b10a20e9" y="129.234985348"/>
      </g>
     </g>
     <g id="text_11">
      <!-- $200$ -->
      <defs>
       <path d="M 41.703125 15.453125 
L 39.90625 15.453125 
C 38.90625 8.375 38.09375 7.171875 37.703125 6.5625 
C 37.203125 5.765625 30 5.765625 28.59375 5.765625 
L 9.40625 5.765625 
C 13 9.671875 20 16.75 28.5 24.953125 
C 34.59375 30.734375 41.703125 37.53125 41.703125 47.421875 
C 41.703125 59.21875 32.296875 66 21.796875 66 
C 10.796875 66 4.09375 56.3125 4.09375 47.34375 
C 4.09375 43.4375 7 42.9375 8.203125 42.9375 
C 9.203125 42.9375 12.203125 43.546875 12.203125 47.03125 
C 12.203125 50.109375 9.59375 51 8.203125 51 
C 7.59375 51 7 50.90625 6.59375 50.703125 
C 8.5 59.21875 14.296875 63.40625 20.40625 63.40625 
C 29.09375 63.40625 34.796875 56.515625 34.796875 47.421875 
C 34.796875 38.734375 29.703125 31.25 24 24.75 
L 4.09375 2.28125 
L 4.09375 0 
L 39.296875 0 
z
" id="CMR17-50"/>
      </defs>
      <g transform="translate(29.1020855873 132.53459302)scale(0.12 -0.12)">
       <use transform="scale(0.9962640099626402)" xlink:href="#CMR17-50"/>
       <use transform="translate(45.69047711706103 0.0)scale(0.9962640099626402)" xlink:href="#CMR17-48"/>
       <use transform="translate(91.38095423412206 0.0)scale(0.9962640099626402)" xlink:href="#CMR17-48"/>
      </g>
     </g>
    </g>
    <g id="ytick_6">
     <g id="line2d_24">
      <g>
       <use style="stroke:#000000;stroke-width:0.5;" x="50.6610563415" xlink:href="#mbfc807dae7" y="28.6047744785"/>
      </g>
     </g>
     <g id="line2d_25">
      <g>
       <use style="stroke:#000000;stroke-width:0.5;" x="699.561179123" xlink:href="#me0b10a20e9" y="28.6047744785"/>
      </g>
     </g>
     <g id="text_12">
      <!-- $250$ -->
      <g transform="translate(29.1020855873 31.9043821509)scale(0.12 -0.12)">
       <use transform="scale(0.9962640099626402)" xlink:href="#CMR17-50"/>
       <use transform="translate(45.69047711706103 0.0)scale(0.9962640099626402)" xlink:href="#CMR17-53"/>
       <use transform="translate(91.38095423412206 0.0)scale(0.9962640099626402)" xlink:href="#CMR17-48"/>
      </g>
     </g>
    </g>
    <g id="text_13">
     <!-- Frequency -->
     <defs>
      <path d="M 30 13.203125 
L 19 38.8125 
C 18.59375 39.703125 18.40625 40.40625 18.40625 40.90625 
C 18.40625 42.703125 19.59375 43.40625 23 43.40625 
L 25.09375 43.40625 
L 25.09375 47 
L 1.296875 47 
L 1.296875 43.40625 
L 2.40625 43.40625 
C 5.59375 43.40625 7.40625 42 9.203125 38.015625 
L 25.5 1.234375 
L 23.796875 -2.265625 
C 20.203125 -9.828125 15.5 -15.109375 12.296875 -15.109375 
C 11.40625 -15.109375 10.703125 -14.703125 10.703125 -14.109375 
C 10.703125 -13.90625 10.796875 -13.609375 10.90625 -13.203125 
C 11.203125 -12.3125 11.40625 -11.421875 11.40625 -10.625 
C 11.40625 -8.03125 9.203125 -6.140625 6.296875 -6.140625 
C 2.796875 -6.140625 0.296875 -8.734375 0.296875 -12.328125 
C 0.296875 -16.703125 4.203125 -20 9.40625 -20 
C 14.703125 -20 19.203125 -17.40625 23.203125 -12.03125 
C 26.296875 -7.84375 28.296875 -3.84375 32.703125 7.21875 
L 44.09375 35.328125 
C 46.59375 41.40625 48.703125 43.40625 52.5 43.40625 
L 53.09375 43.40625 
L 53.09375 47 
L 33.09375 47 
L 33.09375 43.40625 
L 34.703125 43.40625 
C 38.5 43.40625 40.09375 42.296875 40.09375 39.703125 
C 40.09375 38.703125 39.796875 37.421875 39.09375 35.734375 
z
" id="Century_Schoolbook_L_Roman-121"/>
      <path d="M 44.90625 46.796875 
L 40.203125 39.984375 
C 36.203125 45.59375 31.296875 48.28125 25 48.28125 
C 12.796875 48.28125 3.59375 37.171875 3.59375 22.34375 
C 3.59375 8.625 12.203125 -1.390625 23.90625 -1.390625 
C 30.09375 -1.390625 33.5 0.40625 37.5 5.90625 
L 37.5 -7.75 
L 37.5 -11.71875 
C 37.5 -15.71875 36.40625 -16.40625 29.90625 -16.40625 
L 28.796875 -16.40625 
L 28.796875 -20 
L 54.796875 -20 
L 54.796875 -16.40625 
L 54.40625 -16.40625 
C 48 -16.40625 46.90625 -15.71875 46.90625 -11.703125 
L 46.90625 -7.71875 
L 46.90625 31.078125 
C 47 36.78125 47 37.171875 47 38.28125 
C 47.203125 40.171875 47.5 41.578125 48.59375 46.796875 
z
M 25.90625 44 
C 29.90625 44 33.5 41.390625 35.40625 37.171875 
C 36.90625 33.875 37.5 30.265625 37.5 24.5625 
C 37.5 10.8125 33.59375 4 25.796875 4 
C 18.40625 4 14.09375 10.921875 14.09375 22.9375 
C 14.09375 36.984375 18 44 25.90625 44 
" id="Century_Schoolbook_L_Roman-113"/>
      <path d="M 62.40625 72 
L 2.90625 72 
L 2.90625 67.3125 
L 4.703125 67.3125 
C 12.796875 67.3125 13.703125 66.8125 13.703125 62.609375 
L 13.703125 59.71875 
L 13.703125 12.28125 
L 13.703125 9.375 
C 13.703125 5.1875 12.796875 4.6875 4.703125 4.6875 
L 2.90625 4.6875 
L 2.90625 0 
L 37.203125 0 
L 37.203125 4.6875 
L 33.90625 4.6875 
C 25.796875 4.6875 24.90625 5.1875 24.90625 9.390625 
L 24.90625 12.296875 
L 24.90625 35 
L 26.90625 35 
C 33.09375 35 35.5 34.375 37.59375 32.234375 
C 40.09375 29.578125 41.09375 26.296875 41.296875 20.265625 
L 46 20.265625 
L 46 53 
L 41.296875 53 
C 40.796875 43.46875 36.796875 39.6875 27.296875 39.6875 
L 24.90625 39.6875 
L 24.90625 62.328125 
C 24.90625 66.609375 25.796875 67.3125 31.203125 67.3125 
L 35.796875 67.3125 
C 52.296875 67.3125 56.59375 63.5 59.40625 46.390625 
L 63.796875 46.390625 
z
" id="Century_Schoolbook_L_Roman-70"/>
     </defs>
     <g transform="translate(21.830650466 309.23118901)rotate(-90.0)scale(0.12 -0.12)">
      <use transform="scale(0.9962640099626402)" xlink:href="#Century_Schoolbook_L_Roman-70"/>
      <use transform="translate(65.45393434289385 0.0)scale(0.9962640099626402)" xlink:href="#Century_Schoolbook_L_Roman-114"/>
      <use transform="translate(109.68750304035649 0.0)scale(0.9962640099626402)" xlink:href="#Century_Schoolbook_L_Roman-101"/>
      <use transform="translate(159.5007035384885 0.0)scale(0.9962640099626402)" xlink:href="#Century_Schoolbook_L_Roman-113"/>
      <use transform="translate(214.8923805018291 0.0)scale(0.9962640099626402)" xlink:href="#Century_Schoolbook_L_Roman-117"/>
      <use transform="translate(275.7640111787827 0.0)scale(0.9962640099626402)" xlink:href="#Century_Schoolbook_L_Roman-101"/>
      <use transform="translate(325.5772116769147 0.0)scale(0.9962640099626402)" xlink:href="#Century_Schoolbook_L_Roman-110"/>
      <use transform="translate(386.4488423538684 0.0)scale(0.9962640099626402)" xlink:href="#Century_Schoolbook_L_Roman-99"/>
      <use transform="translate(430.682411051331 0.0)scale(0.9962640099626402)" xlink:href="#Century_Schoolbook_L_Roman-121"/>
     </g>
    </g>
   </g>
   <g id="text_14">
    <!-- Distribution of Differences in Absolute Error ($N = 2003$) -->
    <defs>
     <path d="M 64.296875 31.515625 
C 65.796875 31.515625 67.296875 31.515625 67.296875 33.203125 
C 67.296875 35 65.59375 35 63.90625 35 
L 8 35 
C 6.296875 35 4.59375 35 4.59375 33.203125 
C 4.59375 31.515625 6.09375 31.515625 7.59375 31.515625 
z
M 63.90625 14 
C 65.59375 14 67.296875 14 67.296875 15.796875 
C 67.296875 17.484375 65.796875 17.484375 64.296875 17.484375 
L 7.59375 17.484375 
C 6.09375 17.484375 4.59375 17.484375 4.59375 15.796875 
C 4.59375 14 6.296875 14 8 14 
z
" id="CMR17-61"/>
     <path d="M 74 57.703125 
C 75.09375 62 76.703125 65 84.296875 65 
C 84.59375 65 85.796875 65.09375 85.796875 66.859375 
C 85.796875 68 84.90625 68 84.5 68 
C 82.5 68 77.40625 68 75.40625 68 
L 70.59375 68 
C 69.203125 68 67.40625 68 66 68 
C 65.40625 68 64.203125 68 64.203125 66.03125 
C 64.203125 65 65 65 65.703125 65 
C 71.703125 65 72.09375 62.703125 72.09375 60.90625 
C 72.09375 60.015625 72 59.703125 71.703125 58.3125 
L 60.40625 13.28125 
L 39 66.296875 
C 38.296875 67.90625 38.203125 68 36 68 
L 23.796875 68 
C 21.796875 68 20.90625 68 20.90625 66.03125 
C 20.90625 65 21.59375 65 23.5 65 
C 24 65 29.90625 65 29.90625 64.09375 
C 29.90625 63.890625 29.703125 63.09375 29.59375 62.796875 
L 16.296875 9.890625 
C 15.09375 5 12.703125 2.90625 6.09375 2.90625 
C 5.59375 2.90625 4.59375 2.8125 4.59375 1 
C 4.59375 0 5.59375 0 5.90625 0 
C 7.90625 0 13 0 15 0 
L 19.796875 0 
C 21.203125 0 22.90625 0 24.296875 0 
C 25 0 26.09375 0 26.09375 1.90625 
C 26.09375 2.8125 25.09375 2.90625 24.703125 2.90625 
C 21.40625 2.90625 18.203125 3.5 18.203125 7.09375 
C 18.203125 7.890625 18.40625 8.78125 18.59375 9.578125 
L 32.09375 62.96875 
C 32.703125 61.96875 32.703125 61.78125 33.09375 60.875 
L 56.90625 1.734375 
C 57.40625 0.578125 57.59375 0 58.5 0 
C 59.5 0 59.59375 0.296875 60 2 
z
" id="CMMI12-78"/>
     <path d="M 22.09375 33.703125 
C 31 33.703125 34.90625 25.96875 34.90625 17.03125 
C 34.90625 5 28.5 0.390625 22.703125 0.390625 
C 17.40625 0.390625 8.796875 3.03125 6.09375 10.828125 
C 6.59375 10.625 7.09375 10.625 7.59375 10.625 
C 10 10.625 11.796875 12.21875 11.796875 14.8125 
C 11.796875 17.703125 9.59375 19 7.59375 19 
C 5.90625 19 3.296875 18.203125 3.296875 14.46875 
C 3.296875 5.234375 12.296875 -2 22.90625 -2 
C 34 -2 42.5 6.71875 42.5 16.953125 
C 42.5 26.671875 34.5 33.6875 25 34.796875 
C 32.59375 36.375 39.90625 43.0625 39.90625 52.015625 
C 39.90625 59.6875 32 65.296875 23 65.296875 
C 13.90625 65.296875 5.90625 59.828125 5.90625 52.015625 
C 5.90625 48.59375 8.5 48 9.796875 48 
C 11.90625 48 13.703125 49.296875 13.703125 51.890625 
C 13.703125 54.46875 11.90625 55.765625 9.796875 55.765625 
C 9.40625 55.765625 8.90625 55.765625 8.5 55.5625 
C 11.40625 61.859375 19.296875 63 22.796875 63 
C 26.296875 63 32.90625 61.328125 32.90625 51.875 
C 32.90625 49.109375 32.5 44.1875 29.09375 39.84375 
C 26.09375 36 22.703125 36 19.40625 35.59375 
C 18.90625 35.59375 16.59375 35.59375 16.203125 35.59375 
C 15.5 35.484375 15.09375 35.390625 15.09375 34.59375 
C 15.09375 33.8125 15.203125 33.703125 17.203125 33.703125 
z
" id="CMR17-51"/>
    </defs>
    <g transform="translate(190.234154878 23.6047744785)scale(0.144 -0.144)">
     <use transform="scale(0.9962640099626402)" xlink:href="#Century_Schoolbook_L_Roman-68"/>
     <use transform="translate(77.50837010137765 0.0)scale(0.9962640099626402)" xlink:href="#Century_Schoolbook_L_Roman-105"/>
     <use transform="translate(108.88968309756383 0.0)scale(0.9962640099626402)" xlink:href="#Century_Schoolbook_L_Roman-115"/>
     <use transform="translate(155.01549365660026 0.0)scale(0.9962640099626402)" xlink:href="#Century_Schoolbook_L_Roman-116"/>
     <use transform="translate(193.76919985114418 0.0)scale(0.9962640099626402)" xlink:href="#Century_Schoolbook_L_Roman-114"/>
     <use transform="translate(238.0027685486068 0.0)scale(0.9962640099626402)" xlink:href="#Century_Schoolbook_L_Roman-105"/>
     <use transform="translate(269.384081544793 0.0)scale(0.9962640099626402)" xlink:href="#Century_Schoolbook_L_Roman-98"/>
     <use transform="translate(324.7757585081336 0.0)scale(0.9962640099626402)" xlink:href="#Century_Schoolbook_L_Roman-117"/>
     <use transform="translate(385.6473891850872 0.0)scale(0.9962640099626402)" xlink:href="#Century_Schoolbook_L_Roman-116"/>
     <use transform="translate(424.4010953796311 0.0)scale(0.9962640099626402)" xlink:href="#Century_Schoolbook_L_Roman-105"/>
     <use transform="translate(455.7824083758173 0.0)scale(0.9962640099626402)" xlink:href="#Century_Schoolbook_L_Roman-111"/>
     <use transform="translate(505.5956088739493 0.0)scale(0.9962640099626402)" xlink:href="#Century_Schoolbook_L_Roman-110"/>
     <use transform="translate(594.1624091541486 0.0)scale(0.9962640099626402)" xlink:href="#Century_Schoolbook_L_Roman-111"/>
     <use transform="translate(643.9756096522806 0.0)scale(0.9962640099626402)" xlink:href="#Century_Schoolbook_L_Roman-102"/>
     <use transform="translate(704.8460089848616 0.0)scale(0.9962640099626402)" xlink:href="#Century_Schoolbook_L_Roman-68"/>
     <use transform="translate(782.3543790862392 0.0)scale(0.9962640099626402)" xlink:href="#Century_Schoolbook_L_Roman-105"/>
     <use transform="translate(813.7356920824253 0.0)scale(0.9962640099626402)" xlink:href="#Century_Schoolbook_L_Roman-102"/>
     <use transform="translate(846.9109218117607 0.0)scale(0.9962640099626402)" xlink:href="#Century_Schoolbook_L_Roman-102"/>
     <use transform="translate(880.085953917925 0.0)scale(0.9962640099626402)" xlink:href="#Century_Schoolbook_L_Roman-101"/>
     <use transform="translate(929.8991544160571 0.0)scale(0.9962640099626402)" xlink:href="#Century_Schoolbook_L_Roman-114"/>
     <use transform="translate(974.1327231135197 0.0)scale(0.9962640099626402)" xlink:href="#Century_Schoolbook_L_Roman-101"/>
     <use transform="translate(1023.9459236116517 0.0)scale(0.9962640099626402)" xlink:href="#Century_Schoolbook_L_Roman-110"/>
     <use transform="translate(1084.8175542886054 0.0)scale(0.9962640099626402)" xlink:href="#Century_Schoolbook_L_Roman-99"/>
     <use transform="translate(1129.0511229860679 0.0)scale(0.9962640099626402)" xlink:href="#Century_Schoolbook_L_Roman-101"/>
     <use transform="translate(1178.8643234842 0.0)scale(0.9962640099626402)" xlink:href="#Century_Schoolbook_L_Roman-115"/>
     <use transform="translate(1252.685303646482 0.0)scale(0.9962640099626402)" xlink:href="#Century_Schoolbook_L_Roman-105"/>
     <use transform="translate(1284.0666166426684 0.0)scale(0.9962640099626402)" xlink:href="#Century_Schoolbook_L_Roman-110"/>
     <use transform="translate(1372.6334169228676 0.0)scale(0.9962640099626402)" xlink:href="#Century_Schoolbook_L_Roman-65"/>
     <use transform="translate(1444.563401769731 0.0)scale(0.9962640099626402)" xlink:href="#Century_Schoolbook_L_Roman-98"/>
     <use transform="translate(1499.9550787330713 0.0)scale(0.9962640099626402)" xlink:href="#Century_Schoolbook_L_Roman-115"/>
     <use transform="translate(1546.080889292108 0.0)scale(0.9962640099626402)" xlink:href="#Century_Schoolbook_L_Roman-111"/>
     <use transform="translate(1595.8940897902398 0.0)scale(0.9962640099626402)" xlink:href="#Century_Schoolbook_L_Roman-108"/>
     <use transform="translate(1627.275402786426 0.0)scale(0.9962640099626402)" xlink:href="#Century_Schoolbook_L_Roman-117"/>
     <use transform="translate(1688.1470334633798 0.0)scale(0.9962640099626402)" xlink:href="#Century_Schoolbook_L_Roman-116"/>
     <use transform="translate(1726.9007396579236 0.0)scale(0.9962640099626402)" xlink:href="#Century_Schoolbook_L_Roman-101"/>
     <use transform="translate(1804.4091097593011 0.0)scale(0.9962640099626402)" xlink:href="#Century_Schoolbook_L_Roman-69"/>
     <use transform="translate(1876.3390946061645 0.0)scale(0.9962640099626402)" xlink:href="#Century_Schoolbook_L_Roman-114"/>
     <use transform="translate(1920.5726633036272 0.0)scale(0.9962640099626402)" xlink:href="#Century_Schoolbook_L_Roman-114"/>
     <use transform="translate(1964.80623200109 0.0)scale(0.9962640099626402)" xlink:href="#Century_Schoolbook_L_Roman-111"/>
     <use transform="translate(2014.6194324992218 0.0)scale(0.9962640099626402)" xlink:href="#Century_Schoolbook_L_Roman-114"/>
     <use transform="translate(2086.54817079993 0.0)scale(0.9962640099626402)" xlink:href="#Century_Schoolbook_L_Roman-40"/>
     <use transform="translate(2119.7234005292653 0.0)scale(0.9962640099626402)" xlink:href="#CMMI12-78"/>
     <use transform="translate(2235.919181852234 0.0)scale(0.9962640099626402)" xlink:href="#CMR17-61"/>
     <use transform="translate(2335.3079789899207 0.0)scale(0.9962640099626402)" xlink:href="#CMR17-50"/>
     <use transform="translate(2380.998456106982 0.0)scale(0.9962640099626402)" xlink:href="#CMR17-48"/>
     <use transform="translate(2426.688933224043 0.0)scale(0.9962640099626402)" xlink:href="#CMR17-48"/>
     <use transform="translate(2472.3794103411037 0.0)scale(0.9962640099626402)" xlink:href="#CMR17-51"/>
     <use transform="translate(2518.069887458165 0.0)scale(0.9962640099626402)" xlink:href="#Century_Schoolbook_L_Roman-41"/>
    </g>
   </g>
  </g>
 </g>
 <defs>
  <clipPath id="p23a9022ba3">
   <rect height="503.151054347" width="648.900122782" x="50.6610563415" y="28.6047744785"/>
  </clipPath>
 </defs>
</svg>
