<?xml version="1.0" encoding="utf-8" standalone="no"?>
<!DOCTYPE svg PUBLIC "-//W3C//DTD SVG 1.1//EN"
  "http://www.w3.org/Graphics/SVG/1.1/DTD/svg11.dtd">
<!-- Created with matplotlib (http://matplotlib.org/) -->
<svg height="432pt" version="1.1" viewBox="0 0 576 432" width="576pt" xmlns="http://www.w3.org/2000/svg" xmlns:xlink="http://www.w3.org/1999/xlink">
 <defs>
  <style type="text/css">
*{stroke-linecap:butt;stroke-linejoin:round;stroke-miterlimit:100000;}
  </style>
 </defs>
 <g id="figure_1">
  <g id="patch_1">
   <path d="M 0 432 
L 576 432 
L 576 0 
L 0 0 
L 0 432 
z
" style="fill:none;"/>
  </g>
  <g id="axes_1">
   <g id="patch_2">
    <path d="M 72 388.8 
L 518.4 388.8 
L 518.4 43.2 
L 72 43.2 
L 72 388.8 
z
" style="fill:none;"/>
   </g>
   <g id="line2d_1">
    <path clip-path="url(#p2dcabb8f39)" d="M 72 64.359184 
L 72.8928 71.519088 
L 73.7856 80.820844 
L 74.6784 92.701202 
L 75.5712 107.549394 
L 76.464 125.611786 
L 77.8032 158.605353 
L 79.5888 210.56557 
L 81.8208 275.768999 
L 83.16 308.321076 
L 84.0528 326.060823 
L 84.9456 340.601142 
L 85.8384 352.207563 
L 86.7312 361.277768 
L 87.624 368.249253 
L 88.5168 373.539557 
L 89.4096 377.515278 
L 90.3024 380.481308 
L 91.1952 382.682026 
L 92.088 384.308295 
L 92.9808 385.506466 
L 93.8736 386.387283 
L 94.7664 387.033752 
L 96.1056 387.694706 
L 97.4448 388.108819 
L 99.2304 388.430637 
L 101.9088 388.655815 
L 106.3728 388.76996 
L 120.6576 388.799802 
L 518.4 388.8 
L 518.4 388.8 
" style="fill:none;stroke:#0000ff;stroke-linecap:square;"/>
   </g>
   <g id="line2d_2">
    <path clip-path="url(#p2dcabb8f39)" d="M 72 53.725888 
L 73.3392 56.03353 
L 74.6784 58.823498 
L 76.0176 62.185392 
L 77.3568 66.220235 
L 78.696 71.039489 
L 80.0352 76.762675 
L 81.3744 83.513156 
L 82.7136 91.411588 
L 84.0528 100.566741 
L 85.392 111.063686 
L 87.1776 127.221692 
L 88.9632 145.80557 
L 91.1952 172.037059 
L 94.32 212.405488 
L 98.3376 264.258925 
L 100.5696 290.014358 
L 102.3552 308.136042 
L 104.1408 323.808764 
L 105.48 333.949153 
L 106.8192 342.766919 
L 108.1584 350.354589 
L 109.4976 356.825071 
L 110.8368 362.300504 
L 112.176 366.903778 
L 113.5152 370.752634 
L 114.8544 373.955973 
L 116.1936 376.611888 
L 117.5328 378.80696 
L 118.872 380.616404 
L 120.2112 382.104748 
L 121.5504 383.326798 
L 123.336 384.620681 
L 125.1216 385.611553 
L 126.9072 386.369173 
L 129.1392 387.069553 
L 131.8176 387.649959 
L 134.9424 388.086507 
L 138.96 388.414046 
L 144.7632 388.641229 
L 154.584 388.764713 
L 182.2608 388.799491 
L 518.4 388.8 
L 518.4 388.8 
" style="fill:none;stroke:#008000;stroke-linecap:square;"/>
   </g>
   <g id="line2d_3">
    <path clip-path="url(#p2dcabb8f39)" d="M 72 54.152113 
L 72.8928 56.751382 
L 73.7856 59.936684 
L 74.6784 63.824198 
L 75.5712 68.545095 
L 76.464 74.243383 
L 77.3568 81.071306 
L 78.2496 89.181488 
L 79.5888 104.05296 
L 80.928 122.46182 
L 82.2672 144.459238 
L 84.0528 178.637346 
L 89.4096 287.846129 
L 90.7488 309.798658 
L 92.088 328.160795 
L 93.4272 342.988434 
L 94.7664 354.625206 
L 95.6592 360.847213 
L 96.552 366.01928 
L 97.4448 370.290131 
L 98.3376 373.797508 
L 99.2304 376.66494 
L 100.1232 379.000564 
L 101.016 380.897306 
L 101.9088 382.433881 
L 103.248 384.204555 
L 104.5872 385.487542 
L 105.9264 386.414842 
L 107.2656 387.083852 
L 109.0512 387.694443 
L 111.2832 388.162485 
L 113.9616 388.47095 
L 117.9792 388.678073 
L 125.1216 388.779143 
L 151.9056 388.799972 
L 518.4 388.8 
L 518.4 388.8 
" style="fill:none;stroke:#ff0000;stroke-linecap:square;"/>
   </g>
   <g id="line2d_4">
    <path clip-path="url(#p2dcabb8f39)" d="M 72 47.242105 
L 75.5712 48.224395 
L 79.1424 49.441034 
L 82.2672 50.739674 
L 85.392 52.301288 
L 88.0704 53.886783 
L 90.7488 55.738188 
L 93.4272 57.89626 
L 95.6592 59.961658 
L 97.8912 62.300569 
L 100.1232 64.94427 
L 102.3552 67.926173 
L 104.5872 71.281541 
L 106.8192 75.047046 
L 109.0512 79.26013 
L 111.2832 83.958165 
L 113.5152 89.177361 
L 115.7472 94.95143 
L 117.9792 101.31 
L 120.2112 108.276811 
L 122.8896 117.461558 
L 125.568 127.552815 
L 128.2464 138.53356 
L 131.3712 152.405011 
L 134.496 167.294022 
L 138.5136 187.623043 
L 144.7632 220.690026 
L 151.0128 253.416807 
L 155.0304 273.204523 
L 158.1552 287.539999 
L 161.28 300.778032 
L 163.9584 311.177815 
L 166.6368 320.67385 
L 169.3152 329.266257 
L 171.5472 335.751871 
L 173.7792 341.647401 
L 176.0112 346.981386 
L 178.2432 351.786814 
L 180.4752 356.099485 
L 182.7072 359.956624 
L 184.9392 363.395739 
L 187.1712 366.453722 
L 189.4032 369.166178 
L 191.6352 371.566941 
L 193.8672 373.687756 
L 196.5456 375.904533 
L 199.224 377.806953 
L 201.9024 379.436615 
L 204.5808 380.830442 
L 207.7056 382.20168 
L 210.8304 383.340798 
L 214.4016 384.406998 
L 218.4192 385.362184 
L 222.8832 386.183833 
L 227.7936 386.864018 
L 233.5968 387.444567 
L 240.7392 387.926563 
L 249.6672 388.296059 
L 261.72 388.560319 
L 280.4688 388.724617 
L 319.3056 388.79314 
L 518.4 388.8 
L 518.4 388.8 
" style="fill:none;stroke:#00bfbf;stroke-linecap:square;"/>
   </g>
   <g id="line2d_5">
    <path clip-path="url(#p2dcabb8f39)" d="M 72 49.647761 
L 73.7856 50.961719 
L 75.5712 52.53607 
L 77.3568 54.419151 
L 79.1424 56.666838 
L 80.928 59.343094 
L 82.7136 62.520264 
L 84.4992 66.278938 
L 86.2848 70.707199 
L 88.0704 75.898985 
L 89.856 81.951308 
L 91.6416 88.960039 
L 93.4272 97.014087 
L 95.2128 106.187907 
L 96.9984 116.532571 
L 98.784 128.065991 
L 101.016 144.111892 
L 103.248 161.811504 
L 105.9264 184.808094 
L 110.8368 229.425595 
L 114.408 261.104454 
L 117.0864 283.013357 
L 119.3184 299.551664 
L 121.5504 314.307569 
L 123.336 324.777375 
L 125.1216 334.072713 
L 126.9072 342.241626 
L 128.6928 349.356547 
L 130.4784 355.505242 
L 132.264 360.783153 
L 134.0496 365.287395 
L 135.8352 369.112385 
L 137.6208 372.346918 
L 139.4064 375.072424 
L 141.192 377.362131 
L 142.9776 379.280878 
L 144.7632 380.885371 
L 146.5488 382.22471 
L 148.7808 383.589656 
L 151.0128 384.674704 
L 153.6912 385.685512 
L 156.3696 386.45035 
L 159.4944 387.109847 
L 163.0656 387.640885 
L 167.5296 388.077082 
L 173.3328 388.40894 
L 181.368 388.633095 
L 195.2064 388.761513 
L 232.2576 388.799243 
L 518.4 388.8 
L 518.4 388.8 
" style="fill:none;stroke:#bf00bf;stroke-linecap:square;"/>
   </g>
   <g id="line2d_6">
    <path clip-path="url(#p2dcabb8f39)" d="M 72 63.61519 
L 74.232 66.631602 
L 76.464 70.056889 
L 78.696 73.935125 
L 80.928 78.311701 
L 83.16 83.232251 
L 85.392 88.741223 
L 87.624 94.880086 
L 89.856 101.685164 
L 92.088 109.185146 
L 94.32 117.398356 
L 96.9984 128.20182 
L 99.6768 140.017154 
L 102.3552 152.784209 
L 105.48 168.743701 
L 109.4976 190.576613 
L 117.5328 236.061847 
L 121.9968 260.547817 
L 125.568 278.893443 
L 128.6928 293.723948 
L 131.3712 305.398034 
L 134.0496 316.054922 
L 136.728 325.677921 
L 138.96 332.917519 
L 141.192 339.47179 
L 143.424 345.372561 
L 145.656 350.658338 
L 147.888 355.371929 
L 150.12 359.55841 
L 152.352 363.263472 
L 154.584 366.532127 
L 156.816 369.407746 
L 159.048 371.931389 
L 161.28 374.141371 
L 163.512 376.07303 
L 166.1904 378.068853 
L 168.8688 379.760194 
L 171.5472 381.191019 
L 174.672 382.581927 
L 177.7968 383.722399 
L 181.368 384.775003 
L 185.3856 385.70307 
L 189.8496 386.487228 
L 194.76 387.123644 
L 200.5632 387.654732 
L 207.7056 388.083888 
L 217.08 388.413603 
L 230.472 388.640065 
L 252.792 388.76326 
L 314.3952 388.799367 
L 518.4 388.8 
L 518.4 388.8 
" style="fill:none;stroke:#bfbf00;stroke-linecap:square;"/>
   </g>
   <g id="line2d_7">
    <path clip-path="url(#p2dcabb8f39)" d="M 72 71.030161 
L 74.6784 74.552086 
L 77.3568 78.470244 
L 80.0352 82.816334 
L 82.7136 87.621303 
L 85.392 92.914367 
L 88.0704 98.721863 
L 90.7488 105.065927 
L 93.4272 111.963045 
L 96.1056 119.422522 
L 99.2304 128.836252 
L 102.3552 138.999142 
L 105.48 149.873212 
L 109.0512 163.092349 
L 113.0688 178.817321 
L 118.4256 200.783284 
L 131.8176 256.281395 
L 135.8352 271.847184 
L 139.4064 284.891422 
L 142.9776 297.064494 
L 146.1024 306.937565 
L 149.2272 316.05254 
L 151.9056 323.254682 
L 154.584 329.897723 
L 157.2624 335.994439 
L 159.9408 341.56408 
L 162.6192 346.630873 
L 165.2976 351.222623 
L 167.976 355.369469 
L 170.6544 359.102811 
L 173.3328 362.45442 
L 176.0112 365.45572 
L 178.6896 368.13724 
L 181.368 370.528202 
L 184.0464 372.656244 
L 187.1712 374.841064 
L 190.296 376.741023 
L 193.4208 378.390496 
L 196.992 380.008426 
L 200.5632 381.380451 
L 204.5808 382.674387 
L 209.0448 383.853062 
L 213.9552 384.892407 
L 219.312 385.781054 
L 225.1152 386.518735 
L 231.8112 387.149954 
L 239.8464 387.682122 
L 249.6672 388.10589 
L 262.6128 388.429905 
L 280.9152 388.647987 
L 312.1632 388.766749 
L 401.8896 388.799577 
L 518.4 388.799999 
L 518.4 388.799999 
" style="fill:none;stroke:#000000;stroke-linecap:square;"/>
   </g>
   <g id="line2d_8">
    <path clip-path="url(#p2dcabb8f39)" d="M 72 68.715372 
L 97.4448 71.30426 
L 121.9968 74.02708 
L 145.656 76.873739 
L 168.8688 79.892254 
L 191.1888 83.017015 
L 213.0624 86.301311 
L 234.4896 89.741144 
L 255.4704 93.331114 
L 276.4512 97.148043 
L 296.9856 101.109891 
L 317.52 105.300738 
L 337.608 109.626063 
L 357.696 114.177224 
L 377.784 118.955592 
L 397.872 123.961048 
L 417.96 129.19184 
L 438.4944 134.768095 
L 459.4752 140.698915 
L 480.9024 146.990547 
L 502.776 153.645741 
L 518.4 158.534963 
L 518.4 158.534963 
" style="fill:none;stroke:#0000ff;stroke-linecap:square;"/>
   </g>
   <g id="patch_3">
    <path d="M 72 43.2 
L 518.4 43.2 
" style="fill:none;stroke:#000000;stroke-linecap:square;stroke-linejoin:miter;"/>
   </g>
   <g id="patch_4">
    <path d="M 518.4 388.8 
L 518.4 43.2 
" style="fill:none;stroke:#000000;stroke-linecap:square;stroke-linejoin:miter;"/>
   </g>
   <g id="patch_5">
    <path d="M 72 388.8 
L 72 43.2 
" style="fill:none;stroke:#000000;stroke-linecap:square;stroke-linejoin:miter;"/>
   </g>
   <g id="patch_6">
    <path d="M 72 388.8 
L 518.4 388.8 
" style="fill:none;stroke:#000000;stroke-linecap:square;stroke-linejoin:miter;"/>
   </g>
   <g id="matplotlib.axis_1">
    <g id="xtick_1">
     <g id="line2d_9">
      <defs>
       <path d="M 0 0 
L 0 -4 
" id="md223136ec2" style="stroke:#000000;stroke-width:0.5;"/>
      </defs>
      <g>
       <use style="stroke:#000000;stroke-width:0.5;" x="72.0" xlink:href="#md223136ec2" y="388.8"/>
      </g>
     </g>
     <g id="line2d_10">
      <defs>
       <path d="M 0 0 
L 0 4 
" id="m4e7990d6e9" style="stroke:#000000;stroke-width:0.5;"/>
      </defs>
      <g>
       <use style="stroke:#000000;stroke-width:0.5;" x="72.0" xlink:href="#m4e7990d6e9" y="43.2"/>
      </g>
     </g>
     <g id="text_1">
      <!-- $0$ -->
      <defs>
       <path d="M 42 31.640625 
C 42 37.75 41.90625 48.125 37.703125 56.109375 
C 34 63.109375 28.09375 65.59375 22.90625 65.59375 
C 18.09375 65.59375 12 63.40625 8.203125 56.203125 
C 4.203125 48.71875 3.796875 39.4375 3.796875 31.640625 
C 3.796875 25.953125 3.90625 17.28125 7 9.671875 
C 11.296875 -0.609375 19 -2 22.90625 -2 
C 27.5 -2 34.5 -0.109375 38.59375 9.375 
C 41.59375 16.28125 42 24.359375 42 31.640625 
M 22.90625 -0.40625 
C 16.5 -0.40625 12.703125 5.078125 11.296875 12.6875 
C 10.203125 18.5625 10.203125 27.15625 10.203125 32.75 
C 10.203125 40.4375 10.203125 46.828125 11.5 52.921875 
C 13.40625 61.390625 19 64 22.90625 64 
C 27 64 32.296875 61.296875 34.203125 53.125 
C 35.5 47.4375 35.59375 40.734375 35.59375 32.75 
C 35.59375 26.25 35.59375 18.265625 34.40625 12.375 
C 32.296875 1.484375 26.40625 -0.40625 22.90625 -0.40625 
" id="CMR17-48"/>
      </defs>
      <g transform="translate(69.0735048743 401.670650466)scale(0.12 -0.12)">
       <use transform="scale(0.9962640099626402)" xlink:href="#CMR17-48"/>
      </g>
     </g>
    </g>
    <g id="xtick_2">
     <g id="line2d_11">
      <g>
       <use style="stroke:#000000;stroke-width:0.5;" x="183.6" xlink:href="#md223136ec2" y="388.8"/>
      </g>
     </g>
     <g id="line2d_12">
      <g>
       <use style="stroke:#000000;stroke-width:0.5;" x="183.6" xlink:href="#m4e7990d6e9" y="43.2"/>
      </g>
     </g>
     <g id="text_2">
      <!-- $500$ -->
      <defs>
       <path d="M 11.40625 57.6875 
C 12.40625 57.28125 16.5 56 20.703125 56 
C 30 56 35.09375 61.015625 38 63.921875 
C 38 64.734375 38 65.25 37.40625 65.25 
C 37.296875 65.25 37.09375 65.25 36.296875 64.828125 
C 32.796875 63.3125 28.703125 62.078125 23.703125 62.078125 
C 20.703125 62.078125 16.203125 62.5 11.296875 64.734375 
C 10.203125 65.25 10 65.25 9.90625 65.25 
C 9.40625 65.25 9.296875 65.140625 9.296875 63.15625 
L 9.296875 34.28125 
C 9.296875 32.5 9.296875 32 10.296875 32 
C 10.796875 32 11 32.203125 11.5 32.90625 
C 14.703125 37.484375 19.09375 39.40625 24.09375 39.40625 
C 27.59375 39.40625 35.09375 37.21875 35.09375 20.140625 
C 35.09375 16.953125 35.09375 11.171875 32.09375 6.578125 
C 29.59375 2.484375 25.703125 0.390625 21.40625 0.390625 
C 14.796875 0.390625 8.09375 5 6.296875 12.71875 
C 6.703125 12.609375 7.5 12.421875 7.90625 12.421875 
C 9.203125 12.421875 11.703125 13.125 11.703125 16.21875 
C 11.703125 18.90625 9.796875 20 7.90625 20 
C 5.59375 20 4.09375 18.59375 4.09375 15.796875 
C 4.09375 7.09375 11 -2 21.59375 -2 
C 31.90625 -2 41.703125 6.875 41.703125 19.75 
C 41.703125 31.71875 33.90625 41 24.203125 41 
C 19.09375 41 14.796875 39.09375 11.40625 35.453125 
z
" id="CMR17-53"/>
      </defs>
      <g transform="translate(174.820514623 401.670650466)scale(0.12 -0.12)">
       <use transform="scale(0.9962640099626402)" xlink:href="#CMR17-53"/>
       <use transform="translate(45.69047711706103 0.0)scale(0.9962640099626402)" xlink:href="#CMR17-48"/>
       <use transform="translate(91.38095423412206 0.0)scale(0.9962640099626402)" xlink:href="#CMR17-48"/>
      </g>
     </g>
    </g>
    <g id="xtick_3">
     <g id="line2d_13">
      <g>
       <use style="stroke:#000000;stroke-width:0.5;" x="295.2" xlink:href="#md223136ec2" y="388.8"/>
      </g>
     </g>
     <g id="line2d_14">
      <g>
       <use style="stroke:#000000;stroke-width:0.5;" x="295.2" xlink:href="#m4e7990d6e9" y="43.2"/>
      </g>
     </g>
     <g id="text_3">
      <!-- $1000$ -->
      <defs>
       <path d="M 26.59375 63.3125 
C 26.59375 65.40625 26.5 65.5 25.09375 65.5 
C 21.203125 61.1875 15.296875 59.796875 9.703125 59.796875 
C 9.40625 59.796875 8.90625 59.796875 8.796875 59.5 
C 8.703125 59.296875 8.703125 59.09375 8.703125 57 
C 11.796875 57 17 57.59375 21 59.984375 
L 21 7.203125 
C 21 3.6875 20.796875 2.5 12.203125 2.5 
L 9.203125 2.5 
L 9.203125 0 
C 14 0 19 0 23.796875 0 
C 28.59375 0 33.59375 0 38.40625 0 
L 38.40625 2.5 
L 35.40625 2.5 
C 26.796875 2.5 26.59375 3.59375 26.59375 7.15625 
z
" id="CMR17-49"/>
      </defs>
      <g transform="translate(283.494019497 401.670650466)scale(0.12 -0.12)">
       <use transform="scale(0.9962640099626402)" xlink:href="#CMR17-49"/>
       <use transform="translate(45.69047711706103 0.0)scale(0.9962640099626402)" xlink:href="#CMR17-48"/>
       <use transform="translate(91.38095423412206 0.0)scale(0.9962640099626402)" xlink:href="#CMR17-48"/>
       <use transform="translate(137.07143135118307 0.0)scale(0.9962640099626402)" xlink:href="#CMR17-48"/>
      </g>
     </g>
    </g>
    <g id="xtick_4">
     <g id="line2d_15">
      <g>
       <use style="stroke:#000000;stroke-width:0.5;" x="406.8" xlink:href="#md223136ec2" y="388.8"/>
      </g>
     </g>
     <g id="line2d_16">
      <g>
       <use style="stroke:#000000;stroke-width:0.5;" x="406.8" xlink:href="#m4e7990d6e9" y="43.2"/>
      </g>
     </g>
     <g id="text_4">
      <!-- $1500$ -->
      <g transform="translate(395.094019497 401.670650466)scale(0.12 -0.12)">
       <use transform="scale(0.9962640099626402)" xlink:href="#CMR17-49"/>
       <use transform="translate(45.69047711706103 0.0)scale(0.9962640099626402)" xlink:href="#CMR17-53"/>
       <use transform="translate(91.38095423412206 0.0)scale(0.9962640099626402)" xlink:href="#CMR17-48"/>
       <use transform="translate(137.07143135118307 0.0)scale(0.9962640099626402)" xlink:href="#CMR17-48"/>
      </g>
     </g>
    </g>
    <g id="xtick_5">
     <g id="line2d_17">
      <g>
       <use style="stroke:#000000;stroke-width:0.5;" x="518.4" xlink:href="#md223136ec2" y="388.8"/>
      </g>
     </g>
     <g id="line2d_18">
      <g>
       <use style="stroke:#000000;stroke-width:0.5;" x="518.4" xlink:href="#m4e7990d6e9" y="43.2"/>
      </g>
     </g>
     <g id="text_5">
      <!-- $2000$ -->
      <defs>
       <path d="M 41.703125 15.453125 
L 39.90625 15.453125 
C 38.90625 8.375 38.09375 7.171875 37.703125 6.5625 
C 37.203125 5.765625 30 5.765625 28.59375 5.765625 
L 9.40625 5.765625 
C 13 9.671875 20 16.75 28.5 24.953125 
C 34.59375 30.734375 41.703125 37.53125 41.703125 47.421875 
C 41.703125 59.21875 32.296875 66 21.796875 66 
C 10.796875 66 4.09375 56.3125 4.09375 47.34375 
C 4.09375 43.4375 7 42.9375 8.203125 42.9375 
C 9.203125 42.9375 12.203125 43.546875 12.203125 47.03125 
C 12.203125 50.109375 9.59375 51 8.203125 51 
C 7.59375 51 7 50.90625 6.59375 50.703125 
C 8.5 59.21875 14.296875 63.40625 20.40625 63.40625 
C 29.09375 63.40625 34.796875 56.515625 34.796875 47.421875 
C 34.796875 38.734375 29.703125 31.25 24 24.75 
L 4.09375 2.28125 
L 4.09375 0 
L 39.296875 0 
z
" id="CMR17-50"/>
      </defs>
      <g transform="translate(506.694019497 401.670650466)scale(0.12 -0.12)">
       <use transform="scale(0.9962640099626402)" xlink:href="#CMR17-50"/>
       <use transform="translate(45.69047711706103 0.0)scale(0.9962640099626402)" xlink:href="#CMR17-48"/>
       <use transform="translate(91.38095423412206 0.0)scale(0.9962640099626402)" xlink:href="#CMR17-48"/>
       <use transform="translate(137.07143135118307 0.0)scale(0.9962640099626402)" xlink:href="#CMR17-48"/>
      </g>
     </g>
    </g>
    <g id="text_6">
     <!-- Search Duration (hours) -->
     <defs>
      <path d="M 5.40625 -12.28125 
C 11.40625 -8.578125 14.59375 -5.984375 18 -1.890625 
C 25.59375 6.984375 29.703125 18.5625 29.703125 30.640625 
C 29.703125 42.015625 26.09375 52.703125 19.40625 61.484375 
C 15.59375 66.375 12.203125 69.359375 5.40625 73.453125 
L 5.40625 69.765625 
C 15.40625 60.984375 19.40625 49.796875 19.40625 30.640625 
C 19.40625 11.375 15.40625 0.203125 5.40625 -8.578125 
z
" id="Century_Schoolbook_L_Roman-41"/>
      <path d="M 27.90625 73.453125 
C 21.90625 69.765625 18.703125 67.171875 15.296875 63.171875 
C 7.703125 54.1875 3.59375 42.71875 3.59375 30.640625 
C 3.59375 19.265625 7.203125 8.578125 13.90625 -0.296875 
C 17.703125 -5.09375 21.09375 -8.078125 27.90625 -12.28125 
L 27.90625 -8.578125 
C 17.90625 0.203125 13.90625 11.484375 13.90625 30.640625 
C 13.90625 49.796875 17.90625 60.984375 27.90625 69.765625 
z
" id="Century_Schoolbook_L_Roman-40"/>
      <path d="M 38.703125 15.109375 
C 35.5 7.96875 32.09375 5.09375 26.90625 5.09375 
C 18.90625 5.09375 13.90625 12.328125 13.90625 23.9375 
C 13.90625 35.953125 18.796875 44 26.203125 44 
C 29.203125 44 31.796875 42.59375 31.796875 41.015625 
C 31.796875 40.71875 31.59375 40.421875 31.203125 39.8125 
C 29.59375 37.9375 29.203125 36.9375 29.203125 35.265625 
C 29.203125 31.984375 31.703125 29.703125 35.203125 29.703125 
C 38.703125 29.703125 41.296875 32.484375 41.296875 36.453125 
C 41.296875 43.109375 34.59375 48.28125 25.703125 48.28125 
C 12.703125 48.28125 3.40625 37.65625 3.40625 22.84375 
C 3.40625 8.734375 11.90625 -1 24.296875 -1 
C 33.203125 -1 38.296875 3.078125 42.59375 13.625 
z
" id="Century_Schoolbook_L_Roman-99"/>
      <path d="M 19.796875 46 
L 2.09375 46 
L 2.09375 41.21875 
L 6.203125 41.21875 
C 9.90625 41.21875 10.5 40.515625 10.5 36.203125 
L 10.5 12.296875 
L 10.5 8.296875 
C 10.5 4.296875 9.40625 3.59375 2.90625 3.59375 
L 2.5 3.59375 
L 2.5 0 
L 29.203125 0 
L 29.203125 3.59375 
L 27.296875 3.59375 
C 20.90625 3.59375 19.796875 4.296875 19.796875 8.296875 
L 19.796875 12.296875 
L 19.796875 13.296875 
C 19.796875 20.8125 21.203125 28.40625 23.703125 34.109375 
C 26.09375 39.703125 29.5 42.8125 33.703125 43.3125 
C 32.296875 41.703125 31.90625 40.6875 31.90625 38.765625 
C 31.90625 35.546875 34.203125 33.234375 37.40625 33.234375 
C 41 33.234375 43.5 35.9375 43.5 40.015625 
C 43.5 44.8125 40.09375 48 34.796875 48 
C 28.5 48 23 42.921875 19.796875 34.140625 
z
" id="Century_Schoolbook_L_Roman-114"/>
      <path d="M 39 48 
L 35.5 48 
L 32.59375 44.40625 
C 29 47.203125 25.40625 48.390625 20.40625 48.390625 
C 11.59375 48.390625 5.796875 42.625 5.796875 33.953125 
C 5.796875 30.078125 7.09375 26.78125 9.296875 24.8125 
C 11.59375 22.703125 13.90625 21.71875 19.90625 20.3125 
L 25.203125 19.125 
C 33.09375 17.234375 35.90625 15.234375 35.90625 11.265625 
C 35.90625 6.578125 31.796875 3.296875 25.90625 3.296875 
C 17.5 3.296875 11.5 8.765625 9.09375 18.875 
L 5.09375 18.875 
L 5.09375 0 
L 8.59375 0 
L 12.09375 3.90625 
C 16.203125 0.59375 20.796875 -1 25.796875 -1 
C 35.59375 -1 42.09375 5.078125 42.09375 14.34375 
C 42.09375 18.71875 40.703125 22.09375 37.90625 24.390625 
C 35.5 26.484375 33.5 27.28125 27.40625 28.5625 
L 22.40625 29.671875 
C 16.90625 30.859375 16.90625 30.859375 15.09375 31.859375 
C 12.90625 32.859375 11.59375 34.9375 11.59375 37.140625 
C 11.59375 41.109375 15.40625 44 20.90625 44 
C 24.703125 44 27.796875 42.703125 30.59375 40.015625 
C 32.796875 37.8125 33.90625 35.828125 35.5 31.234375 
L 39 31.234375 
z
" id="Century_Schoolbook_L_Roman-115"/>
      <path d="M 20.59375 46 
L 1.796875 46 
L 1.796875 41.21875 
L 6.90625 41.21875 
C 10.59375 41.21875 11.203125 40.515625 11.203125 36.203125 
L 11.203125 12.296875 
L 11.203125 8.296875 
C 11.203125 4.296875 10.09375 3.59375 3.703125 3.59375 
L 3 3.59375 
L 3 0 
L 28.90625 0 
L 28.90625 3.59375 
L 28.203125 3.59375 
C 21.703125 3.59375 20.59375 4.28125 20.59375 8.21875 
L 20.59375 12.171875 
z
M 15.90625 71.578125 
C 12.703125 71.578125 10.09375 68.984375 10.09375 65.796875 
C 10.09375 62.703125 12.703125 60 15.796875 60 
C 19.09375 60 21.703125 62.59375 21.703125 65.796875 
C 21.703125 68.984375 19.09375 71.578125 15.90625 71.578125 
" id="Century_Schoolbook_L_Roman-105"/>
      <path d="M 41.203125 0 
L 59.40625 0 
L 59.40625 4.703125 
L 56.90625 4.703125 
C 51.40625 4.703125 50.59375 5.59375 50.59375 11.953125 
L 50.59375 46.78125 
L 31.796875 46.78125 
L 31.796875 42 
L 36.90625 42 
C 40.59375 42 41.203125 41.296875 41.203125 36.953125 
L 41.203125 24.5625 
C 41.203125 18.8125 40.59375 15.484375 39.09375 12.15625 
C 37 7.71875 33 5.09375 28.09375 5.09375 
C 25 5.09375 22.40625 6.1875 21.09375 8.171875 
C 19.796875 10.046875 19.59375 11.046875 19.59375 16.5 
L 19.59375 46.78125 
L 2.09375 46.78125 
L 2.09375 42 
L 5.90625 42 
C 9.59375 42 10.203125 41.296875 10.203125 36.953125 
L 10.203125 15.21875 
C 10.203125 10.078125 10.59375 7.765625 12.09375 5.453125 
C 14.796875 1.3125 19.59375 -1 25.59375 -1 
C 32.203125 -1 36.796875 1.71875 41.203125 8.125 
z
" id="Century_Schoolbook_L_Roman-117"/>
      <path d="M 20 46 
L 2.703125 46 
L 2.703125 41.21875 
L 6.296875 41.21875 
C 10 41.21875 10.59375 40.515625 10.59375 36.203125 
L 10.59375 12.296875 
L 10.59375 8.296875 
C 10.59375 4.296875 9.5 3.59375 3.09375 3.59375 
L 2.703125 3.59375 
L 2.703125 0 
L 28 0 
L 28 3.59375 
L 27.59375 3.59375 
C 21.09375 3.59375 20 4.296875 20 8.28125 
L 20 12.28125 
L 20 22.65625 
C 20 27.546875 20.703125 32.03125 21.796875 34.328125 
C 23.90625 38.828125 28.40625 41.921875 32.703125 41.921875 
C 35.296875 41.921875 38.296875 40.421875 39.796875 38.421875 
C 41.296875 36.328125 42 33.234375 42 28.4375 
L 42 12.28125 
L 42 8.28125 
C 42 4.296875 40.90625 3.59375 34.40625 3.59375 
L 34 3.59375 
L 34 0 
L 59.296875 0 
L 59.296875 3.59375 
L 58.90625 3.59375 
C 52.5 3.59375 51.40625 4.296875 51.40625 8.28125 
L 51.40625 12.28125 
L 51.40625 27.953125 
C 51.40625 35.125 51.09375 36.921875 49.296875 40.328125 
C 46.796875 45.109375 41.703125 48 35.796875 48 
C 29.40625 48 24.40625 45.046875 20 38.515625 
z
" id="Century_Schoolbook_L_Roman-110"/>
      <path d="M 25.203125 48.28125 
C 13 48.28125 3.40625 37.453125 3.40625 23.546875 
C 3.40625 9.9375 13 -1 25 -1 
C 37 -1 46.59375 9.9375 46.59375 23.640625 
C 46.59375 37.25 37 48.28125 25.203125 48.28125 
M 25.203125 44 
C 32.203125 44 36.09375 36.734375 36.09375 23.640625 
C 36.09375 10.453125 32.203125 3.296875 25 3.296875 
C 17.796875 3.296875 13.90625 10.453125 13.90625 23.546875 
C 13.90625 37.046875 17.703125 44 25.203125 44 
" id="Century_Schoolbook_L_Roman-111"/>
      <path d="M 54.59375 72 
L 50.90625 72 
L 46.90625 66.09375 
C 42.203125 70.59375 35.796875 73 28.703125 73 
C 15.59375 73 6.796875 64.609375 6.796875 52.15625 
C 6.796875 41.28125 12.203125 35.890625 26.90625 32.109375 
L 36.40625 29.703125 
C 43.796875 27.828125 44.5 27.625 46.59375 26.03125 
C 49.59375 23.734375 51.203125 20.4375 51.203125 16.546875 
C 51.203125 12.5625 49.703125 9.28125 46.703125 6.59375 
C 43.40625 3.6875 40.09375 2.59375 34.59375 2.59375 
C 27.203125 2.59375 21.90625 4.875 17.203125 10.03125 
C 13 14.703125 10.90625 19.375 9.40625 27 
L 5.09375 27 
L 5.5 -1.4375 
L 9.40625 -1.4375 
L 13.90625 5.46875 
C 20.59375 0 26.203125 -2 34.90625 -2 
C 49.59375 -2 59 6.59375 59 19.9375 
C 59 26.109375 56.90625 31.40625 53 35.203125 
C 50.296875 37.796875 46.40625 39.484375 38.40625 41.484375 
L 27.703125 44.171875 
C 18.796875 46.46875 14.59375 50.359375 14.59375 56.4375 
C 14.59375 63.40625 20.296875 68.203125 28.796875 68.203125 
C 35.796875 68.203125 41.5 65.1875 45.5 59.484375 
C 48.40625 55.375 50.203125 51.15625 51.5 46.046875 
L 55.796875 46.046875 
z
" id="Century_Schoolbook_L_Roman-83"/>
      <path d="M 45.203125 32.578125 
C 45.203125 38.796875 44.09375 41.96875 41.203125 44.34375 
C 37.90625 46.90625 33 48.28125 26.59375 48.28125 
C 15.40625 48.28125 7.09375 43.046875 7.09375 35.921875 
C 7.09375 32.15625 9.40625 29.78125 12.90625 29.78125 
C 16 29.78125 18.296875 31.859375 18.296875 34.8125 
C 18.296875 36.109375 17.796875 37.484375 16.796875 38.875 
C 16.203125 39.546875 16.09375 39.84375 16.09375 40.15625 
C 16.09375 42.21875 20.203125 44 25 44 
C 28.09375 44 31.59375 43.015625 33.203125 41.53125 
C 35.09375 39.953125 35.796875 37.578125 35.796875 33.125 
L 35.796875 29.28125 
C 25.296875 27.484375 22.09375 26.6875 17.203125 24.8125 
C 8.59375 21.609375 4.40625 16.9375 4.40625 10.65625 
C 4.40625 3.578125 10.09375 -1 18.90625 -1 
C 25.796875 -1 32 1.859375 36.296875 7.0625 
C 37.90625 1.984375 40.40625 0 45.09375 0 
C 49.59375 0 54.296875 2.90625 54.296875 5.78125 
C 54.296875 6.46875 53.796875 6.96875 53.296875 6.96875 
C 52.90625 6.96875 52.5 6.875 51.796875 6.578125 
C 50.203125 6 49.796875 5.890625 49 5.890625 
C 46.203125 5.890625 45.203125 7.78125 45.203125 12.71875 
z
M 35.796875 20.46875 
C 35.796875 14.46875 35.5 13.078125 33.796875 10.484375 
C 31.296875 6.78125 26.703125 4.296875 22.40625 4.296875 
C 17.90625 4.296875 14.5 7.59375 14.5 12.078125 
C 14.5 16.265625 16.59375 19.265625 21 21.359375 
C 24.09375 22.75 28 23.75 35.796875 25.046875 
z
" id="Century_Schoolbook_L_Roman-97"/>
      <path d="M 20 73 
L 1.5 73 
L 1.5 68.21875 
L 6.296875 68.21875 
C 10 68.21875 10.59375 67.515625 10.59375 63.21875 
L 10.59375 12.28125 
L 10.59375 8.28125 
C 10.59375 4.296875 9.5 3.59375 3.09375 3.59375 
L 2.703125 3.59375 
L 2.703125 0 
L 28 0 
L 28 3.59375 
L 27.59375 3.59375 
C 21.09375 3.59375 20 4.296875 20 8.28125 
L 20 12.28125 
L 20 22.5625 
C 20 27.546875 20.703125 32.03125 21.796875 34.328125 
C 23.90625 38.828125 28.40625 41.921875 32.703125 41.921875 
C 35.296875 41.921875 38.296875 40.421875 39.796875 38.421875 
C 41.296875 36.234375 42 33.234375 42 28.34375 
L 42 12.28125 
L 42 8.28125 
C 42 4.296875 40.90625 3.59375 34.40625 3.59375 
L 34 3.59375 
L 34 0 
L 59.296875 0 
L 59.296875 3.59375 
L 58.90625 3.59375 
C 52.5 3.59375 51.40625 4.296875 51.40625 8.28125 
L 51.40625 12.28125 
L 51.40625 27.953125 
C 51.40625 35.125 51.09375 36.921875 49.296875 40.328125 
C 46.796875 45.109375 41.796875 48 35.796875 48 
C 29.40625 48 24.5 45.015625 20 38.328125 
z
" id="Century_Schoolbook_L_Roman-104"/>
      <path d="M 46.5 23 
C 46.59375 37.8125 38.09375 48.28125 25.90625 48.28125 
C 13.09375 48.28125 3.5 37.25 3.5 22.34375 
C 3.5 8.4375 12.59375 -1 26.09375 -1 
C 35.59375 -1 42.40625 3.6875 46.5 13.1875 
L 43 15.09375 
C 38.90625 7.390625 34.703125 4.390625 28 4.390625 
C 22.90625 4.390625 19.203125 6.59375 16.59375 11 
C 14.796875 14 14 17.5 14.09375 23 
z
M 14.203125 27.296875 
C 14.203125 30.34375 14.59375 32.5 15.59375 35.25 
C 17.703125 41.140625 20.90625 44 25.703125 44 
C 31.796875 44 35.796875 38.78125 35.796875 30.921875 
C 35.796875 28.078125 34.90625 27.296875 31.703125 27.296875 
z
" id="Century_Schoolbook_L_Roman-101"/>
      <path d="M 13.703125 12.28125 
L 13.703125 9.375 
C 13.703125 5.1875 12.796875 4.6875 4.796875 4.6875 
L 2.90625 4.6875 
L 2.90625 0 
L 36.5 0 
C 45.40625 0 52.203125 1.390625 57.5 4.390625 
C 67.59375 10.0625 73.203125 21.4375 73.203125 36.390625 
C 73.203125 50.0625 68.203125 60.9375 59 66.90625 
C 53.5 70.40625 46.09375 72 34.703125 72 
L 2.90625 72 
L 2.90625 67.3125 
L 4.796875 67.3125 
C 12.796875 67.3125 13.703125 66.8125 13.703125 62.609375 
L 13.703125 59.71875 
z
M 30.59375 4.6875 
C 25.59375 4.6875 24.90625 5.296875 24.90625 10.1875 
L 24.90625 61.71875 
C 24.90625 66.609375 25.59375 67.3125 30.59375 67.3125 
L 35.796875 67.3125 
C 52.90625 67.3125 60 58.046875 60 36 
C 60 13.65625 53.5 4.6875 37.40625 4.6875 
z
" id="Century_Schoolbook_L_Roman-68"/>
      <path d="M 19.40625 47 
L 19.40625 67 
L 15.296875 67 
C 14.296875 53.875 9.90625 47.1875 1.796875 46.59375 
L 1.796875 42.703125 
L 10 42.703125 
L 10 17.265625 
C 10 10.28125 10.203125 7.78125 11.203125 5.484375 
C 12.796875 1.296875 16.796875 -1 22.59375 -1 
C 26.5 -1 29.90625 0.203125 32.203125 2.390625 
C 35.5 5.59375 37.40625 10.875 37.40625 16.375 
C 37.40625 16.96875 37.40625 17.671875 37.296875 18.671875 
L 33.09375 18.671875 
C 32.796875 9.6875 30.203125 5.09375 25.296875 5.09375 
C 23 5.09375 21 6.28125 20.296875 7.984375 
C 19.703125 9.375 19.40625 11.875 19.40625 15.46875 
L 19.40625 42.703125 
L 34.09375 42.703125 
L 34.09375 47 
z
" id="Century_Schoolbook_L_Roman-116"/>
     </defs>
     <g transform="translate(228.054502525 417.812736053)scale(0.12 -0.12)">
      <use transform="scale(0.9962640099626402)" xlink:href="#Century_Schoolbook_L_Roman-83"/>
      <use transform="translate(62.763978951004056 0.0)scale(0.9962640099626402)" xlink:href="#Century_Schoolbook_L_Roman-101"/>
      <use transform="translate(112.57717944913607 0.0)scale(0.9962640099626402)" xlink:href="#Century_Schoolbook_L_Roman-97"/>
      <use transform="translate(167.96885641247667 0.0)scale(0.9962640099626402)" xlink:href="#Century_Schoolbook_L_Roman-114"/>
      <use transform="translate(212.2024251099393 0.0)scale(0.9962640099626402)" xlink:href="#Century_Schoolbook_L_Roman-99"/>
      <use transform="translate(255.73908329603833 0.0)scale(0.9962640099626402)" xlink:href="#Century_Schoolbook_L_Roman-104"/>
      <use transform="translate(344.3058835762376 0.0)scale(0.9962640099626402)" xlink:href="#Century_Schoolbook_L_Roman-68"/>
      <use transform="translate(421.8142536776152 0.0)scale(0.9962640099626402)" xlink:href="#Century_Schoolbook_L_Roman-117"/>
      <use transform="translate(482.6858843545688 0.0)scale(0.9962640099626402)" xlink:href="#Century_Schoolbook_L_Roman-114"/>
      <use transform="translate(526.9194530520315 0.0)scale(0.9962640099626402)" xlink:href="#Century_Schoolbook_L_Roman-97"/>
      <use transform="translate(582.3111300153721 0.0)scale(0.9962640099626402)" xlink:href="#Century_Schoolbook_L_Roman-116"/>
      <use transform="translate(621.064836209916 0.0)scale(0.9962640099626402)" xlink:href="#Century_Schoolbook_L_Roman-105"/>
      <use transform="translate(652.4461492061022 0.0)scale(0.9962640099626402)" xlink:href="#Century_Schoolbook_L_Roman-111"/>
      <use transform="translate(702.2593497042342 0.0)scale(0.9962640099626402)" xlink:href="#Century_Schoolbook_L_Roman-110"/>
      <use transform="translate(790.8261499844334 0.0)scale(0.9962640099626402)" xlink:href="#Century_Schoolbook_L_Roman-40"/>
      <use transform="translate(824.0013797137688 0.0)scale(0.9962640099626402)" xlink:href="#Century_Schoolbook_L_Roman-104"/>
      <use transform="translate(884.8730103907224 0.0)scale(0.9962640099626402)" xlink:href="#Century_Schoolbook_L_Roman-111"/>
      <use transform="translate(934.6862108888544 0.0)scale(0.9962640099626402)" xlink:href="#Century_Schoolbook_L_Roman-117"/>
      <use transform="translate(995.557841565808 0.0)scale(0.9962640099626402)" xlink:href="#Century_Schoolbook_L_Roman-114"/>
      <use transform="translate(1039.7914102632706 0.0)scale(0.9962640099626402)" xlink:href="#Century_Schoolbook_L_Roman-115"/>
      <use transform="translate(1085.9172208223072 0.0)scale(0.9962640099626402)" xlink:href="#Century_Schoolbook_L_Roman-41"/>
     </g>
    </g>
   </g>
   <g id="matplotlib.axis_2">
    <g id="ytick_1">
     <g id="line2d_19">
      <defs>
       <path d="M 0 0 
L 4 0 
" id="m771086e968" style="stroke:#000000;stroke-width:0.5;"/>
      </defs>
      <g>
       <use style="stroke:#000000;stroke-width:0.5;" x="72.0" xlink:href="#m771086e968" y="388.8"/>
      </g>
     </g>
     <g id="line2d_20">
      <defs>
       <path d="M 0 0 
L -4 0 
" id="m34554317bc" style="stroke:#000000;stroke-width:0.5;"/>
      </defs>
      <g>
       <use style="stroke:#000000;stroke-width:0.5;" x="518.4" xlink:href="#m34554317bc" y="388.8"/>
      </g>
     </g>
     <g id="text_7">
      <!-- $0.0$ -->
      <defs>
       <path d="M 18.40625 4.796875 
C 18.40625 7.6875 16 9.671875 13.59375 9.671875 
C 10.703125 9.671875 8.703125 7.28125 8.703125 4.890625 
C 8.703125 2 11.09375 0 13.5 0 
C 16.40625 0 18.40625 2.390625 18.40625 4.796875 
" id="CMMI12-58"/>
      </defs>
      <g transform="translate(53.0423582464 392.099607672)scale(0.12 -0.12)">
       <use transform="scale(0.9962640099626402)" xlink:href="#CMR17-48"/>
       <use transform="translate(45.69047711706103 0.0)scale(0.9962640099626402)" xlink:href="#CMMI12-58"/>
       <use transform="translate(72.78765420688046 0.0)scale(0.9962640099626402)" xlink:href="#CMR17-48"/>
      </g>
     </g>
    </g>
    <g id="ytick_2">
     <g id="line2d_21">
      <g>
       <use style="stroke:#000000;stroke-width:0.5;" x="72.0" xlink:href="#m771086e968" y="319.68"/>
      </g>
     </g>
     <g id="line2d_22">
      <g>
       <use style="stroke:#000000;stroke-width:0.5;" x="518.4" xlink:href="#m34554317bc" y="319.68"/>
      </g>
     </g>
     <g id="text_8">
      <!-- $0.2$ -->
      <g transform="translate(53.0423582464 322.979607672)scale(0.12 -0.12)">
       <use transform="scale(0.9962640099626402)" xlink:href="#CMR17-48"/>
       <use transform="translate(45.69047711706103 0.0)scale(0.9962640099626402)" xlink:href="#CMMI12-58"/>
       <use transform="translate(72.78765420688046 0.0)scale(0.9962640099626402)" xlink:href="#CMR17-50"/>
      </g>
     </g>
    </g>
    <g id="ytick_3">
     <g id="line2d_23">
      <g>
       <use style="stroke:#000000;stroke-width:0.5;" x="72.0" xlink:href="#m771086e968" y="250.56"/>
      </g>
     </g>
     <g id="line2d_24">
      <g>
       <use style="stroke:#000000;stroke-width:0.5;" x="518.4" xlink:href="#m34554317bc" y="250.56"/>
      </g>
     </g>
     <g id="text_9">
      <!-- $0.4$ -->
      <defs>
       <path d="M 33.59375 64.328125 
C 33.59375 66.40625 33.5 66.5 31.703125 66.5 
L 2 19.59375 
L 2 17 
L 27.796875 17 
L 27.796875 7.140625 
C 27.796875 3.5 27.59375 2.5 20.59375 2.5 
L 18.703125 2.5 
L 18.703125 0 
C 21.90625 0 27.296875 0 30.703125 0 
C 34.09375 0 39.5 0 42.703125 0 
L 42.703125 2.5 
L 40.796875 2.5 
C 33.796875 2.5 33.59375 3.5 33.59375 7.140625 
L 33.59375 17 
L 43.796875 17 
L 43.796875 19.59375 
L 33.59375 19.59375 
z
M 28.09375 57.765625 
L 28.09375 19.59375 
L 4 19.59375 
z
" id="CMR17-52"/>
      </defs>
      <g transform="translate(53.0423582464 253.859607672)scale(0.12 -0.12)">
       <use transform="scale(0.9962640099626402)" xlink:href="#CMR17-48"/>
       <use transform="translate(45.69047711706103 0.0)scale(0.9962640099626402)" xlink:href="#CMMI12-58"/>
       <use transform="translate(72.78765420688046 0.0)scale(0.9962640099626402)" xlink:href="#CMR17-52"/>
      </g>
     </g>
    </g>
    <g id="ytick_4">
     <g id="line2d_25">
      <g>
       <use style="stroke:#000000;stroke-width:0.5;" x="72.0" xlink:href="#m771086e968" y="181.44"/>
      </g>
     </g>
     <g id="line2d_26">
      <g>
       <use style="stroke:#000000;stroke-width:0.5;" x="518.4" xlink:href="#m34554317bc" y="181.44"/>
      </g>
     </g>
     <g id="text_10">
      <!-- $0.6$ -->
      <defs>
       <path d="M 10.59375 34 
C 10.59375 57.65625 21.796875 63 28.296875 63 
C 30.40625 63 35.5 62.640625 37.5 59 
C 35.90625 59 32.90625 59 32.90625 55.515625 
C 32.90625 52.828125 35.09375 51.921875 36.5 51.921875 
C 37.40625 51.921875 40.09375 52.3125 40.09375 55.625 
C 40.09375 61.78125 35.09375 65.296875 28.203125 65.296875 
C 16.296875 65.296875 3.796875 52.96875 3.796875 31 
C 3.796875 3.953125 15.09375 -2 23.09375 -2 
C 32.796875 -2 42 6.671875 42 20.046875 
C 42 32.515625 33.90625 41.59375 23.703125 41.59375 
C 17.59375 41.59375 13.09375 37.609375 10.59375 30.625 
z
M 23.09375 0.390625 
C 10.796875 0.390625 10.796875 18.75 10.796875 22.4375 
C 10.796875 29.625 14.203125 40 23.5 40 
C 25.203125 40 30.09375 40 33.40625 33.125 
C 35.203125 29.21875 35.203125 25.140625 35.203125 20.140625 
C 35.203125 14.75 35.203125 10.78125 33.09375 6.78125 
C 30.90625 2.671875 27.703125 0.390625 23.09375 0.390625 
" id="CMR17-54"/>
      </defs>
      <g transform="translate(53.0423582464 184.739607672)scale(0.12 -0.12)">
       <use transform="scale(0.9962640099626402)" xlink:href="#CMR17-48"/>
       <use transform="translate(45.69047711706103 0.0)scale(0.9962640099626402)" xlink:href="#CMMI12-58"/>
       <use transform="translate(72.78765420688046 0.0)scale(0.9962640099626402)" xlink:href="#CMR17-54"/>
      </g>
     </g>
    </g>
    <g id="ytick_5">
     <g id="line2d_27">
      <g>
       <use style="stroke:#000000;stroke-width:0.5;" x="72.0" xlink:href="#m771086e968" y="112.32"/>
      </g>
     </g>
     <g id="line2d_28">
      <g>
       <use style="stroke:#000000;stroke-width:0.5;" x="518.4" xlink:href="#m34554317bc" y="112.32"/>
      </g>
     </g>
     <g id="text_11">
      <!-- $0.8$ -->
      <defs>
       <path d="M 27.203125 35.375 
C 33.5 38.5625 39.90625 43.328125 39.90625 50.984375 
C 39.90625 60.03125 31.09375 65.296875 23 65.296875 
C 13.90625 65.296875 5.90625 58.734375 5.90625 49.6875 
C 5.90625 47.203125 6.5 42.921875 10.40625 39.140625 
C 11.40625 38.15625 15.59375 35.171875 18.296875 33.28125 
C 13.796875 30.984375 3.296875 25.53125 3.296875 14.59375 
C 3.296875 4.359375 13.09375 -2 22.796875 -2 
C 33.5 -2 42.5 5.65625 42.5 15.796875 
C 42.5 24.84375 36.40625 29.03125 32.40625 31.703125 
z
M 14.09375 44.125 
C 13.296875 44.625 9.296875 47.703125 9.296875 52.375 
C 9.296875 58.4375 15.59375 63 22.796875 63 
C 30.703125 63 36.5 57.453125 36.5 50.984375 
C 36.5 41.734375 26.09375 36.46875 25.59375 36.46875 
C 25.5 36.46875 25.40625 36.46875 24.59375 37.078125 
z
M 32.5 23.734375 
C 34 22.640625 38.796875 19.375 38.796875 13.296875 
C 38.796875 5.953125 31.40625 0.390625 23 0.390625 
C 13.90625 0.390625 7 6.84375 7 14.6875 
C 7 22.546875 13.09375 29.09375 20 32.1875 
z
" id="CMR17-56"/>
      </defs>
      <g transform="translate(53.0423582464 115.619607672)scale(0.12 -0.12)">
       <use transform="scale(0.9962640099626402)" xlink:href="#CMR17-48"/>
       <use transform="translate(45.69047711706103 0.0)scale(0.9962640099626402)" xlink:href="#CMMI12-58"/>
       <use transform="translate(72.78765420688046 0.0)scale(0.9962640099626402)" xlink:href="#CMR17-56"/>
      </g>
     </g>
    </g>
    <g id="ytick_6">
     <g id="line2d_29">
      <g>
       <use style="stroke:#000000;stroke-width:0.5;" x="72.0" xlink:href="#m771086e968" y="43.2"/>
      </g>
     </g>
     <g id="line2d_30">
      <g>
       <use style="stroke:#000000;stroke-width:0.5;" x="518.4" xlink:href="#m34554317bc" y="43.2"/>
      </g>
     </g>
     <g id="text_12">
      <!-- $1.0$ -->
      <g transform="translate(53.0423582464 46.4996076724)scale(0.12 -0.12)">
       <use transform="scale(0.9962640099626402)" xlink:href="#CMR17-49"/>
       <use transform="translate(45.69047711706103 0.0)scale(0.9962640099626402)" xlink:href="#CMMI12-58"/>
       <use transform="translate(72.78765420688046 0.0)scale(0.9962640099626402)" xlink:href="#CMR17-48"/>
      </g>
     </g>
    </g>
    <g id="text_13">
     <!-- Probability of Survival (Male) -->
     <defs>
      <path d="M 18 73 
L 0.796875 73 
L 0.796875 68.21875 
L 4.296875 68.21875 
C 8 68.21875 8.59375 67.515625 8.59375 63.25 
L 8.59375 24.625 
C 8.59375 11.3125 8.09375 4.84375 6.796875 -1 
L 10.59375 -1 
L 15.5 6.75 
C 19.59375 1.453125 24.296875 -1 30.5 -1 
C 42.796875 -1 52 9.59375 52 23.828125 
C 52 38.078125 43.59375 48.078125 31.59375 48.078125 
C 25.5 48.078125 21.796875 46 18 40.328125 
z
M 29.796875 43 
C 37.296875 43 41.5 35.765625 41.5 22.796875 
C 41.5 10.3125 37.40625 3.1875 30.09375 3.1875 
C 22.203125 3.1875 17.5 10.40625 17.5 22.59375 
C 17.5 35.765625 21.796875 43 29.796875 43 
" id="Century_Schoolbook_L_Roman-98"/>
      <path d="M 28.703125 72 
L 2.90625 72 
L 2.90625 67.3125 
L 4.796875 67.3125 
C 12.90625 67.3125 13.796875 66.8125 13.796875 62.59375 
L 13.796875 59.703125 
L 13.796875 21.390625 
C 13.796875 7.78125 11.796875 4.890625 2.203125 4.890625 
L 2.203125 0 
L 30.703125 0 
L 30.703125 4.890625 
C 21.203125 4.890625 19.203125 7.78125 19.203125 21.40625 
L 19.203125 65.625 
L 43 0 
L 47 0 
L 69.296875 65.625 
L 69.296875 12.453125 
L 69.296875 9.5625 
C 69.296875 5.296875 68.40625 4.890625 60.296875 4.890625 
L 58.5 4.890625 
L 58.5 0 
L 91.296875 0 
L 91.296875 4.890625 
L 89.5 4.890625 
C 81.40625 4.890625 80.5 5.296875 80.5 9.5625 
L 80.5 12.453125 
L 80.5 59.75 
L 80.5 62.625 
C 80.5 66.8125 81.40625 67.3125 89.5 67.3125 
L 91.296875 67.3125 
L 91.296875 72 
L 66.203125 72 
L 47.90625 18.84375 
z
" id="Century_Schoolbook_L_Roman-77"/>
      <path d="M 30 13.203125 
L 19 38.8125 
C 18.59375 39.703125 18.40625 40.40625 18.40625 40.90625 
C 18.40625 42.703125 19.59375 43.40625 23 43.40625 
L 25.09375 43.40625 
L 25.09375 47 
L 1.296875 47 
L 1.296875 43.40625 
L 2.40625 43.40625 
C 5.59375 43.40625 7.40625 42 9.203125 38.015625 
L 25.5 1.234375 
L 23.796875 -2.265625 
C 20.203125 -9.828125 15.5 -15.109375 12.296875 -15.109375 
C 11.40625 -15.109375 10.703125 -14.703125 10.703125 -14.109375 
C 10.703125 -13.90625 10.796875 -13.609375 10.90625 -13.203125 
C 11.203125 -12.3125 11.40625 -11.421875 11.40625 -10.625 
C 11.40625 -8.03125 9.203125 -6.140625 6.296875 -6.140625 
C 2.796875 -6.140625 0.296875 -8.734375 0.296875 -12.328125 
C 0.296875 -16.703125 4.203125 -20 9.40625 -20 
C 14.703125 -20 19.203125 -17.40625 23.203125 -12.03125 
C 26.296875 -7.84375 28.296875 -3.84375 32.703125 7.21875 
L 44.09375 35.328125 
C 46.59375 41.40625 48.703125 43.40625 52.5 43.40625 
L 53.09375 43.40625 
L 53.09375 47 
L 33.09375 47 
L 33.09375 43.40625 
L 34.703125 43.40625 
C 38.5 43.40625 40.09375 42.296875 40.09375 39.703125 
C 40.09375 38.703125 39.796875 37.421875 39.09375 35.734375 
z
" id="Century_Schoolbook_L_Roman-121"/>
      <path d="M 20.40625 73 
L 1.90625 73 
L 1.90625 68.21875 
L 6.796875 68.21875 
C 10.40625 68.21875 11 67.515625 11 63.21875 
L 11 12.28125 
L 11 8.28125 
C 11 4.296875 9.90625 3.59375 3.5 3.59375 
L 2.796875 3.59375 
L 2.796875 0 
L 28.703125 0 
L 28.703125 3.59375 
L 28 3.59375 
C 21.5 3.59375 20.40625 4.296875 20.40625 8.25 
L 20.40625 12.21875 
z
" id="Century_Schoolbook_L_Roman-108"/>
      <path d="M 29.5 12.09375 
L 18.09375 38.59375 
C 17.796875 39.203125 17.59375 40.09375 17.59375 40.703125 
C 17.59375 42.390625 18.90625 43 23 43 
L 24.40625 43 
L 24.40625 46.59375 
L 0.796875 46.59375 
L 0.796875 43 
L 1.59375 43 
C 5.40625 43 6.796875 42.09375 8.203125 38.703125 
L 25.40625 -1.5 
L 28.90625 -1.5 
L 43.09375 33.59375 
C 45.796875 40.203125 48.59375 43 52.40625 43 
L 52.796875 43 
L 52.796875 46.59375 
L 32.796875 46.59375 
L 32.796875 43 
L 34.203125 43 
C 37.703125 43 39.59375 41.796875 39.59375 39.5 
C 39.59375 38.390625 39.203125 36.796875 38.703125 35.296875 
z
" id="Century_Schoolbook_L_Roman-118"/>
      <path d="M 24.796875 32 
L 36.09375 32 
C 45.09375 32 49.796875 32.703125 53.796875 34.59375 
C 60.90625 38 64.90625 44.359375 64.90625 52.25 
C 64.90625 59.84375 61.40625 65.609375 54.796875 68.90625 
C 50.90625 70.90625 44.703125 72 37.796875 72 
L 2.796875 72 
L 2.796875 67.3125 
L 4.59375 67.3125 
C 12.703125 67.3125 13.59375 66.8125 13.59375 62.609375 
L 13.59375 59.71875 
L 13.59375 12.28125 
L 13.59375 9.375 
C 13.59375 5.1875 12.703125 4.6875 4.59375 4.6875 
L 2.796875 4.6875 
L 2.796875 0 
L 36.40625 0 
L 36.40625 4.6875 
L 33.796875 4.6875 
C 25.703125 4.6875 24.796875 5.1875 24.796875 9.375 
L 24.796875 12.265625 
z
M 24.796875 36.703125 
L 24.796875 62.21875 
C 24.796875 66.8125 25.40625 67.3125 30.90625 67.3125 
L 37.296875 67.3125 
C 47.703125 67.3125 52.59375 62.421875 52.59375 51.859375 
C 52.59375 41.59375 47.5 36.703125 36.90625 36.703125 
z
" id="Century_Schoolbook_L_Roman-80"/>
      <path d="M 20.09375 46.296875 
L 20.09375 52.140625 
C 20.09375 57.265625 20.40625 60.65625 21.203125 62.71875 
C 22.796875 67.234375 26.296875 70 30.296875 70 
C 32.40625 70 33.703125 69.390625 33.703125 68.265625 
C 33.703125 67.9375 33.59375 67.75 33.09375 66.921875 
C 32.5 65.90625 32.203125 64.765625 32.203125 63.640625 
C 32.203125 60.546875 34.59375 58.203125 37.703125 58.203125 
C 41 58.203125 43.296875 60.734375 43.296875 64.40625 
C 43.296875 70.328125 38.296875 74 30.203125 74 
C 23.296875 74 18.296875 71.53125 14.703125 66.4375 
C 11.703125 62.140625 10.703125 57.734375 10.703125 49.46875 
L 10.703125 46.296875 
L 1.90625 46.296875 
L 1.90625 42 
L 10.703125 42 
L 10.703125 12.234375 
L 10.703125 8.25 
C 10.703125 4.296875 9.59375 3.59375 3.203125 3.59375 
L 2.796875 3.59375 
L 2.796875 0 
L 29.5 0 
L 29.5 3.59375 
L 27.703125 3.59375 
C 21.203125 3.59375 20.09375 4.296875 20.09375 8.25 
L 20.09375 12.234375 
L 20.09375 42 
L 31.09375 42 
L 31.09375 46.296875 
z
" id="Century_Schoolbook_L_Roman-102"/>
     </defs>
     <g transform="translate(45.7709231252 298.148835787)rotate(-90.0)scale(0.12 -0.12)">
      <use transform="scale(0.9962640099626402)" xlink:href="#Century_Schoolbook_L_Roman-80"/>
      <use transform="translate(66.45003113325032 0.0)scale(0.9962640099626402)" xlink:href="#Century_Schoolbook_L_Roman-114"/>
      <use transform="translate(110.68359983071296 0.0)scale(0.9962640099626402)" xlink:href="#Century_Schoolbook_L_Roman-111"/>
      <use transform="translate(160.49680032884498 0.0)scale(0.9962640099626402)" xlink:href="#Century_Schoolbook_L_Roman-98"/>
      <use transform="translate(215.88847729218557 0.0)scale(0.9962640099626402)" xlink:href="#Century_Schoolbook_L_Roman-97"/>
      <use transform="translate(271.28015425552616 0.0)scale(0.9962640099626402)" xlink:href="#Century_Schoolbook_L_Roman-98"/>
      <use transform="translate(326.67183121886677 0.0)scale(0.9962640099626402)" xlink:href="#Century_Schoolbook_L_Roman-105"/>
      <use transform="translate(358.05314421505295 0.0)scale(0.9962640099626402)" xlink:href="#Century_Schoolbook_L_Roman-108"/>
      <use transform="translate(389.43445721123913 0.0)scale(0.9962640099626402)" xlink:href="#Century_Schoolbook_L_Roman-105"/>
      <use transform="translate(420.8157702074253 0.0)scale(0.9962640099626402)" xlink:href="#Century_Schoolbook_L_Roman-116"/>
      <use transform="translate(459.5694764019692 0.0)scale(0.9962640099626402)" xlink:href="#Century_Schoolbook_L_Roman-121"/>
      <use transform="translate(540.7639898962874 0.0)scale(0.9962640099626402)" xlink:href="#Century_Schoolbook_L_Roman-111"/>
      <use transform="translate(590.5771903944194 0.0)scale(0.9962640099626402)" xlink:href="#Century_Schoolbook_L_Roman-102"/>
      <use transform="translate(651.4475897270004 0.0)scale(0.9962640099626402)" xlink:href="#Century_Schoolbook_L_Roman-83"/>
      <use transform="translate(714.2115686780045 0.0)scale(0.9962640099626402)" xlink:href="#Century_Schoolbook_L_Roman-117"/>
      <use transform="translate(775.0831993549581 0.0)scale(0.9962640099626402)" xlink:href="#Century_Schoolbook_L_Roman-114"/>
      <use transform="translate(819.3167680524207 0.0)scale(0.9962640099626402)" xlink:href="#Century_Schoolbook_L_Roman-118"/>
      <use transform="translate(872.8161119434932 0.0)scale(0.9962640099626402)" xlink:href="#Century_Schoolbook_L_Roman-105"/>
      <use transform="translate(904.1974249396794 0.0)scale(0.9962640099626402)" xlink:href="#Century_Schoolbook_L_Roman-118"/>
      <use transform="translate(957.6967688307519 0.0)scale(0.9962640099626402)" xlink:href="#Century_Schoolbook_L_Roman-97"/>
      <use transform="translate(1013.0884457940925 0.0)scale(0.9962640099626402)" xlink:href="#Century_Schoolbook_L_Roman-108"/>
      <use transform="translate(1072.1649283935244 0.0)scale(0.9962640099626402)" xlink:href="#Century_Schoolbook_L_Roman-40"/>
      <use transform="translate(1105.3401581228597 0.0)scale(0.9962640099626402)" xlink:href="#Century_Schoolbook_L_Roman-77"/>
      <use transform="translate(1199.3869273184544 0.0)scale(0.9962640099626402)" xlink:href="#Century_Schoolbook_L_Roman-97"/>
      <use transform="translate(1254.778604281795 0.0)scale(0.9962640099626402)" xlink:href="#Century_Schoolbook_L_Roman-108"/>
      <use transform="translate(1286.159917277981 0.0)scale(0.9962640099626402)" xlink:href="#Century_Schoolbook_L_Roman-101"/>
      <use transform="translate(1335.9731177761132 0.0)scale(0.9962640099626402)" xlink:href="#Century_Schoolbook_L_Roman-41"/>
     </g>
    </g>
   </g>
  </g>
 </g>
 <defs>
  <clipPath id="p2dcabb8f39">
   <rect height="345.6" width="446.4" x="72.0" y="43.2"/>
  </clipPath>
 </defs>
</svg>
